<svg version="1.1" width="17.229377031326294" height="17.229377031326294" viewBox="-0.5646889917552471 -0.5646889917552471 17.229377031326294 17.229377031326294" xmlns="http://www.w3.org/2000/svg" xmlns:xlink="http://www.w3.org/1999/xlink">
  <!-- Exported by Scratch - http://scratch.mit.edu/ -->
  <g id="ID0.6902781184762716">
    <g id="Kara">
      <g id="Body">
        <path id="ID0.19580044178292155" fill="rgb(255,133,206)" d="M 16.05 4.05 C 16.05 1.8427 14.2573 0.05 12.05 0.05 L 4.05 0.05 C 1.8427 0.05 0.05 1.8427 0.05 4.05 L 0.05 12.05 C 0.05 14.2573 1.8427 16.05 4.05 16.05 L 12.05 16.05 C 14.2573 16.05 16.05 14.2573 16.05 12.05 L 16.05 4.05 Z " stroke-width="0.6666667461395264"/>
      </g>
      <g id="ID0.25301187252625823">
        <path id="ID0.5101694520562887" fill="white" d="M 4.8976 5.125 C 5.4654 5.2842 6.0331 5.4433 6.6009 5.6033 C 6.7404 5.9614 6.8812 6.3195 7.0206 6.6776 C 6.6285 6.9646 6.235 7.2516 5.8429 7.5386 C 5.2127 7.5394 4.5824 7.5394 3.9522 7.5386 C 3.5601 7.2516 3.1666 6.9646 2.7745 6.6776 C 2.9139 6.3195 3.0547 5.9614 3.1942 5.6033 C 3.762 5.4433 4.3298 5.2842 4.8976 5.125 Z " stroke-width="1.1885839177414301"/>
      </g>
      <g id="ID0.4949202770367265">
        <path id="ID0.20058884611353278" fill="white" d="M 11.1476 5.125 L 12.8509 5.6033 L 13.2706 6.6776 L 12.0929 7.5386 L 10.2022 7.5386 L 9.0245 6.6776 L 9.4442 5.6033 L 11.1476 5.125 Z " stroke-width="1.1885839177414301"/>
      </g>
      <g id="ID0.725547265727073">
        <path id="ID0.9086798545904458" fill="rgb(148,186,254)" d="M 4.9107 5.3325 C 5.1798 5.3325 5.4236 5.4417 5.601 5.6182 C 5.7775 5.7956 5.8867 6.0394 5.8867 6.3085 C 5.8867 6.5776 5.7775 6.8214 5.601 6.9988 C 5.4236 7.1753 5.1798 7.2845 4.9107 7.2845 C 4.6416 7.2845 4.3978 7.1753 4.2204 6.9988 C 4.0439 6.8214 3.9347 6.5776 3.9347 6.3085 C 3.9347 6.0394 4.0439 5.7956 4.2204 5.6182 C 4.3978 5.4417 4.6416 5.3325 4.9107 5.3325 Z " stroke-width="0.8737574219703674"/>
      </g>
      <g id="ID0.0963721158914268">
        <path id="ID0.965805605519563" fill="rgb(148,186,254)" d="M 11.1458 5.3094 C 11.4209 5.3094 11.6701 5.4211 11.8515 5.6015 C 12.0319 5.7828 12.1435 6.032 12.1435 6.3071 C 12.1435 6.5822 12.0319 6.8314 11.8515 7.0127 C 11.6701 7.1932 11.4209 7.3048 11.1458 7.3048 C 10.8707 7.3048 10.6215 7.1932 10.4402 7.0127 C 10.2598 6.8314 10.1482 6.5822 10.1482 6.3071 C 10.1482 6.032 10.2598 5.7828 10.4402 5.6015 C 10.6215 5.4211 10.8707 5.3094 11.1458 5.3094 Z " stroke-width="0.8931823372840881"/>
      </g>
      <g id="ID0.24130471237003803">
        <path id="ID0.14349013660103083" fill="none" stroke="rgb(211,54,118)" stroke-width="0.8325767972017328" d="M 6.8882 10.177 C 6.8882 10.177 7.0501 11.177 8.0189 11.177 C 8.9877 11.177 9.1506 10.177 9.1506 10.177 "/>
      </g>
      <g id="ID0.5294629191048443">
        <path id="ID0.5361226433888078" fill="rgb(236,115,187)" d="M 4.5104 8.0623 C 4.8497 8.0623 5.157 8.2 5.3796 8.4226 C 5.6021 8.6451 5.7398 8.9524 5.7398 9.2917 C 5.7398 9.631 5.6021 9.9384 5.3796 10.1609 C 5.157 10.3834 4.8497 10.5211 4.5104 10.5211 C 4.1711 10.5211 3.8637 10.3834 3.6412 10.1609 C 3.4187 9.9384 3.281 9.631 3.281 9.2917 C 3.281 8.9524 3.4187 8.6451 3.6412 8.4226 C 3.8637 8.2 4.1711 8.0623 4.5104 8.0623 Z " stroke-width="1.2293779850006104"/>
      </g>
      <g id="ID0.6271675936877728">
        <path id="ID0.006029861979186535" fill="rgb(236,115,187)" d="M 11.5104 8.0623 C 11.8497 8.0623 12.157 8.2 12.3796 8.4226 C 12.6021 8.6451 12.7398 8.9524 12.7398 9.2917 C 12.7398 9.631 12.6021 9.9384 12.3796 10.1609 C 12.157 10.3834 11.8497 10.5211 11.5104 10.5211 C 11.1711 10.5211 10.8637 10.3834 10.6412 10.1609 C 10.4187 9.9384 10.281 9.631 10.281 9.2917 C 10.281 8.9524 10.4187 8.6451 10.6412 8.4226 C 10.8637 8.2 11.1711 8.0623 11.5104 8.0623 Z " stroke-width="1.2293779850006104"/>
      </g>
    </g>
  </g>
<defs/></svg>