<svg version="1.1" width="68.33000183105469" height="13.730000495910645" viewBox="0.4020000100135803 0.36500000953674316 68.33000183105469 13.730000495910645" xmlns="http://www.w3.org/2000/svg" xmlns:xlink="http://www.w3.org/1999/xlink">
  <!-- Exported by Scratch - http://scratch.mit.edu/ -->
  <g id="ID0.2740592253394425">
    <path id="ID0.9974386859685183" fill="#6FD57E" d="M 0.902 13.39 L 0.902 0.865 L 9.352 0.865 L 9.352 2.343 L 2.56 2.343 L 2.56 6.222 L 8.437 6.222 L 8.437 7.7 L 2.56 7.7 L 2.56 13.39 L 0.902 13.39 Z " stroke-width="1"/>
    <path id="ID0.03059028973802924" fill="#6FD57E" d="M 17.519 10.468 L 19.108 10.665 C 18.857 11.593 18.393 12.313 17.715 12.826 C 17.038 13.339 16.172 13.595 15.118 13.595 C 13.791 13.595 12.739 13.186 11.962 12.369 C 11.184 11.552 10.795 10.405 10.795 8.93 C 10.795 7.404 11.188 6.219 11.974 5.376 C 12.76 4.533 13.78 4.112 15.033 4.112 C 16.246 4.112 17.237 4.525 18.006 5.351 C 18.775 6.177 19.159 7.338 19.159 8.836 C 19.159 8.927 19.156 9.064 19.151 9.246 L 12.384 9.246 C 12.441 10.243 12.723 11.006 13.23 11.536 C 13.737 12.066 14.369 12.331 15.127 12.331 C 15.691 12.331 16.172 12.182 16.571 11.886 C 16.969 11.59 17.285 11.117 17.519 10.468 Z M 12.47 7.982 L 17.536 7.982 C 17.468 7.219 17.274 6.646 16.955 6.265 C 16.465 5.672 15.83 5.376 15.05 5.376 C 14.344 5.376 13.75 5.613 13.269 6.085 C 12.787 6.558 12.521 7.19 12.47 7.982 Z " stroke-width="1"/>
    <path id="ID0.725184865295887" fill="#6FD57E" d="M 26.959 12.271 C 26.39 12.755 25.842 13.097 25.315 13.296 C 24.788 13.495 24.223 13.595 23.619 13.595 C 22.622 13.595 21.856 13.351 21.321 12.864 C 20.785 12.378 20.518 11.755 20.518 10.998 C 20.518 10.554 20.619 10.148 20.821 9.78 C 21.023 9.413 21.288 9.118 21.615 8.896 C 21.943 8.674 22.312 8.506 22.722 8.392 C 23.024 8.312 23.479 8.235 24.089 8.161 C 25.33 8.013 26.244 7.837 26.831 7.632 C 26.837 7.421 26.84 7.287 26.84 7.23 C 26.84 6.604 26.694 6.162 26.404 5.906 C 26.011 5.559 25.427 5.385 24.653 5.385 C 23.929 5.385 23.395 5.512 23.051 5.765 C 22.706 6.018 22.451 6.467 22.286 7.111 L 20.782 6.906 C 20.919 6.262 21.144 5.742 21.457 5.346 C 21.771 4.951 22.223 4.646 22.816 4.432 C 23.408 4.219 24.094 4.112 24.875 4.112 C 25.649 4.112 26.279 4.203 26.763 4.385 C 27.247 4.568 27.603 4.797 27.831 5.073 C 28.058 5.349 28.218 5.698 28.309 6.12 C 28.36 6.382 28.386 6.854 28.386 7.538 L 28.386 9.588 C 28.386 11.018 28.419 11.922 28.484 12.301 C 28.55 12.679 28.679 13.042 28.873 13.39 L 27.267 13.39 C 27.107 13.071 27.005 12.698 26.959 12.271 Z M 26.831 8.836 C 26.273 9.064 25.436 9.258 24.319 9.417 C 23.687 9.508 23.24 9.611 22.978 9.725 C 22.716 9.839 22.514 10.005 22.372 10.225 C 22.229 10.444 22.158 10.687 22.158 10.955 C 22.158 11.365 22.313 11.707 22.624 11.98 C 22.934 12.254 23.388 12.39 23.986 12.39 C 24.579 12.39 25.105 12.261 25.567 12.002 C 26.028 11.742 26.367 11.388 26.583 10.938 C 26.749 10.591 26.831 10.078 26.831 9.4 L 26.831 8.836 Z " stroke-width="1"/>
    <path id="ID0.9595246450044215" fill="#6FD57E" d="M 34.127 12.014 L 34.349 13.373 C 33.916 13.464 33.529 13.51 33.187 13.51 C 32.629 13.51 32.196 13.421 31.889 13.245 C 31.581 13.068 31.365 12.836 31.239 12.548 C 31.114 12.261 31.051 11.656 31.051 10.733 L 31.051 5.513 L 29.924 5.513 L 29.924 4.317 L 31.051 4.317 L 31.051 2.07 L 32.581 1.147 L 32.581 4.317 L 34.127 4.317 L 34.127 5.513 L 32.581 5.513 L 32.581 10.818 C 32.581 11.257 32.608 11.539 32.662 11.664 C 32.716 11.789 32.804 11.889 32.927 11.963 C 33.049 12.037 33.224 12.074 33.452 12.074 C 33.623 12.074 33.848 12.054 34.127 12.014 Z " stroke-width="1"/>
    <path id="ID0.40414206124842167" fill="#6FD57E" d="M 41.577 13.39 L 41.577 12.057 C 40.871 13.082 39.911 13.595 38.698 13.595 C 38.162 13.595 37.663 13.492 37.198 13.287 C 36.734 13.082 36.39 12.825 36.165 12.514 C 35.94 12.204 35.782 11.824 35.69 11.374 C 35.628 11.072 35.597 10.593 35.597 9.938 L 35.597 4.317 L 37.134 4.317 L 37.134 9.349 C 37.134 10.152 37.166 10.693 37.228 10.972 C 37.325 11.377 37.53 11.694 37.843 11.925 C 38.157 12.155 38.544 12.271 39.005 12.271 C 39.467 12.271 39.899 12.153 40.304 11.916 C 40.708 11.68 40.994 11.358 41.162 10.951 C 41.33 10.544 41.414 9.953 41.414 9.178 L 41.414 4.317 L 42.952 4.317 L 42.952 13.39 L 41.577 13.39 Z " stroke-width="1"/>
    <path id="ID0.7859549676068127" fill="#6FD57E" d="M 45.344 13.39 L 45.344 4.317 L 46.728 4.317 L 46.728 5.692 C 47.082 5.049 47.408 4.625 47.707 4.419 C 48.006 4.214 48.335 4.112 48.693 4.112 C 49.212 4.112 49.738 4.277 50.274 4.607 L 49.744 6.034 C 49.368 5.812 48.992 5.701 48.616 5.701 C 48.28 5.701 47.979 5.802 47.711 6.004 C 47.443 6.206 47.252 6.487 47.138 6.846 C 46.968 7.393 46.882 7.991 46.882 8.64 L 46.882 13.39 L 45.344 13.39 Z " stroke-width="1"/>
    <path id="ID0.6206725742667913" fill="#6FD57E" d="M 57.399 10.468 L 58.988 10.665 C 58.737 11.593 58.273 12.313 57.595 12.826 C 56.918 13.339 56.052 13.595 54.998 13.595 C 53.671 13.595 52.619 13.186 51.842 12.369 C 51.064 11.552 50.675 10.405 50.675 8.93 C 50.675 7.404 51.068 6.219 51.854 5.376 C 52.64 4.533 53.66 4.112 54.913 4.112 C 56.126 4.112 57.117 4.525 57.886 5.351 C 58.655 6.177 59.039 7.338 59.039 8.836 C 59.039 8.927 59.036 9.064 59.031 9.246 L 52.264 9.246 C 52.321 10.243 52.603 11.006 53.11 11.536 C 53.617 12.066 54.249 12.331 55.007 12.331 C 55.571 12.331 56.052 12.182 56.451 11.886 C 56.849 11.59 57.165 11.117 57.399 10.468 Z M 52.35 7.982 L 57.416 7.982 C 57.348 7.219 57.154 6.646 56.835 6.265 C 56.345 5.672 55.71 5.376 54.93 5.376 C 54.224 5.376 53.63 5.613 53.149 6.085 C 52.667 6.558 52.401 7.19 52.35 7.982 Z " stroke-width="1"/>
    <path id="ID0.5400056219659746" fill="#6FD57E" d="M 66.805 13.39 L 66.805 12.245 C 66.23 13.145 65.384 13.595 64.268 13.595 C 63.544 13.595 62.879 13.396 62.273 12.997 C 61.666 12.598 61.196 12.041 60.863 11.327 C 60.53 10.612 60.363 9.79 60.363 8.862 C 60.363 7.956 60.514 7.135 60.816 6.397 C 61.118 5.66 61.571 5.094 62.175 4.701 C 62.778 4.308 63.453 4.112 64.199 4.112 C 64.746 4.112 65.233 4.227 65.66 4.458 C 66.087 4.689 66.435 4.989 66.703 5.359 L 66.703 0.865 L 68.232 0.865 L 68.232 13.39 L 66.805 13.39 Z M 61.944 8.862 C 61.944 10.024 62.189 10.892 62.679 11.468 C 63.169 12.043 63.747 12.331 64.413 12.331 C 65.085 12.331 65.656 12.056 66.126 11.506 C 66.596 10.956 66.831 10.118 66.831 8.99 C 66.831 7.748 66.592 6.837 66.113 6.256 C 65.635 5.675 65.045 5.385 64.345 5.385 C 63.661 5.385 63.09 5.664 62.632 6.222 C 62.173 6.78 61.944 7.66 61.944 8.862 Z " stroke-width="1"/>
  </g>
</svg>