<svg version="1.1" width="37.875" height="53.125" viewBox="0.3129986524581909 0.25 37.875 53.125" xmlns="http://www.w3.org/2000/svg" xmlns:xlink="http://www.w3.org/1999/xlink">
  <!-- Exported by Scratch - http://scratch.mit.edu/ -->
  <g id="ID0.4043897781521082">
    <g id="layer1">
      <path id="path3036" fill="#666666" stroke="none" d="M 26.188 0.75 C 22.297 0.75 18.785 1.43 15.656 2.813 C 12.527 4.195 9.859 6.105 7.656 8.531 C 5.453 10.957 3.746 13.801 2.563 17.094 C 1.379 20.387 0.812 23.961 0.813 27.781 C 0.812 31.414 1.355 34.773 2.469 37.844 C 3.582 40.914 5.168 43.555 7.219 45.781 C 9.27 48.008 11.75 49.746 14.656 51 C 17.562 52.254 20.781 52.875 24.344 52.875 C 29.336 52.875 33.797 51.953 37.688 50.125 L 37.688 45.563 C 34.008 47.602 29.727 48.625 24.875 48.625 C 21.711 48.625 18.953 48.063 16.563 46.938 C 14.172 45.813 12.168 44.297 10.563 42.375 C 8.957 40.453 7.727 38.192 6.906 35.625 C 6.086 33.059 5.687 30.344 5.688 27.438 C 5.687 24.203 6.148 21.199 7.063 18.469 C 7.977 15.738 9.297 13.379 11.031 11.375 C 12.766 9.371 14.906 7.813 17.438 6.688 C 19.969 5.563 22.867 5 26.125 5 C 30.227 5 34.078 5.914 37.688 7.719 L 37.688 2.719 C 34.312 1.406 30.477 0.75 26.188 0.75 Z " stroke-width="1"/>
    </g>
  </g>
</svg>