<svg version="1.1" width="90.2316567339425" height="28.67955559868859" viewBox="-1.2206777427556452 -0.3169777710201678 90.2316567339425 28.67955559868859" xmlns="http://www.w3.org/2000/svg" xmlns:xlink="http://www.w3.org/1999/xlink">
  <!-- Exported by Scratch - http://scratch.mit.edu/ -->
  <g id="ID0.03796483017504215">
    <path id="ID0.5629956251941621" fill="rgb(80,133,199)" d="M 44.0001 0.9989 C 40.4132 0.9989 37.1632 2.456 34.8102 4.809 C 32.4572 7.162 31.0001 10.412 31.0001 13.9989 C 31.0001 17.5858 32.4572 20.8358 34.8102 23.1888 C 37.1632 25.5418 40.4132 26.9989 44.0001 26.9989 C 47.587 26.9989 50.837 25.5418 53.19 23.1888 C 55.543 20.8358 57 17.5858 57 13.9989 C 57 10.412 55.543 7.162 53.19 4.809 C 50.837 2.456 47.587 0.9989 44.0001 0.9989 Z " stroke-width="1.0833300352096558"/>
  </g>
  <path id="ID0.4496537633240223" fill="#65A8E7" stroke="none" d="M 0.0692 0.9729 L 87.7211 0.9729 L 87.7211 27.0727 L 0.0692 27.0727 L 0.0692 0.9729 Z " stroke-width="2.5797554888253087"/>
<defs/></svg>