<svg version="1.1" width="29.812999725341797" height="37.84400177001953" viewBox="-0.21900001168251038 -0.5 29.812999725341797 37.84400177001953" xmlns="http://www.w3.org/2000/svg" xmlns:xlink="http://www.w3.org/1999/xlink">
  <!-- Exported by Scratch - http://scratch.mit.edu/ -->
  <g id="ID0.1970407422631979">
    <g id="layer1">
      <path id="path3335" fill="#666666" stroke="none" d="M 0.281 0 L 0.281 21.156 C 0.281 31.609 4.57 36.844 13.125 36.844 C 18.258 36.844 22.031 34.516 24.469 29.875 L 24.594 29.875 L 24.594 36 L 29.094 36 L 29.094 0 L 24.594 0 L 24.594 20.563 C 24.594 22.414 24.359 24.102 23.844 25.625 C 23.328 27.148 22.582 28.473 21.656 29.563 C 20.73 30.652 19.652 31.496 18.375 32.094 C 17.098 32.691 15.672 32.969 14.125 32.969 C 10.961 32.969 8.629 31.938 7.094 29.875 C 5.559 27.813 4.781 24.625 4.781 20.313 L 4.781 0 L 0.281 0 Z " stroke-width="1"/>
    </g>
  </g>
</svg>