<svg version="1.1" width="61.378997802734375" height="19.381999969482422" viewBox="-0.04399999976158142 0.06599998474121094 61.378997802734375 19.381999969482422" xmlns="http://www.w3.org/2000/svg" xmlns:xlink="http://www.w3.org/1999/xlink">
  <!-- Exported by Scratch - http://scratch.mit.edu/ -->
  <g id="Rename Button">
    <path id="ID0.46243465645238757" fill="#878787" d="M 0.456 0.566 L 60.835 0.566 L 60.835 18.948 L 0.456 18.948 L 0.456 0.566 Z " stroke-width="1"/>
    <path id="ID0.8447562223300338" fill="#fff" d="M 8.493 14.052 L 8.493 5.462 L 12.302 5.462 C 13.068 5.462 13.650 5.539 14.048 5.693 C 14.447 5.848 14.765 6.120 15.003 6.511 C 15.241 6.901 15.361 7.333 15.361 7.806 C 15.361 8.415 15.163 8.929 14.769 9.347 C 14.374 9.764 13.765 10.030 12.941 10.143 C 13.241 10.288 13.470 10.431 13.626 10.571 C 13.958 10.876 14.273 11.257 14.570 11.714 L 16.064 14.052 L 14.634 14.052 L 13.497 12.264 C 13.165 11.749 12.892 11.354 12.677 11.081 C 12.462 10.807 12.270 10.616 12.100 10.507 C 11.930 10.397 11.757 10.321 11.581 10.278 C 11.452 10.251 11.241 10.237 10.948 10.237 L 9.630 10.237 L 9.630 14.052 L 8.493 14.052 Z M 9.630 9.253 L 12.073 9.253 C 12.593 9.253 12.999 9.199 13.292 9.092 C 13.585 8.984 13.808 8.812 13.960 8.576 C 14.113 8.340 14.189 8.083 14.189 7.806 C 14.189 7.399 14.041 7.065 13.746 6.804 C 13.451 6.542 12.986 6.411 12.349 6.411 L 9.630 6.411 L 9.630 9.253 Z " stroke-width="1"/>
    <path id="ID0.9956098790280521" fill="#fff" d="M 21.267 12.048 L 22.357 12.182 C 22.185 12.819 21.866 13.313 21.402 13.665 C 20.937 14.016 20.343 14.192 19.620 14.192 C 18.710 14.192 17.989 13.912 17.455 13.351 C 16.922 12.791 16.656 12.005 16.656 10.993 C 16.656 9.946 16.925 9.134 17.464 8.556 C 18.003 7.977 18.702 7.688 19.562 7.688 C 20.394 7.688 21.073 7.972 21.601 8.538 C 22.128 9.104 22.392 9.901 22.392 10.929 C 22.392 10.991 22.390 11.085 22.386 11.210 L 17.745 11.210 C 17.784 11.893 17.978 12.417 18.325 12.780 C 18.673 13.143 19.107 13.325 19.626 13.325 C 20.013 13.325 20.343 13.223 20.616 13.020 C 20.890 12.817 21.107 12.493 21.267 12.048 Z M 17.804 10.343 L 21.279 10.343 C 21.232 9.819 21.099 9.427 20.880 9.165 C 20.544 8.759 20.109 8.556 19.573 8.556 C 19.089 8.556 18.682 8.718 18.352 9.042 C 18.022 9.366 17.839 9.800 17.804 10.343 Z " stroke-width="1"/>
    <path id="ID0.8113267896696925" fill="#fff" d="M 23.681 14.052 L 23.681 7.829 L 24.630 7.829 L 24.630 8.714 C 25.087 8.030 25.747 7.688 26.611 7.688 C 26.986 7.688 27.330 7.756 27.645 7.890 C 27.959 8.025 28.195 8.202 28.351 8.421 C 28.507 8.639 28.616 8.899 28.679 9.200 C 28.718 9.395 28.738 9.737 28.738 10.225 L 28.738 14.052 L 27.683 14.052 L 27.683 10.266 C 27.683 9.837 27.642 9.515 27.560 9.303 C 27.478 9.090 27.332 8.920 27.123 8.793 C 26.914 8.666 26.669 8.602 26.388 8.602 C 25.939 8.602 25.551 8.745 25.225 9.030 C 24.899 9.315 24.736 9.856 24.736 10.653 L 24.736 14.052 L 23.681 14.052 Z " stroke-width="1"/>
    <path id="ID0.8813593597151339" fill="#fff" d="M 34.415 13.284 C 34.025 13.616 33.649 13.850 33.287 13.987 C 32.926 14.124 32.538 14.192 32.124 14.192 C 31.441 14.192 30.915 14.025 30.548 13.691 C 30.181 13.357 29.997 12.931 29.997 12.411 C 29.997 12.106 30.067 11.828 30.205 11.576 C 30.344 11.324 30.526 11.122 30.750 10.970 C 30.975 10.817 31.228 10.702 31.509 10.624 C 31.716 10.569 32.029 10.516 32.447 10.466 C 33.298 10.364 33.925 10.243 34.327 10.102 C 34.331 9.958 34.333 9.866 34.333 9.827 C 34.333 9.397 34.234 9.095 34.034 8.919 C 33.765 8.681 33.365 8.561 32.833 8.561 C 32.337 8.561 31.971 8.648 31.735 8.822 C 31.498 8.996 31.323 9.304 31.210 9.745 L 30.179 9.604 C 30.273 9.163 30.427 8.806 30.642 8.535 C 30.857 8.264 31.167 8.055 31.573 7.908 C 31.980 7.762 32.450 7.688 32.986 7.688 C 33.517 7.688 33.948 7.751 34.281 7.876 C 34.613 8.001 34.857 8.158 35.013 8.348 C 35.169 8.537 35.279 8.776 35.341 9.065 C 35.376 9.245 35.394 9.569 35.394 10.038 L 35.394 11.444 C 35.394 12.425 35.416 13.045 35.461 13.305 C 35.506 13.564 35.595 13.813 35.728 14.052 L 34.626 14.052 C 34.517 13.833 34.447 13.577 34.415 13.284 Z M 34.327 10.929 C 33.945 11.085 33.370 11.218 32.605 11.327 C 32.171 11.389 31.865 11.460 31.685 11.538 C 31.505 11.616 31.366 11.730 31.269 11.881 C 31.171 12.031 31.122 12.198 31.122 12.382 C 31.122 12.663 31.229 12.897 31.442 13.085 C 31.655 13.272 31.966 13.366 32.376 13.366 C 32.782 13.366 33.144 13.277 33.460 13.099 C 33.777 12.922 34.009 12.679 34.157 12.370 C 34.271 12.132 34.327 11.780 34.327 11.315 L 34.327 10.929 Z " stroke-width="1"/>
    <path id="ID0.21186562720686197" fill="#fff" d="M 37.029 14.052 L 37.029 7.829 L 37.972 7.829 L 37.972 8.702 C 38.167 8.397 38.427 8.152 38.751 7.967 C 39.075 7.781 39.445 7.688 39.859 7.688 C 40.320 7.688 40.698 7.784 40.992 7.975 C 41.287 8.167 41.495 8.434 41.616 8.778 C 42.109 8.052 42.749 7.688 43.538 7.688 C 44.156 7.688 44.630 7.859 44.962 8.201 C 45.294 8.543 45.460 9.069 45.460 9.780 L 45.460 14.052 L 44.411 14.052 L 44.411 10.132 C 44.411 9.710 44.377 9.406 44.309 9.221 C 44.240 9.035 44.116 8.886 43.937 8.772 C 43.757 8.659 43.546 8.602 43.304 8.602 C 42.866 8.602 42.503 8.748 42.214 9.039 C 41.925 9.330 41.781 9.796 41.781 10.436 L 41.781 14.052 L 40.726 14.052 L 40.726 10.009 C 40.726 9.540 40.640 9.188 40.468 8.954 C 40.296 8.720 40.015 8.602 39.624 8.602 C 39.327 8.602 39.053 8.681 38.801 8.837 C 38.549 8.993 38.366 9.222 38.253 9.522 C 38.140 9.823 38.083 10.257 38.083 10.823 L 38.083 14.052 L 37.029 14.052 Z " stroke-width="1"/>
    <path id="ID0.36708329478278756" fill="#fff" d="M 51.284 12.048 L 52.374 12.182 C 52.202 12.819 51.884 13.313 51.419 13.665 C 50.954 14.016 50.361 14.192 49.638 14.192 C 48.728 14.192 48.006 13.912 47.473 13.351 C 46.940 12.791 46.673 12.005 46.673 10.993 C 46.673 9.946 46.943 9.134 47.482 8.556 C 48.021 7.977 48.720 7.688 49.579 7.688 C 50.411 7.688 51.091 7.972 51.618 8.538 C 52.146 9.104 52.409 9.901 52.409 10.929 C 52.409 10.991 52.407 11.085 52.404 11.210 L 47.763 11.210 C 47.802 11.893 47.995 12.417 48.343 12.780 C 48.691 13.143 49.124 13.325 49.644 13.325 C 50.031 13.325 50.361 13.223 50.634 13.020 C 50.907 12.817 51.124 12.493 51.284 12.048 Z M 47.822 10.343 L 51.296 10.343 C 51.249 9.819 51.116 9.427 50.898 9.165 C 50.562 8.759 50.126 8.556 49.591 8.556 C 49.107 8.556 48.699 8.718 48.369 9.042 C 48.039 9.366 47.857 9.800 47.822 10.343 Z " stroke-width="1"/>
  </g>
</svg>