<svg version="1.1" width="66.33747644634823" height="66.33647699566464" viewBox="-0.45073699907352716 0.00026299848268240833 66.33747644634823 66.33647699566464" xmlns="http://www.w3.org/2000/svg" xmlns:xlink="http://www.w3.org/1999/xlink">
  <!-- Exported by Scratch - http://scratch.mit.edu/ -->
  <g id="Credits Button">
    <path id="ID0.35128556936979294" fill="#EB7B9D" d="M 32.718 0.574 C 41.711 0.574 49.859 4.226 55.760 10.126 C 61.660 16.027 65.313 24.176 65.313 33.168 C 65.313 42.161 61.660 50.310 55.760 56.210 C 49.859 62.111 41.711 65.763 32.718 65.763 C 23.725 65.763 15.577 62.111 9.676 56.210 C 3.775 50.310 0.123 42.161 0.123 33.168 C 0.123 24.176 3.775 16.027 9.676 10.126 C 15.577 4.226 23.725 0.574 32.718 0.574 Z " stroke-width="1"/>
    <path id="ID0.5339678851887584" fill="white" d="M 43.626 24.621 L 17.926 34.511 L 24.581 51.805 L 50.281 41.915 L 43.626 24.621 Z M 42.727 26.854 L 20.089 35.565 L 25.523 49.686 L 48.161 40.974 L 42.727 26.853 Z " stroke-width="1"/>
    <path id="ID0.39175600791350007" fill="white" d="M 37.431 14.531 L 15.155 30.720 L 17.816 34.382 L 40.092 18.194 L 37.431 14.532 Z " stroke-width="1"/>
    <path id="ID0.9691004063934088" fill="white" d="M 42.558 29.785 L 22.587 37.518 L 22.878 38.270 L 42.849 30.537 L 42.558 29.785 Z " stroke-width="1"/>
    <path id="ID0.3694037483073771" fill="white" d="M 41.176 34.168 L 23.976 40.828 L 24.259 41.559 L 41.459 34.899 L 41.176 34.168 Z " stroke-width="1"/>
  </g>
  <path id="ID0.6992688868194818" fill="#EB7B9D" stroke="none" d="M 19.9316 35.3529 L 42.714 26.6166 L 48.2598 41.0788 L 25.4774 49.8151 L 19.9316 35.3529 Z " stroke-width="1.1324475591035126"/>
  <path id="ID0.9157076585106552" fill="#FFFFFF" stroke="none" d="M 22.4269 37.0183 L 41.8808 29.7999 L 42.2703 30.8485 L 22.8163 38.0669 L 22.4269 37.0183 Z " stroke-width="1.1474740049419838"/>
  <path id="ID0.9157076585106552" fill="#FFFFFF" stroke="none" d="M 23.6933 39.7821 L 39.022 34.0943 L 39.4114 35.1429 L 24.0826 40.8307 L 23.6933 39.7821 Z " stroke-width="1.0269825311995413"/>
</svg>