<svg version="1.1" width="296.97521781921387" height="120.37640190124512" viewBox="-2.4881009459495544 -2.495300978422165 296.97521781921387 120.37640190124512" xmlns="http://www.w3.org/2000/svg" xmlns:xlink="http://www.w3.org/1999/xlink">
  <defs>
    <linearGradient id="grad_1" x1="0" y1="0" x2="1" y2="0" gradientUnits="userSpaceOnUse">
      <stop offset="0" stop-color="rgb(252,92,98)" stop-opacity="1"/>
      <stop offset="0.54" stop-color="rgb(251,152,72)" stop-opacity="1"/>
      <stop offset="1" stop-color="rgb(250,176,62)" stop-opacity="1"/>
    </linearGradient>
  <linearGradient id="grad_1-5.051672204293533e-16,-2.750002384185791,2.750002384185791,-5.051672204293533e-16,-18.950000000000003,198.5" x1="-18.95" y1="198.5" x2="-18.95" y2="195.75" gradientUnits="userSpaceOnUse">
      <stop offset="0" stop-color="rgb(252,92,98)" stop-opacity="1"/>
      <stop offset="0.54" stop-color="rgb(251,152,72)" stop-opacity="1"/>
      <stop offset="1" stop-color="rgb(250,176,62)" stop-opacity="1"/>
    </linearGradient></defs>
  <!-- Exported by Scratch - http://scratch.mit.edu/ -->
  <g id="ID0.02167423442006111">
    <path id="ID0.4040349777787924" fill="url(#grad_1-5.051672204293533e-16,-2.750002384185791,2.750002384185791,-5.051672204293533e-16,-18.950000000000003,198.5)" d="M 129.5501 0.4998 C 120.4449 0.4998 113.0501 7.8946 113.0501 16.9998 L 113.0501 49.9999 C 113.0501 59.1051 120.4449 66.4999 129.5501 66.4999 L 162.5502 66.4999 C 171.6554 66.4999 179.0502 59.1051 179.0502 49.9999 L 179.0502 16.9998 C 179.0502 7.8946 171.6554 0.4998 162.5502 0.4998 L 129.5501 0.4998 Z " stroke-width="2.750002384185791"/>
    <g id="ID0.1884987484663725">
      <path id="ID0.24575070943683386" fill="white" d="M 133.0964 17.2662 L 141.6444 23.472 L 138.3798 33.5236 L 127.8131 33.5236 L 124.5484 23.472 L 133.0964 17.2662 Z " stroke-width="5.990201950073242"/>
    </g>
    <g id="ID0.7898365738801658">
      <path id="ID0.8995189485140145" fill="white" d="M 158.9464 17.2662 L 167.4944 23.472 L 164.2298 33.5236 L 153.6631 33.5236 L 150.3984 23.472 L 158.9464 17.2662 Z " stroke-width="5.990201950073242"/>
    </g>
    <g id="ID0.11894238879904151">
      <path id="ID0.30342167569324374" fill="rgb(200,154,96)" d="M 133.0943 22.2968 C 134.2045 22.2968 135.21 22.7473 135.9417 23.4754 C 136.6698 24.2071 137.1203 25.2126 137.1203 26.3228 C 137.1203 27.4329 136.6698 28.4385 135.9417 29.1701 C 135.21 29.8982 134.2045 30.3487 133.0943 30.3487 C 131.9842 30.3487 130.9787 29.8982 130.247 29.1701 C 129.5189 28.4385 129.0684 27.4329 129.0684 26.3228 C 129.0684 25.2126 129.5189 24.2071 130.247 23.4754 C 130.9787 22.7473 131.9842 22.2968 133.0943 22.2968 Z " stroke-width="3.604252338409424"/>
    </g>
    <g id="ID0.15515227615833282">
      <path id="ID0.939600788988173" fill="rgb(200,154,96)" d="M 158.9205 22.2517 C 160.0553 22.2517 161.0833 22.7122 161.8312 23.4564 C 162.5754 24.2044 163.036 25.2323 163.036 26.3671 C 163.036 27.5019 162.5754 28.5298 161.8312 29.2778 C 161.0833 30.022 160.0553 30.4826 158.9205 30.4826 C 157.7857 30.4826 156.7578 30.022 156.0099 29.2778 C 155.2656 28.5298 154.8051 27.5019 154.8051 26.3671 C 154.8051 25.2323 155.2656 24.2044 156.0099 23.4564 C 156.7578 22.7122 157.7857 22.2517 158.9205 22.2517 Z " stroke-width="3.684380054473877"/>
    </g>
    <g id="ID0.151952410582453">
      <path id="ID0.9868688299320638" fill="rgb(128,128,128)" d="M 64.902 86.821 L 64.902 96.331 L 66.327 96.331 L 66.327 86.821 L 69.897 86.821 L 69.897 85.621 L 61.332 85.621 L 61.332 86.821 L 64.902 86.821 Z " stroke-width="1"/>
      <path id="ID0.27765859477221966" fill="rgb(128,128,128)" d="M 70.872 85.621 L 70.872 96.331 L 72.147 96.331 L 72.147 91.951 C 72.147 91.601 72.195 91.278 72.29 90.983 C 72.385 90.688 72.527 90.431 72.717 90.211 C 72.907 89.991 73.145 89.821 73.43 89.701 C 73.715 89.581 74.052 89.521 74.442 89.521 C 74.932 89.521 75.317 89.661 75.597 89.941 C 75.877 90.221 76.017 90.601 76.017 91.081 L 76.017 96.331 L 77.292 96.331 L 77.292 91.231 C 77.292 90.811 77.25 90.428 77.165 90.083 C 77.08 89.738 76.932 89.441 76.722 89.191 C 76.512 88.941 76.237 88.746 75.897 88.606 C 75.557 88.466 75.132 88.396 74.622 88.396 C 74.392 88.396 74.155 88.421 73.91 88.471 C 73.665 88.521 73.43 88.598 73.205 88.703 C 72.98 88.808 72.777 88.943 72.597 89.108 C 72.417 89.273 72.277 89.476 72.177 89.716 L 72.147 89.716 L 72.147 85.621 L 70.872 85.621 Z " stroke-width="1"/>
      <path id="ID0.8937276634387672" fill="rgb(128,128,128)" d="M 80.562 87.181 L 80.562 85.621 L 79.287 85.621 L 79.287 87.181 L 80.562 87.181 Z M 79.287 88.576 L 79.287 96.331 L 80.562 96.331 L 80.562 88.576 L 79.287 88.576 Z " stroke-width="1"/>
      <path id="ID0.7682586912997067" fill="rgb(128,128,128)" d="M 83.322 93.886 L 82.047 93.886 C 82.067 94.366 82.167 94.773 82.347 95.108 C 82.527 95.443 82.767 95.713 83.067 95.918 C 83.367 96.123 83.712 96.271 84.102 96.361 C 84.492 96.451 84.902 96.496 85.332 96.496 C 85.722 96.496 86.115 96.458 86.51 96.383 C 86.905 96.308 87.26 96.176 87.575 95.986 C 87.89 95.796 88.145 95.546 88.34 95.236 C 88.535 94.926 88.632 94.536 88.632 94.066 C 88.632 93.696 88.56 93.386 88.415 93.136 C 88.27 92.886 88.08 92.678 87.845 92.513 C 87.61 92.348 87.34 92.216 87.035 92.116 C 86.73 92.016 86.417 91.931 86.097 91.861 C 85.797 91.791 85.497 91.723 85.197 91.658 C 84.897 91.593 84.627 91.513 84.387 91.418 C 84.147 91.323 83.95 91.203 83.795 91.058 C 83.64 90.913 83.562 90.731 83.562 90.511 C 83.562 90.311 83.612 90.148 83.712 90.023 C 83.812 89.898 83.942 89.798 84.102 89.723 C 84.262 89.648 84.44 89.596 84.635 89.566 C 84.83 89.536 85.022 89.521 85.212 89.521 C 85.422 89.521 85.63 89.543 85.835 89.588 C 86.04 89.633 86.227 89.706 86.397 89.806 C 86.567 89.906 86.707 90.038 86.817 90.203 C 86.927 90.368 86.992 90.576 87.012 90.826 L 88.287 90.826 C 88.257 90.356 88.157 89.963 87.987 89.648 C 87.817 89.333 87.59 89.083 87.305 88.898 C 87.02 88.713 86.692 88.583 86.322 88.508 C 85.952 88.433 85.547 88.396 85.107 88.396 C 84.767 88.396 84.425 88.438 84.08 88.523 C 83.735 88.608 83.425 88.738 83.15 88.913 C 82.875 89.088 82.65 89.316 82.475 89.596 C 82.3 89.876 82.212 90.211 82.212 90.601 C 82.212 91.101 82.337 91.491 82.587 91.771 C 82.837 92.051 83.15 92.268 83.525 92.423 C 83.9 92.578 84.307 92.698 84.747 92.783 C 85.187 92.868 85.595 92.963 85.97 93.068 C 86.345 93.173 86.657 93.311 86.907 93.481 C 87.157 93.651 87.282 93.901 87.282 94.231 C 87.282 94.471 87.222 94.668 87.102 94.823 C 86.982 94.978 86.83 95.096 86.645 95.176 C 86.46 95.256 86.257 95.311 86.037 95.341 C 85.817 95.371 85.607 95.386 85.407 95.386 C 85.147 95.386 84.895 95.361 84.65 95.311 C 84.405 95.261 84.185 95.178 83.99 95.063 C 83.795 94.948 83.637 94.793 83.517 94.598 C 83.397 94.403 83.332 94.166 83.322 93.886 Z " stroke-width="1"/>
      <path id="ID0.7921887580305338" fill="rgb(128,128,128)" d="M 95.562 87.181 L 95.562 85.621 L 94.287 85.621 L 94.287 87.181 L 95.562 87.181 Z M 94.287 88.576 L 94.287 96.331 L 95.562 96.331 L 95.562 88.576 L 94.287 88.576 Z " stroke-width="1"/>
      <path id="ID0.8186269020661712" fill="rgb(128,128,128)" d="M 98.322 93.886 L 97.047 93.886 C 97.067 94.366 97.167 94.773 97.347 95.108 C 97.527 95.443 97.767 95.713 98.067 95.918 C 98.367 96.123 98.712 96.271 99.102 96.361 C 99.492 96.451 99.902 96.496 100.332 96.496 C 100.722 96.496 101.115 96.458 101.51 96.383 C 101.905 96.308 102.26 96.176 102.575 95.986 C 102.89 95.796 103.145 95.546 103.34 95.236 C 103.535 94.926 103.632 94.536 103.632 94.066 C 103.632 93.696 103.56 93.386 103.415 93.136 C 103.27 92.886 103.08 92.678 102.845 92.513 C 102.61 92.348 102.34 92.216 102.035 92.116 C 101.73 92.016 101.417 91.931 101.097 91.861 C 100.797 91.791 100.497 91.723 100.197 91.658 C 99.897 91.593 99.627 91.513 99.387 91.418 C 99.147 91.323 98.95 91.203 98.795 91.058 C 98.64 90.913 98.562 90.731 98.562 90.511 C 98.562 90.311 98.612 90.148 98.712 90.023 C 98.812 89.898 98.942 89.798 99.102 89.723 C 99.262 89.648 99.44 89.596 99.635 89.566 C 99.83 89.536 100.022 89.521 100.212 89.521 C 100.422 89.521 100.63 89.543 100.835 89.588 C 101.04 89.633 101.227 89.706 101.397 89.806 C 101.567 89.906 101.707 90.038 101.817 90.203 C 101.927 90.368 101.992 90.576 102.012 90.826 L 103.287 90.826 C 103.257 90.356 103.157 89.963 102.987 89.648 C 102.817 89.333 102.59 89.083 102.305 88.898 C 102.02 88.713 101.692 88.583 101.322 88.508 C 100.952 88.433 100.547 88.396 100.107 88.396 C 99.767 88.396 99.425 88.438 99.08 88.523 C 98.735 88.608 98.425 88.738 98.15 88.913 C 97.875 89.088 97.65 89.316 97.475 89.596 C 97.3 89.876 97.212 90.211 97.212 90.601 C 97.212 91.101 97.337 91.491 97.587 91.771 C 97.837 92.051 98.15 92.268 98.525 92.423 C 98.9 92.578 99.307 92.698 99.747 92.783 C 100.187 92.868 100.595 92.963 100.97 93.068 C 101.345 93.173 101.657 93.311 101.907 93.481 C 102.157 93.651 102.282 93.901 102.282 94.231 C 102.282 94.471 102.222 94.668 102.102 94.823 C 101.982 94.978 101.83 95.096 101.645 95.176 C 101.46 95.256 101.257 95.311 101.037 95.341 C 100.817 95.371 100.607 95.386 100.407 95.386 C 100.147 95.386 99.895 95.361 99.65 95.311 C 99.405 95.261 99.185 95.178 98.99 95.063 C 98.795 94.948 98.637 94.793 98.517 94.598 C 98.397 94.403 98.332 94.166 98.322 93.886 Z " stroke-width="1"/>
      <path id="ID0.7511643250472844" fill="rgb(128,128,128)" d="M 110.982 88.576 L 110.982 86.251 L 109.707 86.251 L 109.707 88.576 L 108.387 88.576 L 108.387 89.701 L 109.707 89.701 L 109.707 94.636 C 109.707 94.996 109.742 95.286 109.812 95.506 C 109.882 95.726 109.99 95.896 110.135 96.016 C 110.28 96.136 110.47 96.218 110.705 96.263 C 110.94 96.308 111.222 96.331 111.552 96.331 L 112.527 96.331 L 112.527 95.206 L 111.942 95.206 C 111.742 95.206 111.58 95.198 111.455 95.183 C 111.33 95.168 111.232 95.136 111.162 95.086 C 111.092 95.036 111.045 94.966 111.02 94.876 C 110.995 94.786 110.982 94.666 110.982 94.516 L 110.982 89.701 L 112.527 89.701 L 112.527 88.576 L 110.982 88.576 Z " stroke-width="1"/>
      <path id="ID0.8919396502897143" fill="rgb(128,128,128)" d="M 113.937 85.621 L 113.937 96.331 L 115.212 96.331 L 115.212 91.951 C 115.212 91.601 115.26 91.278 115.355 90.983 C 115.45 90.688 115.592 90.431 115.782 90.211 C 115.972 89.991 116.21 89.821 116.495 89.701 C 116.78 89.581 117.117 89.521 117.507 89.521 C 117.997 89.521 118.382 89.661 118.662 89.941 C 118.942 90.221 119.082 90.601 119.082 91.081 L 119.082 96.331 L 120.357 96.331 L 120.357 91.231 C 120.357 90.811 120.315 90.428 120.23 90.083 C 120.145 89.738 119.997 89.441 119.787 89.191 C 119.577 88.941 119.302 88.746 118.962 88.606 C 118.622 88.466 118.197 88.396 117.687 88.396 C 117.457 88.396 117.22 88.421 116.975 88.471 C 116.73 88.521 116.495 88.598 116.27 88.703 C 116.045 88.808 115.842 88.943 115.662 89.108 C 115.482 89.273 115.342 89.476 115.242 89.716 L 115.212 89.716 L 115.212 85.621 L 113.937 85.621 Z " stroke-width="1"/>
      <path id="ID0.4690396157093346" fill="rgb(128,128,128)" d="M 127.662 91.711 L 123.207 91.711 C 123.227 91.411 123.292 91.128 123.402 90.863 C 123.512 90.598 123.662 90.366 123.852 90.166 C 124.042 89.966 124.27 89.808 124.535 89.693 C 124.8 89.578 125.097 89.521 125.427 89.521 C 125.747 89.521 126.04 89.578 126.305 89.693 C 126.57 89.808 126.8 89.963 126.995 90.158 C 127.19 90.353 127.345 90.586 127.46 90.856 C 127.575 91.126 127.642 91.411 127.662 91.711 Z M 128.892 93.871 L 127.632 93.871 C 127.522 94.381 127.295 94.761 126.95 95.011 C 126.605 95.261 126.162 95.386 125.622 95.386 C 125.202 95.386 124.837 95.316 124.527 95.176 C 124.217 95.036 123.962 94.848 123.762 94.613 C 123.562 94.378 123.417 94.108 123.327 93.803 C 123.237 93.498 123.197 93.176 123.207 92.836 L 129.012 92.836 C 129.032 92.366 128.99 91.871 128.885 91.351 C 128.78 90.831 128.59 90.351 128.315 89.911 C 128.04 89.471 127.675 89.108 127.22 88.823 C 126.765 88.538 126.192 88.396 125.502 88.396 C 124.972 88.396 124.485 88.496 124.04 88.696 C 123.595 88.896 123.21 89.176 122.885 89.536 C 122.56 89.896 122.307 90.321 122.127 90.811 C 121.947 91.301 121.857 91.841 121.857 92.431 C 121.877 93.021 121.965 93.566 122.12 94.066 C 122.275 94.566 122.507 94.996 122.817 95.356 C 123.127 95.716 123.51 95.996 123.965 96.196 C 124.42 96.396 124.957 96.496 125.577 96.496 C 126.457 96.496 127.187 96.276 127.767 95.836 C 128.347 95.396 128.722 94.741 128.892 93.871 Z " stroke-width="1"/>
      <path id="ID0.947533882688731" fill="rgb(128,128,128)" d="M 134.547 88.576 L 134.547 99.286 L 135.822 99.286 L 135.822 95.296 L 135.852 95.296 C 135.992 95.526 136.165 95.718 136.37 95.873 C 136.575 96.028 136.792 96.151 137.022 96.241 C 137.252 96.331 137.485 96.396 137.72 96.436 C 137.955 96.476 138.167 96.496 138.357 96.496 C 138.947 96.496 139.465 96.391 139.91 96.181 C 140.355 95.971 140.725 95.683 141.02 95.318 C 141.315 94.953 141.535 94.526 141.68 94.036 C 141.825 93.546 141.897 93.026 141.897 92.476 C 141.897 91.926 141.822 91.406 141.672 90.916 C 141.522 90.426 141.3 89.993 141.005 89.618 C 140.71 89.243 140.34 88.946 139.895 88.726 C 139.45 88.506 138.927 88.396 138.327 88.396 C 137.787 88.396 137.292 88.493 136.842 88.688 C 136.392 88.883 136.062 89.196 135.852 89.626 L 135.822 89.626 L 135.822 88.576 L 134.547 88.576 Z M 140.547 92.386 C 140.547 92.766 140.507 93.136 140.427 93.496 C 140.347 93.856 140.217 94.176 140.037 94.456 C 139.857 94.736 139.62 94.961 139.325 95.131 C 139.03 95.301 138.662 95.386 138.222 95.386 C 137.782 95.386 137.407 95.303 137.097 95.138 C 136.787 94.973 136.535 94.756 136.34 94.486 C 136.145 94.216 136.002 93.903 135.912 93.548 C 135.822 93.193 135.777 92.826 135.777 92.446 C 135.777 92.086 135.82 91.731 135.905 91.381 C 135.99 91.031 136.127 90.718 136.317 90.443 C 136.507 90.168 136.752 89.946 137.052 89.776 C 137.352 89.606 137.717 89.521 138.147 89.521 C 138.557 89.521 138.915 89.601 139.22 89.761 C 139.525 89.921 139.775 90.136 139.97 90.406 C 140.165 90.676 140.31 90.983 140.405 91.328 C 140.5 91.673 140.547 92.026 140.547 92.386 Z " stroke-width="1"/>
      <path id="ID0.4838985255919397" fill="rgb(128,128,128)" d="M 143.472 85.621 L 144.747 85.621 L 144.747 96.331 L 143.472 96.331 L 143.472 85.621 Z " stroke-width="1"/>
      <path id="ID0.6539131817407906" fill="rgb(128,128,128)" d="M 153.597 96.301 C 153.377 96.431 153.072 96.496 152.682 96.496 C 152.352 96.496 152.09 96.403 151.895 96.218 C 151.7 96.033 151.602 95.731 151.602 95.311 C 151.252 95.731 150.845 96.033 150.38 96.218 C 149.915 96.403 149.412 96.496 148.872 96.496 C 148.522 96.496 148.19 96.456 147.875 96.376 C 147.56 96.296 147.287 96.171 147.057 96.001 C 146.827 95.831 146.645 95.608 146.51 95.333 C 146.375 95.058 146.307 94.726 146.307 94.336 C 146.307 93.896 146.382 93.536 146.532 93.256 C 146.682 92.976 146.88 92.748 147.125 92.573 C 147.37 92.398 147.65 92.266 147.965 92.176 C 148.28 92.086 148.602 92.011 148.932 91.951 C 149.282 91.881 149.615 91.828 149.93 91.793 C 150.245 91.758 150.522 91.708 150.762 91.643 C 151.002 91.578 151.192 91.483 151.332 91.358 C 151.472 91.233 151.542 91.051 151.542 90.811 C 151.542 90.531 151.49 90.306 151.385 90.136 C 151.28 89.966 151.145 89.836 150.98 89.746 C 150.815 89.656 150.63 89.596 150.425 89.566 C 150.22 89.536 150.017 89.521 149.817 89.521 C 149.277 89.521 148.827 89.623 148.467 89.828 C 148.107 90.033 147.912 90.421 147.882 90.991 L 146.607 90.991 C 146.627 90.511 146.727 90.106 146.907 89.776 C 147.087 89.446 147.327 89.178 147.627 88.973 C 147.927 88.768 148.27 88.621 148.655 88.531 C 149.04 88.441 149.452 88.396 149.892 88.396 C 150.242 88.396 150.59 88.421 150.935 88.471 C 151.28 88.521 151.592 88.623 151.872 88.778 C 152.152 88.933 152.377 89.151 152.547 89.431 C 152.717 89.711 152.802 90.076 152.802 90.526 L 152.802 94.516 C 152.802 94.816 152.82 95.036 152.855 95.176 C 152.89 95.316 153.007 95.386 153.207 95.386 C 153.317 95.386 153.447 95.361 153.597 95.311 L 153.597 96.301 Z M 151.527 92.326 C 151.367 92.446 151.157 92.533 150.897 92.588 C 150.637 92.643 150.365 92.688 150.08 92.723 C 149.795 92.758 149.507 92.798 149.217 92.843 C 148.927 92.888 148.667 92.961 148.437 93.061 C 148.207 93.161 148.02 93.303 147.875 93.488 C 147.73 93.673 147.657 93.926 147.657 94.246 C 147.657 94.456 147.7 94.633 147.785 94.778 C 147.87 94.923 147.98 95.041 148.115 95.131 C 148.25 95.221 148.407 95.286 148.587 95.326 C 148.767 95.366 148.957 95.386 149.157 95.386 C 149.577 95.386 149.937 95.328 150.237 95.213 C 150.537 95.098 150.782 94.953 150.972 94.778 C 151.162 94.603 151.302 94.413 151.392 94.208 C 151.482 94.003 151.527 93.811 151.527 93.631 L 151.527 92.326 Z " stroke-width="1"/>
      <path id="ID0.3879137015901506" fill="rgb(128,128,128)" d="M 157.827 97.366 C 157.677 97.746 157.53 98.066 157.385 98.326 C 157.24 98.586 157.08 98.798 156.905 98.963 C 156.73 99.128 156.535 99.248 156.32 99.323 C 156.105 99.398 155.857 99.436 155.577 99.436 C 155.427 99.436 155.277 99.426 155.127 99.406 C 154.977 99.386 154.832 99.351 154.692 99.301 L 154.692 98.131 C 154.802 98.181 154.93 98.223 155.075 98.258 C 155.22 98.293 155.342 98.311 155.442 98.311 C 155.702 98.311 155.92 98.248 156.095 98.123 C 156.27 97.998 156.402 97.821 156.492 97.591 L 157.017 96.286 L 153.942 88.576 L 155.382 88.576 L 157.647 94.921 L 157.677 94.921 L 159.852 88.576 L 161.202 88.576 L 157.827 97.366 Z " stroke-width="1"/>
      <path id="ID0.5149078564718366" fill="rgb(128,128,128)" d="M 167.667 91.711 L 163.212 91.711 C 163.232 91.411 163.297 91.128 163.407 90.863 C 163.517 90.598 163.667 90.366 163.857 90.166 C 164.047 89.966 164.275 89.808 164.54 89.693 C 164.805 89.578 165.102 89.521 165.432 89.521 C 165.752 89.521 166.045 89.578 166.31 89.693 C 166.575 89.808 166.805 89.963 167 90.158 C 167.195 90.353 167.35 90.586 167.465 90.856 C 167.58 91.126 167.647 91.411 167.667 91.711 Z M 168.897 93.871 L 167.637 93.871 C 167.527 94.381 167.3 94.761 166.955 95.011 C 166.61 95.261 166.167 95.386 165.627 95.386 C 165.207 95.386 164.842 95.316 164.532 95.176 C 164.222 95.036 163.967 94.848 163.767 94.613 C 163.567 94.378 163.422 94.108 163.332 93.803 C 163.242 93.498 163.202 93.176 163.212 92.836 L 169.017 92.836 C 169.037 92.366 168.995 91.871 168.89 91.351 C 168.785 90.831 168.595 90.351 168.32 89.911 C 168.045 89.471 167.68 89.108 167.225 88.823 C 166.77 88.538 166.197 88.396 165.507 88.396 C 164.977 88.396 164.49 88.496 164.045 88.696 C 163.6 88.896 163.215 89.176 162.89 89.536 C 162.565 89.896 162.312 90.321 162.132 90.811 C 161.952 91.301 161.862 91.841 161.862 92.431 C 161.882 93.021 161.97 93.566 162.125 94.066 C 162.28 94.566 162.512 94.996 162.822 95.356 C 163.132 95.716 163.515 95.996 163.97 96.196 C 164.425 96.396 164.962 96.496 165.582 96.496 C 166.462 96.496 167.192 96.276 167.772 95.836 C 168.352 95.396 168.727 94.741 168.897 93.871 Z " stroke-width="1"/>
      <path id="ID0.04179199039936066" fill="rgb(128,128,128)" d="M 170.292 88.576 L 170.292 96.331 L 171.567 96.331 L 171.567 92.881 C 171.567 92.381 171.617 91.938 171.717 91.553 C 171.817 91.168 171.977 90.841 172.197 90.571 C 172.417 90.301 172.707 90.096 173.067 89.956 C 173.427 89.816 173.862 89.746 174.372 89.746 L 174.372 88.396 C 173.682 88.376 173.112 88.516 172.662 88.816 C 172.212 89.116 171.832 89.581 171.522 90.211 L 171.492 90.211 L 171.492 88.576 L 170.292 88.576 Z " stroke-width="1"/>
      <path id="ID0.3192432369105518" fill="rgb(128,128,128)" d="M 174.237 94.666 L 174.237 96.331 L 175.122 96.331 C 175.132 96.451 175.125 96.581 175.1 96.721 C 175.075 96.861 175.027 96.998 174.957 97.133 C 174.887 97.268 174.795 97.393 174.68 97.508 C 174.565 97.623 174.422 97.711 174.252 97.771 L 174.252 98.521 C 174.832 98.351 175.252 98.061 175.512 97.651 C 175.772 97.241 175.902 96.751 175.902 96.181 L 175.902 94.666 L 174.237 94.666 Z " stroke-width="1"/>
      <path id="ID0.9528372869826853" fill="rgb(128,128,128)" d="M 182.532 85.621 L 182.532 96.331 L 183.882 96.331 L 183.882 87.421 L 183.912 87.421 L 187.257 96.331 L 188.472 96.331 L 191.817 87.421 L 191.847 87.421 L 191.847 96.331 L 193.197 96.331 L 193.197 85.621 L 191.247 85.621 L 187.857 94.621 L 184.482 85.621 L 182.532 85.621 Z " stroke-width="1"/>
      <path id="ID0.589879903011024" fill="rgb(128,128,128)" d="M 202.227 96.301 C 202.007 96.431 201.702 96.496 201.312 96.496 C 200.982 96.496 200.72 96.403 200.525 96.218 C 200.33 96.033 200.232 95.731 200.232 95.311 C 199.882 95.731 199.475 96.033 199.01 96.218 C 198.545 96.403 198.042 96.496 197.502 96.496 C 197.152 96.496 196.82 96.456 196.505 96.376 C 196.19 96.296 195.917 96.171 195.687 96.001 C 195.457 95.831 195.275 95.608 195.14 95.333 C 195.005 95.058 194.937 94.726 194.937 94.336 C 194.937 93.896 195.012 93.536 195.162 93.256 C 195.312 92.976 195.51 92.748 195.755 92.573 C 196 92.398 196.28 92.266 196.595 92.176 C 196.91 92.086 197.232 92.011 197.562 91.951 C 197.912 91.881 198.245 91.828 198.56 91.793 C 198.875 91.758 199.152 91.708 199.392 91.643 C 199.632 91.578 199.822 91.483 199.962 91.358 C 200.102 91.233 200.172 91.051 200.172 90.811 C 200.172 90.531 200.12 90.306 200.015 90.136 C 199.91 89.966 199.775 89.836 199.61 89.746 C 199.445 89.656 199.26 89.596 199.055 89.566 C 198.85 89.536 198.647 89.521 198.447 89.521 C 197.907 89.521 197.457 89.623 197.097 89.828 C 196.737 90.033 196.542 90.421 196.512 90.991 L 195.237 90.991 C 195.257 90.511 195.357 90.106 195.537 89.776 C 195.717 89.446 195.957 89.178 196.257 88.973 C 196.557 88.768 196.9 88.621 197.285 88.531 C 197.67 88.441 198.082 88.396 198.522 88.396 C 198.872 88.396 199.22 88.421 199.565 88.471 C 199.91 88.521 200.222 88.623 200.502 88.778 C 200.782 88.933 201.007 89.151 201.177 89.431 C 201.347 89.711 201.432 90.076 201.432 90.526 L 201.432 94.516 C 201.432 94.816 201.45 95.036 201.485 95.176 C 201.52 95.316 201.637 95.386 201.837 95.386 C 201.947 95.386 202.077 95.361 202.227 95.311 L 202.227 96.301 Z M 200.157 92.326 C 199.997 92.446 199.787 92.533 199.527 92.588 C 199.267 92.643 198.995 92.688 198.71 92.723 C 198.425 92.758 198.137 92.798 197.847 92.843 C 197.557 92.888 197.297 92.961 197.067 93.061 C 196.837 93.161 196.65 93.303 196.505 93.488 C 196.36 93.673 196.287 93.926 196.287 94.246 C 196.287 94.456 196.33 94.633 196.415 94.778 C 196.5 94.923 196.61 95.041 196.745 95.131 C 196.88 95.221 197.037 95.286 197.217 95.326 C 197.397 95.366 197.587 95.386 197.787 95.386 C 198.207 95.386 198.567 95.328 198.867 95.213 C 199.167 95.098 199.412 94.953 199.602 94.778 C 199.792 94.603 199.932 94.413 200.022 94.208 C 200.112 94.003 200.157 93.811 200.157 93.631 L 200.157 92.326 Z " stroke-width="1"/>
      <path id="ID0.7559830797836185" fill="rgb(128,128,128)" d="M 203.367 88.576 L 203.367 96.331 L 204.642 96.331 L 204.642 92.881 C 204.642 92.381 204.692 91.938 204.792 91.553 C 204.892 91.168 205.052 90.841 205.272 90.571 C 205.492 90.301 205.782 90.096 206.142 89.956 C 206.502 89.816 206.937 89.746 207.447 89.746 L 207.447 88.396 C 206.757 88.376 206.187 88.516 205.737 88.816 C 205.287 89.116 204.907 89.581 204.597 90.211 L 204.567 90.211 L 204.567 88.576 L 203.367 88.576 Z " stroke-width="1"/>
      <path id="ID0.5163937876932323" fill="rgb(128,128,128)" d="M 211.902 96.331 L 214.737 88.576 L 213.402 88.576 L 211.287 95.041 L 211.257 95.041 L 209.082 88.576 L 207.657 88.576 L 210.537 96.331 L 211.902 96.331 Z " stroke-width="1"/>
      <path id="ID0.1893169665709138" fill="rgb(128,128,128)" d="M 217.257 87.181 L 217.257 85.621 L 215.982 85.621 L 215.982 87.181 L 217.257 87.181 Z M 215.982 88.576 L 215.982 96.331 L 217.257 96.331 L 217.257 88.576 L 215.982 88.576 Z " stroke-width="1"/>
      <path id="ID0.39308700803667307" fill="rgb(128,128,128)" d="M 219.237 88.576 L 219.237 96.331 L 220.512 96.331 L 220.512 91.951 C 220.512 91.601 220.56 91.278 220.655 90.983 C 220.75 90.688 220.892 90.431 221.082 90.211 C 221.272 89.991 221.51 89.821 221.795 89.701 C 222.08 89.581 222.417 89.521 222.807 89.521 C 223.297 89.521 223.682 89.661 223.962 89.941 C 224.242 90.221 224.382 90.601 224.382 91.081 L 224.382 96.331 L 225.657 96.331 L 225.657 91.231 C 225.657 90.811 225.615 90.428 225.53 90.083 C 225.445 89.738 225.297 89.441 225.087 89.191 C 224.877 88.941 224.602 88.746 224.262 88.606 C 223.922 88.466 223.497 88.396 222.987 88.396 C 221.837 88.396 220.997 88.866 220.467 89.806 L 220.437 89.806 L 220.437 88.576 L 219.237 88.576 Z " stroke-width="1"/>
      <path id="ID0.023186299484223127" fill="rgb(128,128,128)" d="M 227.862 94.666 L 229.527 94.666 L 229.527 96.331 L 227.862 96.331 L 227.862 94.666 Z " stroke-width="1"/>
      <path id="ID0.3640394085086882" fill="rgb(128,128,128)" d="M 1.932 110.551 L 1.932 102.241 L 4.332 102.241 C 4.992 102.241 5.547 102.333 5.997 102.518 C 6.447 102.703 6.815 102.973 7.1 103.328 C 7.385 103.683 7.59 104.113 7.715 104.618 C 7.84 105.123 7.902 105.696 7.902 106.336 C 7.902 106.996 7.835 107.558 7.7 108.023 C 7.565 108.488 7.392 108.876 7.182 109.186 C 6.972 109.496 6.735 109.741 6.47 109.921 C 6.205 110.101 5.937 110.238 5.667 110.333 C 5.397 110.428 5.142 110.488 4.902 110.513 C 4.662 110.538 4.462 110.551 4.302 110.551 L 1.932 110.551 Z M 0.507 101.041 L 0.507 111.751 L 4.182 111.751 C 5.072 111.751 5.842 111.626 6.492 111.376 C 7.142 111.126 7.677 110.763 8.097 110.288 C 8.517 109.813 8.827 109.228 9.027 108.533 C 9.227 107.838 9.327 107.041 9.327 106.141 C 9.327 104.421 8.882 103.141 7.992 102.301 C 7.102 101.461 5.832 101.041 4.182 101.041 L 0.507 101.041 Z " stroke-width="1"/>
      <path id="ID0.19822658458724618" fill="rgb(128,128,128)" d="M 10.812 103.996 L 10.812 111.751 L 12.087 111.751 L 12.087 108.301 C 12.087 107.801 12.137 107.358 12.237 106.973 C 12.337 106.588 12.497 106.261 12.717 105.991 C 12.937 105.721 13.227 105.516 13.587 105.376 C 13.947 105.236 14.382 105.166 14.892 105.166 L 14.892 103.816 C 14.202 103.796 13.632 103.936 13.182 104.236 C 12.732 104.536 12.352 105.001 12.042 105.631 L 12.012 105.631 L 12.012 103.996 L 10.812 103.996 Z " stroke-width="1"/>
      <path id="ID0.50489755673334" fill="rgb(128,128,128)" d="M 22.722 111.721 C 22.502 111.851 22.197 111.916 21.807 111.916 C 21.477 111.916 21.215 111.823 21.02 111.638 C 20.825 111.453 20.727 111.151 20.727 110.731 C 20.377 111.151 19.97 111.453 19.505 111.638 C 19.04 111.823 18.537 111.916 17.997 111.916 C 17.647 111.916 17.315 111.876 17 111.796 C 16.685 111.716 16.412 111.591 16.182 111.421 C 15.952 111.251 15.77 111.028 15.635 110.753 C 15.5 110.478 15.432 110.146 15.432 109.756 C 15.432 109.316 15.507 108.956 15.657 108.676 C 15.807 108.396 16.005 108.168 16.25 107.993 C 16.495 107.818 16.775 107.686 17.09 107.596 C 17.405 107.506 17.727 107.431 18.057 107.371 C 18.407 107.301 18.74 107.248 19.055 107.213 C 19.37 107.178 19.647 107.128 19.887 107.063 C 20.127 106.998 20.317 106.903 20.457 106.778 C 20.597 106.653 20.667 106.471 20.667 106.231 C 20.667 105.951 20.615 105.726 20.51 105.556 C 20.405 105.386 20.27 105.256 20.105 105.166 C 19.94 105.076 19.755 105.016 19.55 104.986 C 19.345 104.956 19.142 104.941 18.942 104.941 C 18.402 104.941 17.952 105.043 17.592 105.248 C 17.232 105.453 17.037 105.841 17.007 106.411 L 15.732 106.411 C 15.752 105.931 15.852 105.526 16.032 105.196 C 16.212 104.866 16.452 104.598 16.752 104.393 C 17.052 104.188 17.395 104.041 17.78 103.951 C 18.165 103.861 18.577 103.816 19.017 103.816 C 19.367 103.816 19.715 103.841 20.06 103.891 C 20.405 103.941 20.717 104.043 20.997 104.198 C 21.277 104.353 21.502 104.571 21.672 104.851 C 21.842 105.131 21.927 105.496 21.927 105.946 L 21.927 109.936 C 21.927 110.236 21.945 110.456 21.98 110.596 C 22.015 110.736 22.132 110.806 22.332 110.806 C 22.442 110.806 22.572 110.781 22.722 110.731 L 22.722 111.721 Z M 20.652 107.746 C 20.492 107.866 20.282 107.953 20.022 108.008 C 19.762 108.063 19.49 108.108 19.205 108.143 C 18.92 108.178 18.632 108.218 18.342 108.263 C 18.052 108.308 17.792 108.381 17.562 108.481 C 17.332 108.581 17.145 108.723 17 108.908 C 16.855 109.093 16.782 109.346 16.782 109.666 C 16.782 109.876 16.825 110.053 16.91 110.198 C 16.995 110.343 17.105 110.461 17.24 110.551 C 17.375 110.641 17.532 110.706 17.712 110.746 C 17.892 110.786 18.082 110.806 18.282 110.806 C 18.702 110.806 19.062 110.748 19.362 110.633 C 19.662 110.518 19.907 110.373 20.097 110.198 C 20.287 110.023 20.427 109.833 20.517 109.628 C 20.607 109.423 20.652 109.231 20.652 109.051 L 20.652 107.746 Z " stroke-width="1"/>
      <path id="ID0.7379580200649798" fill="rgb(128,128,128)" d="M 30.597 111.091 L 30.597 103.996 L 29.397 103.996 L 29.397 105.106 L 29.382 105.106 C 29.152 104.676 28.832 104.353 28.422 104.138 C 28.012 103.923 27.562 103.816 27.072 103.816 C 26.402 103.816 25.837 103.943 25.377 104.198 C 24.917 104.453 24.547 104.778 24.267 105.173 C 23.987 105.568 23.787 106.008 23.667 106.493 C 23.547 106.978 23.487 107.451 23.487 107.911 C 23.487 108.441 23.56 108.943 23.705 109.418 C 23.85 109.893 24.067 110.308 24.357 110.663 C 24.647 111.018 25.007 111.301 25.437 111.511 C 25.867 111.721 26.372 111.826 26.952 111.826 C 27.452 111.826 27.925 111.713 28.37 111.488 C 28.815 111.263 29.147 110.911 29.367 110.431 L 29.397 110.431 L 29.397 110.941 C 29.397 111.371 29.355 111.766 29.27 112.126 C 29.185 112.486 29.047 112.793 28.857 113.048 C 28.667 113.303 28.427 113.503 28.137 113.648 C 27.847 113.793 27.492 113.866 27.072 113.866 C 26.862 113.866 26.642 113.843 26.412 113.798 C 26.182 113.753 25.97 113.681 25.775 113.581 C 25.58 113.481 25.415 113.351 25.28 113.191 C 25.145 113.031 25.072 112.836 25.062 112.606 L 23.787 112.606 C 23.807 113.026 23.917 113.381 24.117 113.671 C 24.317 113.961 24.57 114.196 24.875 114.376 C 25.18 114.556 25.52 114.686 25.895 114.766 C 26.27 114.846 26.637 114.886 26.997 114.886 C 28.237 114.886 29.147 114.571 29.727 113.941 C 30.307 113.311 30.597 112.361 30.597 111.091 Z M 27.027 110.716 C 26.607 110.716 26.257 110.628 25.977 110.453 C 25.697 110.278 25.472 110.048 25.302 109.763 C 25.132 109.478 25.012 109.161 24.942 108.811 C 24.872 108.461 24.837 108.111 24.837 107.761 C 24.837 107.391 24.88 107.036 24.965 106.696 C 25.05 106.356 25.185 106.056 25.37 105.796 C 25.555 105.536 25.792 105.328 26.082 105.173 C 26.372 105.018 26.722 104.941 27.132 104.941 C 27.532 104.941 27.872 105.021 28.152 105.181 C 28.432 105.341 28.66 105.553 28.835 105.818 C 29.01 106.083 29.137 106.381 29.217 106.711 C 29.297 107.041 29.337 107.376 29.337 107.716 C 29.337 108.076 29.295 108.436 29.21 108.796 C 29.125 109.156 28.992 109.478 28.812 109.763 C 28.632 110.048 28.395 110.278 28.1 110.453 C 27.805 110.628 27.447 110.716 27.027 110.716 Z " stroke-width="1"/>
      <path id="ID0.9868596801534295" fill="rgb(128,128,128)" d="M 36.687 101.041 L 36.687 111.751 L 37.962 111.751 L 37.962 107.371 C 37.962 107.021 38.01 106.698 38.105 106.403 C 38.2 106.108 38.342 105.851 38.532 105.631 C 38.722 105.411 38.96 105.241 39.245 105.121 C 39.53 105.001 39.867 104.941 40.257 104.941 C 40.747 104.941 41.132 105.081 41.412 105.361 C 41.692 105.641 41.832 106.021 41.832 106.501 L 41.832 111.751 L 43.107 111.751 L 43.107 106.651 C 43.107 106.231 43.065 105.848 42.98 105.503 C 42.895 105.158 42.747 104.861 42.537 104.611 C 42.327 104.361 42.052 104.166 41.712 104.026 C 41.372 103.886 40.947 103.816 40.437 103.816 C 40.207 103.816 39.97 103.841 39.725 103.891 C 39.48 103.941 39.245 104.018 39.02 104.123 C 38.795 104.228 38.592 104.363 38.412 104.528 C 38.232 104.693 38.092 104.896 37.992 105.136 L 37.962 105.136 L 37.962 101.041 L 36.687 101.041 Z " stroke-width="1"/>
      <path id="ID0.5496949553489685" fill="rgb(128,128,128)" d="M 46.377 102.601 L 46.377 101.041 L 45.102 101.041 L 45.102 102.601 L 46.377 102.601 Z M 45.102 103.996 L 45.102 111.751 L 46.377 111.751 L 46.377 103.996 L 45.102 103.996 Z " stroke-width="1"/>
      <path id="ID0.2647170526906848" fill="rgb(128,128,128)" d="M 48.357 103.996 L 48.357 111.751 L 49.632 111.751 L 49.632 106.921 C 49.632 106.771 49.67 106.583 49.745 106.358 C 49.82 106.133 49.94 105.916 50.105 105.706 C 50.27 105.496 50.485 105.316 50.75 105.166 C 51.015 105.016 51.332 104.941 51.702 104.941 C 51.992 104.941 52.23 104.983 52.415 105.068 C 52.6 105.153 52.747 105.273 52.857 105.428 C 52.967 105.583 53.045 105.766 53.09 105.976 C 53.135 106.186 53.157 106.416 53.157 106.666 L 53.157 111.751 L 54.432 111.751 L 54.432 106.921 C 54.432 106.321 54.612 105.841 54.972 105.481 C 55.332 105.121 55.827 104.941 56.457 104.941 C 56.767 104.941 57.02 104.986 57.215 105.076 C 57.41 105.166 57.562 105.288 57.672 105.443 C 57.782 105.598 57.857 105.781 57.897 105.991 C 57.937 106.201 57.957 106.426 57.957 106.666 L 57.957 111.751 L 59.232 111.751 L 59.232 106.066 C 59.232 105.666 59.17 105.323 59.045 105.038 C 58.92 104.753 58.745 104.521 58.52 104.341 C 58.295 104.161 58.025 104.028 57.71 103.943 C 57.395 103.858 57.042 103.816 56.652 103.816 C 56.142 103.816 55.675 103.931 55.25 104.161 C 54.825 104.391 54.482 104.716 54.222 105.136 C 54.062 104.656 53.787 104.316 53.397 104.116 C 53.007 103.916 52.572 103.816 52.092 103.816 C 51.002 103.816 50.167 104.256 49.587 105.136 L 49.557 105.136 L 49.557 103.996 L 48.357 103.996 Z " stroke-width="1"/>
      <path id="ID0.11903898697346449" fill="rgb(128,128,128)" d="M 72.192 111.721 C 71.972 111.851 71.667 111.916 71.277 111.916 C 70.947 111.916 70.685 111.823 70.49 111.638 C 70.295 111.453 70.197 111.151 70.197 110.731 C 69.847 111.151 69.44 111.453 68.975 111.638 C 68.51 111.823 68.007 111.916 67.467 111.916 C 67.117 111.916 66.785 111.876 66.47 111.796 C 66.155 111.716 65.882 111.591 65.652 111.421 C 65.422 111.251 65.24 111.028 65.105 110.753 C 64.97 110.478 64.902 110.146 64.902 109.756 C 64.902 109.316 64.977 108.956 65.127 108.676 C 65.277 108.396 65.475 108.168 65.72 107.993 C 65.965 107.818 66.245 107.686 66.56 107.596 C 66.875 107.506 67.197 107.431 67.527 107.371 C 67.877 107.301 68.21 107.248 68.525 107.213 C 68.84 107.178 69.117 107.128 69.357 107.063 C 69.597 106.998 69.787 106.903 69.927 106.778 C 70.067 106.653 70.137 106.471 70.137 106.231 C 70.137 105.951 70.085 105.726 69.98 105.556 C 69.875 105.386 69.74 105.256 69.575 105.166 C 69.41 105.076 69.225 105.016 69.02 104.986 C 68.815 104.956 68.612 104.941 68.412 104.941 C 67.872 104.941 67.422 105.043 67.062 105.248 C 66.702 105.453 66.507 105.841 66.477 106.411 L 65.202 106.411 C 65.222 105.931 65.322 105.526 65.502 105.196 C 65.682 104.866 65.922 104.598 66.222 104.393 C 66.522 104.188 66.865 104.041 67.25 103.951 C 67.635 103.861 68.047 103.816 68.487 103.816 C 68.837 103.816 69.185 103.841 69.53 103.891 C 69.875 103.941 70.187 104.043 70.467 104.198 C 70.747 104.353 70.972 104.571 71.142 104.851 C 71.312 105.131 71.397 105.496 71.397 105.946 L 71.397 109.936 C 71.397 110.236 71.415 110.456 71.45 110.596 C 71.485 110.736 71.602 110.806 71.802 110.806 C 71.912 110.806 72.042 110.781 72.192 110.731 L 72.192 111.721 Z M 70.122 107.746 C 69.962 107.866 69.752 107.953 69.492 108.008 C 69.232 108.063 68.96 108.108 68.675 108.143 C 68.39 108.178 68.102 108.218 67.812 108.263 C 67.522 108.308 67.262 108.381 67.032 108.481 C 66.802 108.581 66.615 108.723 66.47 108.908 C 66.325 109.093 66.252 109.346 66.252 109.666 C 66.252 109.876 66.295 110.053 66.38 110.198 C 66.465 110.343 66.575 110.461 66.71 110.551 C 66.845 110.641 67.002 110.706 67.182 110.746 C 67.362 110.786 67.552 110.806 67.752 110.806 C 68.172 110.806 68.532 110.748 68.832 110.633 C 69.132 110.518 69.377 110.373 69.567 110.198 C 69.757 110.023 69.897 109.833 69.987 109.628 C 70.077 109.423 70.122 109.231 70.122 109.051 L 70.122 107.746 Z " stroke-width="1"/>
      <path id="ID0.9114317297935486" fill="rgb(128,128,128)" d="M 73.332 103.996 L 73.332 111.751 L 74.607 111.751 L 74.607 108.301 C 74.607 107.801 74.657 107.358 74.757 106.973 C 74.857 106.588 75.017 106.261 75.237 105.991 C 75.457 105.721 75.747 105.516 76.107 105.376 C 76.467 105.236 76.902 105.166 77.412 105.166 L 77.412 103.816 C 76.722 103.796 76.152 103.936 75.702 104.236 C 75.252 104.536 74.872 105.001 74.562 105.631 L 74.532 105.631 L 74.532 103.996 L 73.332 103.996 Z " stroke-width="1"/>
      <path id="ID0.9757568314671516" fill="rgb(128,128,128)" d="M 79.032 107.881 C 79.032 107.411 79.095 106.993 79.22 106.628 C 79.345 106.263 79.517 105.956 79.737 105.706 C 79.957 105.456 80.215 105.266 80.51 105.136 C 80.805 105.006 81.117 104.941 81.447 104.941 C 81.777 104.941 82.09 105.006 82.385 105.136 C 82.68 105.266 82.937 105.456 83.157 105.706 C 83.377 105.956 83.55 106.263 83.675 106.628 C 83.8 106.993 83.862 107.411 83.862 107.881 C 83.862 108.351 83.8 108.768 83.675 109.133 C 83.55 109.498 83.377 109.803 83.157 110.048 C 82.937 110.293 82.68 110.481 82.385 110.611 C 82.09 110.741 81.777 110.806 81.447 110.806 C 81.117 110.806 80.805 110.741 80.51 110.611 C 80.215 110.481 79.957 110.293 79.737 110.048 C 79.517 109.803 79.345 109.498 79.22 109.133 C 79.095 108.768 79.032 108.351 79.032 107.881 Z M 77.682 107.881 C 77.682 108.451 77.762 108.981 77.922 109.471 C 78.082 109.961 78.322 110.388 78.642 110.753 C 78.962 111.118 79.357 111.403 79.827 111.608 C 80.297 111.813 80.837 111.916 81.447 111.916 C 82.067 111.916 82.61 111.813 83.075 111.608 C 83.54 111.403 83.932 111.118 84.252 110.753 C 84.572 110.388 84.812 109.961 84.972 109.471 C 85.132 108.981 85.212 108.451 85.212 107.881 C 85.212 107.311 85.132 106.778 84.972 106.283 C 84.812 105.788 84.572 105.358 84.252 104.993 C 83.932 104.628 83.54 104.341 83.075 104.131 C 82.61 103.921 82.067 103.816 81.447 103.816 C 80.837 103.816 80.297 103.921 79.827 104.131 C 79.357 104.341 78.962 104.628 78.642 104.993 C 78.322 105.358 78.082 105.788 77.922 106.283 C 77.762 106.778 77.682 107.311 77.682 107.881 Z " stroke-width="1"/>
      <path id="ID0.7699125627987087" fill="rgb(128,128,128)" d="M 93.132 111.751 L 93.132 103.996 L 91.857 103.996 L 91.857 108.376 C 91.857 108.726 91.81 109.048 91.715 109.343 C 91.62 109.638 91.477 109.896 91.287 110.116 C 91.097 110.336 90.86 110.506 90.575 110.626 C 90.29 110.746 89.952 110.806 89.562 110.806 C 89.072 110.806 88.687 110.666 88.407 110.386 C 88.127 110.106 87.987 109.726 87.987 109.246 L 87.987 103.996 L 86.712 103.996 L 86.712 109.096 C 86.712 109.516 86.755 109.898 86.84 110.243 C 86.925 110.588 87.072 110.886 87.282 111.136 C 87.492 111.386 87.767 111.578 88.107 111.713 C 88.447 111.848 88.872 111.916 89.382 111.916 C 89.952 111.916 90.447 111.803 90.867 111.578 C 91.287 111.353 91.632 111.001 91.902 110.521 L 91.932 110.521 L 91.932 111.751 L 93.132 111.751 Z " stroke-width="1"/>
      <path id="ID0.9984527477063239" fill="rgb(128,128,128)" d="M 95.052 103.996 L 95.052 111.751 L 96.327 111.751 L 96.327 107.371 C 96.327 107.021 96.375 106.698 96.47 106.403 C 96.565 106.108 96.707 105.851 96.897 105.631 C 97.087 105.411 97.325 105.241 97.61 105.121 C 97.895 105.001 98.232 104.941 98.622 104.941 C 99.112 104.941 99.497 105.081 99.777 105.361 C 100.057 105.641 100.197 106.021 100.197 106.501 L 100.197 111.751 L 101.472 111.751 L 101.472 106.651 C 101.472 106.231 101.43 105.848 101.345 105.503 C 101.26 105.158 101.112 104.861 100.902 104.611 C 100.692 104.361 100.417 104.166 100.077 104.026 C 99.737 103.886 99.312 103.816 98.802 103.816 C 97.652 103.816 96.812 104.286 96.282 105.226 L 96.252 105.226 L 96.252 103.996 L 95.052 103.996 Z " stroke-width="1"/>
      <path id="ID0.07440512347966433" fill="rgb(128,128,128)" d="M 104.322 107.941 C 104.322 107.561 104.362 107.191 104.442 106.831 C 104.522 106.471 104.652 106.151 104.832 105.871 C 105.012 105.591 105.252 105.366 105.552 105.196 C 105.852 105.026 106.217 104.941 106.647 104.941 C 107.087 104.941 107.462 105.023 107.772 105.188 C 108.082 105.353 108.335 105.571 108.53 105.841 C 108.725 106.111 108.867 106.423 108.957 106.778 C 109.047 107.133 109.092 107.501 109.092 107.881 C 109.092 108.241 109.05 108.596 108.965 108.946 C 108.88 109.296 108.742 109.608 108.552 109.883 C 108.362 110.158 108.117 110.381 107.817 110.551 C 107.517 110.721 107.152 110.806 106.722 110.806 C 106.312 110.806 105.955 110.726 105.65 110.566 C 105.345 110.406 105.095 110.191 104.9 109.921 C 104.705 109.651 104.56 109.343 104.465 108.998 C 104.37 108.653 104.322 108.301 104.322 107.941 Z M 110.322 111.751 L 110.322 101.041 L 109.047 101.041 L 109.047 105.031 L 109.017 105.031 C 108.877 104.801 108.705 104.608 108.5 104.453 C 108.295 104.298 108.077 104.173 107.847 104.078 C 107.617 103.983 107.387 103.916 107.157 103.876 C 106.927 103.836 106.712 103.816 106.512 103.816 C 105.922 103.816 105.405 103.923 104.96 104.138 C 104.515 104.353 104.145 104.643 103.85 105.008 C 103.555 105.373 103.335 105.801 103.19 106.291 C 103.045 106.781 102.972 107.301 102.972 107.851 C 102.972 108.401 103.047 108.921 103.197 109.411 C 103.347 109.901 103.57 110.331 103.865 110.701 C 104.16 111.071 104.53 111.366 104.975 111.586 C 105.42 111.806 105.942 111.916 106.542 111.916 C 107.082 111.916 107.577 111.821 108.027 111.631 C 108.477 111.441 108.807 111.131 109.017 110.701 L 109.047 110.701 L 109.047 111.751 L 110.322 111.751 Z " stroke-width="1"/>
      <path id="ID0.9323471589013934" fill="rgb(128,128,128)" d="M 118.227 103.996 L 118.227 101.671 L 116.952 101.671 L 116.952 103.996 L 115.632 103.996 L 115.632 105.121 L 116.952 105.121 L 116.952 110.056 C 116.952 110.416 116.987 110.706 117.057 110.926 C 117.127 111.146 117.235 111.316 117.38 111.436 C 117.525 111.556 117.715 111.638 117.95 111.683 C 118.185 111.728 118.467 111.751 118.797 111.751 L 119.772 111.751 L 119.772 110.626 L 119.187 110.626 C 118.987 110.626 118.825 110.618 118.7 110.603 C 118.575 110.588 118.477 110.556 118.407 110.506 C 118.337 110.456 118.29 110.386 118.265 110.296 C 118.24 110.206 118.227 110.086 118.227 109.936 L 118.227 105.121 L 119.772 105.121 L 119.772 103.996 L 118.227 103.996 Z " stroke-width="1"/>
      <path id="ID0.3514412180520594" fill="rgb(128,128,128)" d="M 122.112 107.881 C 122.112 107.411 122.175 106.993 122.3 106.628 C 122.425 106.263 122.597 105.956 122.817 105.706 C 123.037 105.456 123.295 105.266 123.59 105.136 C 123.885 105.006 124.197 104.941 124.527 104.941 C 124.857 104.941 125.17 105.006 125.465 105.136 C 125.76 105.266 126.017 105.456 126.237 105.706 C 126.457 105.956 126.63 106.263 126.755 106.628 C 126.88 106.993 126.942 107.411 126.942 107.881 C 126.942 108.351 126.88 108.768 126.755 109.133 C 126.63 109.498 126.457 109.803 126.237 110.048 C 126.017 110.293 125.76 110.481 125.465 110.611 C 125.17 110.741 124.857 110.806 124.527 110.806 C 124.197 110.806 123.885 110.741 123.59 110.611 C 123.295 110.481 123.037 110.293 122.817 110.048 C 122.597 109.803 122.425 109.498 122.3 109.133 C 122.175 108.768 122.112 108.351 122.112 107.881 Z M 120.762 107.881 C 120.762 108.451 120.842 108.981 121.002 109.471 C 121.162 109.961 121.402 110.388 121.722 110.753 C 122.042 111.118 122.437 111.403 122.907 111.608 C 123.377 111.813 123.917 111.916 124.527 111.916 C 125.147 111.916 125.69 111.813 126.155 111.608 C 126.62 111.403 127.012 111.118 127.332 110.753 C 127.652 110.388 127.892 109.961 128.052 109.471 C 128.212 108.981 128.292 108.451 128.292 107.881 C 128.292 107.311 128.212 106.778 128.052 106.283 C 127.892 105.788 127.652 105.358 127.332 104.993 C 127.012 104.628 126.62 104.341 126.155 104.131 C 125.69 103.921 125.147 103.816 124.527 103.816 C 123.917 103.816 123.377 103.921 122.907 104.131 C 122.437 104.341 122.042 104.628 121.722 104.993 C 121.402 105.358 121.162 105.788 121.002 106.283 C 120.842 106.778 120.762 107.311 120.762 107.881 Z " stroke-width="1"/>
      <path id="ID0.7349193654954433" fill="rgb(128,128,128)" d="M 134.742 109.306 L 133.467 109.306 C 133.487 109.786 133.587 110.193 133.767 110.528 C 133.947 110.863 134.187 111.133 134.487 111.338 C 134.787 111.543 135.132 111.691 135.522 111.781 C 135.912 111.871 136.322 111.916 136.752 111.916 C 137.142 111.916 137.535 111.878 137.93 111.803 C 138.325 111.728 138.68 111.596 138.995 111.406 C 139.31 111.216 139.565 110.966 139.76 110.656 C 139.955 110.346 140.052 109.956 140.052 109.486 C 140.052 109.116 139.98 108.806 139.835 108.556 C 139.69 108.306 139.5 108.098 139.265 107.933 C 139.03 107.768 138.76 107.636 138.455 107.536 C 138.15 107.436 137.837 107.351 137.517 107.281 C 137.217 107.211 136.917 107.143 136.617 107.078 C 136.317 107.013 136.047 106.933 135.807 106.838 C 135.567 106.743 135.37 106.623 135.215 106.478 C 135.06 106.333 134.982 106.151 134.982 105.931 C 134.982 105.731 135.032 105.568 135.132 105.443 C 135.232 105.318 135.362 105.218 135.522 105.143 C 135.682 105.068 135.86 105.016 136.055 104.986 C 136.25 104.956 136.442 104.941 136.632 104.941 C 136.842 104.941 137.05 104.963 137.255 105.008 C 137.46 105.053 137.647 105.126 137.817 105.226 C 137.987 105.326 138.127 105.458 138.237 105.623 C 138.347 105.788 138.412 105.996 138.432 106.246 L 139.707 106.246 C 139.677 105.776 139.577 105.383 139.407 105.068 C 139.237 104.753 139.01 104.503 138.725 104.318 C 138.44 104.133 138.112 104.003 137.742 103.928 C 137.372 103.853 136.967 103.816 136.527 103.816 C 136.187 103.816 135.845 103.858 135.5 103.943 C 135.155 104.028 134.845 104.158 134.57 104.333 C 134.295 104.508 134.07 104.736 133.895 105.016 C 133.72 105.296 133.632 105.631 133.632 106.021 C 133.632 106.521 133.757 106.911 134.007 107.191 C 134.257 107.471 134.57 107.688 134.945 107.843 C 135.32 107.998 135.727 108.118 136.167 108.203 C 136.607 108.288 137.015 108.383 137.39 108.488 C 137.765 108.593 138.077 108.731 138.327 108.901 C 138.577 109.071 138.702 109.321 138.702 109.651 C 138.702 109.891 138.642 110.088 138.522 110.243 C 138.402 110.398 138.25 110.516 138.065 110.596 C 137.88 110.676 137.677 110.731 137.457 110.761 C 137.237 110.791 137.027 110.806 136.827 110.806 C 136.567 110.806 136.315 110.781 136.07 110.731 C 135.825 110.681 135.605 110.598 135.41 110.483 C 135.215 110.368 135.057 110.213 134.937 110.018 C 134.817 109.823 134.752 109.586 134.742 109.306 Z " stroke-width="1"/>
      <path id="ID0.3194265658967197" fill="rgb(128,128,128)" d="M 146.847 107.131 L 142.392 107.131 C 142.412 106.831 142.477 106.548 142.587 106.283 C 142.697 106.018 142.847 105.786 143.037 105.586 C 143.227 105.386 143.455 105.228 143.72 105.113 C 143.985 104.998 144.282 104.941 144.612 104.941 C 144.932 104.941 145.225 104.998 145.49 105.113 C 145.755 105.228 145.985 105.383 146.18 105.578 C 146.375 105.773 146.53 106.006 146.645 106.276 C 146.76 106.546 146.827 106.831 146.847 107.131 Z M 148.077 109.291 L 146.817 109.291 C 146.707 109.801 146.48 110.181 146.135 110.431 C 145.79 110.681 145.347 110.806 144.807 110.806 C 144.387 110.806 144.022 110.736 143.712 110.596 C 143.402 110.456 143.147 110.268 142.947 110.033 C 142.747 109.798 142.602 109.528 142.512 109.223 C 142.422 108.918 142.382 108.596 142.392 108.256 L 148.197 108.256 C 148.217 107.786 148.175 107.291 148.07 106.771 C 147.965 106.251 147.775 105.771 147.5 105.331 C 147.225 104.891 146.86 104.528 146.405 104.243 C 145.95 103.958 145.377 103.816 144.687 103.816 C 144.157 103.816 143.67 103.916 143.225 104.116 C 142.78 104.316 142.395 104.596 142.07 104.956 C 141.745 105.316 141.492 105.741 141.312 106.231 C 141.132 106.721 141.042 107.261 141.042 107.851 C 141.062 108.441 141.15 108.986 141.305 109.486 C 141.46 109.986 141.692 110.416 142.002 110.776 C 142.312 111.136 142.695 111.416 143.15 111.616 C 143.605 111.816 144.142 111.916 144.762 111.916 C 145.642 111.916 146.372 111.696 146.952 111.256 C 147.532 110.816 147.907 110.161 148.077 109.291 Z " stroke-width="1"/>
      <path id="ID0.5654542939737439" fill="rgb(128,128,128)" d="M 151.287 103.996 L 151.287 101.671 L 150.012 101.671 L 150.012 103.996 L 148.692 103.996 L 148.692 105.121 L 150.012 105.121 L 150.012 110.056 C 150.012 110.416 150.047 110.706 150.117 110.926 C 150.187 111.146 150.295 111.316 150.44 111.436 C 150.585 111.556 150.775 111.638 151.01 111.683 C 151.245 111.728 151.527 111.751 151.857 111.751 L 152.832 111.751 L 152.832 110.626 L 152.247 110.626 C 152.047 110.626 151.885 110.618 151.76 110.603 C 151.635 110.588 151.537 110.556 151.467 110.506 C 151.397 110.456 151.35 110.386 151.325 110.296 C 151.3 110.206 151.287 110.086 151.287 109.936 L 151.287 105.121 L 152.832 105.121 L 152.832 103.996 L 151.287 103.996 Z " stroke-width="1"/>
      <path id="ID0.4675846453756094" fill="rgb(128,128,128)" d="M 158.412 101.041 L 158.412 111.751 L 159.687 111.751 L 159.687 107.371 C 159.687 107.021 159.735 106.698 159.83 106.403 C 159.925 106.108 160.067 105.851 160.257 105.631 C 160.447 105.411 160.685 105.241 160.97 105.121 C 161.255 105.001 161.592 104.941 161.982 104.941 C 162.472 104.941 162.857 105.081 163.137 105.361 C 163.417 105.641 163.557 106.021 163.557 106.501 L 163.557 111.751 L 164.832 111.751 L 164.832 106.651 C 164.832 106.231 164.79 105.848 164.705 105.503 C 164.62 105.158 164.472 104.861 164.262 104.611 C 164.052 104.361 163.777 104.166 163.437 104.026 C 163.097 103.886 162.672 103.816 162.162 103.816 C 161.932 103.816 161.695 103.841 161.45 103.891 C 161.205 103.941 160.97 104.018 160.745 104.123 C 160.52 104.228 160.317 104.363 160.137 104.528 C 159.957 104.693 159.817 104.896 159.717 105.136 L 159.687 105.136 L 159.687 101.041 L 158.412 101.041 Z " stroke-width="1"/>
      <path id="ID0.22342359414324164" fill="rgb(128,128,128)" d="M 168.102 102.601 L 168.102 101.041 L 166.827 101.041 L 166.827 102.601 L 168.102 102.601 Z M 166.827 103.996 L 166.827 111.751 L 168.102 111.751 L 168.102 103.996 L 166.827 103.996 Z " stroke-width="1"/>
      <path id="ID0.6042201174423099" fill="rgb(128,128,128)" d="M 170.862 109.306 L 169.587 109.306 C 169.607 109.786 169.707 110.193 169.887 110.528 C 170.067 110.863 170.307 111.133 170.607 111.338 C 170.907 111.543 171.252 111.691 171.642 111.781 C 172.032 111.871 172.442 111.916 172.872 111.916 C 173.262 111.916 173.655 111.878 174.05 111.803 C 174.445 111.728 174.8 111.596 175.115 111.406 C 175.43 111.216 175.685 110.966 175.88 110.656 C 176.075 110.346 176.172 109.956 176.172 109.486 C 176.172 109.116 176.1 108.806 175.955 108.556 C 175.81 108.306 175.62 108.098 175.385 107.933 C 175.15 107.768 174.88 107.636 174.575 107.536 C 174.27 107.436 173.957 107.351 173.637 107.281 C 173.337 107.211 173.037 107.143 172.737 107.078 C 172.437 107.013 172.167 106.933 171.927 106.838 C 171.687 106.743 171.49 106.623 171.335 106.478 C 171.18 106.333 171.102 106.151 171.102 105.931 C 171.102 105.731 171.152 105.568 171.252 105.443 C 171.352 105.318 171.482 105.218 171.642 105.143 C 171.802 105.068 171.98 105.016 172.175 104.986 C 172.37 104.956 172.562 104.941 172.752 104.941 C 172.962 104.941 173.17 104.963 173.375 105.008 C 173.58 105.053 173.767 105.126 173.937 105.226 C 174.107 105.326 174.247 105.458 174.357 105.623 C 174.467 105.788 174.532 105.996 174.552 106.246 L 175.827 106.246 C 175.797 105.776 175.697 105.383 175.527 105.068 C 175.357 104.753 175.13 104.503 174.845 104.318 C 174.56 104.133 174.232 104.003 173.862 103.928 C 173.492 103.853 173.087 103.816 172.647 103.816 C 172.307 103.816 171.965 103.858 171.62 103.943 C 171.275 104.028 170.965 104.158 170.69 104.333 C 170.415 104.508 170.19 104.736 170.015 105.016 C 169.84 105.296 169.752 105.631 169.752 106.021 C 169.752 106.521 169.877 106.911 170.127 107.191 C 170.377 107.471 170.69 107.688 171.065 107.843 C 171.44 107.998 171.847 108.118 172.287 108.203 C 172.727 108.288 173.135 108.383 173.51 108.488 C 173.885 108.593 174.197 108.731 174.447 108.901 C 174.697 109.071 174.822 109.321 174.822 109.651 C 174.822 109.891 174.762 110.088 174.642 110.243 C 174.522 110.398 174.37 110.516 174.185 110.596 C 174 110.676 173.797 110.731 173.577 110.761 C 173.357 110.791 173.147 110.806 172.947 110.806 C 172.687 110.806 172.435 110.781 172.19 110.731 C 171.945 110.681 171.725 110.598 171.53 110.483 C 171.335 110.368 171.177 110.213 171.057 110.018 C 170.937 109.823 170.872 109.586 170.862 109.306 Z " stroke-width="1"/>
      <path id="ID0.8237393703311682" fill="rgb(128,128,128)" d="M 182.532 109.306 L 181.257 109.306 C 181.277 109.786 181.377 110.193 181.557 110.528 C 181.737 110.863 181.977 111.133 182.277 111.338 C 182.577 111.543 182.922 111.691 183.312 111.781 C 183.702 111.871 184.112 111.916 184.542 111.916 C 184.932 111.916 185.325 111.878 185.72 111.803 C 186.115 111.728 186.47 111.596 186.785 111.406 C 187.1 111.216 187.355 110.966 187.55 110.656 C 187.745 110.346 187.842 109.956 187.842 109.486 C 187.842 109.116 187.77 108.806 187.625 108.556 C 187.48 108.306 187.29 108.098 187.055 107.933 C 186.82 107.768 186.55 107.636 186.245 107.536 C 185.94 107.436 185.627 107.351 185.307 107.281 C 185.007 107.211 184.707 107.143 184.407 107.078 C 184.107 107.013 183.837 106.933 183.597 106.838 C 183.357 106.743 183.16 106.623 183.005 106.478 C 182.85 106.333 182.772 106.151 182.772 105.931 C 182.772 105.731 182.822 105.568 182.922 105.443 C 183.022 105.318 183.152 105.218 183.312 105.143 C 183.472 105.068 183.65 105.016 183.845 104.986 C 184.04 104.956 184.232 104.941 184.422 104.941 C 184.632 104.941 184.84 104.963 185.045 105.008 C 185.25 105.053 185.437 105.126 185.607 105.226 C 185.777 105.326 185.917 105.458 186.027 105.623 C 186.137 105.788 186.202 105.996 186.222 106.246 L 187.497 106.246 C 187.467 105.776 187.367 105.383 187.197 105.068 C 187.027 104.753 186.8 104.503 186.515 104.318 C 186.23 104.133 185.902 104.003 185.532 103.928 C 185.162 103.853 184.757 103.816 184.317 103.816 C 183.977 103.816 183.635 103.858 183.29 103.943 C 182.945 104.028 182.635 104.158 182.36 104.333 C 182.085 104.508 181.86 104.736 181.685 105.016 C 181.51 105.296 181.422 105.631 181.422 106.021 C 181.422 106.521 181.547 106.911 181.797 107.191 C 182.047 107.471 182.36 107.688 182.735 107.843 C 183.11 107.998 183.517 108.118 183.957 108.203 C 184.397 108.288 184.805 108.383 185.18 108.488 C 185.555 108.593 185.867 108.731 186.117 108.901 C 186.367 109.071 186.492 109.321 186.492 109.651 C 186.492 109.891 186.432 110.088 186.312 110.243 C 186.192 110.398 186.04 110.516 185.855 110.596 C 185.67 110.676 185.467 110.731 185.247 110.761 C 185.027 110.791 184.817 110.806 184.617 110.806 C 184.357 110.806 184.105 110.781 183.86 110.731 C 183.615 110.681 183.395 110.598 183.2 110.483 C 183.005 110.368 182.847 110.213 182.727 110.018 C 182.607 109.823 182.542 109.586 182.532 109.306 Z " stroke-width="1"/>
      <path id="ID0.3443718170747161" fill="rgb(128,128,128)" d="M 191.022 103.996 L 191.022 101.671 L 189.747 101.671 L 189.747 103.996 L 188.427 103.996 L 188.427 105.121 L 189.747 105.121 L 189.747 110.056 C 189.747 110.416 189.782 110.706 189.852 110.926 C 189.922 111.146 190.03 111.316 190.175 111.436 C 190.32 111.556 190.51 111.638 190.745 111.683 C 190.98 111.728 191.262 111.751 191.592 111.751 L 192.567 111.751 L 192.567 110.626 L 191.982 110.626 C 191.782 110.626 191.62 110.618 191.495 110.603 C 191.37 110.588 191.272 110.556 191.202 110.506 C 191.132 110.456 191.085 110.386 191.06 110.296 C 191.035 110.206 191.022 110.086 191.022 109.936 L 191.022 105.121 L 192.567 105.121 L 192.567 103.996 L 191.022 103.996 Z " stroke-width="1"/>
      <path id="ID0.2457407577894628" fill="rgb(128,128,128)" d="M 200.847 111.721 C 200.627 111.851 200.322 111.916 199.932 111.916 C 199.602 111.916 199.34 111.823 199.145 111.638 C 198.95 111.453 198.852 111.151 198.852 110.731 C 198.502 111.151 198.095 111.453 197.63 111.638 C 197.165 111.823 196.662 111.916 196.122 111.916 C 195.772 111.916 195.44 111.876 195.125 111.796 C 194.81 111.716 194.537 111.591 194.307 111.421 C 194.077 111.251 193.895 111.028 193.76 110.753 C 193.625 110.478 193.557 110.146 193.557 109.756 C 193.557 109.316 193.632 108.956 193.782 108.676 C 193.932 108.396 194.13 108.168 194.375 107.993 C 194.62 107.818 194.9 107.686 195.215 107.596 C 195.53 107.506 195.852 107.431 196.182 107.371 C 196.532 107.301 196.865 107.248 197.18 107.213 C 197.495 107.178 197.772 107.128 198.012 107.063 C 198.252 106.998 198.442 106.903 198.582 106.778 C 198.722 106.653 198.792 106.471 198.792 106.231 C 198.792 105.951 198.74 105.726 198.635 105.556 C 198.53 105.386 198.395 105.256 198.23 105.166 C 198.065 105.076 197.88 105.016 197.675 104.986 C 197.47 104.956 197.267 104.941 197.067 104.941 C 196.527 104.941 196.077 105.043 195.717 105.248 C 195.357 105.453 195.162 105.841 195.132 106.411 L 193.857 106.411 C 193.877 105.931 193.977 105.526 194.157 105.196 C 194.337 104.866 194.577 104.598 194.877 104.393 C 195.177 104.188 195.52 104.041 195.905 103.951 C 196.29 103.861 196.702 103.816 197.142 103.816 C 197.492 103.816 197.84 103.841 198.185 103.891 C 198.53 103.941 198.842 104.043 199.122 104.198 C 199.402 104.353 199.627 104.571 199.797 104.851 C 199.967 105.131 200.052 105.496 200.052 105.946 L 200.052 109.936 C 200.052 110.236 200.07 110.456 200.105 110.596 C 200.14 110.736 200.257 110.806 200.457 110.806 C 200.567 110.806 200.697 110.781 200.847 110.731 L 200.847 111.721 Z M 198.777 107.746 C 198.617 107.866 198.407 107.953 198.147 108.008 C 197.887 108.063 197.615 108.108 197.33 108.143 C 197.045 108.178 196.757 108.218 196.467 108.263 C 196.177 108.308 195.917 108.381 195.687 108.481 C 195.457 108.581 195.27 108.723 195.125 108.908 C 194.98 109.093 194.907 109.346 194.907 109.666 C 194.907 109.876 194.95 110.053 195.035 110.198 C 195.12 110.343 195.23 110.461 195.365 110.551 C 195.5 110.641 195.657 110.706 195.837 110.746 C 196.017 110.786 196.207 110.806 196.407 110.806 C 196.827 110.806 197.187 110.748 197.487 110.633 C 197.787 110.518 198.032 110.373 198.222 110.198 C 198.412 110.023 198.552 109.833 198.642 109.628 C 198.732 109.423 198.777 109.231 198.777 109.051 L 198.777 107.746 Z " stroke-width="1"/>
      <path id="ID0.018343869596719742" fill="rgb(128,128,128)" d="M 201.987 103.996 L 201.987 111.751 L 203.262 111.751 L 203.262 108.301 C 203.262 107.801 203.312 107.358 203.412 106.973 C 203.512 106.588 203.672 106.261 203.892 105.991 C 204.112 105.721 204.402 105.516 204.762 105.376 C 205.122 105.236 205.557 105.166 206.067 105.166 L 206.067 103.816 C 205.377 103.796 204.807 103.936 204.357 104.236 C 203.907 104.536 203.527 105.001 203.217 105.631 L 203.187 105.631 L 203.187 103.996 L 201.987 103.996 Z " stroke-width="1"/>
      <path id="ID0.06994510255753994" fill="rgb(128,128,128)" d="M 208.797 103.996 L 208.797 101.671 L 207.522 101.671 L 207.522 103.996 L 206.202 103.996 L 206.202 105.121 L 207.522 105.121 L 207.522 110.056 C 207.522 110.416 207.557 110.706 207.627 110.926 C 207.697 111.146 207.805 111.316 207.95 111.436 C 208.095 111.556 208.285 111.638 208.52 111.683 C 208.755 111.728 209.037 111.751 209.367 111.751 L 210.342 111.751 L 210.342 110.626 L 209.757 110.626 C 209.557 110.626 209.395 110.618 209.27 110.603 C 209.145 110.588 209.047 110.556 208.977 110.506 C 208.907 110.456 208.86 110.386 208.835 110.296 C 208.81 110.206 208.797 110.086 208.797 109.936 L 208.797 105.121 L 210.342 105.121 L 210.342 103.996 L 208.797 103.996 Z " stroke-width="1"/>
      <path id="ID0.4117237855680287" fill="rgb(128,128,128)" d="M 213.102 102.601 L 213.102 101.041 L 211.827 101.041 L 211.827 102.601 L 213.102 102.601 Z M 211.827 103.996 L 211.827 111.751 L 213.102 111.751 L 213.102 103.996 L 211.827 103.996 Z " stroke-width="1"/>
      <path id="ID0.36322264233604074" fill="rgb(128,128,128)" d="M 215.082 103.996 L 215.082 111.751 L 216.357 111.751 L 216.357 107.371 C 216.357 107.021 216.405 106.698 216.5 106.403 C 216.595 106.108 216.737 105.851 216.927 105.631 C 217.117 105.411 217.355 105.241 217.64 105.121 C 217.925 105.001 218.262 104.941 218.652 104.941 C 219.142 104.941 219.527 105.081 219.807 105.361 C 220.087 105.641 220.227 106.021 220.227 106.501 L 220.227 111.751 L 221.502 111.751 L 221.502 106.651 C 221.502 106.231 221.46 105.848 221.375 105.503 C 221.29 105.158 221.142 104.861 220.932 104.611 C 220.722 104.361 220.447 104.166 220.107 104.026 C 219.767 103.886 219.342 103.816 218.832 103.816 C 217.682 103.816 216.842 104.286 216.312 105.226 L 216.282 105.226 L 216.282 103.996 L 215.082 103.996 Z " stroke-width="1"/>
      <path id="ID0.27652954682707787" fill="rgb(128,128,128)" d="M 230.112 111.091 L 230.112 103.996 L 228.912 103.996 L 228.912 105.106 L 228.897 105.106 C 228.667 104.676 228.347 104.353 227.937 104.138 C 227.527 103.923 227.077 103.816 226.587 103.816 C 225.917 103.816 225.352 103.943 224.892 104.198 C 224.432 104.453 224.062 104.778 223.782 105.173 C 223.502 105.568 223.302 106.008 223.182 106.493 C 223.062 106.978 223.002 107.451 223.002 107.911 C 223.002 108.441 223.075 108.943 223.22 109.418 C 223.365 109.893 223.582 110.308 223.872 110.663 C 224.162 111.018 224.522 111.301 224.952 111.511 C 225.382 111.721 225.887 111.826 226.467 111.826 C 226.967 111.826 227.44 111.713 227.885 111.488 C 228.33 111.263 228.662 110.911 228.882 110.431 L 228.912 110.431 L 228.912 110.941 C 228.912 111.371 228.87 111.766 228.785 112.126 C 228.7 112.486 228.562 112.793 228.372 113.048 C 228.182 113.303 227.942 113.503 227.652 113.648 C 227.362 113.793 227.007 113.866 226.587 113.866 C 226.377 113.866 226.157 113.843 225.927 113.798 C 225.697 113.753 225.485 113.681 225.29 113.581 C 225.095 113.481 224.93 113.351 224.795 113.191 C 224.66 113.031 224.587 112.836 224.577 112.606 L 223.302 112.606 C 223.322 113.026 223.432 113.381 223.632 113.671 C 223.832 113.961 224.085 114.196 224.39 114.376 C 224.695 114.556 225.035 114.686 225.41 114.766 C 225.785 114.846 226.152 114.886 226.512 114.886 C 227.752 114.886 228.662 114.571 229.242 113.941 C 229.822 113.311 230.112 112.361 230.112 111.091 Z M 226.542 110.716 C 226.122 110.716 225.772 110.628 225.492 110.453 C 225.212 110.278 224.987 110.048 224.817 109.763 C 224.647 109.478 224.527 109.161 224.457 108.811 C 224.387 108.461 224.352 108.111 224.352 107.761 C 224.352 107.391 224.395 107.036 224.48 106.696 C 224.565 106.356 224.7 106.056 224.885 105.796 C 225.07 105.536 225.307 105.328 225.597 105.173 C 225.887 105.018 226.237 104.941 226.647 104.941 C 227.047 104.941 227.387 105.021 227.667 105.181 C 227.947 105.341 228.175 105.553 228.35 105.818 C 228.525 106.083 228.652 106.381 228.732 106.711 C 228.812 107.041 228.852 107.376 228.852 107.716 C 228.852 108.076 228.81 108.436 228.725 108.796 C 228.64 109.156 228.507 109.478 228.327 109.763 C 228.147 110.048 227.91 110.278 227.615 110.453 C 227.32 110.628 226.962 110.716 226.542 110.716 Z " stroke-width="1"/>
      <path id="ID0.6803552252240479" fill="rgb(128,128,128)" d="M 236.247 103.996 L 236.247 114.706 L 237.522 114.706 L 237.522 110.716 L 237.552 110.716 C 237.692 110.946 237.865 111.138 238.07 111.293 C 238.275 111.448 238.492 111.571 238.722 111.661 C 238.952 111.751 239.185 111.816 239.42 111.856 C 239.655 111.896 239.867 111.916 240.057 111.916 C 240.647 111.916 241.165 111.811 241.61 111.601 C 242.055 111.391 242.425 111.103 242.72 110.738 C 243.015 110.373 243.235 109.946 243.38 109.456 C 243.525 108.966 243.597 108.446 243.597 107.896 C 243.597 107.346 243.522 106.826 243.372 106.336 C 243.222 105.846 243 105.413 242.705 105.038 C 242.41 104.663 242.04 104.366 241.595 104.146 C 241.15 103.926 240.627 103.816 240.027 103.816 C 239.487 103.816 238.992 103.913 238.542 104.108 C 238.092 104.303 237.762 104.616 237.552 105.046 L 237.522 105.046 L 237.522 103.996 L 236.247 103.996 Z M 242.247 107.806 C 242.247 108.186 242.207 108.556 242.127 108.916 C 242.047 109.276 241.917 109.596 241.737 109.876 C 241.557 110.156 241.32 110.381 241.025 110.551 C 240.73 110.721 240.362 110.806 239.922 110.806 C 239.482 110.806 239.107 110.723 238.797 110.558 C 238.487 110.393 238.235 110.176 238.04 109.906 C 237.845 109.636 237.702 109.323 237.612 108.968 C 237.522 108.613 237.477 108.246 237.477 107.866 C 237.477 107.506 237.52 107.151 237.605 106.801 C 237.69 106.451 237.827 106.138 238.017 105.863 C 238.207 105.588 238.452 105.366 238.752 105.196 C 239.052 105.026 239.417 104.941 239.847 104.941 C 240.257 104.941 240.615 105.021 240.92 105.181 C 241.225 105.341 241.475 105.556 241.67 105.826 C 241.865 106.096 242.01 106.403 242.105 106.748 C 242.2 107.093 242.247 107.446 242.247 107.806 Z " stroke-width="1"/>
      <path id="ID0.4832909987308085" fill="rgb(128,128,128)" d="M 246.027 107.881 C 246.027 107.411 246.09 106.993 246.215 106.628 C 246.34 106.263 246.512 105.956 246.732 105.706 C 246.952 105.456 247.21 105.266 247.505 105.136 C 247.8 105.006 248.112 104.941 248.442 104.941 C 248.772 104.941 249.085 105.006 249.38 105.136 C 249.675 105.266 249.932 105.456 250.152 105.706 C 250.372 105.956 250.545 106.263 250.67 106.628 C 250.795 106.993 250.857 107.411 250.857 107.881 C 250.857 108.351 250.795 108.768 250.67 109.133 C 250.545 109.498 250.372 109.803 250.152 110.048 C 249.932 110.293 249.675 110.481 249.38 110.611 C 249.085 110.741 248.772 110.806 248.442 110.806 C 248.112 110.806 247.8 110.741 247.505 110.611 C 247.21 110.481 246.952 110.293 246.732 110.048 C 246.512 109.803 246.34 109.498 246.215 109.133 C 246.09 108.768 246.027 108.351 246.027 107.881 Z M 244.677 107.881 C 244.677 108.451 244.757 108.981 244.917 109.471 C 245.077 109.961 245.317 110.388 245.637 110.753 C 245.957 111.118 246.352 111.403 246.822 111.608 C 247.292 111.813 247.832 111.916 248.442 111.916 C 249.062 111.916 249.605 111.813 250.07 111.608 C 250.535 111.403 250.927 111.118 251.247 110.753 C 251.567 110.388 251.807 109.961 251.967 109.471 C 252.127 108.981 252.207 108.451 252.207 107.881 C 252.207 107.311 252.127 106.778 251.967 106.283 C 251.807 105.788 251.567 105.358 251.247 104.993 C 250.927 104.628 250.535 104.341 250.07 104.131 C 249.605 103.921 249.062 103.816 248.442 103.816 C 247.832 103.816 247.292 103.921 246.822 104.131 C 246.352 104.341 245.957 104.628 245.637 104.993 C 245.317 105.358 245.077 105.788 244.917 106.283 C 244.757 106.778 244.677 107.311 244.677 107.881 Z " stroke-width="1"/>
      <path id="ID0.8130988981574774" fill="rgb(128,128,128)" d="M 254.487 109.306 L 253.212 109.306 C 253.232 109.786 253.332 110.193 253.512 110.528 C 253.692 110.863 253.932 111.133 254.232 111.338 C 254.532 111.543 254.877 111.691 255.267 111.781 C 255.657 111.871 256.067 111.916 256.497 111.916 C 256.887 111.916 257.28 111.878 257.675 111.803 C 258.07 111.728 258.425 111.596 258.74 111.406 C 259.055 111.216 259.31 110.966 259.505 110.656 C 259.7 110.346 259.797 109.956 259.797 109.486 C 259.797 109.116 259.725 108.806 259.58 108.556 C 259.435 108.306 259.245 108.098 259.01 107.933 C 258.775 107.768 258.505 107.636 258.2 107.536 C 257.895 107.436 257.582 107.351 257.262 107.281 C 256.962 107.211 256.662 107.143 256.362 107.078 C 256.062 107.013 255.792 106.933 255.552 106.838 C 255.312 106.743 255.115 106.623 254.96 106.478 C 254.805 106.333 254.727 106.151 254.727 105.931 C 254.727 105.731 254.777 105.568 254.877 105.443 C 254.977 105.318 255.107 105.218 255.267 105.143 C 255.427 105.068 255.605 105.016 255.8 104.986 C 255.995 104.956 256.187 104.941 256.377 104.941 C 256.587 104.941 256.795 104.963 257 105.008 C 257.205 105.053 257.392 105.126 257.562 105.226 C 257.732 105.326 257.872 105.458 257.982 105.623 C 258.092 105.788 258.157 105.996 258.177 106.246 L 259.452 106.246 C 259.422 105.776 259.322 105.383 259.152 105.068 C 258.982 104.753 258.755 104.503 258.47 104.318 C 258.185 104.133 257.857 104.003 257.487 103.928 C 257.117 103.853 256.712 103.816 256.272 103.816 C 255.932 103.816 255.59 103.858 255.245 103.943 C 254.9 104.028 254.59 104.158 254.315 104.333 C 254.04 104.508 253.815 104.736 253.64 105.016 C 253.465 105.296 253.377 105.631 253.377 106.021 C 253.377 106.521 253.502 106.911 253.752 107.191 C 254.002 107.471 254.315 107.688 254.69 107.843 C 255.065 107.998 255.472 108.118 255.912 108.203 C 256.352 108.288 256.76 108.383 257.135 108.488 C 257.51 108.593 257.822 108.731 258.072 108.901 C 258.322 109.071 258.447 109.321 258.447 109.651 C 258.447 109.891 258.387 110.088 258.267 110.243 C 258.147 110.398 257.995 110.516 257.81 110.596 C 257.625 110.676 257.422 110.731 257.202 110.761 C 256.982 110.791 256.772 110.806 256.572 110.806 C 256.312 110.806 256.06 110.781 255.815 110.731 C 255.57 110.681 255.35 110.598 255.155 110.483 C 254.96 110.368 254.802 110.213 254.682 110.018 C 254.562 109.823 254.497 109.586 254.487 109.306 Z " stroke-width="1"/>
      <path id="ID0.632838437333703" fill="rgb(128,128,128)" d="M 262.557 102.601 L 262.557 101.041 L 261.282 101.041 L 261.282 102.601 L 262.557 102.601 Z M 261.282 103.996 L 261.282 111.751 L 262.557 111.751 L 262.557 103.996 L 261.282 103.996 Z " stroke-width="1"/>
      <path id="ID0.3002562099136412" fill="rgb(128,128,128)" d="M 266.307 103.996 L 266.307 101.671 L 265.032 101.671 L 265.032 103.996 L 263.712 103.996 L 263.712 105.121 L 265.032 105.121 L 265.032 110.056 C 265.032 110.416 265.067 110.706 265.137 110.926 C 265.207 111.146 265.315 111.316 265.46 111.436 C 265.605 111.556 265.795 111.638 266.03 111.683 C 266.265 111.728 266.547 111.751 266.877 111.751 L 267.852 111.751 L 267.852 110.626 L 267.267 110.626 C 267.067 110.626 266.905 110.618 266.78 110.603 C 266.655 110.588 266.557 110.556 266.487 110.506 C 266.417 110.456 266.37 110.386 266.345 110.296 C 266.32 110.206 266.307 110.086 266.307 109.936 L 266.307 105.121 L 267.852 105.121 L 267.852 103.996 L 266.307 103.996 Z " stroke-width="1"/>
      <path id="ID0.29862550226971507" fill="rgb(128,128,128)" d="M 270.612 102.601 L 270.612 101.041 L 269.337 101.041 L 269.337 102.601 L 270.612 102.601 Z M 269.337 103.996 L 269.337 111.751 L 270.612 111.751 L 270.612 103.996 L 269.337 103.996 Z " stroke-width="1"/>
      <path id="ID0.3215596219524741" fill="rgb(128,128,128)" d="M 273.522 107.881 C 273.522 107.411 273.585 106.993 273.71 106.628 C 273.835 106.263 274.007 105.956 274.227 105.706 C 274.447 105.456 274.705 105.266 275 105.136 C 275.295 105.006 275.607 104.941 275.937 104.941 C 276.267 104.941 276.58 105.006 276.875 105.136 C 277.17 105.266 277.427 105.456 277.647 105.706 C 277.867 105.956 278.04 106.263 278.165 106.628 C 278.29 106.993 278.352 107.411 278.352 107.881 C 278.352 108.351 278.29 108.768 278.165 109.133 C 278.04 109.498 277.867 109.803 277.647 110.048 C 277.427 110.293 277.17 110.481 276.875 110.611 C 276.58 110.741 276.267 110.806 275.937 110.806 C 275.607 110.806 275.295 110.741 275 110.611 C 274.705 110.481 274.447 110.293 274.227 110.048 C 274.007 109.803 273.835 109.498 273.71 109.133 C 273.585 108.768 273.522 108.351 273.522 107.881 Z M 272.172 107.881 C 272.172 108.451 272.252 108.981 272.412 109.471 C 272.572 109.961 272.812 110.388 273.132 110.753 C 273.452 111.118 273.847 111.403 274.317 111.608 C 274.787 111.813 275.327 111.916 275.937 111.916 C 276.557 111.916 277.1 111.813 277.565 111.608 C 278.03 111.403 278.422 111.118 278.742 110.753 C 279.062 110.388 279.302 109.961 279.462 109.471 C 279.622 108.981 279.702 108.451 279.702 107.881 C 279.702 107.311 279.622 106.778 279.462 106.283 C 279.302 105.788 279.062 105.358 278.742 104.993 C 278.422 104.628 278.03 104.341 277.565 104.131 C 277.1 103.921 276.557 103.816 275.937 103.816 C 275.327 103.816 274.787 103.921 274.317 104.131 C 273.847 104.341 273.452 104.628 273.132 104.993 C 272.812 105.358 272.572 105.788 272.412 106.283 C 272.252 106.778 272.172 107.311 272.172 107.881 Z " stroke-width="1"/>
      <path id="ID0.4413279569707811" fill="rgb(128,128,128)" d="M 281.202 103.996 L 281.202 111.751 L 282.477 111.751 L 282.477 107.371 C 282.477 107.021 282.525 106.698 282.62 106.403 C 282.715 106.108 282.857 105.851 283.047 105.631 C 283.237 105.411 283.475 105.241 283.76 105.121 C 284.045 105.001 284.382 104.941 284.772 104.941 C 285.262 104.941 285.647 105.081 285.927 105.361 C 286.207 105.641 286.347 106.021 286.347 106.501 L 286.347 111.751 L 287.622 111.751 L 287.622 106.651 C 287.622 106.231 287.58 105.848 287.495 105.503 C 287.41 105.158 287.262 104.861 287.052 104.611 C 286.842 104.361 286.567 104.166 286.227 104.026 C 285.887 103.886 285.462 103.816 284.952 103.816 C 283.802 103.816 282.962 104.286 282.432 105.226 L 282.402 105.226 L 282.402 103.996 L 281.202 103.996 Z " stroke-width="1"/>
      <path id="ID0.2611337243579328" fill="rgb(128,128,128)" d="M 289.827 110.086 L 291.492 110.086 L 291.492 111.751 L 289.827 111.751 L 289.827 110.086 Z " stroke-width="1"/>
    </g>
  </g>
</svg>