<svg width="113.3530044555664" height="30.483999252319336" viewBox="-0.43500375747680664 0.25799989700317383 113.3530044555664 30.483999252319336" version="1.1" xmlns="http://www.w3.org/2000/svg" xmlns:xlink="http://www.w3.org/1999/xlink" xml:space="preserve" style="fill-rule:evenodd;clip-rule:evenodd;stroke-linejoin:round;stroke-miterlimit:1.41421;"><g id="Got it! Button"><path d="M112.418,8.129c0,-4.068 -3.303,-7.371 -7.371,-7.371l-97.61,0c-4.069,0 -7.372,3.303 -7.372,7.371l0,14.742c0,4.068 3.303,7.371 7.372,7.371l97.61,0c4.068,0 7.371,-3.303 7.371,-7.371l0,-14.742Z" style="fill:#fff;" stroke-width="1"/><g><path d="M40.363,16.921l0,-1.809l4.673,0l0,4.277c-0.454,0.44 -1.112,0.827 -1.974,1.161c-0.862,0.335 -1.735,0.502 -2.619,0.502c-1.123,0 -2.102,-0.236 -2.937,-0.707c-0.835,-0.471 -1.462,-1.145 -1.882,-2.022c-0.42,-0.876 -0.63,-1.829 -0.63,-2.86c0,-1.118 0.235,-2.111 0.703,-2.981c0.469,-0.869 1.155,-1.535 2.058,-1.999c0.689,-0.357 1.546,-0.535 2.571,-0.535c1.333,0 2.374,0.28 3.124,0.839c0.749,0.559 1.232,1.332 1.446,2.318l-2.153,0.403c-0.151,-0.528 -0.436,-0.944 -0.853,-1.249c-0.418,-0.305 -0.939,-0.458 -1.564,-0.458c-0.947,0 -1.7,0.301 -2.259,0.901c-0.559,0.601 -0.839,1.492 -0.839,2.673c0,1.275 0.283,2.231 0.85,2.868c0.566,0.637 1.308,0.956 2.226,0.956c0.454,0 0.91,-0.089 1.366,-0.268c0.457,-0.178 0.849,-0.394 1.176,-0.648l0,-1.362l-2.483,0Z" style="fill:#ea5f61;fill-rule:nonzero;" stroke-width="1"/><path d="M46.544,16.87c0,-0.684 0.169,-1.346 0.506,-1.985c0.337,-0.64 0.814,-1.128 1.432,-1.465c0.617,-0.337 1.307,-0.505 2.069,-0.505c1.177,0 2.141,0.382 2.893,1.146c0.752,0.764 1.128,1.73 1.128,2.897c0,1.176 -0.38,2.152 -1.139,2.926c-0.759,0.773 -1.715,1.16 -2.868,1.16c-0.712,0 -1.392,-0.161 -2.039,-0.483c-0.647,-0.322 -1.139,-0.795 -1.476,-1.417c-0.337,-0.623 -0.506,-1.381 -0.506,-2.274ZM48.654,16.979c0,0.772 0.183,1.363 0.549,1.773c0.366,0.41 0.818,0.615 1.355,0.615c0.537,0 0.988,-0.205 1.351,-0.615c0.364,-0.41 0.546,-1.006 0.546,-1.787c0,-0.762 -0.182,-1.348 -0.546,-1.758c-0.363,-0.41 -0.814,-0.615 -1.351,-0.615c-0.537,0 -0.989,0.205 -1.355,0.615c-0.366,0.41 -0.549,1.001 -0.549,1.772Z" style="fill:#ea5f61;fill-rule:nonzero;" stroke-width="1"/><path d="M59.75,13.09l0,1.641l-1.406,0l0,3.135c0,0.634 0.013,1.004 0.04,1.109c0.027,0.105 0.088,0.192 0.183,0.26c0.095,0.069 0.211,0.103 0.348,0.103c0.19,0 0.466,-0.066 0.828,-0.198l0.175,1.597c-0.478,0.205 -1.02,0.307 -1.626,0.307c-0.371,0 -0.705,-0.062 -1.003,-0.186c-0.298,-0.125 -0.516,-0.286 -0.655,-0.484c-0.14,-0.197 -0.236,-0.465 -0.29,-0.802c-0.044,-0.239 -0.066,-0.722 -0.066,-1.45l0,-3.391l-0.945,0l0,-1.641l0.945,0l0,-1.545l2.066,-1.201l0,2.746l1.406,0Z" style="fill:#ea5f61;fill-rule:nonzero;" stroke-width="1"/><path d="M65.346,12.036l0,-1.905l2.058,0l0,1.905l-2.058,0ZM65.346,20.869l0,-7.779l2.058,0l0,7.779l-2.058,0Z" style="fill:#ea5f61;fill-rule:nonzero;" stroke-width="1"/><path d="M73.08,13.09l0,1.641l-1.406,0l0,3.135c0,0.634 0.013,1.004 0.04,1.109c0.027,0.105 0.088,0.192 0.183,0.26c0.095,0.069 0.211,0.103 0.348,0.103c0.191,0 0.466,-0.066 0.828,-0.198l0.176,1.597c-0.479,0.205 -1.021,0.307 -1.626,0.307c-0.372,0 -0.706,-0.062 -1.004,-0.186c-0.298,-0.125 -0.516,-0.286 -0.655,-0.484c-0.14,-0.197 -0.236,-0.465 -0.29,-0.802c-0.044,-0.239 -0.066,-0.722 -0.066,-1.45l0,-3.391l-0.944,0l0,-1.641l0.944,0l0,-1.545l2.066,-1.201l0,2.746l1.406,0Z" style="fill:#ea5f61;fill-rule:nonzero;" stroke-width="1"/><path d="M75.314,18.1l-0.535,-5.449l0,-2.52l2.227,0l0,2.52l-0.527,5.449l-1.165,0ZM74.867,20.869l0,-2.058l2.058,0l0,2.058l-2.058,0Z" style="fill:#ea5f61;fill-rule:nonzero;" stroke-width="1"/></g></g></svg>