<svg version="1.1" width="37.21900177001953" height="51.40599822998047" viewBox="-0.5 0.09399998188018799 37.21900177001953 51.40599822998047" xmlns="http://www.w3.org/2000/svg" xmlns:xlink="http://www.w3.org/1999/xlink">
  <!-- Exported by Scratch - http://scratch.mit.edu/ -->
  <g id="ID0.5018438906408846">
    <g id="layer1">
      <path id="path3065" fill="#666666" stroke="none" d="M 23.531 0.594 C 22.336 3.148 20.852 5.855 19.094 8.75 C 17.336 11.645 15.43 14.598 13.344 17.563 C 11.258 20.527 9.066 23.441 6.781 26.313 C 4.496 29.184 2.227 31.875 0 34.406 L 0 38.5 L 23.875 38.5 L 23.875 51 L 28.344 51 L 28.344 38.5 L 36.219 38.5 L 36.219 34.406 L 28.344 34.406 L 28.344 0.594 L 23.531 0.594 Z M 23.875 7.781 L 23.875 34.406 L 5.094 34.406 C 6.312 32.93 7.66 31.266 9.125 29.438 C 10.59 27.609 12.145 25.59 13.75 23.375 C 15.355 21.16 17.008 18.777 18.719 16.188 C 20.43 13.598 22.141 10.781 23.875 7.781 Z " stroke-width="1"/>
    </g>
  </g>
</svg>