<svg version="1.1" width="29.1560001373291" height="53.125" viewBox="0.06300002336502075 0.25 29.1560001373291 53.125" xmlns="http://www.w3.org/2000/svg" xmlns:xlink="http://www.w3.org/1999/xlink">
  <!-- Exported by Scratch - http://scratch.mit.edu/ -->
  <g id="ID0.5454397657886147">
    <g id="layer1">
      <path id="path3052" fill="#666666" stroke="none" d="M 13.469 0.75 C 9.695 0.75 6.047 1.695 2.531 3.594 L 2.531 8.125 C 5.812 5.828 9.156 4.688 12.531 4.688 C 15.789 4.688 18.215 5.473 19.844 7.031 C 21.473 8.59 22.312 10.836 22.313 13.813 C 22.312 17.117 21.203 19.652 19 21.375 C 16.797 23.098 13.516 23.938 9.156 23.938 L 5.469 23.938 L 5.469 27.844 L 9.469 27.844 C 14.273 27.844 17.902 28.75 20.375 30.531 C 22.848 32.313 24.094 34.953 24.094 38.469 C 24.094 40.32 23.742 41.895 23.063 43.219 C 22.383 44.543 21.48 45.645 20.344 46.5 C 19.207 47.356 17.914 47.977 16.438 48.375 C 14.961 48.773 13.406 48.969 11.813 48.969 C 7.945 48.969 4.195 47.727 0.563 45.219 L 0.563 50.188 C 3.703 51.992 7.422 52.875 11.688 52.875 C 14.031 52.875 16.238 52.563 18.313 51.906 C 20.387 51.25 22.203 50.266 23.75 49 C 25.297 47.734 26.516 46.195 27.406 44.344 C 28.297 42.492 28.719 40.359 28.719 37.969 C 28.719 36.188 28.422 34.567 27.813 33.125 C 27.203 31.684 26.367 30.449 25.313 29.406 C 24.258 28.363 23.023 27.527 21.594 26.906 C 20.164 26.285 18.641 25.906 17 25.719 L 17 25.563 C 23.656 23.688 26.969 19.383 26.969 12.656 C 26.969 10.664 26.613 8.926 25.875 7.438 C 25.137 5.949 24.137 4.715 22.906 3.719 C 21.676 2.723 20.266 1.961 18.625 1.469 C 16.984 0.977 15.25 0.75 13.469 0.75 Z " stroke-width="1"/>
    </g>
  </g>
</svg>