<svg version="1.1" width="481.2779572730969" height="73.53905804213984" viewBox="-0.6389786365484361 -0.6389786365484361 481.2779572730969 73.53905804213984" xmlns="http://www.w3.org/2000/svg" xmlns:xlink="http://www.w3.org/1999/xlink">
  <!-- Exported by Scratch - http://scratch.mit.edu/ -->
  <g id="ID0.012586759403347969">
    <g id="Bar">
      <g id="ID0.40083071030676365">
        <path id="ID0.5122079807333648" fill="rgb(52,221,120)" d="M 0 0 L 480 0 L 480 72.2611 L 0 72.2611 L 0 0 Z " stroke-width="1.2779572730968722"/>
      </g>
      <g id="ID0.34699661703780293">
        <path id="ID0.4042379818856716" fill="white" d="M 132.177 11.163 L 135.018 11.163 L 135.018 23.57 C 135.018 25.728 134.774 27.442 134.286 28.711 C 133.798 29.981 132.916 31.014 131.642 31.81 C 130.367 32.605 128.695 33.003 126.625 33.003 C 124.613 33.003 122.968 32.657 121.688 31.963 C 120.409 31.27 119.496 30.267 118.949 28.953 C 118.402 27.64 118.129 25.845 118.129 23.57 L 118.129 11.163 L 120.971 11.163 L 120.971 23.555 C 120.971 25.42 121.144 26.795 121.491 27.679 C 121.837 28.563 122.433 29.244 123.278 29.722 C 124.122 30.201 125.155 30.44 126.376 30.44 C 128.466 30.44 129.955 29.966 130.844 29.019 C 131.732 28.072 132.177 26.251 132.177 23.555 L 132.177 11.163 Z " stroke-width="1"/>
        <path id="ID0.09600519528612494" fill="white" d="M 139.413 38.599 L 139.413 17.081 L 141.815 17.081 L 141.815 19.102 C 142.382 18.311 143.021 17.718 143.734 17.322 C 144.447 16.927 145.311 16.729 146.327 16.729 C 147.655 16.729 148.827 17.071 149.843 17.754 C 150.858 18.438 151.625 19.402 152.142 20.647 C 152.66 21.893 152.919 23.257 152.919 24.742 C 152.919 26.334 152.633 27.767 152.062 29.041 C 151.491 30.315 150.66 31.292 149.572 31.971 C 148.483 32.649 147.338 32.989 146.137 32.989 C 145.258 32.989 144.469 32.803 143.771 32.432 C 143.073 32.061 142.499 31.592 142.05 31.026 L 142.05 38.599 L 139.413 38.599 Z M 141.801 24.947 C 141.801 26.949 142.206 28.428 143.016 29.385 C 143.827 30.342 144.808 30.821 145.961 30.821 C 147.133 30.821 148.136 30.325 148.971 29.334 C 149.806 28.343 150.223 26.807 150.223 24.727 C 150.223 22.745 149.816 21.26 149 20.274 C 148.185 19.288 147.211 18.794 146.078 18.794 C 144.955 18.794 143.961 19.319 143.097 20.369 C 142.233 21.419 141.801 22.945 141.801 24.947 Z " stroke-width="1"/>
        <path id="ID0.9767600889317691" fill="white" d="M 156.039 11.163 L 158.676 11.163 L 158.676 32.638 L 156.039 32.638 L 156.039 11.163 Z " stroke-width="1"/>
        <path id="ID0.10824022581800818" fill="white" d="M 161.781 24.859 C 161.781 21.978 162.582 19.844 164.183 18.458 C 165.521 17.305 167.152 16.729 169.076 16.729 C 171.215 16.729 172.963 17.43 174.32 18.831 C 175.678 20.232 176.356 22.168 176.356 24.639 C 176.356 26.641 176.056 28.216 175.455 29.363 C 174.855 30.511 173.981 31.402 172.833 32.037 C 171.686 32.671 170.433 32.989 169.076 32.989 C 166.898 32.989 165.138 32.291 163.795 30.894 C 162.452 29.498 161.781 27.486 161.781 24.859 Z M 164.491 24.859 C 164.491 26.851 164.926 28.343 165.795 29.334 C 166.664 30.325 167.758 30.821 169.076 30.821 C 170.385 30.821 171.473 30.323 172.343 29.327 C 173.212 28.331 173.646 26.812 173.646 24.771 C 173.646 22.847 173.209 21.39 172.335 20.398 C 171.461 19.407 170.375 18.912 169.076 18.912 C 167.758 18.912 166.664 19.405 165.795 20.391 C 164.926 21.377 164.491 22.867 164.491 24.859 Z " stroke-width="1"/>
        <path id="ID0.15232448186725378" fill="white" d="M 189.598 30.718 C 188.622 31.548 187.682 32.134 186.779 32.476 C 185.875 32.818 184.906 32.989 183.871 32.989 C 182.162 32.989 180.848 32.571 179.93 31.736 C 179.013 30.901 178.554 29.834 178.554 28.536 C 178.554 27.774 178.727 27.078 179.074 26.448 C 179.42 25.818 179.874 25.313 180.436 24.932 C 180.997 24.551 181.63 24.263 182.333 24.068 C 182.85 23.931 183.632 23.799 184.677 23.672 C 186.805 23.418 188.373 23.116 189.379 22.764 C 189.388 22.403 189.393 22.173 189.393 22.076 C 189.393 21.001 189.144 20.245 188.646 19.805 C 187.972 19.209 186.971 18.912 185.643 18.912 C 184.403 18.912 183.488 19.129 182.897 19.563 C 182.306 19.998 181.869 20.767 181.586 21.871 L 179.008 21.519 C 179.242 20.416 179.628 19.524 180.165 18.846 C 180.702 18.167 181.478 17.645 182.494 17.278 C 183.51 16.912 184.686 16.729 186.024 16.729 C 187.352 16.729 188.431 16.885 189.262 17.198 C 190.092 17.51 190.702 17.903 191.093 18.377 C 191.483 18.851 191.757 19.449 191.913 20.171 C 192.001 20.621 192.045 21.431 192.045 22.603 L 192.045 26.119 C 192.045 28.57 192.101 30.12 192.213 30.77 C 192.325 31.419 192.548 32.042 192.88 32.637 L 190.126 32.637 C 189.852 32.09 189.677 31.451 189.598 30.718 Z M 189.379 24.83 C 188.422 25.22 186.986 25.552 185.072 25.826 C 183.988 25.982 183.221 26.158 182.772 26.353 C 182.323 26.548 181.976 26.834 181.732 27.21 C 181.488 27.586 181.366 28.003 181.366 28.462 C 181.366 29.166 181.632 29.751 182.164 30.22 C 182.697 30.689 183.475 30.923 184.501 30.923 C 185.516 30.923 186.42 30.701 187.211 30.257 C 188.002 29.813 188.583 29.205 188.954 28.433 C 189.237 27.837 189.379 26.959 189.379 25.796 L 189.379 24.83 Z " stroke-width="1"/>
        <path id="ID0.6696923710405827" fill="white" d="M 206.224 32.637 L 206.224 30.674 C 205.238 32.217 203.788 32.989 201.874 32.989 C 200.634 32.989 199.493 32.647 198.453 31.963 C 197.413 31.28 196.608 30.325 196.036 29.1 C 195.465 27.874 195.179 26.465 195.179 24.874 C 195.179 23.321 195.438 21.912 195.956 20.647 C 196.473 19.383 197.25 18.414 198.285 17.74 C 199.32 17.066 200.477 16.729 201.757 16.729 C 202.694 16.729 203.529 16.927 204.262 17.322 C 204.994 17.718 205.59 18.233 206.049 18.868 L 206.049 11.163 L 208.671 11.163 L 208.671 32.637 L 206.224 32.637 Z M 197.889 24.874 C 197.889 26.866 198.309 28.355 199.149 29.341 C 199.989 30.328 200.98 30.821 202.123 30.821 C 203.275 30.821 204.254 30.35 205.06 29.407 C 205.866 28.465 206.268 27.027 206.268 25.093 C 206.268 22.964 205.858 21.402 205.038 20.406 C 204.218 19.41 203.207 18.912 202.006 18.912 C 200.834 18.912 199.855 19.39 199.069 20.347 C 198.283 21.304 197.889 22.813 197.889 24.874 Z " stroke-width="1"/>
        <path id="ID0.9707975457422435" fill="white" d="M 236.81 25.108 L 239.652 25.826 C 239.056 28.16 237.985 29.939 236.437 31.165 C 234.889 32.391 232.997 33.003 230.761 33.003 C 228.446 33.003 226.564 32.532 225.114 31.59 C 223.663 30.647 222.56 29.283 221.803 27.496 C 221.046 25.709 220.668 23.79 220.668 21.739 C 220.668 19.502 221.095 17.552 221.95 15.887 C 222.804 14.222 224.02 12.957 225.597 12.093 C 227.174 11.229 228.91 10.796 230.804 10.796 C 232.953 10.796 234.76 11.343 236.224 12.437 C 237.689 13.531 238.71 15.069 239.286 17.051 L 236.488 17.71 C 235.99 16.148 235.267 15.01 234.32 14.297 C 233.373 13.584 232.181 13.228 230.746 13.228 C 229.096 13.228 227.716 13.624 226.608 14.415 C 225.499 15.206 224.721 16.268 224.271 17.601 C 223.822 18.934 223.597 20.308 223.597 21.724 C 223.597 23.55 223.864 25.145 224.396 26.507 C 224.928 27.869 225.756 28.887 226.879 29.561 C 228.002 30.235 229.218 30.572 230.526 30.572 C 232.118 30.572 233.466 30.113 234.569 29.195 C 235.673 28.277 236.42 26.915 236.81 25.108 Z " stroke-width="1"/>
        <path id="ID0.8499882002361119" fill="white" d="M 241.835 24.859 C 241.835 21.978 242.636 19.844 244.237 18.458 C 245.575 17.305 247.206 16.729 249.13 16.729 C 251.268 16.729 253.016 17.43 254.374 18.831 C 255.731 20.232 256.41 22.168 256.41 24.639 C 256.41 26.641 256.11 28.216 255.509 29.363 C 254.909 30.511 254.034 31.402 252.887 32.037 C 251.74 32.671 250.487 32.989 249.13 32.989 C 246.952 32.989 245.192 32.291 243.849 30.894 C 242.506 29.498 241.835 27.486 241.835 24.859 Z M 244.545 24.859 C 244.545 26.851 244.979 28.343 245.848 29.334 C 246.718 30.325 247.811 30.821 249.13 30.821 C 250.438 30.821 251.527 30.323 252.396 29.327 C 253.265 28.331 253.7 26.812 253.7 24.771 C 253.7 22.847 253.263 21.39 252.389 20.398 C 251.515 19.407 250.429 18.912 249.13 18.912 C 247.811 18.912 246.718 19.405 245.848 20.391 C 244.979 21.377 244.545 22.867 244.545 24.859 Z " stroke-width="1"/>
        <path id="ID0.9522494575940073" fill="white" d="M 259.501 32.637 L 259.501 17.081 L 261.859 17.081 L 261.859 19.263 C 262.347 18.501 262.997 17.889 263.807 17.425 C 264.618 16.961 265.541 16.729 266.576 16.729 C 267.728 16.729 268.673 16.968 269.41 17.447 C 270.148 17.925 270.668 18.594 270.971 19.454 C 272.201 17.637 273.803 16.729 275.775 16.729 C 277.318 16.729 278.505 17.156 279.335 18.011 C 280.165 18.865 280.58 20.181 280.58 21.959 L 280.58 32.637 L 277.958 32.637 L 277.958 22.837 C 277.958 21.783 277.872 21.023 277.701 20.56 C 277.531 20.096 277.221 19.722 276.771 19.439 C 276.322 19.156 275.795 19.014 275.189 19.014 C 274.096 19.014 273.187 19.378 272.465 20.105 C 271.742 20.833 271.381 21.998 271.381 23.599 L 271.381 32.637 L 268.744 32.637 L 268.744 22.53 C 268.744 21.358 268.529 20.479 268.099 19.893 C 267.67 19.307 266.967 19.014 265.99 19.014 C 265.248 19.014 264.562 19.209 263.932 19.6 C 263.302 19.991 262.846 20.562 262.562 21.314 C 262.279 22.066 262.138 23.15 262.138 24.566 L 262.138 32.637 L 259.501 32.637 Z " stroke-width="1"/>
        <path id="ID0.31833504140377045" fill="white" d="M 284.491 38.599 L 284.491 17.081 L 286.893 17.081 L 286.893 19.102 C 287.46 18.311 288.099 17.718 288.812 17.322 C 289.525 16.927 290.389 16.729 291.405 16.729 C 292.733 16.729 293.905 17.071 294.921 17.754 C 295.936 18.438 296.703 19.402 297.221 20.647 C 297.738 21.893 297.997 23.257 297.997 24.742 C 297.997 26.334 297.711 27.767 297.14 29.041 C 296.569 30.315 295.739 31.292 294.65 31.971 C 293.561 32.649 292.416 32.989 291.215 32.989 C 290.336 32.989 289.547 32.803 288.849 32.432 C 288.151 32.061 287.577 31.592 287.128 31.026 L 287.128 38.599 L 284.491 38.599 Z M 286.879 24.947 C 286.879 26.949 287.284 28.428 288.095 29.385 C 288.905 30.342 289.887 30.821 291.039 30.821 C 292.211 30.821 293.214 30.325 294.049 29.334 C 294.884 28.343 295.302 26.807 295.302 24.727 C 295.302 22.745 294.894 21.26 294.078 20.274 C 293.263 19.288 292.289 18.794 291.156 18.794 C 290.033 18.794 289.039 19.319 288.175 20.369 C 287.311 21.419 286.879 22.945 286.879 24.947 Z " stroke-width="1"/>
        <path id="ID0.02613691706210375" fill="white" d="M 301.117 11.163 L 303.754 11.163 L 303.754 32.638 L 301.117 32.638 L 301.117 11.163 Z " stroke-width="1"/>
        <path id="ID0.3735447572544217" fill="white" d="M 318.49 27.627 L 321.215 27.964 C 320.785 29.556 319.989 30.792 318.827 31.67 C 317.665 32.549 316.18 32.989 314.374 32.989 C 312.098 32.989 310.294 32.288 308.961 30.887 C 307.628 29.485 306.962 27.52 306.962 24.991 C 306.962 22.374 307.636 20.342 308.983 18.897 C 310.331 17.452 312.079 16.729 314.227 16.729 C 316.307 16.729 318.007 17.437 319.325 18.853 C 320.643 20.269 321.303 22.261 321.303 24.83 C 321.303 24.986 321.298 25.22 321.288 25.533 L 309.686 25.533 C 309.784 27.242 310.267 28.55 311.137 29.459 C 312.006 30.367 313.09 30.821 314.388 30.821 C 315.355 30.821 316.18 30.567 316.864 30.059 C 317.548 29.551 318.09 28.741 318.49 27.627 Z M 309.833 23.365 L 318.519 23.365 C 318.402 22.056 318.07 21.075 317.523 20.42 C 316.683 19.405 315.595 18.897 314.257 18.897 C 313.046 18.897 312.028 19.302 311.202 20.113 C 310.377 20.923 309.921 22.007 309.833 23.365 Z " stroke-width="1"/>
        <path id="ID0.32670126343145967" fill="white" d="M 330.282 30.279 L 330.663 32.608 C 329.921 32.764 329.257 32.842 328.671 32.842 C 327.714 32.842 326.971 32.691 326.444 32.388 C 325.917 32.085 325.546 31.688 325.331 31.194 C 325.116 30.701 325.009 29.664 325.009 28.082 L 325.009 19.131 L 323.075 19.131 L 323.075 17.081 L 325.009 17.081 L 325.009 13.228 L 327.631 11.646 L 327.631 17.081 L 330.282 17.081 L 330.282 19.131 L 327.631 19.131 L 327.631 28.228 C 327.631 28.98 327.677 29.463 327.77 29.678 C 327.863 29.893 328.014 30.064 328.224 30.191 C 328.434 30.318 328.734 30.381 329.125 30.381 C 329.418 30.381 329.804 30.347 330.282 30.279 Z " stroke-width="1"/>
        <path id="ID0.17982811853289604" fill="white" d="M 343.51 27.627 L 346.234 27.964 C 345.804 29.556 345.009 30.792 343.846 31.67 C 342.684 32.549 341.2 32.989 339.393 32.989 C 337.118 32.989 335.314 32.288 333.981 30.887 C 332.648 29.485 331.981 27.52 331.981 24.991 C 331.981 22.374 332.655 20.342 334.003 18.897 C 335.35 17.452 337.098 16.729 339.247 16.729 C 341.327 16.729 343.026 17.437 344.345 18.853 C 345.663 20.269 346.322 22.261 346.322 24.83 C 346.322 24.986 346.317 25.22 346.307 25.533 L 334.706 25.533 C 334.804 27.242 335.287 28.55 336.156 29.459 C 337.025 30.367 338.109 30.821 339.408 30.821 C 340.375 30.821 341.2 30.567 341.884 30.059 C 342.567 29.551 343.109 28.741 343.51 27.627 Z M 334.852 23.365 L 343.539 23.365 C 343.422 22.056 343.09 21.075 342.543 20.42 C 341.703 19.405 340.614 18.897 339.276 18.897 C 338.065 18.897 337.047 19.302 336.222 20.113 C 335.397 20.923 334.94 22.007 334.852 23.365 Z " stroke-width="1"/>
        <path id="ID0.5659275185316801" fill="white" d="M 359.638 32.637 L 359.638 30.674 C 358.651 32.217 357.201 32.989 355.287 32.989 C 354.047 32.989 352.907 32.647 351.867 31.963 C 350.826 31.28 350.021 30.325 349.45 29.1 C 348.878 27.874 348.593 26.465 348.593 24.874 C 348.593 23.321 348.851 21.912 349.369 20.647 C 349.887 19.383 350.663 18.414 351.698 17.74 C 352.733 17.066 353.89 16.729 355.17 16.729 C 356.107 16.729 356.942 16.927 357.675 17.322 C 358.407 17.718 359.003 18.233 359.462 18.868 L 359.462 11.163 L 362.084 11.163 L 362.084 32.637 L 359.638 32.637 Z M 351.303 24.874 C 351.303 26.866 351.722 28.355 352.562 29.341 C 353.402 30.328 354.393 30.821 355.536 30.821 C 356.688 30.821 357.667 30.35 358.473 29.407 C 359.279 28.465 359.681 27.027 359.681 25.093 C 359.681 22.964 359.271 21.402 358.451 20.406 C 357.631 19.41 356.62 18.912 355.419 18.912 C 354.247 18.912 353.268 19.39 352.482 20.347 C 351.696 21.304 351.303 22.813 351.303 24.874 Z " stroke-width="1"/>
      </g>
    </g>
  </g>
<defs/></svg>