<svg version="1.1" width="23.393999099731445" height="23.394001007080078" viewBox="0.35600000619888306 -0.07199999690055847 23.393999099731445 23.394001007080078" xmlns="http://www.w3.org/2000/svg" xmlns:xlink="http://www.w3.org/1999/xlink">
  <!-- Exported by Scratch - http://scratch.mit.edu/ -->
  <g id="HOME Button">
    <path id="ID0.3504685331135988" fill="#fff" d="M 12.053 0.428 C 15.142 0.428 17.941 1.683 19.968 3.710 C 21.995 5.737 23.250 8.536 23.250 11.625 C 23.250 14.714 21.995 17.513 19.968 19.540 C 17.941 21.567 15.142 22.822 12.053 22.822 C 8.964 22.822 6.165 21.567 4.138 19.540 C 2.111 17.513 0.856 14.714 0.856 11.625 C 0.856 8.536 2.111 5.737 4.138 3.710 C 6.165 1.683 8.964 0.428 12.053 0.428 Z " stroke-width="1"/>
    <path id="ID0.4036179082468152" fill="#6FD57E" d="M 9.693 17.005 L 9.693 13.382 L 12.108 13.382 L 12.108 17.005 L 15.127 17.005 L 15.127 12.175 L 16.938 12.175 L 10.900 6.741 L 4.863 12.175 L 6.674 12.175 L 6.674 17.005 L 9.693 17.005 Z " stroke-width="1"/>
    <path id="ID0.9086005492135882" fill="#6FD57E" d="M 17.654 6.736 C 16.982 6.118 16.142 5.808 15.297 5.785 L 15.224 4.031 L 13.123 6.315 L 15.406 8.416 L 15.333 6.652 C 15.956 6.682 16.574 6.913 17.071 7.370 C 17.969 8.197 18.193 9.486 17.715 10.540 L 18.498 10.896 C 19.124 9.508 18.834 7.822 17.654 6.736 Z " stroke-width="1"/>
  </g>
</svg>