<svg version="1.1" width="20.187000274658203" height="69.43800354003906" viewBox="-0.15599998831748962 0 20.187000274658203 69.43800354003906" xmlns="http://www.w3.org/2000/svg" xmlns:xlink="http://www.w3.org/1999/xlink">
  <!-- Exported by Scratch - http://scratch.mit.edu/ -->
  <g id="ID0.9086221535690129">
    <g id="layer1">
      <path id="path3158" fill="#666666" stroke="none" d="M 16.25 0.5 C 15.383 0.5 14.633 0.809 14 1.406 C 13.367 2.004 13.062 2.742 13.063 3.656 C 13.062 4.594 13.367 5.359 14 5.969 C 14.633 6.578 15.383 6.906 16.25 6.906 C 16.719 6.906 17.176 6.82 17.563 6.656 C 17.949 6.492 18.289 6.262 18.594 5.969 C 18.898 5.676 19.117 5.336 19.281 4.938 C 19.445 4.539 19.531 4.102 19.531 3.656 C 19.531 3.188 19.457 2.762 19.281 2.375 C 19.105 1.988 18.855 1.656 18.563 1.375 C 18.27 1.094 17.93 0.871 17.531 0.719 C 17.133 0.566 16.695 0.5 16.25 0.5 Z M 14.063 16 L 14.063 51.5 C 14.062 60.5 11.203 65 5.531 65 C 3.891 65 2.172 64.484 0.344 63.406 L 0.344 67.75 C 2.008 68.547 3.672 68.938 5.312 68.938 C 9.93 68.938 13.266 67.406 15.375 64.313 C 17.484 61.219 18.562 56.703 18.563 50.75 L 18.563 16 L 14.063 16 Z " stroke-width="1"/>
    </g>
  </g>
</svg>