<svg version="1.1" width="21" height="21" viewBox="-0.5 -0.5 21 21" xmlns="http://www.w3.org/2000/svg" xmlns:xlink="http://www.w3.org/1999/xlink">
  <!-- Exported by Scratch - http://scratch.mit.edu/ -->
  <g id="ID0.11018816335126758">
    <g id="ID0.4052206724882126">
      <g id="Next Song">
        <g id="ID0.5444043655879796">
          <path id="ID0.4477189010940492" fill="white" d="M 10 0 C 12.759 0 15.259 1.121 17.069 2.931 C 18.879 4.741 20 7.241 20 10 C 20 12.759 18.879 15.259 17.069 17.069 C 15.259 18.879 12.759 20 10 20 C 7.241 20 4.741 18.879 2.931 17.069 C 1.121 15.259 0 12.759 0 10 C 0 7.241 1.121 4.741 2.931 2.931 C 4.741 1.121 7.241 0 10 0 Z " stroke-width="1"/>
        </g>
        <g id="ID0.6614338853396475">
          <path id="ID0.5332614569924772" fill="rgb(101,168,231)" d="M 15.0001 10 L 10.0001 13 L 10.0001 7 L 15.0001 10 Z " stroke-width="0.9204466075295951"/>
        </g>
      </g>
    </g>
  </g>
<defs/></svg>