<svg version="1.1" width="23.3439998626709" height="38.68800354003906" viewBox="-0.5 -0.3439999967813492 23.3439998626709 38.68800354003906" xmlns="http://www.w3.org/2000/svg" xmlns:xlink="http://www.w3.org/1999/xlink">
  <!-- Exported by Scratch - http://scratch.mit.edu/ -->
  <g id="ID0.17151792580261827">
    <g id="layer1">
      <path id="path3302" fill="#666666" stroke="none" d="M 12.844 0.156 C 11.156 0.156 9.535 0.387 8 0.844 C 6.465 1.301 5.109 1.977 3.938 2.844 C 2.766 3.711 1.848 4.758 1.156 6 C 0.465 7.242 0.125 8.656 0.125 10.25 C 0.125 11.516 0.312 12.629 0.688 13.625 C 1.062 14.621 1.633 15.543 2.406 16.375 C 3.18 17.207 4.148 17.984 5.344 18.688 C 6.539 19.391 7.992 20.07 9.656 20.75 C 10.898 21.266 12.016 21.781 13 22.25 C 13.984 22.719 14.797 23.199 15.5 23.75 C 16.203 24.301 16.75 24.926 17.125 25.594 C 17.5 26.262 17.687 27.055 17.688 27.969 C 17.687 31.977 15.031 33.969 9.688 33.969 C 8.914 33.969 8.105 33.902 7.25 33.75 C 6.395 33.598 5.531 33.367 4.688 33.063 C 3.844 32.758 3.016 32.391 2.219 31.969 C 1.422 31.547 0.68 31.07 0 30.531 L 0 35.563 C 2.484 37.086 5.555 37.844 9.188 37.844 C 11.062 37.844 12.781 37.633 14.375 37.188 C 15.969 36.742 17.379 36.086 18.563 35.219 C 19.746 34.352 20.676 33.266 21.344 32 C 22.012 30.734 22.344 29.305 22.344 27.688 C 22.344 26.375 22.148 25.215 21.75 24.219 C 21.352 23.223 20.727 22.309 19.906 21.5 C 19.086 20.692 18.047 19.942 16.781 19.25 C 15.516 18.559 14.016 17.891 12.281 17.188 C 10.922 16.625 9.762 16.086 8.813 15.594 C 7.863 15.102 7.098 14.57 6.5 14.031 C 5.902 13.492 5.469 12.887 5.188 12.219 C 4.906 11.551 4.75 10.797 4.75 9.906 C 4.75 9.039 4.949 8.246 5.313 7.531 C 5.676 6.816 6.187 6.203 6.844 5.688 C 7.5 5.172 8.293 4.75 9.219 4.469 C 10.145 4.188 11.156 4.063 12.281 4.063 C 15.398 4.063 18.305 4.922 21 6.656 L 21 1.906 C 18.68 0.734 15.961 0.156 12.844 0.156 Z " stroke-width="1"/>
    </g>
  </g>
</svg>