<svg version="1.1" width="32.4060001373291" height="51.40599822998047" viewBox="0.218999981880188 0.09399998188018799 32.4060001373291 51.40599822998047" xmlns="http://www.w3.org/2000/svg" xmlns:xlink="http://www.w3.org/1999/xlink">
  <!-- Exported by Scratch - http://scratch.mit.edu/ -->
  <g id="ID0.6693720654584467">
    <g id="layer1">
      <path id="path3106" fill="#666666" stroke="none" d="M 0.719 0.594 L 0.719 4.656 L 26.594 4.656 C 24.414 8.5 22.324 12.406 20.344 16.344 C 18.363 20.281 16.594 24.211 15 28.125 C 13.406 32.039 12.023 35.906 10.875 39.75 C 9.727 43.594 8.875 47.344 8.313 51 L 13.063 51 C 13.484 48.305 13.996 45.68 14.594 43.125 C 15.191 40.57 15.879 38.039 16.688 35.531 C 17.496 33.023 18.406 30.5 19.438 27.969 C 20.469 25.438 21.629 22.82 22.906 20.125 C 24.184 17.43 25.59 14.625 27.125 11.719 C 28.66 8.813 30.32 5.758 32.125 2.5 L 32.125 0.594 L 0.719 0.594 Z " stroke-width="1"/>
    </g>
  </g>
</svg>