<svg version="1.1" width="49.25" height="37" viewBox="-0.18700000643730164 -0.5 49.25 37" xmlns="http://www.w3.org/2000/svg" xmlns:xlink="http://www.w3.org/1999/xlink">
  <!-- Exported by Scratch - http://scratch.mit.edu/ -->
  <g id="ID0.16545797931030393">
    <g id="layer1">
      <path id="path3361" fill="#666666" stroke="none" d="M 0.313 0 L 11.188 36 L 15.594 36 L 24 9.5 C 24.234 8.797 24.395 8.172 24.5 7.656 C 24.605 7.141 24.703 6.727 24.75 6.375 L 24.875 6.375 C 25.016 7.688 25.203 8.742 25.438 9.563 L 33.063 36 L 37.563 36 L 48.563 0 L 44.031 0 L 36.125 27.938 C 35.937 28.57 35.805 29.16 35.688 29.688 C 35.57 30.215 35.508 30.695 35.531 31.094 L 35.25 31.094 C 35.109 29.805 34.93 28.734 34.719 27.938 L 26.906 0 L 23.188 0 L 14.469 27.875 C 14.281 28.484 14.137 29.055 14.031 29.594 C 13.926 30.133 13.859 30.609 13.813 31.031 L 13.531 31.031 C 13.437 29.766 13.266 28.727 13.031 27.906 L 5.125 0 L 0.313 0 Z " stroke-width="1"/>
    </g>
  </g>
</svg>