<svg version="1.1" width="57.5" height="58.8120002746582" viewBox="-0.281000018119812 0.31300002336502075 57.5 58.8120002746582" xmlns="http://www.w3.org/2000/svg" xmlns:xlink="http://www.w3.org/1999/xlink">
  <!-- Exported by Scratch - http://scratch.mit.edu/ -->
  <g id="ID0.31383197382092476">
    <g id="layer1">
      <path id="path3291" fill="#666666" stroke="none" d="M 29.313 0.813 C 26.406 0.813 23.66 1.16 21.094 1.875 C 18.527 2.59 16.156 3.617 14 4.906 C 11.844 6.195 9.918 7.746 8.219 9.563 C 6.52 11.379 5.09 13.391 3.906 15.594 C 2.723 17.797 1.82 20.137 1.188 22.656 C 0.555 25.176 0.219 27.813 0.219 30.531 C 0.219 34.633 0.91 38.398 2.281 41.844 C 3.652 45.289 5.59 48.266 8.063 50.75 C 10.535 53.234 13.5 55.148 16.969 56.531 C 20.437 57.914 24.273 58.625 28.469 58.625 C 34.352 58.625 39.43 57.719 43.719 55.938 L 43.719 52.094 C 39.594 54.086 34.625 55.094 28.813 55.094 C 25.062 55.094 21.668 54.508 18.656 53.313 C 15.645 52.117 13.07 50.418 10.938 48.25 C 8.805 46.082 7.18 43.473 6.031 40.438 C 4.883 37.402 4.312 34.063 4.313 30.406 C 4.312 27.945 4.586 25.594 5.125 23.344 C 5.664 21.094 6.43 18.996 7.438 17.063 C 8.445 15.129 9.672 13.383 11.125 11.813 C 12.578 10.242 14.234 8.895 16.063 7.781 C 17.891 6.668 19.863 5.828 22.031 5.219 C 24.199 4.609 26.539 4.281 29 4.281 C 32.516 4.281 35.719 4.801 38.625 5.844 C 41.531 6.887 44.019 8.387 46.094 10.344 C 48.168 12.301 49.769 14.672 50.906 17.438 C 52.043 20.203 52.625 23.305 52.625 26.75 C 52.625 27.758 52.547 28.852 52.406 30 C 52.266 31.148 52.043 32.281 51.75 33.406 C 51.457 34.531 51.055 35.613 50.563 36.656 C 50.07 37.699 49.473 38.609 48.781 39.406 C 48.09 40.203 47.301 40.844 46.375 41.313 C 45.449 41.781 44.383 42.031 43.188 42.031 C 40 42.031 38.406 39.531 38.406 34.563 L 40.125 14.406 L 36.406 14.406 L 36.063 18.531 L 35.906 18.531 C 35.625 17.781 35.234 17.105 34.719 16.531 C 34.203 15.957 33.625 15.48 32.969 15.094 C 32.312 14.707 31.594 14.418 30.844 14.219 C 30.094 14.02 29.344 13.938 28.594 13.938 C 26.906 13.938 25.363 14.172 23.969 14.688 C 22.574 15.203 21.328 15.91 20.25 16.813 C 19.172 17.715 18.234 18.793 17.438 20 C 16.641 21.207 16.016 22.473 15.5 23.844 C 14.984 25.215 14.57 26.648 14.313 28.125 C 14.055 29.602 13.937 31.063 13.938 32.469 C 13.937 34.25 14.168 35.938 14.625 37.531 C 15.082 39.125 15.766 40.484 16.656 41.656 C 17.547 42.828 18.664 43.777 20 44.469 C 21.336 45.16 22.867 45.5 24.625 45.5 C 29.5 45.5 32.891 42.703 34.813 37.125 L 34.969 37.125 C 35.18 42.703 37.844 45.5 43 45.5 C 44.641 45.5 46.144 45.219 47.469 44.656 C 48.793 44.094 49.961 43.336 50.969 42.375 C 51.977 41.414 52.836 40.297 53.563 39.031 C 54.289 37.766 54.875 36.418 55.344 35 C 55.812 33.582 56.152 32.152 56.375 30.688 C 56.598 29.223 56.719 27.797 56.719 26.438 C 56.719 23.883 56.394 21.5 55.75 19.25 C 55.105 17 54.195 14.898 53 13 C 51.805 11.102 50.383 9.418 48.719 7.906 C 47.055 6.395 45.184 5.105 43.156 4.063 C 41.129 3.02 38.969 2.219 36.625 1.656 C 34.281 1.094 31.844 0.813 29.313 0.813 Z M 28.5 17.406 C 30.656 17.406 32.289 18.07 33.438 19.406 C 34.586 20.742 35.187 22.719 35.188 25.344 C 35.187 26.422 35.098 27.602 34.969 28.844 C 34.84 30.086 34.617 31.301 34.313 32.531 C 34.008 33.762 33.617 34.957 33.125 36.094 C 32.633 37.23 32.019 38.227 31.281 39.094 C 30.543 39.961 29.684 40.66 28.688 41.188 C 27.691 41.715 26.531 41.969 25.219 41.969 C 24.117 41.969 23.129 41.758 22.25 41.313 C 21.371 40.867 20.621 40.238 20 39.406 C 19.379 38.574 18.891 37.539 18.563 36.344 C 18.234 35.148 18.094 33.82 18.094 32.344 C 18.094 30.609 18.281 28.863 18.656 27.094 C 19.031 25.324 19.637 23.723 20.469 22.281 C 21.301 20.84 22.363 19.652 23.688 18.75 C 25.012 17.848 26.625 17.406 28.5 17.406 Z " stroke-width="1"/>
    </g>
  </g>
</svg>