<svg version="1.1" width="24.92799949645996" height="24.92799949645996" viewBox="-0.5 -0.5 24.92799949645996 24.92799949645996" xmlns="http://www.w3.org/2000/svg" xmlns:xlink="http://www.w3.org/1999/xlink">
  <!-- Exported by Scratch - http://scratch.mit.edu/ -->
  <g id="ID0.5874601728282869">
    <g id="ID0.9701243620365858">
      <path id="ID0.608890769071877" fill="#def0ff" d="M 0 0 L 23.928 0 L 23.928 23.928 L 0 23.928 L 0 0 Z " stroke-width="1"/>
      <path id="ID0.1752308807335794" fill="#cae6ff" d="M 23.928 23.928 L 0 23.928 L 0 0 L 23.928 0 L 23.928 23.928 Z M 1.389 1.389 L 1.389 22.539 L 22.539 22.539 L 22.539 1.389 L 1.389 1.389 Z " stroke-width="1"/>
    </g>
    <g id="ID0.3874462037347257">
      <path id="ID0.9296556445769966" fill="#f1fbfe" d="M 5.733 3.906 C 5.733 3.906 5.733 3.906 5.732 3.906 C 5.619 3.906 5.551 3.863 5.726 3.737 C 5.727 3.736 5.729 3.735 5.730 3.734 C 5.745 3.734 5.758 3.734 5.772 3.734 C 5.822 3.734 5.864 3.736 5.899 3.739 C 5.891 3.741 5.883 3.743 5.875 3.745 C 5.924 3.753 5.971 3.767 6.014 3.767 C 6.016 3.767 6.019 3.767 6.021 3.767 C 6.022 3.767 6.022 3.767 6.023 3.768 C 6.028 3.776 6.033 3.786 6.037 3.798 C 6.037 3.798 5.988 3.847 5.915 3.878 C 5.914 3.878 5.914 3.879 5.913 3.879 C 5.911 3.879 5.908 3.880 5.906 3.881 C 5.906 3.881 5.906 3.881 5.905 3.881 C 5.852 3.896 5.788 3.906 5.733 3.906 C 5.733 3.906 5.733 3.906 5.733 3.906 Z M 5.811 3.738 C 5.788 3.738 5.765 3.741 5.743 3.749 C 5.758 3.756 5.774 3.759 5.791 3.759 C 5.818 3.759 5.847 3.752 5.875 3.745 C 5.854 3.741 5.832 3.738 5.811 3.738 Z " stroke-width="1"/>
      <path id="ID0.41702036559581757" fill="#f1fbfe" d="M 18.291 7.286 C 18.273 7.281 18.255 7.277 18.238 7.273 C 18.425 7.234 18.534 7.209 18.542 7.201 C 18.599 7.195 18.609 7.193 18.689 7.186 C 18.705 7.186 18.721 7.186 18.737 7.186 C 18.728 7.190 18.718 7.193 18.709 7.197 C 18.570 7.228 18.430 7.257 18.291 7.286 Z " stroke-width="1"/>
      <path id="ID0.7885492839850485" fill="#f1fbfe" d="M 4.175 12.638 C 4.090 12.638 4.012 12.604 3.937 12.560 C 4.013 12.585 4.091 12.622 4.180 12.622 C 4.216 12.622 4.254 12.616 4.294 12.599 C 4.298 12.602 4.301 12.605 4.304 12.608 C 4.303 12.610 4.301 12.612 4.300 12.614 C 4.257 12.630 4.215 12.638 4.175 12.638 Z M 3.845 12.502 C 3.839 12.498 3.833 12.494 3.827 12.490 C 3.848 12.474 3.869 12.462 3.889 12.453 C 3.873 12.465 3.858 12.481 3.845 12.502 Z " stroke-width="1"/>
      <path id="ID0.006916186306625605" fill="#f1fbfe" d="M 16.968 7.532 C 17.059 7.516 17.150 7.500 17.241 7.484 C 17.150 7.504 17.059 7.519 16.968 7.532 Z " stroke-width="1"/>
      <path id="ID0.9513489352539182" fill="#f1fbfe" d="M 16.105 7.776 C 15.957 7.776 15.859 7.776 15.712 7.776 C 15.767 7.757 15.823 7.741 15.879 7.724 C 15.903 7.725 15.927 7.726 15.952 7.726 C 16.006 7.727 16.055 7.727 16.105 7.776 Z " stroke-width="1"/>
      <path id="ID0.6050226502120495" fill="#f1fbfe" d="M 4.318 12.588 C 4.258 12.543 4.195 12.500 4.131 12.458 C 4.208 12.494 4.279 12.549 4.318 12.588 Z " stroke-width="1"/>
      <path id="ID0.01319181639701128" fill="#f1fbfe" d="M 16.007 3.012 C 15.992 2.994 15.975 2.976 15.957 2.960 C 15.961 2.881 15.984 2.855 16.016 2.855 C 16.041 2.855 16.071 2.871 16.103 2.890 C 16.085 2.927 16.069 2.965 16.054 3.004 C 16.039 3.007 16.023 3.010 16.007 3.012 Z M 16.081 2.999 C 16.121 2.982 16.160 2.965 16.200 2.948 C 16.219 2.957 16.236 2.963 16.252 2.963 C 16.195 2.976 16.138 2.988 16.081 2.999 Z " stroke-width="1"/>
      <path id="ID0.2094200672581792" fill="#f1fbfe" d="M 19.423 12.935 C 19.414 12.933 19.405 12.932 19.395 12.932 L 19.444 12.932 C 19.437 12.933 19.430 12.934 19.423 12.935 Z " stroke-width="1"/>
      <path id="ID0.07265006611123681" fill="#f1fbfe" d="M 4.180 12.622 C 4.091 12.622 4.013 12.585 3.937 12.560 C 3.900 12.548 3.864 12.539 3.827 12.539 C 3.833 12.526 3.839 12.513 3.845 12.502 C 3.858 12.481 3.873 12.465 3.889 12.453 C 3.918 12.430 3.952 12.421 3.988 12.421 C 4.034 12.421 4.083 12.436 4.131 12.458 C 4.195 12.500 4.258 12.543 4.318 12.588 C 4.310 12.592 4.302 12.596 4.294 12.599 C 4.254 12.616 4.216 12.622 4.180 12.622 Z " stroke-width="1"/>
      <path id="ID0.029137144330888987" fill="#f1fbfe" d="M 3.334 13.593 C 3.316 13.581 3.299 13.569 3.281 13.557 C 3.304 13.539 3.328 13.523 3.352 13.506 C 3.435 13.453 3.527 13.403 3.623 13.357 C 3.529 13.439 3.433 13.518 3.334 13.593 Z " stroke-width="1"/>
      <path id="ID0.3740841574035585" fill="#f1fbfe" d="M 3.354 12.012 C 3.348 11.959 3.327 11.911 3.298 11.866 C 3.302 11.865 3.305 11.864 3.308 11.863 C 3.356 11.913 3.406 11.959 3.459 12.003 C 3.424 12.006 3.389 12.009 3.354 12.012 Z M 3.196 11.737 C 3.192 11.733 3.189 11.729 3.186 11.726 L 3.190 11.725 C 3.193 11.729 3.196 11.733 3.198 11.736 C 3.197 11.737 3.196 11.737 3.196 11.737 Z " stroke-width="1"/>
      <path id="ID0.7486596717499197" fill="#f1fbfe" d="M 14.831 13.769 C 14.764 13.555 14.817 13.319 14.974 13.160 C 15.007 13.181 15.041 13.203 15.073 13.227 C 15.172 13.374 15.221 13.571 15.024 13.669 C 14.960 13.712 14.895 13.745 14.831 13.769 Z " stroke-width="1"/>
      <path id="ID0.42434656899422407" fill="#f1fbfe" d="M 21.948 13.976 C 21.948 13.976 21.948 13.976 21.948 13.976 C 21.948 13.976 21.948 13.976 21.948 13.976 Z M 21.948 13.975 C 21.948 13.975 21.948 13.975 21.948 13.975 C 21.948 13.975 21.948 13.975 21.948 13.975 Z M 21.948 13.974 C 21.948 13.974 21.948 13.973 21.948 13.973 C 21.948 13.973 21.948 13.974 21.948 13.974 Z M 21.948 13.972 C 21.948 13.972 21.948 13.972 21.949 13.971 C 21.948 13.972 21.948 13.972 21.948 13.972 Z M 21.949 13.971 C 21.949 13.971 21.949 13.970 21.949 13.970 C 21.949 13.970 21.949 13.971 21.949 13.971 Z M 21.949 13.969 C 21.949 13.969 21.949 13.969 21.949 13.968 C 21.949 13.969 21.949 13.969 21.949 13.969 Z M 21.949 13.968 C 21.949 13.967 21.949 13.967 21.949 13.967 C 21.949 13.967 21.949 13.967 21.949 13.968 Z M 21.949 13.966 C 21.949 13.966 21.949 13.966 21.949 13.965 C 21.949 13.966 21.949 13.966 21.949 13.966 Z M 21.949 13.965 C 21.949 13.964 21.949 13.964 21.949 13.964 C 21.949 13.964 21.949 13.964 21.949 13.965 Z " stroke-width="1"/>
      <path id="ID0.9500433499924839" fill="#f1fbfe" d="M 19.707 14.208 C 19.731 14.191 19.756 14.175 19.783 14.159 C 19.758 14.177 19.732 14.194 19.707 14.208 Z " stroke-width="1"/>
      <path id="ID0.3347233599051833" fill="#f1fbfe" d="M 18.626 6.113 C 18.084 6.059 17.433 6.111 16.882 6.041 C 16.965 6.043 17.049 6.044 17.133 6.044 C 17.238 6.044 17.344 6.043 17.450 6.041 C 17.556 6.039 17.661 6.038 17.766 6.038 C 18.060 6.038 18.350 6.051 18.626 6.113 Z " stroke-width="1"/>
      <path id="ID0.7084015137515962" fill="#f1fbfe" d="M 19.486 21.065 C 19.153 20.921 18.807 20.792 18.810 20.406 C 18.946 20.307 19.094 20.208 19.209 20.115 C 19.690 19.660 20.279 19.415 20.785 19.037 C 21.013 18.890 21.195 18.741 21.352 18.584 C 21.579 18.356 21.777 18.106 21.933 17.824 C 22.379 17.992 21.662 19.458 21.259 19.964 C 21.057 20.217 20.789 20.482 20.239 20.729 C 20.023 20.815 19.808 20.899 19.596 20.986 C 19.567 21.012 19.526 21.039 19.486 21.065 Z M 13.492 18.588 C 13.505 18.411 13.406 18.199 13.158 17.941 C 12.903 17.699 12.576 17.507 12.202 17.362 C 12.968 17.408 13.691 17.590 14.304 18.063 C 14.081 18.163 13.866 18.274 13.684 18.398 C 13.610 18.450 13.548 18.516 13.492 18.588 Z M 14.570 17.949 C 14.588 17.896 14.610 17.845 14.634 17.794 C 14.759 17.794 14.884 17.792 15.008 17.788 C 14.901 17.821 14.807 17.856 14.715 17.891 C 14.666 17.910 14.618 17.929 14.570 17.949 Z M 14.635 17.793 C 14.739 17.579 14.891 17.382 15.024 17.205 C 14.926 17.205 14.779 17.205 14.680 17.156 C 14.784 17.118 14.887 17.085 14.991 17.055 C 14.994 17.055 14.998 17.055 15.002 17.055 C 15.146 17.055 15.292 17.057 15.437 17.060 C 15.605 17.063 15.773 17.068 15.936 17.072 C 16.099 17.076 16.257 17.079 16.405 17.080 C 16.413 17.076 16.421 17.074 16.430 17.074 C 16.462 17.074 16.497 17.099 16.532 17.105 C 16.209 17.171 15.885 17.237 15.564 17.303 C 15.908 17.254 16.252 17.205 16.547 17.106 C 16.542 17.106 16.537 17.106 16.532 17.105 C 16.670 17.077 16.807 17.049 16.944 17.021 C 17.062 17.049 17.180 17.071 17.299 17.088 C 17.295 17.104 17.294 17.118 17.302 17.131 C 17.312 17.146 17.336 17.159 17.381 17.172 C 17.405 17.186 17.437 17.198 17.480 17.205 C 17.931 17.303 18.367 17.346 18.796 17.372 C 17.538 17.546 16.285 17.753 15.008 17.788 C 15.043 17.777 15.080 17.766 15.119 17.756 C 15.390 17.691 15.661 17.631 15.932 17.576 C 16.068 17.549 16.204 17.523 16.340 17.498 C 16.376 17.482 16.405 17.472 16.432 17.465 C 16.487 17.460 16.541 17.454 16.596 17.450 C 16.530 17.450 16.486 17.451 16.432 17.465 C 15.808 17.524 15.221 17.658 14.635 17.793 Z M 8.323 17.189 C 8.348 17.128 8.353 17.052 8.329 16.959 C 8.313 16.935 8.294 16.910 8.274 16.884 C 8.387 16.909 8.499 16.931 8.612 16.952 C 8.900 16.856 9.187 16.759 9.452 16.609 C 9.467 16.566 9.381 16.530 9.296 16.490 C 9.016 16.445 8.738 16.392 8.462 16.331 C 8.472 16.328 8.482 16.324 8.493 16.321 C 8.738 16.223 8.493 15.830 8.493 15.584 C 8.493 15.388 8.603 15.253 8.757 15.148 C 8.897 15.053 9.072 14.983 9.199 14.911 C 9.339 15.042 9.500 15.208 9.475 15.388 C 9.475 15.486 9.377 15.584 9.229 15.584 C 9.082 15.633 9.033 15.744 9.051 15.860 C 9.070 15.977 9.156 16.100 9.278 16.173 C 9.438 16.265 9.627 16.355 9.855 16.443 C 10.083 16.531 10.348 16.618 10.660 16.704 C 10.815 16.722 10.968 16.753 11.120 16.792 C 11.171 16.805 11.221 16.818 11.272 16.832 C 10.404 16.905 9.531 16.957 8.648 16.959 C 8.746 16.976 8.843 16.992 8.941 17.007 C 8.999 17.015 9.058 17.024 9.116 17.031 C 8.840 17.045 8.573 17.085 8.323 17.189 Z M 8.612 16.952 C 8.605 16.954 8.598 16.957 8.591 16.959 C 8.610 16.959 8.629 16.959 8.648 16.959 C 8.636 16.957 8.624 16.954 8.612 16.952 Z M 17.354 17.151 C 17.328 17.134 17.313 17.113 17.307 17.089 C 17.312 17.090 17.318 17.090 17.323 17.091 C 17.318 17.064 17.322 17.034 17.331 17.003 C 17.377 16.993 17.407 16.967 17.421 16.925 C 18.489 16.710 19.560 16.500 20.603 16.302 C 20.686 16.282 20.759 16.264 20.824 16.248 C 20.925 16.244 21.021 16.220 21.114 16.173 C 21.022 16.196 20.932 16.220 20.824 16.248 C 20.815 16.248 20.805 16.248 20.796 16.248 C 20.691 16.248 20.581 16.226 20.464 16.182 C 20.619 16.100 20.770 16.051 20.893 16.002 C 21.016 15.952 21.114 15.903 21.114 15.830 C 21.080 15.494 20.909 15.182 20.742 14.861 C 20.751 14.863 20.760 14.864 20.770 14.864 C 20.786 14.864 20.803 14.861 20.819 14.854 C 20.943 14.895 21.080 14.934 21.220 14.971 C 21.703 14.995 21.359 15.388 21.458 15.584 C 21.703 16.075 22.353 16.815 22.044 16.828 C 21.963 16.832 21.882 16.833 21.802 16.833 C 21.718 16.833 21.634 16.832 21.550 16.829 C 21.477 16.826 21.404 16.825 21.331 16.825 C 20.779 16.825 20.218 16.902 19.656 16.978 C 19.094 17.055 18.531 17.132 17.978 17.132 C 17.758 17.132 17.540 17.120 17.323 17.091 C 17.327 17.113 17.336 17.134 17.354 17.151 Z M 17.338 16.980 C 17.342 16.966 17.347 16.953 17.353 16.939 C 17.371 16.935 17.389 16.932 17.407 16.928 C 17.388 16.948 17.364 16.965 17.338 16.980 Z " stroke-width="1"/>
      <path id="ID0.7258788701146841" fill="#DEF0FF" d="M 3.748 22.481 C 3.820 22.586 3.260 22.352 3.478 22.187 C 3.577 22.285 3.666 22.383 3.748 22.481 Z M 5.006 22.410 C 4.900 22.459 4.623 22.166 4.568 21.990 C 4.542 21.888 4.523 21.788 4.512 21.689 C 4.789 21.775 5.059 21.868 5.251 22.116 C 5.399 22.214 5.153 22.312 5.006 22.410 Z M 3.368 22.082 C 2.140 21.968 2.284 21.662 2.704 21.551 C 2.773 21.605 2.842 21.659 2.908 21.714 C 3.078 21.833 3.231 21.957 3.368 22.082 Z M 2.254 18.260 C 2.224 18.283 2.297 17.974 2.353 17.855 C 2.441 17.667 2.444 17.455 2.328 17.212 C 2.500 17.169 2.667 17.132 2.796 17.106 C 2.787 17.088 2.779 17.070 2.773 17.053 C 2.788 17.060 2.804 17.066 2.819 17.070 C 2.811 17.082 2.803 17.094 2.796 17.106 C 2.804 17.095 2.813 17.083 2.821 17.071 C 2.835 17.076 2.849 17.079 2.861 17.082 C 2.950 17.016 3.004 16.924 3.052 16.827 C 3.232 16.870 3.430 16.907 3.670 16.947 C 4.648 17.043 5.676 17.329 6.692 17.436 C 6.960 17.464 7.226 17.480 7.451 17.480 C 7.510 17.480 7.567 17.479 7.619 17.476 C 7.693 17.470 7.783 17.461 7.875 17.445 C 7.743 17.557 7.623 17.697 7.461 17.794 C 7.444 17.811 7.439 17.822 7.442 17.830 C 7.410 17.821 7.374 17.811 7.343 17.811 C 7.331 17.811 7.319 17.813 7.308 17.817 C 7.067 17.808 6.737 17.786 6.407 17.756 C 5.604 17.683 4.802 17.563 3.985 17.563 C 3.795 17.563 3.603 17.569 3.411 17.585 C 3.278 17.642 3.113 17.713 2.936 17.794 C 2.820 17.868 2.707 17.944 2.597 18.021 C 2.487 18.099 2.376 18.179 2.254 18.260 Z M 2.257 17.085 C 2.242 17.060 2.238 16.611 2.649 16.714 C 2.655 16.716 2.661 16.718 2.668 16.720 C 2.537 16.846 2.401 16.969 2.257 17.085 Z " stroke-width="1"/>
      <path id="ID0.397558749653399" fill="#f1fbfe" d="M 19.783 14.159 C 19.886 14.085 19.984 13.986 20.033 13.878 C 20.095 13.743 20.083 13.595 19.936 13.472 C 19.845 13.341 19.743 13.238 19.653 13.158 C 19.550 13.131 19.543 12.958 19.423 12.935 C 19.430 12.934 19.437 12.933 19.444 12.932 L 19.395 12.932 C 19.405 12.932 19.414 12.933 19.423 12.935 C 19.101 12.980 18.783 12.995 18.465 12.995 C 18.110 12.995 17.756 12.976 17.400 12.957 C 17.044 12.937 16.687 12.918 16.325 12.918 C 15.994 12.918 15.659 12.934 15.319 12.981 C 15.175 13.008 15.059 13.072 14.974 13.160 C 14.806 13.052 14.629 12.967 14.443 12.908 C 14.584 12.748 14.648 12.584 14.435 12.392 C 14.490 12.372 14.544 12.355 14.599 12.341 C 14.604 12.342 14.610 12.343 14.615 12.344 C 14.714 12.354 14.842 12.364 14.987 12.373 C 15.132 12.382 15.293 12.390 15.456 12.396 C 15.464 12.396 15.471 12.396 15.478 12.396 C 15.641 12.396 15.803 12.412 15.964 12.427 C 16.125 12.442 16.285 12.458 16.446 12.458 C 16.610 12.458 16.775 12.441 16.939 12.392 C 17.335 12.273 17.731 12.155 18.153 12.113 C 18.326 12.126 18.499 12.140 18.672 12.155 C 18.777 12.165 18.885 12.175 18.995 12.187 C 19.149 12.203 19.307 12.220 19.468 12.240 C 19.399 12.302 19.330 12.365 19.265 12.428 C 19.329 12.425 19.395 12.423 19.462 12.423 C 19.567 12.423 19.674 12.427 19.782 12.434 C 19.806 12.436 19.831 12.438 19.856 12.440 C 19.897 12.476 19.939 12.512 19.982 12.548 C 20.095 12.642 20.215 12.735 20.342 12.826 C 20.564 12.988 20.856 13.236 21.090 13.236 C 21.152 13.236 21.210 13.219 21.261 13.178 C 21.325 13.130 21.387 13.087 21.449 13.048 C 21.973 13.379 21.799 13.794 21.654 13.794 C 21.614 13.794 21.572 13.795 21.531 13.797 C 21.491 13.799 21.451 13.800 21.415 13.800 C 21.403 13.800 21.391 13.800 21.380 13.800 C 21.365 13.796 21.351 13.792 21.338 13.787 C 21.199 13.777 21.086 13.772 20.983 13.772 C 20.941 13.772 20.901 13.773 20.862 13.774 C 20.587 13.788 20.321 13.848 20.079 13.975 C 20 14.016 19.923 14.065 19.849 14.121 C 19.826 14.133 19.804 14.146 19.783 14.159 Z M 3.623 13.357 C 3.869 13.139 4.095 12.894 4.300 12.614 C 4.301 12.612 4.303 12.610 4.304 12.608 C 4.309 12.602 4.314 12.595 4.318 12.588 C 4.279 12.549 4.208 12.494 4.131 12.458 C 4.111 12.445 4.092 12.433 4.072 12.420 C 4.153 12.420 4.232 12.414 4.311 12.408 C 4.391 12.403 4.469 12.397 4.548 12.397 C 4.640 12.397 4.732 12.405 4.824 12.431 C 6.345 12.297 7.865 12.160 9.347 11.909 C 9.253 11.901 9.160 11.891 9.068 11.880 C 8.901 11.859 8.737 11.832 8.607 11.797 C 8.604 11.798 8.601 11.798 8.598 11.798 C 8.581 11.798 8.569 11.794 8.561 11.786 C 8.650 11.732 8.735 11.669 8.816 11.594 C 8.965 11.533 9.107 11.471 9.229 11.410 C 9.147 11.410 9.065 11.410 8.984 11.410 L 8.984 11.410 C 9.033 11.361 9.131 11.361 9.183 11.344 C 9.298 11.318 9.429 11.293 9.559 11.266 C 9.704 11.242 9.849 11.216 9.994 11.188 C 10.111 11.139 10.226 11.081 10.328 11.016 C 10.560 10.881 10.744 10.724 10.915 10.554 C 11 10.469 11.082 10.381 11.183 10.288 C 11.852 9.786 12.829 9.582 13.617 9.299 C 13.752 9.477 13.918 9.621 14.098 9.753 C 13.519 10.002 12.874 10.210 12.504 10.496 C 12.206 10.662 12.026 10.808 11.927 10.941 C 11.829 11.074 11.818 11.193 11.894 11.308 C 12.105 11.484 12.336 11.626 12.578 11.744 C 11.963 11.790 11.346 11.836 10.731 11.918 C 10.460 11.936 10.288 11.941 10.132 11.941 C 10.115 11.941 10.098 11.941 10.081 11.941 C 9.879 11.939 9.678 11.932 9.478 11.918 C 9.545 11.900 9.610 11.878 9.671 11.852 C 9.563 11.871 9.455 11.890 9.347 11.909 C 9.390 11.912 9.434 11.915 9.478 11.918 C 9.172 12.004 8.824 12.026 8.542 12.146 C 8.568 12.198 8.607 12.209 8.647 12.209 C 8.661 12.209 8.676 12.207 8.690 12.206 C 8.705 12.204 8.718 12.203 8.731 12.203 C 8.736 12.203 8.741 12.203 8.746 12.204 C 8.895 12.221 9.043 12.239 9.192 12.258 C 9.300 12.271 9.408 12.286 9.516 12.301 C 9.620 12.396 9.750 12.461 9.720 12.490 C 9.120 12.730 8.479 12.783 7.823 12.783 C 7.567 12.783 7.309 12.775 7.051 12.767 C 6.792 12.759 6.533 12.751 6.274 12.751 C 5.827 12.751 5.382 12.775 4.947 12.864 C 4.775 12.901 4.652 12.945 4.533 12.991 C 4.398 13.043 4.267 13.098 4.133 13.156 C 3.956 13.213 3.782 13.280 3.623 13.357 Z M 4.824 12.431 C 4.787 12.434 4.749 12.438 4.711 12.441 C 4.760 12.441 4.809 12.441 4.859 12.441 C 4.847 12.437 4.836 12.434 4.824 12.431 Z M 18.900 11.676 C 18.816 11.676 18.731 11.675 18.647 11.672 C 18.649 11.669 18.652 11.666 18.654 11.662 C 18.751 11.579 18.858 11.491 18.972 11.399 C 19.087 11.307 19.209 11.211 19.336 11.113 C 19.588 10.915 19.905 10.708 20.365 10.500 C 21.261 10.084 21.432 10.895 20.323 11.560 C 19.851 11.636 19.374 11.676 18.900 11.676 Z M 20.245 8.463 C 20.211 8.426 20.173 8.396 20.132 8.371 C 20.160 8.377 20.188 8.384 20.216 8.391 C 20.228 8.416 20.239 8.444 20.245 8.463 Z M 21.660 7.626 C 21.716 7.617 21.196 7.926 20.960 7.995 C 20.594 7.907 20.227 7.808 19.861 7.707 C 19.870 7.698 19.879 7.688 19.886 7.678 C 19.848 7.679 19.810 7.681 19.772 7.682 C 19.275 7.545 18.779 7.405 18.291 7.286 C 18.430 7.257 18.570 7.228 18.709 7.197 C 18.725 7.193 18.741 7.190 18.756 7.186 L 18.069 7.186 C 18.413 6.794 18.904 6.695 19.297 6.401 C 19.087 6.254 18.862 6.166 18.626 6.113 C 19.286 6.179 19.783 6.403 19.739 7.199 C 19.739 7.256 19.754 7.302 19.781 7.339 C 19.776 7.338 19.770 7.338 19.765 7.337 C 19.774 7.342 19.783 7.347 19.792 7.352 C 19.871 7.444 20.029 7.476 20.193 7.493 C 20.218 7.496 20.243 7.498 20.269 7.500 C 20.321 7.508 20.373 7.514 20.425 7.518 C 20.514 7.525 20.603 7.528 20.691 7.529 C 20.774 7.539 20.851 7.555 20.917 7.579 L 20.868 7.530 C 20.997 7.555 21.128 7.574 21.259 7.589 C 21.391 7.605 21.525 7.617 21.660 7.626 Z M 15.505 8.284 C 15.322 8.172 15.103 8.090 14.872 8.020 C 14.907 8.022 14.942 8.023 14.977 8.023 C 14.883 7.992 14.788 7.967 14.691 7.945 C 14.473 7.858 14.246 7.779 14.042 7.678 C 14.095 7.598 14.159 7.525 14.231 7.460 C 14.607 7.523 14.967 7.615 15.331 7.672 C 15.513 7.700 15.696 7.720 15.879 7.724 C 15.823 7.741 15.767 7.757 15.712 7.776 C 15.859 7.776 15.957 7.776 16.105 7.776 C 16.055 7.727 16.006 7.727 15.952 7.726 C 15.927 7.726 15.903 7.725 15.879 7.724 C 16.310 7.595 16.764 7.512 17.224 7.438 C 17.250 7.449 17.276 7.459 17.303 7.470 C 17.282 7.475 17.261 7.480 17.241 7.484 C 17.150 7.500 17.059 7.516 16.968 7.532 C 16.680 7.572 16.392 7.591 16.105 7.678 C 16.392 7.630 16.680 7.581 16.968 7.532 C 17.059 7.519 17.150 7.504 17.241 7.484 C 17.263 7.480 17.286 7.476 17.308 7.472 C 17.621 7.596 17.935 7.713 18.252 7.822 C 17.567 7.912 16.878 8.036 16.184 8.179 C 15.957 8.216 15.731 8.252 15.505 8.284 Z M 12.011 7.935 C 11.877 7.935 11.745 7.933 11.616 7.928 C 11.245 7.913 10.722 7.891 10.070 7.840 C 9.891 7.833 9.712 7.830 9.533 7.830 C 9.164 7.830 8.795 7.842 8.427 7.854 C 8.059 7.866 7.692 7.877 7.326 7.877 C 7.066 7.877 6.807 7.871 6.548 7.855 C 6.548 7.848 6.542 7.838 6.528 7.825 C 6.271 7.641 5.958 7.567 5.651 7.480 C 5.532 7.546 5.411 7.612 5.291 7.676 C 5.229 7.661 5.166 7.645 5.104 7.628 C 5.254 7.562 5.410 7.505 5.570 7.456 C 5.597 7.464 5.624 7.472 5.651 7.480 C 5.706 7.449 5.760 7.419 5.814 7.388 C 6.424 7.237 7.091 7.193 7.778 7.193 C 8.273 7.193 8.779 7.216 9.280 7.239 C 9.623 7.255 9.965 7.271 10.300 7.279 C 10.692 7.327 11.088 7.395 11.471 7.491 C 11.808 7.575 12.134 7.681 12.441 7.813 C 12.484 7.850 12.526 7.888 12.567 7.926 C 12.381 7.931 12.194 7.935 12.011 7.935 Z " stroke-width="1"/>
      <path id="ID0.3800701340660453" fill="#f1fbfe" d="M 20.241 8.440 C 20.277 8.434 20.315 8.428 20.353 8.422 C 20.362 8.424 20.370 8.426 20.379 8.428 C 20.333 8.432 20.287 8.436 20.241 8.440 Z " stroke-width="1"/>
      <path id="ID0.7865714379586279" fill="#f1fbfe" d="M 16.882 6.041 C 16.546 6.029 16.217 5.987 15.908 5.860 C 16.645 4.977 18.118 4.829 19.201 4.321 C 19.384 4.236 19.533 4.156 19.656 4.069 C 19.923 4.027 20.190 3.977 20.457 3.912 C 20.438 3.907 20.419 3.901 20.400 3.895 C 20.419 3.901 20.438 3.907 20.457 3.912 C 20.480 3.907 20.502 3.902 20.524 3.896 C 20.502 3.902 20.480 3.907 20.457 3.912 C 20.579 3.948 20.704 3.985 20.829 4.023 C 20.830 4.023 20.830 4.024 20.831 4.024 C 20.577 4.078 20.333 4.146 20.102 4.234 C 19.814 4.343 19.546 4.484 18.960 4.716 C 18.020 5.075 17.087 5.369 16.154 5.811 C 16.353 5.938 16.605 6.005 16.882 6.041 Z M 10.087 5.056 C 10.009 5.056 9.926 5.056 9.837 5.054 C 9.966 4.927 10.408 4.829 10.310 4.780 C 8.689 3.896 6.725 4.240 4.908 4.093 C 5.202 4.338 5.546 4.289 5.890 4.387 C 5.852 4.425 5.815 4.434 5.778 4.434 C 5.762 4.434 5.746 4.432 5.731 4.430 C 5.716 4.429 5.701 4.427 5.686 4.427 C 5.661 4.427 5.638 4.432 5.616 4.449 C 5.437 4.463 5.259 4.477 5.081 4.491 C 4.958 4.501 4.835 4.511 4.717 4.519 C 4.701 4.519 4.685 4.519 4.669 4.519 C 4.419 4.519 4.157 4.481 3.894 4.443 C 3.755 4.422 3.615 4.401 3.431 4.380 C 3.100 4.345 3.007 3.809 3.776 4.012 C 3.943 4.040 4.098 4.062 4.249 4.076 C 4.399 4.091 4.544 4.098 4.688 4.099 C 4.894 4.069 5.090 4.023 5.267 3.963 C 5.443 3.902 5.600 3.827 5.730 3.734 C 5.729 3.735 5.727 3.736 5.726 3.737 C 5.551 3.863 5.619 3.906 5.732 3.906 L 5.733 3.906 C 5.788 3.906 5.852 3.896 5.905 3.881 C 5.906 3.881 5.906 3.881 5.906 3.881 C 5.908 3.880 5.911 3.879 5.913 3.879 C 5.914 3.879 5.914 3.878 5.915 3.878 C 5.988 3.847 6.037 3.798 6.037 3.798 C 6.033 3.786 6.028 3.776 6.023 3.768 C 6.023 3.767 6.022 3.767 6.022 3.767 C 6.064 3.765 6.103 3.749 6.135 3.700 C 6.037 3.651 5.939 3.651 5.841 3.601 C 6.136 3.433 6.452 3.312 6.778 3.216 C 6.904 3.258 7.031 3.293 7.158 3.321 C 7.299 3.352 7.440 3.375 7.582 3.392 C 7.723 3.408 7.866 3.419 8.008 3.424 C 8.986 3.510 9.953 3.555 10.921 3.589 C 10.905 3.670 10.906 3.745 10.928 3.811 C 10.964 3.921 11.060 4.006 11.236 4.060 C 11.370 4.101 11.550 4.123 11.783 4.123 C 11.822 4.123 11.863 4.122 11.906 4.121 C 12.090 4.082 12.256 4.075 12.416 4.068 C 12.568 4.062 12.703 4.055 12.791 4.019 C 12.779 4.069 12.754 4.153 12.607 4.286 C 12.507 4.406 12.491 4.454 12.548 4.454 C 12.584 4.454 12.651 4.434 12.746 4.401 C 12.948 4.342 13.164 4.242 13.343 4.140 C 13.225 4.232 13.129 4.342 13.052 4.463 C 13.006 4.502 12.964 4.551 12.936 4.619 C 12.785 4.659 12.634 4.697 12.482 4.733 C 12.342 4.767 12.201 4.799 12.060 4.829 C 12.073 4.820 12.085 4.811 12.098 4.803 C 12.094 4.802 12.091 4.802 12.087 4.802 C 12.076 4.802 12.065 4.803 12.054 4.803 C 12.062 4.796 12.070 4.788 12.078 4.780 C 11.692 4.794 11.318 4.843 10.954 4.921 C 10.809 4.976 10.648 5.017 10.475 5.050 C 10.360 5.054 10.232 5.056 10.087 5.056 Z M 13.539 4.007 C 13.342 3.982 13.049 3.952 12.905 3.952 C 12.869 3.952 12.843 3.954 12.829 3.958 C 12.810 3.964 12.803 3.975 12.798 3.992 C 12.730 3.824 12.556 3.746 12.421 3.638 C 12.850 3.652 13.281 3.668 13.713 3.687 C 13.661 3.626 13.557 3.552 13.453 3.552 C 13.297 3.560 13.149 3.564 13.048 3.564 C 12.933 3.564 12.879 3.559 12.947 3.549 C 13.404 3.454 13.846 3.503 14.288 3.356 C 13.742 3.262 13.196 3.203 12.650 3.160 C 12.914 3.071 13.181 3.028 13.448 3.011 C 13.544 3.005 13.640 3.003 13.735 3.003 C 13.952 3.003 14.169 3.016 14.386 3.031 C 14.656 3.064 14.917 3.084 15.177 3.084 C 15.188 3.084 15.198 3.084 15.209 3.084 C 15.361 3.171 15.512 3.262 15.663 3.356 C 15.692 3.368 15.735 3.374 15.784 3.374 C 15.834 3.374 15.891 3.368 15.942 3.356 C 15.933 3.380 15.925 3.404 15.916 3.428 C 15.243 3.433 14.546 3.436 13.990 3.700 C 13.898 3.695 13.806 3.691 13.713 3.687 C 13.735 3.712 13.747 3.734 13.747 3.749 C 13.749 3.758 13.751 3.765 13.753 3.774 C 13.490 3.829 13.228 3.809 12.975 3.844 C 12.721 3.872 12.911 3.897 13.266 3.921 C 13.353 3.947 13.441 3.976 13.541 4.006 C 13.540 4.006 13.540 4.007 13.539 4.007 Z M 20.470 3.836 C 20.406 3.791 20.315 3.773 20.279 3.700 C 20.770 3.601 21.261 3.552 21.752 3.503 C 21.337 3.595 20.836 3.558 20.470 3.836 Z M 13.763 3.828 C 13.759 3.810 13.756 3.792 13.753 3.774 C 13.768 3.771 13.783 3.768 13.798 3.764 C 13.799 3.777 13.800 3.790 13.802 3.803 C 13.789 3.811 13.776 3.819 13.763 3.828 Z M 13.880 3.757 C 13.867 3.755 13.854 3.754 13.841 3.753 C 13.885 3.740 13.929 3.726 13.973 3.708 C 13.941 3.723 13.910 3.740 13.880 3.757 Z M 21.607 3.456 C 21.427 3.456 21.247 3.455 21.067 3.451 C 20.920 3.446 20.773 3.440 20.663 3.430 C 20.655 3.435 20.649 3.437 20.643 3.437 C 20.621 3.437 20.613 3.405 20.574 3.405 C 20.985 3.359 21.396 3.271 21.807 3.220 C 21.811 3.220 21.816 3.220 21.820 3.220 C 22.173 3.220 21.977 3.456 21.607 3.456 Z M 16.081 3.134 C 16.065 3.094 16.043 3.058 16.017 3.024 C 16.058 3.022 16.110 3.012 16.153 3.012 C 16.301 3.002 16.448 2.993 16.596 2.984 C 16.743 2.976 16.890 2.968 17.038 2.961 C 17.203 2.957 17.362 2.953 17.528 2.952 C 18.407 2.961 19.317 2.963 20.207 3.068 C 19.726 3.048 19.243 3.042 18.761 3.042 C 17.920 3.042 17.081 3.061 16.252 3.061 C 16.179 3.072 16.124 3.097 16.081 3.134 Z M 11.189 3.070 C 10.499 3.033 9.809 2.994 9.115 2.917 C 8.808 2.891 8.563 2.865 8.360 2.838 C 8.663 2.763 8.961 2.675 9.248 2.556 C 9.584 2.426 9.866 2.295 10.129 2.144 C 10.261 2.068 11.523 2.632 11.298 2.924 C 11.260 2.973 11.223 3.022 11.189 3.070 Z " stroke-width="1"/>
      <path id="ID0.10231781844049692" fill="#f1fbfe" d="M 7.510 17.843 C 7.479 17.843 7.447 17.843 7.442 17.830 C 7.468 17.837 7.493 17.843 7.510 17.843 Z " stroke-width="1"/>
      <path id="ID0.5645287884399295" fill="#f1fbfe" d="M 2.554 11.796 C 2.218 11.701 1.716 11.312 2.555 10.921 C 2.636 10.887 2.771 10.850 2.928 10.806 C 3.155 10.862 3.384 10.899 3.615 10.921 C 3.561 11.078 3.382 11.171 3.181 11.267 C 2.942 11.454 3.058 11.582 3.186 11.726 C 2.976 11.755 2.766 11.778 2.554 11.796 Z " stroke-width="1"/>
      <path id="ID0.3265436398796737" fill="#f1fbfe" d="M 9.128 14.567 C 9.090 14.522 9.047 14.482 9.007 14.445 C 8.902 14.299 8.955 14.168 9.030 14.060 C 9.055 14.040 9.076 14.020 9.085 13.986 C 9.091 13.978 9.097 13.970 9.104 13.962 C 9.170 13.959 9.212 13.925 9.225 13.863 C 9.314 13.836 9.426 13.818 9.552 13.805 C 9.711 13.789 9.892 13.782 10.076 13.778 C 11.103 13.804 12.112 13.880 13.132 13.880 C 13.180 13.880 13.229 13.880 13.277 13.880 C 13.276 13.915 13.274 13.951 13.271 13.988 C 13.354 14.065 13.436 14.141 13.516 14.218 C 13.147 14.206 12.769 14.170 12.390 14.134 C 11.923 14.091 11.453 14.047 10.991 14.047 C 10.719 14.047 10.450 14.062 10.186 14.101 C 10.041 14.128 9.901 14.164 9.766 14.211 C 9.535 14.292 9.321 14.406 9.128 14.567 Z M 14.288 14.200 C 14.224 14.108 14.165 14.018 14.112 13.929 C 14.101 13.904 14.091 13.879 14.083 13.855 C 14.249 13.845 14.415 13.832 14.582 13.816 C 14.665 13.816 14.748 13.800 14.831 13.769 C 14.865 13.876 14.928 13.978 15.024 14.062 C 14.786 14.133 14.540 14.176 14.288 14.200 Z " stroke-width="1"/>
      <path id="ID0.5145446532405913" fill="#f1fbfe" d="M 9.199 14.911 C 9.072 14.790 8.962 14.698 9.033 14.651 C 9.064 14.621 9.096 14.594 9.128 14.567 C 9.197 14.649 9.249 14.749 9.236 14.890 C 9.224 14.897 9.212 14.904 9.199 14.911 Z " stroke-width="1"/>
      <path id="ID0.9430031422525644" fill="#f1fbfe" d="M 20.742 14.861 C 20.675 14.847 20.623 14.785 20.623 14.749 C 20.635 14.733 20.648 14.718 20.661 14.703 C 20.687 14.756 20.714 14.809 20.742 14.861 Z " stroke-width="1"/>
      <path id="ID0.4989738571457565" fill="#f1fbfe" d="M 15.564 17.303 C 15.885 17.237 16.209 17.171 16.532 17.105 C 16.537 17.106 16.542 17.106 16.547 17.106 C 16.252 17.205 15.908 17.254 15.564 17.303 Z " stroke-width="1"/>
      <path id="ID0.3820605920627713" fill="#f1fbfe" d="M 20.661 14.703 C 20.612 14.605 20.565 14.506 20.524 14.405 C 20.500 14.284 20.367 14.246 20.205 14.235 C 20.288 14.237 20.370 14.238 20.452 14.238 C 20.487 14.241 20.522 14.244 20.556 14.247 C 20.696 14.258 20.835 14.268 20.972 14.272 C 21.030 14.261 21.098 14.258 21.169 14.258 C 21.176 14.258 21.184 14.258 21.192 14.258 C 21.109 14.303 21.030 14.351 20.953 14.402 C 20.850 14.491 20.752 14.591 20.661 14.703 Z " stroke-width="1"/>
      <path id="ID0.70757000381127" fill="#f1fbfe" d="M 19.987 14.229 C 19.885 14.229 19.787 14.229 19.718 14.217 C 19.798 14.222 19.892 14.226 19.987 14.229 Z " stroke-width="1"/>
      <path id="ID0.43138024397194386" fill="#f1fbfe" d="M 20.205 14.235 C 20.179 14.235 20.152 14.234 20.126 14.234 C 20.080 14.233 20.033 14.231 19.987 14.229 C 20.059 14.230 20.134 14.230 20.202 14.235 L 20.205 14.235 Z " stroke-width="1"/>
      <path id="ID0.19559750147163868" fill="#f1fbfe" d="M 20.824 16.248 C 20.932 16.220 21.022 16.196 21.114 16.173 C 21.021 16.220 20.925 16.244 20.824 16.248 Z " stroke-width="1"/>
      <path id="ID0.6621746635064483" fill="#f1fbfe" d="M 6.014 3.767 C 5.971 3.767 5.924 3.753 5.875 3.745 C 5.883 3.743 5.891 3.741 5.899 3.739 C 5.918 3.734 5.936 3.731 5.953 3.731 C 5.981 3.731 6.005 3.740 6.022 3.767 C 6.022 3.767 6.021 3.767 6.021 3.767 C 6.019 3.767 6.016 3.767 6.014 3.767 Z " stroke-width="1"/>
      <path id="ID0.08810270810499787" fill="#f1fbfe" d="M 2.577 9.807 C 2.398 9.759 2.224 9.702 2.059 9.620 C 1.994 9.496 2.068 9.267 2.217 9.129 C 2.239 9.109 2.261 9.091 2.284 9.075 C 2.430 9.213 2.604 9.288 2.799 9.314 C 2.815 9.386 2.804 9.463 2.775 9.538 C 2.737 9.638 2.664 9.734 2.577 9.807 Z " stroke-width="1"/>
      <path id="ID0.6363735725171864" fill="#f1fbfe" d="M 3.262 10.449 C 2.967 10.366 2.576 10.343 2.403 10.084 C 2.354 9.986 2.452 9.887 2.534 9.840 C 2.549 9.830 2.563 9.818 2.577 9.807 C 2.983 9.915 3.414 9.973 3.810 10.154 C 3.649 10.266 3.450 10.354 3.262 10.449 Z " stroke-width="1"/>
      <path id="ID0.5765794315375388" fill="#f1fbfe" d="M 3.190 11.725 C 3.173 11.702 3.156 11.679 3.140 11.655 C 3.189 11.655 3.287 11.655 3.336 11.704 C 3.287 11.712 3.239 11.718 3.190 11.725 Z " stroke-width="1"/>
      <path id="ID0.07631151517853141" fill="#f1fbfe" d="M 5.791 3.759 C 5.774 3.759 5.758 3.756 5.743 3.749 C 5.765 3.741 5.788 3.738 5.811 3.738 C 5.832 3.738 5.854 3.741 5.875 3.745 C 5.847 3.752 5.818 3.759 5.791 3.759 Z " stroke-width="1"/>
      <path id="ID0.11237111920490861" fill="#f1fbfe" d="M 7.150 20.408 C 7.132 20.404 7.114 20.399 7.096 20.394 C 7.107 20.393 7.118 20.392 7.129 20.392 C 7.136 20.397 7.143 20.403 7.150 20.408 Z " stroke-width="1"/>
      <path id="ID0.6385294161736965" fill="#f1fbfe" d="M 19.967 21.367 C 19.898 21.362 19.828 21.357 19.758 21.352 C 19.688 21.262 19.558 21.203 19.395 21.133 C 19.418 21.111 19.451 21.088 19.486 21.065 C 19.654 21.138 19.820 21.214 19.935 21.330 C 19.945 21.339 19.956 21.352 19.967 21.367 Z " stroke-width="1"/>
      <path id="ID0.9354038354940712" fill="#f1fbfe" d="M 7.129 20.392 C 6.995 20.287 6.863 20.188 6.729 20.105 C 6.759 20.109 6.789 20.114 6.818 20.119 C 6.818 20.119 6.818 20.118 6.818 20.118 C 6.818 20.118 6.818 20.119 6.818 20.119 C 6.834 20.122 6.850 20.125 6.866 20.128 C 6.868 20.122 6.870 20.116 6.872 20.110 C 6.904 20.019 6.977 19.942 7.046 19.876 C 8.311 19.795 9.553 19.584 10.789 19.505 C 11.859 19.398 12.314 19.325 12.681 19.216 C 12.921 19.144 13.126 19.057 13.270 18.947 C 13.181 19.105 13.090 19.259 12.962 19.366 C 12.765 19.562 12.520 19.758 12.218 19.850 C 12.083 19.900 11.942 19.938 11.799 19.967 C 10.371 20.133 8.915 20.269 7.493 20.366 C 7.484 20.353 7.475 20.340 7.466 20.327 C 7.416 20.279 7.309 20.235 7.174 20.197 C 7.087 20.173 6.988 20.151 6.885 20.132 C 6.954 20.239 7.042 20.323 7.140 20.391 C 7.136 20.391 7.133 20.391 7.129 20.392 Z M 6.818 20.119 C 6.819 20.137 6.828 20.156 6.856 20.178 C 6.858 20.161 6.861 20.144 6.866 20.128 C 6.850 20.125 6.834 20.122 6.818 20.119 Z M 6.872 20.110 C 6.870 20.116 6.868 20.122 6.866 20.128 C 6.872 20.129 6.879 20.130 6.885 20.132 C 6.880 20.125 6.876 20.117 6.872 20.110 Z M 6.841 20.055 C 6.823 20.019 6.806 19.982 6.792 19.941 C 6.856 19.990 6.854 20.024 6.841 20.055 Z M 6.762 20.022 C 6.762 20.022 6.770 19.999 6.792 19.941 C 6.775 19.987 6.762 20.022 6.762 20.022 Z " stroke-width="1"/>
      <path id="ID0.6848546080291271" fill="#f1fbfe" d="M 13.270 18.947 C 13.283 18.924 13.296 18.900 13.310 18.876 C 13.366 18.776 13.424 18.677 13.492 18.588 C 13.482 18.729 13.401 18.847 13.270 18.947 Z " stroke-width="1"/>
      <path id="ID0.12871247995644808" fill="#f1fbfe" d="M 7.875 17.445 C 7.944 17.387 8.016 17.336 8.100 17.303 C 8.172 17.258 8.247 17.221 8.323 17.189 C 8.259 17.345 8.064 17.412 7.875 17.445 Z " stroke-width="1"/>
      <path id="ID0.8292082427069545" fill="#DEF0FF" d="M 20.106 22.011 C 18.445 22.419 14.573 22.549 14.676 22.369 C 14.728 22.369 14.780 22.370 14.833 22.370 C 14.836 22.370 14.839 22.370 14.842 22.370 C 15.023 22.370 15.245 22.360 15.576 22.326 C 16.698 22.206 17.799 22.094 18.894 21.843 C 19.121 21.869 19.349 21.896 19.577 21.923 C 19.709 21.939 19.841 21.955 19.977 21.970 C 19.982 21.973 19.988 21.976 19.993 21.979 C 20.031 21.989 20.069 22 20.106 22.011 Z " stroke-width="1"/>
      <path id="ID0.27471834095194936" fill="#DEF0FF" d="M 20.248 22.057 C 20.201 22.041 20.154 22.025 20.106 22.011 C 20.130 22.005 20.154 21.999 20.178 21.993 C 20.182 21.994 20.186 21.994 20.191 21.995 C 20.276 22.005 20.362 22.014 20.449 22.022 C 20.378 22.036 20.312 22.046 20.248 22.057 Z " stroke-width="1"/>
      <path id="ID0.8268398200161755" fill="#f1fbfe" d="M 14.676 22.369 C 14.553 22.368 14.436 22.365 14.337 22.361 C 14.193 22.356 14.087 22.348 14.055 22.339 C 14.141 22.304 14.240 22.285 14.342 22.285 C 14.458 22.285 14.576 22.309 14.680 22.361 L 14.676 22.369 Z " stroke-width="1"/>
      <path id="ID0.3199880481697619" fill="#DEF0FF" d="M 20.751 22.300 C 20.705 22.297 20.658 22.294 20.612 22.291 C 20.488 22.282 20.365 22.275 20.253 22.266 C 20.246 22.273 20.238 22.279 20.230 22.285 C 20.220 22.285 20.209 22.284 20.198 22.284 C 20.206 22.277 20.213 22.271 20.221 22.264 C 20.181 22.261 20.144 22.258 20.108 22.255 C 20.095 22.261 20.081 22.268 20.068 22.276 C 20.021 22.272 19.977 22.269 19.937 22.265 C 19.886 22.263 19.886 22.214 19.837 22.214 C 19.878 22.183 19.920 22.158 19.961 22.139 C 19.930 22.160 19.900 22.188 19.872 22.223 C 19.927 22.236 20.010 22.246 20.108 22.255 C 20.204 22.205 20.305 22.163 20.385 22.121 C 20.305 22.163 20.204 22.205 20.108 22.255 C 20.144 22.258 20.181 22.261 20.221 22.264 C 20.232 22.265 20.242 22.266 20.253 22.266 C 20.309 22.219 20.364 22.172 20.417 22.123 C 20.531 22.171 20.643 22.229 20.751 22.300 Z M 20.385 22.121 C 20.388 22.118 20.391 22.116 20.394 22.113 C 20.396 22.113 20.397 22.114 20.398 22.114 C 20.394 22.117 20.389 22.119 20.385 22.121 Z M 20.223 22.061 C 20.231 22.060 20.239 22.058 20.248 22.057 C 20.251 22.058 20.254 22.059 20.257 22.060 C 20.246 22.060 20.234 22.061 20.223 22.061 Z " stroke-width="1"/>
      <path id="ID0.758924825116992" fill="#f1fbfe" d="M 14.634 17.794 C 14.634 17.794 14.634 17.793 14.635 17.793 C 15.221 17.658 15.808 17.524 16.432 17.465 C 16.405 17.472 16.376 17.482 16.340 17.498 C 16.204 17.523 16.068 17.549 15.932 17.576 C 15.661 17.631 15.390 17.691 15.119 17.756 C 15.080 17.766 15.043 17.777 15.008 17.788 C 14.884 17.792 14.759 17.794 14.634 17.794 Z " stroke-width="1"/>
      <path id="ID0.16140749352052808" fill="#f1fbfe" d="M 8.935 14.160 C 8.984 14.013 9.131 13.914 9.229 13.816 C 9.229 13.833 9.228 13.849 9.225 13.863 C 9.212 13.925 9.170 13.959 9.104 13.962 C 9.099 13.963 9.095 13.963 9.090 13.963 C 9.090 13.963 9.089 13.963 9.088 13.963 C 9.088 13.971 9.086 13.979 9.085 13.986 C 9.076 14.020 9.055 14.040 9.030 14.060 C 8.998 14.085 8.960 14.110 8.935 14.160 Z " stroke-width="1"/>
      <path id="ID0.36767848720774055" fill="#f1fbfe" d="M 20.972 14.272 C 20.835 14.268 20.696 14.258 20.556 14.247 C 20.522 14.244 20.487 14.241 20.452 14.238 C 20.348 14.230 20.243 14.222 20.140 14.217 C 20.068 14.214 19.994 14.212 19.922 14.212 C 19.857 14.212 19.794 14.213 19.733 14.217 C 19.771 14.183 19.809 14.151 19.849 14.121 C 19.923 14.065 20 14.016 20.079 13.975 C 20.321 13.848 20.587 13.788 20.862 13.774 C 20.901 13.773 20.941 13.772 20.983 13.772 C 21.086 13.772 21.199 13.777 21.338 13.787 C 21.351 13.792 21.365 13.796 21.380 13.800 C 21.590 13.851 21.911 13.787 21.946 13.936 C 21.946 13.940 21.947 13.944 21.948 13.948 C 21.948 13.953 21.949 13.958 21.949 13.964 L 21.949 13.968 C 21.949 13.968 21.949 13.968 21.949 13.968 L 21.949 13.971 C 21.948 13.972 21.948 13.972 21.948 13.972 L 21.948 13.974 C 21.948 13.974 21.948 13.974 21.948 13.975 C 21.948 13.975 21.948 13.975 21.948 13.975 C 21.948 13.975 21.948 13.976 21.948 13.976 C 21.948 13.976 21.948 13.976 21.948 13.976 C 21.941 14.228 21.718 14.263 21.468 14.263 C 21.419 14.263 21.368 14.262 21.317 14.261 C 21.275 14.259 21.233 14.258 21.192 14.258 C 21.184 14.258 21.176 14.258 21.169 14.258 C 21.098 14.258 21.030 14.261 20.972 14.272 Z " stroke-width="1"/>
      <path id="ID0.2932684416882694" fill="#f1fbfe" d="M 20.868 7.530 C 20.809 7.530 20.750 7.530 20.691 7.529 C 20.603 7.528 20.514 7.525 20.425 7.518 C 20.373 7.514 20.321 7.508 20.269 7.500 C 20.173 7.486 20.076 7.464 19.979 7.433 C 19.913 7.409 19.849 7.382 19.792 7.352 C 19.783 7.347 19.774 7.342 19.765 7.337 C 19.770 7.338 19.776 7.338 19.781 7.339 C 20.009 7.359 20.181 7.407 20.351 7.450 C 20.524 7.493 20.696 7.530 20.868 7.530 Z " stroke-width="1"/>
      <path id="ID0.5773444231599569" fill="#f1fbfe" d="M 20.241 8.440 C 20.252 8.427 20.262 8.416 20.273 8.404 C 20.297 8.409 20.321 8.415 20.345 8.420 C 20.310 8.426 20.275 8.433 20.241 8.440 Z M 22.123 8.228 C 21.738 8.170 21.349 8.089 20.960 7.995 C 21.196 7.926 21.451 7.899 21.711 7.899 C 21.808 7.899 21.905 7.903 22.002 7.909 C 22.286 7.928 22.331 8.194 22.123 8.228 Z " stroke-width="1"/>
      <path id="ID0.5500695714727044" fill="#DEF0FF" d="M 16.052 3.012 C 16.053 3.009 16.053 3.007 16.054 3.004 C 16.069 2.965 16.085 2.927 16.103 2.890 C 16.145 2.806 16.197 2.728 16.264 2.658 C 16.750 2.230 18.518 2.083 16.970 2.661 C 16.803 2.708 16.658 2.761 16.518 2.817 C 16.411 2.859 16.306 2.903 16.200 2.948 C 16.160 2.965 16.121 2.982 16.081 2.999 C 16.071 3.003 16.061 3.008 16.052 3.012 Z " stroke-width="1"/>
      <path id="ID0.6467826967127621" fill="#f1fbfe" d="M 5.651 7.480 C 5.624 7.472 5.597 7.464 5.570 7.456 C 5.495 7.434 5.422 7.410 5.350 7.383 C 5.497 7.137 5.792 7.236 6.037 7.137 C 5.890 7.137 5.743 7.137 5.595 7.137 C 5.657 7.070 5.721 7.005 5.787 6.944 C 6.008 6.965 6.223 6.989 6.433 7.012 C 6.418 7.025 6.401 7.038 6.384 7.051 C 6.234 7.147 6.070 7.243 5.905 7.337 C 5.875 7.354 5.845 7.371 5.814 7.388 C 5.760 7.419 5.706 7.449 5.651 7.480 Z M 6.706 6.379 C 6.676 6.376 6.646 6.373 6.616 6.370 C 6.651 6.352 6.686 6.335 6.722 6.318 C 6.716 6.338 6.711 6.358 6.706 6.379 Z " stroke-width="1"/>
      <path id="ID0.980022621806711" fill="#f1fbfe" d="M 11.916 4.922 C 11.963 4.885 12.009 4.846 12.054 4.803 C 12.065 4.803 12.076 4.802 12.087 4.802 C 12.091 4.802 12.094 4.802 12.098 4.803 C 12.085 4.811 12.073 4.820 12.060 4.829 C 12.013 4.861 11.965 4.892 11.916 4.922 Z " stroke-width="1"/>
      <path id="ID0.410266590770334" fill="#f1fbfe" d="M 2.971 9.325 C 2.912 9.325 2.855 9.322 2.799 9.314 C 2.604 9.288 2.430 9.213 2.284 9.075 C 2.220 9.015 2.161 8.942 2.108 8.856 C 2.086 8.820 2.069 8.786 2.057 8.754 C 2.079 8.755 2.101 8.757 2.123 8.758 C 2.269 8.794 2.412 8.834 2.555 8.875 C 2.909 8.977 3.261 9.091 3.607 9.215 C 3.384 9.284 3.169 9.325 2.971 9.325 Z M 4.373 8.902 C 4.322 8.868 4.271 8.834 4.218 8.800 C 3.984 8.648 3.779 8.500 3.614 8.359 C 3.531 8.288 3.458 8.218 3.390 8.153 C 3.944 8.100 4.540 8.048 4.908 7.874 C 5.036 7.810 5.164 7.744 5.291 7.676 C 5.411 7.612 5.532 7.546 5.651 7.480 C 5.958 7.567 6.271 7.641 6.528 7.825 C 6.542 7.838 6.548 7.848 6.548 7.855 C 6.551 7.876 6.515 7.880 6.477 7.896 C 6.393 7.920 6.267 7.946 6.145 7.981 C 6.022 8.015 5.902 8.058 5.792 8.120 C 5.362 8.360 4.866 8.661 4.373 8.902 Z " stroke-width="1"/>
      <path id="ID0.1857660999521613" fill="#f1fbfe" d="M 11.569 5.110 C 11.688 5.053 11.804 4.990 11.916 4.922 C 11.808 5.003 11.692 5.067 11.569 5.110 Z " stroke-width="1"/>
      <path id="ID0.589472649153322" fill="#f1fbfe" d="M 11.194 5.173 C 11.341 5.124 11.439 4.977 11.631 4.920 C 11.757 4.858 11.907 4.808 12.054 4.803 C 12.009 4.846 11.963 4.885 11.916 4.922 C 11.804 4.990 11.688 5.053 11.569 5.110 C 11.451 5.151 11.326 5.173 11.194 5.173 Z " stroke-width="1"/>
      <path id="ID0.12585477204993367" fill="#f1fbfe" d="M 6.722 6.318 C 6.775 6.116 6.843 5.954 6.942 5.821 C 7.107 5.601 7.368 5.463 7.661 5.374 C 8.394 5.222 9.180 5.173 9.937 5.122 C 10.124 5.104 10.305 5.082 10.475 5.050 C 10.648 5.017 10.809 4.976 10.954 4.921 C 11.318 4.843 11.692 4.794 12.078 4.780 C 12.070 4.788 12.062 4.796 12.054 4.803 C 11.907 4.808 11.757 4.858 11.631 4.920 C 11.439 4.977 11.341 5.124 11.194 5.173 C 11.326 5.173 11.451 5.151 11.569 5.110 C 11.435 5.175 11.298 5.234 11.158 5.289 C 10.992 5.355 10.823 5.415 10.626 5.472 C 10.429 5.529 10.154 5.587 9.706 5.655 C 8.699 5.797 7.638 5.888 6.722 6.318 Z " stroke-width="1"/>
      <path id="ID0.35489789210259914" fill="#f1fbfe" d="M 11.783 21.870 C 11.636 22.607 8.458 22.393 8.310 22.064 C 8.261 21.955 8.211 21.845 8.160 21.735 C 8.051 21.477 7.952 21.281 7.816 21.085 C 7.828 21.070 7.842 21.058 7.856 21.047 C 8.250 21.135 8.656 21.228 9.057 21.312 C 9.486 21.401 9.918 21.481 10.629 21.533 C 10.865 21.550 11.108 21.564 11.351 21.575 C 11.472 21.580 11.594 21.585 11.714 21.589 C 11.733 21.588 11.751 21.587 11.769 21.587 C 11.803 21.663 11.810 21.756 11.783 21.870 Z " stroke-width="1"/>
      <path id="ID0.21440282929688692" fill="#f1fbfe" d="M 6.001 20.988 C 5.768 20.904 5.559 20.815 5.423 20.676 C 5.452 20.675 5.483 20.675 5.513 20.675 C 5.683 20.675 5.870 20.688 6.070 20.711 C 6.141 20.770 6.212 20.829 6.283 20.888 C 6.190 20.927 6.096 20.960 6.001 20.988 Z " stroke-width="1"/>
      <path id="ID0.8983685728162527" fill="#DEF0FF" d="M 6.136 21.770 C 5.663 21.770 5.187 21.740 4.695 21.706 C 4.632 21.699 4.571 21.692 4.511 21.684 C 4.509 21.657 4.506 21.631 4.504 21.605 C 4.496 21.479 4.500 21.355 4.516 21.235 C 4.522 21.190 4.532 21.149 4.546 21.110 C 4.679 21.118 4.813 21.123 4.946 21.123 C 5.306 21.123 5.661 21.088 6.001 20.988 C 6.435 21.143 6.955 21.279 7.265 21.674 C 7.314 21.674 7.412 21.674 7.461 21.674 C 7.012 21.745 6.575 21.770 6.136 21.770 Z " stroke-width="1"/>
      <path id="ID0.6982021443545818" fill="#f1fbfe" d="M 6.866 20.128 C 6.850 20.125 6.834 20.122 6.818 20.119 C 6.818 20.119 6.818 20.118 6.818 20.118 C 6.818 20.096 6.832 20.076 6.841 20.055 C 6.851 20.074 6.861 20.092 6.872 20.110 C 6.870 20.116 6.868 20.122 6.866 20.128 Z " stroke-width="1"/>
      <path id="ID0.6078646988607943" fill="#f1fbfe" d="M 6.818 20.119 C 6.789 20.114 6.759 20.109 6.729 20.105 C 6.723 20.104 6.718 20.103 6.712 20.102 C 6.597 20.091 6.456 20.083 6.307 20.081 C 6.201 20.023 6.086 19.958 5.933 19.884 C 5.871 19.854 5.809 19.827 5.746 19.799 C 5.799 19.715 5.887 19.654 5.988 19.611 C 6.125 19.554 6.287 19.530 6.447 19.530 C 6.560 19.530 6.672 19.542 6.774 19.562 C 7.069 19.636 7.232 19.694 7.135 19.792 C 7.109 19.818 7.078 19.846 7.046 19.876 C 6.977 19.942 6.904 20.019 6.872 20.110 C 6.861 20.092 6.851 20.074 6.841 20.055 C 6.854 20.024 6.856 19.990 6.792 19.941 C 6.770 19.999 6.762 20.022 6.762 20.022 C 6.762 20.022 6.775 19.987 6.792 19.941 C 6.806 19.982 6.823 20.019 6.841 20.055 C 6.832 20.076 6.818 20.096 6.818 20.118 C 6.818 20.118 6.818 20.119 6.818 20.119 Z " stroke-width="1"/>
      <path id="ID0.4945816504769027" fill="#f1fbfe" d="M 6.885 20.132 C 6.879 20.130 6.872 20.129 6.866 20.128 C 6.868 20.122 6.870 20.116 6.872 20.110 C 6.876 20.117 6.880 20.125 6.885 20.132 Z " stroke-width="1"/>
      <path id="ID0.6240962683223188" fill="#f1fbfe" d="M 7.619 20.516 C 7.458 20.483 7.313 20.450 7.178 20.416 C 7.165 20.408 7.153 20.399 7.140 20.391 C 7.042 20.323 6.954 20.239 6.885 20.132 C 6.988 20.151 7.087 20.173 7.174 20.197 C 7.309 20.235 7.416 20.279 7.466 20.327 C 7.475 20.340 7.484 20.353 7.493 20.366 C 7.531 20.418 7.573 20.468 7.619 20.516 Z " stroke-width="1"/>
      <path id="ID0.9811183274723589" fill="#f1fbfe" d="M 6.856 20.178 C 6.828 20.156 6.819 20.137 6.818 20.119 C 6.834 20.122 6.850 20.125 6.866 20.128 C 6.861 20.144 6.858 20.161 6.856 20.178 Z " stroke-width="1"/>
      <path id="ID0.06478806724771857" fill="#f1fbfe" d="M 20.253 22.266 C 20.242 22.266 20.232 22.265 20.221 22.264 C 20.273 22.219 20.328 22.172 20.385 22.121 C 20.389 22.119 20.394 22.117 20.398 22.114 C 20.427 22.099 20.453 22.083 20.475 22.067 C 20.456 22.085 20.437 22.104 20.417 22.123 C 20.364 22.172 20.309 22.219 20.253 22.266 Z " stroke-width="1"/>
      <path id="ID0.9761181101202965" fill="#DEF0FF" d="M 20.108 22.255 C 20.010 22.246 19.927 22.236 19.872 22.223 C 19.900 22.188 19.930 22.160 19.961 22.139 C 20.042 22.083 20.133 22.066 20.223 22.061 C 20.234 22.061 20.246 22.060 20.257 22.060 C 20.265 22.060 20.273 22.060 20.281 22.060 C 20.306 22.060 20.331 22.061 20.356 22.061 C 20.380 22.062 20.404 22.062 20.427 22.062 C 20.435 22.062 20.443 22.062 20.451 22.062 C 20.432 22.079 20.413 22.096 20.394 22.113 C 20.391 22.116 20.388 22.118 20.385 22.121 C 20.305 22.163 20.204 22.205 20.108 22.255 Z " stroke-width="1"/>
      <path id="ID0.5138373617082834" fill="#f1fbfe" d="M 20.221 22.264 C 20.181 22.261 20.144 22.258 20.108 22.255 C 20.204 22.205 20.305 22.163 20.385 22.121 C 20.328 22.172 20.273 22.219 20.221 22.264 Z " stroke-width="1"/>
      <path id="ID0.39584681298583746" fill="#DEF0FF" d="M 20.198 22.284 C 19.975 22.475 19.898 22.370 20.068 22.276 C 20.081 22.268 20.095 22.261 20.108 22.255 C 20.144 22.258 20.181 22.261 20.221 22.264 C 20.213 22.271 20.206 22.277 20.198 22.284 Z " stroke-width="1"/>
      <path id="ID0.2310538818128407" fill="#f1fbfe" d="M 20.457 3.912 C 20.438 3.907 20.419 3.901 20.400 3.895 C 20.423 3.874 20.446 3.855 20.470 3.836 C 20.492 3.852 20.512 3.871 20.524 3.896 C 20.502 3.902 20.480 3.907 20.457 3.912 Z " stroke-width="1"/>
      <path id="ID0.9747292539104819" fill="#DEF0FF" d="M 21.019 3.986 C 21.179 3.956 21.882 4.329 20.831 4.024 C 20.893 4.010 20.955 3.998 21.019 3.986 Z M 14.683 4.803 C 14.662 4.803 14.641 4.802 14.621 4.800 C 14.347 4.595 14.044 4.420 13.872 4.114 C 13.838 4.014 13.814 3.909 13.802 3.803 C 13.827 3.787 13.853 3.771 13.880 3.757 C 14.313 3.807 14.843 4 15.243 4 C 15.253 4 15.263 4 15.273 4 C 15.488 3.994 15.663 3.929 15.766 3.749 C 15.840 3.654 15.878 3.538 15.916 3.428 C 16.290 3.425 16.657 3.422 16.989 3.374 C 17.163 3.367 17.338 3.363 17.513 3.363 C 17.523 3.363 17.534 3.363 17.544 3.363 C 17.573 3.363 17.602 3.363 17.631 3.363 C 18.426 3.363 19.277 3.460 20.065 3.606 C 19.999 3.725 19.922 3.828 19.832 3.920 C 19.780 3.973 19.722 4.022 19.656 4.069 C 18.374 4.267 17.092 4.252 15.812 4.525 C 15.499 4.600 15.188 4.682 14.877 4.780 C 14.809 4.796 14.745 4.803 14.683 4.803 Z M 20.207 3.068 C 20.774 3.092 21.080 3.215 20.721 3.209 C 20.721 3.159 20.770 3.159 20.819 3.159 C 20.617 3.123 20.413 3.093 20.207 3.068 Z " stroke-width="1"/>
      <path id="ID0.572718947660178" fill="#f1fbfe" d="M 19.656 4.069 C 19.722 4.022 19.780 3.973 19.832 3.920 C 19.922 3.828 19.999 3.725 20.065 3.606 C 19.277 3.460 18.426 3.363 17.631 3.363 C 17.602 3.363 17.573 3.363 17.544 3.363 C 17.534 3.363 17.523 3.363 17.513 3.363 C 17.338 3.363 17.163 3.367 16.989 3.374 C 16.657 3.422 16.290 3.425 15.916 3.428 C 15.925 3.404 15.933 3.380 15.942 3.356 C 16.033 3.336 16.107 3.299 16.105 3.252 C 16.104 3.210 16.095 3.170 16.081 3.134 C 16.124 3.097 16.179 3.072 16.252 3.061 C 17.081 3.061 17.920 3.042 18.761 3.042 C 19.243 3.042 19.726 3.048 20.207 3.068 C 20.413 3.093 20.617 3.123 20.819 3.159 C 20.770 3.159 20.721 3.159 20.721 3.209 C 21.080 3.215 21.443 3.219 21.807 3.220 C 21.396 3.271 20.985 3.359 20.574 3.405 C 20.613 3.405 20.621 3.437 20.643 3.437 C 20.649 3.437 20.655 3.435 20.663 3.430 C 20.773 3.440 20.920 3.446 21.067 3.451 C 21.247 3.455 21.427 3.456 21.607 3.456 C 21.977 3.456 21.973 3.868 21.506 3.908 C 21.342 3.930 21.179 3.956 21.019 3.986 C 20.955 3.998 20.893 4.010 20.831 4.024 C 20.830 4.024 20.830 4.023 20.829 4.023 C 20.704 3.985 20.579 3.948 20.457 3.912 C 20.480 3.907 20.502 3.902 20.524 3.896 C 20.512 3.871 20.492 3.852 20.470 3.836 C 20.836 3.558 21.337 3.595 21.752 3.503 C 21.261 3.552 20.770 3.601 20.279 3.700 C 20.315 3.773 20.406 3.791 20.470 3.836 C 20.446 3.855 20.423 3.874 20.400 3.895 C 20.419 3.901 20.438 3.907 20.457 3.912 C 20.190 3.977 19.923 4.027 19.656 4.069 Z M 13.802 3.803 C 13.800 3.790 13.799 3.777 13.798 3.764 C 13.812 3.760 13.827 3.757 13.841 3.753 C 13.854 3.754 13.867 3.755 13.880 3.757 C 13.853 3.771 13.827 3.787 13.802 3.803 Z " stroke-width="1"/>
      <path id="ID0.9826801395975053" fill="#f1fbfe" d="M 3.052 16.827 C 3.048 16.826 3.044 16.826 3.040 16.825 C 3.048 16.817 3.056 16.809 3.064 16.801 C 3.060 16.810 3.056 16.819 3.052 16.827 Z M 3.036 16.824 C 2.958 16.805 2.883 16.785 2.809 16.764 C 2.924 16.607 3.180 16.513 3.336 16.419 C 3.196 16.503 3.136 16.651 3.068 16.794 C 3.057 16.804 3.047 16.814 3.036 16.824 Z " stroke-width="1"/>
      <path id="ID0.6548396316356957" fill="#f1fbfe" d="M 2.861 17.082 C 2.849 17.079 2.835 17.076 2.821 17.071 C 2.854 17.026 2.889 16.983 2.925 16.941 C 2.886 16.982 2.850 17.025 2.819 17.070 C 2.804 17.066 2.788 17.060 2.773 17.053 C 2.730 16.936 2.752 16.842 2.809 16.764 C 2.883 16.785 2.958 16.805 3.036 16.824 C 2.998 16.861 2.960 16.900 2.925 16.941 C 2.962 16.902 3.001 16.863 3.040 16.825 C 3.044 16.826 3.048 16.826 3.052 16.827 C 3.004 16.924 2.950 17.016 2.861 17.082 Z " stroke-width="1"/>
      <path id="ID0.5674072615802288" fill="#f1fbfe" d="M 13.526 4.020 C 13.530 4.016 13.535 4.012 13.539 4.007 C 13.542 4.008 13.545 4.008 13.548 4.008 C 13.541 4.012 13.533 4.016 13.526 4.020 Z M 12.791 4.019 C 12.794 4.008 12.795 4 12.798 3.992 C 12.800 3.999 12.803 4.006 12.805 4.012 C 12.801 4.015 12.796 4.017 12.791 4.019 Z " stroke-width="1"/>
      <path id="ID0.5586463012732565" fill="#f1fbfe" d="M 12.548 4.454 C 12.491 4.454 12.507 4.406 12.607 4.286 C 12.754 4.153 12.779 4.069 12.791 4.019 C 12.796 4.017 12.801 4.015 12.805 4.012 C 12.803 4.006 12.800 3.999 12.798 3.992 C 12.803 3.975 12.810 3.964 12.829 3.958 C 12.843 3.954 12.869 3.952 12.905 3.952 C 13.049 3.952 13.342 3.982 13.539 4.007 C 13.535 4.012 13.530 4.016 13.526 4.020 C 13.460 4.056 13.399 4.096 13.343 4.140 C 13.164 4.242 12.948 4.342 12.746 4.401 C 12.651 4.434 12.584 4.454 12.548 4.454 Z " stroke-width="1"/>
      <path id="ID0.3217075942084193" fill="#f1fbfe" d="M 5.153 6.931 C 4.998 6.931 4.838 6.920 5.026 6.893 C 5.035 6.892 5.043 6.891 5.052 6.890 C 5.056 6.890 5.060 6.890 5.064 6.890 C 5.110 6.893 5.155 6.896 5.201 6.898 C 5.481 6.918 5.320 6.931 5.153 6.931 Z " stroke-width="1"/>
      <path id="ID0.5011562863364816" fill="#f1fbfe" d="M 17.381 17.172 C 17.336 17.159 17.312 17.146 17.302 17.131 C 17.294 17.118 17.295 17.104 17.299 17.088 C 17.302 17.088 17.304 17.088 17.307 17.089 C 17.313 17.113 17.328 17.134 17.354 17.151 C 17.361 17.159 17.370 17.166 17.381 17.172 Z " stroke-width="1"/>
      <path id="ID0.4085474656894803" fill="#f1fbfe" d="M 14.178 13.212 C 14.193 13.188 14.210 13.165 14.229 13.141 C 14.231 13.139 14.233 13.138 14.234 13.138 C 14.239 13.138 14.222 13.160 14.178 13.212 Z " stroke-width="1"/>
      <path id="ID0.5213235206902027" fill="#DEF0FF" d="M 21.302 22.151 C 21.474 22.151 21.320 22.339 20.910 22.311 C 20.905 22.307 20.900 22.303 20.896 22.299 C 20.809 22.217 20.914 22.151 21.302 22.151 Z " stroke-width="1"/>
      <path id="ID0.14671025099232793" fill="#f1fbfe" d="M 13.944 13.571 C 13.944 13.534 13.951 13.498 13.963 13.462 C 14.023 13.344 14.190 13.164 14.229 13.141 C 14.210 13.165 14.193 13.188 14.178 13.212 C 14.139 13.282 14.105 13.340 14.077 13.388 C 14.024 13.441 13.970 13.492 13.944 13.571 Z " stroke-width="1"/>
      <path id="ID0.6964940596371889" fill="#f1fbfe" d="M 14.977 8.023 C 14.942 8.023 14.907 8.022 14.872 8.020 C 14.869 8.019 14.866 8.018 14.863 8.018 C 14.865 8.018 14.867 8.019 14.869 8.020 C 14.867 8.019 14.865 8.018 14.863 8.018 C 14.691 7.966 14.514 7.920 14.340 7.872 C 14.514 7.920 14.691 7.966 14.863 8.018 C 14.807 7.992 14.749 7.968 14.691 7.945 C 14.788 7.967 14.883 7.992 14.977 8.023 Z " stroke-width="1"/>
      <path id="ID0.6044516768306494" fill="#f1fbfe" d="M 17.407 16.928 C 17.415 16.919 17.422 16.910 17.427 16.900 C 17.426 16.909 17.424 16.917 17.421 16.925 C 17.416 16.926 17.412 16.927 17.407 16.928 Z " stroke-width="1"/>
      <path id="ID0.536487178876996" fill="#f1fbfe" d="M 17.331 17.003 C 17.333 16.995 17.335 16.988 17.338 16.980 C 17.364 16.965 17.388 16.948 17.407 16.928 C 17.412 16.927 17.416 16.926 17.421 16.925 C 17.407 16.967 17.377 16.993 17.331 17.003 Z " stroke-width="1"/>
      <path id="ID0.8336729505099356" fill="#f1fbfe" d="M 14.484 21.232 C 14.288 21.232 14.091 21.232 13.895 21.232 C 13.895 21.231 13.895 21.231 13.895 21.231 C 13.895 21.231 13.895 21.230 13.896 21.230 C 13.896 21.230 13.896 21.230 13.896 21.230 C 13.896 21.229 13.897 21.228 13.897 21.227 C 13.925 21.176 13.967 21.168 14.011 21.168 L 14.012 21.168 C 14.022 21.168 14.032 21.168 14.043 21.168 C 14.048 21.169 14.054 21.169 14.060 21.169 C 14.064 21.169 14.067 21.169 14.071 21.169 C 14.072 21.169 14.073 21.169 14.073 21.169 C 14.074 21.169 14.075 21.169 14.076 21.169 C 14.212 21.187 14.348 21.208 14.484 21.232 Z " stroke-width="1"/>
      <path id="ID0.8920196546241641" fill="#f1fbfe" d="M 14.115 13.348 C 14.135 13.306 14.160 13.265 14.189 13.227 C 14.173 13.276 14.145 13.314 14.115 13.348 Z " stroke-width="1"/>
      <path id="ID0.31033529667183757" fill="#DEF0FF" d="M 1.806 12.591 C 0.574 12.591 1.668 11.873 2.554 11.796 C 2.564 11.799 2.574 11.802 2.583 11.805 C 2.755 11.800 2.925 11.784 3.091 11.754 C 3.126 11.748 3.161 11.742 3.196 11.737 C 3.232 11.778 3.269 11.821 3.298 11.866 C 3.150 11.909 3.007 11.958 2.894 12.048 C 3.048 12.037 3.201 12.025 3.354 12.012 C 3.359 12.054 3.354 12.098 3.336 12.146 C 3.336 12.196 3.484 12.196 3.550 12.209 C 3.616 12.213 3.683 12.215 3.750 12.215 C 3.650 12.150 3.551 12.080 3.459 12.003 C 5.141 11.858 6.796 11.622 8.480 11.411 C 8.647 11.410 8.815 11.410 8.984 11.410 C 8.931 11.478 8.874 11.539 8.816 11.594 C 8.726 11.631 8.634 11.668 8.542 11.704 C 8.542 11.737 8.542 11.770 8.561 11.786 C 8.183 12.013 7.728 12.067 7.250 12.067 C 7.033 12.067 6.811 12.056 6.589 12.045 C 6.368 12.034 6.146 12.023 5.930 12.023 C 5.653 12.023 5.385 12.041 5.135 12.101 C 4.940 12.116 4.799 12.135 4.667 12.153 C 4.405 12.187 4.153 12.210 3.909 12.215 C 3.879 12.216 3.849 12.216 3.818 12.216 C 3.795 12.216 3.773 12.216 3.750 12.215 C 3.857 12.285 3.965 12.352 4.072 12.420 C 4.071 12.420 4.070 12.420 4.070 12.420 C 4.031 12.420 3.993 12.419 3.954 12.416 C 3.751 12.414 3.578 12.404 3.405 12.388 C 3.258 12.374 3.111 12.354 2.963 12.330 C 2.966 12.310 2.967 12.290 2.967 12.271 C 2.967 12.228 2.960 12.186 2.943 12.146 C 2.943 12.113 2.785 11.990 2.668 11.975 C 2.661 11.974 2.653 11.973 2.646 11.973 C 2.646 11.973 2.646 11.973 2.646 11.973 C 2.601 11.973 2.565 11.993 2.551 12.046 C 2.551 12.046 2.551 12.046 2.551 12.046 C 2.551 12.046 2.551 12.046 2.551 12.046 C 2.551 12.047 2.551 12.047 2.551 12.047 C 2.551 12.048 2.551 12.048 2.550 12.048 C 2.550 12.049 2.550 12.050 2.550 12.051 C 2.549 12.051 2.549 12.051 2.549 12.052 C 2.508 12.186 2.669 12.319 2.837 12.319 L 2.837 12.319 C 2.852 12.319 2.867 12.318 2.882 12.316 C 2.909 12.321 2.936 12.325 2.963 12.330 C 2.946 12.459 2.878 12.597 2.823 12.732 C 2.497 12.630 2.156 12.591 1.806 12.591 Z M 3.308 11.863 C 3.270 11.823 3.233 11.781 3.198 11.736 C 3.310 11.719 3.421 11.705 3.531 11.692 C 3.619 11.684 3.707 11.678 3.768 11.678 C 3.779 11.678 3.789 11.678 3.798 11.678 C 3.657 11.771 3.480 11.814 3.308 11.863 Z " stroke-width="1"/>
      <path id="ID0.7238578274846077" fill="#f1fbfe" d="M 3.750 12.215 C 3.683 12.215 3.616 12.213 3.550 12.209 C 3.484 12.196 3.336 12.196 3.336 12.146 C 3.354 12.098 3.359 12.054 3.354 12.012 C 3.389 12.009 3.424 12.006 3.459 12.003 C 3.551 12.080 3.650 12.150 3.750 12.215 Z M 3.298 11.866 C 3.269 11.821 3.232 11.778 3.196 11.737 C 3.196 11.737 3.197 11.737 3.198 11.736 C 3.233 11.781 3.270 11.823 3.308 11.863 C 3.305 11.864 3.302 11.865 3.298 11.866 Z " stroke-width="1"/>
      <path id="ID0.6555859697982669" fill="#f1fbfe" d="M 4.824 12.431 C 4.732 12.405 4.640 12.397 4.548 12.397 C 4.469 12.397 4.391 12.403 4.311 12.408 C 4.232 12.414 4.153 12.420 4.072 12.420 C 3.965 12.352 3.857 12.285 3.750 12.215 C 3.773 12.216 3.795 12.216 3.818 12.216 C 3.849 12.216 3.879 12.216 3.909 12.215 C 4.153 12.210 4.405 12.187 4.667 12.153 C 4.799 12.135 4.940 12.116 5.135 12.101 C 5.385 12.041 5.653 12.023 5.930 12.023 C 6.146 12.023 6.368 12.034 6.589 12.045 C 6.811 12.056 7.033 12.067 7.250 12.067 C 7.728 12.067 8.183 12.013 8.561 11.786 C 8.569 11.794 8.581 11.798 8.598 11.798 C 8.601 11.798 8.604 11.798 8.607 11.797 C 8.737 11.832 8.901 11.859 9.068 11.880 C 9.160 11.891 9.253 11.901 9.347 11.909 C 7.865 12.160 6.345 12.297 4.824 12.431 Z M 8.816 11.594 C 8.874 11.539 8.931 11.478 8.984 11.410 C 9.065 11.410 9.147 11.410 9.229 11.410 C 9.107 11.471 8.965 11.533 8.816 11.594 Z " stroke-width="1"/>
      <path id="ID0.17703644977882504" fill="#f1fbfe" d="M 3.040 16.825 C 3.039 16.824 3.038 16.824 3.036 16.824 C 3.047 16.814 3.057 16.804 3.068 16.794 C 3.079 16.784 3.091 16.773 3.103 16.763 C 3.090 16.775 3.077 16.788 3.064 16.801 C 3.056 16.809 3.048 16.817 3.040 16.825 Z " stroke-width="1"/>
      <path id="ID0.8745328057557344" fill="#f1fbfe" d="M 2.925 16.941 C 2.960 16.900 2.998 16.861 3.036 16.824 C 3.038 16.824 3.039 16.824 3.040 16.825 C 3.001 16.863 2.962 16.902 2.925 16.941 Z " stroke-width="1"/>
      <path id="ID0.5388006903231144" fill="#f1fbfe" d="M 2.963 12.330 C 2.936 12.325 2.909 12.321 2.882 12.316 C 2.867 12.318 2.852 12.319 2.837 12.319 C 2.837 12.319 2.837 12.319 2.837 12.319 C 2.837 12.319 2.837 12.319 2.837 12.319 C 2.669 12.319 2.508 12.186 2.549 12.052 C 2.549 12.051 2.549 12.051 2.550 12.051 C 2.550 12.050 2.550 12.049 2.550 12.048 C 2.551 12.048 2.551 12.048 2.551 12.047 C 2.551 12.047 2.551 12.047 2.551 12.046 C 2.551 12.046 2.551 12.046 2.551 12.046 C 2.551 12.046 2.551 12.046 2.551 12.046 C 2.565 11.993 2.601 11.973 2.646 11.973 C 2.646 11.973 2.646 11.973 2.646 11.973 C 2.653 11.973 2.661 11.974 2.668 11.975 C 2.785 11.990 2.943 12.113 2.943 12.146 C 2.960 12.186 2.967 12.228 2.967 12.271 C 2.967 12.290 2.966 12.310 2.963 12.330 Z " stroke-width="1"/>
      <path id="ID0.17156679090112448" fill="#DEF0FF" d="M 13.690 21.849 C 13.603 22.245 12.549 22.558 12.274 22.165 C 12.127 21.919 12.569 21.772 12.765 21.575 C 12.439 21.575 12.112 21.575 11.769 21.587 C 11.608 21.226 10.844 21.243 10.219 21.184 C 10.300 21.182 10.383 21.178 10.473 21.172 C 10.250 21.136 10.058 21.108 9.911 21.084 C 9.764 21.060 9.638 21.042 9.511 21.026 C 9.328 21.004 9.144 20.988 8.961 20.969 C 9.066 20.986 9.172 21.002 9.278 21.018 C 9.407 21.039 9.536 21.060 9.665 21.083 C 9.815 21.137 10.009 21.165 10.219 21.184 C 10.009 21.165 9.815 21.137 9.665 21.083 C 9.536 21.060 9.407 21.039 9.278 21.018 C 9.172 21.002 9.066 20.986 8.961 20.969 C 8.763 20.949 8.565 20.925 8.370 20.886 C 8.565 20.925 8.763 20.949 8.961 20.969 C 8.749 20.937 8.537 20.903 8.327 20.863 C 8.217 20.808 8.101 20.765 7.982 20.725 C 7.914 20.703 7.845 20.682 7.776 20.660 C 7.958 20.809 8.175 20.931 8.394 21.011 C 8.372 21.014 8.349 21.015 8.326 21.015 C 8.260 21.015 8.194 21.005 8.130 20.998 C 8.100 20.995 8.070 20.993 8.041 20.993 C 7.974 20.993 7.911 21.005 7.856 21.047 C 7.210 20.904 6.594 20.773 6.070 20.711 C 5.851 20.531 5.632 20.357 5.413 20.210 C 5.419 20.207 5.424 20.203 5.430 20.200 C 5.420 20.200 5.409 20.200 5.399 20.200 C 5.403 20.203 5.408 20.207 5.413 20.210 C 5.296 20.273 5.243 20.365 5.301 20.495 C 5.329 20.564 5.371 20.623 5.423 20.676 C 4.968 20.690 4.650 20.812 4.546 21.110 C 4.121 21.085 3.695 21.027 3.287 20.986 C 3.341 21.009 3.395 21.026 3.450 21.039 C 3.347 21.041 3.244 21.069 3.140 21.133 C 3.189 21.232 3.336 21.330 3.336 21.330 C 3.129 21.421 2.917 21.494 2.704 21.551 C 2.663 21.519 2.621 21.486 2.581 21.453 C 2.199 20.501 2.433 19.855 2.845 20.249 C 2.922 20.326 3.004 20.357 3.090 20.357 C 3.389 20.357 3.741 19.993 4.122 19.955 C 4.269 19.955 4.417 19.955 4.564 19.955 C 3.745 19.696 3.153 19.173 2.523 18.617 C 3.490 19.167 4.698 19.350 5.746 19.799 C 5.693 19.882 5.674 19.988 5.706 20.119 C 5.599 20.138 5.504 20.164 5.430 20.200 C 5.527 20.201 5.655 20.206 5.754 20.254 C 5.732 20.206 5.717 20.162 5.706 20.119 C 5.869 20.091 6.059 20.081 6.243 20.081 C 6.264 20.081 6.286 20.081 6.307 20.081 C 6.313 20.085 6.320 20.088 6.326 20.091 C 6.563 20.221 6.804 20.314 7.096 20.394 C 7.077 20.395 7.059 20.396 7.040 20.398 C 7.151 20.496 7.229 20.496 7.323 20.545 C 7.265 20.499 7.207 20.453 7.150 20.408 C 7.160 20.411 7.169 20.413 7.178 20.416 C 7.210 20.436 7.244 20.455 7.278 20.473 C 7.429 20.551 7.601 20.606 7.776 20.660 C 7.720 20.614 7.667 20.566 7.619 20.516 C 7.740 20.541 7.870 20.565 8.010 20.591 C 8.402 20.664 8.877 20.744 9.474 20.854 C 11.009 21.111 12.543 20.966 14.076 21.169 C 14.075 21.169 14.074 21.169 14.073 21.169 C 14.073 21.169 14.072 21.169 14.071 21.169 C 14.067 21.169 14.064 21.169 14.060 21.169 C 14.054 21.169 14.048 21.169 14.043 21.168 C 14.032 21.168 14.022 21.168 14.012 21.168 L 14.011 21.168 C 13.967 21.168 13.925 21.176 13.897 21.227 C 13.897 21.228 13.896 21.229 13.896 21.230 C 13.896 21.230 13.896 21.230 13.896 21.230 C 13.895 21.230 13.895 21.231 13.895 21.231 C 13.895 21.231 13.895 21.231 13.895 21.232 C 14.091 21.232 14.288 21.232 14.484 21.232 C 14.348 21.208 14.212 21.187 14.076 21.169 C 14.090 21.169 14.104 21.168 14.117 21.165 C 14.487 21.096 14.639 20.987 14.657 20.851 C 14.675 20.715 14.560 20.552 14.397 20.376 C 14.337 20.299 14.238 20.200 14.238 20.102 C 14.435 19.513 14.091 19.218 13.949 18.668 C 14.069 18.562 14.191 18.467 14.270 18.373 C 14.349 18.279 14.386 18.187 14.337 18.089 C 14.326 18.080 14.315 18.071 14.304 18.063 C 14.320 18.056 14.335 18.049 14.351 18.042 C 14.423 18.010 14.496 17.979 14.570 17.949 C 14.494 18.167 14.481 18.402 14.596 18.650 C 14.664 18.775 14.727 18.900 14.790 19.025 C 15.107 19.649 15.424 20.273 16.291 20.941 C 16.993 21.036 17.717 21.134 18.438 21.221 C 18.799 21.264 19.159 21.304 19.594 21.340 C 19.649 21.344 19.703 21.348 19.758 21.352 C 19.807 21.414 19.827 21.492 19.810 21.597 C 19.885 21.574 19.959 21.551 20.033 21.526 C 20.073 21.526 20.017 21.430 19.967 21.367 C 20.978 21.438 20.956 22.069 20.449 22.022 C 20.458 22.021 20.467 22.019 20.475 22.017 C 20.388 21.986 20.300 21.960 20.210 21.937 C 20.233 21.947 20.256 21.957 20.279 21.968 C 20.245 21.977 20.211 21.985 20.178 21.993 C 20.110 21.986 20.043 21.978 19.977 21.970 C 19.891 21.926 19.765 21.888 19.737 21.851 C 19.525 21.825 19.308 21.811 19.091 21.796 C 19.308 21.811 19.525 21.825 19.737 21.851 C 19.897 21.871 20.055 21.898 20.210 21.937 C 20.057 21.871 19.900 21.835 19.741 21.815 L 19.739 21.821 C 19.733 21.826 19.731 21.831 19.731 21.837 C 19.731 21.831 19.733 21.826 19.739 21.821 L 19.741 21.815 C 19.778 21.731 19.801 21.659 19.810 21.597 C 19.581 21.669 19.352 21.732 19.122 21.789 C 19.034 21.787 18.947 21.785 18.861 21.780 C 18.938 21.786 19.014 21.791 19.091 21.796 C 19.025 21.812 18.960 21.828 18.894 21.843 C 17.746 21.712 16.615 21.605 15.596 21.605 C 15.042 21.605 14.521 21.636 14.047 21.713 C 13.879 21.740 13.762 21.787 13.690 21.849 Z M 18.756 21.772 C 18.791 21.775 18.826 21.778 18.861 21.780 C 18.826 21.777 18.791 21.775 18.756 21.772 Z M 3.478 22.187 C 3.443 22.152 3.406 22.117 3.368 22.082 C 3.495 22.094 3.622 22.105 3.750 22.114 C 3.740 22.113 3.730 22.113 3.721 22.113 C 3.617 22.113 3.539 22.141 3.478 22.187 Z M 3.778 22.116 C 3.769 22.115 3.759 22.114 3.750 22.114 C 3.759 22.114 3.769 22.115 3.778 22.116 Z M 4.512 21.689 C 4.503 21.686 4.494 21.683 4.485 21.680 C 4.494 21.681 4.503 21.683 4.511 21.684 C 4.512 21.685 4.512 21.687 4.512 21.689 Z M 4.243 21.318 C 4.079 21.245 3.904 21.143 3.723 21.084 C 3.937 21.112 4.148 21.139 4.328 21.289 C 4.302 21.301 4.273 21.310 4.243 21.318 Z M 10.062 21.187 C 10.062 21.187 10.062 21.187 10.062 21.187 C 10.062 21.187 10.062 21.187 10.062 21.187 Z M 10.061 21.187 C 9.810 21.187 9.598 21.168 9.414 21.138 C 9.598 21.168 9.810 21.187 10.061 21.187 Z M 10.214 21.185 C 10.215 21.184 10.217 21.184 10.219 21.184 C 10.217 21.184 10.215 21.184 10.214 21.185 Z M 9.409 21.137 C 9.409 21.137 9.409 21.137 9.409 21.137 C 9.409 21.137 9.409 21.137 9.409 21.137 Z M 21.933 17.824 C 21.736 17.750 21.535 17.693 21.337 17.651 C 21.134 17.594 20.941 17.542 20.712 17.500 C 20.069 17.411 19.440 17.411 18.796 17.372 C 19.101 17.330 19.407 17.290 19.713 17.254 C 19.717 17.264 19.801 17.269 19.988 17.269 C 19.992 17.269 19.996 17.269 20 17.269 C 20.229 17.343 20.519 17.361 20.790 17.361 C 20.908 17.361 21.023 17.357 21.128 17.354 C 21.232 17.351 21.327 17.348 21.405 17.348 C 21.430 17.348 21.454 17.348 21.476 17.349 C 21.752 17.364 21.974 17.426 21.949 17.794 C 21.944 17.804 21.939 17.814 21.933 17.824 Z M 8.526 17.556 C 8.415 17.556 8.306 17.554 8.198 17.548 C 8.591 17.352 9.033 17.352 9.434 17.185 C 9.519 17.139 9.533 17.102 9.459 17.067 C 9.345 17.058 9.231 17.046 9.116 17.031 C 9.206 17.027 9.297 17.025 9.389 17.025 C 9.499 17.025 9.611 17.027 9.722 17.030 C 9.834 17.032 9.945 17.034 10.057 17.034 C 10.129 17.034 10.201 17.033 10.273 17.031 C 10.745 17.036 11.115 17.077 11.458 17.148 C 11.720 17.202 11.970 17.273 12.202 17.362 C 12.058 17.354 11.914 17.350 11.768 17.350 C 11.228 17.350 10.672 17.402 10.125 17.453 C 9.577 17.505 9.037 17.556 8.526 17.556 Z M 12.860 17.188 C 12.428 17.188 12.003 17.052 11.576 16.922 C 11.475 16.891 11.373 16.860 11.272 16.832 C 12.315 16.744 13.350 16.623 14.386 16.517 C 14.337 16.419 14.312 16.308 14.338 16.216 C 14.364 16.123 14.441 16.049 14.595 16.022 C 14.923 15.902 15.034 15.776 15.008 15.636 C 14.956 15.354 14.357 15.013 13.853 14.537 C 13.741 14.432 13.630 14.325 13.516 14.218 C 13.602 14.220 13.687 14.222 13.771 14.222 C 13.946 14.222 14.118 14.215 14.288 14.200 C 14.398 14.357 14.526 14.517 14.676 14.676 C 14.912 14.929 15.203 15.181 15.562 15.418 C 15.716 15.519 15.917 15.619 16.224 15.716 C 16.446 15.787 16.676 15.850 16.910 15.910 C 17.096 15.980 17.134 16.080 17.019 16.212 C 16.904 16.345 16.722 16.492 16.561 16.637 C 16.510 16.709 16.490 16.768 16.490 16.816 C 15.986 16.848 15.485 16.913 14.991 17.055 C 14.805 17.055 14.620 17.059 14.435 17.067 C 14.203 17.070 14.038 17.072 13.877 17.078 C 13.716 17.083 13.559 17.093 13.405 17.107 C 13.222 17.165 13.040 17.188 12.860 17.188 Z M 13.277 13.880 C 13.319 12.450 11.609 12.634 10.531 12.480 C 10.369 12.449 10.223 12.419 10.076 12.392 C 9.890 12.358 9.703 12.328 9.516 12.301 C 9.446 12.238 9.386 12.161 9.393 12.073 C 9.446 12.052 9.562 12.045 9.696 12.045 C 9.743 12.045 9.791 12.046 9.841 12.048 C 10.031 12.053 10.212 12.067 10.378 12.086 C 11.292 12.196 12.176 12.441 13.080 12.620 C 13.357 12.682 13.637 12.747 13.919 12.810 C 14.099 12.820 14.274 12.854 14.443 12.908 C 14.286 13.086 14.034 13.260 13.963 13.462 C 13.951 13.498 13.944 13.534 13.944 13.571 C 13.970 13.492 14.024 13.441 14.077 13.388 C 14.090 13.375 14.102 13.362 14.115 13.348 C 14.040 13.500 14.021 13.673 14.083 13.855 C 13.813 13.870 13.545 13.878 13.277 13.880 Z M 22.061 11.936 C 22.160 11.905 21.784 12.833 21.449 13.048 C 21.405 13.020 21.361 12.991 21.318 12.960 C 21.218 12.880 21.119 12.810 21.013 12.749 C 20.802 12.626 20.564 12.541 20.308 12.494 C 20.160 12.471 20.008 12.452 19.856 12.440 C 19.790 12.382 19.728 12.323 19.670 12.265 C 19.602 12.256 19.534 12.248 19.468 12.240 C 19.510 12.202 19.552 12.163 19.594 12.125 C 19.706 12.025 19.818 11.924 19.930 11.823 C 20.058 11.727 20.189 11.640 20.323 11.560 C 21.590 11.354 21.850 11.213 21.801 11.950 C 21.790 11.984 21.802 11.997 21.832 11.997 C 21.877 11.997 21.963 11.967 22.061 11.936 Z M 14.599 12.341 C 13.937 12.198 13.216 12.055 12.578 11.744 C 13.805 11.651 15.024 11.561 16.190 11.202 C 16.970 11.495 17.803 11.647 18.647 11.672 C 18.553 11.807 18.414 11.906 18.462 12.097 C 18.357 12.097 18.254 12.103 18.153 12.113 C 17.660 12.077 17.163 12.054 16.668 12.054 C 16.433 12.054 16.199 12.059 15.966 12.071 C 15.666 12.085 15.369 12.110 15.088 12.145 C 15.073 12.146 15.024 12.146 15.024 12.146 C 15.054 12.154 15.083 12.157 15.113 12.157 C 15.171 12.157 15.228 12.146 15.286 12.134 C 15.344 12.123 15.402 12.112 15.459 12.112 C 15.511 12.112 15.562 12.121 15.614 12.146 C 15.275 12.273 14.937 12.255 14.599 12.341 Z M 15.636 11.170 C 15.528 11.170 15.422 11.143 15.319 11.066 C 15.270 11.017 15.368 10.821 15.319 10.722 C 14.979 10.290 14.504 10.052 14.098 9.753 C 14.851 9.430 15.492 9.038 15.270 8.316 C 15.348 8.306 15.427 8.295 15.505 8.284 C 15.832 8.484 16.044 8.784 16.006 9.298 C 16.006 9.544 15.614 9.593 15.368 9.593 C 15.908 9.789 16.105 10.329 15.662 10.766 C 15.628 10.844 15.628 10.914 15.656 10.977 C 15.759 11.025 15.862 11.071 15.967 11.114 C 15.855 11.143 15.744 11.170 15.636 11.170 Z M 4.110 9.795 C 4.131 9.735 4.145 9.671 4.147 9.598 C 4.118 9.493 4.041 9.393 3.912 9.341 C 3.820 9.299 3.717 9.258 3.612 9.217 C 3.611 9.217 3.609 9.216 3.607 9.215 C 3.855 9.139 4.113 9.029 4.373 8.902 C 4.435 8.944 4.496 8.986 4.554 9.028 C 4.670 9.345 4.365 9.608 4.110 9.795 Z M 13.617 9.299 C 13.572 9.239 13.530 9.175 13.492 9.106 C 13.358 8.863 13.203 8.633 13.028 8.418 C 12.888 8.244 12.734 8.080 12.567 7.926 C 12.689 7.922 12.811 7.918 12.931 7.914 C 13.235 7.903 13.528 7.893 13.791 7.893 C 13.992 7.893 14.175 7.899 14.332 7.916 C 14.470 7.956 14.609 7.989 14.747 8.020 C 14.866 8.084 14.917 8.179 14.877 8.316 C 14.727 8.810 14.229 9.078 13.617 9.299 Z M 21.703 8.288 C 22.179 8.302 21.007 8.570 20.379 8.428 C 20.772 8.395 21.145 8.361 21.458 8.329 C 21.538 8.310 21.620 8.298 21.703 8.288 C 21.687 8.288 21.670 8.288 21.654 8.287 C 21.811 8.272 21.968 8.254 22.123 8.228 C 22.147 8.232 21.868 8.269 21.703 8.288 Z M 2.057 8.754 C 1.988 8.749 1.920 8.745 1.852 8.740 C 1.875 8.458 2.741 6.545 3.042 6.499 C 3.884 6.419 4.693 6.306 5.530 6.306 C 5.718 6.306 5.907 6.312 6.098 6.325 C 6.212 6.334 6.327 6.343 6.441 6.354 C 6.499 6.359 6.558 6.364 6.616 6.370 C 6.321 6.519 6.042 6.706 5.787 6.944 C 5.596 6.927 5.401 6.911 5.201 6.898 C 5.163 6.896 5.118 6.893 5.064 6.890 C 5.060 6.890 5.056 6.890 5.052 6.890 C 5.042 6.891 5.034 6.892 5.026 6.893 C 4.876 6.913 4.737 6.933 4.607 6.956 C 4.171 7.039 3.729 7.186 3.287 7.383 C 2.943 7.579 3.042 7.874 3.324 8.091 C 3.346 8.111 3.368 8.132 3.390 8.153 C 2.594 8.230 1.883 8.309 2.057 8.754 Z M 20.353 8.422 C 20.351 8.422 20.348 8.421 20.345 8.420 C 20.450 8.402 20.556 8.387 20.663 8.375 C 20.555 8.391 20.451 8.407 20.353 8.422 Z M 20.273 8.404 C 20.254 8.400 20.235 8.395 20.216 8.391 C 20.198 8.352 20.181 8.316 20.181 8.316 C 20.388 8.194 20.602 8.105 20.821 8.042 C 20.616 8.121 20.430 8.237 20.273 8.404 Z M 20.132 8.371 C 19.495 8.218 18.869 8.034 18.252 7.822 C 18.760 7.755 19.266 7.706 19.772 7.682 C 19.802 7.691 19.832 7.699 19.861 7.707 C 19.746 7.820 19.493 7.797 19.493 8.070 C 19.542 8.169 19.677 8.205 19.825 8.248 C 19.928 8.278 20.036 8.311 20.132 8.371 Z M 17.308 7.472 C 17.307 7.471 17.305 7.470 17.303 7.470 C 17.394 7.447 17.486 7.420 17.578 7.383 C 17.460 7.401 17.341 7.419 17.224 7.438 C 16.947 7.327 16.672 7.210 16.399 7.088 C 16.289 7.014 16.150 6.968 16.031 6.968 C 15.991 6.968 15.953 6.973 15.920 6.984 C 15.843 6.979 15.766 6.976 15.689 6.976 C 15.597 6.976 15.504 6.980 15.412 6.989 C 15.245 7.004 15.078 7.034 14.917 7.082 C 14.673 7.158 14.424 7.283 14.231 7.460 C 14.182 7.451 14.133 7.444 14.084 7.436 C 13.784 7.410 13.484 7.400 13.183 7.393 C 12.883 7.386 12.583 7.382 12.284 7.365 C 11.986 7.349 11.690 7.322 11.396 7.269 C 11.188 7.281 10.974 7.285 10.757 7.285 C 10.606 7.285 10.454 7.283 10.300 7.279 C 9.656 7.201 9.021 7.178 8.461 7.178 C 7.800 7.178 7.144 7.093 6.433 7.012 C 6.532 6.931 6.593 6.850 6.631 6.769 C 6.654 6.625 6.678 6.496 6.706 6.379 C 6.964 6.405 7.224 6.434 7.486 6.466 C 8.887 6.634 10.286 6.827 11.601 6.857 C 11.630 6.858 11.658 6.858 11.686 6.858 C 12.346 6.858 12.678 6.671 12.794 6.385 C 12.835 6.286 12.849 6.175 12.842 6.056 C 12.753 5.504 12.776 4.903 13.052 4.463 C 13.131 4.398 13.222 4.366 13.277 4.332 C 13.351 4.213 13.435 4.110 13.526 4.020 C 13.533 4.016 13.541 4.012 13.548 4.008 C 13.546 4.008 13.543 4.007 13.541 4.006 C 13.611 3.939 13.685 3.880 13.763 3.828 C 13.787 3.935 13.825 4.030 13.872 4.114 C 14.044 4.420 14.347 4.595 14.621 4.800 C 14.675 4.841 14.728 4.883 14.779 4.927 C 14.435 5.222 13.698 5.026 13.913 5.718 C 13.988 5.885 14.079 6.059 14.196 6.219 C 14.235 6.273 14.277 6.325 14.323 6.375 C 14.435 6.548 14.631 6.646 14.779 6.646 C 15.284 6.730 15.780 6.812 16.269 6.897 C 16.417 6.929 16.567 6.961 16.705 6.995 C 17.204 7.045 17.717 7.147 18.238 7.273 C 18.081 7.305 17.870 7.347 17.616 7.395 C 17.671 7.393 17.724 7.390 17.775 7.387 C 17.620 7.416 17.464 7.444 17.308 7.472 Z M 3.848 2.450 C 3.104 2.450 3.926 1.883 5.448 2.079 C 5.595 2.079 5.644 2.226 5.709 2.347 C 5.809 2.373 5.956 2.399 6.115 2.426 C 6.273 2.454 6.433 2.482 6.594 2.512 C 6.789 2.549 6.985 2.586 7.188 2.627 C 7.332 2.663 7.478 2.691 7.623 2.713 C 7.818 2.754 8.036 2.796 8.360 2.838 C 7.833 2.969 7.293 3.063 6.778 3.216 C 6.744 3.204 6.711 3.193 6.678 3.180 C 6.358 3.114 6.045 3.048 6.021 2.979 C 6.135 2.767 6.332 2.816 6.479 2.717 C 5.602 2.505 4.725 2.450 3.848 2.450 Z M 12.421 3.638 C 11.920 3.621 11.421 3.607 10.921 3.589 C 10.933 3.534 10.952 3.476 10.980 3.415 C 11.029 3.308 11.102 3.191 11.189 3.070 C 11.677 3.096 12.164 3.122 12.650 3.160 C 12.606 3.175 12.563 3.191 12.520 3.209 C 12.421 3.258 12.274 3.356 12.274 3.454 C 12.304 3.530 12.358 3.587 12.421 3.638 Z " stroke-width="1"/>
      <path id="ID0.039266048930585384" fill="#f1fbfe" d="M 17.616 7.395 C 17.870 7.347 18.081 7.305 18.238 7.273 C 18.255 7.277 18.273 7.281 18.291 7.286 C 18.119 7.321 17.947 7.354 17.775 7.387 C 17.724 7.390 17.671 7.393 17.616 7.395 Z " stroke-width="1"/>
      <path id="ID0.14032993791624904" fill="#f1fbfe" d="M 21.550 16.829 C 21.634 16.832 21.752 17.364 21.476 17.349 C 21.454 17.348 21.430 17.348 21.405 17.348 C 21.327 17.348 21.232 17.351 21.128 17.354 C 21.023 17.357 20.908 17.361 20.790 17.361 C 20.519 17.361 20.229 17.343 20 17.269 C 19.996 17.269 19.992 17.269 19.988 17.269 C 19.801 17.269 19.717 17.264 19.713 17.254 C 19.407 17.290 19.101 17.330 18.796 17.372 C 18.367 17.346 17.931 17.303 17.480 17.205 C 17.437 17.198 17.405 17.186 17.381 17.172 C 17.370 17.166 17.361 17.159 17.354 17.151 C 17.336 17.134 17.327 17.113 17.323 17.091 C 17.540 17.120 17.758 17.132 17.978 17.132 C 18.531 17.132 19.094 17.055 19.656 16.978 C 20.218 16.902 20.779 16.825 21.331 16.825 C 21.404 16.825 21.477 16.826 21.550 16.829 Z M 14.304 18.063 C 13.691 17.590 12.968 17.408 12.202 17.362 C 11.970 17.273 11.720 17.202 11.458 17.148 C 11.115 17.077 10.745 17.036 10.273 17.031 C 10.201 17.033 10.129 17.034 10.057 17.034 C 9.945 17.034 9.834 17.032 9.722 17.030 C 9.611 17.027 9.499 17.025 9.389 17.025 C 9.297 17.025 9.206 17.027 9.116 17.031 C 9.058 17.024 8.999 17.015 8.941 17.007 C 8.843 16.992 8.746 16.976 8.648 16.959 C 9.531 16.957 10.404 16.905 11.272 16.832 C 11.373 16.860 11.475 16.891 11.576 16.922 C 12.003 17.052 12.428 17.188 12.860 17.188 C 13.040 17.188 13.222 17.165 13.405 17.107 C 13.559 17.093 13.716 17.083 13.877 17.078 C 14.038 17.072 14.203 17.070 14.435 17.067 C 14.620 17.059 14.805 17.055 14.991 17.055 C 14.887 17.085 14.784 17.118 14.680 17.156 C 14.779 17.205 14.926 17.205 15.024 17.205 C 14.891 17.382 14.739 17.579 14.635 17.793 C 14.633 17.794 14.632 17.794 14.631 17.794 C 14.632 17.794 14.633 17.794 14.634 17.794 C 14.610 17.845 14.588 17.896 14.570 17.949 C 14.496 17.979 14.423 18.010 14.351 18.042 C 14.335 18.049 14.320 18.056 14.304 18.063 Z " stroke-width="1"/>
      <path id="ID0.8960366435348988" fill="#f1fbfe" d="M 21.090 13.236 C 20.856 13.236 20.564 12.988 20.342 12.826 C 20.215 12.735 20.095 12.642 19.982 12.548 C 19.939 12.512 19.897 12.476 19.856 12.440 C 20.008 12.452 20.160 12.471 20.308 12.494 C 20.564 12.541 20.802 12.626 21.013 12.749 C 21.119 12.810 21.218 12.880 21.318 12.960 C 21.361 12.991 21.405 13.020 21.449 13.048 C 21.387 13.087 21.325 13.130 21.261 13.178 C 21.210 13.219 21.152 13.236 21.090 13.236 Z M 14.443 12.908 C 14.274 12.854 14.099 12.820 13.919 12.810 C 13.637 12.747 13.357 12.682 13.080 12.620 C 12.176 12.441 11.292 12.196 10.378 12.086 C 10.212 12.067 10.031 12.053 9.841 12.048 C 9.791 12.046 9.743 12.045 9.696 12.045 C 9.562 12.045 9.446 12.052 9.393 12.073 C 9.386 12.161 9.446 12.238 9.516 12.301 C 9.408 12.286 9.300 12.271 9.192 12.258 C 9.043 12.239 8.895 12.221 8.746 12.204 C 8.741 12.203 8.736 12.203 8.731 12.203 C 8.718 12.203 8.705 12.204 8.690 12.206 C 8.676 12.207 8.661 12.209 8.647 12.209 C 8.607 12.209 8.568 12.198 8.542 12.146 C 8.824 12.026 9.172 12.004 9.478 11.918 C 9.678 11.932 9.879 11.939 10.081 11.941 C 10.098 11.941 10.115 11.941 10.132 11.941 C 10.288 11.941 10.460 11.936 10.731 11.918 C 11.346 11.836 11.963 11.790 12.578 11.744 C 13.216 12.055 13.937 12.198 14.599 12.341 C 14.544 12.355 14.490 12.372 14.435 12.392 C 14.648 12.584 14.584 12.748 14.443 12.908 Z M 19.468 12.240 C 19.307 12.220 19.149 12.203 18.995 12.187 C 18.885 12.175 18.777 12.165 18.672 12.155 C 18.499 12.140 18.326 12.126 18.153 12.113 C 18.254 12.103 18.357 12.097 18.462 12.097 C 18.414 11.906 18.553 11.807 18.647 11.672 C 18.731 11.675 18.816 11.676 18.900 11.676 C 19.374 11.676 19.851 11.636 20.323 11.560 C 20.189 11.640 20.058 11.727 19.930 11.823 C 19.818 11.924 19.706 12.025 19.594 12.125 C 19.552 12.163 19.510 12.202 19.468 12.240 Z M 14.098 9.753 C 13.918 9.621 13.752 9.477 13.617 9.299 C 14.229 9.078 14.727 8.810 14.877 8.316 C 14.917 8.179 14.866 8.084 14.747 8.020 C 14.824 8.037 14.900 8.054 14.975 8.070 C 14.940 8.053 14.905 8.036 14.869 8.020 C 14.867 8.019 14.865 8.018 14.863 8.018 C 14.866 8.018 14.869 8.019 14.872 8.020 C 15.103 8.090 15.322 8.172 15.505 8.284 C 15.427 8.295 15.348 8.306 15.270 8.316 C 15.492 9.038 14.851 9.430 14.098 9.753 Z M 20.216 8.391 C 20.188 8.384 20.160 8.377 20.132 8.371 C 20.036 8.311 19.928 8.278 19.825 8.248 C 19.677 8.205 19.542 8.169 19.493 8.070 C 19.493 7.797 19.746 7.820 19.861 7.707 C 20.227 7.808 20.594 7.907 20.960 7.995 C 20.913 8.009 20.866 8.025 20.821 8.042 C 20.602 8.105 20.388 8.194 20.181 8.316 C 20.181 8.316 20.198 8.352 20.216 8.391 Z M 14.863 8.018 C 14.691 7.966 14.514 7.920 14.340 7.872 C 14.092 7.803 13.853 7.730 13.649 7.628 C 13.857 7.758 14.092 7.847 14.332 7.916 C 14.175 7.899 13.992 7.893 13.791 7.893 C 13.528 7.893 13.235 7.903 12.931 7.914 C 12.811 7.918 12.689 7.922 12.567 7.926 C 12.526 7.888 12.484 7.850 12.441 7.813 C 12.134 7.681 11.808 7.575 11.471 7.491 C 11.088 7.395 10.692 7.327 10.300 7.279 C 10.454 7.283 10.606 7.285 10.757 7.285 C 10.974 7.285 11.188 7.281 11.396 7.269 C 11.690 7.322 11.986 7.349 12.284 7.365 C 12.583 7.382 12.883 7.386 13.183 7.393 C 13.484 7.400 13.784 7.410 14.084 7.436 C 14.133 7.444 14.182 7.451 14.231 7.460 C 14.159 7.525 14.095 7.598 14.042 7.678 C 14.246 7.779 14.473 7.858 14.691 7.945 C 14.749 7.968 14.807 7.992 14.863 8.018 Z M 18.252 7.822 C 17.935 7.713 17.621 7.596 17.308 7.472 C 17.464 7.444 17.620 7.416 17.775 7.387 C 17.947 7.354 18.119 7.321 18.291 7.286 C 18.779 7.405 19.275 7.545 19.772 7.682 C 19.266 7.706 18.760 7.755 18.252 7.822 Z M 17.303 7.470 C 17.276 7.459 17.250 7.449 17.224 7.438 C 17.341 7.419 17.460 7.401 17.578 7.383 C 17.486 7.420 17.394 7.447 17.303 7.470 Z " stroke-width="1"/>
      <path id="ID0.6734888437204063" fill="#f1fbfe" d="M 20.379 8.428 C 20.370 8.426 20.362 8.424 20.353 8.422 C 20.451 8.407 20.555 8.391 20.663 8.375 C 20.991 8.336 21.324 8.319 21.654 8.287 C 21.670 8.288 21.687 8.288 21.703 8.288 C 21.620 8.298 21.538 8.310 21.458 8.329 C 21.145 8.361 20.772 8.395 20.379 8.428 Z " stroke-width="1"/>
      <path id="ID0.9186006826348603" fill="#DEF0FF" d="M 13.052 4.463 C 13.129 4.342 13.225 4.232 13.343 4.140 C 13.399 4.096 13.460 4.056 13.526 4.020 C 13.435 4.110 13.351 4.213 13.277 4.332 C 13.222 4.366 13.131 4.398 13.052 4.463 Z M 13.541 4.006 C 13.441 3.976 13.353 3.947 13.266 3.921 C 12.911 3.897 12.721 3.872 12.975 3.844 C 13.228 3.809 13.490 3.829 13.753 3.774 C 13.756 3.792 13.759 3.810 13.763 3.828 C 13.685 3.880 13.611 3.939 13.541 4.006 Z M 13.713 3.687 C 13.281 3.668 12.850 3.652 12.421 3.638 C 12.358 3.587 12.304 3.530 12.274 3.454 C 12.274 3.356 12.421 3.258 12.520 3.209 C 12.563 3.191 12.606 3.175 12.650 3.160 C 13.196 3.203 13.742 3.262 14.288 3.356 C 13.846 3.503 13.404 3.454 12.947 3.549 C 12.879 3.559 12.933 3.564 13.048 3.564 C 13.149 3.564 13.297 3.560 13.453 3.552 C 13.557 3.552 13.661 3.626 13.713 3.687 Z M 10.921 3.589 C 9.953 3.555 8.986 3.510 8.008 3.424 C 7.866 3.419 7.723 3.408 7.582 3.392 C 7.440 3.375 7.299 3.352 7.158 3.321 C 7.031 3.293 6.904 3.258 6.778 3.216 C 7.293 3.063 7.833 2.969 8.360 2.838 C 8.563 2.865 8.808 2.891 9.115 2.917 C 9.809 2.994 10.499 3.033 11.189 3.070 C 11.102 3.191 11.029 3.308 10.980 3.415 C 10.952 3.476 10.933 3.534 10.921 3.589 Z " stroke-width="1"/>
      <path id="ID0.8526455075480044" fill="#f1fbfe" d="M 13.771 14.222 C 13.687 14.222 13.602 14.220 13.516 14.218 C 13.436 14.141 13.354 14.065 13.271 13.988 C 13.274 13.951 13.276 13.915 13.277 13.880 C 13.545 13.878 13.813 13.870 14.083 13.855 C 14.091 13.879 14.101 13.904 14.112 13.929 C 14.165 14.018 14.224 14.108 14.288 14.200 C 14.118 14.215 13.946 14.222 13.771 14.222 Z " stroke-width="1"/>
      <path id="ID0.34720049193128943" fill="#f1fbfe" d="M 7.323 20.545 C 7.229 20.496 7.151 20.496 7.040 20.398 C 7.059 20.396 7.077 20.395 7.096 20.394 C 7.114 20.399 7.132 20.404 7.150 20.408 C 7.207 20.453 7.265 20.499 7.323 20.545 Z " stroke-width="1"/>
      <path id="ID0.8114633122459054" fill="#f1fbfe" d="M 19.810 21.597 C 19.827 21.492 19.807 21.414 19.758 21.352 C 19.828 21.357 19.898 21.362 19.967 21.367 C 20.017 21.430 20.073 21.526 20.033 21.526 C 19.959 21.551 19.885 21.574 19.810 21.597 Z " stroke-width="1"/>
      <path id="ID0.5700789783149958" fill="#f1fbfe" d="M 19.737 21.851 C 19.525 21.825 19.308 21.811 19.091 21.796 C 19.101 21.794 19.112 21.791 19.122 21.789 C 19.327 21.791 19.535 21.790 19.741 21.815 L 19.739 21.821 C 19.733 21.826 19.731 21.831 19.731 21.837 C 19.731 21.841 19.733 21.846 19.737 21.851 Z " stroke-width="1"/>
      <path id="ID0.35411485750228167" fill="#DEF0FF" d="M 19.741 21.815 C 19.535 21.790 19.327 21.791 19.122 21.789 C 19.352 21.732 19.581 21.669 19.810 21.597 C 19.801 21.659 19.778 21.731 19.741 21.815 Z " stroke-width="1"/>
      <path id="ID0.5706485672853887" fill="#f1fbfe" d="M 20.210 21.937 C 20.055 21.898 19.897 21.871 19.737 21.851 C 19.733 21.846 19.731 21.841 19.731 21.837 C 19.731 21.831 19.733 21.826 19.739 21.821 L 19.741 21.815 C 19.900 21.835 20.057 21.871 20.210 21.937 Z " stroke-width="1"/>
      <path id="ID0.7363371690735221" fill="#DEF0FF" d="M 19.977 21.970 C 19.841 21.955 19.709 21.939 19.577 21.923 C 19.349 21.896 19.121 21.869 18.894 21.843 C 18.960 21.828 19.025 21.812 19.091 21.796 C 19.308 21.811 19.525 21.825 19.737 21.851 C 19.765 21.888 19.891 21.926 19.977 21.970 Z " stroke-width="1"/>
      <path id="ID0.39093251898884773" fill="#f1fbfe" d="M 20.449 22.022 C 20.362 22.014 20.276 22.005 20.191 21.995 C 20.186 21.994 20.182 21.994 20.178 21.993 C 20.211 21.985 20.245 21.977 20.279 21.968 C 20.256 21.957 20.233 21.947 20.210 21.937 C 20.300 21.960 20.388 21.986 20.475 22.017 C 20.467 22.019 20.458 22.021 20.449 22.022 Z " stroke-width="1"/>
      <path id="ID0.8797639831900597" fill="#f1fbfe" d="M 18.861 21.780 C 18.826 21.778 18.791 21.775 18.756 21.772 C 18.791 21.775 18.826 21.777 18.861 21.780 Z " stroke-width="1"/>
      <path id="ID0.282728492282331" fill="#f1fbfe" d="M 19.091 21.796 C 19.014 21.791 18.938 21.786 18.861 21.780 C 18.947 21.785 19.034 21.787 19.122 21.789 C 19.112 21.791 19.101 21.794 19.091 21.796 Z " stroke-width="1"/>
      <path id="ID0.12204791186377406" fill="#f1fbfe" d="M 14.631 17.794 C 14.632 17.794 14.633 17.794 14.635 17.793 C 14.634 17.793 14.634 17.794 14.634 17.794 C 14.633 17.794 14.632 17.794 14.631 17.794 Z " stroke-width="1"/>
      <path id="ID0.5040373611263931" fill="#f1fbfe" d="M 20.345 8.420 C 20.321 8.415 20.297 8.409 20.273 8.404 C 20.430 8.237 20.616 8.121 20.821 8.042 C 20.866 8.025 20.913 8.009 20.960 7.995 C 21.349 8.089 21.738 8.170 22.123 8.228 C 21.968 8.254 21.811 8.272 21.654 8.287 C 21.324 8.319 20.991 8.336 20.663 8.375 C 20.556 8.387 20.450 8.402 20.345 8.420 Z " stroke-width="1"/>
      <path id="ID0.13650330575183034" fill="#f1fbfe" d="M 6.433 7.012 C 6.223 6.989 6.008 6.965 5.787 6.944 C 6.042 6.706 6.321 6.519 6.616 6.370 C 6.646 6.373 6.676 6.376 6.706 6.379 C 6.678 6.496 6.654 6.625 6.631 6.769 C 6.593 6.850 6.532 6.931 6.433 7.012 Z " stroke-width="1"/>
      <path id="ID0.21040605707094073" fill="#f1fbfe" d="M 3.607 9.215 C 3.261 9.091 2.909 8.977 2.555 8.875 C 2.412 8.834 2.269 8.794 2.123 8.758 C 2.101 8.757 2.079 8.755 2.057 8.754 C 1.883 8.309 2.594 8.230 3.390 8.153 C 3.458 8.218 3.531 8.288 3.614 8.359 C 3.779 8.500 3.984 8.648 4.218 8.800 C 4.271 8.834 4.322 8.868 4.373 8.902 C 4.113 9.029 3.855 9.139 3.607 9.215 Z " stroke-width="1"/>
      <path id="ID0.15353019209578633" fill="#f1fbfe" d="M 8.961 20.969 C 8.763 20.949 8.565 20.925 8.370 20.886 C 8.355 20.878 8.341 20.871 8.327 20.863 C 8.537 20.903 8.749 20.937 8.961 20.969 Z " stroke-width="1"/>
      <path id="ID0.2927896031178534" fill="#f1fbfe" d="M 11.714 21.589 C 11.594 21.585 11.472 21.580 11.351 21.575 C 11.108 21.564 10.865 21.550 10.629 21.533 C 9.918 21.481 9.486 21.401 9.057 21.312 C 8.656 21.228 8.250 21.135 7.856 21.047 C 7.911 21.005 7.974 20.993 8.041 20.993 C 8.070 20.993 8.100 20.995 8.130 20.998 C 8.194 21.005 8.260 21.015 8.326 21.015 C 8.349 21.015 8.372 21.014 8.394 21.011 C 8.477 21.042 8.559 21.066 8.640 21.084 C 8.577 21.022 8.508 20.969 8.434 20.923 C 8.477 20.935 8.522 20.948 8.569 20.960 C 8.850 21.022 9.126 21.090 9.405 21.136 C 9.406 21.137 9.408 21.137 9.409 21.137 C 9.409 21.137 9.409 21.137 9.409 21.137 C 9.411 21.137 9.412 21.138 9.414 21.138 C 9.598 21.168 9.810 21.187 10.061 21.187 L 10.062 21.187 C 10.111 21.187 10.161 21.186 10.214 21.185 C 10.215 21.184 10.217 21.184 10.219 21.184 C 10.844 21.243 11.608 21.226 11.769 21.587 C 11.751 21.587 11.733 21.588 11.714 21.589 Z " stroke-width="1"/>
      <path id="ID0.8515649833716452" fill="#f1fbfe" d="M 10.219 21.184 C 10.009 21.165 9.815 21.137 9.665 21.083 C 9.536 21.060 9.407 21.039 9.278 21.018 C 9.172 21.002 9.066 20.986 8.961 20.969 C 9.144 20.988 9.328 21.004 9.511 21.026 C 9.638 21.042 9.764 21.060 9.911 21.084 C 10.058 21.108 10.250 21.136 10.473 21.172 C 10.383 21.178 10.300 21.182 10.219 21.184 Z " stroke-width="1"/>
      <path id="ID0.08334282133728266" fill="#f1fbfe" d="M 10.062 21.187 C 10.062 21.187 10.062 21.187 10.061 21.187 C 9.810 21.187 9.598 21.168 9.414 21.138 C 9.412 21.138 9.411 21.137 9.409 21.137 C 9.409 21.137 9.409 21.137 9.409 21.137 C 9.408 21.137 9.406 21.137 9.405 21.136 C 9.126 21.090 8.850 21.022 8.569 20.960 C 8.522 20.948 8.477 20.935 8.434 20.923 C 8.413 20.910 8.391 20.898 8.370 20.886 C 8.565 20.925 8.763 20.949 8.961 20.969 C 9.066 20.986 9.172 21.002 9.278 21.018 C 9.407 21.039 9.536 21.060 9.665 21.083 C 9.815 21.137 10.009 21.165 10.219 21.184 C 10.217 21.184 10.215 21.184 10.214 21.185 C 10.161 21.186 10.111 21.187 10.062 21.187 C 10.062 21.187 10.062 21.187 10.062 21.187 Z " stroke-width="1"/>
      <path id="ID0.5581862428225577" fill="#f1fbfe" d="M 6.070 20.711 C 5.870 20.688 5.683 20.675 5.513 20.675 C 5.483 20.675 5.452 20.675 5.423 20.676 C 5.371 20.623 5.329 20.564 5.301 20.495 C 5.243 20.365 5.296 20.273 5.413 20.210 C 5.632 20.357 5.851 20.531 6.070 20.711 Z " stroke-width="1"/>
      <path id="ID0.5064359339885414" fill="#f1fbfe" d="M 8.640 21.084 C 8.559 21.066 8.477 21.042 8.394 21.011 C 8.175 20.931 7.958 20.809 7.776 20.660 C 7.845 20.682 7.914 20.703 7.982 20.725 C 8.101 20.765 8.217 20.808 8.327 20.863 C 8.341 20.871 8.355 20.878 8.370 20.886 C 8.391 20.898 8.413 20.910 8.434 20.923 C 8.508 20.969 8.577 21.022 8.640 21.084 Z " stroke-width="1"/>
      <path id="ID0.3075369540601969" fill="#f1fbfe" d="M 5.413 20.210 C 5.408 20.207 5.403 20.203 5.399 20.200 C 5.409 20.200 5.420 20.200 5.430 20.200 C 5.424 20.203 5.419 20.207 5.413 20.210 Z " stroke-width="1"/>
      <path id="ID0.39256296725943685" fill="#DEF0FF" d="M 4.511 21.684 C 4.503 21.683 4.494 21.681 4.485 21.680 C 4.078 21.624 3.736 21.540 3.582 21.428 C 3.711 21.342 4.023 21.374 4.243 21.318 C 4.273 21.310 4.302 21.301 4.328 21.289 C 4.148 21.139 3.937 21.112 3.723 21.084 C 3.632 21.073 3.540 21.061 3.450 21.039 C 3.395 21.026 3.341 21.009 3.287 20.986 C 3.695 21.027 4.121 21.085 4.546 21.110 C 4.532 21.149 4.522 21.190 4.516 21.235 C 4.500 21.355 4.496 21.479 4.504 21.605 C 4.506 21.631 4.509 21.657 4.511 21.684 Z " stroke-width="1"/>
      <path id="ID0.6086242161691189" fill="#f1fbfe" d="M 5.754 20.254 C 5.655 20.206 5.527 20.201 5.430 20.200 C 5.504 20.164 5.599 20.138 5.706 20.119 C 5.717 20.162 5.732 20.206 5.754 20.254 Z " stroke-width="1"/>
      <path id="ID0.03357186587527394" fill="#f1fbfe" d="M 5.706 20.119 C 5.674 19.988 5.693 19.882 5.746 19.799 C 5.809 19.827 5.871 19.854 5.933 19.884 C 6.086 19.958 6.201 20.023 6.307 20.081 C 6.286 20.081 6.264 20.081 6.243 20.081 C 6.059 20.081 5.869 20.091 5.706 20.119 Z " stroke-width="1"/>
      <path id="ID0.06513591343536973" fill="#f1fbfe" d="M 7.776 20.660 C 7.601 20.606 7.429 20.551 7.278 20.473 C 7.244 20.455 7.210 20.436 7.178 20.416 C 7.313 20.450 7.458 20.483 7.619 20.516 C 7.667 20.566 7.720 20.614 7.776 20.660 Z " stroke-width="1"/>
      <path id="ID0.41060135094448924" fill="#f1fbfe" d="M 2.796 17.106 C 2.803 17.094 2.811 17.082 2.819 17.070 C 2.850 17.025 2.886 16.982 2.925 16.941 C 2.889 16.983 2.854 17.026 2.821 17.071 C 2.813 17.083 2.804 17.095 2.796 17.106 Z " stroke-width="1"/>
      <path id="ID0.7407523379661143" fill="#f1fbfe" d="M 4.859 12.441 C 4.809 12.441 4.760 12.441 4.711 12.441 C 4.749 12.438 4.787 12.434 4.824 12.431 C 4.836 12.434 4.847 12.437 4.859 12.441 Z " stroke-width="1"/>
      <path id="ID0.43742472445592284" fill="#f1fbfe" d="M 3.002 13.363 C 2.959 13.331 2.917 13.299 2.879 13.267 C 2.691 13.125 2.743 12.932 2.823 12.732 C 3.016 12.792 3.204 12.874 3.385 12.981 C 3.490 13.044 3.257 13.178 3.002 13.363 Z " stroke-width="1"/>
      <path id="ID0.6273331642150879" fill="#f1fbfe" d="M 8.121 10.980 C 7.686 10.863 7.238 10.825 6.783 10.825 C 6.369 10.825 5.949 10.856 5.527 10.887 C 5.106 10.919 4.682 10.950 4.261 10.950 C 4.045 10.950 3.829 10.942 3.615 10.921 C 3.625 10.890 3.631 10.857 3.631 10.821 C 3.631 10.727 3.603 10.658 3.555 10.604 C 3.750 10.527 3.940 10.437 4.122 10.329 C 4.021 10.260 3.917 10.202 3.810 10.154 C 3.829 10.140 3.848 10.127 3.866 10.113 C 4.285 10.425 4.793 10.489 5.328 10.489 C 5.513 10.489 5.701 10.481 5.889 10.474 C 6.078 10.466 6.267 10.459 6.454 10.459 C 7.068 10.459 7.662 10.540 8.149 10.968 C 8.140 10.972 8.130 10.976 8.121 10.980 Z M 2.928 10.806 C 2.884 10.795 2.840 10.784 2.796 10.771 C 2.915 10.637 3.084 10.540 3.262 10.449 C 3.383 10.484 3.488 10.528 3.555 10.604 C 3.466 10.639 3.376 10.671 3.284 10.700 C 3.163 10.740 3.040 10.775 2.928 10.806 Z " stroke-width="1"/>
      <path id="ID0.13909695902839303" fill="#f1fbfe" d="M 3.615 10.921 C 3.384 10.899 3.155 10.862 2.928 10.806 C 3.040 10.775 3.163 10.740 3.284 10.700 C 3.376 10.671 3.466 10.639 3.555 10.604 C 3.603 10.658 3.631 10.727 3.631 10.821 C 3.631 10.857 3.625 10.890 3.615 10.921 Z " stroke-width="1"/>
      <path id="ID0.7847701599821448" fill="#f1fbfe" d="M 3.555 10.604 C 3.488 10.528 3.383 10.484 3.262 10.449 C 3.450 10.354 3.649 10.266 3.810 10.154 C 3.917 10.202 4.021 10.260 4.122 10.329 C 3.940 10.437 3.750 10.527 3.555 10.604 Z " stroke-width="1"/>
      <path id="ID0.5441037104465067" fill="#f1fbfe" d="M 6.479 11.459 C 7.010 11.314 7.589 11.216 8.121 10.980 C 8.275 11.021 8.428 11.072 8.578 11.135 C 8.503 11.202 8.365 11.279 8.196 11.362 C 8.444 11.361 8.640 11.361 8.886 11.361 C 8.750 11.377 8.615 11.394 8.480 11.411 C 7.814 11.414 7.160 11.423 6.479 11.459 Z " stroke-width="1"/>
      <path id="ID0.22703411802649498" fill="#f1fbfe" d="M 2.328 17.212 C 2.203 17.244 2.244 17.109 2.256 17.106 C 2.248 17.106 2.249 17.092 2.257 17.085 C 2.284 17.128 2.308 17.171 2.328 17.212 Z M 8.274 16.884 C 7.797 16.781 7.324 16.649 6.855 16.511 C 6.683 16.461 6.512 16.410 6.311 16.361 C 6.154 16.301 5.995 16.252 5.834 16.214 C 5.673 16.177 5.510 16.151 5.347 16.136 C 5.258 16.130 5.167 16.127 5.075 16.127 C 4.370 16.127 3.620 16.308 3.103 16.763 C 3.200 16.664 3.290 16.558 3.336 16.419 C 3.180 16.513 2.924 16.607 2.809 16.764 C 2.762 16.750 2.715 16.735 2.668 16.720 C 2.946 16.451 3.205 16.168 3.477 15.909 C 3.524 15.817 3.548 15.720 3.539 15.613 C 3.529 15.507 3.486 15.392 3.398 15.265 C 3.375 15.211 3.351 15.158 3.324 15.106 C 3.216 14.899 3.071 14.710 2.894 14.553 C 2.808 14.483 2.722 14.415 2.634 14.349 C 2.599 14.311 2.571 14.273 2.549 14.235 C 2.667 14.121 2.783 14 2.904 13.883 C 2.773 13.962 2.638 14.036 2.499 14.106 C 2.437 13.816 2.732 13.560 3.002 13.363 C 3.083 13.422 3.169 13.481 3.256 13.540 C 3.265 13.545 3.273 13.551 3.281 13.557 C 3.148 13.654 3.024 13.767 2.904 13.883 C 3.053 13.793 3.196 13.696 3.334 13.593 C 3.841 13.939 4.342 14.305 4.809 14.749 C 4.916 14.864 5.032 14.966 5.155 15.058 C 5.279 15.150 5.410 15.232 5.546 15.306 C 6.474 15.772 7.454 16.108 8.462 16.331 C 8.233 16.409 8.080 16.482 8.096 16.586 C 8.135 16.710 8.209 16.801 8.274 16.884 Z " stroke-width="1"/>
      <path id="ID0.4433969771489501" fill="#f1fbfe" d="M 8.612 16.952 C 8.499 16.931 8.387 16.909 8.274 16.884 C 8.209 16.801 8.135 16.710 8.096 16.586 C 8.080 16.482 8.233 16.409 8.462 16.331 C 8.738 16.392 9.016 16.445 9.296 16.490 C 9.381 16.530 9.467 16.566 9.452 16.609 C 9.187 16.759 8.900 16.856 8.612 16.952 Z " stroke-width="1"/>
      <path id="ID0.07422887161374092" fill="#DEF0FF" d="M 15.209 3.084 C 15.203 3.080 15.196 3.076 15.190 3.072 C 14.241 2.526 13.799 1.573 15.073 2.423 C 15.245 2.546 15.466 2.632 15.644 2.748 C 15.751 2.808 15.868 2.875 15.957 2.960 C 15.957 2.961 15.957 2.962 15.957 2.963 C 15.941 2.996 15.947 3.012 15.966 3.020 C 15.980 3.017 15.993 3.015 16.007 3.012 C 16.010 3.016 16.014 3.020 16.017 3.024 C 16.011 3.024 16.006 3.024 16.001 3.024 C 15.987 3.024 15.975 3.023 15.966 3.020 C 15.710 3.062 15.460 3.082 15.209 3.084 Z " stroke-width="1"/>
      <path id="ID0.5533939343877137" fill="#f1fbfe" d="M 15.966 3.020 C 15.947 3.012 15.941 2.996 15.957 2.963 C 15.957 2.962 15.957 2.961 15.957 2.960 C 15.975 2.976 15.992 2.994 16.007 3.012 C 15.993 3.015 15.980 3.017 15.966 3.020 Z " stroke-width="1"/>
      <path id="ID0.9779484616592526" fill="#f1fbfe" d="M 15.784 3.374 C 15.735 3.374 15.692 3.368 15.663 3.356 C 15.512 3.262 15.361 3.171 15.209 3.084 C 15.460 3.082 15.710 3.062 15.966 3.020 C 15.975 3.023 15.987 3.024 16.001 3.024 C 16.006 3.024 16.011 3.024 16.017 3.024 C 16.043 3.058 16.065 3.094 16.081 3.134 C 16.095 3.170 16.104 3.210 16.105 3.252 C 16.107 3.299 16.033 3.336 15.942 3.356 C 15.891 3.368 15.834 3.374 15.784 3.374 Z " stroke-width="1"/>
    </g>
  </g>
</svg>