<svg version="1.1" width="22.771999969482422" height="22.771999969482422" viewBox="-0.24300000786781306 -0.6480000016093254 22.771999969482422 22.771999969482422" xmlns="http://www.w3.org/2000/svg" xmlns:xlink="http://www.w3.org/1999/xlink">
  <!-- Exported by Scratch - http://scratch.mit.edu/ -->
  <g id="Options">
    <path id="ID0.6022007665596902" fill="#b3b3b3" d="M 0.452 0.047 L 21.834 0.047 L 21.834 21.429 L 0.452 21.429 L 0.452 0.047 Z " stroke-width="1"/>
    <path id="ID0.6493484103120863" fill="#fff" stroke="#fff" stroke-width="1.39" d="M 10.262 5.177 C 10.846 5.085 11.441 5.085 12.024 5.177 L 12.236 6.996 C 12.836 7.172 13.385 7.489 13.837 7.921 L 15.518 7.195 C 15.890 7.654 16.188 8.169 16.400 8.721 L 14.930 9.814 C 15.078 10.421 15.078 11.055 14.930 11.663 L 16.400 12.755 C 16.188 13.307 15.890 13.822 15.518 14.281 L 13.837 13.555 C 13.385 13.987 12.836 14.305 12.236 14.480 L 12.024 16.299 C 11.441 16.391 10.846 16.391 10.262 16.299 L 10.050 14.480 C 9.450 14.305 8.901 13.987 8.449 13.555 L 6.768 14.281 C 6.396 13.822 6.099 13.307 5.887 12.755 L 7.356 11.663 C 7.208 11.055 7.208 10.421 7.356 9.814 L 5.887 8.721 C 6.099 8.169 6.396 7.654 6.768 7.195 L 8.449 7.921 C 8.901 7.489 9.450 7.172 10.050 6.996 L 10.262 5.177 Z M 11.143 8.136 C 9.707 8.136 8.541 9.302 8.541 10.738 C 8.541 12.174 9.707 13.340 11.143 13.340 C 12.579 13.340 13.745 12.174 13.745 10.738 C 13.745 9.302 12.579 8.136 11.143 8.136 Z "/>
  </g>
</svg>