<svg version="1.1" width="31.875" height="53.125" viewBox="-0.125 0.25 31.875 53.125" xmlns="http://www.w3.org/2000/svg" xmlns:xlink="http://www.w3.org/1999/xlink">
  <!-- Exported by Scratch - http://scratch.mit.edu/ -->
  <g id="ID0.0290786512196064">
    <g id="layer1">
      <path id="path3091" fill="#666666" stroke="none" d="M 20.438 0.75 C 17.32 0.75 14.535 1.43 12.063 2.813 C 9.59 4.195 7.484 6.176 5.75 8.719 C 4.016 11.262 2.676 14.32 1.75 17.906 C 0.824 21.492 0.375 25.461 0.375 29.844 C 0.375 33.5 0.703 36.766 1.406 39.625 C 2.109 42.484 3.145 44.906 4.469 46.875 C 5.793 48.844 7.402 50.324 9.313 51.344 C 11.223 52.363 13.406 52.875 15.844 52.875 C 18.094 52.875 20.145 52.469 22.031 51.625 C 23.918 50.781 25.566 49.613 26.938 48.125 C 28.309 46.637 29.363 44.844 30.125 42.781 C 30.887 40.719 31.25 38.461 31.25 36 C 31.25 33.75 30.918 31.68 30.25 29.781 C 29.582 27.883 28.637 26.258 27.406 24.875 C 26.176 23.492 24.723 22.398 23 21.625 C 21.277 20.852 19.32 20.469 17.188 20.469 C 11.562 20.469 7.57 22.922 5.156 27.844 L 5 27.844 C 5 24.398 5.367 21.254 6.094 18.406 C 6.82 15.559 7.852 13.133 9.188 11.094 C 10.523 9.055 12.152 7.457 14.063 6.344 C 15.973 5.23 18.102 4.688 20.469 4.688 C 23.211 4.688 25.82 5.289 28.281 6.531 L 28.281 2.094 C 26.172 1.203 23.555 0.75 20.438 0.75 Z M 16.188 24.406 C 17.828 24.406 19.273 24.695 20.563 25.281 C 21.852 25.867 22.953 26.684 23.844 27.75 C 24.734 28.817 25.426 30.133 25.906 31.656 C 26.387 33.18 26.625 34.867 26.625 36.719 C 26.625 38.5 26.371 40.137 25.844 41.625 C 25.316 43.113 24.582 44.379 23.656 45.469 C 22.73 46.559 21.633 47.422 20.344 48.031 C 19.055 48.641 17.609 48.938 16.063 48.938 C 14.469 48.938 13.031 48.59 11.719 47.875 C 10.406 47.16 9.281 46.188 8.344 44.969 C 7.406 43.75 6.672 42.317 6.156 40.688 C 5.641 39.059 5.375 37.328 5.375 35.5 C 5.375 34.047 5.648 32.68 6.188 31.344 C 6.727 30.008 7.477 28.813 8.438 27.781 C 9.398 26.75 10.551 25.922 11.875 25.313 C 13.199 24.703 14.641 24.406 16.188 24.406 Z " stroke-width="1"/>
    </g>
  </g>
</svg>