<svg version="1.1" width="481" height="73.26100158691406" viewBox="-0.5 -0.5 481 73.26100158691406" xmlns="http://www.w3.org/2000/svg" xmlns:xlink="http://www.w3.org/1999/xlink">
  <!-- Exported by Scratch - http://scratch.mit.edu/ -->
  <g id="Bar">
    <path id="ID0.4390567787922919" fill="#ffca59" d="M 0 0 L 480 0 L 480 72.261 L 0 72.261 L 0 0 Z " stroke-width="1"/>
    <path id="ID0.3689362327568233" fill="#fff" d="M 121.414 32.643 L 121.414 11.168 L 124.329 11.168 L 135.608 28.028 L 135.608 11.168 L 138.333 11.168 L 138.333 32.643 L 135.417 32.643 L 124.138 15.768 L 124.138 32.643 L 121.414 32.643 Z " stroke-width="1"/>
    <path id="ID0.6036684531718493" fill="#fff" d="M 153.420 27.633 L 156.145 27.970 C 155.715 29.562 154.919 30.797 153.757 31.676 C 152.595 32.555 151.111 32.994 149.304 32.994 C 147.029 32.994 145.225 32.293 143.892 30.892 C 142.559 29.491 141.892 27.525 141.892 24.996 C 141.892 22.379 142.566 20.348 143.914 18.902 C 145.261 17.457 147.009 16.734 149.158 16.734 C 151.238 16.734 152.937 17.442 154.255 18.858 C 155.574 20.274 156.233 22.267 156.233 24.835 C 156.233 24.991 156.228 25.226 156.218 25.538 L 144.617 25.538 C 144.714 27.247 145.198 28.556 146.067 29.464 C 146.936 30.372 148.020 30.826 149.319 30.826 C 150.286 30.826 151.111 30.572 151.794 30.064 C 152.478 29.557 153.020 28.746 153.420 27.633 Z M 144.763 23.370 L 153.450 23.370 C 153.333 22.062 153.000 21.080 152.454 20.426 C 151.614 19.410 150.525 18.902 149.187 18.902 C 147.976 18.902 146.958 19.308 146.133 20.118 C 145.308 20.929 144.851 22.013 144.763 23.370 Z " stroke-width="1"/>
    <path id="ID0.7394573776982725" fill="#fff" d="M 162.327 32.643 L 157.566 17.086 L 160.291 17.086 L 162.766 26.065 L 163.689 29.405 C 163.728 29.239 163.997 28.170 164.495 26.197 L 166.970 17.086 L 169.680 17.086 L 172.009 26.109 L 172.786 29.083 L 173.679 26.080 L 176.345 17.086 L 178.909 17.086 L 174.045 32.643 L 171.306 32.643 L 168.831 23.326 L 168.230 20.675 L 165.081 32.643 L 162.327 32.643 Z " stroke-width="1"/>
    <path id="ID0.6059439908713102" fill="#fff" d="M 192.327 32.643 L 187.566 17.086 L 190.291 17.086 L 192.766 26.065 L 193.689 29.405 C 193.728 29.239 193.997 28.170 194.495 26.197 L 196.970 17.086 L 199.680 17.086 L 202.009 26.109 L 202.786 29.083 L 203.679 26.080 L 206.345 17.086 L 208.909 17.086 L 204.045 32.643 L 201.306 32.643 L 198.831 23.326 L 198.230 20.675 L 195.081 32.643 L 192.327 32.643 Z " stroke-width="1"/>
    <path id="ID0.415738333016634" fill="#fff" d="M 210.139 24.864 C 210.139 21.983 210.940 19.850 212.542 18.463 C 213.879 17.311 215.510 16.734 217.434 16.734 C 219.573 16.734 221.321 17.435 222.678 18.836 C 224.036 20.238 224.714 22.174 224.714 24.645 C 224.714 26.646 224.414 28.221 223.813 29.369 C 223.213 30.516 222.339 31.407 221.191 32.042 C 220.044 32.677 218.792 32.994 217.434 32.994 C 215.256 32.994 213.496 32.296 212.153 30.899 C 210.811 29.503 210.139 27.491 210.139 24.864 Z M 212.849 24.864 C 212.849 26.856 213.284 28.348 214.153 29.339 C 215.022 30.331 216.116 30.826 217.434 30.826 C 218.743 30.826 219.832 30.328 220.701 29.332 C 221.570 28.336 222.004 26.817 222.004 24.776 C 222.004 22.853 221.567 21.395 220.693 20.404 C 219.819 19.413 218.733 18.917 217.434 18.917 C 216.116 18.917 215.022 19.410 214.153 20.396 C 213.284 21.383 212.849 22.872 212.849 24.864 Z " stroke-width="1"/>
    <path id="ID0.4492611759342253" fill="#fff" d="M 227.776 32.643 L 227.776 17.086 L 230.149 17.086 L 230.149 19.444 C 230.754 18.341 231.313 17.613 231.826 17.262 C 232.339 16.910 232.903 16.734 233.518 16.734 C 234.407 16.734 235.310 17.018 236.228 17.584 L 235.320 20.030 C 234.675 19.649 234.031 19.459 233.386 19.459 C 232.810 19.459 232.292 19.632 231.833 19.979 C 231.375 20.326 231.047 20.807 230.852 21.422 C 230.559 22.359 230.413 23.385 230.413 24.498 L 230.413 32.643 L 227.776 32.643 Z " stroke-width="1"/>
    <path id="ID0.6794697288423777" fill="#fff" d="M 237.737 11.168 L 240.374 11.168 L 240.374 32.643 L 237.737 32.643 L 237.737 11.168 Z " stroke-width="1"/>
    <path id="ID0.5816786596551538" fill="#fff" d="M 254.553 32.643 L 254.553 30.680 C 253.567 32.223 252.117 32.994 250.203 32.994 C 248.962 32.994 247.822 32.652 246.782 31.969 C 245.742 31.285 244.937 30.331 244.365 29.105 C 243.794 27.879 243.508 26.471 243.508 24.879 C 243.508 23.326 243.767 21.917 244.285 20.653 C 244.802 19.388 245.579 18.419 246.614 17.745 C 247.649 17.071 248.806 16.734 250.085 16.734 C 251.023 16.734 251.858 16.932 252.590 17.328 C 253.323 17.723 253.918 18.238 254.377 18.873 L 254.377 11.168 L 257 11.168 L 257 32.643 L 254.553 32.643 Z M 246.218 24.879 C 246.218 26.871 246.638 28.360 247.478 29.347 C 248.318 30.333 249.309 30.826 250.452 30.826 C 251.604 30.826 252.583 30.355 253.389 29.413 C 254.194 28.470 254.597 27.032 254.597 25.099 C 254.597 22.970 254.187 21.407 253.367 20.411 C 252.546 19.415 251.536 18.917 250.334 18.917 C 249.163 18.917 248.184 19.396 247.397 20.353 C 246.611 21.310 246.218 22.818 246.218 24.879 Z " stroke-width="1"/>
    <path id="ID0.8118375954218209" fill="#fff" d="M 269.451 32.643 L 269.451 17.086 L 271.824 17.086 L 271.824 19.444 C 272.429 18.341 272.988 17.613 273.501 17.262 C 274.014 16.910 274.578 16.734 275.193 16.734 C 276.082 16.734 276.985 17.018 277.903 17.584 L 276.995 20.030 C 276.350 19.649 275.706 19.459 275.061 19.459 C 274.485 19.459 273.967 19.632 273.508 19.979 C 273.049 20.326 272.722 20.807 272.527 21.422 C 272.234 22.359 272.087 23.385 272.087 24.498 L 272.087 32.643 L 269.451 32.643 Z " stroke-width="1"/>
    <path id="ID0.035736235324293375" fill="#fff" d="M 290.120 27.633 L 292.844 27.970 C 292.415 29.562 291.619 30.797 290.457 31.676 C 289.294 32.555 287.810 32.994 286.003 32.994 C 283.728 32.994 281.924 32.293 280.591 30.892 C 279.258 29.491 278.591 27.525 278.591 24.996 C 278.591 22.379 279.265 20.348 280.613 18.902 C 281.960 17.457 283.708 16.734 285.857 16.734 C 287.937 16.734 289.636 17.442 290.955 18.858 C 292.273 20.274 292.932 22.267 292.932 24.835 C 292.932 24.991 292.927 25.226 292.917 25.538 L 281.316 25.538 C 281.414 27.247 281.897 28.556 282.766 29.464 C 283.635 30.372 284.719 30.826 286.018 30.826 C 286.985 30.826 287.810 30.572 288.494 30.064 C 289.177 29.557 289.719 28.746 290.120 27.633 Z M 281.462 23.370 L 290.149 23.370 C 290.032 22.062 289.700 21.080 289.153 20.426 C 288.313 19.410 287.224 18.902 285.886 18.902 C 284.675 18.902 283.657 19.308 282.832 20.118 C 282.007 20.929 281.550 22.013 281.462 23.370 Z " stroke-width="1"/>
    <path id="ID0.3364131897687912" fill="#fff" d="M 306.306 26.944 L 308.899 27.281 C 308.616 29.068 307.891 30.467 306.724 31.478 C 305.557 32.489 304.124 32.994 302.424 32.994 C 300.295 32.994 298.584 32.298 297.290 30.907 C 295.996 29.515 295.349 27.521 295.349 24.923 C 295.349 23.243 295.627 21.773 296.184 20.514 C 296.741 19.254 297.588 18.309 298.726 17.679 C 299.863 17.049 301.101 16.734 302.439 16.734 C 304.128 16.734 305.510 17.162 306.584 18.016 C 307.659 18.871 308.347 20.084 308.650 21.656 L 306.086 22.052 C 305.842 21.007 305.410 20.221 304.790 19.693 C 304.170 19.166 303.420 18.902 302.542 18.902 C 301.213 18.902 300.134 19.378 299.304 20.331 C 298.474 21.283 298.059 22.789 298.059 24.850 C 298.059 26.939 298.459 28.458 299.260 29.405 C 300.061 30.353 301.106 30.826 302.395 30.826 C 303.430 30.826 304.294 30.509 304.988 29.874 C 305.681 29.239 306.121 28.263 306.306 26.944 Z " stroke-width="1"/>
    <path id="ID0.14748186944052577" fill="#fff" d="M 310.173 24.864 C 310.173 21.983 310.974 19.850 312.576 18.463 C 313.914 17.311 315.544 16.734 317.468 16.734 C 319.607 16.734 321.355 17.435 322.712 18.836 C 324.070 20.238 324.749 22.174 324.749 24.645 C 324.749 26.646 324.448 28.221 323.848 29.369 C 323.247 30.516 322.373 31.407 321.226 32.042 C 320.078 32.677 318.826 32.994 317.468 32.994 C 315.291 32.994 313.530 32.296 312.188 30.899 C 310.845 29.503 310.173 27.491 310.173 24.864 Z M 312.883 24.864 C 312.883 26.856 313.318 28.348 314.187 29.339 C 315.056 30.331 316.150 30.826 317.468 30.826 C 318.777 30.826 319.866 30.328 320.735 29.332 C 321.604 28.336 322.039 26.817 322.039 24.776 C 322.039 22.853 321.602 21.395 320.728 20.404 C 319.854 19.413 318.767 18.917 317.468 18.917 C 316.150 18.917 315.056 19.410 314.187 20.396 C 313.318 21.383 312.883 22.872 312.883 24.864 Z " stroke-width="1"/>
    <path id="ID0.16622248152270913" fill="#fff" d="M 327.810 32.643 L 327.810 17.086 L 330.183 17.086 L 330.183 19.444 C 330.789 18.341 331.348 17.613 331.860 17.262 C 332.373 16.910 332.937 16.734 333.552 16.734 C 334.441 16.734 335.344 17.018 336.262 17.584 L 335.354 20.030 C 334.709 19.649 334.065 19.459 333.420 19.459 C 332.844 19.459 332.327 19.632 331.868 19.979 C 331.409 20.326 331.082 20.807 330.886 21.422 C 330.593 22.359 330.447 23.385 330.447 24.498 L 330.447 32.643 L 327.810 32.643 Z " stroke-width="1"/>
    <path id="ID0.384669397957623" fill="#fff" d="M 347.922 32.643 L 347.922 30.680 C 346.936 32.223 345.486 32.994 343.572 32.994 C 342.332 32.994 341.191 32.652 340.151 31.969 C 339.111 31.285 338.306 30.331 337.734 29.105 C 337.163 27.879 336.877 26.471 336.877 24.879 C 336.877 23.326 337.136 21.917 337.654 20.653 C 338.171 19.388 338.948 18.419 339.983 17.745 C 341.018 17.071 342.175 16.734 343.455 16.734 C 344.392 16.734 345.227 16.932 345.959 17.328 C 346.692 17.723 347.288 18.238 347.747 18.873 L 347.747 11.168 L 350.369 11.168 L 350.369 32.643 L 347.922 32.643 Z M 339.587 24.879 C 339.587 26.871 340.007 28.360 340.847 29.347 C 341.687 30.333 342.678 30.826 343.821 30.826 C 344.973 30.826 345.952 30.355 346.758 29.413 C 347.563 28.470 347.966 27.032 347.966 25.099 C 347.966 22.970 347.556 21.407 346.736 20.411 C 345.916 19.415 344.905 18.917 343.704 18.917 C 342.532 18.917 341.553 19.396 340.767 20.353 C 339.980 21.310 339.587 22.818 339.587 24.879 Z " stroke-width="1"/>
    <path id="ID0.8480457444675267" fill="#fff" d="M 355.920 27.311 L 355.115 15.929 L 355.115 11.168 L 358.381 11.168 L 358.381 15.929 L 357.620 27.311 L 355.920 27.311 Z M 355.232 32.643 L 355.232 29.640 L 358.264 29.640 L 358.264 32.643 L 355.232 32.643 Z " stroke-width="1"/>
  </g>
</svg>