<svg version="1.1" width="118.18000030517578" height="13.951000213623047" viewBox="-0.49699999997392297 0.10199999809265137 118.18000030517578 13.951000213623047" xmlns="http://www.w3.org/2000/svg" xmlns:xlink="http://www.w3.org/1999/xlink">
  <!-- Exported by Scratch - http://scratch.mit.edu/ -->
  <g id="ID0.6092538200318813">
    <path id="ID0.8444676855579019" fill="#6FD57E" d="M 0.003 9.316 L 1.566 9.179 C 1.64 9.806 1.813 10.32 2.083 10.721 C 2.354 11.123 2.774 11.448 3.343 11.695 C 3.913 11.943 4.554 12.067 5.266 12.067 C 5.898 12.067 6.456 11.973 6.94 11.785 C 7.424 11.597 7.784 11.339 8.021 11.012 C 8.257 10.684 8.375 10.327 8.375 9.94 C 8.375 9.547 8.261 9.204 8.034 8.91 C 7.806 8.617 7.43 8.371 6.906 8.171 C 6.57 8.04 5.827 7.837 4.676 7.56 C 3.526 7.284 2.72 7.024 2.258 6.779 C 1.66 6.465 1.215 6.077 0.921 5.613 C 0.628 5.148 0.481 4.629 0.481 4.053 C 0.481 3.421 0.661 2.83 1.02 2.281 C 1.378 1.731 1.902 1.314 2.592 1.029 C 3.281 0.744 4.047 0.602 4.89 0.602 C 5.818 0.602 6.637 0.751 7.346 1.05 C 8.055 1.349 8.6 1.789 8.982 2.37 C 9.364 2.951 9.569 3.609 9.597 4.344 L 8.008 4.463 C 7.923 3.672 7.634 3.074 7.141 2.669 C 6.648 2.265 5.921 2.063 4.958 2.063 C 3.956 2.063 3.225 2.246 2.767 2.614 C 2.308 2.981 2.079 3.424 2.079 3.942 C 2.079 4.392 2.241 4.762 2.566 5.053 C 2.885 5.343 3.718 5.641 5.065 5.946 C 6.412 6.25 7.336 6.517 7.837 6.744 C 8.566 7.081 9.104 7.506 9.452 8.022 C 9.799 8.537 9.973 9.131 9.973 9.803 C 9.973 10.469 9.782 11.097 9.401 11.687 C 9.019 12.276 8.471 12.735 7.756 13.062 C 7.041 13.39 6.237 13.553 5.342 13.553 C 4.209 13.553 3.259 13.388 2.493 13.058 C 1.727 12.728 1.126 12.231 0.691 11.567 C 0.255 10.904 0.026 10.153 0.003 9.316 Z " stroke-width="1"/>
    <path id="ID0.45523624680936337" fill="#6FD57E" d="M 18.251 10.418 L 19.84 10.615 C 19.59 11.543 19.126 12.263 18.448 12.776 C 17.77 13.289 16.904 13.545 15.851 13.545 C 14.524 13.545 13.471 13.136 12.694 12.319 C 11.917 11.502 11.528 10.355 11.528 8.88 C 11.528 7.354 11.921 6.169 12.707 5.326 C 13.493 4.483 14.512 4.062 15.765 4.062 C 16.978 4.062 17.969 4.475 18.738 5.301 C 19.507 6.127 19.892 7.288 19.892 8.786 C 19.892 8.877 19.889 9.014 19.883 9.196 L 13.117 9.196 C 13.174 10.193 13.456 10.956 13.963 11.486 C 14.47 12.016 15.102 12.281 15.859 12.281 C 16.423 12.281 16.904 12.132 17.303 11.836 C 17.702 11.54 18.018 11.067 18.251 10.418 Z M 13.202 7.932 L 18.268 7.932 C 18.2 7.169 18.006 6.596 17.688 6.215 C 17.198 5.622 16.563 5.326 15.782 5.326 C 15.076 5.326 14.482 5.563 14.001 6.035 C 13.52 6.508 13.254 7.14 13.202 7.932 Z " stroke-width="1"/>
    <path id="ID0.09033204801380634" fill="#6FD57E" d="M 27.692 12.221 C 27.122 12.705 26.574 13.047 26.047 13.246 C 25.52 13.445 24.955 13.545 24.351 13.545 C 23.355 13.545 22.589 13.301 22.053 12.814 C 21.518 12.328 21.25 11.705 21.25 10.948 C 21.25 10.504 21.351 10.098 21.553 9.73 C 21.756 9.363 22.02 9.068 22.348 8.846 C 22.675 8.624 23.044 8.456 23.454 8.342 C 23.756 8.262 24.212 8.185 24.821 8.111 C 26.063 7.963 26.977 7.787 27.564 7.582 C 27.569 7.371 27.572 7.237 27.572 7.18 C 27.572 6.554 27.427 6.112 27.136 5.856 C 26.743 5.509 26.16 5.335 25.385 5.335 C 24.662 5.335 24.128 5.462 23.783 5.715 C 23.439 5.968 23.184 6.417 23.019 7.061 L 21.515 6.856 C 21.652 6.212 21.877 5.692 22.19 5.296 C 22.503 4.901 22.956 4.596 23.548 4.382 C 24.141 4.169 24.827 4.062 25.607 4.062 C 26.382 4.062 27.011 4.153 27.495 4.335 C 27.979 4.518 28.335 4.747 28.563 5.023 C 28.791 5.299 28.95 5.648 29.042 6.07 C 29.093 6.332 29.118 6.804 29.118 7.488 L 29.118 9.538 C 29.118 10.968 29.151 11.872 29.217 12.251 C 29.282 12.629 29.412 12.992 29.605 13.34 L 27.999 13.34 C 27.84 13.021 27.737 12.648 27.692 12.221 Z M 27.564 8.786 C 27.005 9.014 26.168 9.208 25.052 9.367 C 24.42 9.458 23.973 9.561 23.711 9.675 C 23.449 9.789 23.246 9.955 23.104 10.175 C 22.962 10.394 22.89 10.637 22.89 10.905 C 22.89 11.315 23.046 11.657 23.356 11.93 C 23.666 12.204 24.121 12.34 24.719 12.34 C 25.311 12.34 25.838 12.211 26.299 11.952 C 26.761 11.692 27.099 11.338 27.316 10.888 C 27.481 10.541 27.564 10.028 27.564 9.35 L 27.564 8.786 Z " stroke-width="1"/>
    <path id="ID0.2226694356650114" fill="#6FD57E" d="M 31.485 13.34 L 31.485 4.267 L 32.869 4.267 L 32.869 5.642 C 33.222 4.999 33.548 4.575 33.847 4.369 C 34.146 4.164 34.475 4.062 34.834 4.062 C 35.352 4.062 35.879 4.227 36.414 4.557 L 35.885 5.984 C 35.509 5.762 35.133 5.651 34.757 5.651 C 34.421 5.651 34.119 5.752 33.851 5.954 C 33.584 6.156 33.393 6.437 33.279 6.796 C 33.108 7.343 33.023 7.941 33.023 8.59 L 33.023 13.34 L 31.485 13.34 Z " stroke-width="1"/>
    <path id="ID0.32856760872527957" fill="#6FD57E" d="M 43.249 10.017 L 44.761 10.213 C 44.596 11.255 44.173 12.071 43.493 12.661 C 42.812 13.25 41.976 13.545 40.985 13.545 C 39.743 13.545 38.745 13.139 37.991 12.328 C 37.236 11.516 36.859 10.353 36.859 8.838 C 36.859 7.858 37.021 7.001 37.346 6.266 C 37.67 5.531 38.164 4.98 38.828 4.613 C 39.491 4.246 40.213 4.062 40.994 4.062 C 41.979 4.062 42.785 4.311 43.411 4.809 C 44.038 5.308 44.439 6.015 44.616 6.932 L 43.121 7.163 C 42.979 6.554 42.726 6.095 42.365 5.788 C 42.003 5.48 41.566 5.326 41.053 5.326 C 40.279 5.326 39.649 5.604 39.165 6.159 C 38.681 6.715 38.439 7.593 38.439 8.795 C 38.439 10.014 38.673 10.899 39.14 11.452 C 39.607 12.004 40.216 12.281 40.968 12.281 C 41.572 12.281 42.076 12.095 42.48 11.725 C 42.885 11.355 43.141 10.785 43.249 10.017 Z " stroke-width="1"/>
    <path id="ID0.1497078319080174" fill="#6FD57E" d="M 46.077 13.34 L 46.077 0.815 L 47.615 0.815 L 47.615 5.309 C 48.332 4.478 49.238 4.062 50.331 4.062 C 51.004 4.062 51.587 4.194 52.083 4.459 C 52.578 4.724 52.933 5.09 53.146 5.557 C 53.36 6.024 53.467 6.702 53.467 7.59 L 53.467 13.34 L 51.929 13.34 L 51.929 7.59 C 51.929 6.821 51.762 6.262 51.429 5.912 C 51.096 5.561 50.625 5.386 50.015 5.386 C 49.56 5.386 49.131 5.504 48.73 5.741 C 48.328 5.977 48.042 6.297 47.871 6.702 C 47.7 7.106 47.615 7.664 47.615 8.376 L 47.615 13.34 L 46.077 13.34 Z " stroke-width="1"/>
    <path id="ID0.30206719879060984" fill="#6FD57E" d="M 60.891 13.34 L 60.891 0.815 L 66.444 0.815 C 67.56 0.815 68.409 0.928 68.99 1.153 C 69.571 1.378 70.035 1.775 70.383 2.345 C 70.73 2.914 70.904 3.544 70.904 4.233 C 70.904 5.121 70.616 5.87 70.041 6.48 C 69.466 7.089 68.577 7.476 67.375 7.642 C 67.814 7.852 68.147 8.06 68.375 8.265 C 68.859 8.709 69.317 9.265 69.75 9.931 L 71.929 13.34 L 69.844 13.34 L 68.187 10.734 C 67.703 9.982 67.304 9.407 66.991 9.008 C 66.678 8.61 66.397 8.331 66.149 8.171 C 65.902 8.012 65.65 7.901 65.393 7.838 C 65.205 7.798 64.898 7.778 64.471 7.778 L 62.548 7.778 L 62.548 13.34 L 60.891 13.34 Z M 62.548 6.343 L 66.111 6.343 C 66.868 6.343 67.461 6.265 67.888 6.108 C 68.315 5.951 68.64 5.701 68.862 5.356 C 69.084 5.012 69.195 4.637 69.195 4.233 C 69.195 3.64 68.98 3.153 68.55 2.772 C 68.12 2.39 67.441 2.199 66.512 2.199 L 62.548 2.199 L 62.548 6.343 Z " stroke-width="1"/>
    <path id="ID0.5563086736947298" fill="#6FD57E" d="M 79.515 10.418 L 81.104 10.615 C 80.854 11.543 80.39 12.263 79.712 12.776 C 79.034 13.289 78.168 13.545 77.115 13.545 C 75.788 13.545 74.735 13.136 73.958 12.319 C 73.18 11.502 72.792 10.355 72.792 8.88 C 72.792 7.354 73.185 6.169 73.971 5.326 C 74.757 4.483 75.776 4.062 77.029 4.062 C 78.242 4.062 79.233 4.475 80.002 5.301 C 80.771 6.127 81.156 7.288 81.156 8.786 C 81.156 8.877 81.153 9.014 81.147 9.196 L 74.381 9.196 C 74.438 10.193 74.72 10.956 75.227 11.486 C 75.733 12.016 76.366 12.281 77.123 12.281 C 77.687 12.281 78.168 12.132 78.567 11.836 C 78.966 11.54 79.282 11.067 79.515 10.418 Z M 74.466 7.932 L 79.532 7.932 C 79.464 7.169 79.27 6.596 78.951 6.215 C 78.462 5.622 77.827 5.326 77.046 5.326 C 76.34 5.326 75.746 5.563 75.265 6.035 C 74.784 6.508 74.517 7.14 74.466 7.932 Z " stroke-width="1"/>
    <path id="ID0.3552364204078913" fill="#6FD57E" d="M 82.42 10.632 L 83.941 10.392 C 84.026 11.002 84.264 11.469 84.654 11.794 C 85.044 12.118 85.59 12.281 86.29 12.281 C 86.996 12.281 87.52 12.137 87.862 11.849 C 88.204 11.561 88.375 11.224 88.375 10.837 C 88.375 10.489 88.224 10.216 87.922 10.017 C 87.711 9.88 87.187 9.706 86.35 9.495 C 85.222 9.211 84.44 8.964 84.005 8.756 C 83.569 8.549 83.239 8.261 83.014 7.894 C 82.789 7.526 82.676 7.12 82.676 6.676 C 82.676 6.272 82.769 5.897 82.954 5.553 C 83.139 5.208 83.391 4.922 83.71 4.694 C 83.949 4.518 84.275 4.368 84.688 4.246 C 85.101 4.123 85.544 4.062 86.017 4.062 C 86.729 4.062 87.354 4.164 87.892 4.369 C 88.43 4.575 88.827 4.852 89.084 5.202 C 89.34 5.553 89.517 6.021 89.613 6.608 L 88.11 6.813 C 88.041 6.346 87.844 5.981 87.516 5.719 C 87.189 5.457 86.726 5.326 86.128 5.326 C 85.422 5.326 84.917 5.443 84.616 5.677 C 84.314 5.91 84.163 6.183 84.163 6.497 C 84.163 6.696 84.225 6.875 84.351 7.035 C 84.476 7.2 84.673 7.337 84.94 7.445 C 85.094 7.502 85.547 7.633 86.299 7.838 C 87.386 8.129 88.145 8.366 88.575 8.551 C 89.005 8.737 89.343 9.006 89.588 9.359 C 89.833 9.712 89.955 10.15 89.955 10.674 C 89.955 11.187 89.806 11.67 89.507 12.122 C 89.208 12.575 88.776 12.926 88.212 13.173 C 87.648 13.421 87.011 13.545 86.299 13.545 C 85.12 13.545 84.221 13.3 83.603 12.81 C 82.985 12.32 82.591 11.594 82.42 10.632 Z " stroke-width="1"/>
    <path id="ID0.23128494434058666" fill="#6FD57E" d="M 97.73 13.34 L 97.73 12.007 C 97.023 13.032 96.064 13.545 94.85 13.545 C 94.315 13.545 93.815 13.442 93.351 13.237 C 92.887 13.032 92.542 12.775 92.317 12.464 C 92.092 12.154 91.934 11.774 91.843 11.324 C 91.781 11.022 91.749 10.543 91.749 9.888 L 91.749 4.267 L 93.287 4.267 L 93.287 9.299 C 93.287 10.102 93.318 10.643 93.381 10.922 C 93.478 11.327 93.683 11.644 93.996 11.875 C 94.309 12.105 94.697 12.221 95.158 12.221 C 95.619 12.221 96.052 12.103 96.457 11.866 C 96.861 11.63 97.147 11.308 97.315 10.901 C 97.483 10.494 97.567 9.903 97.567 9.128 L 97.567 4.267 L 99.105 4.267 L 99.105 13.34 L 97.73 13.34 Z " stroke-width="1"/>
    <path id="ID0.3077354724518955" fill="#6FD57E" d="M 101.48 0.815 L 103.018 0.815 L 103.018 13.339 L 101.48 13.339 L 101.48 0.815 Z " stroke-width="1"/>
    <path id="ID0.997368770185858" fill="#6FD57E" d="M 108.759 11.964 L 108.981 13.323 C 108.548 13.414 108.161 13.46 107.819 13.46 C 107.261 13.46 106.828 13.371 106.521 13.195 C 106.213 13.018 105.997 12.786 105.871 12.498 C 105.746 12.211 105.683 11.606 105.683 10.683 L 105.683 5.463 L 104.556 5.463 L 104.556 4.267 L 105.683 4.267 L 105.683 2.02 L 107.213 1.097 L 107.213 4.267 L 108.759 4.267 L 108.759 5.463 L 107.213 5.463 L 107.213 10.768 C 107.213 11.207 107.24 11.489 107.294 11.614 C 107.348 11.739 107.436 11.839 107.559 11.913 C 107.681 11.987 107.856 12.024 108.084 12.024 C 108.255 12.024 108.48 12.004 108.759 11.964 Z " stroke-width="1"/>
    <path id="ID0.47403609193861485" fill="#6FD57E" d="M 109.647 10.632 L 111.168 10.392 C 111.254 11.002 111.491 11.469 111.882 11.794 C 112.272 12.118 112.817 12.281 113.518 12.281 C 114.224 12.281 114.748 12.137 115.09 11.849 C 115.431 11.561 115.602 11.224 115.602 10.837 C 115.602 10.489 115.451 10.216 115.149 10.017 C 114.939 9.88 114.415 9.706 113.577 9.495 C 112.45 9.211 111.668 8.964 111.232 8.756 C 110.797 8.549 110.466 8.261 110.241 7.894 C 110.016 7.526 109.904 7.12 109.904 6.676 C 109.904 6.272 109.996 5.897 110.181 5.553 C 110.367 5.208 110.619 4.922 110.937 4.694 C 111.177 4.518 111.503 4.368 111.916 4.246 C 112.329 4.123 112.771 4.062 113.244 4.062 C 113.956 4.062 114.581 4.164 115.119 4.369 C 115.658 4.575 116.055 4.852 116.311 5.202 C 116.568 5.553 116.744 6.021 116.841 6.608 L 115.337 6.813 C 115.269 6.346 115.071 5.981 114.744 5.719 C 114.416 5.457 113.953 5.326 113.355 5.326 C 112.649 5.326 112.145 5.443 111.843 5.677 C 111.541 5.91 111.39 6.183 111.39 6.497 C 111.39 6.696 111.453 6.875 111.578 7.035 C 111.704 7.2 111.9 7.337 112.168 7.445 C 112.321 7.502 112.774 7.633 113.526 7.838 C 114.614 8.129 115.373 8.366 115.803 8.551 C 116.233 8.737 116.57 9.006 116.815 9.359 C 117.06 9.712 117.183 10.15 117.183 10.674 C 117.183 11.187 117.033 11.67 116.734 12.122 C 116.435 12.575 116.004 12.926 115.44 13.173 C 114.876 13.421 114.238 13.545 113.526 13.545 C 112.347 13.545 111.449 13.3 110.831 12.81 C 110.213 12.32 109.818 11.594 109.647 10.632 Z " stroke-width="1"/>
  </g>
</svg>