<svg version="1.1" width="22" height="54.96900177001953" viewBox="0.31300002336502075 -0.4690000005066395 22 54.96900177001953" xmlns="http://www.w3.org/2000/svg" xmlns:xlink="http://www.w3.org/1999/xlink">
  <!-- Exported by Scratch - http://scratch.mit.edu/ -->
  <g id="ID0.3470479529350996">
    <g id="layer1">
      <path id="path3101" fill="#666666" stroke="none" d="M 17.813 0.031 C 16.055 0.031 14.504 0.313 13.156 0.875 C 11.809 1.438 10.703 2.238 9.813 3.281 C 8.922 4.324 8.238 5.598 7.781 7.063 C 7.324 8.527 7.094 10.164 7.094 11.969 L 7.094 18 L 0.813 18 L 0.813 21.938 L 7.094 21.938 L 7.094 54 L 11.594 54 L 11.594 21.938 L 20.563 21.938 L 20.563 18 L 11.594 18 L 11.594 12.25 C 11.594 6.742 13.687 3.969 17.906 3.969 C 19.5 3.969 20.805 4.313 21.813 4.969 L 21.813 0.719 C 20.828 0.273 19.5 0.031 17.813 0.031 Z " stroke-width="1"/>
    </g>
  </g>
</svg>