<svg version="1.1" width="61.37900161743164" height="19.381999969482422" viewBox="-0.04800000786781311 0.16100001335144043 61.37900161743164 19.381999969482422" xmlns="http://www.w3.org/2000/svg" xmlns:xlink="http://www.w3.org/1999/xlink">
  <!-- Exported by Scratch - http://scratch.mit.edu/ -->
  <g id="Get Code Button">
    <path id="ID0.1090778992511332" fill="#878787" d="M 0.452 0.661 L 60.831 0.661 L 60.831 19.043 L 0.452 19.043 L 0.452 0.661 Z " stroke-width="1"/>
    <path id="ID0.42470113141462207" fill="#fff" d="M 10.822 10.778 L 10.822 9.770 L 14.461 9.764 L 14.461 12.951 C 13.902 13.397 13.326 13.732 12.732 13.956 C 12.138 14.181 11.529 14.293 10.904 14.293 C 10.060 14.293 9.294 14.113 8.604 13.751 C 7.915 13.390 7.394 12.867 7.043 12.184 C 6.691 11.500 6.515 10.737 6.515 9.893 C 6.515 9.057 6.690 8.277 7.040 7.552 C 7.389 6.827 7.892 6.289 8.549 5.938 C 9.205 5.586 9.961 5.410 10.816 5.410 C 11.437 5.410 11.999 5.511 12.501 5.712 C 13.003 5.913 13.396 6.194 13.681 6.553 C 13.966 6.912 14.183 7.381 14.332 7.959 L 13.306 8.240 C 13.177 7.803 13.017 7.459 12.826 7.209 C 12.634 6.959 12.361 6.759 12.006 6.609 C 11.650 6.458 11.256 6.383 10.822 6.383 C 10.302 6.383 9.853 6.462 9.474 6.620 C 9.095 6.779 8.790 6.987 8.557 7.244 C 8.325 7.502 8.144 7.785 8.015 8.094 C 7.797 8.625 7.687 9.201 7.687 9.822 C 7.687 10.588 7.819 11.229 8.083 11.744 C 8.346 12.260 8.730 12.643 9.234 12.893 C 9.738 13.143 10.273 13.268 10.840 13.268 C 11.332 13.268 11.812 13.173 12.281 12.984 C 12.750 12.794 13.105 12.592 13.347 12.377 L 13.347 10.778 L 10.822 10.778 Z " stroke-width="1"/>
    <path id="ID0.4857429643161595" fill="#fff" d="M 20.261 12.143 L 21.351 12.278 C 21.179 12.914 20.861 13.408 20.396 13.760 C 19.931 14.112 19.338 14.287 18.615 14.287 C 17.705 14.287 16.983 14.007 16.450 13.447 C 15.917 12.886 15.650 12.100 15.650 11.088 C 15.650 10.041 15.920 9.229 16.459 8.651 C 16.998 8.072 17.697 7.783 18.556 7.783 C 19.388 7.783 20.068 8.067 20.595 8.633 C 21.123 9.199 21.386 9.996 21.386 11.024 C 21.386 11.086 21.384 11.180 21.381 11.305 L 16.740 11.305 C 16.779 11.988 16.972 12.512 17.320 12.875 C 17.668 13.238 18.101 13.420 18.621 13.420 C 19.008 13.420 19.338 13.319 19.611 13.115 C 19.884 12.912 20.101 12.588 20.261 12.143 Z M 16.799 10.438 L 20.273 10.438 C 20.226 9.914 20.093 9.522 19.875 9.260 C 19.539 8.854 19.103 8.651 18.568 8.651 C 18.084 8.651 17.676 8.813 17.346 9.137 C 17.016 9.461 16.834 9.895 16.799 10.438 Z " stroke-width="1"/>
    <path id="ID0.8834475758485496" fill="#fff" d="M 24.978 13.203 L 25.131 14.135 C 24.834 14.197 24.568 14.229 24.334 14.229 C 23.951 14.229 23.654 14.168 23.443 14.047 C 23.232 13.926 23.084 13.767 22.998 13.570 C 22.912 13.372 22.869 12.957 22.869 12.324 L 22.869 8.744 L 22.095 8.744 L 22.095 7.924 L 22.869 7.924 L 22.869 6.383 L 23.918 5.750 L 23.918 7.924 L 24.978 7.924 L 24.978 8.744 L 23.918 8.744 L 23.918 12.383 C 23.918 12.684 23.936 12.877 23.973 12.963 C 24.010 13.049 24.071 13.117 24.155 13.168 C 24.239 13.219 24.359 13.244 24.515 13.244 C 24.633 13.244 24.787 13.231 24.978 13.203 Z " stroke-width="1"/>
    <path id="ID0.9241154408082366" fill="#fff" d="M 33.404 11.867 L 34.441 12.002 C 34.328 12.717 34.038 13.277 33.571 13.681 C 33.104 14.085 32.531 14.287 31.851 14.287 C 31 14.287 30.315 14.009 29.798 13.452 C 29.280 12.896 29.021 12.098 29.021 11.059 C 29.021 10.387 29.133 9.799 29.355 9.295 C 29.578 8.791 29.917 8.413 30.372 8.161 C 30.827 7.909 31.322 7.783 31.857 7.783 C 32.533 7.783 33.086 7.954 33.515 8.296 C 33.945 8.638 34.220 9.123 34.341 9.752 L 33.316 9.910 C 33.218 9.492 33.046 9.178 32.798 8.967 C 32.549 8.756 32.250 8.651 31.898 8.651 C 31.367 8.651 30.935 8.841 30.603 9.222 C 30.271 9.603 30.105 10.205 30.105 11.030 C 30.105 11.865 30.265 12.473 30.586 12.852 C 30.906 13.231 31.324 13.420 31.840 13.420 C 32.254 13.420 32.599 13.293 32.877 13.039 C 33.154 12.785 33.330 12.395 33.404 11.867 Z " stroke-width="1"/>
    <path id="ID0.4595288769342005" fill="#fff" d="M 34.951 11.035 C 34.951 9.883 35.271 9.030 35.912 8.475 C 36.447 8.014 37.099 7.783 37.869 7.783 C 38.724 7.783 39.424 8.064 39.966 8.624 C 40.509 9.185 40.781 9.959 40.781 10.947 C 40.781 11.748 40.661 12.378 40.421 12.837 C 40.180 13.296 39.831 13.653 39.372 13.906 C 38.913 14.160 38.412 14.287 37.869 14.287 C 36.998 14.287 36.294 14.008 35.757 13.449 C 35.219 12.891 34.951 12.086 34.951 11.035 Z M 36.035 11.035 C 36.035 11.832 36.209 12.429 36.556 12.825 C 36.904 13.222 37.341 13.420 37.869 13.420 C 38.392 13.420 38.828 13.221 39.175 12.822 C 39.523 12.424 39.697 11.817 39.697 11 C 39.697 10.231 39.522 9.648 39.173 9.251 C 38.823 8.855 38.388 8.656 37.869 8.656 C 37.341 8.656 36.904 8.854 36.556 9.248 C 36.209 9.643 36.035 10.238 36.035 11.035 Z " stroke-width="1"/>
    <path id="ID0.12511122645810246" fill="#fff" d="M 46.054 14.147 L 46.054 13.362 C 45.660 13.979 45.080 14.287 44.314 14.287 C 43.818 14.287 43.362 14.151 42.946 13.877 C 42.530 13.604 42.208 13.222 41.979 12.732 C 41.751 12.241 41.636 11.678 41.636 11.041 C 41.636 10.420 41.740 9.857 41.947 9.351 C 42.154 8.845 42.465 8.457 42.879 8.188 C 43.293 7.918 43.756 7.783 44.267 7.783 C 44.642 7.783 44.976 7.863 45.269 8.021 C 45.562 8.179 45.800 8.385 45.984 8.639 L 45.984 5.557 L 47.033 5.557 L 47.033 14.147 L 46.054 14.147 Z M 42.720 11.041 C 42.720 11.838 42.888 12.434 43.224 12.828 C 43.560 13.223 43.957 13.420 44.414 13.420 C 44.875 13.420 45.266 13.232 45.589 12.855 C 45.911 12.478 46.072 11.903 46.072 11.129 C 46.072 10.278 45.908 9.653 45.580 9.254 C 45.252 8.856 44.847 8.656 44.367 8.656 C 43.898 8.656 43.507 8.848 43.192 9.231 C 42.878 9.613 42.720 10.217 42.720 11.041 Z " stroke-width="1"/>
    <path id="ID0.6842101658694446" fill="#fff" d="M 52.951 12.143 L 54.041 12.278 C 53.869 12.914 53.550 13.408 53.086 13.760 C 52.621 14.112 52.027 14.287 51.304 14.287 C 50.394 14.287 49.673 14.007 49.139 13.447 C 48.606 12.886 48.340 12.100 48.340 11.088 C 48.340 10.041 48.609 9.229 49.148 8.651 C 49.687 8.072 50.386 7.783 51.246 7.783 C 52.078 7.783 52.758 8.067 53.285 8.633 C 53.812 9.199 54.076 9.996 54.076 11.024 C 54.076 11.086 54.074 11.180 54.070 11.305 L 49.429 11.305 C 49.468 11.988 49.662 12.512 50.009 12.875 C 50.357 13.238 50.791 13.420 51.310 13.420 C 51.697 13.420 52.027 13.319 52.300 13.115 C 52.574 12.912 52.791 12.588 52.951 12.143 Z M 49.488 10.438 L 52.963 10.438 C 52.916 9.914 52.783 9.522 52.564 9.260 C 52.228 8.854 51.793 8.651 51.258 8.651 C 50.773 8.651 50.366 8.813 50.036 9.137 C 49.706 9.461 49.523 9.895 49.488 10.438 Z " stroke-width="1"/>
  </g>
</svg>