<svg version="1.1" width="33.21799850463867" height="55.125" viewBox="-0.43699999898672104 0.218999981880188 33.21799850463867 55.125" xmlns="http://www.w3.org/2000/svg" xmlns:xlink="http://www.w3.org/1999/xlink">
  <!-- Exported by Scratch - http://scratch.mit.edu/ -->
  <g id="ID0.15341123985126615">
    <g id="layer1">
      <path id="path3020" fill="#666666" stroke="none" d="M 0.063 0.719 L 0.063 54 L 4.563 54 L 4.563 48.188 L 4.688 48.188 C 7.172 52.617 10.977 54.844 16.063 54.844 C 18.547 54.844 20.777 54.348 22.781 53.375 C 24.785 52.402 26.5 51.039 27.906 49.281 C 29.312 47.523 30.394 45.418 31.156 42.969 C 31.918 40.52 32.281 37.82 32.281 34.844 C 32.281 32.172 31.949 29.742 31.281 27.563 C 30.613 25.383 29.66 23.516 28.406 21.969 C 27.152 20.422 25.629 19.238 23.813 18.406 C 21.996 17.574 19.922 17.156 17.625 17.156 C 14.812 17.156 12.301 17.832 10.063 19.156 C 7.824 20.481 6.023 22.398 4.688 24.906 L 4.563 24.906 L 4.563 0.719 L 0.063 0.719 Z M 16.719 21.063 C 18.383 21.063 19.871 21.367 21.219 22 C 22.566 22.633 23.738 23.555 24.688 24.75 C 25.637 25.945 26.359 27.395 26.875 29.094 C 27.391 30.793 27.656 32.703 27.656 34.813 C 27.656 37.273 27.363 39.508 26.813 41.5 C 26.262 43.492 25.488 45.188 24.469 46.594 C 23.449 48 22.203 49.082 20.75 49.844 C 19.297 50.605 17.68 50.969 15.875 50.969 C 14.187 50.969 12.645 50.664 11.25 50.031 C 9.855 49.398 8.672 48.527 7.688 47.438 C 6.703 46.348 5.926 45.098 5.375 43.656 C 4.824 42.215 4.562 40.672 4.563 39.031 L 4.563 34.25 C 4.562 32.445 4.844 30.731 5.406 29.125 C 5.969 27.52 6.758 26.133 7.813 24.938 C 8.867 23.742 10.156 22.785 11.656 22.094 C 13.156 21.402 14.844 21.063 16.719 21.063 Z " stroke-width="1"/>
    </g>
  </g>
</svg>