<svg version="1.1" width="66.18900299072266" height="66.18999481201172" viewBox="0.375 0.07999998331069946 66.18900299072266 66.18999481201172" xmlns="http://www.w3.org/2000/svg" xmlns:xlink="http://www.w3.org/1999/xlink">
  <!-- Exported by Scratch - http://scratch.mit.edu/ -->
  <g id="Browse Button">
    <path id="ID0.3870245353318751" fill="#6FD57E" d="M 33.469 0.580 C 42.462 0.580 50.611 4.233 56.511 10.133 C 62.412 16.034 66.064 24.183 66.064 33.175 C 66.064 42.168 62.412 50.317 56.511 56.217 C 50.611 62.118 42.462 65.770 33.469 65.770 C 24.477 65.770 16.328 62.118 10.428 56.217 C 4.527 50.317 0.875 42.168 0.875 33.175 C 0.875 24.183 4.527 16.034 10.428 10.133 C 16.328 4.233 24.477 0.580 33.469 0.580 Z " stroke-width="1"/>
    <g id="ID0.6739739375188947">
      <g id="ID0.3225052412599325">
        <path id="ID0.057481045834720135" fill="none" stroke="white" stroke-width="1" d="M 51.954 39.672 C 49.284 47.318 42.015 52.785 33.469 52.785 C 22.639 52.785 13.860 44.005 13.860 33.175 C 13.860 22.345 22.640 13.566 33.469 13.566 C 42.389 13.566 49.918 19.521 52.278 27.657 L 15.822 27.972 L 26.624 27.972 C 35.211 27.972 43.707 27.664 52.278 27.659 C 52.806 29.419 53.079 31.265 53.079 33.175 C 53.079 35.460 52.688 37.653 51.955 39.670 L 15.822 39.982 L 26.624 39.982 C 35.103 39.982 43.495 39.681 51.954 39.672 Z "/>
        <path id="ID0.2068837620317936" fill="none" stroke="white" stroke-width="1" d="M 33.469 13.566 C 36.175 13.566 38.626 15.763 40.401 19.313 C 42.176 22.863 43.274 27.765 43.274 33.175 C 43.274 38.585 42.176 43.488 40.401 47.037 C 38.626 50.587 36.175 52.785 33.469 52.785 C 30.764 52.785 28.313 50.587 26.538 47.037 C 24.763 43.488 23.665 38.585 23.665 33.175 C 23.665 27.765 24.763 22.863 26.538 19.313 C 28.313 15.763 30.764 13.566 33.469 13.566 Z "/>
        <path id="ID0.4789209170266986" fill="none" stroke="white" stroke-width="1" d="M 33.151 14.027 C 33.151 22.735 33.470 31.367 33.470 40.091 C 33.470 44.311 33.470 48.530 33.470 52.749 C 33.470 52.927 33.470 52.392 33.470 52.214 C 33.470 51.774 33.470 51.334 33.470 50.894 "/>
      </g>
    </g>
  </g>
</svg>