<svg width="130.05704748448213" height="19.1046472769626" viewBox="-0.5285237422410652 0.35957628579695966 130.05704748448213 19.1046472769626" version="1.1" xmlns="http://www.w3.org/2000/svg" xmlns:xlink="http://www.w3.org/1999/xlink" xml:space="preserve" style="fill-rule:evenodd;clip-rule:evenodd;stroke-linejoin:round;stroke-miterlimit:1.41421;">
    <g>
        <g id="View in browser">
            <g>
                <path d="M 129 5.3995 C 129 2.9093 126.978 0.8881 124.488 0.8881 L 4.512 0.8881 C 2.022 0.8881 0 2.9093 0 5.3995 L 0 14.4233 C 0 16.9134 2.022 18.9357 4.512 18.9357 L 124.488 18.9357 C 126.978 18.9357 129 16.9134 129 14.4233 L 129 5.3995 Z " style="fill:white;" stroke-width="1.0570474844821305"/>
            </g>
            <g>
                <path d="M 37.404 14.2968 L 37.404 4.8268 L 33.866 4.8268 L 33.866 3.5598 L 42.377 3.5598 L 42.377 4.8268 L 38.825 4.8268 L 38.825 14.2968 L 37.404 14.2968 Z " style="fill:rgb(234,95,97);fill-rule:nonzero;" stroke-width="1"/>
                <path d="M 43.095 14.2968 L 43.095 6.5188 L 44.281 6.5188 L 44.281 7.6978 C 44.584 7.1458 44.864 6.7828 45.12 6.6068 C 45.376 6.4308 45.658 6.3428 45.966 6.3428 C 46.41 6.3428 46.862 6.4848 47.321 6.7678 L 46.867 7.9908 C 46.545 7.8008 46.222 7.7048 45.9 7.7048 C 45.612 7.7048 45.353 7.7918 45.124 7.9658 C 44.894 8.1388 44.731 8.3788 44.633 8.6868 C 44.486 9.1558 44.413 9.6678 44.413 10.2248 L 44.413 14.2968 L 43.095 14.2968 Z " style="fill:rgb(234,95,97);fill-rule:nonzero;" stroke-width="1"/>
                <path d="M 48.046 17.2928 L 47.9 16.0548 C 48.188 16.1328 48.439 16.1718 48.654 16.1718 C 48.947 16.1718 49.181 16.1228 49.357 16.0258 C 49.533 15.9278 49.677 15.7908 49.789 15.6158 C 49.872 15.4838 50.006 15.1568 50.192 14.6338 C 50.216 14.5608 50.256 14.4538 50.309 14.3118 L 47.358 6.5188 L 48.778 6.5188 L 50.397 11.0228 C 50.607 11.5948 50.795 12.1948 50.961 12.8248 C 51.112 12.2198 51.293 11.6288 51.503 11.0528 L 53.166 6.5188 L 54.484 6.5188 L 51.525 14.4288 C 51.208 15.2838 50.961 15.8718 50.785 16.1938 C 50.551 16.6288 50.282 16.9468 49.98 17.1498 C 49.677 17.3528 49.316 17.4538 48.896 17.4538 C 48.642 17.4538 48.359 17.3998 48.046 17.2928 Z " style="fill:rgb(234,95,97);fill-rule:nonzero;" stroke-width="1"/>
                <path d="M 64.848 13.3378 C 64.36 13.7528 63.89 14.0458 63.438 14.2168 C 62.986 14.3878 62.502 14.4728 61.984 14.4728 C 61.13 14.4728 60.473 14.2638 60.014 13.8468 C 59.555 13.4288 59.325 12.8958 59.325 12.2468 C 59.325 11.8658 59.412 11.5178 59.585 11.2028 C 59.759 10.8878 59.986 10.6348 60.266 10.4448 C 60.547 10.2538 60.863 10.1098 61.215 10.0128 C 61.474 9.9438 61.864 9.8778 62.387 9.8148 C 63.451 9.6878 64.235 9.5368 64.738 9.3608 C 64.743 9.1798 64.745 9.0648 64.745 9.0168 C 64.745 8.4788 64.621 8.1008 64.372 7.8808 C 64.035 7.5828 63.534 7.4338 62.87 7.4338 C 62.25 7.4338 61.792 7.5428 61.497 7.7598 C 61.202 7.9778 60.983 8.3618 60.841 8.9138 L 59.552 8.7378 C 59.67 8.1858 59.862 7.7408 60.131 7.4018 C 60.4 7.0618 60.788 6.8008 61.296 6.6178 C 61.803 6.4348 62.392 6.3428 63.061 6.3428 C 63.725 6.3428 64.264 6.4208 64.679 6.5778 C 65.094 6.7338 65.4 6.9298 65.595 7.1668 C 65.79 7.4038 65.927 7.7028 66.005 8.0638 C 66.049 8.2888 66.071 8.6938 66.071 9.2798 L 66.071 11.0378 C 66.071 12.2638 66.099 13.0388 66.155 13.3628 C 66.211 13.6878 66.322 13.9988 66.488 14.2968 L 65.111 14.2968 C 64.975 14.0238 64.887 13.7038 64.848 13.3378 Z M 64.738 10.3928 C 64.259 10.5888 63.542 10.7548 62.585 10.8918 C 62.043 10.9698 61.659 11.0578 61.435 11.1548 C 61.21 11.2528 61.037 11.3958 60.915 11.5838 C 60.793 11.7718 60.732 11.9798 60.732 12.2098 C 60.732 12.5608 60.865 12.8538 61.131 13.0888 C 61.397 13.3228 61.786 13.4398 62.299 13.4398 C 62.807 13.4398 63.258 13.3288 63.654 13.1068 C 64.049 12.8848 64.34 12.5808 64.526 12.1948 C 64.667 11.8968 64.738 11.4578 64.738 10.8768 L 64.738 10.3928 Z " style="fill:rgb(234,95,97);fill-rule:nonzero;" stroke-width="1"/>
                <path d="M 67.873 14.9418 L 69.154 15.1318 C 69.208 15.5278 69.357 15.8158 69.601 15.9968 C 69.928 16.2408 70.375 16.3628 70.942 16.3628 C 71.552 16.3628 72.023 16.2408 72.355 15.9968 C 72.687 15.7518 72.912 15.4108 73.029 14.9708 C 73.097 14.7028 73.129 14.1388 73.124 13.2788 C 72.548 13.9578 71.83 14.2968 70.971 14.2968 C 69.902 14.2968 69.074 13.9118 68.488 13.1398 C 67.902 12.3688 67.609 11.4428 67.609 10.3638 C 67.609 9.6218 67.743 8.9368 68.012 8.3098 C 68.28 7.6818 68.67 7.1978 69.18 6.8558 C 69.69 6.5138 70.29 6.3428 70.978 6.3428 C 71.896 6.3428 72.653 6.7138 73.249 7.4558 L 73.249 6.5188 L 74.464 6.5188 L 74.464 13.2428 C 74.464 14.4538 74.341 15.3118 74.095 15.8168 C 73.848 16.3218 73.457 16.7218 72.923 17.0148 C 72.388 17.3078 71.73 17.4538 70.949 17.4538 C 70.021 17.4538 69.272 17.2448 68.7 16.8278 C 68.129 16.4098 67.853 15.7818 67.873 14.9418 Z M 68.964 10.2688 C 68.964 11.2888 69.167 12.0338 69.572 12.5028 C 69.977 12.9718 70.485 13.2058 71.095 13.2058 C 71.701 13.2058 72.209 12.9728 72.619 12.5068 C 73.029 12.0398 73.234 11.3088 73.234 10.3128 C 73.234 9.3608 73.023 8.6428 72.6 8.1598 C 72.178 7.6758 71.669 7.4338 71.073 7.4338 C 70.487 7.4338 69.989 7.6728 69.579 8.1488 C 69.169 8.6248 68.964 9.3308 68.964 10.2688 Z " style="fill:rgb(234,95,97);fill-rule:nonzero;" stroke-width="1"/>
                <path d="M 81.532 13.3378 C 81.044 13.7528 80.574 14.0458 80.122 14.2168 C 79.671 14.3878 79.186 14.4728 78.669 14.4728 C 77.814 14.4728 77.157 14.2638 76.698 13.8468 C 76.239 13.4288 76.01 12.8958 76.01 12.2468 C 76.01 11.8658 76.097 11.5178 76.27 11.2028 C 76.443 10.8878 76.67 10.6348 76.951 10.4448 C 77.232 10.2538 77.548 10.1098 77.9 10.0128 C 78.158 9.9438 78.549 9.8778 79.071 9.8148 C 80.136 9.6878 80.92 9.5368 81.423 9.3608 C 81.427 9.1798 81.43 9.0648 81.43 9.0168 C 81.43 8.4788 81.305 8.1008 81.056 7.8808 C 80.719 7.5828 80.219 7.4338 79.555 7.4338 C 78.935 7.4338 78.477 7.5428 78.182 7.7598 C 77.886 7.9778 77.668 8.3618 77.526 8.9138 L 76.237 8.7378 C 76.354 8.1858 76.547 7.7408 76.816 7.4018 C 77.084 7.0618 77.472 6.8008 77.98 6.6178 C 78.488 6.4348 79.076 6.3428 79.745 6.3428 C 80.409 6.3428 80.949 6.4208 81.364 6.5778 C 81.779 6.7338 82.084 6.9298 82.279 7.1668 C 82.475 7.4038 82.611 7.7028 82.69 8.0638 C 82.734 8.2888 82.756 8.6938 82.756 9.2798 L 82.756 11.0378 C 82.756 12.2638 82.784 13.0388 82.84 13.3628 C 82.896 13.6878 83.007 13.9988 83.173 14.2968 L 81.796 14.2968 C 81.659 14.0238 81.571 13.7038 81.532 13.3378 Z M 81.423 10.3928 C 80.944 10.5888 80.226 10.7548 79.269 10.8918 C 78.727 10.9698 78.344 11.0578 78.119 11.1548 C 77.895 11.2528 77.721 11.3958 77.599 11.5838 C 77.477 11.7718 77.416 11.9798 77.416 12.2098 C 77.416 12.5608 77.549 12.8538 77.815 13.0888 C 78.081 13.3228 78.471 13.4398 78.984 13.4398 C 79.491 13.4398 79.943 13.3288 80.339 13.1068 C 80.734 12.8848 81.025 12.5808 81.21 12.1948 C 81.352 11.8968 81.423 11.4578 81.423 10.8768 L 81.423 10.3928 Z " style="fill:rgb(234,95,97);fill-rule:nonzero;" stroke-width="1"/>
                <path d="M 84.806 5.0758 L 84.806 3.5598 L 86.125 3.5598 L 86.125 5.0758 L 84.806 5.0758 Z M 84.806 14.2968 L 84.806 6.5188 L 86.125 6.5188 L 86.125 14.2968 L 84.806 14.2968 Z " style="fill:rgb(234,95,97);fill-rule:nonzero;" stroke-width="1"/>
                <path d="M 88.131 14.2968 L 88.131 6.5188 L 89.318 6.5188 L 89.318 7.6248 C 89.889 6.7698 90.714 6.3428 91.794 6.3428 C 92.262 6.3428 92.693 6.4268 93.086 6.5958 C 93.479 6.7638 93.774 6.9848 93.969 7.2588 C 94.164 7.5318 94.301 7.8568 94.379 8.2328 C 94.428 8.4768 94.452 8.9038 94.452 9.5148 L 94.452 14.2968 L 93.134 14.2968 L 93.134 9.5658 C 93.134 9.0288 93.083 8.6268 92.98 8.3608 C 92.878 8.0948 92.696 7.8818 92.434 7.7238 C 92.173 7.5648 91.867 7.4858 91.515 7.4858 C 90.954 7.4858 90.469 7.6638 90.061 8.0198 C 89.654 8.3768 89.45 9.0528 89.45 10.0488 L 89.45 14.2968 L 88.131 14.2968 Z " style="fill:rgb(234,95,97);fill-rule:nonzero;" stroke-width="1"/>
            </g>
        </g>
    </g>
</svg>