<svg version="1.1" width="31.302972404833156" height="31.302972404833156" viewBox="-2.5645864748336464 -2.5645864748336464 31.302972404833156 31.302972404833156" xmlns="http://www.w3.org/2000/svg" xmlns:xlink="http://www.w3.org/1999/xlink">
  <!-- Exported by Scratch - http://scratch.mit.edu/ -->
  <g id="Back to Browser Button">
    <path id="ID0.08513270551338792" fill="#fff" d="M 13.0869 0.3062 C 16.6122 0.3062 19.8103 1.7358 22.1241 4.0497 C 24.438 6.3635 25.8676 9.5616 25.8676 13.0869 C 25.8676 16.6122 24.438 19.8103 22.1241 22.1241 C 19.8103 24.438 16.6122 25.8676 13.0869 25.8676 C 9.5616 25.8676 6.3635 24.438 4.0497 22.1241 C 1.7358 19.8103 0.3062 16.6122 0.3062 13.0869 C 0.3062 9.5616 1.7358 6.3635 4.0497 4.0497 C 6.3635 1.7358 9.5616 0.3062 13.0869 0.3062 Z " stroke-width="5.741572944994289"/>
    <g id="ID0.7775316652841866">
      <path id="ID0.8496712697669864" fill="none" stroke="#65a8e7" stroke-width="0.8612359417491433" d="M 17.4677 16.5663 C 16.6983 18.7596 14.6142 20.327 12.1682 20.327 C 9.0621 20.327 6.5472 17.8065 6.5472 14.706 C 6.5472 11.6056 9.0621 9.085 12.1682 9.085 C 14.7175 9.085 16.8763 10.7903 17.5596 13.1271 L 7.1099 13.2132 L 10.2046 13.2132 C 12.6678 13.2132 15.1022 13.1271 17.5596 13.1271 C 17.7089 13.6323 17.7892 14.1606 17.7892 14.706 C 17.7892 15.3606 17.6744 15.9921 17.4677 16.5663 L 7.1099 16.6582 L 10.2046 16.6582 C 12.6333 16.6582 15.039 16.572 17.4677 16.5663 Z "/>
      <path id="ID0.4106833371333778" fill="none" stroke="#65a8e7" stroke-width="0.8612359417491433" d="M 12.1682 9.085 C 12.9434 9.085 13.6496 9.7166 14.1548 10.7329 C 14.6658 11.7491 14.9816 13.1558 14.9816 14.706 C 14.9816 16.2562 14.6658 17.6629 14.1548 18.6792 C 13.6496 19.6954 12.9434 20.327 12.1682 20.327 C 11.3931 20.327 10.6869 19.6954 10.1817 18.6792 C 9.6707 17.6629 9.3549 16.2562 9.3549 14.706 C 9.3549 13.1558 9.6707 11.7491 10.1817 10.7329 C 10.6869 9.7166 11.3931 9.085 12.1682 9.085 Z "/>
      <path id="ID0.03204445820301771" fill="none" stroke="#65a8e7" stroke-width="0.8612359417491433" d="M 12.0764 9.2171 C 12.0764 11.7147 12.1682 14.1893 12.1682 16.6869 C 12.1682 17.8983 12.1682 19.1098 12.1682 20.3155 C 12.1682 20.3672 12.1682 20.2179 12.1682 20.1663 C 12.1682 20.0399 12.1682 19.9136 12.1682 19.7873 "/>
    </g>
    <path id="ID0.9725247072055936" fill="#65a8e7" d="M 19.8103 7.219 C 19.0007 6.4783 17.9959 6.1051 16.9797 6.0822 L 16.8936 3.975 L 14.373 6.7138 L 17.1117 9.2343 L 17.0199 7.1214 C 17.772 7.1559 18.5127 7.4314 19.1098 7.9826 C 20.1835 8.9759 20.4533 10.5204 19.8792 11.7836 L 20.8208 12.2142 C 21.5729 10.5491 21.2227 8.5223 19.8103 7.219 Z " stroke-width="5.741572944994289"/>
  </g>
</svg>