<svg width="59.951995849609375" height="14.907999992370605" viewBox="-0.499997615814209 -0.5 59.951995849609375 14.907999992370605" version="1.1" style="fill-rule:evenodd;clip-rule:evenodd;stroke-linejoin:round;stroke-miterlimit:1.41421;" xml:space="preserve" xmlns="http://www.w3.org/2000/svg" xmlns:xlink="http://www.w3.org/1999/xlink">
  <g>
    <g id="1">
      <path d="M58.952,6.954c0,-3.838 -3.116,-6.954 -6.954,-6.954l-45.044,0c-3.838,0 -6.954,3.116 -6.954,6.954c0,3.838 3.116,6.954 6.954,6.954l45.044,0c3.838,0 6.954,-3.116 6.954,-6.954Z" style="fill:#9fd3ff;" stroke-width="1"/>
      <rect x="5.875" y="4.233" width="0.784" height="5.923" style="fill:#fff;fill-rule:nonzero;" stroke-width="1"/>
      <path d="M10.307,10.156l0,-5.923l0.784,0l0,5.224l2.917,0l0,0.699l-3.701,0Z" style="fill:#fff;fill-rule:nonzero;" stroke-width="1"/>
      <path d="M14.703,7.271c0,-0.983 0.264,-1.753 0.792,-2.309c0.528,-0.556 1.21,-0.834 2.045,-0.834c0.547,0 1.039,0.13 1.479,0.391c0.439,0.262 0.773,0.626 1.004,1.093c0.23,0.468 0.345,0.998 0.345,1.59c0,0.601 -0.121,1.138 -0.364,1.612c-0.242,0.475 -0.585,0.834 -1.03,1.077c-0.444,0.244 -0.924,0.366 -1.438,0.366c-0.558,0 -1.056,-0.135 -1.495,-0.404c-0.439,-0.269 -0.772,-0.637 -0.998,-1.103c-0.227,-0.466 -0.34,-0.959 -0.34,-1.479ZM15.511,7.283c0,0.714 0.192,1.276 0.576,1.687c0.384,0.411 0.866,0.616 1.445,0.616c0.59,0 1.075,-0.207 1.456,-0.622c0.381,-0.415 0.572,-1.003 0.572,-1.766c0,-0.482 -0.082,-0.903 -0.244,-1.262c-0.163,-0.36 -0.402,-0.639 -0.716,-0.837c-0.313,-0.198 -0.666,-0.297 -1.056,-0.297c-0.555,0 -1.033,0.191 -1.433,0.572c-0.4,0.381 -0.6,1.018 -0.6,1.909Z" style="fill:#fff;fill-rule:nonzero;" stroke-width="1"/>
      <path d="M23.071,10.156l-2.295,-5.923l0.849,0l1.539,4.303c0.124,0.344 0.228,0.668 0.311,0.969c0.092,-0.323 0.198,-0.646 0.319,-0.969l1.6,-4.303l0.8,0l-2.319,5.923l-0.804,0Z" style="fill:#fff;fill-rule:nonzero;" stroke-width="1"/>
      <path d="M26.914,10.156l0,-5.923l4.283,0l0,0.699l-3.5,0l0,1.814l3.277,0l0,0.695l-3.277,0l0,2.016l3.637,0l0,0.699l-4.42,0Z" style="fill:#fff;fill-rule:nonzero;" stroke-width="1"/>
      <rect x="34.849" y="4.233" width="0.784" height="5.923" style="fill:#fff;fill-rule:nonzero;" stroke-width="1"/>
      <path d="M38.522,10.156l0,-5.224l-1.952,0l0,-0.699l4.695,0l0,0.699l-1.959,0l0,5.224l-0.784,0Z" style="fill:#fff;fill-rule:nonzero;" stroke-width="1"/>
      <path d="M42.364,8.685l-0.222,-3.139l0,-1.313l0.901,0l0,1.313l-0.21,3.139l-0.469,0ZM42.174,10.156l0,-0.828l0.837,0l0,0.828l-0.837,0Z" style="fill:#fff;fill-rule:nonzero;" stroke-width="1"/>
    </g>
    <path d="M50.026,4.538c0.776,-1.32 2.329,-1.32 3.105,-0.66c0.777,0.66 0.777,1.98 0,3.3c-0.543,0.99 -3.105,3.286 -3.105,3.286c0,0 -2.562,-2.296 -3.106,-3.286c-0.776,-1.32 -0.776,-2.64 0,-3.3c0.777,-0.66 2.329,-0.66 3.106,0.66Z" style="fill:#ea5f61;" stroke-width="1"/>
  </g>
</svg>