<svg width="130.05704748448213" height="19.1046472769626" viewBox="-0.5283237422461177 0.35957628579695966 130.05704748448213 19.1046472769626" version="1.1" xmlns="http://www.w3.org/2000/svg" xmlns:xlink="http://www.w3.org/1999/xlink" xml:space="preserve" style="fill-rule:evenodd;clip-rule:evenodd;stroke-linejoin:round;stroke-miterlimit:1.41421;">
    <g>
        <g id="Troubleshoot Button">
            <g>
                <path d="M 129.0002 5.3995 C 129.0002 2.9093 126.9782 0.8881 124.4882 0.8881 L 4.5122 0.8881 C 2.0222 0.8881 0.0002 2.9093 0.0002 5.3995 L 0.0002 14.4233 C 0.0002 16.9134 2.0222 18.9357 4.5122 18.9357 L 124.4882 18.9357 C 126.9782 18.9357 129.0002 16.9134 129.0002 14.4233 L 129.0002 5.3995 Z " style="fill:white;" stroke-width="1.0570474844821305"/>
            </g>
            <g>
                <path d="M 24.8912 14.3038 L 24.8912 4.8338 L 21.3532 4.8338 L 21.3532 3.5668 L 29.8642 3.5668 L 29.8642 4.8338 L 26.3112 4.8338 L 26.3112 14.3038 L 24.8912 14.3038 Z " style="fill:rgb(234,95,97);fill-rule:nonzero;" stroke-width="1"/>
                <path d="M 30.5812 14.3038 L 30.5812 6.5258 L 31.7682 6.5258 L 31.7682 7.7048 C 32.0712 7.1528 32.3502 6.7898 32.6072 6.6138 C 32.8632 6.4378 33.1452 6.3498 33.4532 6.3498 C 33.8972 6.3498 34.3492 6.4918 34.8082 6.7748 L 34.3532 7.9978 C 34.0312 7.8078 33.7092 7.7118 33.3872 7.7118 C 33.0992 7.7118 32.8402 7.7988 32.6102 7.9728 C 32.3812 8.1458 32.2172 8.3858 32.1202 8.6938 C 31.9732 9.1628 31.9002 9.6748 31.9002 10.2318 L 31.9002 14.3038 L 30.5812 14.3038 Z " style="fill:rgb(234,95,97);fill-rule:nonzero;" stroke-width="1"/>
                <path d="M 35.1002 10.4148 C 35.1002 8.9748 35.5012 7.9078 36.3022 7.2138 C 36.9712 6.6378 37.7862 6.3498 38.7482 6.3498 C 39.8172 6.3498 40.6912 6.7008 41.3702 7.4008 C 42.0492 8.1018 42.3882 9.0698 42.3882 10.3048 C 42.3882 11.3058 42.2382 12.0938 41.9382 12.6668 C 41.6372 13.2408 41.2002 13.6868 40.6272 14.0038 C 40.0532 14.3208 39.4272 14.4798 38.7482 14.4798 C 37.6592 14.4798 36.7792 14.1308 36.1082 13.4328 C 35.4362 12.7338 35.1002 11.7288 35.1002 10.4148 Z M 36.4552 10.4148 C 36.4552 11.4108 36.6732 12.1568 37.1072 12.6528 C 37.5422 13.1478 38.0892 13.3958 38.7482 13.3958 C 39.4022 13.3958 39.9472 13.1468 40.3812 12.6488 C 40.8162 12.1508 41.0332 11.3918 41.0332 10.3708 C 41.0332 9.4088 40.8152 8.6808 40.3782 8.1848 C 39.9412 7.6888 39.3972 7.4408 38.7482 7.4408 C 38.0892 7.4408 37.5422 7.6878 37.1072 8.1808 C 36.6732 8.6738 36.4552 9.4188 36.4552 10.4148 Z " style="fill:rgb(234,95,97);fill-rule:nonzero;" stroke-width="1"/>
                <path d="M 49.0312 14.3038 L 49.0312 13.1618 C 48.4262 14.0408 47.6032 14.4798 46.5632 14.4798 C 46.1042 14.4798 45.6752 14.3918 45.2772 14.2158 C 44.8802 14.0408 44.5842 13.8198 44.3912 13.5538 C 44.1982 13.2868 44.0632 12.9618 43.9852 12.5758 C 43.9312 12.3168 43.9042 11.9068 43.9042 11.3448 L 43.9042 6.5258 L 45.2232 6.5258 L 45.2232 10.8398 C 45.2232 11.5278 45.2492 11.9918 45.3032 12.2318 C 45.3862 12.5778 45.5622 12.8498 45.8302 13.0478 C 46.0992 13.2458 46.4312 13.3448 46.8272 13.3448 C 47.2222 13.3448 47.5932 13.2428 47.9402 13.0408 C 48.2872 12.8378 48.5322 12.5618 48.6762 12.2128 C 48.8202 11.8638 48.8922 11.3578 48.8922 10.6928 L 48.8922 6.5258 L 50.2102 6.5258 L 50.2102 14.3038 L 49.0312 14.3038 Z " style="fill:rgb(234,95,97);fill-rule:nonzero;" stroke-width="1"/>
                <path d="M 53.4922 14.3038 L 52.2682 14.3038 L 52.2682 3.5668 L 53.5872 3.5668 L 53.5872 7.3978 C 54.1432 6.6988 54.8542 6.3498 55.7182 6.3498 C 56.1972 6.3498 56.6502 6.4468 57.0772 6.6388 C 57.5042 6.8318 57.8562 7.1028 58.1312 7.4518 C 58.4072 7.8018 58.6232 8.2228 58.7802 8.7158 C 58.9362 9.2088 59.0142 9.7358 59.0142 10.2978 C 59.0142 11.6308 58.6842 12.6608 58.0252 13.3888 C 57.3662 14.1158 56.5752 14.4798 55.6522 14.4798 C 54.7342 14.4798 54.0142 14.0968 53.4922 13.3298 L 53.4922 14.3038 Z M 53.4772 10.3568 C 53.4772 11.2888 53.6042 11.9628 53.8582 12.3778 C 54.2732 13.0568 54.8342 13.3958 55.5422 13.3958 C 56.1192 13.3958 56.6172 13.1458 57.0372 12.6448 C 57.4562 12.1448 57.6662 11.3988 57.6662 10.4078 C 57.6662 9.3918 57.4652 8.6428 57.0622 8.1588 C 56.6592 7.6758 56.1722 7.4338 55.6012 7.4338 C 55.0252 7.4338 54.5272 7.6838 54.1072 8.1848 C 53.6872 8.6848 53.4772 9.4088 53.4772 10.3568 Z " style="fill:rgb(234,95,97);fill-rule:nonzero;" stroke-width="1"/>
                <rect x="358.579" y="321.707" width="1.318" height="10.737" style="fill:rgb(234,95,97);fill-rule:nonzero;" stroke-width="1" transform="matrix(1,0,0,1,-297.9898,-318.14016)"/>
                <path d="M 69.2752 11.7988 L 70.6382 11.9678 C 70.4232 12.7638 70.0252 13.3808 69.4442 13.8208 C 68.8632 14.2598 68.1202 14.4798 67.2172 14.4798 C 66.0792 14.4798 65.1772 14.1298 64.5112 13.4288 C 63.8442 12.7278 63.5112 11.7458 63.5112 10.4808 C 63.5112 9.1718 63.8482 8.1568 64.5222 7.4338 C 65.1962 6.7118 66.0702 6.3498 67.1442 6.3498 C 68.1842 6.3498 69.0342 6.7038 69.6932 7.4118 C 70.3522 8.1198 70.6822 9.1158 70.6822 10.3998 C 70.6822 10.4788 70.6792 10.5958 70.6742 10.7518 L 64.8732 10.7518 C 64.9222 11.6068 65.1642 12.2608 65.5992 12.7148 C 66.0332 13.1688 66.5752 13.3958 67.2252 13.3958 C 67.7082 13.3958 68.1202 13.2688 68.4622 13.0148 C 68.8042 12.7608 69.0752 12.3558 69.2752 11.7988 Z M 64.9472 9.6678 L 69.2902 9.6678 C 69.2312 9.0138 69.0652 8.5228 68.7922 8.1958 C 68.3722 7.6878 67.8282 7.4338 67.1592 7.4338 C 66.5532 7.4338 66.0442 7.6368 65.6312 8.0418 C 65.2192 8.4468 64.9912 8.9888 64.9472 9.6678 Z " style="fill:rgb(234,95,97);fill-rule:nonzero;" stroke-width="1"/>
                <path d="M 71.7662 11.9828 L 73.0692 11.7768 C 73.1422 12.2998 73.3462 12.6998 73.6812 12.9788 C 74.0152 13.2568 74.4832 13.3958 75.0832 13.3958 C 75.6892 13.3958 76.1382 13.2728 76.4312 13.0258 C 76.7242 12.7798 76.8702 12.4898 76.8702 12.1578 C 76.8702 11.8598 76.7412 11.6258 76.4822 11.4548 C 76.3022 11.3378 75.8522 11.1888 75.1352 11.0078 C 74.1682 10.7638 73.4982 10.5528 73.1242 10.3748 C 72.7512 10.1968 72.4672 9.9498 72.2752 9.6348 C 72.0822 9.3198 71.9852 8.9718 71.9852 8.5908 C 71.9852 8.2448 72.0652 7.9238 72.2232 7.6278 C 72.3822 7.3328 72.5982 7.0868 72.8712 6.8918 C 73.0772 6.7408 73.3562 6.6128 73.7102 6.5078 C 74.0642 6.4028 74.4442 6.3498 74.8492 6.3498 C 75.4592 6.3498 75.9952 6.4378 76.4572 6.6138 C 76.9182 6.7898 77.2592 7.0278 77.4782 7.3278 C 77.6982 7.6278 77.8502 8.0298 77.9332 8.5328 L 76.6432 8.7088 C 76.5852 8.3078 76.4152 7.9958 76.1342 7.7708 C 75.8542 7.5458 75.4572 7.4338 74.9442 7.4338 C 74.3392 7.4338 73.9072 7.5338 73.6482 7.7338 C 73.3892 7.9348 73.2602 8.1688 73.2602 8.4378 C 73.2602 8.6078 73.3132 8.7618 73.4212 8.8988 C 73.5282 9.0408 73.6972 9.1578 73.9262 9.2508 C 74.0582 9.2988 74.4462 9.4118 75.0912 9.5868 C 76.0232 9.8368 76.6742 10.0398 77.0432 10.1988 C 77.4112 10.3578 77.7012 10.5878 77.9112 10.8908 C 78.1202 11.1938 78.2252 11.5698 78.2252 12.0188 C 78.2252 12.4588 78.0972 12.8718 77.8412 13.2608 C 77.5852 13.6488 77.2152 13.9488 76.7312 14.1608 C 76.2482 14.3738 75.7012 14.4798 75.0912 14.4798 C 74.0802 14.4798 73.3102 14.2698 72.7802 13.8498 C 72.2502 13.4298 71.9122 12.8078 71.7662 11.9828 Z " style="fill:rgb(234,95,97);fill-rule:nonzero;" stroke-width="1"/>
                <path d="M 79.7932 14.3038 L 79.7932 3.5668 L 81.1112 3.5668 L 81.1112 7.4198 C 81.7262 6.7068 82.5032 6.3498 83.4402 6.3498 C 84.0162 6.3498 84.5172 6.4638 84.9422 6.6908 C 85.3672 6.9178 85.6712 7.2318 85.8542 7.6318 C 86.0372 8.0318 86.1282 8.6128 86.1282 9.3748 L 86.1282 14.3038 L 84.8102 14.3038 L 84.8102 9.3748 C 84.8102 8.7158 84.6672 8.2358 84.3812 7.9358 C 84.0962 7.6358 83.6922 7.4848 83.1692 7.4848 C 82.7792 7.4848 82.4112 7.5868 82.0672 7.7888 C 81.7232 7.9918 81.4772 8.2668 81.3312 8.6128 C 81.1842 8.9598 81.1112 9.4388 81.1112 10.0488 L 81.1112 14.3038 L 79.7932 14.3038 Z " style="fill:rgb(234,95,97);fill-rule:nonzero;" stroke-width="1"/>
                <path d="M 87.6442 10.4148 C 87.6442 8.9748 88.0452 7.9078 88.8462 7.2138 C 89.5152 6.6378 90.3302 6.3498 91.2922 6.3498 C 92.3612 6.3498 93.2352 6.7008 93.9142 7.4008 C 94.5932 8.1018 94.9322 9.0698 94.9322 10.3048 C 94.9322 11.3058 94.7822 12.0938 94.4822 12.6668 C 94.1812 13.2408 93.7442 13.6868 93.1712 14.0038 C 92.5972 14.3208 91.9712 14.4798 91.2922 14.4798 C 90.2032 14.4798 89.3232 14.1308 88.6522 13.4328 C 87.9802 12.7338 87.6442 11.7288 87.6442 10.4148 Z M 88.9992 10.4148 C 88.9992 11.4108 89.2172 12.1568 89.6512 12.6528 C 90.0862 13.1478 90.6332 13.3958 91.2922 13.3958 C 91.9462 13.3958 92.4912 13.1468 92.9252 12.6488 C 93.3602 12.1508 93.5772 11.3918 93.5772 10.3708 C 93.5772 9.4088 93.3592 8.6808 92.9222 8.1848 C 92.4852 7.6888 91.9412 7.4408 91.2922 7.4408 C 90.6332 7.4408 90.0862 7.6878 89.6512 8.1808 C 89.2172 8.6738 88.9992 9.4188 88.9992 10.4148 Z " style="fill:rgb(234,95,97);fill-rule:nonzero;" stroke-width="1"/>
                <path d="M 95.9872 10.4148 C 95.9872 8.9748 96.3872 7.9078 97.1882 7.2138 C 97.8572 6.6378 98.6722 6.3498 99.6342 6.3498 C 100.7042 6.3498 101.5782 6.7008 102.2562 7.4008 C 102.9352 8.1018 103.2742 9.0698 103.2742 10.3048 C 103.2742 11.3058 103.1242 12.0938 102.8242 12.6668 C 102.5242 13.2408 102.0872 13.6868 101.5132 14.0038 C 100.9392 14.3208 100.3132 14.4798 99.6342 14.4798 C 98.5452 14.4798 97.6652 14.1308 96.9942 13.4328 C 96.3222 12.7338 95.9872 11.7288 95.9872 10.4148 Z M 97.3422 10.4148 C 97.3422 11.4108 97.5592 12.1568 97.9942 12.6528 C 98.4282 13.1478 98.9752 13.3958 99.6342 13.3958 C 100.2882 13.3958 100.8332 13.1468 101.2672 12.6488 C 101.7022 12.1508 101.9192 11.3918 101.9192 10.3708 C 101.9192 9.4088 101.7012 8.6808 101.2642 8.1848 C 100.8272 7.6888 100.2842 7.4408 99.6342 7.4408 C 98.9752 7.4408 98.4282 7.6878 97.9942 8.1808 C 97.5592 8.6738 97.3422 9.4188 97.3422 10.4148 Z " style="fill:rgb(234,95,97);fill-rule:nonzero;" stroke-width="1"/>
                <path d="M 107.6982 13.1248 L 107.8892 14.2898 C 107.5172 14.3678 107.1852 14.4068 106.8922 14.4068 C 106.4142 14.4068 106.0432 14.3308 105.7792 14.1798 C 105.5162 14.0278 105.3302 13.8288 105.2232 13.5828 C 105.1152 13.3358 105.0612 12.8168 105.0612 12.0258 L 105.0612 7.5508 L 104.0952 7.5508 L 104.0952 6.5258 L 105.0612 6.5258 L 105.0612 4.5998 L 106.3722 3.8088 L 106.3722 6.5258 L 107.6982 6.5258 L 107.6982 7.5508 L 106.3722 7.5508 L 106.3722 12.0998 C 106.3722 12.4758 106.3962 12.7168 106.4422 12.8248 C 106.4882 12.9318 106.5642 13.0178 106.6692 13.0808 C 106.7742 13.1448 106.9242 13.1758 107.1202 13.1758 C 107.2662 13.1758 107.4592 13.1588 107.6982 13.1248 Z " style="fill:rgb(234,95,97);fill-rule:nonzero;" stroke-width="1"/>
            </g>
        </g>
    </g>
</svg>