<svg width="84.7020034790039" height="14.907999992370605" viewBox="-0.499997615814209 -0.5 84.7020034790039 14.907999992370605" version="1.1" xmlns="http://www.w3.org/2000/svg" xmlns:xlink="http://www.w3.org/1999/xlink" xml:space="preserve" style="fill-rule:evenodd;clip-rule:evenodd;stroke-linejoin:round;stroke-miterlimit:1.41421;"><g id="1"><path d="M83.702,6.954c0,-3.838 -3.116,-6.954 -6.954,-6.954l-69.794,0c-3.838,0 -6.954,3.116 -6.954,6.954c0,3.838 3.116,6.954 6.954,6.954l69.794,0c3.838,0 6.954,-3.116 6.954,-6.954Z" style="fill:#9fd3ff;" stroke-width="1"/><path d="M7.249,10.156l0,-5.224l-1.952,0l0,-0.699l4.695,0l0,0.699l-1.959,0l0,5.224l-0.784,0Z" style="fill:#fff;fill-rule:nonzero;" stroke-width="1"/><path d="M10.703,10.156l0,-5.923l0.728,0l0,2.125c0.339,-0.393 0.767,-0.59 1.284,-0.59c0.318,0 0.594,0.063 0.829,0.188c0.234,0.125 0.402,0.298 0.503,0.519c0.101,0.221 0.151,0.541 0.151,0.962l0,2.719l-0.727,0l0,-2.719c0,-0.364 -0.079,-0.629 -0.236,-0.794c-0.158,-0.166 -0.381,-0.249 -0.669,-0.249c-0.216,0 -0.418,0.056 -0.608,0.168c-0.19,0.112 -0.325,0.263 -0.406,0.454c-0.081,0.192 -0.121,0.456 -0.121,0.792l0,2.348l-0.728,0Z" style="fill:#fff;fill-rule:nonzero;" stroke-width="1"/><path d="M15.309,5.069l0,-0.836l0.728,0l0,0.836l-0.728,0ZM15.309,10.156l0,-4.291l0.728,0l0,4.291l-0.728,0Z" style="fill:#fff;fill-rule:nonzero;" stroke-width="1"/><path d="M16.853,8.875l0.719,-0.113c0.04,0.288 0.153,0.509 0.337,0.663c0.185,0.153 0.443,0.23 0.774,0.23c0.334,0 0.582,-0.068 0.744,-0.204c0.161,-0.136 0.242,-0.296 0.242,-0.479c0,-0.164 -0.071,-0.294 -0.214,-0.388c-0.1,-0.064 -0.348,-0.147 -0.744,-0.246c-0.533,-0.135 -0.903,-0.251 -1.109,-0.35c-0.206,-0.098 -0.362,-0.234 -0.468,-0.408c-0.107,-0.174 -0.16,-0.366 -0.16,-0.576c0,-0.191 0.044,-0.368 0.131,-0.531c0.088,-0.163 0.207,-0.298 0.358,-0.406c0.113,-0.084 0.267,-0.154 0.463,-0.212c0.195,-0.058 0.404,-0.087 0.628,-0.087c0.337,0 0.632,0.048 0.887,0.145c0.254,0.097 0.442,0.229 0.563,0.394c0.122,0.166 0.205,0.388 0.251,0.665l-0.711,0.097c-0.033,-0.221 -0.126,-0.393 -0.281,-0.517c-0.155,-0.124 -0.374,-0.186 -0.657,-0.186c-0.334,0 -0.572,0.055 -0.715,0.166c-0.142,0.11 -0.214,0.239 -0.214,0.388c0,0.094 0.03,0.179 0.089,0.254c0.059,0.078 0.152,0.143 0.279,0.194c0.073,0.027 0.287,0.089 0.642,0.186c0.515,0.137 0.874,0.25 1.077,0.337c0.203,0.088 0.363,0.215 0.479,0.382c0.116,0.167 0.174,0.374 0.174,0.622c0,0.243 -0.071,0.471 -0.213,0.685c-0.141,0.214 -0.345,0.38 -0.612,0.497c-0.266,0.117 -0.568,0.176 -0.905,0.176c-0.557,0 -0.982,-0.116 -1.275,-0.348c-0.292,-0.231 -0.478,-0.575 -0.559,-1.03Z" style="fill:#fff;fill-rule:nonzero;" stroke-width="1"/><rect x="23.564" y="4.233" width="0.727" height="5.923" style="fill:#fff;fill-rule:nonzero;" stroke-width="1"/><path d="M25.148,8.01c0,-0.794 0.221,-1.383 0.663,-1.765c0.369,-0.318 0.818,-0.477 1.349,-0.477c0.59,0 1.072,0.193 1.447,0.58c0.374,0.386 0.561,0.92 0.561,1.602c0,0.552 -0.083,0.986 -0.248,1.303c-0.166,0.316 -0.407,0.562 -0.724,0.737c-0.316,0.175 -0.661,0.263 -1.036,0.263c-0.601,0 -1.086,-0.193 -1.457,-0.578c-0.37,-0.385 -0.555,-0.94 -0.555,-1.665ZM25.895,8.01c0,0.55 0.12,0.961 0.36,1.235c0.24,0.273 0.541,0.41 0.905,0.41c0.361,0 0.661,-0.137 0.901,-0.412c0.24,-0.275 0.36,-0.694 0.36,-1.257c0,-0.53 -0.121,-0.932 -0.362,-1.206c-0.241,-0.273 -0.541,-0.41 -0.899,-0.41c-0.364,0 -0.665,0.136 -0.905,0.408c-0.24,0.272 -0.36,0.683 -0.36,1.232Z" style="fill:#fff;fill-rule:nonzero;" stroke-width="1"/><path d="M29.75,8.01c0,-0.794 0.221,-1.383 0.663,-1.765c0.369,-0.318 0.819,-0.477 1.349,-0.477c0.59,0 1.072,0.193 1.447,0.58c0.374,0.386 0.561,0.92 0.561,1.602c0,0.552 -0.083,0.986 -0.248,1.303c-0.166,0.316 -0.407,0.562 -0.723,0.737c-0.317,0.175 -0.662,0.263 -1.037,0.263c-0.601,0 -1.086,-0.193 -1.456,-0.578c-0.371,-0.385 -0.556,-0.94 -0.556,-1.665ZM30.498,8.01c0,0.55 0.119,0.961 0.359,1.235c0.24,0.273 0.542,0.41 0.905,0.41c0.361,0 0.661,-0.137 0.901,-0.412c0.24,-0.275 0.36,-0.694 0.36,-1.257c0,-0.53 -0.121,-0.932 -0.362,-1.206c-0.241,-0.273 -0.541,-0.41 -0.899,-0.41c-0.363,0 -0.665,0.136 -0.905,0.408c-0.24,0.272 -0.359,0.683 -0.359,1.232Z" style="fill:#fff;fill-rule:nonzero;" stroke-width="1"/><path d="M34.627,10.156l0,-5.923l0.727,0l0,3.377l1.721,-1.745l0.942,0l-1.641,1.592l1.806,2.699l-0.897,0l-1.418,-2.194l-0.513,0.493l0,1.701l-0.727,0Z" style="fill:#fff;fill-rule:nonzero;" stroke-width="1"/><path d="M38.469,8.875l0.72,-0.113c0.04,0.288 0.152,0.509 0.337,0.663c0.184,0.153 0.442,0.23 0.774,0.23c0.334,0 0.581,-0.068 0.743,-0.204c0.162,-0.136 0.243,-0.296 0.243,-0.479c0,-0.164 -0.072,-0.294 -0.215,-0.388c-0.099,-0.064 -0.347,-0.147 -0.743,-0.246c-0.533,-0.135 -0.903,-0.251 -1.109,-0.35c-0.206,-0.098 -0.362,-0.234 -0.469,-0.408c-0.106,-0.174 -0.159,-0.366 -0.159,-0.576c0,-0.191 0.043,-0.368 0.131,-0.531c0.087,-0.163 0.207,-0.298 0.357,-0.406c0.114,-0.084 0.268,-0.154 0.463,-0.212c0.195,-0.058 0.405,-0.087 0.628,-0.087c0.337,0 0.633,0.048 0.887,0.145c0.255,0.097 0.443,0.229 0.564,0.394c0.121,0.166 0.205,0.388 0.25,0.665l-0.711,0.097c-0.032,-0.221 -0.126,-0.393 -0.281,-0.517c-0.154,-0.124 -0.373,-0.186 -0.656,-0.186c-0.334,0 -0.573,0.055 -0.715,0.166c-0.143,0.11 -0.214,0.239 -0.214,0.388c0,0.094 0.029,0.179 0.088,0.254c0.06,0.078 0.153,0.143 0.279,0.194c0.073,0.027 0.287,0.089 0.643,0.186c0.514,0.137 0.873,0.25 1.076,0.337c0.204,0.088 0.363,0.215 0.479,0.382c0.116,0.167 0.174,0.374 0.174,0.622c0,0.243 -0.071,0.471 -0.212,0.685c-0.142,0.214 -0.346,0.38 -0.612,0.497c-0.267,0.117 -0.569,0.176 -0.905,0.176c-0.558,0 -0.983,-0.116 -1.275,-0.348c-0.292,-0.231 -0.479,-0.575 -0.56,-1.03Z" style="fill:#fff;fill-rule:nonzero;" stroke-width="1"/><path d="M44.906,8.875l0.719,-0.113c0.04,0.288 0.153,0.509 0.337,0.663c0.185,0.153 0.443,0.23 0.774,0.23c0.334,0 0.582,-0.068 0.744,-0.204c0.161,-0.136 0.242,-0.296 0.242,-0.479c0,-0.164 -0.071,-0.294 -0.214,-0.388c-0.1,-0.064 -0.348,-0.147 -0.744,-0.246c-0.533,-0.135 -0.903,-0.251 -1.109,-0.35c-0.206,-0.098 -0.362,-0.234 -0.468,-0.408c-0.107,-0.174 -0.16,-0.366 -0.16,-0.576c0,-0.191 0.044,-0.368 0.131,-0.531c0.088,-0.163 0.207,-0.298 0.358,-0.406c0.113,-0.084 0.267,-0.154 0.463,-0.212c0.195,-0.058 0.404,-0.087 0.628,-0.087c0.337,0 0.632,0.048 0.887,0.145c0.254,0.097 0.442,0.229 0.563,0.394c0.122,0.166 0.205,0.388 0.251,0.665l-0.711,0.097c-0.033,-0.221 -0.126,-0.393 -0.281,-0.517c-0.155,-0.124 -0.374,-0.186 -0.657,-0.186c-0.334,0 -0.572,0.055 -0.715,0.166c-0.143,0.11 -0.214,0.239 -0.214,0.388c0,0.094 0.03,0.179 0.089,0.254c0.059,0.078 0.152,0.143 0.279,0.194c0.072,0.027 0.287,0.089 0.642,0.186c0.515,0.137 0.874,0.25 1.077,0.337c0.203,0.088 0.363,0.215 0.479,0.382c0.116,0.167 0.173,0.374 0.173,0.622c0,0.243 -0.07,0.471 -0.212,0.685c-0.141,0.214 -0.345,0.38 -0.612,0.497c-0.266,0.117 -0.568,0.176 -0.905,0.176c-0.557,0 -0.982,-0.116 -1.275,-0.348c-0.292,-0.231 -0.478,-0.575 -0.559,-1.03Z" style="fill:#fff;fill-rule:nonzero;" stroke-width="1"/><path d="M50.922,9.505l0.105,0.643c-0.205,0.043 -0.388,0.064 -0.549,0.064c-0.264,0 -0.469,-0.041 -0.615,-0.125c-0.145,-0.083 -0.247,-0.193 -0.307,-0.329c-0.059,-0.136 -0.089,-0.422 -0.089,-0.859l0,-2.468l-0.533,0l0,-0.566l0.533,0l0,-1.063l0.724,-0.436l0,1.499l0.731,0l0,0.566l-0.731,0l0,2.509c0,0.207 0.012,0.34 0.038,0.4c0.026,0.059 0.067,0.106 0.125,0.141c0.058,0.035 0.141,0.053 0.249,0.053c0.081,0 0.187,-0.01 0.319,-0.029Z" style="fill:#fff;fill-rule:nonzero;" stroke-width="1"/><path d="M54.445,10.156l0,-0.63c-0.334,0.484 -0.788,0.727 -1.361,0.727c-0.254,0 -0.49,-0.049 -0.709,-0.146c-0.22,-0.097 -0.383,-0.218 -0.489,-0.365c-0.107,-0.147 -0.181,-0.327 -0.225,-0.54c-0.029,-0.142 -0.044,-0.369 -0.044,-0.678l0,-2.659l0.727,0l0,2.38c0,0.38 0.015,0.635 0.045,0.767c0.046,0.192 0.142,0.342 0.291,0.451c0.148,0.109 0.331,0.164 0.549,0.164c0.218,0 0.423,-0.056 0.614,-0.168c0.192,-0.112 0.327,-0.264 0.406,-0.457c0.08,-0.192 0.12,-0.472 0.12,-0.838l0,-2.299l0.727,0l0,4.291l-0.651,0Z" style="fill:#fff;fill-rule:nonzero;" stroke-width="1"/><path d="M56.235,10.156l0,-4.291l0.655,0l0,0.61c0.315,-0.471 0.77,-0.707 1.365,-0.707c0.259,0 0.497,0.046 0.714,0.139c0.216,0.093 0.379,0.215 0.486,0.366c0.108,0.151 0.184,0.33 0.227,0.537c0.027,0.135 0.04,0.371 0.04,0.708l0,2.638l-0.727,0l0,-2.61c0,-0.297 -0.028,-0.518 -0.085,-0.665c-0.057,-0.147 -0.157,-0.264 -0.301,-0.351c-0.144,-0.088 -0.313,-0.132 -0.507,-0.132c-0.31,0 -0.577,0.099 -0.802,0.295c-0.225,0.197 -0.337,0.57 -0.337,1.119l0,2.344l-0.728,0Z" style="fill:#fff;fill-rule:nonzero;" stroke-width="1"/><path d="M60.837,10.156l0,-4.291l0.655,0l0,0.61c0.315,-0.471 0.77,-0.707 1.366,-0.707c0.258,0 0.496,0.046 0.713,0.139c0.217,0.093 0.379,0.215 0.487,0.366c0.107,0.151 0.183,0.33 0.226,0.537c0.027,0.135 0.04,0.371 0.04,0.708l0,2.638l-0.727,0l0,-2.61c0,-0.297 -0.028,-0.518 -0.085,-0.665c-0.056,-0.147 -0.157,-0.264 -0.301,-0.351c-0.144,-0.088 -0.313,-0.132 -0.507,-0.132c-0.31,0 -0.577,0.099 -0.802,0.295c-0.225,0.197 -0.337,0.57 -0.337,1.119l0,2.344l-0.728,0Z" style="fill:#fff;fill-rule:nonzero;" stroke-width="1"/><path d="M65.443,5.069l0,-0.836l0.728,0l0,0.836l-0.728,0ZM65.443,10.156l0,-4.291l0.728,0l0,4.291l-0.728,0Z" style="fill:#fff;fill-rule:nonzero;" stroke-width="1"/><path d="M67.278,10.156l0,-4.291l0.654,0l0,0.61c0.316,-0.471 0.771,-0.707 1.366,-0.707c0.259,0 0.496,0.046 0.713,0.139c0.217,0.093 0.379,0.215 0.487,0.366c0.108,0.151 0.183,0.33 0.226,0.537c0.027,0.135 0.041,0.371 0.041,0.708l0,2.638l-0.728,0l0,-2.61c0,-0.297 -0.028,-0.518 -0.084,-0.665c-0.057,-0.147 -0.157,-0.264 -0.301,-0.351c-0.145,-0.088 -0.314,-0.132 -0.508,-0.132c-0.309,0 -0.577,0.099 -0.802,0.295c-0.224,0.197 -0.337,0.57 -0.337,1.119l0,2.344l-0.727,0Z" style="fill:#fff;fill-rule:nonzero;" stroke-width="1"/><path d="M71.747,10.511l0.707,0.106c0.029,0.218 0.111,0.377 0.246,0.476c0.181,0.135 0.427,0.202 0.74,0.202c0.336,0 0.596,-0.067 0.779,-0.202c0.183,-0.134 0.307,-0.323 0.372,-0.565c0.038,-0.148 0.055,-0.46 0.053,-0.934c-0.318,0.375 -0.714,0.562 -1.188,0.562c-0.59,0 -1.047,-0.213 -1.37,-0.638c-0.323,-0.426 -0.485,-0.937 -0.485,-1.532c0,-0.409 0.074,-0.787 0.222,-1.133c0.148,-0.346 0.363,-0.614 0.645,-0.802c0.281,-0.189 0.612,-0.283 0.992,-0.283c0.506,0 0.924,0.205 1.252,0.614l0,-0.517l0.671,0l0,3.709c0,0.668 -0.068,1.142 -0.204,1.42c-0.136,0.279 -0.352,0.499 -0.647,0.661c-0.295,0.162 -0.657,0.242 -1.088,0.242c-0.512,0 -0.926,-0.115 -1.241,-0.345c-0.315,-0.23 -0.467,-0.577 -0.456,-1.041ZM72.349,7.934c0,0.563 0.111,0.973 0.335,1.232c0.224,0.259 0.504,0.388 0.84,0.388c0.334,0 0.615,-0.129 0.841,-0.386c0.226,-0.257 0.339,-0.661 0.339,-1.21c0,-0.525 -0.116,-0.921 -0.349,-1.188c-0.233,-0.267 -0.514,-0.4 -0.843,-0.4c-0.323,0 -0.598,0.131 -0.824,0.394c-0.226,0.263 -0.339,0.653 -0.339,1.17Z" style="fill:#fff;fill-rule:nonzero;" stroke-width="1"/><path d="M76.87,8.685l-0.222,-3.139l0,-1.313l0.901,0l0,1.313l-0.21,3.139l-0.469,0ZM76.68,10.156l0,-0.828l0.836,0l0,0.828l-0.836,0Z" style="fill:#fff;fill-rule:nonzero;" stroke-width="1"/></g></svg>