<svg version="1.1" width="48" height="13.375999450683594" viewBox="-0.4900000002235174 -0.5179999992251396 48 13.375999450683594" xmlns="http://www.w3.org/2000/svg" xmlns:xlink="http://www.w3.org/1999/xlink">
  <!-- Exported by Scratch - http://scratch.mit.edu/ -->
  <g id="Default Settings Button">
    <path id="ID0.7017952790483832" fill="#fff" d="M 47.01 3.076 C 47.01 1.369 45.623 -0.018 43.916 -0.018 L 3.104 -0.018 C 1.396 -0.018 0.01 1.369 0.01 3.076 L 0.01 9.264 C 0.01 10.972 1.396 12.358 3.104 12.358 L 43.916 12.358 C 45.623 12.358 47.01 10.972 47.01 9.264 L 47.01 3.076 Z " stroke-width="1"/>
    <path id="ID0.19946494372561574" fill="#65a8e7" d="M 5.664 2.153 L 8.57 2.153 C 9.225 2.153 9.725 2.203 10.068 2.304 C 10.53 2.44 10.926 2.681 11.255 3.029 C 11.585 3.376 11.835 3.801 12.007 4.304 C 12.179 4.808 12.265 5.428 12.265 6.166 C 12.265 6.814 12.185 7.372 12.023 7.841 C 11.826 8.414 11.545 8.878 11.18 9.232 C 10.904 9.501 10.532 9.71 10.063 9.861 C 9.712 9.972 9.243 10.027 8.656 10.027 L 5.664 10.027 L 5.664 2.153 Z M 7.254 3.485 L 7.254 8.701 L 8.441 8.701 C 8.885 8.701 9.205 8.676 9.402 8.626 C 9.66 8.561 9.874 8.452 10.044 8.298 C 10.214 8.144 10.353 7.891 10.46 7.538 C 10.568 7.185 10.622 6.704 10.622 6.096 C 10.622 5.487 10.568 5.02 10.46 4.694 C 10.353 4.368 10.203 4.114 10.009 3.931 C 9.816 3.749 9.571 3.625 9.273 3.561 C 9.051 3.51 8.616 3.485 7.968 3.485 L 7.254 3.485 Z " stroke-width="1"/>
    <path id="ID0.8431757716462016" fill="#65a8e7" d="M 16.906 8.212 L 18.41 8.464 C 18.216 9.016 17.911 9.436 17.494 9.724 C 17.077 10.012 16.555 10.156 15.928 10.156 C 14.936 10.156 14.202 9.832 13.726 9.184 C 13.35 8.665 13.162 8.01 13.162 7.218 C 13.162 6.273 13.409 5.533 13.903 4.997 C 14.397 4.462 15.022 4.194 15.778 4.194 C 16.626 4.194 17.296 4.475 17.787 5.035 C 18.277 5.595 18.512 6.454 18.49 7.61 L 14.709 7.61 C 14.72 8.058 14.841 8.406 15.074 8.655 C 15.307 8.904 15.597 9.028 15.944 9.028 C 16.181 9.028 16.379 8.964 16.541 8.835 C 16.702 8.706 16.823 8.498 16.906 8.212 Z M 16.992 6.687 C 16.981 6.25 16.868 5.918 16.653 5.69 C 16.438 5.463 16.177 5.349 15.869 5.349 C 15.54 5.349 15.268 5.469 15.053 5.709 C 14.838 5.949 14.732 6.275 14.736 6.687 L 16.992 6.687 Z " stroke-width="1"/>
    <path id="ID0.5858115958981216" fill="#65a8e7" d="M 19.06 4.323 L 19.897 4.323 L 19.897 3.894 C 19.897 3.414 19.948 3.056 20.051 2.819 C 20.153 2.583 20.341 2.391 20.614 2.242 C 20.888 2.093 21.235 2.019 21.654 2.019 C 22.083 2.019 22.504 2.084 22.916 2.212 L 22.712 3.265 C 22.472 3.208 22.241 3.179 22.019 3.179 C 21.801 3.179 21.644 3.23 21.549 3.332 C 21.454 3.434 21.407 3.63 21.407 3.92 L 21.407 4.323 L 22.535 4.323 L 22.535 5.51 L 21.407 5.51 L 21.407 10.027 L 19.897 10.027 L 19.897 5.51 L 19.06 5.51 L 19.06 4.323 Z " stroke-width="1"/>
    <path id="ID0.9863336989656091" fill="#65a8e7" d="M 24.511 6.063 L 23.142 5.816 C 23.296 5.265 23.561 4.857 23.937 4.592 C 24.312 4.327 24.871 4.194 25.612 4.194 C 26.285 4.194 26.787 4.274 27.116 4.433 C 27.446 4.593 27.677 4.795 27.812 5.04 C 27.946 5.286 28.013 5.736 28.013 6.391 L 27.997 8.153 C 27.997 8.654 28.021 9.024 28.07 9.262 C 28.118 9.5 28.208 9.755 28.341 10.027 L 26.848 10.027 C 26.808 9.927 26.76 9.778 26.703 9.582 C 26.678 9.492 26.66 9.433 26.649 9.404 C 26.391 9.655 26.115 9.843 25.822 9.968 C 25.528 10.094 25.215 10.156 24.882 10.156 C 24.295 10.156 23.832 9.997 23.493 9.678 C 23.155 9.36 22.986 8.957 22.986 8.47 C 22.986 8.147 23.063 7.86 23.217 7.608 C 23.371 7.355 23.586 7.162 23.864 7.028 C 24.142 6.893 24.542 6.776 25.064 6.676 C 25.77 6.543 26.259 6.42 26.531 6.305 L 26.531 6.155 C 26.531 5.865 26.459 5.658 26.316 5.534 C 26.173 5.411 25.902 5.349 25.505 5.349 C 25.236 5.349 25.027 5.402 24.876 5.508 C 24.726 5.613 24.604 5.799 24.511 6.063 Z M 26.531 7.288 C 26.337 7.353 26.031 7.43 25.612 7.519 C 25.193 7.609 24.919 7.696 24.791 7.782 C 24.594 7.922 24.495 8.099 24.495 8.314 C 24.495 8.525 24.574 8.708 24.731 8.862 C 24.889 9.016 25.09 9.093 25.333 9.093 C 25.605 9.093 25.865 9.003 26.112 8.824 C 26.294 8.688 26.414 8.522 26.472 8.325 C 26.511 8.196 26.531 7.951 26.531 7.589 L 26.531 7.288 Z " stroke-width="1"/>
    <path id="ID0.08274268778041005" fill="#65a8e7" d="M 33.255 10.027 L 33.255 9.173 C 33.048 9.478 32.775 9.718 32.436 9.893 C 32.098 10.069 31.741 10.156 31.365 10.156 C 30.982 10.156 30.638 10.072 30.333 9.904 C 30.029 9.736 29.809 9.499 29.673 9.195 C 29.537 8.89 29.469 8.47 29.469 7.933 L 29.469 4.323 L 30.978 4.323 L 30.978 6.944 C 30.978 7.746 31.006 8.238 31.061 8.419 C 31.117 8.6 31.218 8.743 31.365 8.848 C 31.512 8.954 31.698 9.007 31.923 9.007 C 32.181 9.007 32.412 8.936 32.616 8.795 C 32.82 8.653 32.96 8.478 33.035 8.268 C 33.11 8.059 33.148 7.546 33.148 6.73 L 33.148 4.323 L 34.657 4.323 L 34.657 10.027 L 33.255 10.027 Z " stroke-width="1"/>
    <path id="ID0.7024186961352825" fill="#65a8e7" d="M 36.22 2.153 L 37.729 2.153 L 37.729 10.027 L 36.22 10.027 L 36.22 2.153 Z " stroke-width="1"/>
    <path id="ID0.996192270424217" fill="#65a8e7" d="M 41.892 4.323 L 41.892 5.526 L 40.861 5.526 L 40.861 7.825 C 40.861 8.291 40.871 8.562 40.89 8.639 C 40.91 8.716 40.955 8.779 41.025 8.83 C 41.094 8.88 41.18 8.905 41.28 8.905 C 41.419 8.905 41.622 8.856 41.887 8.76 L 42.016 9.931 C 41.665 10.081 41.267 10.156 40.823 10.156 C 40.551 10.156 40.306 10.111 40.087 10.019 C 39.869 9.928 39.709 9.81 39.607 9.665 C 39.505 9.52 39.434 9.324 39.395 9.077 C 39.362 8.901 39.346 8.547 39.346 8.013 L 39.346 5.526 L 38.653 5.526 L 38.653 4.323 L 39.346 4.323 L 39.346 3.19 L 40.861 2.309 L 40.861 4.323 L 41.892 4.323 Z " stroke-width="1"/>
  </g>
</svg>