<svg width="65.20199584960938" height="14.907999992370605" viewBox="-0.49999380111694336 -0.5 65.20199584960938 14.907999992370605" version="1.1" xmlns="http://www.w3.org/2000/svg" xmlns:xlink="http://www.w3.org/1999/xlink" xml:space="preserve" style="fill-rule:evenodd;clip-rule:evenodd;stroke-linejoin:round;stroke-miterlimit:1.41421;"><g id="1"><path d="M64.202,6.954c0,-3.838 -3.116,-6.954 -6.954,-6.954l-50.294,0c-3.838,0 -6.954,3.116 -6.954,6.954c0,3.838 3.116,6.954 6.954,6.954l50.294,0c3.838,0 6.954,-3.116 6.954,-6.954Z" style="fill:#9fd3ff;" stroke-width="1"/><path d="M7.41,10.156l0,-2.509l-2.283,-3.414l0.954,0l1.168,1.786c0.215,0.334 0.416,0.668 0.602,1.002c0.178,-0.31 0.393,-0.659 0.646,-1.047l1.148,-1.741l0.913,0l-2.364,3.414l0,2.509l-0.784,0Z" style="fill:#fff;fill-rule:nonzero;" stroke-width="1"/><path d="M13.354,9.627c-0.27,0.229 -0.529,0.39 -0.778,0.484c-0.249,0.095 -0.516,0.142 -0.802,0.142c-0.471,0 -0.834,-0.115 -1.087,-0.346c-0.253,-0.23 -0.38,-0.524 -0.38,-0.882c0,-0.211 0.048,-0.402 0.144,-0.576c0.095,-0.174 0.221,-0.313 0.376,-0.418c0.154,-0.105 0.329,-0.185 0.523,-0.239c0.143,-0.037 0.358,-0.074 0.646,-0.109c0.587,-0.07 1.02,-0.153 1.297,-0.25c0.003,-0.1 0.004,-0.163 0.004,-0.19c0,-0.297 -0.068,-0.505 -0.206,-0.627c-0.186,-0.164 -0.462,-0.246 -0.828,-0.246c-0.342,0 -0.595,0.06 -0.758,0.18c-0.163,0.12 -0.283,0.332 -0.361,0.636l-0.711,-0.097c0.064,-0.304 0.171,-0.55 0.319,-0.737c0.148,-0.187 0.362,-0.331 0.642,-0.432c0.28,-0.102 0.605,-0.152 0.974,-0.152c0.366,0 0.664,0.043 0.893,0.129c0.229,0.086 0.397,0.195 0.505,0.326c0.108,0.13 0.183,0.295 0.226,0.495c0.024,0.123 0.037,0.347 0.037,0.67l0,0.97c0,0.676 0.015,1.104 0.046,1.283c0.031,0.179 0.092,0.351 0.184,0.515l-0.76,0c-0.075,-0.151 -0.124,-0.327 -0.145,-0.529ZM13.293,8.002c-0.264,0.108 -0.66,0.2 -1.188,0.275c-0.299,0.043 -0.51,0.092 -0.634,0.146c-0.124,0.053 -0.22,0.132 -0.287,0.236c-0.067,0.104 -0.101,0.219 -0.101,0.345c0,0.194 0.073,0.356 0.22,0.485c0.147,0.13 0.362,0.194 0.645,0.194c0.28,0 0.529,-0.061 0.747,-0.184c0.218,-0.122 0.379,-0.29 0.481,-0.503c0.078,-0.164 0.117,-0.406 0.117,-0.727l0,-0.267Z" style="fill:#fff;fill-rule:nonzero;" stroke-width="1"/><path d="M15.124,11.808l-0.081,-0.682c0.159,0.043 0.297,0.064 0.416,0.064c0.162,0 0.291,-0.027 0.388,-0.081c0.097,-0.053 0.176,-0.129 0.238,-0.226c0.046,-0.073 0.12,-0.253 0.222,-0.541c0.014,-0.041 0.035,-0.1 0.065,-0.178l-1.628,-4.299l0.784,0l0.893,2.485c0.115,0.315 0.219,0.646 0.311,0.994c0.083,-0.334 0.183,-0.66 0.299,-0.978l0.917,-2.501l0.727,0l-1.632,4.364c-0.175,0.471 -0.311,0.796 -0.408,0.973c-0.13,0.24 -0.278,0.416 -0.445,0.528c-0.167,0.111 -0.366,0.167 -0.598,0.167c-0.14,0 -0.296,-0.029 -0.468,-0.089Z" style="fill:#fff;fill-rule:nonzero;" stroke-width="1"/><path d="M18.869,10.156l0,-0.828l0.828,0l0,0.828c0,0.304 -0.054,0.55 -0.161,0.737c-0.108,0.188 -0.279,0.332 -0.513,0.435l-0.202,-0.311c0.153,-0.068 0.266,-0.167 0.339,-0.297c0.073,-0.131 0.113,-0.319 0.121,-0.564l-0.412,0Z" style="fill:#fff;fill-rule:nonzero;" stroke-width="1"/><rect x="23.503" y="4.233" width="0.784" height="5.923" style="fill:#fff;fill-rule:nonzero;" stroke-width="1"/><path d="M28.069,10.156l0,-3.729l-0.646,0l0,-0.562l0.646,0l0,-0.416c0,-0.426 0.092,-0.752 0.275,-0.978c0.183,-0.226 0.473,-0.339 0.869,-0.339c0.266,0 0.513,0.031 0.739,0.093l-0.113,0.614c-0.143,-0.025 -0.273,-0.037 -0.392,-0.037c-0.251,0 -0.422,0.05 -0.513,0.15c-0.092,0.099 -0.138,0.311 -0.138,0.634l0,0.279l0.833,0l0,0.562l-0.833,0l0,3.729l-0.727,0ZM30.178,5.069l0,-0.836l0.728,0l0,0.836l-0.728,0ZM30.178,10.156l0,-4.291l0.728,0l0,4.291l-0.728,0Z" style="fill:#fff;fill-rule:nonzero;" stroke-width="1"/><path d="M32.013,10.156l0,-4.291l0.654,0l0,0.61c0.315,-0.471 0.771,-0.707 1.366,-0.707c0.258,0 0.496,0.046 0.713,0.139c0.217,0.093 0.379,0.215 0.487,0.366c0.108,0.151 0.183,0.33 0.226,0.537c0.027,0.135 0.041,0.371 0.041,0.708l0,2.638l-0.728,0l0,-2.61c0,-0.297 -0.028,-0.518 -0.085,-0.665c-0.056,-0.147 -0.156,-0.264 -0.301,-0.351c-0.144,-0.088 -0.313,-0.132 -0.507,-0.132c-0.309,0 -0.577,0.099 -0.802,0.295c-0.225,0.197 -0.337,0.57 -0.337,1.119l0,2.344l-0.727,0Z" style="fill:#fff;fill-rule:nonzero;" stroke-width="1"/><path d="M36.619,5.069l0,-0.836l0.727,0l0,0.836l-0.727,0ZM36.619,10.156l0,-4.291l0.727,0l0,4.291l-0.727,0Z" style="fill:#fff;fill-rule:nonzero;" stroke-width="1"/><path d="M38.162,8.875l0.719,-0.113c0.041,0.288 0.153,0.509 0.338,0.663c0.184,0.153 0.442,0.23 0.774,0.23c0.334,0 0.581,-0.068 0.743,-0.204c0.162,-0.136 0.242,-0.296 0.242,-0.479c0,-0.164 -0.071,-0.294 -0.214,-0.388c-0.099,-0.064 -0.347,-0.147 -0.743,-0.246c-0.533,-0.135 -0.903,-0.251 -1.109,-0.35c-0.206,-0.098 -0.363,-0.234 -0.469,-0.408c-0.106,-0.174 -0.16,-0.366 -0.16,-0.576c0,-0.191 0.044,-0.368 0.132,-0.531c0.087,-0.163 0.207,-0.298 0.357,-0.406c0.113,-0.084 0.268,-0.154 0.463,-0.212c0.195,-0.058 0.405,-0.087 0.628,-0.087c0.337,0 0.633,0.048 0.887,0.145c0.255,0.097 0.443,0.229 0.564,0.394c0.121,0.166 0.205,0.388 0.25,0.665l-0.711,0.097c-0.032,-0.221 -0.126,-0.393 -0.281,-0.517c-0.154,-0.124 -0.373,-0.186 -0.656,-0.186c-0.334,0 -0.573,0.055 -0.715,0.166c-0.143,0.11 -0.214,0.239 -0.214,0.388c0,0.094 0.029,0.179 0.088,0.254c0.06,0.078 0.153,0.143 0.279,0.194c0.073,0.027 0.287,0.089 0.643,0.186c0.514,0.137 0.873,0.25 1.076,0.337c0.204,0.088 0.363,0.215 0.479,0.382c0.116,0.167 0.174,0.374 0.174,0.622c0,0.243 -0.071,0.471 -0.212,0.685c-0.142,0.214 -0.346,0.38 -0.612,0.497c-0.267,0.117 -0.569,0.176 -0.905,0.176c-0.558,0 -0.983,-0.116 -1.275,-0.348c-0.292,-0.231 -0.479,-0.575 -0.56,-1.03Z" style="fill:#fff;fill-rule:nonzero;" stroke-width="1"/><path d="M42.591,10.156l0,-5.923l0.727,0l0,2.125c0.339,-0.393 0.768,-0.59 1.285,-0.59c0.318,0 0.594,0.063 0.828,0.188c0.234,0.125 0.402,0.298 0.503,0.519c0.101,0.221 0.152,0.541 0.152,0.962l0,2.719l-0.728,0l0,-2.719c0,-0.364 -0.078,-0.629 -0.236,-0.794c-0.158,-0.166 -0.381,-0.249 -0.669,-0.249c-0.215,0 -0.418,0.056 -0.608,0.168c-0.19,0.112 -0.325,0.263 -0.406,0.454c-0.081,0.192 -0.121,0.456 -0.121,0.792l0,2.348l-0.727,0Z" style="fill:#fff;fill-rule:nonzero;" stroke-width="1"/><path d="M50.13,8.774l0.752,0.093c-0.119,0.439 -0.338,0.78 -0.659,1.022c-0.321,0.243 -0.73,0.364 -1.228,0.364c-0.628,0 -1.126,-0.193 -1.493,-0.58c-0.368,-0.386 -0.552,-0.929 -0.552,-1.626c0,-0.722 0.186,-1.282 0.558,-1.681c0.372,-0.399 0.854,-0.598 1.446,-0.598c0.574,0 1.043,0.195 1.406,0.586c0.364,0.39 0.546,0.94 0.546,1.648c0,0.043 -0.001,0.108 -0.004,0.194l-3.2,0c0.027,0.472 0.16,0.833 0.4,1.083c0.24,0.251 0.539,0.376 0.897,0.376c0.266,0 0.494,-0.07 0.683,-0.21c0.188,-0.14 0.338,-0.364 0.448,-0.671ZM47.742,7.598l2.396,0c-0.032,-0.361 -0.124,-0.631 -0.275,-0.812c-0.231,-0.28 -0.532,-0.42 -0.901,-0.42c-0.334,0 -0.614,0.112 -0.842,0.335c-0.228,0.224 -0.354,0.523 -0.378,0.897Z" style="fill:#fff;fill-rule:nonzero;" stroke-width="1"/><path d="M54.579,10.156l0,-0.541c-0.272,0.425 -0.672,0.638 -1.2,0.638c-0.342,0 -0.657,-0.094 -0.944,-0.283c-0.287,-0.188 -0.509,-0.452 -0.666,-0.79c-0.158,-0.338 -0.237,-0.726 -0.237,-1.166c0,-0.428 0.072,-0.816 0.214,-1.165c0.143,-0.349 0.357,-0.616 0.643,-0.802c0.285,-0.186 0.604,-0.279 0.957,-0.279c0.259,0 0.489,0.055 0.691,0.164c0.202,0.109 0.367,0.251 0.493,0.426l0,-2.125l0.723,0l0,5.923l-0.674,0ZM52.28,8.014c0,0.55 0.115,0.961 0.347,1.233c0.232,0.272 0.505,0.408 0.82,0.408c0.318,0 0.588,-0.13 0.81,-0.39c0.223,-0.26 0.334,-0.657 0.334,-1.19c0,-0.587 -0.113,-1.018 -0.34,-1.293c-0.226,-0.275 -0.505,-0.412 -0.836,-0.412c-0.323,0 -0.593,0.132 -0.81,0.396c-0.217,0.264 -0.325,0.68 -0.325,1.248Z" style="fill:#fff;fill-rule:nonzero;" stroke-width="1"/><path d="M56.785,8.685l-0.222,-3.139l0,-1.313l0.901,0l0,1.313l-0.211,3.139l-0.468,0ZM56.595,10.156l0,-0.828l0.836,0l0,0.828l-0.836,0Z" style="fill:#fff;fill-rule:nonzero;" stroke-width="1"/></g></svg>