<svg version="1.1" width="30.593000411987305" height="37" viewBox="-0.18700000643730164 -0.5 30.593000411987305 37" xmlns="http://www.w3.org/2000/svg" xmlns:xlink="http://www.w3.org/1999/xlink">
  <!-- Exported by Scratch - http://scratch.mit.edu/ -->
  <g id="ID0.005303338635712862">
    <g id="layer1">
      <path id="path3374" fill="#666666" stroke="none" d="M 0.688 0 L 12.469 18.375 L 0.313 36 L 5.625 36 L 13.5 23.594 C 13.852 23.008 14.129 22.512 14.375 22.125 C 14.621 21.738 14.82 21.422 14.938 21.188 L 15.063 21.188 C 15.367 21.727 15.676 22.25 15.969 22.719 C 16.262 23.188 16.531 23.648 16.813 24.094 L 24.125 36 L 29.563 36 L 17.75 18.281 L 29.906 0 L 24.844 0 L 16.906 12.844 C 16.625 13.313 16.352 13.762 16.094 14.219 C 15.836 14.676 15.555 15.117 15.25 15.563 L 15.094 15.563 C 14.906 15.234 14.687 14.817 14.406 14.313 C 14.125 13.809 13.781 13.258 13.406 12.625 L 5.938 0 L 0.688 0 Z " stroke-width="1"/>
    </g>
  </g>
</svg>