<svg width="102.7020034790039" height="14.907999992370605" viewBox="-0.499997615814209 -0.5 102.7020034790039 14.907999992370605" version="1.1" style="fill-rule:evenodd;clip-rule:evenodd;stroke-linecap:round;stroke-miterlimit:1.41421;" xml:space="preserve" xmlns="http://www.w3.org/2000/svg" xmlns:xlink="http://www.w3.org/1999/xlink">
  <g>
    <g id="1">
      <path d="M101.702,6.954c0,-3.838 -3.116,-6.954 -6.954,-6.954l-87.794,0c-3.838,0 -6.954,3.116 -6.954,6.954c0,3.838 3.116,6.954 6.954,6.954l87.794,0c3.838,0 6.954,-3.116 6.954,-6.954Z" style="fill:#9fd3ff;" stroke-width="1"/>
      <path d="M7.249,10.156l0,-5.224l-1.952,0l0,-0.699l4.695,0l0,0.699l-1.959,0l0,5.224l-0.784,0Z" style="fill:#fff;fill-rule:nonzero;" stroke-width="1"/>
      <path d="M10.703,10.156l0,-5.923l0.728,0l0,2.125c0.339,-0.393 0.767,-0.59 1.284,-0.59c0.318,0 0.594,0.063 0.829,0.188c0.234,0.125 0.402,0.298 0.503,0.519c0.101,0.221 0.151,0.541 0.151,0.962l0,2.719l-0.727,0l0,-2.719c0,-0.364 -0.079,-0.629 -0.236,-0.794c-0.158,-0.166 -0.381,-0.249 -0.669,-0.249c-0.216,0 -0.418,0.056 -0.608,0.168c-0.19,0.112 -0.325,0.263 -0.406,0.454c-0.081,0.192 -0.121,0.456 -0.121,0.792l0,2.348l-0.728,0Z" style="fill:#fff;fill-rule:nonzero;" stroke-width="1"/>
      <path d="M15.309,5.069l0,-0.836l0.728,0l0,0.836l-0.728,0ZM15.309,10.156l0,-4.291l0.728,0l0,4.291l-0.728,0Z" style="fill:#fff;fill-rule:nonzero;" stroke-width="1"/>
      <path d="M16.853,8.875l0.719,-0.113c0.04,0.288 0.153,0.509 0.337,0.663c0.185,0.153 0.443,0.23 0.774,0.23c0.334,0 0.582,-0.068 0.744,-0.204c0.161,-0.136 0.242,-0.296 0.242,-0.479c0,-0.164 -0.071,-0.294 -0.214,-0.388c-0.1,-0.064 -0.348,-0.147 -0.744,-0.246c-0.533,-0.135 -0.903,-0.251 -1.109,-0.35c-0.206,-0.098 -0.362,-0.234 -0.468,-0.408c-0.107,-0.174 -0.16,-0.366 -0.16,-0.576c0,-0.191 0.044,-0.368 0.131,-0.531c0.088,-0.163 0.207,-0.298 0.358,-0.406c0.113,-0.084 0.267,-0.154 0.463,-0.212c0.195,-0.058 0.404,-0.087 0.628,-0.087c0.337,0 0.632,0.048 0.887,0.145c0.254,0.097 0.442,0.229 0.563,0.394c0.122,0.166 0.205,0.388 0.251,0.665l-0.711,0.097c-0.033,-0.221 -0.126,-0.393 -0.281,-0.517c-0.155,-0.124 -0.374,-0.186 -0.657,-0.186c-0.334,0 -0.572,0.055 -0.715,0.166c-0.142,0.11 -0.214,0.239 -0.214,0.388c0,0.094 0.03,0.179 0.089,0.254c0.059,0.078 0.152,0.143 0.279,0.194c0.073,0.027 0.287,0.089 0.642,0.186c0.515,0.137 0.874,0.25 1.077,0.337c0.203,0.088 0.363,0.215 0.479,0.382c0.116,0.167 0.174,0.374 0.174,0.622c0,0.243 -0.071,0.471 -0.213,0.685c-0.141,0.214 -0.345,0.38 -0.612,0.497c-0.266,0.117 -0.568,0.176 -0.905,0.176c-0.557,0 -0.982,-0.116 -1.275,-0.348c-0.292,-0.231 -0.478,-0.575 -0.559,-1.03Z" style="fill:#fff;fill-rule:nonzero;" stroke-width="1"/>
      <path d="M26.364,10.156l0,-0.541c-0.272,0.425 -0.672,0.638 -1.2,0.638c-0.342,0 -0.656,-0.094 -0.943,-0.283c-0.287,-0.188 -0.509,-0.452 -0.667,-0.79c-0.158,-0.338 -0.236,-0.726 -0.236,-1.166c0,-0.428 0.071,-0.816 0.214,-1.165c0.143,-0.349 0.357,-0.616 0.642,-0.802c0.286,-0.186 0.605,-0.279 0.958,-0.279c0.258,0 0.489,0.055 0.691,0.164c0.202,0.109 0.366,0.251 0.493,0.426l0,-2.125l0.723,0l0,5.923l-0.675,0ZM24.065,8.014c0,0.55 0.116,0.961 0.348,1.233c0.231,0.272 0.505,0.408 0.82,0.408c0.318,0 0.588,-0.13 0.81,-0.39c0.222,-0.26 0.333,-0.657 0.333,-1.19c0,-0.587 -0.113,-1.018 -0.339,-1.293c-0.226,-0.275 -0.505,-0.412 -0.837,-0.412c-0.323,0 -0.593,0.132 -0.81,0.396c-0.216,0.264 -0.325,0.68 -0.325,1.248Z" style="fill:#fff;fill-rule:nonzero;" stroke-width="1"/>
      <path d="M31.12,8.774l0.751,0.093c-0.118,0.439 -0.338,0.78 -0.658,1.022c-0.321,0.243 -0.73,0.364 -1.229,0.364c-0.627,0 -1.125,-0.193 -1.493,-0.58c-0.367,-0.386 -0.551,-0.929 -0.551,-1.626c0,-0.722 0.186,-1.282 0.557,-1.681c0.372,-0.399 0.854,-0.598 1.447,-0.598c0.574,0 1.042,0.195 1.406,0.586c0.364,0.39 0.546,0.94 0.546,1.648c0,0.043 -0.002,0.108 -0.005,0.194l-3.2,0c0.027,0.472 0.161,0.833 0.4,1.083c0.24,0.251 0.539,0.376 0.897,0.376c0.267,0 0.495,-0.07 0.683,-0.21c0.189,-0.14 0.338,-0.364 0.449,-0.671ZM28.732,7.598l2.396,0c-0.033,-0.361 -0.124,-0.631 -0.275,-0.812c-0.232,-0.28 -0.532,-0.42 -0.901,-0.42c-0.334,0 -0.615,0.112 -0.842,0.335c-0.228,0.224 -0.354,0.523 -0.378,0.897Z" style="fill:#fff;fill-rule:nonzero;" stroke-width="1"/>
      <path d="M32.493,8.875l0.72,-0.113c0.04,0.288 0.153,0.509 0.337,0.663c0.185,0.153 0.443,0.23 0.774,0.23c0.334,0 0.582,-0.068 0.743,-0.204c0.162,-0.136 0.243,-0.296 0.243,-0.479c0,-0.164 -0.072,-0.294 -0.214,-0.388c-0.1,-0.064 -0.348,-0.147 -0.744,-0.246c-0.533,-0.135 -0.903,-0.251 -1.109,-0.35c-0.206,-0.098 -0.362,-0.234 -0.469,-0.408c-0.106,-0.174 -0.159,-0.366 -0.159,-0.576c0,-0.191 0.043,-0.368 0.131,-0.531c0.088,-0.163 0.207,-0.298 0.358,-0.406c0.113,-0.084 0.267,-0.154 0.462,-0.212c0.196,-0.058 0.405,-0.087 0.629,-0.087c0.336,0 0.632,0.048 0.886,0.145c0.255,0.097 0.443,0.229 0.564,0.394c0.121,0.166 0.205,0.388 0.251,0.665l-0.712,0.097c-0.032,-0.221 -0.125,-0.393 -0.28,-0.517c-0.155,-0.124 -0.374,-0.186 -0.657,-0.186c-0.334,0 -0.572,0.055 -0.715,0.166c-0.143,0.11 -0.214,0.239 -0.214,0.388c0,0.094 0.029,0.179 0.089,0.254c0.059,0.078 0.152,0.143 0.278,0.194c0.073,0.027 0.287,0.089 0.643,0.186c0.514,0.137 0.873,0.25 1.077,0.337c0.203,0.088 0.363,0.215 0.478,0.382c0.116,0.167 0.174,0.374 0.174,0.622c0,0.243 -0.071,0.471 -0.212,0.685c-0.141,0.214 -0.345,0.38 -0.612,0.497c-0.267,0.117 -0.568,0.176 -0.905,0.176c-0.558,0 -0.983,-0.116 -1.275,-0.348c-0.292,-0.231 -0.479,-0.575 -0.56,-1.03Z" style="fill:#fff;fill-rule:nonzero;" stroke-width="1"/>
      <path d="M39.859,8.774l0.752,0.093c-0.119,0.439 -0.338,0.78 -0.659,1.022c-0.32,0.243 -0.73,0.364 -1.228,0.364c-0.628,0 -1.125,-0.193 -1.493,-0.58c-0.368,-0.386 -0.552,-0.929 -0.552,-1.626c0,-0.722 0.186,-1.282 0.558,-1.681c0.372,-0.399 0.854,-0.598 1.446,-0.598c0.574,0 1.043,0.195 1.407,0.586c0.363,0.39 0.545,0.94 0.545,1.648c0,0.043 -0.001,0.108 -0.004,0.194l-3.2,0c0.027,0.472 0.16,0.833 0.4,1.083c0.24,0.251 0.539,0.376 0.897,0.376c0.267,0 0.494,-0.07 0.683,-0.21c0.188,-0.14 0.338,-0.364 0.448,-0.671ZM37.471,7.598l2.396,0c-0.032,-0.361 -0.124,-0.631 -0.274,-0.812c-0.232,-0.28 -0.532,-0.42 -0.901,-0.42c-0.334,0 -0.615,0.112 -0.843,0.335c-0.227,0.224 -0.353,0.523 -0.378,0.897Z" style="fill:#fff;fill-rule:nonzero;" stroke-width="1"/>
      <path d="M41.516,10.156l0,-4.291l0.654,0l0,0.65c0.167,-0.304 0.322,-0.505 0.463,-0.602c0.141,-0.097 0.297,-0.145 0.467,-0.145c0.245,0 0.494,0.078 0.747,0.234l-0.25,0.675c-0.178,-0.105 -0.356,-0.157 -0.534,-0.157c-0.159,0 -0.301,0.047 -0.428,0.143c-0.127,0.096 -0.217,0.228 -0.271,0.398c-0.08,0.259 -0.121,0.541 -0.121,0.848l0,2.247l-0.727,0Z" style="fill:#fff;fill-rule:nonzero;" stroke-width="1"/>
      <path d="M45.471,10.156l-1.632,-4.291l0.768,0l0.921,2.57c0.1,0.277 0.191,0.565 0.275,0.864c0.064,-0.226 0.155,-0.498 0.27,-0.816l0.954,-2.618l0.748,0l-1.625,4.291l-0.679,0Z" style="fill:#fff;fill-rule:nonzero;" stroke-width="1"/>
      <path d="M51.354,8.774l0.752,0.093c-0.119,0.439 -0.338,0.78 -0.659,1.022c-0.32,0.243 -0.73,0.364 -1.228,0.364c-0.628,0 -1.125,-0.193 -1.493,-0.58c-0.368,-0.386 -0.551,-0.929 -0.551,-1.626c0,-0.722 0.185,-1.282 0.557,-1.681c0.372,-0.399 0.854,-0.598 1.447,-0.598c0.573,0 1.042,0.195 1.406,0.586c0.363,0.39 0.545,0.94 0.545,1.648c0,0.043 -0.001,0.108 -0.004,0.194l-3.2,0c0.027,0.472 0.16,0.833 0.4,1.083c0.24,0.251 0.539,0.376 0.897,0.376c0.267,0 0.494,-0.07 0.683,-0.21c0.188,-0.14 0.338,-0.364 0.448,-0.671ZM48.966,7.598l2.396,0c-0.032,-0.361 -0.123,-0.631 -0.274,-0.812c-0.232,-0.28 -0.532,-0.42 -0.901,-0.42c-0.334,0 -0.615,0.112 -0.843,0.335c-0.227,0.224 -0.353,0.523 -0.378,0.897Z" style="fill:#fff;fill-rule:nonzero;" stroke-width="1"/>
      <path d="M52.728,8.875l0.719,-0.113c0.041,0.288 0.153,0.509 0.338,0.663c0.184,0.153 0.442,0.23 0.773,0.23c0.334,0 0.582,-0.068 0.744,-0.204c0.162,-0.136 0.242,-0.296 0.242,-0.479c0,-0.164 -0.071,-0.294 -0.214,-0.388c-0.099,-0.064 -0.347,-0.147 -0.743,-0.246c-0.534,-0.135 -0.903,-0.251 -1.109,-0.35c-0.206,-0.098 -0.363,-0.234 -0.469,-0.408c-0.106,-0.174 -0.16,-0.366 -0.16,-0.576c0,-0.191 0.044,-0.368 0.132,-0.531c0.087,-0.163 0.206,-0.298 0.357,-0.406c0.113,-0.084 0.268,-0.154 0.463,-0.212c0.195,-0.058 0.405,-0.087 0.628,-0.087c0.337,0 0.632,0.048 0.887,0.145c0.255,0.097 0.442,0.229 0.564,0.394c0.121,0.166 0.204,0.388 0.25,0.665l-0.711,0.097c-0.032,-0.221 -0.126,-0.393 -0.281,-0.517c-0.155,-0.124 -0.373,-0.186 -0.656,-0.186c-0.334,0 -0.573,0.055 -0.715,0.166c-0.143,0.11 -0.215,0.239 -0.215,0.388c0,0.094 0.03,0.179 0.089,0.254c0.06,0.078 0.152,0.143 0.279,0.194c0.073,0.027 0.287,0.089 0.642,0.186c0.515,0.137 0.874,0.25 1.077,0.337c0.204,0.088 0.363,0.215 0.479,0.382c0.116,0.167 0.174,0.374 0.174,0.622c0,0.243 -0.071,0.471 -0.212,0.685c-0.142,0.214 -0.346,0.38 -0.612,0.497c-0.267,0.117 -0.569,0.176 -0.906,0.176c-0.557,0 -0.982,-0.116 -1.274,-0.348c-0.293,-0.231 -0.479,-0.575 -0.56,-1.03Z" style="fill:#fff;fill-rule:nonzero;" stroke-width="1"/>
      <path d="M62.256,9.627c-0.27,0.229 -0.529,0.39 -0.778,0.484c-0.249,0.095 -0.517,0.142 -0.802,0.142c-0.472,0 -0.834,-0.115 -1.087,-0.346c-0.253,-0.23 -0.38,-0.524 -0.38,-0.882c0,-0.211 0.048,-0.402 0.143,-0.576c0.096,-0.174 0.221,-0.313 0.376,-0.418c0.155,-0.105 0.33,-0.185 0.523,-0.239c0.143,-0.037 0.359,-0.074 0.647,-0.109c0.587,-0.07 1.019,-0.153 1.297,-0.25c0.003,-0.1 0.004,-0.163 0.004,-0.19c0,-0.297 -0.069,-0.505 -0.206,-0.627c-0.186,-0.164 -0.462,-0.246 -0.828,-0.246c-0.343,0 -0.595,0.06 -0.758,0.18c-0.163,0.12 -0.284,0.332 -0.362,0.636l-0.711,-0.097c0.065,-0.304 0.171,-0.55 0.319,-0.737c0.149,-0.187 0.363,-0.331 0.643,-0.432c0.28,-0.102 0.605,-0.152 0.974,-0.152c0.366,0 0.664,0.043 0.893,0.129c0.229,0.086 0.397,0.195 0.505,0.326c0.107,0.13 0.183,0.295 0.226,0.495c0.024,0.123 0.036,0.347 0.036,0.67l0,0.97c0,0.676 0.016,1.104 0.047,1.283c0.031,0.179 0.092,0.351 0.184,0.515l-0.76,0c-0.075,-0.151 -0.124,-0.327 -0.145,-0.529ZM62.195,8.002c-0.264,0.108 -0.66,0.2 -1.188,0.275c-0.299,0.043 -0.51,0.092 -0.634,0.146c-0.124,0.053 -0.22,0.132 -0.287,0.236c-0.068,0.104 -0.101,0.219 -0.101,0.345c0,0.194 0.073,0.356 0.22,0.485c0.147,0.13 0.362,0.194 0.644,0.194c0.281,0 0.53,-0.061 0.748,-0.184c0.218,-0.122 0.378,-0.29 0.481,-0.503c0.078,-0.164 0.117,-0.406 0.117,-0.727l0,-0.267Z" style="fill:#fff;fill-rule:nonzero;" stroke-width="1"/>
      <path d="M67.944,9.505l0.106,0.643c-0.205,0.043 -0.388,0.064 -0.55,0.064c-0.264,0 -0.469,-0.041 -0.614,-0.125c-0.146,-0.083 -0.248,-0.193 -0.307,-0.329c-0.059,-0.136 -0.089,-0.422 -0.089,-0.859l0,-2.468l-0.533,0l0,-0.566l0.533,0l0,-1.063l0.723,-0.436l0,1.499l0.731,0l0,0.566l-0.731,0l0,2.509c0,0.207 0.013,0.34 0.039,0.4c0.025,0.059 0.067,0.106 0.125,0.141c0.058,0.035 0.141,0.053 0.248,0.053c0.081,0 0.187,-0.01 0.319,-0.029Z" style="fill:#fff;fill-rule:nonzero;" stroke-width="1"/>
      <path d="M71.456,9.627c-0.27,0.229 -0.529,0.39 -0.778,0.484c-0.249,0.095 -0.517,0.142 -0.802,0.142c-0.472,0 -0.834,-0.115 -1.087,-0.346c-0.253,-0.23 -0.38,-0.524 -0.38,-0.882c0,-0.211 0.048,-0.402 0.144,-0.576c0.095,-0.174 0.22,-0.313 0.375,-0.418c0.155,-0.105 0.33,-0.185 0.524,-0.239c0.142,-0.037 0.358,-0.074 0.646,-0.109c0.587,-0.07 1.02,-0.153 1.297,-0.25c0.003,-0.1 0.004,-0.163 0.004,-0.19c0,-0.297 -0.069,-0.505 -0.206,-0.627c-0.186,-0.164 -0.462,-0.246 -0.828,-0.246c-0.342,0 -0.595,0.06 -0.758,0.18c-0.163,0.12 -0.283,0.332 -0.361,0.636l-0.712,-0.097c0.065,-0.304 0.171,-0.55 0.32,-0.737c0.148,-0.187 0.362,-0.331 0.642,-0.432c0.28,-0.102 0.605,-0.152 0.974,-0.152c0.366,0 0.664,0.043 0.893,0.129c0.229,0.086 0.397,0.195 0.505,0.326c0.108,0.13 0.183,0.295 0.226,0.495c0.024,0.123 0.036,0.347 0.036,0.67l0,0.97c0,0.676 0.016,1.104 0.047,1.283c0.031,0.179 0.092,0.351 0.184,0.515l-0.76,0c-0.075,-0.151 -0.124,-0.327 -0.145,-0.529ZM71.395,8.002c-0.264,0.108 -0.66,0.2 -1.188,0.275c-0.299,0.043 -0.51,0.092 -0.634,0.146c-0.124,0.053 -0.22,0.132 -0.287,0.236c-0.067,0.104 -0.101,0.219 -0.101,0.345c0,0.194 0.073,0.356 0.22,0.485c0.147,0.13 0.362,0.194 0.645,0.194c0.28,0 0.529,-0.061 0.747,-0.184c0.218,-0.122 0.378,-0.29 0.481,-0.503c0.078,-0.164 0.117,-0.406 0.117,-0.727l0,-0.267Z" style="fill:#fff;fill-rule:nonzero;" stroke-width="1"/>
      <path d="M76.058,8.584l0.715,0.093c-0.078,0.493 -0.278,0.879 -0.6,1.158c-0.322,0.279 -0.717,0.418 -1.186,0.418c-0.587,0 -1.059,-0.192 -1.416,-0.576c-0.357,-0.384 -0.536,-0.934 -0.536,-1.65c0,-0.464 0.077,-0.869 0.231,-1.217c0.153,-0.347 0.387,-0.608 0.701,-0.781c0.314,-0.174 0.655,-0.261 1.024,-0.261c0.466,0 0.847,0.118 1.143,0.354c0.297,0.235 0.487,0.57 0.57,1.004l-0.707,0.109c-0.067,-0.289 -0.186,-0.505 -0.357,-0.651c-0.172,-0.145 -0.378,-0.218 -0.621,-0.218c-0.366,0 -0.664,0.131 -0.893,0.394c-0.229,0.263 -0.343,0.678 -0.343,1.246c0,0.577 0.11,0.996 0.331,1.257c0.221,0.261 0.509,0.392 0.865,0.392c0.285,0 0.524,-0.088 0.715,-0.263c0.191,-0.175 0.313,-0.444 0.364,-0.808Z" style="fill:#fff;fill-rule:nonzero;" stroke-width="1"/>
      <path d="M77.124,8.01c0,-0.794 0.221,-1.383 0.663,-1.765c0.369,-0.318 0.819,-0.477 1.35,-0.477c0.589,0 1.072,0.193 1.446,0.58c0.374,0.386 0.562,0.92 0.562,1.602c0,0.552 -0.083,0.986 -0.249,1.303c-0.165,0.316 -0.407,0.562 -0.723,0.737c-0.317,0.175 -0.662,0.263 -1.036,0.263c-0.601,0 -1.087,-0.193 -1.457,-0.578c-0.37,-0.385 -0.556,-0.94 -0.556,-1.665ZM77.872,8.01c0,0.55 0.12,0.961 0.359,1.235c0.24,0.273 0.542,0.41 0.906,0.41c0.36,0 0.661,-0.137 0.901,-0.412c0.239,-0.275 0.359,-0.694 0.359,-1.257c0,-0.53 -0.12,-0.932 -0.361,-1.206c-0.242,-0.273 -0.541,-0.41 -0.899,-0.41c-0.364,0 -0.666,0.136 -0.906,0.408c-0.239,0.272 -0.359,0.683 -0.359,1.232Z" style="fill:#fff;fill-rule:nonzero;" stroke-width="1"/>
    </g>
    <g id="Taco">
      <g id="Taco Filling">
        <path d="M85.682,7.125c0,0 -0.844,1.177 -1.081,0.753c-0.237,-0.425 0.173,-0.669 0.244,-0.944c0.061,-0.236 0.072,-0.627 0.182,-0.707c0.198,-0.144 0.364,-0.045 0.448,0.124c0.084,0.171 0.207,0.774 0.207,0.774Z" style="fill:#8caf4a;stroke-width:0.3px;stroke:#72502a;" stroke-width="1"/>
        <path d="M90.962,5.12c0,0 -1.26,1.062 -1.764,0.563c-0.504,-0.499 0.172,-0.668 0.243,-0.943c0.061,-0.236 0.004,-0.647 0.183,-0.708c0.321,-0.11 0.636,0.03 0.817,0.227c0.183,0.199 0.521,0.861 0.521,0.861Z" style="fill:#8caf4a;stroke-width:0.3px;stroke:#72502a;" stroke-width="1"/>
        <path d="M92.31,6.626c0,0 -0.899,-1.403 -0.372,-1.876c0.527,-0.472 0.625,0.242 0.882,0.342c0.221,0.085 0.62,0.065 0.662,0.256c0.074,0.342 -0.09,0.653 -0.296,0.822c-0.208,0.17 -0.876,0.456 -0.876,0.456Z" style="fill:#8caf4a;stroke-width:0.3px;stroke:#72502a;" stroke-width="1"/>
        <path d="M91.128,4.306c0.27,0.381 0.565,-0.396 0.811,0.39c0.26,0.83 -1.038,0.333 -1.244,0.271c-0.185,-0.055 -0.747,0.131 -0.705,-0.091c0.042,-0.223 0.892,-0.916 1.138,-0.57Z" style="fill:#bad44d;stroke-width:0.3px;stroke:#72502a;" stroke-width="1"/>
        <path d="M94.57,8.877c0,0 -1.107,-1.727 -0.458,-2.309c0.648,-0.582 0.886,0.138 1.086,0.421c0.324,0.457 0.499,-0.007 0.814,0.315c0.297,0.303 -0.11,1.659 -0.364,1.866c-0.256,0.21 -1.078,-0.293 -1.078,-0.293Z" style="fill:#8caf4a;stroke-width:0.3px;stroke:#72502a;" stroke-width="1"/>
        <path d="M87.577,5.525c0,0 -1.093,0.931 -1.224,0.46c-0.131,-0.471 0.087,-0.407 0.22,-0.656c0.057,-0.107 0.221,-0.399 0.377,-0.464c0.155,-0.065 0.51,-0.002 0.619,0.003c0.761,0.034 0.831,0.042 0.831,0.219c0,0.177 -0.823,0.438 -0.823,0.438Z" style="fill:#bad44d;stroke-width:0.3px;stroke:#72502a;" stroke-width="1"/>
        <path d="M86.15,6.77c-0.241,0.75 -0.904,-0.224 -0.699,-0.666c0.186,-0.399 0.273,-0.446 0.547,-0.454c0.223,-0.008 0.517,0.42 0.534,0.593c0.018,0.173 -0.347,0.419 -0.382,0.527Z" style="fill:#f7595d;stroke-width:0.3px;stroke:#72502a;" stroke-width="1"/>
        <path d="M89.357,4.643c0.724,0.25 -0.216,0.938 -0.641,0.725c-0.385,-0.193 -0.43,-0.283 -0.439,-0.567c-0.007,-0.232 0.406,-0.536 0.572,-0.554c0.167,-0.018 0.405,0.36 0.508,0.396Z" style="fill:#f7595d;stroke-width:0.3px;stroke:#72502a;" stroke-width="1"/>
        <path d="M91.828,5.491c-0.761,-0.047 -0.025,-0.964 0.439,-0.873c0.704,0.139 0.307,1.058 0.151,1.12c-0.157,0.062 -0.481,-0.24 -0.59,-0.247Z" style="fill:#fec11b;stroke-width:0.3px;stroke:#72502a;" stroke-width="1"/>
        <path d="M94.679,7.664c-0.723,-0.251 0.216,-0.939 0.642,-0.726c0.645,0.323 0.033,1.104 -0.134,1.122c-0.167,0.018 -0.404,-0.361 -0.508,-0.396Z" style="fill:#fec11b;stroke-width:0.3px;stroke:#72502a;" stroke-width="1"/>
        <path d="M94.181,6.426c0.723,-0.25 -0.216,-0.939 -0.642,-0.726c-0.385,0.193 -0.429,0.283 -0.438,0.568c-0.007,0.231 0.406,0.536 0.572,0.554c0.167,0.018 0.405,-0.36 0.508,-0.396Z" style="fill:#f7595d;stroke-width:0.3px;stroke:#72502a;" stroke-width="1"/>
      </g>
      <g id="Taco Bread">
        <path d="M90.191,5.052c2.955,0 5.297,2.696 5.541,4.459c0.022,0.161 -0.231,1.167 -5.425,1.057c-5.214,-0.112 -5.709,-0.982 -5.717,-1.134c-0.091,-1.778 2.645,-4.382 5.601,-4.382Z" style="fill:#fec216;stroke-width:0.5px;stroke:#72502a;" stroke-width="1"/>
        <ellipse cx="87.128" cy="7.675" rx="0.412" ry="0.427" style="fill:#fd9b21;" stroke-width="1"/>
        <ellipse cx="87.786" cy="9.638" rx="0.246" ry="0.255" style="fill:#fd9b21;" stroke-width="1"/>
        <ellipse cx="94.475" cy="9.18" rx="0.197" ry="0.205" style="fill:#fd9b21;" stroke-width="1"/>
        <ellipse cx="93.187" cy="8.602" rx="0.128" ry="0.132" style="fill:#fd9b21;" stroke-width="1"/>
        <ellipse cx="92.124" cy="7.267" rx="0.128" ry="0.132" style="fill:#fd9b21;" stroke-width="1"/>
        <ellipse cx="91.88" cy="6.371" rx="0.167" ry="0.174" style="fill:#fd9b21;" stroke-width="1"/>
        <ellipse cx="92.999" cy="7.736" rx="0.315" ry="0.327" style="fill:#fd9b21;" stroke-width="1"/>
        <ellipse cx="88.241" cy="8.388" rx="0.213" ry="0.221" style="fill:#fd9b21;" stroke-width="1"/>
        <ellipse cx="86.073" cy="8.396" rx="0.134" ry="0.139" style="fill:#fd9b21;" stroke-width="1"/>
        <ellipse cx="89.355" cy="9.702" rx="0.134" ry="0.139" style="fill:#fd9b21;" stroke-width="1"/>
        <ellipse cx="89.857" cy="7.975" rx="0.302" ry="0.313" style="fill:#fd9b21;" stroke-width="1"/>
        <ellipse cx="89.254" cy="8.954" rx="0.302" ry="0.313" style="fill:#fd9b21;" stroke-width="1"/>
        <ellipse cx="88.303" cy="6.901" rx="0.302" ry="0.313" style="fill:#fd9b21;" stroke-width="1"/>
        <ellipse cx="89.555" cy="6.445" rx="0.302" ry="0.313" style="fill:#fd9b21;" stroke-width="1"/>
        <ellipse cx="90.921" cy="6.898" rx="0.302" ry="0.313" style="fill:#fd9b21;" stroke-width="1"/>
        <ellipse cx="91.427" cy="8.318" rx="0.204" ry="0.212" style="fill:#fd9b21;" stroke-width="1"/>
        <ellipse cx="92.251" cy="8.742" rx="0.204" ry="0.212" style="fill:#fd9b21;" stroke-width="1"/>
        <ellipse cx="86.484" cy="9.166" rx="0.204" ry="0.212" style="fill:#fd9b21;" stroke-width="1"/>
        <ellipse cx="90.921" cy="9.58" rx="0.302" ry="0.313" style="fill:#fd9b21;" stroke-width="1"/>
        <ellipse cx="93.172" cy="9.58" rx="0.302" ry="0.313" style="fill:#fd9b21;" stroke-width="1"/>
      </g>
    </g>
  </g>
</svg>