<svg width="109.61400604248047" height="14.907999992370605" viewBox="-0.5000052452087402 -0.5 109.61400604248047 14.907999992370605" version="1.1" xmlns="http://www.w3.org/2000/svg" xmlns:xlink="http://www.w3.org/1999/xlink" xml:space="preserve" style="fill-rule:evenodd;clip-rule:evenodd;stroke-linejoin:round;stroke-miterlimit:1.41421;"><g id="1"><path d="M108.614,6.954c0,-3.838 -3.116,-6.954 -6.954,-6.954l-94.706,0c-3.838,0 -6.954,3.116 -6.954,6.954c0,3.838 3.116,6.954 6.954,6.954l94.706,0c3.838,0 6.954,-3.116 6.954,-6.954Z" style="fill:#9fd3ff;" stroke-width="1"/><rect x="5.875" y="4.233" width="0.784" height="5.923" style="fill:#fff;fill-rule:nonzero;" stroke-width="1"/><path d="M9.536,9.505l0.105,0.643c-0.205,0.043 -0.388,0.064 -0.55,0.064c-0.264,0 -0.469,-0.041 -0.614,-0.125c-0.145,-0.083 -0.248,-0.193 -0.307,-0.329c-0.059,-0.136 -0.089,-0.422 -0.089,-0.859l0,-2.468l-0.533,0l0,-0.566l0.533,0l0,-1.063l0.723,-0.436l0,1.499l0.732,0l0,0.566l-0.732,0l0,2.509c0,0.207 0.013,0.34 0.039,0.4c0.025,0.059 0.067,0.106 0.125,0.141c0.058,0.035 0.141,0.053 0.248,0.053c0.081,0 0.188,-0.01 0.32,-0.029Z" style="fill:#fff;fill-rule:nonzero;" stroke-width="1"/><path d="M10.251,6.33l-0.186,-1.107l0,-0.99l0.828,0l0,0.99l-0.194,1.107l-0.448,0Z" style="fill:#fff;fill-rule:nonzero;" stroke-width="1"/><path d="M11.536,8.875l0.719,-0.113c0.04,0.288 0.153,0.509 0.337,0.663c0.185,0.153 0.443,0.23 0.774,0.23c0.334,0 0.582,-0.068 0.743,-0.204c0.162,-0.136 0.243,-0.296 0.243,-0.479c0,-0.164 -0.072,-0.294 -0.214,-0.388c-0.1,-0.064 -0.348,-0.147 -0.744,-0.246c-0.533,-0.135 -0.903,-0.251 -1.109,-0.35c-0.206,-0.098 -0.362,-0.234 -0.469,-0.408c-0.106,-0.174 -0.159,-0.366 -0.159,-0.576c0,-0.191 0.044,-0.368 0.131,-0.531c0.088,-0.163 0.207,-0.298 0.358,-0.406c0.113,-0.084 0.267,-0.154 0.462,-0.212c0.196,-0.058 0.405,-0.087 0.629,-0.087c0.336,0 0.632,0.048 0.887,0.145c0.254,0.097 0.442,0.229 0.563,0.394c0.121,0.166 0.205,0.388 0.251,0.665l-0.711,0.097c-0.033,-0.221 -0.126,-0.393 -0.281,-0.517c-0.155,-0.124 -0.374,-0.186 -0.657,-0.186c-0.334,0 -0.572,0.055 -0.715,0.166c-0.143,0.11 -0.214,0.239 -0.214,0.388c0,0.094 0.03,0.179 0.089,0.254c0.059,0.078 0.152,0.143 0.279,0.194c0.072,0.027 0.286,0.089 0.642,0.186c0.514,0.137 0.873,0.25 1.077,0.337c0.203,0.088 0.363,0.215 0.479,0.382c0.115,0.167 0.173,0.374 0.173,0.622c0,0.243 -0.07,0.471 -0.212,0.685c-0.141,0.214 -0.345,0.38 -0.612,0.497c-0.267,0.117 -0.568,0.176 -0.905,0.176c-0.558,0 -0.983,-0.116 -1.275,-0.348c-0.292,-0.231 -0.479,-0.575 -0.559,-1.03Z" style="fill:#fff;fill-rule:nonzero;" stroke-width="1"/><path d="M21.063,9.627c-0.269,0.229 -0.529,0.39 -0.778,0.484c-0.249,0.095 -0.516,0.142 -0.802,0.142c-0.471,0 -0.833,-0.115 -1.087,-0.346c-0.253,-0.23 -0.379,-0.524 -0.379,-0.882c0,-0.211 0.047,-0.402 0.143,-0.576c0.096,-0.174 0.221,-0.313 0.376,-0.418c0.155,-0.105 0.329,-0.185 0.523,-0.239c0.143,-0.037 0.358,-0.074 0.646,-0.109c0.588,-0.07 1.02,-0.153 1.297,-0.25c0.003,-0.1 0.004,-0.163 0.004,-0.19c0,-0.297 -0.068,-0.505 -0.206,-0.627c-0.185,-0.164 -0.462,-0.246 -0.828,-0.246c-0.342,0 -0.595,0.06 -0.757,0.18c-0.163,0.12 -0.284,0.332 -0.362,0.636l-0.711,-0.097c0.064,-0.304 0.171,-0.55 0.319,-0.737c0.148,-0.187 0.362,-0.331 0.642,-0.432c0.281,-0.102 0.605,-0.152 0.974,-0.152c0.366,0 0.664,0.043 0.893,0.129c0.229,0.086 0.397,0.195 0.505,0.326c0.108,0.13 0.183,0.295 0.226,0.495c0.025,0.123 0.037,0.347 0.037,0.67l0,0.97c0,0.676 0.015,1.104 0.046,1.283c0.031,0.179 0.093,0.351 0.184,0.515l-0.76,0c-0.075,-0.151 -0.123,-0.327 -0.145,-0.529ZM21.002,8.002c-0.264,0.108 -0.66,0.2 -1.187,0.275c-0.299,0.043 -0.511,0.092 -0.635,0.146c-0.124,0.053 -0.219,0.132 -0.287,0.236c-0.067,0.104 -0.101,0.219 -0.101,0.345c0,0.194 0.074,0.356 0.22,0.485c0.147,0.13 0.362,0.194 0.645,0.194c0.28,0 0.529,-0.061 0.747,-0.184c0.219,-0.122 0.379,-0.29 0.481,-0.503c0.078,-0.164 0.117,-0.406 0.117,-0.727l0,-0.267Z" style="fill:#fff;fill-rule:nonzero;" stroke-width="1"/><rect x="22.849" y="4.233" width="0.727" height="5.923" style="fill:#fff;fill-rule:nonzero;" stroke-width="1"/><path d="M24.695,10.156l0,-4.291l0.655,0l0,0.65c0.167,-0.304 0.321,-0.505 0.463,-0.602c0.141,-0.097 0.297,-0.145 0.466,-0.145c0.245,0 0.495,0.078 0.748,0.234l-0.251,0.675c-0.178,-0.105 -0.355,-0.157 -0.533,-0.157c-0.159,0 -0.302,0.047 -0.428,0.143c-0.127,0.096 -0.217,0.228 -0.271,0.398c-0.081,0.259 -0.121,0.541 -0.121,0.848l0,2.247l-0.728,0Z" style="fill:#fff;fill-rule:nonzero;" stroke-width="1"/><path d="M27.463,5.069l0,-0.836l0.727,0l0,0.836l-0.727,0ZM27.463,10.156l0,-4.291l0.727,0l0,4.291l-0.727,0Z" style="fill:#fff;fill-rule:nonzero;" stroke-width="1"/><path d="M29.164,10.511l0.707,0.106c0.03,0.218 0.112,0.377 0.247,0.476c0.18,0.135 0.427,0.202 0.739,0.202c0.337,0 0.597,-0.067 0.78,-0.202c0.183,-0.134 0.307,-0.323 0.372,-0.565c0.037,-0.148 0.055,-0.46 0.052,-0.934c-0.318,0.375 -0.714,0.562 -1.188,0.562c-0.59,0 -1.046,-0.213 -1.369,-0.638c-0.324,-0.426 -0.485,-0.937 -0.485,-1.532c0,-0.409 0.074,-0.787 0.222,-1.133c0.148,-0.346 0.363,-0.614 0.644,-0.802c0.282,-0.189 0.613,-0.283 0.992,-0.283c0.507,0 0.924,0.205 1.253,0.614l0,-0.517l0.671,0l0,3.709c0,0.668 -0.068,1.142 -0.204,1.42c-0.137,0.279 -0.352,0.499 -0.647,0.661c-0.295,0.162 -0.658,0.242 -1.089,0.242c-0.512,0 -0.925,-0.115 -1.24,-0.345c-0.315,-0.23 -0.468,-0.577 -0.457,-1.041ZM29.766,7.934c0,0.563 0.112,0.973 0.336,1.232c0.223,0.259 0.503,0.388 0.84,0.388c0.334,0 0.614,-0.129 0.84,-0.386c0.227,-0.257 0.34,-0.661 0.34,-1.21c0,-0.525 -0.117,-0.921 -0.35,-1.188c-0.233,-0.267 -0.514,-0.4 -0.842,-0.4c-0.323,0 -0.598,0.131 -0.824,0.394c-0.227,0.263 -0.34,0.653 -0.34,1.17Z" style="fill:#fff;fill-rule:nonzero;" stroke-width="1"/><path d="M33.9,10.156l0,-5.923l0.727,0l0,2.125c0.339,-0.393 0.768,-0.59 1.285,-0.59c0.318,0 0.594,0.063 0.828,0.188c0.234,0.125 0.402,0.298 0.503,0.519c0.101,0.221 0.152,0.541 0.152,0.962l0,2.719l-0.728,0l0,-2.719c0,-0.364 -0.079,-0.629 -0.236,-0.794c-0.158,-0.166 -0.381,-0.249 -0.669,-0.249c-0.215,0 -0.418,0.056 -0.608,0.168c-0.19,0.112 -0.325,0.263 -0.406,0.454c-0.081,0.192 -0.121,0.456 -0.121,0.792l0,2.348l-0.727,0Z" style="fill:#fff;fill-rule:nonzero;" stroke-width="1"/><path d="M40.09,9.505l0.105,0.643c-0.205,0.043 -0.388,0.064 -0.55,0.064c-0.264,0 -0.469,-0.041 -0.614,-0.125c-0.146,-0.083 -0.248,-0.193 -0.307,-0.329c-0.059,-0.136 -0.089,-0.422 -0.089,-0.859l0,-2.468l-0.533,0l0,-0.566l0.533,0l0,-1.063l0.723,-0.436l0,1.499l0.732,0l0,0.566l-0.732,0l0,2.509c0,0.207 0.013,0.34 0.039,0.4c0.025,0.059 0.067,0.106 0.125,0.141c0.058,0.035 0.141,0.053 0.248,0.053c0.081,0 0.188,-0.01 0.32,-0.029Z" style="fill:#fff;fill-rule:nonzero;" stroke-width="1"/><path d="M40.991,10.156l0,-0.828l0.828,0l0,0.828c0,0.304 -0.054,0.55 -0.162,0.737c-0.107,0.188 -0.279,0.332 -0.513,0.435l-0.202,-0.311c0.154,-0.068 0.267,-0.167 0.339,-0.297c0.073,-0.131 0.114,-0.319 0.122,-0.564l-0.412,0Z" style="fill:#fff;fill-rule:nonzero;" stroke-width="1"/><path d="M46.069,10.156l-0.674,0l0,-5.923l0.727,0l0,2.113c0.307,-0.385 0.699,-0.578 1.176,-0.578c0.264,0 0.514,0.053 0.749,0.16c0.236,0.106 0.43,0.255 0.582,0.448c0.152,0.193 0.271,0.425 0.358,0.697c0.086,0.272 0.129,0.563 0.129,0.873c0,0.735 -0.182,1.304 -0.546,1.705c-0.363,0.401 -0.8,0.602 -1.309,0.602c-0.506,0 -0.903,-0.212 -1.192,-0.634l0,0.537ZM46.061,7.978c0,0.515 0.07,0.886 0.21,1.115c0.229,0.375 0.539,0.562 0.93,0.562c0.318,0 0.592,-0.138 0.824,-0.414c0.232,-0.276 0.347,-0.688 0.347,-1.235c0,-0.56 -0.111,-0.973 -0.333,-1.24c-0.222,-0.267 -0.491,-0.4 -0.806,-0.4c-0.318,0 -0.593,0.138 -0.824,0.414c-0.232,0.276 -0.348,0.676 -0.348,1.198Z" style="fill:#fff;fill-rule:nonzero;" stroke-width="1"/><path d="M52.813,10.156l0,-0.63c-0.334,0.484 -0.788,0.727 -1.362,0.727c-0.253,0 -0.489,-0.049 -0.709,-0.146c-0.219,-0.097 -0.382,-0.218 -0.489,-0.365c-0.106,-0.147 -0.181,-0.327 -0.224,-0.54c-0.03,-0.142 -0.044,-0.369 -0.044,-0.678l0,-2.659l0.727,0l0,2.38c0,0.38 0.015,0.635 0.044,0.767c0.046,0.192 0.143,0.342 0.291,0.451c0.148,0.109 0.332,0.164 0.55,0.164c0.218,0 0.423,-0.056 0.614,-0.168c0.191,-0.112 0.327,-0.264 0.406,-0.457c0.079,-0.192 0.119,-0.472 0.119,-0.838l0,-2.299l0.727,0l0,4.291l-0.65,0Z" style="fill:#fff;fill-rule:nonzero;" stroke-width="1"/><path d="M56.191,9.505l0.105,0.643c-0.205,0.043 -0.388,0.064 -0.55,0.064c-0.264,0 -0.468,-0.041 -0.614,-0.125c-0.145,-0.083 -0.248,-0.193 -0.307,-0.329c-0.059,-0.136 -0.089,-0.422 -0.089,-0.859l0,-2.468l-0.533,0l0,-0.566l0.533,0l0,-1.063l0.723,-0.436l0,1.499l0.732,0l0,0.566l-0.732,0l0,2.509c0,0.207 0.013,0.34 0.039,0.4c0.025,0.059 0.067,0.106 0.125,0.141c0.058,0.035 0.141,0.053 0.249,0.053c0.08,0 0.187,-0.01 0.319,-0.029Z" style="fill:#fff;fill-rule:nonzero;" stroke-width="1"/><path d="M59.201,10.156l0,-4.291l0.654,0l0,0.61c0.316,-0.471 0.771,-0.707 1.366,-0.707c0.259,0 0.496,0.046 0.713,0.139c0.217,0.093 0.379,0.215 0.487,0.366c0.108,0.151 0.183,0.33 0.226,0.537c0.027,0.135 0.041,0.371 0.041,0.708l0,2.638l-0.727,0l0,-2.61c0,-0.297 -0.029,-0.518 -0.085,-0.665c-0.057,-0.147 -0.157,-0.264 -0.301,-0.351c-0.144,-0.088 -0.313,-0.132 -0.507,-0.132c-0.31,0 -0.577,0.099 -0.802,0.295c-0.225,0.197 -0.338,0.57 -0.338,1.119l0,2.344l-0.727,0Z" style="fill:#fff;fill-rule:nonzero;" stroke-width="1"/><path d="M63.532,8.01c0,-0.794 0.221,-1.383 0.663,-1.765c0.369,-0.318 0.819,-0.477 1.349,-0.477c0.59,0 1.073,0.193 1.447,0.58c0.374,0.386 0.562,0.92 0.562,1.602c0,0.552 -0.083,0.986 -0.249,1.303c-0.166,0.316 -0.407,0.562 -0.723,0.737c-0.317,0.175 -0.662,0.263 -1.037,0.263c-0.6,0 -1.086,-0.193 -1.456,-0.578c-0.371,-0.385 -0.556,-0.94 -0.556,-1.665ZM64.28,8.01c0,0.55 0.12,0.961 0.359,1.235c0.24,0.273 0.542,0.41 0.905,0.41c0.361,0 0.662,-0.137 0.901,-0.412c0.24,-0.275 0.36,-0.694 0.36,-1.257c0,-0.53 -0.12,-0.932 -0.362,-1.206c-0.241,-0.273 -0.54,-0.41 -0.899,-0.41c-0.363,0 -0.665,0.136 -0.905,0.408c-0.239,0.272 -0.359,0.683 -0.359,1.232Z" style="fill:#fff;fill-rule:nonzero;" stroke-width="1"/><path d="M69.993,9.505l0.105,0.643c-0.205,0.043 -0.388,0.064 -0.549,0.064c-0.264,0 -0.469,-0.041 -0.615,-0.125c-0.145,-0.083 -0.247,-0.193 -0.307,-0.329c-0.059,-0.136 -0.089,-0.422 -0.089,-0.859l0,-2.468l-0.533,0l0,-0.566l0.533,0l0,-1.063l0.724,-0.436l0,1.499l0.731,0l0,0.566l-0.731,0l0,2.509c0,0.207 0.012,0.34 0.038,0.4c0.026,0.059 0.067,0.106 0.125,0.141c0.058,0.035 0.141,0.053 0.249,0.053c0.081,0 0.187,-0.01 0.319,-0.029Z" style="fill:#fff;fill-rule:nonzero;" stroke-width="1"/><path d="M74.591,9.505l0.105,0.643c-0.205,0.043 -0.388,0.064 -0.549,0.064c-0.264,0 -0.469,-0.041 -0.615,-0.125c-0.145,-0.083 -0.247,-0.193 -0.307,-0.329c-0.059,-0.136 -0.089,-0.422 -0.089,-0.859l0,-2.468l-0.533,0l0,-0.566l0.533,0l0,-1.063l0.724,-0.436l0,1.499l0.731,0l0,0.566l-0.731,0l0,2.509c0,0.207 0.013,0.34 0.038,0.4c0.026,0.059 0.067,0.106 0.125,0.141c0.058,0.035 0.141,0.053 0.249,0.053c0.081,0 0.187,-0.01 0.319,-0.029Z" style="fill:#fff;fill-rule:nonzero;" stroke-width="1"/><path d="M75.302,10.156l0,-5.923l0.727,0l0,2.125c0.34,-0.393 0.768,-0.59 1.285,-0.59c0.318,0 0.594,0.063 0.829,0.188c0.234,0.125 0.402,0.298 0.503,0.519c0.101,0.221 0.151,0.541 0.151,0.962l0,2.719l-0.727,0l0,-2.719c0,-0.364 -0.079,-0.629 -0.236,-0.794c-0.158,-0.166 -0.381,-0.249 -0.669,-0.249c-0.216,0 -0.418,0.056 -0.608,0.168c-0.19,0.112 -0.326,0.263 -0.406,0.454c-0.081,0.192 -0.122,0.456 -0.122,0.792l0,2.348l-0.727,0Z" style="fill:#fff;fill-rule:nonzero;" stroke-width="1"/><path d="M82.842,8.774l0.751,0.093c-0.118,0.439 -0.338,0.78 -0.658,1.022c-0.321,0.243 -0.73,0.364 -1.229,0.364c-0.627,0 -1.125,-0.193 -1.493,-0.58c-0.367,-0.386 -0.551,-0.929 -0.551,-1.626c0,-0.722 0.186,-1.282 0.557,-1.681c0.372,-0.399 0.854,-0.598 1.447,-0.598c0.574,0 1.042,0.195 1.406,0.586c0.364,0.39 0.545,0.94 0.545,1.648c0,0.043 -0.001,0.108 -0.004,0.194l-3.2,0c0.027,0.472 0.161,0.833 0.4,1.083c0.24,0.251 0.539,0.376 0.897,0.376c0.267,0 0.495,-0.07 0.683,-0.21c0.189,-0.14 0.338,-0.364 0.449,-0.671ZM80.454,7.598l2.396,0c-0.033,-0.361 -0.124,-0.631 -0.275,-0.812c-0.232,-0.28 -0.532,-0.42 -0.901,-0.42c-0.334,0 -0.615,0.112 -0.842,0.335c-0.228,0.224 -0.354,0.523 -0.378,0.897Z" style="fill:#fff;fill-rule:nonzero;" stroke-width="1"/><path d="M87.476,10.156l-0.675,0l0,-5.923l0.728,0l0,2.113c0.307,-0.385 0.699,-0.578 1.175,-0.578c0.264,0 0.514,0.053 0.75,0.16c0.236,0.106 0.429,0.255 0.582,0.448c0.152,0.193 0.271,0.425 0.357,0.697c0.086,0.272 0.13,0.563 0.13,0.873c0,0.735 -0.182,1.304 -0.546,1.705c-0.364,0.401 -0.8,0.602 -1.309,0.602c-0.506,0 -0.904,-0.212 -1.192,-0.634l0,0.537ZM87.468,7.978c0,0.515 0.07,0.886 0.21,1.115c0.229,0.375 0.539,0.562 0.929,0.562c0.318,0 0.593,-0.138 0.825,-0.414c0.231,-0.276 0.347,-0.688 0.347,-1.235c0,-0.56 -0.111,-0.973 -0.333,-1.24c-0.222,-0.267 -0.491,-0.4 -0.806,-0.4c-0.318,0 -0.593,0.138 -0.825,0.414c-0.231,0.276 -0.347,0.676 -0.347,1.198Z" style="fill:#fff;fill-rule:nonzero;" stroke-width="1"/><path d="M94.345,8.774l0.751,0.093c-0.118,0.439 -0.338,0.78 -0.658,1.022c-0.321,0.243 -0.73,0.364 -1.229,0.364c-0.627,0 -1.125,-0.193 -1.492,-0.58c-0.368,-0.386 -0.552,-0.929 -0.552,-1.626c0,-0.722 0.186,-1.282 0.558,-1.681c0.371,-0.399 0.853,-0.598 1.446,-0.598c0.574,0 1.043,0.195 1.406,0.586c0.364,0.39 0.546,0.94 0.546,1.648c0,0.043 -0.002,0.108 -0.004,0.194l-3.2,0c0.026,0.472 0.16,0.833 0.4,1.083c0.239,0.251 0.538,0.376 0.897,0.376c0.266,0 0.494,-0.07 0.682,-0.21c0.189,-0.14 0.338,-0.364 0.449,-0.671ZM91.957,7.598l2.396,0c-0.032,-0.361 -0.124,-0.631 -0.275,-0.812c-0.231,-0.28 -0.532,-0.42 -0.901,-0.42c-0.334,0 -0.615,0.112 -0.842,0.335c-0.228,0.224 -0.354,0.523 -0.378,0.897Z" style="fill:#fff;fill-rule:nonzero;" stroke-width="1"/><path d="M95.719,8.875l0.719,-0.113c0.04,0.288 0.153,0.509 0.337,0.663c0.185,0.153 0.443,0.23 0.774,0.23c0.334,0 0.582,-0.068 0.743,-0.204c0.162,-0.136 0.243,-0.296 0.243,-0.479c0,-0.164 -0.072,-0.294 -0.214,-0.388c-0.1,-0.064 -0.348,-0.147 -0.744,-0.246c-0.533,-0.135 -0.903,-0.251 -1.109,-0.35c-0.206,-0.098 -0.362,-0.234 -0.469,-0.408c-0.106,-0.174 -0.159,-0.366 -0.159,-0.576c0,-0.191 0.044,-0.368 0.131,-0.531c0.088,-0.163 0.207,-0.298 0.358,-0.406c0.113,-0.084 0.267,-0.154 0.462,-0.212c0.196,-0.058 0.405,-0.087 0.629,-0.087c0.336,0 0.632,0.048 0.887,0.145c0.254,0.097 0.442,0.229 0.563,0.394c0.121,0.166 0.205,0.388 0.251,0.665l-0.711,0.097c-0.033,-0.221 -0.126,-0.393 -0.281,-0.517c-0.155,-0.124 -0.374,-0.186 -0.657,-0.186c-0.334,0 -0.572,0.055 -0.715,0.166c-0.143,0.11 -0.214,0.239 -0.214,0.388c0,0.094 0.029,0.179 0.089,0.254c0.059,0.078 0.152,0.143 0.279,0.194c0.072,0.027 0.286,0.089 0.642,0.186c0.514,0.137 0.873,0.25 1.077,0.337c0.203,0.088 0.363,0.215 0.479,0.382c0.115,0.167 0.173,0.374 0.173,0.622c0,0.243 -0.07,0.471 -0.212,0.685c-0.141,0.214 -0.345,0.38 -0.612,0.497c-0.267,0.117 -0.568,0.176 -0.905,0.176c-0.558,0 -0.983,-0.116 -1.275,-0.348c-0.292,-0.231 -0.479,-0.575 -0.559,-1.03Z" style="fill:#fff;fill-rule:nonzero;" stroke-width="1"/><path d="M101.735,9.505l0.105,0.643c-0.205,0.043 -0.388,0.064 -0.55,0.064c-0.264,0 -0.468,-0.041 -0.614,-0.125c-0.145,-0.083 -0.248,-0.193 -0.307,-0.329c-0.059,-0.136 -0.089,-0.422 -0.089,-0.859l0,-2.468l-0.533,0l0,-0.566l0.533,0l0,-1.063l0.724,-0.436l0,1.499l0.731,0l0,0.566l-0.731,0l0,2.509c0,0.207 0.012,0.34 0.038,0.4c0.025,0.059 0.067,0.106 0.125,0.141c0.058,0.035 0.141,0.053 0.249,0.053c0.08,0 0.187,-0.01 0.319,-0.029Z" style="fill:#fff;fill-rule:nonzero;" stroke-width="1"/><rect x="102.652" y="9.328" width="0.828" height="0.828" style="fill:#fff;fill-rule:nonzero;" stroke-width="1"/></g></svg>