<svg version="1.1" width="47.253997802734375" height="13.729999542236328" viewBox="-0.4519999995827675 0.11500000953674316 47.253997802734375 13.729999542236328" xmlns="http://www.w3.org/2000/svg" xmlns:xlink="http://www.w3.org/1999/xlink">
  <!-- Exported by Scratch - http://scratch.mit.edu/ -->
  <g id="ID0.4587624417617917">
    <path id="ID0.44363403553143144" fill="#6FD57E" d="M 0.048 13.14 L 0.048 0.615 L 1.706 0.615 L 1.706 11.662 L 7.874 11.662 L 7.874 13.14 L 0.048 13.14 Z " stroke-width="1"/>
    <path id="ID0.2918156189844012" fill="#6FD57E" d="M 15.572 12.021 C 15.002 12.505 14.454 12.847 13.927 13.046 C 13.4 13.245 12.835 13.345 12.231 13.345 C 11.234 13.345 10.468 13.101 9.933 12.614 C 9.398 12.128 9.13 11.505 9.13 10.748 C 9.13 10.304 9.231 9.898 9.433 9.53 C 9.635 9.163 9.9 8.868 10.228 8.646 C 10.555 8.424 10.924 8.256 11.334 8.142 C 11.636 8.062 12.092 7.985 12.701 7.911 C 13.943 7.763 14.857 7.587 15.443 7.382 C 15.449 7.171 15.452 7.037 15.452 6.98 C 15.452 6.354 15.307 5.912 15.016 5.656 C 14.623 5.309 14.04 5.135 13.265 5.135 C 12.542 5.135 12.008 5.262 11.663 5.515 C 11.318 5.768 11.064 6.217 10.898 6.861 L 9.395 6.656 C 9.531 6.012 9.756 5.492 10.07 5.096 C 10.383 4.701 10.836 4.396 11.428 4.182 C 12.02 3.969 12.707 3.862 13.487 3.862 C 14.262 3.862 14.891 3.953 15.375 4.135 C 15.859 4.318 16.215 4.547 16.443 4.823 C 16.671 5.099 16.83 5.448 16.921 5.87 C 16.973 6.132 16.998 6.604 16.998 7.288 L 16.998 9.338 C 16.998 10.768 17.031 11.672 17.097 12.051 C 17.162 12.429 17.292 12.792 17.485 13.14 L 15.879 13.14 C 15.72 12.821 15.617 12.448 15.572 12.021 Z M 15.443 8.586 C 14.885 8.814 14.048 9.008 12.932 9.167 C 12.3 9.258 11.852 9.361 11.59 9.475 C 11.328 9.589 11.126 9.755 10.984 9.975 C 10.841 10.194 10.77 10.437 10.77 10.705 C 10.77 11.115 10.925 11.457 11.236 11.73 C 11.546 12.004 12.001 12.14 12.599 12.14 C 13.191 12.14 13.718 12.011 14.179 11.752 C 14.64 11.492 14.979 11.138 15.196 10.688 C 15.361 10.341 15.443 9.828 15.443 9.15 L 15.443 8.586 Z " stroke-width="1"/>
    <path id="ID0.8975428054109216" fill="#6FD57E" d="M 22.739 11.764 L 22.962 13.123 C 22.529 13.214 22.141 13.26 21.8 13.26 C 21.241 13.26 20.809 13.171 20.501 12.995 C 20.194 12.818 19.977 12.586 19.852 12.298 C 19.726 12.011 19.664 11.406 19.664 10.483 L 19.664 5.263 L 18.536 5.263 L 18.536 4.067 L 19.664 4.067 L 19.664 1.82 L 21.193 0.897 L 21.193 4.067 L 22.739 4.067 L 22.739 5.263 L 21.193 5.263 L 21.193 10.568 C 21.193 11.007 21.22 11.289 21.274 11.414 C 21.328 11.539 21.417 11.639 21.539 11.713 C 21.662 11.787 21.837 11.824 22.064 11.824 C 22.235 11.824 22.46 11.804 22.739 11.764 Z " stroke-width="1"/>
    <path id="ID0.37257699482142925" fill="#6FD57E" d="M 30.454 10.218 L 32.043 10.415 C 31.792 11.343 31.328 12.063 30.65 12.576 C 29.973 13.089 29.107 13.345 28.053 13.345 C 26.726 13.345 25.674 12.936 24.897 12.119 C 24.119 11.302 23.73 10.155 23.73 8.68 C 23.73 7.154 24.123 5.969 24.909 5.126 C 25.695 4.283 26.715 3.862 27.968 3.862 C 29.181 3.862 30.172 4.275 30.941 5.101 C 31.71 5.927 32.094 7.088 32.094 8.586 C 32.094 8.677 32.091 8.814 32.086 8.996 L 25.319 8.996 C 25.376 9.993 25.658 10.756 26.165 11.286 C 26.672 11.816 27.304 12.081 28.062 12.081 C 28.626 12.081 29.107 11.932 29.506 11.636 C 29.904 11.34 30.22 10.867 30.454 10.218 Z M 25.405 7.732 L 30.471 7.732 C 30.403 6.969 30.209 6.396 29.89 6.015 C 29.4 5.422 28.765 5.126 27.985 5.126 C 27.279 5.126 26.685 5.363 26.204 5.835 C 25.722 6.308 25.456 6.94 25.405 7.732 Z " stroke-width="1"/>
    <path id="ID0.23675066558644176" fill="#6FD57E" d="M 33.359 10.432 L 34.879 10.192 C 34.965 10.802 35.203 11.269 35.593 11.594 C 35.983 11.918 36.528 12.081 37.229 12.081 C 37.935 12.081 38.459 11.937 38.801 11.649 C 39.143 11.361 39.313 11.024 39.313 10.637 C 39.313 10.289 39.162 10.016 38.861 9.817 C 38.65 9.68 38.126 9.506 37.289 9.295 C 36.161 9.011 35.379 8.764 34.943 8.556 C 34.508 8.349 34.177 8.061 33.952 7.694 C 33.728 7.326 33.615 6.92 33.615 6.476 C 33.615 6.072 33.708 5.697 33.893 5.353 C 34.078 5.008 34.33 4.722 34.649 4.494 C 34.888 4.318 35.214 4.168 35.627 4.046 C 36.04 3.923 36.483 3.862 36.955 3.862 C 37.667 3.862 38.292 3.964 38.831 4.169 C 39.369 4.375 39.766 4.652 40.022 5.002 C 40.279 5.353 40.455 5.821 40.552 6.408 L 39.049 6.613 C 38.98 6.146 38.782 5.781 38.455 5.519 C 38.127 5.257 37.665 5.126 37.067 5.126 C 36.36 5.126 35.856 5.243 35.554 5.477 C 35.252 5.71 35.102 5.983 35.102 6.297 C 35.102 6.496 35.164 6.675 35.29 6.835 C 35.415 7 35.611 7.137 35.879 7.245 C 36.033 7.302 36.486 7.433 37.237 7.638 C 38.325 7.929 39.084 8.166 39.514 8.351 C 39.944 8.537 40.282 8.806 40.527 9.159 C 40.771 9.512 40.894 9.95 40.894 10.474 C 40.894 10.987 40.744 11.47 40.445 11.922 C 40.146 12.375 39.715 12.726 39.151 12.973 C 38.587 13.221 37.949 13.345 37.237 13.345 C 36.058 13.345 35.16 13.1 34.542 12.61 C 33.924 12.12 33.53 11.394 33.359 10.432 Z " stroke-width="1"/>
    <path id="ID0.6140512758865952" fill="#6FD57E" d="M 46.08 11.764 L 46.302 13.123 C 45.869 13.214 45.482 13.26 45.14 13.26 C 44.582 13.26 44.149 13.171 43.841 12.995 C 43.534 12.818 43.317 12.586 43.192 12.298 C 43.067 12.011 43.004 11.406 43.004 10.483 L 43.004 5.263 L 41.876 5.263 L 41.876 4.067 L 43.004 4.067 L 43.004 1.82 L 44.533 0.897 L 44.533 4.067 L 46.08 4.067 L 46.08 5.263 L 44.533 5.263 L 44.533 10.568 C 44.533 11.007 44.56 11.289 44.614 11.414 C 44.669 11.539 44.757 11.639 44.879 11.713 C 45.002 11.787 45.177 11.824 45.405 11.824 C 45.576 11.824 45.801 11.804 46.08 11.764 Z " stroke-width="1"/>
  </g>
</svg>