<svg version="1.1" width="31.906002044677734" height="53.125" viewBox="0.1879979372024536 0.25 31.906002044677734 53.125" xmlns="http://www.w3.org/2000/svg" xmlns:xlink="http://www.w3.org/1999/xlink">
  <!-- Exported by Scratch - http://scratch.mit.edu/ -->
  <g id="ID0.8853258523158729">
    <g id="layer1">
      <path id="path3139" fill="#666666" stroke="none" d="M 16.406 0.75 C 14.133 0.75 12.047 1.16 10.125 1.969 C 8.203 2.777 6.551 3.898 5.156 5.375 C 3.762 6.852 2.66 8.637 1.875 10.688 C 1.09 12.738 0.687 14.984 0.688 17.469 C 0.687 19.766 1.047 21.871 1.75 23.781 C 2.453 25.691 3.453 27.348 4.719 28.719 C 5.984 30.09 7.492 31.164 9.25 31.938 C 11.008 32.711 12.922 33.094 15.031 33.094 C 20.656 33.094 24.594 30.656 26.844 25.781 L 27 25.781 C 27 33.328 25.672 39.082 23 43.031 C 20.328 46.981 16.508 48.938 11.563 48.938 C 8.867 48.938 6.148 48.25 3.406 46.844 L 3.406 51.375 C 5.914 52.383 8.578 52.875 11.438 52.875 C 14.672 52.875 17.555 52.238 20.063 50.938 C 22.57 49.637 24.676 47.715 26.375 45.219 C 28.074 42.723 29.359 39.684 30.25 36.063 C 31.141 32.441 31.594 28.297 31.594 23.656 C 31.594 19.93 31.254 16.641 30.563 13.781 C 29.871 10.922 28.863 8.527 27.563 6.594 C 26.262 4.66 24.668 3.203 22.781 2.219 C 20.895 1.234 18.773 0.75 16.406 0.75 Z M 15.906 4.688 C 17.453 4.688 18.906 5.008 20.219 5.688 C 21.531 6.367 22.656 7.324 23.594 8.531 C 24.531 9.738 25.254 11.176 25.781 12.875 C 26.309 14.574 26.562 16.461 26.563 18.5 C 26.562 19.953 26.301 21.316 25.75 22.594 C 25.199 23.871 24.449 24.988 23.5 25.938 C 22.551 26.887 21.434 27.625 20.156 28.188 C 18.879 28.75 17.516 29.031 16.063 29.031 C 14.469 29.031 13.012 28.75 11.688 28.188 C 10.363 27.625 9.219 26.836 8.281 25.781 C 7.344 24.727 6.641 23.43 6.125 21.906 C 5.609 20.383 5.344 18.68 5.344 16.781 C 5.344 15.023 5.617 13.414 6.156 11.938 C 6.695 10.461 7.437 9.16 8.375 8.094 C 9.312 7.027 10.398 6.203 11.688 5.594 C 12.977 4.984 14.383 4.688 15.906 4.688 Z " stroke-width="1"/>
    </g>
  </g>
</svg>