<svg version="1.1" width="29.7810001373291" height="54.28099822998047" viewBox="-0.43699999898672104 0.218999981880188 29.7810001373291 54.28099822998047" xmlns="http://www.w3.org/2000/svg" xmlns:xlink="http://www.w3.org/1999/xlink">
  <!-- Exported by Scratch - http://scratch.mit.edu/ -->
  <g id="ID0.19051091093569994">
    <g id="layer1">
      <path id="path3128" fill="#666666" stroke="none" d="M 0.063 0.719 L 0.063 54 L 4.563 54 L 4.563 33.844 C 4.562 31.852 4.852 30.082 5.438 28.5 C 6.023 26.918 6.797 25.57 7.781 24.469 C 8.766 23.367 9.906 22.523 11.219 21.938 C 12.531 21.352 13.922 21.063 15.375 21.063 C 18.445 21.063 20.703 22.027 22.156 23.938 C 23.609 25.848 24.344 28.813 24.344 32.844 L 24.344 54 L 28.844 54 L 28.844 31.75 C 28.844 26.945 27.828 23.305 25.813 20.844 C 23.797 18.383 20.789 17.156 16.781 17.156 C 11.531 17.156 7.5 19.508 4.688 24.219 L 4.563 24.219 L 4.563 0.719 L 0.063 0.719 Z " stroke-width="1"/>
    </g>
  </g>
</svg>