<svg width="126.00000762939453" height="25.75200080871582" viewBox="-0.22100496292114258 -0.09300041198730469 126.00000762939453 25.75200080871582" version="1.1" xmlns="http://www.w3.org/2000/svg" xmlns:xlink="http://www.w3.org/1999/xlink" xml:space="preserve" style="fill-rule:evenodd;clip-rule:evenodd;stroke-linejoin:round;stroke-miterlimit:1.41421;"><g id="Upload to Cloud Button"><path d="M125.279,6.595c0,-3.415 -2.772,-6.188 -6.188,-6.188l-112.624,0c-3.415,0 -6.188,2.773 -6.188,6.188l0,12.376c0,3.415 2.773,6.188 6.188,6.188l112.624,0c3.416,0 6.188,-2.773 6.188,-6.188l0,-12.376Z" style="fill:#fff;" stroke-width="1"/><g id="Cloud"><circle cx="21.854" cy="15.976" r="3.533" style="fill:#65a8e7;" stroke-width="1"/><circle cx="11.071" cy="11.985" r="2.864" style="fill:#65a8e7;" stroke-width="1"/><circle cx="9.179" cy="15.738" r="3.771" style="fill:#65a8e7;" stroke-width="1"/><circle cx="16.123" cy="12.985" r="5.731" style="fill:#65a8e7;" stroke-width="1"/><rect x="9.179" y="13.223" width="12.723" height="6.285" style="fill:#65a8e7;" stroke-width="1"/></g><path d="M16.665,22.033l-3.337,0l0,-5.231l-1.668,0l3.337,-4.103l3.336,4.103l-1.668,0l0,5.231Z" style="fill:#fff;" stroke-width="1"/><path d="M32.129,9.18l1.59,0l0,4.265c0,0.677 0.02,1.115 0.059,1.316c0.068,0.322 0.23,0.581 0.486,0.776c0.256,0.195 0.606,0.293 1.05,0.293c0.452,0 0.792,-0.092 1.021,-0.277c0.229,-0.184 0.367,-0.411 0.414,-0.679c0.046,-0.269 0.069,-0.715 0.069,-1.338l0,-4.356l1.59,0l0,4.136c0,0.945 -0.043,1.613 -0.129,2.003c-0.086,0.391 -0.244,0.72 -0.475,0.989c-0.231,0.268 -0.54,0.482 -0.927,0.642c-0.386,0.159 -0.891,0.239 -1.514,0.239c-0.752,0 -1.322,-0.087 -1.711,-0.261c-0.388,-0.174 -0.695,-0.399 -0.921,-0.677c-0.226,-0.277 -0.374,-0.568 -0.446,-0.872c-0.104,-0.452 -0.156,-1.118 -0.156,-1.999l0,-4.2Z" style="fill:#65a8e7;fill-rule:nonzero;" stroke-width="1"/><path d="M40.03,11.35l1.408,0l0,0.838c0.182,-0.286 0.429,-0.519 0.741,-0.698c0.311,-0.179 0.657,-0.269 1.036,-0.269c0.663,0 1.225,0.26 1.687,0.779c0.462,0.519 0.693,1.243 0.693,2.17c0,0.953 -0.233,1.693 -0.698,2.221c-0.466,0.528 -1.03,0.792 -1.692,0.792c-0.315,0 -0.601,-0.062 -0.857,-0.188c-0.256,-0.125 -0.526,-0.34 -0.808,-0.644l0,2.873l-1.51,0l0,-7.874ZM41.523,14.106c0,0.641 0.128,1.114 0.382,1.42c0.254,0.306 0.564,0.459 0.929,0.459c0.351,0 0.643,-0.14 0.876,-0.421c0.232,-0.281 0.349,-0.742 0.349,-1.383c0,-0.598 -0.12,-1.042 -0.36,-1.332c-0.24,-0.29 -0.537,-0.435 -0.892,-0.435c-0.369,0 -0.675,0.142 -0.918,0.427c-0.244,0.284 -0.366,0.706 -0.366,1.265Z" style="fill:#65a8e7;fill-rule:nonzero;" stroke-width="1"/><rect x="46.793" y="9.18" width="1.509" height="7.874" style="fill:#65a8e7;fill-rule:nonzero;" stroke-width="1"/><path d="M49.5,14.122c0,-0.502 0.123,-0.987 0.37,-1.456c0.247,-0.469 0.597,-0.827 1.05,-1.074c0.453,-0.247 0.959,-0.371 1.518,-0.371c0.862,0 1.57,0.281 2.121,0.841c0.552,0.56 0.827,1.268 0.827,2.124c0,0.863 -0.278,1.578 -0.835,2.146c-0.557,0.567 -1.258,0.851 -2.103,0.851c-0.523,0 -1.021,-0.118 -1.496,-0.354c-0.474,-0.237 -0.835,-0.583 -1.082,-1.04c-0.247,-0.456 -0.37,-1.012 -0.37,-1.667ZM51.046,14.202c0,0.566 0.135,0.999 0.403,1.3c0.269,0.301 0.6,0.451 0.994,0.451c0.394,0 0.724,-0.15 0.991,-0.451c0.267,-0.301 0.4,-0.738 0.4,-1.31c0,-0.559 -0.133,-0.989 -0.4,-1.29c-0.267,-0.3 -0.597,-0.451 -0.991,-0.451c-0.394,0 -0.725,0.151 -0.994,0.451c-0.268,0.301 -0.403,0.735 -0.403,1.3Z" style="fill:#65a8e7;fill-rule:nonzero;" stroke-width="1"/><path d="M57.696,13.09l-1.37,-0.247c0.154,-0.551 0.419,-0.959 0.795,-1.224c0.376,-0.265 0.935,-0.398 1.676,-0.398c0.673,0 1.174,0.08 1.504,0.239c0.329,0.16 0.561,0.362 0.695,0.607c0.135,0.246 0.202,0.696 0.202,1.351l-0.016,1.762c0,0.501 0.024,0.871 0.072,1.109c0.049,0.238 0.139,0.493 0.271,0.765l-1.493,0c-0.039,-0.1 -0.087,-0.249 -0.145,-0.445c-0.025,-0.09 -0.043,-0.149 -0.053,-0.178c-0.258,0.251 -0.534,0.439 -0.828,0.564c-0.293,0.126 -0.607,0.188 -0.94,0.188c-0.587,0 -1.05,-0.159 -1.388,-0.478c-0.338,-0.318 -0.508,-0.721 -0.508,-1.208c0,-0.323 0.077,-0.61 0.231,-0.862c0.154,-0.253 0.37,-0.446 0.648,-0.58c0.277,-0.135 0.677,-0.252 1.2,-0.352c0.705,-0.133 1.194,-0.256 1.466,-0.371l0,-0.15c0,-0.29 -0.071,-0.497 -0.214,-0.621c-0.144,-0.123 -0.414,-0.185 -0.812,-0.185c-0.268,0 -0.478,0.053 -0.628,0.159c-0.15,0.105 -0.272,0.29 -0.365,0.555ZM59.715,14.315c-0.193,0.065 -0.499,0.142 -0.918,0.231c-0.419,0.09 -0.693,0.177 -0.822,0.263c-0.197,0.14 -0.295,0.317 -0.295,0.532c0,0.211 0.079,0.394 0.236,0.548c0.158,0.154 0.358,0.231 0.602,0.231c0.272,0 0.531,-0.09 0.778,-0.269c0.183,-0.136 0.303,-0.302 0.36,-0.499c0.04,-0.129 0.059,-0.375 0.059,-0.736l0,-0.301Z" style="fill:#65a8e7;fill-rule:nonzero;" stroke-width="1"/><path d="M67.917,17.054l-1.402,0l0,-0.838c-0.233,0.326 -0.507,0.569 -0.824,0.728c-0.317,0.16 -0.637,0.239 -0.959,0.239c-0.655,0 -1.217,-0.264 -1.684,-0.792c-0.467,-0.528 -0.701,-1.265 -0.701,-2.21c0,-0.967 0.228,-1.702 0.682,-2.205c0.455,-0.503 1.03,-0.755 1.724,-0.755c0.638,0 1.189,0.265 1.655,0.795l0,-2.836l1.509,0l0,7.874ZM63.889,14.079c0,0.608 0.084,1.049 0.252,1.321c0.244,0.394 0.584,0.591 1.021,0.591c0.347,0 0.642,-0.148 0.886,-0.443c0.243,-0.296 0.365,-0.737 0.365,-1.324c0,-0.656 -0.118,-1.127 -0.354,-1.416c-0.237,-0.288 -0.539,-0.432 -0.908,-0.432c-0.358,0 -0.658,0.142 -0.9,0.427c-0.241,0.285 -0.362,0.71 -0.362,1.276Z" style="fill:#65a8e7;fill-rule:nonzero;" stroke-width="1"/><path d="M75.077,11.35l0,1.203l-1.032,0l0,2.299c0,0.466 0.01,0.737 0.03,0.814c0.02,0.077 0.064,0.14 0.134,0.191c0.07,0.05 0.155,0.075 0.255,0.075c0.14,0 0.342,-0.049 0.607,-0.145l0.129,1.171c-0.351,0.15 -0.748,0.225 -1.192,0.225c-0.272,0 -0.518,-0.045 -0.736,-0.137c-0.218,-0.091 -0.379,-0.209 -0.481,-0.354c-0.102,-0.145 -0.172,-0.341 -0.212,-0.588c-0.032,-0.176 -0.048,-0.53 -0.048,-1.064l0,-2.487l-0.693,0l0,-1.203l0.693,0l0,-1.133l1.514,-0.881l0,2.014l1.032,0Z" style="fill:#65a8e7;fill-rule:nonzero;" stroke-width="1"/><path d="M75.775,14.122c0,-0.502 0.123,-0.987 0.371,-1.456c0.247,-0.469 0.597,-0.827 1.05,-1.074c0.453,-0.247 0.958,-0.371 1.517,-0.371c0.863,0 1.57,0.281 2.122,0.841c0.551,0.56 0.827,1.268 0.827,2.124c0,0.863 -0.279,1.578 -0.836,2.146c-0.556,0.567 -1.257,0.851 -2.102,0.851c-0.523,0 -1.022,-0.118 -1.496,-0.354c-0.475,-0.237 -0.835,-0.583 -1.082,-1.04c-0.248,-0.456 -0.371,-1.012 -0.371,-1.667ZM77.322,14.202c0,0.566 0.134,0.999 0.403,1.3c0.268,0.301 0.599,0.451 0.993,0.451c0.394,0 0.725,-0.15 0.991,-0.451c0.267,-0.301 0.4,-0.738 0.4,-1.31c0,-0.559 -0.133,-0.989 -0.4,-1.29c-0.266,-0.3 -0.597,-0.451 -0.991,-0.451c-0.394,0 -0.725,0.151 -0.993,0.451c-0.269,0.301 -0.403,0.735 -0.403,1.3Z" style="fill:#65a8e7;fill-rule:nonzero;" stroke-width="1"/><path d="M90.948,14.159l1.542,0.489c-0.237,0.859 -0.63,1.498 -1.179,1.915c-0.55,0.417 -1.247,0.626 -2.092,0.626c-1.046,0 -1.905,-0.358 -2.578,-1.072c-0.674,-0.714 -1.01,-1.691 -1.01,-2.93c0,-1.31 0.338,-2.328 1.015,-3.053c0.677,-0.725 1.567,-1.088 2.669,-1.088c0.964,0 1.746,0.285 2.348,0.854c0.358,0.337 0.626,0.82 0.805,1.45l-1.573,0.376c-0.094,-0.408 -0.288,-0.73 -0.583,-0.967c-0.296,-0.236 -0.655,-0.354 -1.077,-0.354c-0.584,0 -1.057,0.209 -1.421,0.628c-0.363,0.419 -0.545,1.098 -0.545,2.036c0,0.995 0.179,1.704 0.537,2.127c0.358,0.422 0.824,0.634 1.397,0.634c0.422,0 0.786,-0.135 1.09,-0.403c0.304,-0.269 0.523,-0.691 0.655,-1.268Z" style="fill:#65a8e7;fill-rule:nonzero;" stroke-width="1"/><rect x="93.843" y="9.18" width="1.509" height="7.874" style="fill:#65a8e7;fill-rule:nonzero;" stroke-width="1"/><path d="M96.55,14.122c0,-0.502 0.124,-0.987 0.371,-1.456c0.247,-0.469 0.597,-0.827 1.05,-1.074c0.453,-0.247 0.959,-0.371 1.517,-0.371c0.863,0 1.57,0.281 2.122,0.841c0.551,0.56 0.827,1.268 0.827,2.124c0,0.863 -0.278,1.578 -0.835,2.146c-0.557,0.567 -1.258,0.851 -2.103,0.851c-0.523,0 -1.021,-0.118 -1.496,-0.354c-0.474,-0.237 -0.835,-0.583 -1.082,-1.04c-0.247,-0.456 -0.371,-1.012 -0.371,-1.667ZM98.097,14.202c0,0.566 0.134,0.999 0.403,1.3c0.269,0.301 0.6,0.451 0.994,0.451c0.394,0 0.724,-0.15 0.991,-0.451c0.266,-0.301 0.4,-0.738 0.4,-1.31c0,-0.559 -0.134,-0.989 -0.4,-1.29c-0.267,-0.3 -0.597,-0.451 -0.991,-0.451c-0.394,0 -0.725,0.151 -0.994,0.451c-0.269,0.301 -0.403,0.735 -0.403,1.3Z" style="fill:#65a8e7;fill-rule:nonzero;" stroke-width="1"/><path d="M107.373,17.054l0,-0.854c-0.208,0.305 -0.481,0.545 -0.819,0.72c-0.338,0.175 -0.696,0.263 -1.072,0.263c-0.383,0 -0.726,-0.084 -1.031,-0.252c-0.304,-0.169 -0.524,-0.405 -0.66,-0.709c-0.137,-0.305 -0.205,-0.725 -0.205,-1.262l0,-3.61l1.51,0l0,2.621c0,0.802 0.027,1.294 0.083,1.475c0.055,0.181 0.157,0.324 0.303,0.429c0.147,0.106 0.333,0.159 0.559,0.159c0.258,0 0.489,-0.071 0.693,-0.212c0.204,-0.142 0.344,-0.317 0.419,-0.527c0.075,-0.209 0.113,-0.722 0.113,-1.539l0,-2.406l1.509,0l0,5.704l-1.402,0Z" style="fill:#65a8e7;fill-rule:nonzero;" stroke-width="1"/><path d="M115.569,17.054l-1.401,0l0,-0.838c-0.233,0.326 -0.508,0.569 -0.825,0.728c-0.317,0.16 -0.636,0.239 -0.959,0.239c-0.655,0 -1.216,-0.264 -1.684,-0.792c-0.467,-0.528 -0.7,-1.265 -0.7,-2.21c0,-0.967 0.227,-1.702 0.682,-2.205c0.454,-0.503 1.029,-0.755 1.724,-0.755c0.637,0 1.189,0.265 1.654,0.795l0,-2.836l1.509,0l0,7.874ZM111.541,14.079c0,0.608 0.084,1.049 0.252,1.321c0.244,0.394 0.584,0.591 1.021,0.591c0.347,0 0.643,-0.148 0.886,-0.443c0.244,-0.296 0.365,-0.737 0.365,-1.324c0,-0.656 -0.118,-1.127 -0.354,-1.416c-0.236,-0.288 -0.539,-0.432 -0.908,-0.432c-0.358,0 -0.658,0.142 -0.899,0.427c-0.242,0.285 -0.363,0.71 -0.363,1.276Z" style="fill:#65a8e7;fill-rule:nonzero;" stroke-width="1"/></g></svg>