<svg version="1.1" width="32.18700408935547" height="53.0629997253418" viewBox="0.18799638748168945 0.25 32.18700408935547 53.0629997253418" xmlns="http://www.w3.org/2000/svg" xmlns:xlink="http://www.w3.org/1999/xlink">
  <!-- Exported by Scratch - http://scratch.mit.edu/ -->
  <g id="ID0.11671051196753979">
    <g id="layer1">
      <path id="path3119" fill="#666666" stroke="none" d="M 16.313 0.75 C 14.367 0.75 12.551 1.074 10.875 1.719 C 9.199 2.363 7.75 3.258 6.531 4.406 C 5.312 5.555 4.348 6.899 3.656 8.469 C 2.965 10.039 2.625 11.773 2.625 13.625 C 2.625 16.016 3.309 18.168 4.656 20.125 C 6.004 22.082 7.82 23.641 10.094 24.813 C 8.57 25.375 7.203 26.125 6.031 27.063 C 4.859 28 3.891 29.059 3.094 30.219 C 2.297 31.379 1.68 32.613 1.281 33.938 C 0.883 35.262 0.687 36.602 0.688 37.938 C 0.687 40.234 1.07 42.297 1.844 44.125 C 2.617 45.953 3.711 47.523 5.094 48.813 C 6.477 50.102 8.102 51.09 10 51.781 C 11.898 52.473 14.008 52.813 16.281 52.813 C 18.602 52.813 20.715 52.473 22.625 51.781 C 24.535 51.09 26.16 50.102 27.531 48.813 C 28.902 47.523 29.988 45.934 30.75 44.094 C 31.512 42.254 31.875 40.211 31.875 37.938 C 31.875 36.602 31.68 35.262 31.281 33.938 C 30.883 32.613 30.285 31.379 29.5 30.219 C 28.715 29.059 27.742 28 26.594 27.063 C 25.445 26.125 24.125 25.375 22.625 24.813 C 23.727 24.227 24.723 23.566 25.625 22.781 C 26.527 21.996 27.324 21.117 27.969 20.156 C 28.613 19.195 29.086 18.164 29.438 17.063 C 29.789 15.961 29.969 14.82 29.969 13.625 C 29.969 11.797 29.648 10.07 28.969 8.5 C 28.289 6.93 27.344 5.586 26.125 4.438 C 24.906 3.289 23.457 2.375 21.781 1.719 C 20.105 1.063 18.281 0.75 16.313 0.75 Z M 16.313 4.656 C 17.578 4.656 18.762 4.875 19.875 5.344 C 20.988 5.813 21.941 6.48 22.75 7.313 C 23.559 8.145 24.219 9.125 24.688 10.25 C 25.156 11.375 25.375 12.594 25.375 13.906 C 25.375 15.172 25.137 16.344 24.656 17.469 C 24.176 18.594 23.508 19.574 22.688 20.406 C 21.867 21.238 20.914 21.895 19.813 22.375 C 18.711 22.855 17.555 23.094 16.313 23.094 C 15.07 23.094 13.883 22.855 12.781 22.375 C 11.68 21.895 10.727 21.258 9.906 20.438 C 9.086 19.617 8.437 18.625 7.969 17.5 C 7.5 16.375 7.281 15.195 7.281 13.906 C 7.281 12.641 7.473 11.438 7.906 10.313 C 8.34 9.188 8.953 8.188 9.75 7.344 C 10.547 6.5 11.512 5.855 12.625 5.375 C 13.738 4.895 14.977 4.656 16.313 4.656 Z M 16.281 26.969 C 17.922 26.969 19.395 27.27 20.719 27.844 C 22.043 28.418 23.187 29.191 24.125 30.188 C 25.062 31.184 25.766 32.332 26.281 33.656 C 26.797 34.98 27.062 36.398 27.063 37.875 C 27.062 39.539 26.789 41.027 26.25 42.375 C 25.711 43.723 24.98 44.895 24.031 45.844 C 23.082 46.793 21.949 47.504 20.625 48.031 C 19.301 48.559 17.852 48.844 16.281 48.844 C 14.664 48.844 13.187 48.578 11.875 48.063 C 10.562 47.547 9.418 46.805 8.469 45.844 C 7.52 44.883 6.797 43.723 6.281 42.375 C 5.766 41.027 5.5 39.539 5.5 37.875 C 5.5 36.281 5.773 34.805 6.313 33.469 C 6.852 32.133 7.602 30.992 8.563 30.031 C 9.523 29.07 10.656 28.32 11.969 27.781 C 13.281 27.242 14.734 26.969 16.281 26.969 Z " stroke-width="1"/>
    </g>
  </g>
</svg>