<svg version="1.1" width="33.25" height="54.40700149536133" viewBox="0.03100001811981201 -0.3439999967813492 33.25 54.40700149536133" xmlns="http://www.w3.org/2000/svg" xmlns:xlink="http://www.w3.org/1999/xlink">
  <!-- Exported by Scratch - http://scratch.mit.edu/ -->
  <g id="ID0.017690792214125395">
    <g id="layer1">
      <path id="path3263" fill="#666666" stroke="none" d="M 17.063 0.156 C 14.602 0.156 12.371 0.617 10.344 1.531 C 8.316 2.445 6.578 3.738 5.125 5.438 C 3.672 7.137 2.527 9.191 1.719 11.594 C 0.91 13.996 0.531 16.719 0.531 19.719 C 0.531 22.508 0.859 25.012 1.563 27.25 C 2.266 29.488 3.293 31.398 4.594 32.969 C 5.895 34.539 7.461 35.75 9.313 36.594 C 11.164 37.437 13.227 37.844 15.5 37.844 C 21.383 37.844 25.602 35.422 28.156 30.594 L 28.281 30.594 L 28.281 53.563 L 32.781 53.563 L 32.781 1 L 28.281 1 L 28.281 6.406 L 28.156 6.406 C 25.906 2.234 22.195 0.156 17.063 0.156 Z M 17.25 4.063 C 18.914 4.063 20.422 4.352 21.781 4.938 C 23.141 5.523 24.32 6.324 25.281 7.344 C 26.242 8.363 26.973 9.574 27.5 10.969 C 28.027 12.363 28.281 13.883 28.281 15.5 L 28.281 21.219 C 28.281 23 28.039 24.672 27.5 26.219 C 26.961 27.766 26.176 29.102 25.156 30.25 C 24.137 31.398 22.863 32.301 21.375 32.969 C 19.887 33.637 18.203 33.969 16.281 33.969 C 14.641 33.969 13.141 33.656 11.781 33 C 10.422 32.344 9.234 31.398 8.25 30.156 C 7.266 28.914 6.508 27.406 5.969 25.625 C 5.43 23.844 5.156 21.813 5.156 19.563 C 5.156 17.102 5.465 14.902 6.063 12.969 C 6.66 11.035 7.496 9.406 8.563 8.094 C 9.629 6.781 10.898 5.785 12.375 5.094 C 13.852 4.402 15.469 4.063 17.25 4.063 Z " stroke-width="1"/>
    </g>
  </g>
</svg>