<svg width="61.61399841308594" height="14.907999992370605" viewBox="-0.5000014305114746 -0.5 61.61399841308594 14.907999992370605" version="1.1" xmlns="http://www.w3.org/2000/svg" xmlns:xlink="http://www.w3.org/1999/xlink" xml:space="preserve" style="fill-rule:evenodd;clip-rule:evenodd;stroke-linejoin:round;stroke-miterlimit:1.41421;"><g id="1"><path d="M60.614,6.954c0,-3.838 -3.116,-6.954 -6.954,-6.954l-46.706,0c-3.838,0 -6.954,3.116 -6.954,6.954c0,3.838 3.116,6.954 6.954,6.954l46.706,0c3.838,0 6.954,-3.116 6.954,-6.954Z" style="fill:#9fd3ff;" stroke-width="1"/><path d="M7.435,10.156l-2.295,-5.923l0.848,0l1.539,4.303c0.124,0.344 0.228,0.668 0.312,0.969c0.091,-0.323 0.198,-0.646 0.319,-0.969l1.6,-4.303l0.8,0l-2.319,5.923l-0.804,0Z" style="fill:#fff;fill-rule:nonzero;" stroke-width="1"/><path d="M13.649,8.774l0.751,0.093c-0.118,0.439 -0.338,0.78 -0.658,1.022c-0.321,0.243 -0.73,0.364 -1.229,0.364c-0.627,0 -1.125,-0.193 -1.493,-0.58c-0.367,-0.386 -0.551,-0.929 -0.551,-1.626c0,-0.722 0.186,-1.282 0.558,-1.681c0.371,-0.399 0.853,-0.598 1.446,-0.598c0.574,0 1.042,0.195 1.406,0.586c0.364,0.39 0.546,0.94 0.546,1.648c0,0.043 -0.002,0.108 -0.004,0.194l-3.201,0c0.027,0.472 0.161,0.833 0.4,1.083c0.24,0.251 0.539,0.376 0.897,0.376c0.267,0 0.495,-0.07 0.683,-0.21c0.189,-0.14 0.338,-0.364 0.449,-0.671ZM11.261,7.598l2.396,0c-0.032,-0.361 -0.124,-0.631 -0.275,-0.812c-0.232,-0.28 -0.532,-0.42 -0.901,-0.42c-0.334,0 -0.615,0.112 -0.842,0.335c-0.228,0.224 -0.354,0.523 -0.378,0.897Z" style="fill:#fff;fill-rule:nonzero;" stroke-width="1"/><path d="M15.305,10.156l0,-4.291l0.655,0l0,0.65c0.167,-0.304 0.321,-0.505 0.463,-0.602c0.141,-0.097 0.297,-0.145 0.466,-0.145c0.245,0 0.495,0.078 0.748,0.234l-0.251,0.675c-0.178,-0.105 -0.355,-0.157 -0.533,-0.157c-0.159,0 -0.302,0.047 -0.428,0.143c-0.127,0.096 -0.217,0.228 -0.271,0.398c-0.081,0.259 -0.121,0.541 -0.121,0.848l0,2.247l-0.728,0Z" style="fill:#fff;fill-rule:nonzero;" stroke-width="1"/><path d="M18.037,11.808l-0.081,-0.682c0.159,0.043 0.298,0.064 0.416,0.064c0.162,0 0.291,-0.027 0.388,-0.081c0.097,-0.053 0.176,-0.129 0.238,-0.226c0.046,-0.073 0.12,-0.253 0.223,-0.541c0.013,-0.041 0.035,-0.1 0.064,-0.178l-1.628,-4.299l0.784,0l0.893,2.485c0.116,0.315 0.219,0.646 0.311,0.994c0.083,-0.334 0.183,-0.66 0.299,-0.978l0.917,-2.501l0.727,0l-1.632,4.364c-0.175,0.471 -0.311,0.796 -0.408,0.973c-0.129,0.24 -0.278,0.416 -0.445,0.528c-0.167,0.111 -0.366,0.167 -0.598,0.167c-0.14,0 -0.296,-0.029 -0.468,-0.089Z" style="fill:#fff;fill-rule:nonzero;" stroke-width="1"/><path d="M27.306,8.584l0.715,0.093c-0.078,0.493 -0.278,0.879 -0.6,1.158c-0.322,0.279 -0.717,0.418 -1.186,0.418c-0.587,0 -1.059,-0.192 -1.416,-0.576c-0.357,-0.384 -0.536,-0.934 -0.536,-1.65c0,-0.464 0.077,-0.869 0.231,-1.217c0.153,-0.347 0.387,-0.608 0.701,-0.781c0.313,-0.174 0.655,-0.261 1.024,-0.261c0.466,0 0.847,0.118 1.143,0.354c0.297,0.235 0.487,0.57 0.57,1.004l-0.707,0.109c-0.067,-0.289 -0.187,-0.505 -0.358,-0.651c-0.171,-0.145 -0.377,-0.218 -0.62,-0.218c-0.366,0 -0.664,0.131 -0.893,0.394c-0.229,0.263 -0.343,0.678 -0.343,1.246c0,0.577 0.11,0.996 0.331,1.257c0.221,0.261 0.509,0.392 0.865,0.392c0.285,0 0.524,-0.088 0.715,-0.263c0.191,-0.175 0.312,-0.444 0.364,-0.808Z" style="fill:#fff;fill-rule:nonzero;" stroke-width="1"/><path d="M28.635,10.156l0,-4.291l0.654,0l0,0.65c0.167,-0.304 0.322,-0.505 0.463,-0.602c0.141,-0.097 0.297,-0.145 0.467,-0.145c0.245,0 0.494,0.078 0.747,0.234l-0.25,0.675c-0.178,-0.105 -0.356,-0.157 -0.534,-0.157c-0.159,0 -0.301,0.047 -0.428,0.143c-0.127,0.096 -0.217,0.228 -0.271,0.398c-0.08,0.259 -0.121,0.541 -0.121,0.848l0,2.247l-0.727,0Z" style="fill:#fff;fill-rule:nonzero;" stroke-width="1"/><path d="M34.336,8.774l0.751,0.093c-0.118,0.439 -0.338,0.78 -0.658,1.022c-0.321,0.243 -0.73,0.364 -1.228,0.364c-0.628,0 -1.126,-0.193 -1.493,-0.58c-0.368,-0.386 -0.552,-0.929 -0.552,-1.626c0,-0.722 0.186,-1.282 0.558,-1.681c0.371,-0.399 0.854,-0.598 1.446,-0.598c0.574,0 1.043,0.195 1.406,0.586c0.364,0.39 0.546,0.94 0.546,1.648c0,0.043 -0.002,0.108 -0.004,0.194l-3.2,0c0.027,0.472 0.16,0.833 0.4,1.083c0.239,0.251 0.538,0.376 0.897,0.376c0.266,0 0.494,-0.07 0.682,-0.21c0.189,-0.14 0.339,-0.364 0.449,-0.671ZM31.948,7.598l2.396,0c-0.032,-0.361 -0.124,-0.631 -0.275,-0.812c-0.231,-0.28 -0.532,-0.42 -0.901,-0.42c-0.334,0 -0.615,0.112 -0.842,0.335c-0.228,0.224 -0.354,0.523 -0.378,0.897Z" style="fill:#fff;fill-rule:nonzero;" stroke-width="1"/><path d="M38.801,9.627c-0.27,0.229 -0.529,0.39 -0.778,0.484c-0.249,0.095 -0.517,0.142 -0.802,0.142c-0.472,0 -0.834,-0.115 -1.087,-0.346c-0.253,-0.23 -0.38,-0.524 -0.38,-0.882c0,-0.211 0.048,-0.402 0.144,-0.576c0.095,-0.174 0.22,-0.313 0.375,-0.418c0.155,-0.105 0.33,-0.185 0.524,-0.239c0.142,-0.037 0.358,-0.074 0.646,-0.109c0.587,-0.07 1.02,-0.153 1.297,-0.25c0.003,-0.1 0.004,-0.163 0.004,-0.19c0,-0.297 -0.069,-0.505 -0.206,-0.627c-0.186,-0.164 -0.462,-0.246 -0.828,-0.246c-0.342,0 -0.595,0.06 -0.758,0.18c-0.163,0.12 -0.283,0.332 -0.361,0.636l-0.712,-0.097c0.065,-0.304 0.171,-0.55 0.32,-0.737c0.148,-0.187 0.362,-0.331 0.642,-0.432c0.28,-0.102 0.605,-0.152 0.974,-0.152c0.366,0 0.664,0.043 0.893,0.129c0.229,0.086 0.397,0.195 0.505,0.326c0.108,0.13 0.183,0.295 0.226,0.495c0.024,0.123 0.036,0.347 0.036,0.67l0,0.97c0,0.676 0.016,1.104 0.047,1.283c0.031,0.179 0.092,0.351 0.184,0.515l-0.76,0c-0.075,-0.151 -0.124,-0.327 -0.145,-0.529ZM38.74,8.002c-0.264,0.108 -0.66,0.2 -1.188,0.275c-0.299,0.043 -0.51,0.092 -0.634,0.146c-0.124,0.053 -0.22,0.132 -0.287,0.236c-0.067,0.104 -0.101,0.219 -0.101,0.345c0,0.194 0.073,0.356 0.22,0.485c0.147,0.13 0.362,0.194 0.645,0.194c0.28,0 0.529,-0.061 0.747,-0.184c0.218,-0.122 0.379,-0.29 0.481,-0.503c0.078,-0.164 0.117,-0.406 0.117,-0.727l0,-0.267Z" style="fill:#fff;fill-rule:nonzero;" stroke-width="1"/><path d="M42.191,9.505l0.105,0.643c-0.205,0.043 -0.388,0.064 -0.55,0.064c-0.264,0 -0.469,-0.041 -0.614,-0.125c-0.145,-0.083 -0.248,-0.193 -0.307,-0.329c-0.059,-0.136 -0.089,-0.422 -0.089,-0.859l0,-2.468l-0.533,0l0,-0.566l0.533,0l0,-1.063l0.723,-0.436l0,1.499l0.732,0l0,0.566l-0.732,0l0,2.509c0,0.207 0.013,0.34 0.039,0.4c0.025,0.059 0.067,0.106 0.125,0.141c0.058,0.035 0.141,0.053 0.248,0.053c0.081,0 0.188,-0.01 0.32,-0.029Z" style="fill:#fff;fill-rule:nonzero;" stroke-width="1"/><path d="M42.906,5.069l0,-0.836l0.727,0l0,0.836l-0.727,0ZM42.906,10.156l0,-4.291l0.727,0l0,4.291l-0.727,0Z" style="fill:#fff;fill-rule:nonzero;" stroke-width="1"/><path d="M45.932,10.156l-1.632,-4.291l0.767,0l0.922,2.57c0.099,0.277 0.191,0.565 0.274,0.864c0.065,-0.226 0.155,-0.498 0.271,-0.816l0.954,-2.618l0.747,0l-1.624,4.291l-0.679,0Z" style="fill:#fff;fill-rule:nonzero;" stroke-width="1"/><path d="M51.815,8.774l0.751,0.093c-0.118,0.439 -0.338,0.78 -0.658,1.022c-0.321,0.243 -0.73,0.364 -1.228,0.364c-0.628,0 -1.126,-0.193 -1.493,-0.58c-0.368,-0.386 -0.552,-0.929 -0.552,-1.626c0,-0.722 0.186,-1.282 0.558,-1.681c0.371,-0.399 0.854,-0.598 1.446,-0.598c0.574,0 1.043,0.195 1.406,0.586c0.364,0.39 0.546,0.94 0.546,1.648c0,0.043 -0.002,0.108 -0.004,0.194l-3.2,0c0.027,0.472 0.16,0.833 0.4,1.083c0.239,0.251 0.538,0.376 0.897,0.376c0.266,0 0.494,-0.07 0.682,-0.21c0.189,-0.14 0.339,-0.364 0.449,-0.671ZM49.427,7.598l2.396,0c-0.032,-0.361 -0.124,-0.631 -0.275,-0.812c-0.231,-0.28 -0.532,-0.42 -0.901,-0.42c-0.334,0 -0.615,0.112 -0.842,0.335c-0.228,0.224 -0.354,0.523 -0.378,0.897Z" style="fill:#fff;fill-rule:nonzero;" stroke-width="1"/><path d="M53.868,8.685l-0.223,-3.139l0,-1.313l0.901,0l0,1.313l-0.21,3.139l-0.468,0ZM53.678,10.156l0,-0.828l0.836,0l0,0.828l-0.836,0Z" style="fill:#fff;fill-rule:nonzero;" stroke-width="1"/></g></svg>