<svg version="1.1" width="46.61399841308594" height="14.907999992370605" viewBox="-0.5 -0.5 46.61399841308594 14.907999992370605" xmlns="http://www.w3.org/2000/svg" xmlns:xlink="http://www.w3.org/1999/xlink">
  <!-- Exported by Scratch - http://scratch.mit.edu/ -->
  <g id="1">
    <path id="ID0.2466434114612639" fill="#9fd3ff" d="M 45.614 6.954 C 45.614 3.116 42.498 0 38.660 0 L 6.954 0 C 3.116 0 -0.000 3.116 -0.000 6.954 C -0.000 10.792 3.116 13.908 6.954 13.908 L 38.660 13.908 C 42.498 13.908 45.614 10.792 45.614 6.954 Z " stroke-width="1"/>
    <path id="ID0.5005101426504552" fill="#fff" d="M 5.717 10.156 L 5.717 4.233 L 6.897 4.233 L 8.299 8.427 C 8.429 8.817 8.523 9.109 8.582 9.303 C 8.649 9.088 8.754 8.771 8.897 8.354 L 10.315 4.233 L 11.370 4.233 L 11.370 10.156 L 10.614 10.156 L 10.614 5.198 L 8.893 10.156 L 8.186 10.156 L 6.473 5.113 L 6.473 10.156 L 5.717 10.156 Z " stroke-width="1"/>
    <path id="ID0.025266217533499002" fill="#fff" d="M 15.479 8.774 L 16.231 8.867 C 16.112 9.306 15.893 9.647 15.572 9.889 C 15.252 10.132 14.842 10.253 14.344 10.253 C 13.716 10.253 13.218 10.060 12.851 9.673 C 12.483 9.287 12.299 8.744 12.299 8.047 C 12.299 7.325 12.485 6.765 12.857 6.366 C 13.229 5.967 13.711 5.768 14.303 5.768 C 14.877 5.768 15.346 5.963 15.709 6.354 C 16.073 6.744 16.255 7.294 16.255 8.002 C 16.255 8.045 16.254 8.110 16.251 8.196 L 13.051 8.196 C 13.078 8.668 13.211 9.029 13.451 9.279 C 13.691 9.530 13.990 9.655 14.348 9.655 C 14.614 9.655 14.842 9.585 15.031 9.445 C 15.219 9.305 15.369 9.081 15.479 8.774 Z M 13.091 7.598 L 15.487 7.598 C 15.455 7.237 15.363 6.967 15.212 6.786 C 14.981 6.506 14.680 6.366 14.311 6.366 C 13.977 6.366 13.697 6.478 13.469 6.701 C 13.241 6.925 13.115 7.224 13.091 7.598 Z " stroke-width="1"/>
    <path id="ID0.5605888576246798" fill="#fff" d="M 16.873 8.010 C 16.873 7.216 17.094 6.627 17.536 6.245 C 17.905 5.927 18.355 5.768 18.885 5.768 C 19.475 5.768 19.957 5.961 20.332 6.348 C 20.706 6.734 20.893 7.268 20.893 7.950 C 20.893 8.502 20.811 8.936 20.645 9.253 C 20.479 9.569 20.238 9.815 19.922 9.990 C 19.605 10.165 19.260 10.253 18.885 10.253 C 18.285 10.253 17.799 10.060 17.429 9.675 C 17.058 9.290 16.873 8.735 16.873 8.010 Z M 17.621 8.010 C 17.621 8.560 17.740 8.971 17.980 9.245 C 18.220 9.518 18.522 9.655 18.885 9.655 C 19.246 9.655 19.547 9.518 19.786 9.243 C 20.026 8.968 20.146 8.549 20.146 7.986 C 20.146 7.456 20.025 7.054 19.784 6.780 C 19.543 6.507 19.243 6.370 18.885 6.370 C 18.522 6.370 18.220 6.506 17.980 6.778 C 17.740 7.050 17.621 7.461 17.621 8.010 Z " stroke-width="1"/>
    <path id="ID0.7470528809353709" fill="#fff" d="M 22.538 10.156 L 21.225 5.865 L 21.976 5.865 L 22.659 8.342 L 22.914 9.263 C 22.924 9.217 22.998 8.922 23.136 8.378 L 23.819 5.865 L 24.566 5.865 L 25.209 8.354 L 25.423 9.174 L 25.669 8.346 L 26.405 5.865 L 27.112 5.865 L 25.770 10.156 L 25.015 10.156 L 24.332 7.586 L 24.166 6.855 L 23.297 10.156 L 22.538 10.156 Z " stroke-width="1"/>
  </g>
  <g id="Head">
    <g id="Head_1_">
      <path id="Head_Fill" fill="#FAA51D" stroke="#000000" d="M 40.5948 8.3809 C 40.3812 7.4453 39.3045 7.281 39.3045 7.281 C 39.3045 7.281 39.3301 6.5045 38.9231 5.7795 C 38.6538 5.2996 37.7112 4.6124 37.7112 4.6124 L 37.2971 2.9363 L 36.2188 3.9986 L 35.8046 4.1589 C 35.5813 4.1382 35.12 4.1136 34.8635 4.126 C 34.1772 4.1586 33.5245 4.4214 33.5245 4.4214 L 31.6556 3.1844 L 31.9797 5.9287 C 32.0734 5.8146 30.4482 7.7865 31.4751 9.4435 C 31.9568 10.2213 32.9494 10.9127 33.7388 11.1773 C 34.3283 11.3746 35.3109 11.4293 35.7705 11.4293 C 36.1545 11.4293 36.8978 11.3508 37.2682 11.2873 C 37.7066 11.2119 38.2084 11.0509 38.7274 10.8362 C 40.1056 10.2653 40.8081 9.3165 40.5948 8.3809 Z M 33.8204 4.7173 L 33.5251 4.4214 M 35.84 4.1369 C 36.1303 4.1852 36.4689 4.3351 36.4689 4.3351 " stroke-width="0.14512094855308533"/>
      <path id="Muzzle" fill="#FFFFFF" d="M 39.2443 7.3175 L 38.8262 6.8666 L 37.5037 7.2527 C 37.5037 7.2542 37.503 7.4877 37.2976 7.6784 C 37.2039 7.7655 37.0679 7.8435 36.8698 7.8866 C 36.2355 8.0246 35.2427 7.5562 35.2427 7.5562 L 34.1131 8.0521 C 34.1131 8.0521 33.4247 8.1278 33.0618 8.481 C 32.941 8.5989 32.8562 8.7473 32.8453 8.9343 C 32.7738 10.153 34.105 10.8574 35.0342 11.1984 C 35.2922 11.2931 35.3807 11.3219 35.538 11.3637 C 35.538 11.3637 36.6154 11.3354 37.0155 11.2784 C 37.4555 11.2157 38.1153 11.0233 38.6342 10.8088 C 40.0126 10.238 40.7531 9.3541 40.5395 8.4185 C 40.3256 7.4823 39.2443 7.3175 39.2443 7.3175 Z " stroke-width="0.14512094855308533"/>
    </g>
    <g id="L_Eye">
      <path id="Eyeball_1_" fill="#FFFFFF" stroke="#000000" d="M 35.1072 6.2584 C 35.5318 6.9085 35.4871 7.6896 35.0082 8.002 C 34.5289 8.3153 33.7962 8.0415 33.372 7.3913 C 32.9471 6.7412 32.9912 5.9604 33.4704 5.6474 C 33.9496 5.3345 34.6821 5.6079 35.1072 6.2584 " stroke-width="0.14512094855308533"/>
      <path id="Pupil_1_" d="M 34.8477 7.1128 C 34.8477 7.2697 34.7312 7.3969 34.5863 7.3969 C 34.4424 7.3969 34.3245 7.2694 34.3245 7.1128 C 34.3245 6.9561 34.4424 6.8288 34.5863 6.8288 C 34.7309 6.8288 34.8477 6.9561 34.8477 7.1128 " stroke-width="0.14512094855308533"/>
    </g>
    <g id="R_Eye">
      <path id="Eyeball" fill="#FFFFFF" stroke="#000000" d="M 38.5499 5.8113 C 38.9744 6.4613 39.0263 7.1782 38.6213 7.4429 C 38.216 7.7077 37.5792 7.3627 37.155 6.7123 C 36.7293 6.0622 36.7082 5.3868 37.1135 5.1219 C 37.5179 4.8574 38.1251 5.1608 38.5499 5.8113 " stroke-width="0.14512094855308533"/>
      <path id="Pupil" d="M 38.4772 6.8248 C 38.4772 6.9815 38.3608 7.1086 38.216 7.1086 C 38.0719 7.1086 37.9542 6.9814 37.9542 6.8248 C 37.9542 6.6681 38.0719 6.5406 38.216 6.5406 C 38.3608 6.5406 38.4772 6.6681 38.4772 6.8248 " stroke-width="0.14512094855308533"/>
    </g>
    <path id="Nose" fill="#5E4A42" stroke="#000000" d="M 36.8338 7.609 C 37.1029 7.609 37.495 7.5678 37.5153 7.6916 C 37.5364 7.8157 37.2673 8.3015 37.0818 8.3221 C 36.8958 8.3427 36.193 7.9807 36.183 7.7534 C 36.1722 7.5262 36.5855 7.609 36.8338 7.609 " stroke-width="0.14512094855308533"/>
    <path id="Whisker_3_" d="M 31.3503 8.2568 C 31.347 8.2544 31.0046 8.0014 30.4793 7.7689 C 29.8971 7.5111 29.5704 7.441 29.5673 7.4402 L 29.6029 7.2697 C 29.6167 7.2726 29.9484 7.3432 30.5498 7.6096 C 31.0942 7.8506 31.4398 8.1065 31.4542 8.1172 L 31.3503 8.2568 L 31.3503 8.2568 Z " stroke-width="0.14512094855308533"/>
    <path id="Whisker_2_" d="M 30.4619 8.9319 C 30.1665 8.9319 29.7229 8.8919 29.7017 8.89 L 29.7172 8.7166 C 29.7232 8.7172 30.3105 8.7698 30.5716 8.7552 C 30.8357 8.7401 31.357 8.6713 31.362 8.6706 L 31.3848 8.8431 C 31.3634 8.846 30.8522 8.9134 30.5813 8.9289 C 30.5462 8.9311 30.5055 8.9319 30.4619 8.9319 L 30.4619 8.9319 Z " stroke-width="0.14512094855308533"/>
    <path id="Whisker_1_" d="M 40.0248 8.0933 L 39.9966 7.9213 C 40.0033 7.9203 40.6531 7.8133 40.9778 7.7003 C 41.3512 7.5706 41.6056 7.3498 41.6083 7.3477 L 41.7231 7.4786 C 41.7118 7.4884 41.4404 7.724 41.0349 7.8647 C 40.6962 7.9828 40.0519 8.0888 40.0248 8.0933 L 40.0248 8.0933 Z " stroke-width="0.14512094855308533"/>
    <path id="Whisker" d="M 41.3348 9.1823 C 41.2169 9.1823 41.0583 9.1772 40.872 9.1586 C 40.4572 9.1171 40.0616 8.9585 40.0449 8.9517 L 40.1102 8.7903 C 40.1141 8.7919 40.5 8.9463 40.8892 8.9853 C 41.277 9.0241 41.5449 9.0015 41.5474 9.0013 L 41.5625 9.1747 C 41.5562 9.1753 41.4736 9.1823 41.3348 9.1823 L 41.3348 9.1823 Z " stroke-width="0.14512094855308533"/>
    <path id="Mouth" fill="none" stroke="#231F20" stroke-width="0.1741451382637024" d="M 34.9486 8.6697 C 34.9486 8.6697 36.4501 9.1129 37.0118 9.2351 C 37.5729 9.3573 38.5865 9.4795 38.5865 9.4795 C 38.5865 9.4795 37.4271 10.9662 36.0719 10.5889 C 34.7167 10.2121 34.741 9.3576 34.9486 8.6697 Z "/>
  </g>
</svg>