<svg version="1.1" width="17.433698688327034" height="20.85719874936219" viewBox="-0.7031994036727948 -0.6035994015031857 17.433698688327034 20.85719874936219" xmlns="http://www.w3.org/2000/svg" xmlns:xlink="http://www.w3.org/1999/xlink">
  <!-- Exported by Scratch - http://scratch.mit.edu/ -->
  <g id="ID0.9900351017713547">
    <g id="Body">
      <path id="ID0.5951974629424512" fill="rgb(55,162,0)" d="M 16 5.05 C 16 2.8427 14.2074 1.05 12 1.05 L 4 1.05 C 1.7927 1.05 0 2.8427 0 5.05 L 0 13.05 C 0 15.2574 1.7927 17.05 4 17.05 L 12 17.05 C 14.2074 17.05 16 15.2574 16 13.05 L 16 5.05 Z " stroke-width="0.6666669845581055"/>
    </g>
    <path id="ID0.46169687528163195" fill="rgb(54,169,35)" d="M 0.14 4.1004 L 0.3031 3.5736 L 0.8208 2.8062 L 1.2828 2.8062 L 1.2828 4.1004 L 0.14 4.1004 Z " stroke-width="1.294119954109192"/>
    <g id="ID0.028900274075567722">
      <path id="ID0.3380587943829596" fill="rgb(144,194,136)" d="M 0.8708 2.7504 L 1.2111 2.2456 L 1.3328 2.1641 L 1.3328 2.7504 L 0.8708 2.7504 Z " stroke-width="1.294119954109192"/>
    </g>
    <g id="ID0.9977950705215335">
      <path id="ID0.9371425528079271" fill="rgb(54,169,35)" d="M 2.3882 1.4504 L 2.4878 1.3831 L 2.6328 1.3378 L 2.6328 1.4504 L 2.3882 1.4504 Z " stroke-width="1.294119954109192"/>
    </g>
    <g id="ID0.023274577222764492">
      <path id="ID0.9385107760317624" fill="rgb(52,130,40)" d="M 3.9328 1.0802 L 3.9328 1.4504 L 2.6386 1.4504 L 2.6386 1.3378 L 3.2443 1.1488 L 3.9328 1.0802 Z " stroke-width="1.294119954109192"/>
    </g>
    <g id="ID0.41346107656136155">
      <path id="ID0.27657649107277393" fill="rgb(68,152,54)" d="M 2.6386 1.4562 L 3.9328 1.4562 L 3.9328 2.7504 L 2.6386 2.7504 L 2.6386 1.4562 Z " stroke-width="1.294119954109192"/>
    </g>
    <g id="ID0.2039507064037025">
      <path id="ID0.7549958303570747" fill="rgb(39,135,24)" d="M 0.19 4.0562 L 1.3328 4.0562 L 1.3328 5.3504 L 0.0386 5.3504 L 0.0386 5.0851 L 0.1202 4.2801 L 0.19 4.0562 Z " stroke-width="1.294119954109192"/>
    </g>
    <g id="ID0.672972499858588">
      <path id="ID0.13641398679465055" fill="rgb(39,135,24)" d="M 2.3882 1.4562 L 2.6328 1.4562 L 2.6328 2.7504 L 1.3386 2.7504 L 1.3386 2.1641 L 2.3882 1.4562 Z " stroke-width="1.294119954109192"/>
    </g>
    <g id="ID0.5669743297621608">
      <path id="ID0.10845072194933891" fill="rgb(119,207,105)" d="M 0.0386 5.3562 L 1.3328 5.3562 L 1.3328 6.6504 L 0.0386 6.6504 L 0.0386 5.3562 Z " stroke-width="1.294119954109192"/>
    </g>
    <g id="ID0.7291292725130916">
      <path id="ID0.4151932862587273" fill="rgb(40,123,27)" d="M 1.3386 2.7562 L 2.6328 2.7562 L 2.6328 4.0504 L 1.3386 4.0504 L 1.3386 2.7562 Z " stroke-width="1.294119954109192"/>
    </g>
    <g id="ID0.3479442894458771">
      <path id="ID0.37187069188803434" fill="rgb(56,122,46)" d="M 0.0386 6.6562 L 1.3328 6.6562 L 1.3328 7.9504 L 0.0386 7.9504 L 0.0386 6.6562 Z " stroke-width="1.294119954109192"/>
    </g>
    <g id="ID0.7860629358328879">
      <path id="ID0.18033233331516385" fill="rgb(44,152,27)" d="M 2.6386 10.5062 L 3.9328 10.5062 L 3.9328 11.8004 L 2.6386 11.8004 L 2.6386 10.5062 Z " stroke-width="1.294119954109192"/>
    </g>
    <g id="ID0.4705513506196439">
      <path id="ID0.5512711834162474" fill="rgb(134,194,124)" d="M 1.3386 4.0562 L 2.6328 4.0562 L 2.6328 5.3504 L 1.3386 5.3504 L 1.3386 4.0562 Z " stroke-width="1.294119954109192"/>
    </g>
    <g id="ID0.4328335844911635">
      <path id="ID0.3810440809465945" fill="rgb(36,143,19)" d="M 0.0386 7.9062 L 1.3328 7.9062 L 1.3328 9.2004 L 0.0386 9.2004 L 0.0386 7.9062 Z " stroke-width="1.294119954109192"/>
    </g>
    <g id="ID0.4011016506701708">
      <path id="ID0.06225206982344389" fill="rgb(36,143,19)" d="M 1.3386 5.3562 L 2.6328 5.3562 L 2.6328 6.6504 L 1.3386 6.6504 L 1.3386 5.3562 Z " stroke-width="1.294119954109192"/>
    </g>
    <g id="ID0.002433803863823414">
      <path id="ID0.9288561926223338" fill="rgb(39,135,24)" d="M 3.8886 4.0562 L 5.1828 4.0562 L 5.1828 5.3504 L 3.8886 5.3504 L 3.8886 4.0562 Z " stroke-width="1.294119954109192"/>
    </g>
    <g id="ID0.3465222711674869">
      <path id="ID0.6961501692421734" fill="rgb(39,135,24)" d="M 6.4614 11.8062 L 5.1672 11.8062 L 5.1672 13.1004 L 6.4614 13.1004 L 6.4614 11.8062 Z " stroke-width="1.294119954109192"/>
    </g>
    <g id="ID0.9390719993971288">
      <path id="ID0.3514735004864633" fill="rgb(76,141,66)" d="M 6.4614 17.0062 L 5.1672 17.0062 L 5.1672 17.0942 L 6.4614 17.0942 L 6.4614 17.0062 Z " stroke-width="1.294119954109192"/>
    </g>
    <g id="ID0.5347532196901739">
      <path id="ID0.5890972511842847" fill="rgb(39,135,24)" d="M 3.8886 14.4062 L 5.1828 14.4062 L 5.1828 15.7004 L 3.8886 15.7004 L 3.8886 14.4062 Z " stroke-width="1.294119954109192"/>
    </g>
    <g id="ID0.7994929547421634">
      <path id="ID0.15040775761008263" fill="rgb(114,168,106)" d="M 3.8886 15.7062 L 5.1828 15.7062 L 5.1828 17.0004 L 3.8886 17.0004 L 3.8886 15.7062 Z " stroke-width="1.294119954109192"/>
    </g>
    <g id="ID0.2809205176308751">
      <path id="ID0.49169085873290896" fill="rgb(39,135,24)" d="M 3.8886 9.2062 L 5.1828 9.2062 L 5.1828 10.5004 L 3.8886 10.5004 L 3.8886 9.2062 Z " stroke-width="1.294119954109192"/>
    </g>
    <g id="ID0.12964540487155318">
      <path id="ID0.9651208692230284" fill="rgb(68,169,52)" d="M 3.8886 10.5062 L 5.1828 10.5062 L 5.1828 11.8004 L 3.8886 11.8004 L 3.8886 10.5062 Z " stroke-width="1.294119954109192"/>
    </g>
    <g id="ID0.686911532189697">
      <path id="ID0.06826691282913089" fill="rgb(53,107,45)" d="M 5.1886 9.2062 L 6.4828 9.2062 L 6.4828 10.5004 L 5.1886 10.5004 L 5.1886 9.2062 Z " stroke-width="1.294119954109192"/>
    </g>
    <g id="ID0.3124962388537824">
      <path id="ID0.5265401410870254" fill="rgb(22,76,13)" d="M 6.4886 10.5062 L 7.7828 10.5062 L 7.7828 11.8004 L 6.4886 11.8004 L 6.4886 10.5062 Z " stroke-width="1.294119954109192"/>
    </g>
    <g id="ID0.6386896194890141">
      <path id="ID0.5413796133361757" fill="rgb(133,198,123)" d="M 6.4886 9.2062 L 7.7828 9.2062 L 7.7828 10.5004 L 6.4886 10.5004 L 6.4886 9.2062 Z " stroke-width="1.294119954109192"/>
    </g>
    <g id="ID0.3219315120950341">
      <path id="ID0.36360328923910856" fill="rgb(121,215,107)" d="M 6.4886 6.6562 L 7.7828 6.6562 L 7.7828 7.9504 L 6.4886 7.9504 L 6.4886 6.6562 Z " stroke-width="1.294119954109192"/>
    </g>
    <g id="ID0.41592375468462706">
      <path id="ID0.1574874077923596" fill="rgb(44,90,37)" d="M 6.4886 5.3562 L 7.7828 5.3562 L 7.7828 6.6504 L 6.4886 6.6504 L 6.4886 5.3562 Z " stroke-width="1.294119954109192"/>
    </g>
    <g id="ID0.5419824277050793">
      <path id="ID0.17020221566781402" fill="rgb(81,155,69)" d="M 6.4886 7.9062 L 7.7828 7.9062 L 7.7828 9.2004 L 6.4886 9.2004 L 6.4886 7.9062 Z " stroke-width="1.294119954109192"/>
    </g>
    <g id="ID0.8564392379485071">
      <path id="ID0.9961734768003225" fill="rgb(36,143,19)" d="M 5.1886 10.5062 L 6.4828 10.5062 L 6.4828 11.8004 L 5.1886 11.8004 L 5.1886 10.5062 Z " stroke-width="1.294119954109192"/>
    </g>
    <g id="ID0.7523443317040801">
      <path id="ID0.751699092797935" fill="rgb(134,194,124)" d="M 5.1886 14.4062 L 6.4828 14.4062 L 6.4828 15.7004 L 5.1886 15.7004 L 5.1886 14.4062 Z " stroke-width="1.294119954109192"/>
    </g>
    <g id="ID0.27429488580673933">
      <path id="ID0.5381614551879466" fill="rgb(134,194,124)" d="M 9.0886 19.5504 L 9.0886 18.2562 L 9.0886 19.5504 Z " stroke-width="1.294119954109192"/>
    </g>
    <g id="ID0.3976207384839654">
      <path id="ID0.21023772098124027" fill="rgb(36,143,19)" d="M 5.1886 15.7062 L 6.4828 15.7062 L 6.4828 17.0004 L 5.1886 17.0004 L 5.1886 15.7062 Z " stroke-width="1.294119954109192"/>
    </g>
    <g id="ID0.2781562265008688">
      <path id="ID0.45266016805544496" fill="rgb(68,169,52)" d="M 3.8886 5.3562 L 5.1828 5.3562 L 5.1828 6.6504 L 3.8886 6.6504 L 3.8886 5.3562 Z " stroke-width="1.294119954109192"/>
    </g>
    <g id="ID0.8898538202047348">
      <path id="ID0.07550614047795534" fill="rgb(68,169,52)" d="M 6.4614 13.1062 L 5.1672 13.1062 L 5.1672 14.4004 L 6.4614 14.4004 L 6.4614 13.1062 Z " stroke-width="1.294119954109192"/>
    </g>
    <g id="ID0.2213824582286179">
      <path id="ID0.6548191490583122" fill="rgb(68,169,52)" d="M 6.4614 19.5504 L 6.4614 18.2562 L 6.4614 19.5504 Z " stroke-width="1.294119954109192"/>
    </g>
    <g id="ID0.21079137781634927">
      <path id="ID0.446077068336308" fill="rgb(134,194,124)" d="M 5.1886 4.0562 L 6.4828 4.0562 L 6.4828 5.3504 L 5.1886 5.3504 L 5.1886 4.0562 Z " stroke-width="1.294119954109192"/>
    </g>
    <g id="ID0.8063499443233013">
      <path id="ID0.18852248508483171" fill="rgb(134,194,124)" d="M 5.1614 11.8062 L 3.8672 11.8062 L 3.8672 13.1004 L 5.1614 13.1004 L 5.1614 11.8062 Z " stroke-width="1.294119954109192"/>
    </g>
    <g id="ID0.9680258161388338">
      <path id="ID0.5429443884640932" fill="rgb(134,194,124)" d="M 3.985 17.0942 L 3.8672 17.0826 L 3.8672 17.0062 L 5.1614 17.0062 L 5.1614 17.0942 L 3.985 17.0942 Z " stroke-width="1.294119954109192"/>
    </g>
    <g id="ID0.4537024865858257">
      <path id="ID0.9950382295064628" fill="rgb(48,115,38)" d="M 5.1886 5.3562 L 6.4828 5.3562 L 6.4828 6.6504 L 5.1886 6.6504 L 5.1886 5.3562 Z " stroke-width="1.294119954109192"/>
    </g>
    <g id="ID0.31130427680909634">
      <path id="ID0.531790163833648" fill="rgb(36,143,19)" d="M 5.1614 13.1062 L 3.8672 13.1062 L 3.8672 14.4004 L 5.1614 14.4004 L 5.1614 13.1062 Z " stroke-width="1.294119954109192"/>
    </g>
    <g id="ID0.7480526468716562">
      <path id="ID0.0641298652626574" fill="rgb(127,179,119)" d="M 0.0386 9.2062 L 1.3328 9.2062 L 1.3328 10.5004 L 0.0386 10.5004 L 0.0386 9.2062 Z " stroke-width="1.294119954109192"/>
    </g>
    <g id="ID0.6305734114721417">
      <path id="ID0.49699599482119083" fill="rgb(127,179,119)" d="M 2.6386 2.7562 L 3.9328 2.7562 L 3.9328 4.0504 L 2.6386 4.0504 L 2.6386 2.7562 Z " stroke-width="1.294119954109192"/>
    </g>
    <g id="ID0.07832840364426374">
      <path id="ID0.4665968818590045" fill="rgb(57,162,41)" d="M 1.3386 6.6562 L 2.6328 6.6562 L 2.6328 7.9504 L 1.3386 7.9504 L 1.3386 6.6562 Z " stroke-width="1.294119954109192"/>
    </g>
    <g id="ID0.5273991478607059">
      <path id="ID0.9544901768676937" fill="rgb(62,158,47)" d="M 0.0386 10.5062 L 1.3328 10.5062 L 1.3328 11.8004 L 0.0386 11.8004 L 0.0386 10.5062 Z " stroke-width="1.294119954109192"/>
    </g>
    <g id="ID0.7996339225210249">
      <path id="ID0.044939089100807905" fill="rgb(62,158,47)" d="M 3.9328 17.0826 L 3.2443 17.0127 L 3.2223 17.0062 L 3.9328 17.0062 L 3.9328 17.0826 Z " stroke-width="1.294119954109192"/>
    </g>
    <g id="ID0.7574214157648385">
      <path id="ID0.7006202805787325" fill="rgb(161,207,154)" d="M 1.3386 7.9062 L 2.6328 7.9062 L 2.6328 9.2004 L 1.3386 9.2004 L 1.3386 7.9062 Z " stroke-width="1.294119954109192"/>
    </g>
    <g id="ID0.34777670772746205">
      <path id="ID0.03916741628199816" fill="rgb(46,126,34)" d="M 0.0386 13.1004 L 0.0386 13.0706 L 0.0412 13.1004 L 0.0386 13.1004 Z " stroke-width="1.294119954109192"/>
    </g>
    <g id="ID0.8442172724753618">
      <path id="ID0.20314828725531697" fill="rgb(46,126,34)" d="M 0.0412 13.1004 L 0.0386 13.0706 L 0.0386 11.8062 L 1.3328 11.8062 L 1.3328 13.1004 L 0.0412 13.1004 Z " stroke-width="1.294119954109192"/>
    </g>
    <g id="ID0.8035327983088791">
      <path id="ID0.8948281337507069" fill="rgb(46,126,34)" d="M 1.3386 9.2062 L 2.6328 9.2062 L 2.6328 10.5004 L 1.3386 10.5004 L 1.3386 9.2062 Z " stroke-width="1.294119954109192"/>
    </g>
    <g id="ID0.5028959587216377">
      <path id="ID0.5023566004820168" fill="rgb(46,126,34)" d="M 2.6386 6.6562 L 3.9328 6.6562 L 3.9328 7.9504 L 2.6386 7.9504 L 2.6386 6.6562 Z " stroke-width="1.294119954109192"/>
    </g>
    <g id="ID0.8258661800064147">
      <path id="ID0.019214050378650427" fill="rgb(46,126,34)" d="M 3.8886 6.6562 L 5.1828 6.6562 L 5.1828 7.9504 L 3.8886 7.9504 L 3.8886 6.6562 Z " stroke-width="1.294119954109192"/>
    </g>
    <g id="ID0.2517772614955902">
      <path id="ID0.6082948776893318" fill="rgb(124,186,115)" d="M 9.0886 5.3562 L 10.3828 5.3562 L 10.3828 6.6504 L 9.0886 6.6504 L 9.0886 5.3562 Z " stroke-width="1.294119954109192"/>
    </g>
    <g id="ID0.11410058289766312">
      <path id="ID0.8557022898457944" fill="rgb(77,147,66)" d="M 7.7886 5.3562 L 9.0828 5.3562 L 9.0828 6.6504 L 7.7886 6.6504 L 7.7886 5.3562 Z " stroke-width="1.294119954109192"/>
    </g>
    <g id="ID0.7339604585431516">
      <path id="ID0.9639453929848969" fill="rgb(79,172,64)" d="M 7.7886 6.6562 L 9.0828 6.6562 L 9.0828 7.9504 L 7.7886 7.9504 L 7.7886 6.6562 Z " stroke-width="1.294119954109192"/>
    </g>
    <g id="ID0.8068554755300283">
      <path id="ID0.8978514182381332" fill="rgb(34,166,13)" d="M 7.7886 7.9062 L 9.0828 7.9062 L 9.0828 9.2004 L 7.7886 9.2004 L 7.7886 7.9062 Z " stroke-width="1.294119954109192"/>
    </g>
    <g id="ID0.10927423648536205">
      <path id="ID0.32502172142267227" fill="rgb(105,168,95)" d="M 9.0886 6.6562 L 10.3828 6.6562 L 10.3828 7.9504 L 9.0886 7.9504 L 9.0886 6.6562 Z " stroke-width="1.294119954109192"/>
    </g>
    <g id="ID0.16938042268157005">
      <path id="ID0.3286821246147156" fill="rgb(44,87,37)" d="M 9.0886 7.9062 L 10.3828 7.9062 L 10.3828 9.2004 L 9.0886 9.2004 L 9.0886 7.9062 Z " stroke-width="1.294119954109192"/>
    </g>
    <g id="ID0.553167536854744">
      <path id="ID0.8124011009931564" fill="rgb(44,87,37)" d="M 9.0886 9.2004 L 9.0886 7.9062 L 9.0886 9.2004 Z " stroke-width="1.294119954109192"/>
    </g>
    <g id="ID0.13551940023899078">
      <path id="ID0.29935609735548496" fill="rgb(56,118,46)" d="M 7.7886 9.2062 L 9.0828 9.2062 L 9.0828 10.5004 L 7.7886 10.5004 L 7.7886 9.2062 Z " stroke-width="1.294119954109192"/>
    </g>
    <g id="ID0.9582185433246195">
      <path id="ID0.6536397724412382" fill="rgb(56,118,46)" d="M 7.7886 10.5004 L 7.7886 9.2062 L 7.7886 10.5004 Z " stroke-width="1.294119954109192"/>
    </g>
    <g id="ID0.5041116625070572">
      <path id="ID0.43335154792293906" fill="rgb(159,190,154)" d="M 9.0886 9.2062 L 10.3828 9.2062 L 10.3828 10.5004 L 9.0886 10.5004 L 9.0886 9.2062 Z " stroke-width="1.294119954109192"/>
    </g>
    <g id="ID0.1366129252128303">
      <path id="ID0.9317014459520578" fill="rgb(106,218,89)" d="M 7.7886 10.5062 L 9.0828 10.5062 L 9.0828 11.8004 L 7.7886 11.8004 L 7.7886 10.5062 Z " stroke-width="1.294119954109192"/>
    </g>
    <g id="ID0.10455995565280318">
      <path id="ID0.028081413358449936" fill="rgb(106,218,89)" d="M 7.7886 11.8004 L 7.7886 10.5062 L 7.7886 11.8004 Z " stroke-width="1.294119954109192"/>
    </g>
    <g id="ID0.01578654209151864">
      <path id="ID0.1303213150240481" fill="rgb(60,108,52)" d="M 7.7886 11.8062 L 9.0828 11.8062 L 9.0828 13.1004 L 7.7886 13.1004 L 7.7886 11.8062 Z " stroke-width="1.294119954109192"/>
    </g>
    <g id="ID0.2333649815991521">
      <path id="ID0.3943107551895082" fill="rgb(18,106,4)" d="M 9.0886 10.5062 L 10.3828 10.5062 L 10.3828 11.8004 L 9.0886 11.8004 L 9.0886 10.5062 Z " stroke-width="1.294119954109192"/>
    </g>
    <g id="ID0.8680534749291837">
      <path id="ID0.7338303872384131" fill="rgb(40,89,32)" d="M 9.0886 11.8062 L 10.3828 11.8062 L 10.3828 13.1004 L 9.0886 13.1004 L 9.0886 11.8062 Z " stroke-width="1.294119954109192"/>
    </g>
    <g id="ID0.25394278625026345">
      <path id="ID0.8725483017042279" fill="rgb(159,227,148)" d="M 3.8886 7.9062 L 5.1828 7.9062 L 5.1828 9.2004 L 3.8886 9.2004 L 3.8886 7.9062 Z " stroke-width="1.294119954109192"/>
    </g>
    <g id="ID0.2698436761274934">
      <path id="ID0.7271730885840952" fill="rgb(132,220,118)" d="M 2.6386 4.0562 L 3.9328 4.0562 L 3.9328 5.3504 L 2.6386 5.3504 L 2.6386 4.0562 Z " stroke-width="1.294119954109192"/>
    </g>
    <g id="ID0.700790936127305">
      <path id="ID0.03362817922607064" fill="rgb(143,192,135)" d="M 0.2806 14.4004 L 0.1202 13.8827 L 0.0412 13.1062 L 1.3328 13.1062 L 1.3328 14.4004 L 0.2806 14.4004 Z " stroke-width="1.294119954109192"/>
    </g>
    <g id="ID0.7048189714550972">
      <path id="ID0.22905689990147948" fill="rgb(143,192,135)" d="M 2.6386 5.3562 L 3.9328 5.3562 L 3.9328 6.6504 L 2.6386 6.6504 L 2.6386 5.3562 Z " stroke-width="1.294119954109192"/>
    </g>
    <g id="ID0.21923872409388423">
      <path id="ID0.6765405931510031" fill="rgb(71,174,55)" d="M 1.3386 10.5062 L 2.6328 10.5062 L 2.6328 11.8004 L 1.3386 11.8004 L 1.3386 10.5062 Z " stroke-width="1.294119954109192"/>
    </g>
    <g id="ID0.7718922891654074">
      <path id="ID0.05250398814678192" fill="rgb(71,174,55)" d="M 2.6386 14.4062 L 3.9328 14.4062 L 3.9328 15.7004 L 2.6386 15.7004 L 2.6386 14.4062 Z " stroke-width="1.294119954109192"/>
    </g>
    <g id="ID0.005393377970904112">
      <path id="ID0.12250284850597382" fill="rgb(71,174,55)" d="M 2.6386 9.2062 L 3.9328 9.2062 L 3.9328 10.5004 L 2.6386 10.5004 L 2.6386 9.2062 Z " stroke-width="1.294119954109192"/>
    </g>
    <g id="ID0.6410656967200339">
      <path id="ID0.5658139297738671" fill="rgb(52,158,36)" d="M 1.0688 15.7004 L 0.3531 14.6392 L 0.2806 14.4062 L 1.3328 14.4062 L 1.3328 15.7004 L 1.0688 15.7004 Z " stroke-width="1.294119954109192"/>
    </g>
    <g id="ID0.3690134845674038">
      <path id="ID0.5034940354526043" fill="rgb(59,103,52)" d="M 2.6386 11.8062 L 3.9328 11.8062 L 3.9328 13.1004 L 2.6386 13.1004 L 2.6386 11.8062 Z " stroke-width="1.294119954109192"/>
    </g>
    <g id="ID0.36573923099786043">
      <path id="ID0.346231228671968" fill="rgb(59,103,52)" d="M 3.2223 17.0004 L 2.6386 16.8192 L 2.6386 15.7062 L 3.9328 15.7062 L 3.9328 17.0004 L 3.2223 17.0004 Z " stroke-width="1.294119954109192"/>
    </g>
    <g id="ID0.5155272698029876">
      <path id="ID0.4589099674485624" fill="rgb(79,167,65)" d="M 1.3386 13.1062 L 2.6328 13.1062 L 2.6328 14.4004 L 1.3386 14.4004 L 1.3386 13.1062 Z " stroke-width="1.294119954109192"/>
    </g>
    <g id="ID0.8309225104749203">
      <path id="ID0.06819947995245457" fill="rgb(146,195,138)" d="M 2.6386 13.1062 L 3.9328 13.1062 L 3.9328 14.4004 L 2.6386 14.4004 L 2.6386 13.1062 Z " stroke-width="1.294119954109192"/>
    </g>
    <g id="ID0.590442271437496">
      <path id="ID0.2854505064897239" fill="rgb(18,133,0)" d="M 1.3386 14.4062 L 2.6328 14.4062 L 2.6328 15.7004 L 1.3386 15.7004 L 1.3386 14.4062 Z " stroke-width="1.294119954109192"/>
    </g>
    <g id="ID0.3128349967300892">
      <path id="ID0.005452601704746485" fill="rgb(92,186,78)" d="M 1.3328 15.9987 L 1.2111 15.9159 L 1.0688 15.7062 L 1.3328 15.7062 L 1.3328 15.9987 Z " stroke-width="1.294119954109192"/>
    </g>
    <g id="ID0.9830686338245869">
      <path id="ID0.45595652889460325" fill="rgb(167,219,159)" d="M 2.6328 16.8192 L 2.4878 16.7739 L 1.3386 15.9987 L 1.3386 15.7062 L 2.6328 15.7062 L 2.6328 16.8192 Z " stroke-width="1.294119954109192"/>
    </g>
    <g id="ID0.749662549700588">
      <path id="ID0.0810440662316978" fill="rgb(79,167,65)" d="M 2.6386 7.9062 L 3.9328 7.9062 L 3.9328 9.2004 L 2.6386 9.2004 L 2.6386 7.9062 Z " stroke-width="1.294119954109192"/>
    </g>
    <g id="ID0.3142497860826552">
      <path id="ID0.9282101686112583" fill="rgb(79,167,65)" d="M 5.1886 6.6562 L 6.4828 6.6562 L 6.4828 7.9504 L 5.1886 7.9504 L 5.1886 6.6562 Z " stroke-width="1.294119954109192"/>
    </g>
    <g id="ID0.24060316570103168">
      <path id="ID0.14899494219571352" fill="rgb(32,112,19)" d="M 5.1886 7.9062 L 6.4828 7.9062 L 6.4828 9.2004 L 5.1886 9.2004 L 5.1886 7.9062 Z " stroke-width="1.294119954109192"/>
    </g>
    <g id="ID0.10067877965047956">
      <path id="ID0.14403316425159574" fill="rgb(88,164,76)" d="M 6.4886 14.4062 L 7.7828 14.4062 L 7.7828 15.7004 L 6.4886 15.7004 L 6.4886 14.4062 Z " stroke-width="1.294119954109192"/>
    </g>
    <g id="ID0.1055861497297883">
      <path id="ID0.6469925539568067" fill="rgb(52,158,36)" d="M 1.3386 11.8062 L 2.6328 11.8062 L 2.6328 13.1004 L 1.3386 13.1004 L 1.3386 11.8062 Z " stroke-width="1.294119954109192"/>
    </g>
    <g id="ID0.6923397053033113">
      <path id="ID0.49879194935783744" fill="rgb(39,135,24)" d="M 3.9062 2.7114 L 3.9062 1.4172 L 5.2004 1.4172 L 5.2004 2.7114 L 3.9062 2.7114 Z " stroke-width="1.294119954109192"/>
    </g>
    <g id="ID0.4355390965938568">
      <path id="ID0.49907834036275744" fill="rgb(164,226,154)" d="M 3.9062 4.0114 L 3.9062 2.7172 L 5.2004 2.7172 L 5.2004 4.0114 L 3.9062 4.0114 Z " stroke-width="1.294119954109192"/>
    </g>
    <g id="ID0.933593587949872">
      <path id="ID0.8711543171666563" fill="rgb(68,169,52)" d="M 5.2062 2.7114 L 5.2062 1.4172 L 6.5004 1.4172 L 6.5004 2.7114 L 5.2062 2.7114 Z " stroke-width="1.294119954109192"/>
    </g>
    <g id="ID0.9147446304559708">
      <path id="ID0.37850335240364075" fill="rgb(31,103,19)" d="M 5.2062 4.0114 L 5.2062 2.7172 L 6.5004 2.7172 L 6.5004 4.0114 L 5.2062 4.0114 Z " stroke-width="1.294119954109192"/>
    </g>
    <g id="ID0.00575610576197505">
      <path id="ID0.30621812772005796" fill="rgb(31,103,19)" d="M 5.2062 4.0114 L 5.2062 2.7172 L 5.2062 4.0114 Z " stroke-width="1.294119954109192"/>
    </g>
    <g id="ID0.6311984211206436">
      <path id="ID0.1809271378442645" fill="rgb(134,194,124)" d="M 5.2004 1.0296 L 5.2004 1.4114 L 3.9062 1.4114 L 3.9062 1.0412 L 4.024 1.0296 L 5.2004 1.0296 Z " stroke-width="1.294119954109192"/>
    </g>
    <g id="ID0.004651445895433426">
      <path id="ID0.2635739012621343" fill="rgb(134,194,124)" d="M 5.2004 0.1172 L 3.9062 0.1172 L 5.2004 0.1172 Z " stroke-width="1.294119954109192"/>
    </g>
    <g id="ID0.48914872016757727">
      <path id="ID0.31297272350639105" fill="rgb(176,220,169)" d="M 5.2062 1.4114 L 5.2062 1.0296 L 6.5004 1.0296 L 6.5004 1.4114 L 5.2062 1.4114 Z " stroke-width="1.294119954109192"/>
    </g>
    <g id="ID0.23428772808983922">
      <path id="ID0.9756669304333627" fill="rgb(176,220,169)" d="M 5.2062 1.0296 L 5.2062 0.1172 L 5.2062 1.0296 Z " stroke-width="1.294119954109192"/>
    </g>
    <g id="ID0.8329075309447944">
      <path id="ID0.3916109371930361" fill="rgb(176,220,169)" d="M 5.2062 1.4114 L 5.2062 1.0296 L 5.2062 1.4114 Z " stroke-width="1.294119954109192"/>
    </g>
    <g id="ID0.6038384451530874">
      <path id="ID0.020810268353670835" fill="rgb(54,169,35)" d="M 10.3886 4.0562 L 11.6828 4.0562 L 11.6828 5.3504 L 10.3886 5.3504 L 10.3886 4.0562 Z " stroke-width="1.294119954109192"/>
    </g>
    <g id="ID0.958743030205369">
      <path id="ID0.5122039159759879" fill="rgb(52,130,39)" d="M 10.3886 1.4562 L 11.6828 1.4562 L 11.6828 2.7504 L 10.3886 2.7504 L 10.3886 1.4562 Z " stroke-width="1.294119954109192"/>
    </g>
    <g id="ID0.3842233666218817">
      <path id="ID0.8775169365108013" fill="rgb(41,158,22)" d="M 12.9828 1.1915 L 12.9828 1.4504 L 11.6886 1.4504 L 11.6886 1.0686 L 12.0419 1.0686 C 12.3693 1.0686 12.6877 1.1074 12.9828 1.1915 Z " stroke-width="1.294119954109192"/>
    </g>
    <g id="ID0.8955069445073605">
      <path id="ID0.3615310676395893" fill="rgb(118,166,111)" d="M 10.3886 1.0686 L 11.6828 1.0686 L 11.6828 1.4504 L 10.3886 1.4504 L 10.3886 1.0686 Z " stroke-width="1.294119954109192"/>
    </g>
    <g id="ID0.7754467073827982">
      <path id="ID0.32071877224370837" fill="rgb(144,194,136)" d="M 10.3886 2.7562 L 11.6828 2.7562 L 11.6828 4.0504 L 10.3886 4.0504 L 10.3886 2.7562 Z " stroke-width="1.294119954109192"/>
    </g>
    <g id="ID0.9172350373119116">
      <path id="ID0.9625652777031064" fill="rgb(54,169,35)" d="M 11.6886 1.4562 L 12.9828 1.4562 L 12.9828 2.7504 L 11.6886 2.7504 L 11.6886 1.4562 Z " stroke-width="1.294119954109192"/>
    </g>
    <g id="ID0.38552075112238526">
      <path id="ID0.17535757552832365" fill="rgb(141,228,127)" d="M 12.9886 1.4504 L 12.9886 1.1915 L 13.6033 1.3831 L 13.7043 1.4504 L 12.9886 1.4504 Z " stroke-width="1.294119954109192"/>
    </g>
    <g id="ID0.38165203388780355">
      <path id="ID0.7864724681712687" fill="rgb(52,130,40)" d="M 14.2828 1.8458 L 14.2828 2.7504 L 12.9886 2.7504 L 12.9886 1.4562 L 13.7043 1.4562 L 14.2828 1.8458 Z " stroke-width="1.294119954109192"/>
    </g>
    <g id="ID0.9523514481261373">
      <path id="ID0.1959926555864513" fill="rgb(68,152,54)" d="M 12.9886 2.7562 L 14.2828 2.7562 L 14.2828 4.0504 L 12.9886 4.0504 L 12.9886 2.7562 Z " stroke-width="1.294119954109192"/>
    </g>
    <g id="ID0.5244020344689488">
      <path id="ID0.5503156771883368" fill="rgb(39,135,24)" d="M 10.3886 5.3562 L 11.6828 5.3562 L 11.6828 6.6504 L 10.3886 6.6504 L 10.3886 5.3562 Z " stroke-width="1.294119954109192"/>
    </g>
    <g id="ID0.8770645260810852">
      <path id="ID0.06822732649743557" fill="rgb(39,135,24)" d="M 11.6886 2.7562 L 12.9828 2.7562 L 12.9828 4.0504 L 11.6886 4.0504 L 11.6886 2.7562 Z " stroke-width="1.294119954109192"/>
    </g>
    <g id="ID0.30819019861519337">
      <path id="ID0.42220811918377876" fill="rgb(119,207,105)" d="M 10.3886 6.6562 L 11.6828 6.6562 L 11.6828 7.9504 L 10.3886 7.9504 L 10.3886 6.6562 Z " stroke-width="1.294119954109192"/>
    </g>
    <g id="ID0.5168558531440794">
      <path id="ID0.594081633258611" fill="rgb(119,207,105)" d="M 10.3886 7.9504 L 10.3886 6.6562 L 10.3886 7.9504 Z " stroke-width="1.294119954109192"/>
    </g>
    <g id="ID0.5101841068826616">
      <path id="ID0.9320767833851278" fill="rgb(40,123,27)" d="M 11.6886 4.0562 L 12.9828 4.0562 L 12.9828 5.3504 L 11.6886 5.3504 L 11.6886 4.0562 Z " stroke-width="1.294119954109192"/>
    </g>
    <g id="ID0.7286841841414571">
      <path id="ID0.36012108717113733" fill="rgb(56,122,46)" d="M 10.3886 7.9062 L 11.6828 7.9062 L 11.6828 9.2004 L 10.3886 9.2004 L 10.3886 7.9062 Z " stroke-width="1.294119954109192"/>
    </g>
    <g id="ID0.3326518973335624">
      <path id="ID0.8157096514478326" fill="rgb(44,152,27)" d="M 12.9886 11.8062 L 14.2828 11.8062 L 14.2828 13.1004 L 12.9886 13.1004 L 12.9886 11.8062 Z " stroke-width="1.294119954109192"/>
    </g>
    <g id="ID0.6424394636414945">
      <path id="ID0.456946081481874" fill="rgb(134,194,124)" d="M 11.6886 5.3562 L 12.9828 5.3562 L 12.9828 6.6504 L 11.6886 6.6504 L 11.6886 5.3562 Z " stroke-width="1.294119954109192"/>
    </g>
    <g id="ID0.3779862951487303">
      <path id="ID0.06244399072602391" fill="rgb(36,143,19)" d="M 10.3886 9.2062 L 11.6828 9.2062 L 11.6828 10.5004 L 10.3886 10.5004 L 10.3886 9.2062 Z " stroke-width="1.294119954109192"/>
    </g>
    <g id="ID0.498173289000988">
      <path id="ID0.9022371522150934" fill="rgb(36,143,19)" d="M 10.3886 10.5004 L 10.3886 9.2062 L 10.3886 10.5004 Z " stroke-width="1.294119954109192"/>
    </g>
    <g id="ID0.4985900861211121">
      <path id="ID0.25970716308802366" fill="rgb(36,143,19)" d="M 11.6886 6.6562 L 12.9828 6.6562 L 12.9828 7.9504 L 11.6886 7.9504 L 11.6886 6.6562 Z " stroke-width="1.294119954109192"/>
    </g>
    <g id="ID0.09918611170724034">
      <path id="ID0.6237640902400017" fill="rgb(39,135,24)" d="M 14.2386 5.3562 L 15.5328 5.3562 L 15.5328 6.6504 L 14.2386 6.6504 L 14.2386 5.3562 Z " stroke-width="1.294119954109192"/>
    </g>
    <g id="ID0.4937117421068251">
      <path id="ID0.43377855978906155" fill="rgb(39,135,24)" d="M 15.745 14.4004 L 15.5172 14.4004 L 15.5172 13.1062 L 15.9844 13.1062 L 15.9068 13.8827 L 15.745 14.4004 Z " stroke-width="1.294119954109192"/>
    </g>
    <g id="ID0.19960648100823164">
      <path id="ID0.4196607759222388" fill="rgb(39,135,24)" d="M 14.2386 16.3158 L 14.2386 15.7062 L 14.9724 15.7062 L 14.8313 15.9159 L 14.2386 16.3158 Z " stroke-width="1.294119954109192"/>
    </g>
    <g id="ID0.9489371958188713">
      <path id="ID0.5361456489190459" fill="rgb(39,135,24)" d="M 14.2386 10.5062 L 15.5328 10.5062 L 15.5328 11.8004 L 14.2386 11.8004 L 14.2386 10.5062 Z " stroke-width="1.294119954109192"/>
    </g>
    <g id="ID0.9216832360252738">
      <path id="ID0.4418952842243016" fill="rgb(68,169,52)" d="M 14.2386 11.8062 L 15.5328 11.8062 L 15.5328 13.1004 L 14.2386 13.1004 L 14.2386 11.8062 Z " stroke-width="1.294119954109192"/>
    </g>
    <g id="ID0.09457032708451152">
      <path id="ID0.6528903995640576" fill="rgb(53,107,45)" d="M 15.5386 10.5062 L 16.0097 10.5062 L 16.0097 11.8004 L 15.5386 11.8004 L 15.5386 10.5062 Z " stroke-width="1.294119954109192"/>
    </g>
    <g id="ID0.6637823111377656">
      <path id="ID0.5756841427646577" fill="rgb(36,143,19)" d="M 16.0058 13.1004 L 15.5386 13.1004 L 15.5386 11.8062 L 16.0097 11.8062 L 16.0097 13.0706 L 16.0058 13.1004 Z " stroke-width="1.294119954109192"/>
    </g>
    <g id="ID0.43215401098132133">
      <path id="ID0.8562699626199901" fill="rgb(68,169,52)" d="M 14.2386 6.6562 L 15.5328 6.6562 L 15.5328 7.9504 L 14.2386 7.9504 L 14.2386 6.6562 Z " stroke-width="1.294119954109192"/>
    </g>
    <g id="ID0.2695839130319655">
      <path id="ID0.6756325643509626" fill="rgb(68,169,52)" d="M 15.5172 14.8708 L 15.5172 14.4062 L 15.745 14.4062 L 15.6738 14.6392 L 15.5172 14.8708 Z " stroke-width="1.294119954109192"/>
    </g>
    <g id="ID0.6118458090350032">
      <path id="ID0.900328560732305" fill="rgb(68,169,52)" d="M 10.3114 17.0062 L 9.0172 17.0062 L 9.0172 17.0942 L 10.3114 17.0942 L 10.3114 17.0062 Z " stroke-width="1.294119954109192"/>
    </g>
    <g id="ID0.27830278035253286">
      <path id="ID0.8131451774388552" fill="rgb(68,169,52)" d="M 7.7614 15.7062 L 6.4672 15.7062 L 6.4672 17.0004 L 7.7614 17.0004 L 7.7614 15.7062 Z " stroke-width="1.294119954109192"/>
    </g>
    <g id="ID0.8153042695485055">
      <path id="ID0.2966392273083329" fill="rgb(133,187,124)" d="M 6.4886 11.8062 L 7.7828 11.8062 L 7.7828 13.1004 L 6.4886 13.1004 L 6.4886 11.8062 Z " stroke-width="1.294119954109192"/>
    </g>
    <g id="ID0.439677937887609">
      <path id="ID0.08918934687972069" fill="rgb(133,187,124)" d="M 6.4886 13.1004 L 6.4886 11.8062 L 6.4886 13.1004 Z " stroke-width="1.294119954109192"/>
    </g>
    <g id="ID0.6892758584581316">
      <path id="ID0.662873575463891" fill="rgb(36,125,22)" d="M 7.7614 13.1062 L 6.4672 13.1062 L 6.4672 14.4004 L 7.7614 14.4004 L 7.7614 13.1062 Z " stroke-width="1.294119954109192"/>
    </g>
    <g id="ID0.24639072036370635">
      <path id="ID0.4710382097400725" fill="rgb(134,194,124)" d="M 15.5386 5.3562 L 16.0097 5.3562 L 16.0097 6.6504 L 15.5386 6.6504 L 15.5386 5.3562 Z " stroke-width="1.294119954109192"/>
    </g>
    <g id="ID0.21767080901190639">
      <path id="ID0.03802415123209357" fill="rgb(134,194,124)" d="M 15.5114 13.1062 L 14.2172 13.1062 L 14.2172 14.4004 L 15.5114 14.4004 L 15.5114 13.1062 Z " stroke-width="1.294119954109192"/>
    </g>
    <g id="ID0.4881482794880867">
      <path id="ID0.9507385911419988" fill="rgb(39,135,24)" d="M 6.4886 2.6938 L 7.7828 2.6938 L 7.7828 1.3996 L 6.4886 1.3996 L 6.4886 2.6938 Z " stroke-width="1.294119954109192"/>
    </g>
    <g id="ID0.8739445051178336">
      <path id="ID0.6668222257867455" fill="rgb(68,169,52)" d="M 6.4886 1.3938 L 6.4886 0.0996 L 6.4886 1.3938 L 6.4886 1.012 L 7.7828 1.012 L 7.7828 1.3938 L 6.4886 1.3938 Z " stroke-width="1.294119954109192"/>
    </g>
    <g id="ID0.29929484985768795">
      <path id="ID0.667394507676363" fill="rgb(68,169,52)" d="M 6.4886 1.012 L 6.4886 0.0996 L 6.4886 1.012 Z " stroke-width="1.294119954109192"/>
    </g>
    <g id="ID0.8001211937516928">
      <path id="ID0.24892999418079853" fill="rgb(68,169,52)" d="M 6.4886 1.012 L 6.4886 1.3938 L 6.4886 0.0996 L 6.4886 1.3938 L 6.4886 1.012 Z " stroke-width="1.294119954109192"/>
    </g>
    <g id="ID0.6149068912491202">
      <path id="ID0.08409032644703984" fill="rgb(134,194,124)" d="M 7.7886 2.6938 L 9.0828 2.6938 L 9.0828 1.3996 L 7.7886 1.3996 L 7.7886 2.6938 Z " stroke-width="1.294119954109192"/>
    </g>
    <g id="ID0.6961534013971686">
      <path id="ID0.17804038664326072" fill="rgb(153,231,141)" d="M 9.0886 2.6938 L 10.3828 2.6938 L 10.3828 1.3996 L 9.0886 1.3996 L 9.0886 2.6938 Z " stroke-width="1.294119954109192"/>
    </g>
    <g id="ID0.0992105477489531">
      <path id="ID0.465613367035985" fill="rgb(139,202,129)" d="M 9.0886 1.3938 L 10.3828 1.3938 L 10.3828 1.012 L 9.0886 1.012 L 9.0886 1.3938 Z " stroke-width="1.294119954109192"/>
    </g>
    <g id="ID0.5964738172478974">
      <path id="ID0.5874268519692123" fill="rgb(39,135,24)" d="M 10.3438 13.0886 L 10.3438 14.3828 L 9.0496 14.3828 L 9.0496 13.0886 L 10.3438 13.0886 Z " stroke-width="1.294119954109192"/>
    </g>
    <g id="ID0.9004607531242073">
      <path id="ID0.6628057309426367" fill="rgb(68,169,52)" d="M 9.0438 13.0886 L 9.0438 14.3828 L 7.7496 14.3828 L 7.7496 13.0886 L 9.0438 13.0886 Z " stroke-width="1.294119954109192"/>
    </g>
    <g id="ID0.3299231259152293">
      <path id="ID0.7728008753620088" fill="rgb(68,169,52)" d="M 7.7496 14.3828 L 7.7496 13.0886 L 7.7496 14.3828 Z " stroke-width="1.294119954109192"/>
    </g>
    <g id="ID0.3635426382534206">
      <path id="ID0.6158084692433476" fill="rgb(134,194,124)" d="M 10.3438 14.3886 L 9.0496 14.3886 L 10.3438 14.3886 L 10.3438 15.6828 L 9.0496 15.6828 L 9.0496 14.3886 L 10.3438 14.3886 Z " stroke-width="1.294119954109192"/>
    </g>
    <g id="ID0.484197398647666">
      <path id="ID0.08515046443790197" fill="rgb(134,194,124)" d="M 10.3438 14.3886 L 9.0496 14.3886 L 10.3438 14.3886 Z " stroke-width="1.294119954109192"/>
    </g>
    <g id="ID0.04452416580170393">
      <path id="ID0.9461265048012137" fill="rgb(153,231,141)" d="M 10.3438 15.6886 L 10.3438 16.9828 L 9.0496 16.9828 L 9.0496 15.6886 L 10.3438 15.6886 Z " stroke-width="1.294119954109192"/>
    </g>
    <g id="ID0.5911513846367598">
      <path id="ID0.0907979398034513" fill="rgb(38,112,26)" d="M 9.0438 15.6886 L 9.0438 16.9828 L 7.7496 16.9828 L 7.7496 15.6886 L 9.0438 15.6886 Z " stroke-width="1.294119954109192"/>
    </g>
    <g id="ID0.3549598855897784">
      <path id="ID0.12663573073223233" fill="rgb(38,112,26)" d="M 7.7496 16.9828 L 7.7496 15.6886 L 7.7496 16.9828 Z " stroke-width="1.294119954109192"/>
    </g>
    <g id="ID0.7747165407054126">
      <path id="ID0.13576570339500904" fill="rgb(36,143,19)" d="M 9.0438 14.3886 L 9.0438 15.6828 L 7.7496 15.6828 L 7.7496 14.3886 L 9.0438 14.3886 Z " stroke-width="1.294119954109192"/>
    </g>
    <g id="ID0.350706375669688">
      <path id="ID0.686553418636322" fill="rgb(36,143,19)" d="M 7.7496 15.6828 L 7.7496 14.3886 L 7.7496 15.6828 Z " stroke-width="1.294119954109192"/>
    </g>
    <g id="ID0.030019256751984358">
      <path id="ID0.4073112513870001" fill="rgb(39,135,24)" d="M 6.4886 2.7562 L 7.7828 2.7562 L 7.7828 4.0504 L 6.4886 4.0504 L 6.4886 2.7562 Z " stroke-width="1.294119954109192"/>
    </g>
    <g id="ID0.29336131550371647">
      <path id="ID0.21075571049004793" fill="rgb(128,231,112)" d="M 6.4886 4.0562 L 7.7828 4.0562 L 7.7828 5.3504 L 6.4886 5.3504 L 6.4886 4.0562 Z " stroke-width="1.294119954109192"/>
    </g>
    <g id="ID0.6663042842410505">
      <path id="ID0.48578823544085026" fill="rgb(128,231,112)" d="M 6.4886 5.3504 L 6.4886 4.0562 L 6.4886 5.3504 Z " stroke-width="1.294119954109192"/>
    </g>
    <g id="ID0.925042802002281">
      <path id="ID0.964596688747406" fill="rgb(21,103,8)" d="M 7.7886 2.7562 L 9.0828 2.7562 L 9.0828 4.0504 L 7.7886 4.0504 L 7.7886 2.7562 Z " stroke-width="1.294119954109192"/>
    </g>
    <g id="ID0.1671962020918727">
      <path id="ID0.45018093241378665" fill="rgb(153,231,141)" d="M 9.0886 2.7562 L 10.3828 2.7562 L 10.3828 4.0504 L 9.0886 4.0504 L 9.0886 2.7562 Z " stroke-width="1.294119954109192"/>
    </g>
    <g id="ID0.26269819913432">
      <path id="ID0.1699293926358223" fill="rgb(55,161,38)" d="M 9.0886 4.0562 L 10.3828 4.0562 L 10.3828 5.3504 L 9.0886 5.3504 L 9.0886 4.0562 Z " stroke-width="1.294119954109192"/>
    </g>
    <g id="ID0.2605587472207844">
      <path id="ID0.2879980527795851" fill="rgb(36,143,19)" d="M 7.7886 4.0562 L 9.0828 4.0562 L 9.0828 5.3504 L 7.7886 5.3504 L 7.7886 4.0562 Z " stroke-width="1.294119954109192"/>
    </g>
    <g id="ID0.7544668870978057">
      <path id="ID0.012867513578385115" fill="rgb(36,143,19)" d="M 7.7886 1.3938 L 9.0828 1.3938 L 9.0828 1.012 L 7.7886 1.012 L 7.7886 1.3938 Z " stroke-width="1.294119954109192"/>
    </g>
    <g id="ID0.3863487555645406">
      <path id="ID0.20663942024111748" fill="rgb(48,115,38)" d="M 15.5386 6.6562 L 16.0097 6.6562 L 16.0097 7.9504 L 15.5386 7.9504 L 15.5386 6.6562 Z " stroke-width="1.294119954109192"/>
    </g>
    <g id="ID0.21889275731518865">
      <path id="ID0.23742580227553844" fill="rgb(36,143,19)" d="M 14.951 15.7004 L 14.2172 15.7004 L 14.2172 14.4062 L 15.5114 14.4062 L 15.5114 14.8708 L 14.951 15.7004 Z " stroke-width="1.294119954109192"/>
    </g>
    <g id="ID0.44635760597884655">
      <path id="ID0.23805667692795396" fill="rgb(36,143,19)" d="M 9.0114 17.0062 L 7.7172 17.0062 L 7.7172 17.0942 L 9.0114 17.0942 L 9.0114 17.0062 Z " stroke-width="1.294119954109192"/>
    </g>
    <g id="ID0.7373795644380152">
      <path id="ID0.15651508886367083" fill="rgb(127,179,119)" d="M 10.3886 10.5062 L 11.6828 10.5062 L 11.6828 11.8004 L 10.3886 11.8004 L 10.3886 10.5062 Z " stroke-width="1.294119954109192"/>
    </g>
    <g id="ID0.07491788733750582">
      <path id="ID0.2468647393397987" fill="rgb(127,179,119)" d="M 10.3886 11.8004 L 10.3886 10.5062 L 10.3886 11.8004 Z " stroke-width="1.294119954109192"/>
    </g>
    <g id="ID0.6721188388764858">
      <path id="ID0.8665214329957962" fill="rgb(127,179,119)" d="M 12.9886 4.0562 L 14.2828 4.0562 L 14.2828 5.3504 L 12.9886 5.3504 L 12.9886 4.0562 Z " stroke-width="1.294119954109192"/>
    </g>
    <g id="ID0.795195356477052">
      <path id="ID0.3722535311244428" fill="rgb(57,162,41)" d="M 11.6886 7.9062 L 12.9828 7.9062 L 12.9828 9.2004 L 11.6886 9.2004 L 11.6886 7.9062 Z " stroke-width="1.294119954109192"/>
    </g>
    <g id="ID0.5208154707215726">
      <path id="ID0.9781969422474504" fill="rgb(62,158,47)" d="M 10.3886 11.8062 L 11.6828 11.8062 L 11.6828 13.1004 L 10.3886 13.1004 L 10.3886 11.8062 Z " stroke-width="1.294119954109192"/>
    </g>
    <g id="ID0.25597143871709704">
      <path id="ID0.3642819938249886" fill="rgb(62,158,47)" d="M 10.3886 13.1004 L 10.3886 11.8062 L 10.3886 13.1004 Z " stroke-width="1.294119954109192"/>
    </g>
    <g id="ID0.47315197391435504">
      <path id="ID0.7021226538345218" fill="rgb(65,123,56)" d="M 6.4886 17.0062 L 7.7828 17.0062 L 7.7828 17.0942 L 6.4886 17.0942 L 6.4886 17.0062 Z " stroke-width="1.294119954109192"/>
    </g>
    <g id="ID0.5922173340804875">
      <path id="ID0.030143144074827433" fill="rgb(65,123,56)" d="M 6.4886 18.3004 L 6.4886 17.0062 L 6.4886 18.3004 Z " stroke-width="1.294119954109192"/>
    </g>
    <g id="ID0.649827825371176">
      <path id="ID0.6743363849818707" fill="rgb(161,207,154)" d="M 11.6886 9.2062 L 12.9828 9.2062 L 12.9828 10.5004 L 11.6886 10.5004 L 11.6886 9.2062 Z " stroke-width="1.294119954109192"/>
    </g>
    <g id="ID0.7388860513456166">
      <path id="ID0.2822728045284748" fill="rgb(46,126,34)" d="M 10.3886 13.1062 L 11.6828 13.1062 L 11.6828 14.4004 L 10.3886 14.4004 L 10.3886 13.1062 Z " stroke-width="1.294119954109192"/>
    </g>
    <g id="ID0.641849382314831">
      <path id="ID0.44953456707298756" fill="rgb(37,91,29)" d="M 11.6886 10.5062 L 12.9828 10.5062 L 12.9828 11.8004 L 11.6886 11.8004 L 11.6886 10.5062 Z " stroke-width="1.294119954109192"/>
    </g>
    <g id="ID0.4904411328025162">
      <path id="ID0.8454778627492487" fill="rgb(46,126,34)" d="M 12.9886 7.9062 L 14.2828 7.9062 L 14.2828 9.2004 L 12.9886 9.2004 L 12.9886 7.9062 Z " stroke-width="1.294119954109192"/>
    </g>
    <g id="ID0.18474541371688247">
      <path id="ID0.440540820825845" fill="rgb(93,181,80)" d="M 14.2386 7.9062 L 15.5328 7.9062 L 15.5328 9.2004 L 14.2386 9.2004 L 14.2386 7.9062 Z " stroke-width="1.294119954109192"/>
    </g>
    <g id="ID0.19439017120748758">
      <path id="ID0.6072306358255446" fill="rgb(159,227,148)" d="M 14.2386 9.2062 L 15.5328 9.2062 L 15.5328 10.5004 L 14.2386 10.5004 L 14.2386 9.2062 Z " stroke-width="1.294119954109192"/>
    </g>
    <g id="ID0.6706525660119951">
      <path id="ID0.8290583845227957" fill="rgb(132,220,118)" d="M 12.9886 5.3562 L 14.2828 5.3562 L 14.2828 6.6504 L 12.9886 6.6504 L 12.9886 5.3562 Z " stroke-width="1.294119954109192"/>
    </g>
    <g id="ID0.3323696032166481">
      <path id="ID0.6849123910069466" fill="rgb(143,192,135)" d="M 10.3886 14.4062 L 11.6828 14.4062 L 11.6828 15.7004 L 10.3886 15.7004 L 10.3886 14.4062 Z " stroke-width="1.294119954109192"/>
    </g>
    <g id="ID0.8280443539842963">
      <path id="ID0.03701761597767472" fill="rgb(143,192,135)" d="M 12.9886 6.6562 L 14.2828 6.6562 L 14.2828 7.9504 L 12.9886 7.9504 L 12.9886 6.6562 Z " stroke-width="1.294119954109192"/>
    </g>
    <g id="ID0.07420692360028625">
      <path id="ID0.6745341643691063" fill="rgb(71,174,55)" d="M 11.6886 11.8062 L 12.9828 11.8062 L 12.9828 13.1004 L 11.6886 13.1004 L 11.6886 11.8062 Z " stroke-width="1.294119954109192"/>
    </g>
    <g id="ID0.043678031768649817">
      <path id="ID0.9931695726700127" fill="rgb(71,174,55)" d="M 12.9886 16.9654 L 12.9886 15.7062 L 14.2828 15.7062 L 14.2828 16.3158 L 13.6033 16.7739 L 12.9886 16.9654 Z " stroke-width="1.294119954109192"/>
    </g>
    <g id="ID0.12465786002576351">
      <path id="ID0.04298875108361244" fill="rgb(71,174,55)" d="M 12.9886 10.5062 L 14.2828 10.5062 L 14.2828 11.8004 L 12.9886 11.8004 L 12.9886 10.5062 Z " stroke-width="1.294119954109192"/>
    </g>
    <g id="ID0.704340398311615">
      <path id="ID0.2668286878615618" fill="rgb(52,158,36)" d="M 10.3886 15.7062 L 11.6828 15.7062 L 11.6828 17.0004 L 10.3886 17.0004 L 10.3886 15.7062 Z " stroke-width="1.294119954109192"/>
    </g>
    <g id="ID0.2618625173345208">
      <path id="ID0.9578895019367337" fill="rgb(59,103,52)" d="M 12.9886 13.1062 L 14.2828 13.1062 L 14.2828 14.4004 L 12.9886 14.4004 L 12.9886 13.1062 Z " stroke-width="1.294119954109192"/>
    </g>
    <g id="ID0.12890727259218693">
      <path id="ID0.47837213333696127" fill="rgb(79,167,65)" d="M 11.6886 14.4062 L 12.9828 14.4062 L 12.9828 15.7004 L 11.6886 15.7004 L 11.6886 14.4062 Z " stroke-width="1.294119954109192"/>
    </g>
    <g id="ID0.40393536165356636">
      <path id="ID0.2411672337912023" fill="rgb(146,195,138)" d="M 12.9886 14.4062 L 14.2828 14.4062 L 14.2828 15.7004 L 12.9886 15.7004 L 12.9886 14.4062 Z " stroke-width="1.294119954109192"/>
    </g>
    <g id="ID0.9845961206592619">
      <path id="ID0.6238009701482952" fill="rgb(18,133,0)" d="M 12.8702 17.0004 L 12.9828 16.9654 L 12.9828 17.0004 L 12.8702 17.0004 Z " stroke-width="1.294119954109192"/>
    </g>
    <g id="ID0.6184951309114695">
      <path id="ID0.5858273622579873" fill="rgb(18,133,0)" d="M 12.8702 17.0004 L 11.6886 17.0004 L 11.6886 15.7062 L 12.9828 15.7062 L 12.9828 16.9654 L 12.8702 17.0004 Z " stroke-width="1.294119954109192"/>
    </g>
    <g id="ID0.7001849943771958">
      <path id="ID0.4656342673115432" fill="rgb(92,186,78)" d="M 10.3886 17.0062 L 11.6828 17.0062 L 11.6828 17.0942 L 10.3886 17.0942 L 10.3886 17.0062 Z " stroke-width="1.294119954109192"/>
    </g>
    <g id="ID0.14072130667045712">
      <path id="ID0.4767076685093343" fill="rgb(167,219,159)" d="M 11.6886 17.0942 L 11.6886 17.0062 L 12.8702 17.0062 C 12.5816 17.0671 12.315 17.0942 12.0419 17.0942 L 11.6886 17.0942 Z " stroke-width="1.294119954109192"/>
    </g>
    <g id="ID0.2228332464583218">
      <path id="ID0.14827624801546335" fill="rgb(79,167,65)" d="M 12.9886 9.2062 L 14.2828 9.2062 L 14.2828 10.5004 L 12.9886 10.5004 L 12.9886 9.2062 Z " stroke-width="1.294119954109192"/>
    </g>
    <g id="ID0.06097178114578128">
      <path id="ID0.9721864466555417" fill="rgb(79,167,65)" d="M 15.5386 7.9062 L 16.0097 7.9062 L 16.0097 9.2004 L 15.5386 9.2004 L 15.5386 7.9062 Z " stroke-width="1.294119954109192"/>
    </g>
    <g id="ID0.6471213726326823">
      <path id="ID0.18611545069143176" fill="rgb(17,75,8)" d="M 15.5386 9.2062 L 16.0097 9.2062 L 16.0097 10.5004 L 15.5386 10.5004 L 15.5386 9.2062 Z " stroke-width="1.294119954109192"/>
    </g>
    <g id="ID0.4152880124747753">
      <path id="ID0.5188943780958652" fill="rgb(52,158,36)" d="M 11.6886 13.1062 L 12.9828 13.1062 L 12.9828 14.4004 L 11.6886 14.4004 L 11.6886 13.1062 Z " stroke-width="1.294119954109192"/>
    </g>
    <g id="ID0.5530462493188679">
      <path id="ID0.3900583302602172" fill="rgb(39,135,24)" d="M 15.5504 3.253 L 15.5504 4.0114 L 14.2562 4.0114 L 14.2562 2.7172 L 15.1893 2.7172 L 15.5504 3.253 Z " stroke-width="1.294119954109192"/>
    </g>
    <g id="ID0.5580412214621902">
      <path id="ID0.6299497787840664" fill="rgb(164,226,154)" d="M 14.2562 5.3114 L 14.2562 4.0172 L 15.5504 4.0172 L 15.5504 5.3114 L 14.2562 5.3114 Z " stroke-width="1.294119954109192"/>
    </g>
    <g id="ID0.8987004407681525">
      <path id="ID0.28612844040617347" fill="rgb(68,169,52)" d="M 15.5562 4.0114 L 15.5562 3.253 L 15.7128 3.4847 L 15.8759 4.0114 L 15.5562 4.0114 Z " stroke-width="1.294119954109192"/>
    </g>
    <g id="ID0.15839844569563866">
      <path id="ID0.10787998465821147" fill="rgb(68,169,52)" d="M 15.5562 4.0114 L 15.5562 3.253 L 15.5562 4.0114 Z " stroke-width="1.294119954109192"/>
    </g>
    <g id="ID0.6395093081519008">
      <path id="ID0.1612221491523087" fill="rgb(31,103,19)" d="M 15.5562 5.3114 L 15.5562 4.0172 L 15.8759 4.0172 C 15.9781 4.3304 16.0273 4.6824 16.0273 5.0461 L 16.0273 5.3114 L 15.5562 5.3114 Z " stroke-width="1.294119954109192"/>
    </g>
    <g id="ID0.7504491633735597">
      <path id="ID0.3007896183989942" fill="rgb(31,103,19)" d="M 15.5562 5.3114 L 15.5562 4.0172 L 15.5562 5.3114 Z " stroke-width="1.294119954109192"/>
    </g>
    <g id="ID0.8129722378216684">
      <path id="ID0.6635566442273557" fill="rgb(134,194,124)" d="M 14.2562 2.7114 L 14.2562 1.8068 L 14.8489 2.2067 L 15.1893 2.7114 L 14.2562 2.7114 Z " stroke-width="1.294119954109192"/>
    </g>
    <g id="ID0.889218533411622">
      <path id="ID0.41644224477931857" fill="rgb(176,220,169)" d="M 15.5562 2.7114 L 15.5562 1.4172 L 15.5562 2.7114 Z " stroke-width="1.294119954109192"/>
    </g>
    <g id="Creeper Face">
      <g id="ID0.4252895750105381">
        <path id="ID0.11216995911672711" fill="black" d="M 4.0117 5.049 L 6.6778 5.049 L 6.6778 7.7151 L 4.0117 7.7151 L 4.0117 5.049 Z " stroke-width="0.8887029886245728"/>
      </g>
      <g id="ID0.029039908200502396">
        <path id="ID0.516775225289166" fill="black" d="M 6.7117 7.7008 L 9.3778 7.7008 L 9.3778 13.0389 L 6.7117 13.0389 L 6.7117 7.7008 Z " stroke-width="1.4063988073455895"/>
      </g>
      <g id="ID0.4175223200581968">
        <path id="ID0.3662203950807452" fill="black" d="M 5.3558 9.0542 L 6.6888 9.0542 L 6.6888 14.3653 L 5.3558 14.3653 L 5.3558 9.0542 Z " stroke-width="1.2906561993438892"/>
      </g>
      <g id="ID0.3849955187179148">
        <path id="ID0.004921549931168556" fill="black" d="M 9.3558 9.0273 L 10.6888 9.0273 L 10.6888 14.3505 L 9.3558 14.3505 L 9.3558 9.0273 Z " stroke-width="1.293413417603899"/>
      </g>
      <g id="ID0.74849150236696">
        <path id="ID0.22651081765070558" fill="black" d="M 9.3617 5.049 L 12.0278 5.049 L 12.0278 7.7151 L 9.3617 7.7151 L 9.3617 5.049 Z " stroke-width="0.8887029886245728"/>
      </g>
    </g>
  </g>
<defs/></svg>