<svg version="1.1" width="481" height="361" viewBox="-0.5 -0.5 481 361" xmlns="http://www.w3.org/2000/svg" xmlns:xlink="http://www.w3.org/1999/xlink">
  <!-- Exported by Scratch - http://scratch.mit.edu/ -->
  <g id="ID0.8288401295430958">
    <path id="ID0.40707203513011336" fill="#6FD57E" d="M 0 0 L 480 0 L 480 360 L 0 360 L 0 0 Z " stroke-width="1"/>
    <path id="ID0.3499563466757536" fill="#fff" d="M 181.230 211.886 L 186.259 211.886 C 187.255 211.886 187.997 211.928 188.486 212.011 C 188.976 212.094 189.413 212.267 189.799 212.530 C 190.186 212.793 190.507 213.144 190.765 213.581 C 191.022 214.019 191.151 214.510 191.151 215.053 C 191.151 215.642 190.992 216.183 190.675 216.675 C 190.357 217.167 189.927 217.536 189.383 217.782 C 190.150 218.005 190.739 218.386 191.151 218.924 C 191.563 219.461 191.769 220.094 191.769 220.820 C 191.769 221.392 191.636 221.949 191.370 222.489 C 191.104 223.030 190.741 223.462 190.280 223.785 C 189.819 224.109 189.252 224.307 188.576 224.382 C 188.153 224.428 187.132 224.456 185.513 224.468 L 181.230 224.468 L 181.230 211.886 Z M 183.771 213.980 L 183.771 216.890 L 185.435 216.890 C 186.425 216.890 187.040 216.875 187.281 216.847 C 187.715 216.795 188.057 216.645 188.306 216.396 C 188.555 216.147 188.679 215.820 188.679 215.414 C 188.679 215.024 188.572 214.708 188.358 214.465 C 188.143 214.222 187.824 214.075 187.401 214.023 C 187.149 213.995 186.425 213.980 185.229 213.980 L 183.771 213.980 Z M 183.771 218.984 L 183.771 222.348 L 186.122 222.348 C 187.037 222.348 187.618 222.322 187.864 222.271 C 188.242 222.202 188.549 222.035 188.787 221.769 C 189.024 221.502 189.143 221.146 189.143 220.700 C 189.143 220.322 189.051 220.002 188.868 219.739 C 188.685 219.476 188.421 219.284 188.074 219.164 C 187.728 219.044 186.977 218.984 185.822 218.984 L 183.771 218.984 Z " stroke-width="1"/>
    <path id="ID0.3815350425429642" fill="#fff" d="M 199.896 224.468 L 199.896 223.103 C 199.564 223.589 199.128 223.973 198.587 224.253 C 198.047 224.533 197.476 224.674 196.875 224.674 C 196.263 224.674 195.714 224.539 195.228 224.270 C 194.741 224.001 194.389 223.624 194.172 223.137 C 193.955 222.651 193.846 221.979 193.846 221.121 L 193.846 215.353 L 196.257 215.353 L 196.257 219.541 C 196.257 220.823 196.302 221.608 196.390 221.897 C 196.479 222.186 196.641 222.415 196.875 222.584 C 197.110 222.753 197.407 222.837 197.768 222.837 C 198.180 222.837 198.549 222.724 198.875 222.498 C 199.201 222.272 199.424 221.992 199.544 221.657 C 199.664 221.322 199.725 220.503 199.725 219.198 L 199.725 215.353 L 202.136 215.353 L 202.136 224.468 L 199.896 224.468 Z " stroke-width="1"/>
    <path id="ID0.6277276715263724" fill="#fff" d="M 204.633 214.118 L 204.633 211.886 L 207.045 211.886 L 207.045 214.118 L 204.633 214.118 Z M 204.633 224.468 L 204.633 215.353 L 207.045 215.353 L 207.045 224.468 L 204.633 224.468 Z " stroke-width="1"/>
    <path id="ID0.6704325773753226" fill="#fff" d="M 209.517 211.886 L 211.929 211.886 L 211.929 224.467 L 209.517 224.467 L 209.517 211.886 Z " stroke-width="1"/>
    <path id="ID0.13749532820656896" fill="#fff" d="M 222.759 224.468 L 220.519 224.468 L 220.519 223.129 C 220.147 223.649 219.708 224.037 219.201 224.292 C 218.695 224.546 218.184 224.674 217.670 224.674 C 216.623 224.674 215.726 224.252 214.979 223.408 C 214.232 222.564 213.859 221.387 213.859 219.876 C 213.859 218.331 214.222 217.157 214.949 216.353 C 215.676 215.549 216.594 215.147 217.704 215.147 C 218.722 215.147 219.603 215.571 220.347 216.418 L 220.347 211.886 L 222.759 211.886 L 222.759 224.468 Z M 216.322 219.713 C 216.322 220.686 216.457 221.389 216.726 221.824 C 217.115 222.454 217.658 222.768 218.356 222.768 C 218.911 222.768 219.383 222.532 219.772 222.060 C 220.161 221.588 220.356 220.883 220.356 219.945 C 220.356 218.898 220.167 218.144 219.789 217.683 C 219.412 217.223 218.928 216.993 218.339 216.993 C 217.767 216.993 217.288 217.220 216.901 217.675 C 216.515 218.130 216.322 218.809 216.322 219.713 Z " stroke-width="1"/>
    <path id="ID0.05857739504426718" fill="#fff" d="M 225.136 214.118 L 225.136 211.886 L 227.547 211.886 L 227.547 214.118 L 225.136 214.118 Z M 225.136 224.468 L 225.136 215.353 L 227.547 215.353 L 227.547 224.468 L 225.136 224.468 Z " stroke-width="1"/>
    <path id="ID0.42660560784861445" fill="#fff" d="M 238.309 224.468 L 235.898 224.468 L 235.898 219.816 C 235.898 218.832 235.846 218.196 235.743 217.907 C 235.640 217.618 235.473 217.393 235.241 217.233 C 235.010 217.073 234.731 216.993 234.405 216.993 C 233.987 216.993 233.612 217.107 233.280 217.336 C 232.948 217.565 232.721 217.868 232.598 218.246 C 232.475 218.623 232.413 219.321 232.413 220.340 L 232.413 224.468 L 230.002 224.468 L 230.002 215.353 L 232.242 215.353 L 232.242 216.692 C 233.037 215.662 234.038 215.147 235.246 215.147 C 235.778 215.147 236.264 215.243 236.705 215.435 C 237.145 215.627 237.478 215.871 237.704 216.169 C 237.930 216.466 238.088 216.804 238.176 217.181 C 238.265 217.559 238.309 218.100 238.309 218.803 L 238.309 224.468 Z " stroke-width="1"/>
    <path id="ID0.027628176845610142" fill="#fff" d="M 240.532 225.068 L 243.287 225.403 C 243.333 225.723 243.439 225.944 243.604 226.064 C 243.833 226.235 244.194 226.321 244.686 226.321 C 245.315 226.321 245.787 226.227 246.102 226.038 C 246.314 225.912 246.474 225.709 246.582 225.429 C 246.657 225.229 246.694 224.859 246.694 224.322 L 246.694 222.991 C 245.973 223.976 245.063 224.468 243.965 224.468 C 242.741 224.468 241.771 223.950 241.056 222.914 C 240.495 222.096 240.215 221.078 240.215 219.859 C 240.215 218.331 240.582 217.164 241.317 216.358 C 242.053 215.551 242.967 215.147 244.059 215.147 C 245.186 215.147 246.116 215.642 246.848 216.632 L 246.848 215.353 L 249.106 215.353 L 249.106 223.532 C 249.106 224.608 249.017 225.412 248.839 225.944 C 248.662 226.476 248.413 226.893 248.093 227.197 C 247.772 227.500 247.345 227.737 246.810 227.909 C 246.275 228.081 245.598 228.166 244.780 228.166 C 243.235 228.166 242.140 227.902 241.493 227.373 C 240.847 226.843 240.524 226.173 240.524 225.360 C 240.524 225.280 240.526 225.183 240.532 225.068 Z M 242.686 219.722 C 242.686 220.689 242.874 221.397 243.248 221.846 C 243.623 222.295 244.085 222.519 244.634 222.519 C 245.224 222.519 245.721 222.289 246.128 221.829 C 246.534 221.368 246.737 220.686 246.737 219.782 C 246.737 218.838 246.542 218.137 246.153 217.679 C 245.764 217.221 245.272 216.993 244.677 216.993 C 244.099 216.993 243.623 217.217 243.248 217.666 C 242.874 218.115 242.686 218.801 242.686 219.722 Z " stroke-width="1"/>
    <path id="ID0.6969928564503789" fill="#fff" d="M 256.460 224.468 L 256.460 211.989 L 259.001 211.989 L 259.001 222.348 L 265.317 222.348 L 265.317 224.468 L 256.460 224.468 Z " stroke-width="1"/>
    <path id="ID0.44921707501634955" fill="#fff" d="M 272.389 221.567 L 274.792 221.970 C 274.483 222.851 273.995 223.522 273.328 223.983 C 272.662 224.443 271.828 224.674 270.827 224.674 C 269.242 224.674 268.069 224.156 267.308 223.120 C 266.707 222.291 266.407 221.244 266.407 219.979 C 266.407 218.469 266.802 217.286 267.591 216.430 C 268.381 215.575 269.379 215.147 270.586 215.147 C 271.942 215.147 273.012 215.595 273.796 216.491 C 274.580 217.386 274.955 218.758 274.920 220.606 L 268.879 220.606 C 268.896 221.321 269.090 221.877 269.462 222.275 C 269.834 222.672 270.297 222.871 270.852 222.871 C 271.230 222.871 271.548 222.768 271.805 222.562 C 272.062 222.356 272.257 222.025 272.389 221.567 Z M 272.526 219.130 C 272.509 218.432 272.329 217.901 271.985 217.538 C 271.642 217.174 271.224 216.993 270.732 216.993 C 270.206 216.993 269.771 217.184 269.428 217.568 C 269.084 217.951 268.916 218.472 268.921 219.130 L 272.526 219.130 Z " stroke-width="1"/>
    <path id="ID0.6199864000082016" fill="#fff" d="M 279.392 224.468 L 275.718 215.353 L 278.250 215.353 L 279.967 220.005 L 280.464 221.558 C 280.596 221.163 280.679 220.903 280.713 220.777 C 280.793 220.520 280.879 220.262 280.971 220.005 L 282.704 215.353 L 285.184 215.353 L 281.563 224.468 L 279.392 224.468 Z " stroke-width="1"/>
    <path id="ID0.7564697484485805" fill="#fff" d="M 291.938 221.567 L 294.341 221.970 C 294.032 222.851 293.545 223.522 292.878 223.983 C 292.212 224.443 291.378 224.674 290.377 224.674 C 288.792 224.674 287.619 224.156 286.858 223.120 C 286.257 222.291 285.957 221.244 285.957 219.979 C 285.957 218.469 286.352 217.286 287.141 216.430 C 287.931 215.575 288.929 215.147 290.136 215.147 C 291.492 215.147 292.562 215.595 293.346 216.491 C 294.130 217.386 294.504 218.758 294.470 220.606 L 288.428 220.606 C 288.446 221.321 288.640 221.877 289.012 222.275 C 289.384 222.672 289.847 222.871 290.402 222.871 C 290.780 222.871 291.097 222.768 291.355 222.562 C 291.612 222.356 291.807 222.025 291.938 221.567 Z M 292.076 219.130 C 292.059 218.432 291.878 217.901 291.535 217.538 C 291.192 217.174 290.774 216.993 290.282 216.993 C 289.756 216.993 289.321 217.184 288.978 217.568 C 288.634 217.951 288.466 218.472 288.471 219.130 L 292.076 219.130 Z " stroke-width="1"/>
    <path id="ID0.3050884543918073" fill="#fff" d="M 296.435 211.886 L 298.847 211.886 L 298.847 224.467 L 296.435 224.467 L 296.435 211.886 Z " stroke-width="1"/>
    <path id="ID0.7426625601947308" fill="#fff" d="M 273.525 158.230 C 279.447 158.230 284.813 160.635 288.699 164.521 C 292.585 168.407 294.990 173.773 294.990 179.695 C 294.990 185.617 292.585 190.983 288.699 194.869 C 284.813 198.755 279.447 201.160 273.525 201.160 C 267.603 201.160 262.237 198.755 258.351 194.869 C 254.465 190.983 252.060 185.617 252.060 179.695 C 252.060 173.773 254.465 168.407 258.351 164.521 C 262.237 160.635 267.603 158.230 273.525 158.230 Z " stroke-width="1"/>
    <path id="ID0.3322551054880023" fill="#fff" d="M 231.278 169.400 C 235.659 169.400 239.629 171.179 242.504 174.054 C 245.379 176.929 247.158 180.899 247.158 185.280 C 247.158 189.661 245.379 193.631 242.504 196.506 C 239.629 199.381 235.659 201.160 231.278 201.160 C 226.897 201.160 222.927 199.381 220.052 196.506 C 217.177 193.631 215.398 189.661 215.398 185.280 C 215.398 180.899 217.177 176.929 220.052 174.054 C 222.927 171.179 226.897 169.400 231.278 169.400 Z " stroke-width="1"/>
    <path id="ID0.4717077440582216" fill="#fff" d="M 196.758 177.665 C 199.999 177.665 202.936 178.981 205.063 181.108 C 207.190 183.235 208.506 186.172 208.506 189.413 C 208.506 192.654 207.190 195.591 205.063 197.718 C 202.936 199.845 199.999 201.161 196.758 201.161 C 193.517 201.161 190.580 199.845 188.453 197.718 C 186.326 195.591 185.010 192.654 185.010 189.413 C 185.010 186.172 186.326 183.235 188.453 181.108 C 190.580 178.981 193.517 177.665 196.758 177.665 Z " stroke-width="1"/>
  </g>
</svg>