<svg version="1.1" width="32.5939998626709" height="53.09400177001953" viewBox="-0.09400001168251038 0.25 32.5939998626709 53.09400177001953" xmlns="http://www.w3.org/2000/svg" xmlns:xlink="http://www.w3.org/1999/xlink">
  <!-- Exported by Scratch - http://scratch.mit.edu/ -->
  <g id="ID0.10039818054065108">
    <g id="layer1">
      <path id="path3069" fill="#666666" stroke="none" d="M 23.594 0.75 C 21.32 0.75 19.18 1.156 17.188 2 C 15.195 2.844 13.414 4.082 11.844 5.688 C 10.273 7.293 8.926 9.242 7.813 11.563 C 6.699 13.883 5.883 16.508 5.344 19.438 L 0.406 19.438 L 0.406 23.375 L 4.781 23.375 C 4.641 24.852 4.562 26.305 4.563 27.688 C 4.562 28.273 4.57 28.797 4.594 29.313 C 4.617 29.828 4.672 30.344 4.719 30.813 L 0.406 30.813 L 0.406 34.75 L 5.094 34.75 C 5.562 37.727 6.277 40.332 7.25 42.594 C 8.223 44.855 9.422 46.738 10.875 48.25 C 12.328 49.762 14.008 50.914 15.906 51.688 C 17.805 52.461 19.922 52.844 22.219 52.844 C 25.641 52.844 28.906 51.977 32 50.219 L 31.969 45.781 C 28.734 47.891 25.617 48.938 22.594 48.938 C 19.289 48.938 16.539 47.754 14.313 45.375 C 12.086 42.996 10.586 39.461 9.813 34.75 L 28.188 34.75 L 28.188 30.813 L 9.313 30.813 C 9.266 30.18 9.23 29.512 9.219 28.844 C 9.207 28.176 9.187 27.531 9.188 26.875 C 9.187 26.195 9.227 25.543 9.25 24.969 C 9.273 24.395 9.297 23.867 9.344 23.375 L 28.188 23.375 L 28.188 19.438 L 9.906 19.438 C 10.375 17.117 11.031 15.047 11.875 13.219 C 12.719 11.391 13.715 9.859 14.875 8.594 C 16.035 7.328 17.332 6.355 18.75 5.688 C 20.168 5.02 21.648 4.688 23.219 4.688 C 26.359 4.688 29.305 5.555 32 7.313 L 32 2.688 C 29.469 1.398 26.664 0.75 23.594 0.75 Z " stroke-width="1"/>
    </g>
  </g>
</svg>