<svg version="1.1" width="40.125" height="47.093997955322266" viewBox="0.375 0.09399998188018799 40.125 47.093997955322266" xmlns="http://www.w3.org/2000/svg" xmlns:xlink="http://www.w3.org/1999/xlink">
  <!-- Exported by Scratch - http://scratch.mit.edu/ -->
  <g id="ID0.06247285194694996">
    <g id="layer1">
      <path id="path3330" fill="#666666" stroke="none" d="M 17.219 0.594 L 14.188 14.875 L 4.219 14.875 L 3.5 18.094 L 13.531 18.094 L 11.125 29.438 L 1.531 29.438 L 0.875 32.688 L 10.438 32.688 L 7.438 46.688 L 11.063 46.688 L 14.063 32.688 L 23.156 32.688 L 20.125 46.688 L 23.75 46.688 L 26.813 32.688 L 36.625 32.688 L 37.406 29.438 L 27.438 29.438 L 29.906 18.094 L 39.25 18.094 L 40 14.875 L 30.531 14.875 L 33.594 0.594 L 30 0.594 L 26.938 14.875 L 17.813 14.875 L 20.844 0.594 L 17.219 0.594 Z M 17.188 18.094 L 26.313 18.094 L 23.875 29.438 L 14.688 29.438 L 17.188 18.094 Z " stroke-width="1"/>
    </g>
  </g>
</svg>