<svg version="1.1" width="21.473782539367676" height="21.48365020751953" viewBox="-2.730541478842497 -2.7239414788782597 21.473782539367676 21.48365020751953" xmlns="http://www.w3.org/2000/svg" xmlns:xlink="http://www.w3.org/1999/xlink">
  <defs>
    <linearGradient id="grad_1" x1="0" y1="0" x2="1" y2="0" gradientUnits="userSpaceOnUse">
      <stop offset="0" stop-color="#f18673" stop-opacity="1"/>
      <stop offset="1" stop-color="#efad92" stop-opacity="1"/>
    </linearGradient>
  <linearGradient id="grad_1-.534482955932617,0,0,5.534482955932617,-0.55,-0.25" x1="-0.55" y1="-0.25" x2="4.9845" y2="-0.25" gradientUnits="userSpaceOnUse">
      <stop offset="0" stop-color="#f18673" stop-opacity="1"/>
      <stop offset="1" stop-color="#efad92" stop-opacity="1"/>
    </linearGradient></defs>
  <!-- Exported by Scratch - http://scratch.mit.edu/ -->
  <g id="Mario">
    <path id="ID0.549409864936024" fill="#f4bdac" d="M 2.8924 15.8055 L 4.0934 15.9826 L 11.9192 15.9826 L 13.1202 15.8055 C 12.7438 15.9328 12.373 15.9826 11.9911 15.9826 L 4.0215 15.9826 C 3.6341 15.9826 3.2633 15.9328 2.8924 15.8055 Z " stroke-width="5.534482955932617"/>
    <path id="ID0.7326941867358983" fill="#f4bdac" d="M 11.9911 0.0433 C 14.2381 0.0987 15.976 1.8642 15.976 4.0282 L 15.976 11.9978 C 15.976 12.3465 15.9317 12.6841 15.8321 12.994 L 8.0063 12.994 L 0.175 12.994 C 0.0809 12.6841 0.0367 12.3465 0.0367 11.9978 L 0.0367 4.0282 C 0.0367 1.8642 1.7689 0.0987 4.0215 0.0433 L 11.9911 0.0433 Z " stroke-width="5.534482955932617"/>
    <g id="Eyes">
      <path id="ID0.6399078550748527" fill="#fff" d="M 10.6739 9.5792 L 10.7902 9.618 C 11.6314 9.618 12.3177 8.4889 12.3177 7.0998 C 12.3177 5.7106 11.6314 4.5871 10.7902 4.5871 C 9.9489 4.5871 9.2626 5.7106 9.2626 7.0998 L 9.2958 7.3599 C 9.3124 6.2253 9.8714 5.3509 10.5577 5.3509 C 11.2717 5.3509 11.8472 6.3084 11.8472 7.4872 C 11.8472 8.5941 11.3381 9.5073 10.6739 9.5792 Z " stroke-width="5.534482955932617"/>
      <path id="ID0.4115883819758892" fill="#64c3ea" d="M 10.6739 9.5792 C 11.3381 9.5073 11.8472 8.5941 11.8472 7.4872 C 11.8472 6.3084 11.2717 5.3509 10.5577 5.3509 C 9.8714 5.3509 9.3124 6.2253 9.2958 7.3599 L 9.3567 7.8525 L 9.4619 8.2676 C 9.6611 8.9926 10.1149 9.5294 10.6739 9.5792 Z " stroke-width="5.534482955932617"/>
      <path id="ID0.4271305399015546" fill="#000" d="M 10.5743 6.2641 C 10.7736 6.2641 10.9562 6.3969 11.089 6.6183 C 11.2218 6.8341 11.3049 7.133 11.3049 7.4651 C 11.3049 7.7971 11.2218 8.096 11.089 8.3118 C 10.9562 8.5332 10.7736 8.6661 10.5743 8.6661 C 10.3751 8.6661 10.1924 8.5332 10.0596 8.3118 C 9.9268 8.096 9.8438 7.7971 9.8438 7.4651 C 9.8438 7.133 9.9268 6.8341 10.0596 6.6183 C 10.1924 6.3969 10.3751 6.2641 10.5743 6.2641 Z " stroke-width="5.534482955932617"/>
      <path id="ID0.7342770579271019" fill="#fff" d="M 10.5743 6.6958 C 10.6629 6.6958 10.7403 6.7234 10.7957 6.7733 C 10.8566 6.8175 10.8898 6.8839 10.8898 6.9559 C 10.8898 7.0278 10.8566 7.0943 10.7957 7.1385 C 10.7403 7.1883 10.6629 7.216 10.5743 7.216 C 10.4858 7.216 10.4083 7.1883 10.3529 7.1385 C 10.2921 7.0943 10.2588 7.0278 10.2588 6.9559 C 10.2588 6.8839 10.2921 6.8175 10.3529 6.7733 C 10.4083 6.7234 10.4858 6.6958 10.5743 6.6958 Z " stroke-width="5.534482955932617"/>
    </g>
    <g id="Eyes1">
      <path id="ID0.6976815098896623" fill="#fff" d="M 5.3387 9.6955 L 5.2225 9.7342 C 4.3812 9.7342 3.6949 8.6052 3.6949 7.216 C 3.6949 5.8269 4.3812 4.6978 5.2225 4.6978 C 6.0637 4.6978 6.75 5.8269 6.75 7.216 L 6.7168 7.4761 C 6.6946 6.3416 6.1357 5.4671 5.4549 5.4671 C 4.741 5.4671 4.1598 6.4246 4.1598 7.6034 C 4.1598 8.7103 4.6746 9.618 5.3387 9.6955 Z " stroke-width="5.534482955932617"/>
      <path id="ID0.6859095129184425" fill="#64c3ea" d="M 5.3387 9.6955 C 4.6746 9.618 4.1598 8.7103 4.1598 7.6034 C 4.1598 6.4246 4.741 5.4671 5.4549 5.4671 C 6.1357 5.4671 6.6946 6.3416 6.7168 7.4761 L 6.6559 7.9687 L 6.5507 8.3838 C 6.3515 9.1088 5.8977 9.6457 5.3387 9.6955 Z " stroke-width="5.534482955932617"/>
      <path id="ID0.6193244294263422" fill="#000" d="M 5.4383 6.3803 C 5.6376 6.3803 5.8202 6.5131 5.953 6.7345 C 6.0858 6.9504 6.1689 7.2492 6.1689 7.5813 C 6.1689 7.9134 6.0858 8.2122 5.953 8.4281 C 5.8202 8.6494 5.6376 8.7823 5.4383 8.7823 C 5.2391 8.7823 5.0564 8.6494 4.9236 8.4281 C 4.7908 8.2122 4.7078 7.9134 4.7078 7.5813 C 4.7078 7.2492 4.7908 6.9504 4.9236 6.7345 C 5.0564 6.5131 5.2391 6.3803 5.4383 6.3803 Z " stroke-width="5.534482955932617"/>
      <path id="ID0.3391069662757218" fill="#fff" d="M 5.4383 6.812 C 5.5269 6.812 5.6043 6.8397 5.6597 6.8895 C 5.7206 6.9338 5.7538 7.0002 5.7538 7.0721 C 5.7538 7.1441 5.7206 7.2105 5.6597 7.2548 C 5.6043 7.3046 5.5269 7.3322 5.4383 7.3322 C 5.3498 7.3322 5.2723 7.3046 5.2169 7.2548 C 5.1561 7.2105 5.1228 7.1441 5.1228 7.0721 C 5.1228 7.0002 5.1561 6.9338 5.2169 6.8895 C 5.2723 6.8397 5.3498 6.812 5.4383 6.812 Z " stroke-width="5.534482955932617"/>
    </g>
    <path id="Body" fill="#fc0200" d="M 15.976 4.0282 C 15.976 1.831 14.0832 0.0433 11.9192 0.0433 L 4.0934 0.0433 C 1.9294 0.0433 0.0367 1.831 0.0367 4.0282 L 15.976 4.0282 Z " stroke-width="5.534482955932617"/>
    <path id="ID0.8723073131404817" fill="#fc0200" d="M 3.9163 15.9605 L 7.9676 15.9826 L 4.0934 15.9826 L 3.9163 15.9605 Z " stroke-width="5.534482955932617"/>
    <path id="ID0.9262291137129068" fill="#fc0200" d="M 11.9192 15.9826 L 7.9676 15.9826 L 12.1572 15.9494 L 11.9192 15.9826 Z " stroke-width="5.534482955932617"/>
    <path id="ID0.675919224973768" fill="#fc0200" d="M 1.8132 15.2908 C 1.0052 14.7761 0.413 13.957 0.175 12.994 L 15.8321 12.994 C 15.5886 13.9736 14.9798 14.8038 14.1662 15.313 C 13.9669 14.9588 11.2606 14.6931 7.9676 14.6931 C 4.824 14.6931 2.2228 14.9311 1.8132 15.2908 Z " stroke-width="5.534482955932617"/>
    <path id="ID0.005985030438750982" fill="#fff" d="M 8.0063 0.3367 C 8.7147 0.3367 9.3567 0.5248 9.8216 0.8348 C 10.2865 1.1447 10.5743 1.5653 10.5743 2.0357 C 10.5743 2.5062 10.2865 2.9268 9.8216 3.2367 C 9.3567 3.5467 8.7147 3.7348 8.0063 3.7348 C 7.2979 3.7348 6.6559 3.5467 6.191 3.2367 C 5.7261 2.9268 5.4383 2.5062 5.4383 2.0357 C 5.4383 1.5653 5.7261 1.1447 6.191 0.8348 C 6.6559 0.5248 7.2979 0.3367 8.0063 0.3367 Z " stroke-width="5.534482955932617"/>
    <g id="ID0.3252180474810302">
      <path id="ID0.35429435037076473" fill="#ff0200" d="M 7.4971 1.8476 L 7.3477 0.9842 L 6.5507 2.6777 L 7.0488 3.0928 L 7.4971 1.8476 Z " stroke-width="5.534482955932617"/>
      <path id="ID0.9919335595332086" fill="#ff0200" d="M 7.4916 1.8642 L 7.3422 0.9842 L 8.0118 1.7424 L 8.0063 2.4287 L 7.4916 1.8642 Z " stroke-width="5.534482955932617"/>
      <g id="ID0.29928702441975474">
        <path id="ID0.09025291074067354" fill="#ff0200" d="M 8.5155 1.8531 L 8.6649 0.9842 L 9.4619 2.6777 L 8.9638 3.0928 L 8.5155 1.8531 Z " stroke-width="5.534482955932617"/>
        <path id="ID0.6816774471662939" fill="#ff0200" d="M 8.521 1.8642 L 8.6649 0.9842 L 7.9952 1.7424 L 8.0063 2.4287 L 8.521 1.8642 Z " stroke-width="5.534482955932617"/>
      </g>
    </g>
    <path id="ID0.24770027538761497" fill="#461e0d" d="M 11.1942 10.2434 C 11.3823 10.0607 11.7698 9.7729 12.0188 9.9168 C 12.8268 10.3873 13.408 9.4409 13.3914 9.6512 C 13.3582 10.0441 13.2751 11.0902 12.6719 11.4776 C 12.4616 11.6104 12.1129 11.8041 11.8472 11.8041 C 11.9801 11.8982 11.8472 12.0974 11.5539 12.2579 C 11.2551 12.4129 10.9064 12.4682 10.768 12.3797 C 10.7348 12.5347 10.447 12.7394 10.1205 12.828 C 9.7995 12.9221 9.5615 12.8667 9.5892 12.7062 C 9.401 12.8889 9.0302 13.0383 8.7645 13.0383 C 8.4989 13.0383 8.438 12.8889 8.6262 12.7062 C 8.3328 12.8667 7.9786 12.9221 7.8458 12.828 C 7.7074 12.7394 7.8403 12.5347 8.1391 12.3797 C 7.8126 12.4682 7.5746 12.4129 7.6078 12.2579 C 7.6355 12.0974 7.9233 11.8982 8.2498 11.8041 C 7.9842 11.8041 7.9233 11.6602 8.1115 11.4776 C 8.3052 11.2949 8.6704 11.1455 8.9361 11.1455 C 8.8033 11.0569 8.9361 10.8522 9.2294 10.6972 C 9.5283 10.5367 9.877 10.4869 10.0153 10.5754 C 10.0485 10.4149 10.3363 10.2157 10.6629 10.1272 C 10.9839 10.0331 11.2218 10.0884 11.1942 10.2434 Z " stroke-width="5.534482955932617"/>
    <path id="ID0.4303370313718915" fill="#461e0d" d="M 4.8184 10.2434 C 4.6303 10.0607 4.2373 9.7729 3.9938 9.9168 C 3.1802 10.3873 2.6047 9.4409 2.6213 9.6512 C 2.6489 10.0441 2.7375 11.0902 3.3407 11.4776 C 3.5511 11.6104 3.8997 11.8041 4.1654 11.8041 C 4.0326 11.8982 4.1598 12.0974 4.4587 12.2579 C 4.7576 12.4129 5.1062 12.4682 5.2446 12.3797 C 5.2723 12.5347 5.5656 12.7394 5.8866 12.828 C 6.2131 12.9221 6.4511 12.8667 6.4179 12.7062 C 6.6116 12.8889 6.9769 13.0383 7.2481 13.0383 C 7.5137 13.0383 7.5746 12.8889 7.3809 12.7062 C 7.6798 12.8667 8.034 12.9221 8.1668 12.828 C 8.3052 12.7394 8.1723 12.5347 7.8735 12.3797 C 8.2 12.4682 8.438 12.4129 8.4048 12.2579 C 8.3771 12.0974 8.0838 11.8982 7.7628 11.8041 C 8.0284 11.8041 8.0893 11.6602 7.9012 11.4776 C 7.7074 11.2949 7.3366 11.1455 7.071 11.1455 C 7.2093 11.0569 7.0765 10.8522 6.7777 10.6972 C 6.4843 10.5367 6.1301 10.4869 5.9973 10.5754 C 5.9641 10.4149 5.6763 10.2157 5.3498 10.1272 C 5.0288 10.0331 4.7852 10.0884 4.8184 10.2434 Z " stroke-width="5.534482955932617"/>
    <path id="ID0.7109155231155455" fill="url(#grad_1-.534482955932617,0,0,5.534482955932617,-0.55,-0.25)" d="M 8.0063 8.6661 C 8.6926 8.6661 9.318 8.8819 9.7663 9.225 C 10.2201 9.5682 10.4968 10.0441 10.4968 10.5699 C 10.4968 11.0957 10.2201 11.5717 9.7663 11.9148 C 9.318 12.2579 8.6926 12.4738 8.0063 12.4738 C 7.32 12.4738 6.6946 12.2579 6.2463 11.9148 C 5.7925 11.5717 5.5158 11.0957 5.5158 10.5699 C 5.5158 10.0441 5.7925 9.5682 6.2463 9.225 C 6.6946 8.8819 7.32 8.6661 8.0063 8.6661 Z " stroke-width="5.534482955932617"/>
    <path id="ID0.8018726222217083" fill="#0067ff" d="M 3.9219 12.994 L 5.5158 12.994 L 5.5158 15.9826 L 3.9219 15.9826 L 3.9219 12.994 Z " stroke-width="5.534482955932617"/>
    <path id="ID0.7794288843870163" fill="#0067ff" d="M 10.6075 12.994 L 12.2014 12.994 L 12.2014 15.9826 L 10.6075 15.9826 L 10.6075 12.994 Z " stroke-width="5.534482955932617"/>
    <path id="ID0.8548665745183825" fill="#ffe600" d="M 4.7188 13.1268 C 4.8738 13.1268 5.0177 13.1933 5.1228 13.2929 C 5.2225 13.398 5.2889 13.5419 5.2889 13.6969 C 5.2889 13.8519 5.2225 13.9958 5.1228 14.1009 C 5.0177 14.2005 4.8738 14.2669 4.7188 14.2669 C 4.5639 14.2669 4.42 14.2005 4.3148 14.1009 C 4.2152 13.9958 4.1488 13.8519 4.1488 13.6969 C 4.1488 13.5419 4.2152 13.398 4.3148 13.2929 C 4.42 13.1933 4.5639 13.1268 4.7188 13.1268 Z " stroke-width="5.534482955932617"/>
    <path id="ID0.6598738902248442" fill="#ffe600" d="M 11.4045 13.1268 C 11.5594 13.1268 11.7033 13.1933 11.8085 13.2929 C 11.9081 13.398 11.9745 13.5419 11.9745 13.6969 C 11.9745 13.8519 11.9081 13.9958 11.8085 14.1009 C 11.7033 14.2005 11.5594 14.2669 11.4045 14.2669 C 11.2495 14.2669 11.1056 14.2005 11.0005 14.1009 C 10.9008 13.9958 10.8344 13.8519 10.8344 13.6969 C 10.8344 13.5419 10.9008 13.398 11.0005 13.2929 C 11.1056 13.1933 11.2495 13.1268 11.4045 13.1268 Z " stroke-width="5.534482955932617"/>
    <path id="ID0.3375800675712526" fill="#0067ff" d="M 1.8132 15.2908 C 2.2228 14.9311 4.824 14.6931 7.9676 14.6931 C 11.2606 14.6931 13.9669 14.9588 14.1662 15.313 C 13.8452 15.5399 13.491 15.7004 13.1202 15.8055 C 13.1202 15.8055 12.6387 15.966 12.207 15.9771 C 11.3491 16.0048 7.9676 15.9826 7.9676 15.9826 C 7.9676 15.9826 4.7963 16.0048 3.9495 15.9826 C 3.3186 15.9716 2.8924 15.8055 2.8924 15.8055 C 2.4995 15.6948 2.1342 15.5233 1.8132 15.2908 Z " stroke-width="5.534482955932617"/>
  </g>
</svg>