<svg version="1.1" width="53.25" height="53.093997955322266" viewBox="-0.375 0.218999981880188 53.25 53.093997955322266" xmlns="http://www.w3.org/2000/svg" xmlns:xlink="http://www.w3.org/1999/xlink">
  <!-- Exported by Scratch - http://scratch.mit.edu/ -->
  <g id="ID0.7799495258368552">
    <g id="layer1">
      <path id="path3082" fill="#666666" stroke="none" d="M 12.188 0.719 C 10.383 0.719 8.758 0.996 7.281 1.594 C 5.805 2.191 4.523 3.082 3.469 4.219 C 2.414 5.356 1.586 6.734 1 8.375 C 0.414 10.016 0.125 11.883 0.125 13.969 C 0.125 15.867 0.41 17.578 0.938 19.125 C 1.465 20.672 2.223 22.012 3.219 23.125 C 4.215 24.238 5.414 25.109 6.844 25.719 C 8.273 26.328 9.875 26.625 11.656 26.625 C 13.461 26.625 15.098 26.281 16.563 25.625 C 18.027 24.969 19.281 24.066 20.313 22.906 C 21.344 21.746 22.145 20.375 22.719 18.781 C 23.293 17.188 23.594 15.43 23.594 13.531 C 23.594 11.516 23.309 9.738 22.781 8.156 C 22.254 6.574 21.516 5.227 20.531 4.125 C 19.547 3.023 18.344 2.18 16.938 1.594 C 15.531 1.008 13.945 0.719 12.188 0.719 Z M 39.469 1.625 L 8.156 52.75 L 12.406 52.75 L 43.688 1.625 L 39.469 1.625 Z M 12.063 4.094 C 14.406 4.094 16.234 4.902 17.594 6.531 C 18.953 8.16 19.656 10.492 19.656 13.563 C 19.656 15.039 19.477 16.398 19.125 17.594 C 18.773 18.789 18.25 19.813 17.594 20.656 C 16.937 21.5 16.148 22.137 15.188 22.594 C 14.227 23.051 13.117 23.281 11.875 23.281 C 9.414 23.281 7.496 22.438 6.125 20.75 C 4.754 19.063 4.062 16.742 4.063 13.813 C 4.062 12.289 4.25 10.926 4.625 9.719 C 5 8.512 5.539 7.488 6.219 6.656 C 6.898 5.824 7.723 5.195 8.719 4.75 C 9.715 4.305 10.844 4.094 12.063 4.094 Z M 41 26.875 C 39.219 26.875 37.582 27.172 36.094 27.781 C 34.605 28.391 33.305 29.258 32.25 30.406 C 31.195 31.555 30.398 32.953 29.813 34.594 C 29.227 36.234 28.937 38.094 28.938 40.156 C 28.937 42.055 29.211 43.785 29.75 45.344 C 30.289 46.902 31.035 48.211 32.031 49.313 C 33.027 50.414 34.258 51.297 35.688 51.906 C 37.117 52.516 38.711 52.813 40.469 52.813 C 42.273 52.813 43.91 52.488 45.375 51.844 C 46.84 51.199 48.062 50.285 49.094 49.125 C 50.125 47.965 50.926 46.594 51.5 45 C 52.074 43.406 52.375 41.648 52.375 39.75 C 52.375 37.734 52.121 35.949 51.594 34.344 C 51.066 32.738 50.297 31.383 49.313 30.281 C 48.328 29.18 47.125 28.336 45.719 27.75 C 44.312 27.164 42.758 26.875 41 26.875 Z M 40.844 30.313 C 43.211 30.313 45.078 31.113 46.438 32.719 C 47.797 34.324 48.469 36.656 48.469 39.75 C 48.469 41.25 48.301 42.617 47.938 43.813 C 47.574 45.008 47.043 46.031 46.375 46.875 C 45.707 47.719 44.898 48.367 43.938 48.813 C 42.977 49.258 41.875 49.469 40.656 49.469 C 39.437 49.469 38.367 49.246 37.406 48.813 C 36.445 48.379 35.637 47.777 34.969 46.969 C 34.301 46.16 33.769 45.141 33.406 43.969 C 33.043 42.797 32.875 41.484 32.875 40.031 C 32.875 38.508 33.062 37.145 33.438 35.938 C 33.812 34.731 34.34 33.738 35.031 32.906 C 35.723 32.074 36.547 31.414 37.531 30.969 C 38.516 30.523 39.625 30.313 40.844 30.313 Z " stroke-width="1"/>
    </g>
  </g>
</svg>