<svg version="1.1" width="28.187002182006836" height="65.125" viewBox="0.43799763917922974 -0.2810000032186508 28.187002182006836 65.125" xmlns="http://www.w3.org/2000/svg" xmlns:xlink="http://www.w3.org/1999/xlink">
  <!-- Exported by Scratch - http://scratch.mit.edu/ -->
  <g id="ID0.9951681438833475">
    <g id="layer1">
      <path id="path3056" fill="#666666" stroke="none" d="M 12.813 0.219 L 12.813 6.594 C 11.078 6.852 9.516 7.336 8.063 8.063 C 6.609 8.789 5.336 9.719 4.281 10.844 C 3.227 11.969 2.398 13.273 1.813 14.75 C 1.227 16.227 0.937 17.828 0.938 19.563 C 0.937 21.555 1.297 23.25 2 24.656 C 2.703 26.063 3.625 27.289 4.75 28.344 C 5.875 29.398 7.145 30.348 8.563 31.156 C 9.98 31.965 11.383 32.766 12.813 33.563 L 12.813 53.063 C 11.805 53.063 10.785 52.988 9.719 52.813 C 8.652 52.637 7.605 52.371 6.563 52.031 C 5.52 51.691 4.531 51.281 3.594 50.813 C 2.656 50.344 1.773 49.805 1 49.219 L 1 54.094 C 4.211 56.039 8.148 57 12.813 57 L 12.813 64.344 L 16.031 64.344 L 16.031 56.781 C 17.93 56.5 19.625 56.008 21.125 55.281 C 22.625 54.555 23.906 53.652 24.938 52.563 C 25.969 51.473 26.73 50.219 27.281 48.813 C 27.832 47.406 28.125 45.891 28.125 44.25 C 28.125 42.867 27.93 41.578 27.531 40.406 C 27.133 39.234 26.469 38.09 25.531 37 C 24.594 35.91 23.328 34.828 21.781 33.75 C 20.234 32.672 18.328 31.586 16.031 30.438 L 16.031 10.469 C 19.805 10.539 22.914 11.391 25.375 13.031 L 25.375 8.406 C 24.297 7.867 22.984 7.445 21.438 7.094 C 19.891 6.742 18.094 6.516 16.031 6.469 L 16.031 0.219 L 12.813 0.219 Z M 12.813 10.594 L 12.813 28.625 C 11.383 27.828 10.207 27.09 9.281 26.375 C 8.355 25.66 7.645 24.906 7.094 24.156 C 6.543 23.406 6.129 22.613 5.906 21.781 C 5.684 20.949 5.594 20.031 5.594 19 C 5.594 16.773 6.23 14.914 7.531 13.438 C 8.832 11.961 10.586 11.016 12.813 10.594 Z M 16.031 35.313 C 17.391 36.086 18.551 36.836 19.5 37.563 C 20.449 38.289 21.195 39.02 21.781 39.781 C 22.367 40.543 22.793 41.336 23.063 42.156 C 23.332 42.977 23.469 43.875 23.469 44.813 C 23.469 46.945 22.867 48.699 21.625 50.094 C 20.383 51.488 18.516 52.406 16.031 52.875 L 16.031 35.313 Z " stroke-width="1"/>
    </g>
  </g>
</svg>