<svg version="1.1" width="80.0165023803711" height="16.389699935913086" viewBox="-0.047500014305114746 -0.018999993801116943 80.0165023803711 16.389699935913086" xmlns="http://www.w3.org/2000/svg" xmlns:xlink="http://www.w3.org/1999/xlink">
  <!-- Exported by Scratch - http://scratch.mit.edu/ -->
  <g id="ID0.0421473728492856">
    <g id="Mars Preset">
      <g id="ID0.4772082744166255">
        <path id="ID0.382621762342751" fill="white" d="M 79.469 4.3109 C 79.469 2.1969 77.7531 0.481 75.6388 0.481 L 4.2827 0.481 C 2.1685 0.481 0.4525 2.1969 0.4525 4.3109 L 0.4525 12.0408 C 0.4525 14.1548 2.1685 15.8707 4.2827 15.8707 L 75.6388 15.8707 C 77.7531 15.8707 79.469 14.1548 79.469 12.0408 L 79.469 4.3109 Z " stroke-width="0.902641895932372"/>
      </g>
      <g id="ID0.28633975936099887">
        <path id="ID0.3912266115657985" fill="rgb(101,168,231)" d="M 29.86 11.572 L 29.86 3.698 L 35.172 3.698 L 35.172 4.627 L 30.902 4.627 L 30.902 7.066 L 34.597 7.066 L 34.597 7.995 L 30.902 7.995 L 30.902 11.572 L 29.86 11.572 Z " stroke-width="1"/>
        <path id="ID0.3492321143858135" fill="rgb(101,168,231)" d="M 40.14 11.572 L 40.14 10.734 C 39.696 11.379 39.093 11.701 38.33 11.701 C 37.993 11.701 37.679 11.637 37.387 11.508 C 37.095 11.379 36.879 11.217 36.737 11.022 C 36.596 10.827 36.497 10.588 36.439 10.305 C 36.4 10.115 36.38 9.814 36.38 9.402 L 36.38 5.868 L 37.347 5.868 L 37.347 9.032 C 37.347 9.537 37.367 9.877 37.406 10.052 C 37.467 10.306 37.596 10.506 37.793 10.651 C 37.99 10.796 38.233 10.869 38.523 10.869 C 38.813 10.869 39.085 10.794 39.34 10.646 C 39.594 10.497 39.774 10.295 39.879 10.039 C 39.985 9.783 40.038 9.411 40.038 8.924 L 40.038 5.868 L 41.005 5.868 L 41.005 11.572 L 40.14 11.572 Z " stroke-width="1"/>
        <path id="ID0.755678272806108" fill="rgb(101,168,231)" d="M 42.519 11.572 L 42.519 5.868 L 43.389 5.868 L 43.389 6.679 C 43.808 6.053 44.414 5.739 45.205 5.739 C 45.549 5.739 45.865 5.801 46.153 5.925 C 46.441 6.048 46.657 6.21 46.8 6.411 C 46.943 6.611 47.044 6.849 47.101 7.125 C 47.137 7.304 47.155 7.617 47.155 8.065 L 47.155 11.572 L 46.188 11.572 L 46.188 8.103 C 46.188 7.709 46.15 7.414 46.075 7.219 C 46 7.024 45.866 6.868 45.675 6.752 C 45.483 6.635 45.259 6.577 45.001 6.577 C 44.589 6.577 44.234 6.708 43.935 6.969 C 43.636 7.231 43.486 7.727 43.486 8.457 L 43.486 11.572 L 42.519 11.572 Z " stroke-width="1"/>
        <path id="ID0.6300394590944052" fill="rgb(101,168,231)" d="M 49.153 9.617 L 48.857 5.444 L 48.857 3.698 L 50.055 3.698 L 50.055 5.444 L 49.776 9.617 L 49.153 9.617 Z M 48.9 11.572 L 48.9 10.471 L 50.012 10.471 L 50.012 11.572 L 48.9 11.572 Z " stroke-width="1"/>
      </g>
    </g>
  </g>
<defs/></svg>