<svg version="1.1" width="28.2189998626709" height="52.25" viewBox="0.375 0.09399998188018799 28.2189998626709 52.25" xmlns="http://www.w3.org/2000/svg" xmlns:xlink="http://www.w3.org/1999/xlink">
  <!-- Exported by Scratch - http://scratch.mit.edu/ -->
  <g id="ID0.9668820444494486">
    <g id="layer1">
      <path id="path3078" fill="#666666" stroke="none" d="M 3.906 0.594 L 2.344 25.219 C 5.672 24.938 8.25 24.813 10.031 24.813 C 14.461 24.813 17.789 25.773 20.063 27.719 C 22.336 29.664 23.469 32.484 23.469 36.188 C 23.469 37.945 23.18 39.578 22.594 41.031 C 22.008 42.484 21.184 43.719 20.094 44.75 C 19.004 45.781 17.672 46.563 16.125 47.125 C 14.578 47.688 12.859 47.969 10.938 47.969 C 7.586 47.969 4.227 46.984 0.875 44.969 L 0.875 49.875 C 3.312 51.188 6.602 51.844 10.75 51.844 C 13.492 51.844 15.937 51.461 18.094 50.688 C 20.25 49.914 22.086 48.813 23.563 47.406 C 25.039 46 26.164 44.313 26.938 42.344 C 27.711 40.375 28.094 38.203 28.094 35.813 C 28.094 33.469 27.727 31.383 27 29.531 C 26.273 27.68 25.219 26.102 23.813 24.813 C 22.406 23.523 20.676 22.535 18.625 21.844 C 16.574 21.152 14.203 20.813 11.531 20.813 C 10.336 20.813 8.727 20.859 6.688 21 L 7.719 4.656 L 25.875 4.656 L 25.875 0.594 L 3.906 0.594 Z " stroke-width="1"/>
    </g>
  </g>
</svg>