<svg version="1.1" width="48.406002044677734" height="53.125" viewBox="0.3129986524581909 0.25 48.406002044677734 53.125" xmlns="http://www.w3.org/2000/svg" xmlns:xlink="http://www.w3.org/1999/xlink">
  <!-- Exported by Scratch - http://scratch.mit.edu/ -->
  <g id="ID0.7105250144377351">
    <g id="layer1">
      <path id="path3324" fill="#666666" stroke="none" d="M 25.188 0.75 C 21.32 0.75 17.898 1.387 14.875 2.688 C 11.852 3.988 9.273 5.824 7.188 8.156 C 5.102 10.488 3.527 13.262 2.438 16.531 C 1.348 19.801 0.812 23.406 0.813 27.344 C 0.812 30.906 1.348 34.238 2.438 37.344 C 3.527 40.449 5.098 43.172 7.125 45.469 C 9.152 47.766 11.594 49.582 14.5 50.906 C 17.406 52.231 20.68 52.875 24.313 52.875 C 28.18 52.875 31.598 52.203 34.563 50.844 C 37.527 49.484 40.035 47.609 42.063 45.219 C 44.09 42.828 45.613 39.988 46.656 36.719 C 47.699 33.449 48.219 29.914 48.219 26.094 C 48.219 22.461 47.691 19.094 46.625 16 C 45.559 12.906 44.023 10.23 42.031 7.969 C 40.039 5.707 37.648 3.934 34.813 2.656 C 31.977 1.379 28.75 0.75 25.188 0.75 Z M 24.719 5 C 28 5 30.812 5.59 33.156 6.75 C 35.5 7.91 37.426 9.457 38.938 11.438 C 40.449 13.418 41.566 15.758 42.281 18.406 C 42.996 21.055 43.344 23.828 43.344 26.781 C 43.344 29.945 42.934 32.891 42.125 35.563 C 41.316 38.234 40.125 40.535 38.531 42.469 C 36.937 44.402 34.941 45.91 32.563 47 C 30.184 48.09 27.422 48.625 24.281 48.625 C 21.141 48.625 18.406 48.039 16.063 46.844 C 13.719 45.648 11.785 44.035 10.25 42.031 C 8.715 40.027 7.543 37.707 6.781 35.094 C 6.02 32.48 5.664 29.766 5.688 26.906 C 5.711 23.906 6.137 21.066 6.969 18.406 C 7.801 15.746 9.039 13.418 10.656 11.438 C 12.273 9.457 14.238 7.91 16.594 6.75 C 18.949 5.59 21.672 5 24.719 5 Z " stroke-width="1"/>
    </g>
  </g>
</svg>