<svg version="1.1" width="23.39299964904785" height="23.39299964904785" viewBox="-0.16699999570846558 -0.5189999993890524 23.39299964904785 23.39299964904785" xmlns="http://www.w3.org/2000/svg" xmlns:xlink="http://www.w3.org/1999/xlink">
  <!-- Exported by Scratch - http://scratch.mit.edu/ -->
  <g id="My Levels Button">
    <path id="ID0.8489499525167048" fill="#fff" d="M 22.726 11.177 C 22.726 4.998 17.709 -0.019 11.53 -0.019 C 5.35 -0.019 0.333 4.998 0.333 11.177 C 0.333 17.357 5.35 22.374 11.53 22.374 C 17.709 22.374 22.726 17.357 22.726 11.177 Z " stroke-width="1"/>
    <g id="Avatar">
      <path id="ID0.7700914624147117" fill="#6FD57E" d="M 11.53 5.473 C 12.436 5.473 13.257 5.841 13.851 6.435 C 14.445 7.029 14.813 7.85 14.813 8.756 C 14.813 9.662 14.445 10.483 13.851 11.077 C 13.257 11.671 12.436 12.039 11.53 12.039 C 10.624 12.039 9.803 11.671 9.209 11.077 C 8.615 10.483 8.247 9.662 8.247 8.756 C 8.247 7.85 8.615 7.029 9.209 6.435 C 9.803 5.841 10.624 5.473 11.53 5.473 Z " stroke-width="1"/>
      <path id="ID0.23712382791563869" fill="#6FD57E" d="M 11.53 12.459 C 14.886 12.459 17.611 13.357 17.611 15.525 C 17.611 17.693 14.886 19.453 11.53 19.453 C 8.174 19.453 5.449 17.693 5.449 15.525 C 5.449 13.357 8.174 12.459 11.53 12.459 Z " stroke-width="1"/>
    </g>
  </g>
</svg>