<svg version="1.1" width="16.999999046325684" height="17" viewBox="-0.44999999925494194 -0.5 16.999999046325684 17" xmlns="http://www.w3.org/2000/svg" xmlns:xlink="http://www.w3.org/1999/xlink">
  <!-- Exported by Scratch - http://scratch.mit.edu/ -->
  <g id="Basic Block">
    <path id="ID0.20500028179958463" fill="#B2B2B2" d="M 16.05 4 C 16.05 1.7927 14.2573 0 12.05 0 L 4.05 0 C 1.8427 0 0.05 1.7927 0.05 4 L 0.05 12 C 0.05 14.2073 1.8427 16 4.05 16 L 12.05 16 C 14.2573 16 16.05 14.2073 16.05 12 L 16.05 4 Z " stroke-width="0.6666667461395264"/>
    <path id="ID0.13684633001685143" fill="#666666" d="M 4.05 16 L 3.9467 15.9987 L 3.844 15.9947 L 3.7427 15.988 L 3.6413 15.9793 L 3.5407 15.968 L 3.4413 15.954 L 3.342 15.9373 L 3.244 15.9187 L 3.1473 15.8973 L 3.0507 15.874 L 2.9553 15.848 L 2.8613 15.82 L 2.7673 15.79 L 2.6753 15.7573 L 2.584 15.7227 L 2.4933 15.6853 L 2.4047 15.6467 L 2.3167 15.6053 L 2.2293 15.562 L 2.144 15.5167 L 2.0593 15.47 L 1.9767 15.4207 L 1.8947 15.3693 L 1.814 15.3167 L 1.7353 15.2613 L 1.6573 15.2047 L 1.5813 15.1467 L 1.506 15.086 L 1.4327 15.024 L 1.3613 14.9607 L 1.2907 14.8947 L 1.222 14.828 L 1.1553 14.7593 L 1.0893 14.6887 L 1.026 14.6173 L 0.964 14.544 L 0.9033 14.4687 L 0.8453 14.3927 L 0.7887 14.3147 L 0.7333 14.236 L 0.6807 14.1553 L 0.6293 14.0733 L 0.58 13.9907 L 0.5333 13.906 L 0.488 13.8207 L 0.4447 13.7333 L 0.4033 13.6453 L 0.3647 13.5567 L 0.3273 13.466 L 0.2927 13.3747 L 0.26 13.2827 L 0.23 13.1887 L 0.202 13.0947 L 0.176 12.9993 L 0.1527 12.9027 L 0.1313 12.806 L 0.1127 12.708 L 0.096 12.6087 L 0.082 12.5093 L 0.0707 12.4087 L 0.062 12.3073 L 0.0553 12.206 L 0.0513 12.1033 L 0.05 12 L 0.05 4 L 0.0513 3.8967 L 0.0553 3.794 L 0.062 3.6927 L 0.0707 3.5913 L 0.082 3.4907 L 0.096 3.3913 L 0.1127 3.292 L 0.1313 3.194 L 0.1527 3.0973 L 0.176 3.0007 L 0.202 2.9053 L 0.23 2.8113 L 0.26 2.7173 L 0.2927 2.6253 L 0.3273 2.534 L 0.3647 2.4433 L 0.4033 2.3547 L 0.4447 2.2667 L 0.488 2.1793 L 0.5333 2.094 L 0.58 2.0093 L 0.6293 1.9267 L 0.6807 1.8447 L 0.7333 1.764 L 0.7887 1.6853 L 0.8453 1.6073 L 0.9033 1.5313 L 0.964 1.456 L 1.026 1.3827 L 1.0893 1.3113 L 1.1553 1.2407 L 1.222 1.172 L 1.2907 1.1053 L 1.3613 1.0393 L 1.4327 0.976 L 1.506 0.914 L 1.5813 0.8533 L 1.6573 0.7953 L 1.7353 0.7387 L 1.814 0.6833 L 1.8947 0.6307 L 1.9767 0.5793 L 2.0593 0.53 L 2.144 0.4833 L 2.2293 0.438 L 2.3167 0.3947 L 2.4047 0.3533 L 2.4933 0.3147 L 2.584 0.2773 L 2.6753 0.2427 L 2.7673 0.21 L 2.8613 0.18 L 2.9553 0.152 L 3.0507 0.126 L 3.1473 0.1027 L 3.244 0.0813 L 3.342 0.0627 L 3.4413 0.046 L 3.5407 0.032 L 3.6413 0.0207 L 3.7427 0.012 L 3.844 0.0053 L 3.9467 0.0013 L 4.05 0 L 12.05 0 L 12.1533 0.0013 L 12.256 0.0053 L 12.3573 0.012 L 12.4587 0.0207 L 12.5593 0.032 L 12.6587 0.046 L 12.758 0.0627 L 12.856 0.0813 L 12.9527 0.1027 L 13.0493 0.126 L 13.1447 0.152 L 13.2387 0.18 L 13.3327 0.21 L 13.4247 0.2427 L 13.516 0.2773 L 13.6067 0.3147 L 13.6953 0.3533 L 13.7833 0.3947 L 13.8707 0.438 L 13.956 0.4833 L 14.0407 0.53 L 14.1233 0.5793 L 14.2053 0.6307 L 14.286 0.6833 L 14.3647 0.7387 L 14.4427 0.7953 L 14.5187 0.8533 L 14.594 0.914 L 14.6673 0.976 L 14.7387 1.0393 L 14.8093 1.1053 L 14.878 1.172 L 14.9447 1.2407 L 15.0107 1.3113 L 15.074 1.3827 L 15.136 1.456 L 15.1967 1.5313 L 15.2547 1.6073 L 15.3113 1.6853 L 15.3667 1.764 L 15.4193 1.8447 L 15.4707 1.9267 L 15.52 2.0093 L 15.5667 2.094 L 15.612 2.1793 L 15.6553 2.2667 L 15.6967 2.3547 L 15.7353 2.4433 L 15.7727 2.534 L 15.8073 2.6253 L 15.84 2.7173 L 15.87 2.8113 L 15.898 2.9053 L 15.924 3.0007 L 15.9473 3.0973 L 15.9687 3.194 L 15.9873 3.292 L 16.004 3.3913 L 16.018 3.4907 L 16.0293 3.5913 L 16.038 3.6927 L 16.0447 3.794 L 16.0487 3.8967 L 16.05 4 L 16.05 12 L 16.0487 12.1033 L 16.0447 12.206 L 16.038 12.3073 L 16.0293 12.4087 L 16.018 12.5093 L 16.004 12.6087 L 15.9873 12.708 L 15.9687 12.806 L 15.9473 12.9027 L 15.924 12.9993 L 15.898 13.0947 L 15.87 13.1887 L 15.84 13.2827 L 15.8073 13.3747 L 15.7727 13.466 L 15.7353 13.5567 L 15.6967 13.6453 L 15.6553 13.7333 L 15.612 13.8207 L 15.5667 13.906 L 15.52 13.9907 L 15.4707 14.0733 L 15.4193 14.1553 L 15.3667 14.236 L 15.3113 14.3147 L 15.2547 14.3927 L 15.1967 14.4687 L 15.136 14.544 L 15.074 14.6173 L 15.0107 14.6887 L 14.9447 14.7593 L 14.878 14.828 L 14.8093 14.8947 L 14.7387 14.9607 L 14.6673 15.024 L 14.594 15.086 L 14.5187 15.1467 L 14.4427 15.2047 L 14.3647 15.2613 L 14.286 15.3167 L 14.2053 15.3693 L 14.1233 15.4207 L 14.0407 15.47 L 13.956 15.5167 L 13.8707 15.562 L 13.7833 15.6053 L 13.6953 15.6467 L 13.6067 15.6853 L 13.516 15.7227 L 13.4247 15.7573 L 13.3327 15.79 L 13.2387 15.82 L 13.1447 15.848 L 13.0493 15.874 L 12.9527 15.8973 L 12.856 15.9187 L 12.758 15.9373 L 12.6587 15.954 L 12.5593 15.968 L 12.4587 15.9793 L 12.3573 15.988 L 12.256 15.9947 L 12.1533 15.9987 L 12.05 16 L 4.05 16 Z M 4.0587 14.6113 L 12.0413 14.6113 L 12.118 14.61 L 12.1853 14.6073 L 12.252 14.6033 L 12.318 14.5973 L 12.384 14.59 L 12.4487 14.5807 L 12.5133 14.57 L 12.5767 14.558 L 12.64 14.544 L 12.7027 14.5287 L 12.7647 14.512 L 12.826 14.494 L 12.8867 14.474 L 12.9467 14.4527 L 13.006 14.4307 L 13.0647 14.4067 L 13.1227 14.3807 L 13.18 14.354 L 13.2367 14.326 L 13.2927 14.2967 L 13.348 14.266 L 13.402 14.2333 L 13.4553 14.2 L 13.508 14.1653 L 13.56 14.13 L 13.6107 14.0927 L 13.6607 14.0547 L 13.7093 14.0147 L 13.7573 13.974 L 13.8047 13.9327 L 13.8507 13.8893 L 13.896 13.846 L 13.94 13.8007 L 13.9827 13.7547 L 14.024 13.7073 L 14.0647 13.6593 L 14.1047 13.6107 L 14.1427 13.5607 L 14.18 13.51 L 14.2153 13.458 L 14.25 13.4053 L 14.2833 13.352 L 14.316 13.298 L 14.3467 13.2427 L 14.376 13.1867 L 14.404 13.1307 L 14.4307 13.0727 L 14.4567 13.0147 L 14.48 12.956 L 14.5027 12.8967 L 14.524 12.8367 L 14.544 12.776 L 14.562 12.7147 L 14.5787 12.6527 L 14.594 12.5907 L 14.608 12.5267 L 14.62 12.4627 L 14.6307 12.3987 L 14.64 12.334 L 14.6473 12.268 L 14.6533 12.202 L 14.6573 12.1353 L 14.66 12.068 L 14.6613 11.9913 L 14.6613 4.0087 L 14.66 3.932 L 14.6573 3.8647 L 14.6533 3.798 L 14.6473 3.732 L 14.64 3.666 L 14.6307 3.6013 L 14.62 3.5373 L 14.608 3.4733 L 14.594 3.4093 L 14.5787 3.3473 L 14.562 3.2853 L 14.544 3.224 L 14.524 3.1633 L 14.5027 3.1033 L 14.48 3.044 L 14.4567 2.9853 L 14.4307 2.9273 L 14.404 2.8693 L 14.376 2.8133 L 14.3467 2.7573 L 14.316 2.702 L 14.2833 2.648 L 14.25 2.5947 L 14.2153 2.542 L 14.18 2.49 L 14.1427 2.4393 L 14.1047 2.3893 L 14.0647 2.3407 L 14.024 2.2927 L 13.9827 2.2453 L 13.94 2.1993 L 13.896 2.154 L 13.8507 2.1107 L 13.8047 2.0673 L 13.7573 2.026 L 13.7093 1.9853 L 13.6607 1.9453 L 13.6107 1.9073 L 13.56 1.87 L 13.508 1.8347 L 13.4553 1.8 L 13.402 1.7667 L 13.348 1.734 L 13.2927 1.7033 L 13.2367 1.674 L 13.18 1.646 L 13.1227 1.6193 L 13.0647 1.5933 L 13.006 1.5693 L 12.9467 1.5473 L 12.8867 1.526 L 12.826 1.506 L 12.7647 1.488 L 12.7027 1.4713 L 12.64 1.456 L 12.5767 1.442 L 12.5133 1.43 L 12.4487 1.4193 L 12.384 1.41 L 12.318 1.4027 L 12.252 1.3967 L 12.1853 1.3927 L 12.118 1.39 L 12.0413 1.3887 L 4.0587 1.3887 L 3.982 1.39 L 3.9147 1.3927 L 3.848 1.3967 L 3.782 1.4027 L 3.716 1.41 L 3.6513 1.4193 L 3.5867 1.43 L 3.5227 1.442 L 3.46 1.456 L 3.3973 1.4713 L 3.3353 1.488 L 3.274 1.506 L 3.2133 1.526 L 3.1533 1.5473 L 3.094 1.5693 L 3.0353 1.5933 L 2.9773 1.6193 L 2.92 1.646 L 2.8633 1.674 L 2.8073 1.7033 L 2.752 1.734 L 2.698 1.766 L 2.6447 1.8 L 2.592 1.8347 L 2.54 1.87 L 2.4893 1.9073 L 2.4393 1.9453 L 2.3907 1.9853 L 2.3427 2.026 L 2.2953 2.0673 L 2.2493 2.1107 L 2.204 2.154 L 2.1607 2.1993 L 2.1173 2.2453 L 2.076 2.2927 L 2.0353 2.3407 L 1.996 2.3893 L 1.9573 2.4393 L 1.92 2.49 L 1.884 2.542 L 1.85 2.5947 L 1.8167 2.648 L 1.784 2.702 L 1.7533 2.7573 L 1.724 2.8133 L 1.696 2.87 L 1.6693 2.9273 L 1.644 2.9847 L 1.6193 3.044 L 1.5973 3.1033 L 1.576 3.1633 L 1.556 3.224 L 1.538 3.2853 L 1.5213 3.3473 L 1.506 3.41 L 1.492 3.4727 L 1.48 3.5367 L 1.4693 3.6013 L 1.46 3.666 L 1.4527 3.7313 L 1.4467 3.798 L 1.4427 3.8647 L 1.44 3.932 L 1.4387 4.0087 L 1.4387 11.9913 L 1.44 12.068 L 1.4427 12.1353 L 1.4467 12.202 L 1.4527 12.2687 L 1.46 12.334 L 1.4693 12.3987 L 1.48 12.4633 L 1.492 12.5273 L 1.506 12.59 L 1.5213 12.6527 L 1.538 12.7147 L 1.556 12.776 L 1.576 12.8367 L 1.5973 12.8967 L 1.6193 12.956 L 1.644 13.0153 L 1.6693 13.0727 L 1.696 13.13 L 1.724 13.1867 L 1.7533 13.2427 L 1.784 13.298 L 1.8167 13.352 L 1.85 13.4053 L 1.884 13.458 L 1.92 13.51 L 1.9573 13.5607 L 1.996 13.6107 L 2.0353 13.6593 L 2.076 13.7073 L 2.1173 13.7547 L 2.1607 13.8007 L 2.204 13.846 L 2.2493 13.8893 L 2.2953 13.9327 L 2.3427 13.974 L 2.3907 14.0147 L 2.4393 14.0547 L 2.4893 14.0927 L 2.54 14.13 L 2.592 14.1653 L 2.6447 14.2 L 2.698 14.234 L 2.752 14.266 L 2.8073 14.2967 L 2.8633 14.326 L 2.92 14.354 L 2.9773 14.3807 L 3.0353 14.4067 L 3.094 14.4307 L 3.1533 14.4527 L 3.2133 14.474 L 3.274 14.494 L 3.3353 14.512 L 3.3973 14.5287 L 3.46 14.544 L 3.5227 14.558 L 3.5867 14.57 L 3.6513 14.5807 L 3.716 14.59 L 3.782 14.5973 L 3.848 14.6033 L 3.9147 14.6073 L 3.982 14.61 L 4.0587 14.6113 Z " stroke-width="0.6666667461395264"/>
  </g>
  <g id="ID0.3314868160523474">
    <path id="ID0.2542578340508044" fill="none" stroke="black" stroke-width="0.5600000667572022" d="M 10.2551 11.556 C 10.2551 11.556 10.0251 10.978 9.5261 10.616 C 9.0851 10.296 8.3951 10.186 8.0501 10.186 C 7.7051 10.186 7.028 10.282 6.588 10.602 C 6.089 10.964 5.845 11.556 5.845 11.556 C 6.092 10.761 6.986 10.171 8.0501 10.171 C 9.1141 10.171 10.0081 10.761 10.2551 11.556 Z "/>
  </g>
  <path id="ID0.7324265497736633" fill="none" stroke="#000000" stroke-width="1" stroke-linecap="round" d="M 5.5 4.45 L 10.55 6.4 "/>
  <path id="ID0.7324265497736633" fill="none" stroke="#000000" stroke-width="0.9999999981455687" stroke-linecap="round" d="M 5.5473 6.2644 L 10.618 4.3689 "/>
</svg>