<svg version="1.1" width="67.26639698744265" height="27.440299499039327" viewBox="-0.6581496106672097 0.29065037369505775 67.26639698744265 27.440299499039327" xmlns="http://www.w3.org/2000/svg" xmlns:xlink="http://www.w3.org/1999/xlink">
  <!-- Exported by Scratch - http://scratch.mit.edu/ -->
  <g id="ID0.03796483017504215">
    <path id="ID0.5629956251941621" fill="#65A8E7" d="M 13.0001 0.9989 C 9.4132 0.9989 6.1632 2.456 3.8102 4.809 C 1.4572 7.162 0.0001 10.412 0.0001 13.9989 C 0.0001 17.5858 1.4572 20.8358 3.8102 23.1888 C 6.1632 25.5418 9.4132 26.9989 13.0001 26.9989 C 16.587 26.9989 19.837 25.5418 22.19 23.1888 C 24.543 20.8358 26 17.5858 26 13.9989 C 26 10.412 24.543 7.162 22.19 4.809 C 19.837 2.456 16.587 0.9989 13.0001 0.9989 Z " stroke-width="1.0833300352096558"/>
  </g>
  <g id="ID0.03796483017504215">
    <path id="ID0.5629956251941621" fill="rgb(80,133,199)" d="M 33.0001 0.9989 C 29.4132 0.9989 26.1632 2.456 23.8102 4.809 C 21.4572 7.162 20.0001 10.412 20.0001 13.9989 C 20.0001 17.5858 21.4572 20.8358 23.8102 23.1888 C 26.1632 25.5418 29.4132 26.9989 33.0001 26.9989 C 36.587 26.9989 39.837 25.5418 42.19 23.1888 C 44.543 20.8358 46 17.5858 46 13.9989 C 46 10.412 44.543 7.162 42.19 4.809 C 39.837 2.456 36.587 0.9989 33.0001 0.9989 Z " stroke-width="1.0833300352096558"/>
  </g>
  <g id="ID0.03796483017504215">
    <path id="ID0.5629956251941621" fill="#65A8E7" d="M 52.9501 0.9489 C 49.3632 0.9489 46.1132 2.406 43.7602 4.759 C 41.4072 7.112 39.9501 10.362 39.9501 13.9489 C 39.9501 17.5358 41.4072 20.7858 43.7602 23.1388 C 46.1132 25.4918 49.3632 26.9489 52.9501 26.9489 C 56.537 26.9489 59.787 25.4918 62.14 23.1388 C 64.493 20.7858 65.95 17.5358 65.95 13.9489 C 65.95 10.362 64.493 7.112 62.14 4.759 C 59.787 2.406 56.537 0.9489 52.9501 0.9489 Z " stroke-width="1.0833300352096558"/>
  </g>
  <path id="ID0.4496537633240223" fill="#65A8E7" stroke="none" d="M 13.1246 0.9729 L 53.1745 0.9729 L 53.1745 27.0727 L 13.1246 27.0727 L 13.1246 0.9729 Z " stroke-width="1.316499221329367"/>
<defs/></svg>