<svg version="1.1" width="83.62446828542431" height="27.84836621938427" viewBox="-0.71218297808508 0.086617013522586 83.62446828542431 27.84836621938427" xmlns="http://www.w3.org/2000/svg" xmlns:xlink="http://www.w3.org/1999/xlink">
  <!-- Exported by Scratch - http://scratch.mit.edu/ -->
  <g id="ID0.03796483017504215">
    <path id="ID0.5629956251941621" fill="#65A8E7" d="M 13.1501 0.9989 C 9.5632 0.9989 6.3132 2.456 3.9602 4.809 C 1.6072 7.162 0.1501 10.412 0.1501 13.9989 C 0.1501 17.5858 1.6072 20.8358 3.9602 23.1888 C 6.3132 25.5418 9.5632 26.9989 13.1501 26.9989 C 16.737 26.9989 19.987 25.5418 22.34 23.1888 C 24.693 20.8358 26.15 17.5858 26.15 13.9989 C 26.15 10.412 24.693 7.162 22.34 4.809 C 19.987 2.456 16.737 0.9989 13.1501 0.9989 Z " stroke-width="1.0833300352096558"/>
  </g>
  <g id="ID0.03796483017504215">
    <path id="ID0.5629956251941621" fill="rgb(80,133,199)" d="M 41.0001 0.9989 C 37.4132 0.9989 34.1632 2.456 31.8102 4.809 C 29.4572 7.162 28.0001 10.412 28.0001 13.9989 C 28.0001 17.5858 29.4572 20.8358 31.8102 23.1888 C 34.1632 25.5418 37.4132 26.9989 41.0001 26.9989 C 44.587 26.9989 47.837 25.5418 50.19 23.1888 C 52.543 20.8358 54 17.5858 54 13.9989 C 54 10.412 52.543 7.162 50.19 4.809 C 47.837 2.456 44.587 0.9989 41.0001 0.9989 Z " stroke-width="1.0833300352096558"/>
  </g>
  <g id="ID0.03796483017504215">
    <path id="ID0.5629956251941621" fill="#65A8E7" d="M 69.0501 0.9489 C 65.4632 0.9489 62.2132 2.406 59.8602 4.759 C 57.5072 7.112 56.0501 10.362 56.0501 13.9489 C 56.0501 17.5358 57.5072 20.7858 59.8602 23.1388 C 62.2132 25.4918 65.4632 26.9489 69.0501 26.9489 C 72.637 26.9489 75.887 25.4918 78.24 23.1388 C 80.593 20.7858 82.05 17.5358 82.05 13.9489 C 82.05 10.362 80.593 7.112 78.24 4.759 C 75.887 2.406 72.637 0.9489 69.0501 0.9489 Z " stroke-width="1.0833300352096558"/>
  </g>
  <path id="ID0.4496537633240223" fill="#65A8E7" stroke="none" d="M 13.2719 0.9729 L 69.2776 0.9729 L 69.2776 27.0727 L 13.2719 27.0727 L 13.2719 0.9729 Z " stroke-width="1.7245659416743104"/>
<defs/></svg>