<svg version="1.1" width="27" height="27" viewBox="-0.44700002670288086 -0.375 27 27" xmlns="http://www.w3.org/2000/svg" xmlns:xlink="http://www.w3.org/1999/xlink">
  <!-- Exported by Scratch - http://scratch.mit.edu/ -->
  <g id="Control Bar Button">
    <path id="ID0.18967059161514044" fill="#6FD57E" d="M 13.053 0.125 C 16.640 0.125 19.890 1.582 22.243 3.935 C 24.596 6.288 26.053 9.538 26.053 13.125 C 26.053 16.712 24.596 19.962 22.243 22.315 C 19.890 24.668 16.640 26.125 13.053 26.125 C 9.466 26.125 6.216 24.668 3.863 22.315 C 1.510 19.962 0.053 16.712 0.053 13.125 C 0.053 9.538 1.510 6.288 3.863 3.935 C 6.216 1.582 9.466 0.125 13.053 0.125 Z " stroke-width="1"/>
    <g id="ID0.25962213706225157">
      <path id="ID0.12659822730347514" fill="#fff" d="M 9.104 13.042 C 9.104 12.787 8.897 12.581 8.642 12.581 L 7.676 12.581 C 7.421 12.581 7.214 12.787 7.214 13.042 L 7.214 13.966 C 7.214 14.220 7.421 14.427 7.676 14.427 L 8.642 14.427 C 8.897 14.427 9.104 14.220 9.104 13.966 L 9.104 13.042 Z " stroke-width="1"/>
      <path id="ID0.8784058662131429" fill="#fff" d="M 9.104 15.716 C 9.104 15.461 8.897 15.254 8.642 15.254 L 7.676 15.254 C 7.421 15.254 7.214 15.461 7.214 15.716 L 7.214 16.639 C 7.214 16.894 7.421 17.101 7.676 17.101 L 8.642 17.101 C 8.897 17.101 9.104 16.894 9.104 16.639 L 9.104 15.716 Z " stroke-width="1"/>
      <path id="ID0.8018185989931226" fill="#fff" d="M 9.104 10.175 C 9.104 9.921 8.897 9.714 8.642 9.714 L 7.676 9.714 C 7.421 9.714 7.214 9.921 7.214 10.175 L 7.214 11.099 C 7.214 11.354 7.421 11.560 7.676 11.560 L 8.642 11.560 C 8.897 11.560 9.104 11.354 9.104 11.099 L 9.104 10.175 Z " stroke-width="1"/>
      <path id="ID0.3132555135525763" fill="#fff" d="M 19.360 12.946 C 19.360 12.691 19.153 12.484 18.899 12.484 L 10.555 12.484 C 10.300 12.484 10.093 12.691 10.093 12.946 L 10.093 13.869 C 10.093 14.124 10.300 14.331 10.555 14.331 L 18.899 14.331 C 19.153 14.331 19.360 14.124 19.360 13.869 L 19.360 12.946 Z " stroke-width="1"/>
      <path id="ID0.5429456317797303" fill="#fff" d="M 19.360 15.619 C 19.360 15.364 19.153 15.157 18.899 15.157 L 10.555 15.157 C 10.300 15.157 10.093 15.364 10.093 15.619 L 10.093 16.542 C 10.093 16.797 10.300 17.004 10.555 17.004 L 18.899 17.004 C 19.153 17.004 19.360 16.797 19.360 16.542 L 19.360 15.619 Z " stroke-width="1"/>
      <path id="ID0.5911429226398468" fill="#fff" d="M 19.360 10.079 C 19.360 9.824 19.153 9.617 18.899 9.617 L 10.555 9.617 C 10.300 9.617 10.093 9.824 10.093 10.079 L 10.093 11.002 C 10.093 11.257 10.300 11.464 10.555 11.464 L 18.899 11.464 C 19.153 11.464 19.360 11.257 19.360 11.002 L 19.360 10.079 Z " stroke-width="1"/>
    </g>
  </g>
</svg>