<svg version="1.1" width="7.781000137329102" height="38.406002044677734" viewBox="0.25 -0.18700000643730164 7.781000137329102 38.406002044677734" xmlns="http://www.w3.org/2000/svg" xmlns:xlink="http://www.w3.org/1999/xlink">
  <!-- Exported by Scratch - http://scratch.mit.edu/ -->
  <g id="ID0.39177337661385536">
    <g id="layer1">
      <path id="path3278" fill="#666666" stroke="none" d="M 4.125 0.313 C 3.187 0.313 2.406 0.605 1.75 1.25 C 1.094 1.895 0.75 2.688 0.75 3.625 C 0.75 4.094 0.824 4.559 1 4.969 C 1.176 5.379 1.445 5.715 1.75 6.031 C 2.055 6.348 2.402 6.605 2.813 6.781 C 3.223 6.957 3.656 7.063 4.125 7.063 C 4.57 7.063 4.996 6.957 5.406 6.781 C 5.816 6.605 6.184 6.367 6.5 6.063 C 6.816 5.758 7.062 5.41 7.25 5 C 7.437 4.59 7.531 4.117 7.531 3.625 C 7.531 3.133 7.437 2.691 7.25 2.281 C 7.062 1.871 6.816 1.512 6.5 1.219 C 6.184 0.926 5.816 0.695 5.406 0.531 C 4.996 0.367 4.57 0.313 4.125 0.313 Z M 4.125 30.906 C 3.164 30.906 2.363 31.25 1.719 31.906 C 1.074 32.563 0.75 33.383 0.75 34.344 C 0.75 35.281 1.094 36.063 1.75 36.719 C 2.406 37.375 3.187 37.719 4.125 37.719 C 4.594 37.719 5.027 37.613 5.438 37.438 C 5.848 37.262 6.195 37.023 6.5 36.719 C 6.805 36.414 7.062 36.066 7.25 35.656 C 7.437 35.246 7.531 34.812 7.531 34.344 C 7.531 33.852 7.437 33.391 7.25 32.969 C 7.062 32.547 6.805 32.168 6.5 31.875 C 6.195 31.582 5.848 31.363 5.438 31.188 C 5.027 31.012 4.594 30.906 4.125 30.906 Z " stroke-width="1"/>
    </g>
  </g>
</svg>