<svg version="1.1" width="44.571398620433385" height="11.665998344249301" viewBox="1.0056762076284624 -0.11132461062410104 44.571398620433385 11.665998344249301" xmlns="http://www.w3.org/2000/svg" xmlns:xlink="http://www.w3.org/1999/xlink">
  <!-- Exported by Scratch - http://scratch.mit.edu/ -->
  <path id="ID0.1349430033005774" fill="#EA5F61" stroke="none" d="M 39.9873 0.8899 C 41.3877 0.8899 42.6565 1.4584 43.5751 2.3771 C 44.4938 3.2957 45.0623 4.5644 45.0623 5.9649 C 45.0623 7.3653 44.4938 8.634 43.5751 9.5527 C 42.6565 10.4713 41.3877 11.0399 39.9873 11.0399 C 38.5869 11.0399 37.3182 10.4713 36.3995 9.5527 C 35.4809 8.634 34.9123 7.3653 34.9123 5.9649 C 34.9123 4.5644 35.4809 3.2957 36.3995 2.3771 C 37.3182 1.4584 38.5869 0.8899 39.9873 0.8899 Z " stroke-width="0.7355072498321533"/>
  <path id="ID0.579712871927768" fill="none" stroke="#FFFFFF" stroke-width="1.0000000436543715" stroke-linecap="round" d="M 37.8078 3.9438 L 42.2046 8.2747 "/>
  <path id="ID0.579712871927768" fill="none" stroke="#FFFFFF" stroke-width="1.0000000436543715" stroke-linecap="round" d="M 42.3062 3.9578 L 37.9753 8.3546 "/>
  <text id="ID0.8497966309078038" fill="#EA5F61" text-anchor="start" font-family="Sans Serif" font-size="22" transform="matrix(0.310225, 0, 0, 0.310225, 1.52045, 0.369324)" stroke-width="1" alignment-baseline="text-before-edge" xml:space="preserve"><tspan x="0" style="white-space: pre" dy="1.13em">Delete</tspan></text>
  <path id="ID0.5437490027397871" fill="none" stroke="#EA5F61" stroke-width="1.0295475767322109" stroke-linecap="round" d="M 26.7339 3.1405 L 29.6093 6.4024 L 26.7339 9.3381 "/>
</svg>