<svg version="1.1" width="27.09490203857422" height="27.094900131225586" viewBox="0.4432992935180664 0.3726999759674072 27.09490203857422 27.094900131225586" xmlns="http://www.w3.org/2000/svg" xmlns:xlink="http://www.w3.org/1999/xlink">
  <!-- Exported by Scratch - http://scratch.mit.edu/ -->
  <g id="ID0.8226978979073465">
    <g id="ID0.16911806678399444">
      <path id="ID0.9925696332938969" fill="#65A8E7" d="M 27.0382 13.9201 C 27.0382 6.7191 21.1919 0.8727 13.9908 0.8727 C 6.7897 0.8727 0.9433 6.7191 0.9433 13.9201 C 0.9433 21.1212 6.7897 26.9676 13.9908 26.9676 C 21.1919 26.9676 27.0382 21.1212 27.0382 13.9201 Z " stroke-width="0.2274502068758011"/>
    </g>
    <g id="Play Button">
      <g id="ID0.25504206866025925">
        <path id="ID0.3576168389990926" fill="white" d="M 13.721 20.4336 C 14.3861 20.4336 14.9887 20.7038 15.425 21.1401 C 15.8613 21.5764 16.1315 22.179 16.1315 22.8441 C 16.1315 23.5092 15.8613 24.1118 15.425 24.5482 C 14.9887 24.9845 14.3861 25.2546 13.721 25.2546 C 13.0559 25.2546 12.4533 24.9845 12.017 24.5482 C 11.5807 24.1118 11.3105 23.5092 11.3105 22.8441 C 11.3105 22.179 11.5807 21.5764 12.017 21.1401 C 12.4533 20.7038 13.0559 20.4336 13.721 20.4336 Z " stroke-width="0.20087537169456482"/>
      </g>
      <g id="ID0.37326638121157885">
        <path id="ID0.05142301553860307" fill="#65A8E7" d="M 14.7472 22.765 L 13.134 23.7849 L 13.134 21.7452 L 14.7472 22.765 Z " stroke-width="0.21761467937236254"/>
      </g>
    </g>
    <g id="Reset Button">
      <g id="ID0.15506682684645057">
        <path id="ID0.8000997151248157" fill="white" d="M 20.129 5.3336 C 19.4639 5.3336 18.8613 5.6038 18.425 6.0401 C 17.9887 6.4764 17.7185 7.079 17.7185 7.7441 C 17.7185 8.4092 17.9887 9.0118 18.425 9.4482 C 18.8613 9.8845 19.4639 10.1546 20.129 10.1546 C 20.7941 10.1546 21.3967 9.8845 21.833 9.4482 C 22.2693 9.0118 22.5395 8.4092 22.5395 7.7441 C 22.5395 7.079 22.2693 6.4764 21.833 6.0401 C 21.3967 5.6038 20.7941 5.3336 20.129 5.3336 Z " stroke-width="0.20087537169456482"/>
      </g>
      <g id="ID0.5886202622205019">
        <path id="ID0.11523662647232413" fill="#65A8E7" d="M 19.2877 7.078 C 19.2877 7.078 19.6756 7.2633 20.1222 7.2633 C 20.5687 7.2633 20.9566 7.078 20.9566 7.078 L 20.7897 8.9289 C 20.7897 8.9289 20.5545 9.0661 20.1222 9.0661 C 19.6898 9.0661 19.4546 8.9289 19.4546 8.9289 L 19.2877 7.078 Z " stroke-width="0.20171862030897345"/>
      </g>
      <g id="ID0.5737319379113615">
        <path id="ID0.07346895383670926" fill="#65A8E7" d="M 19.38 6.4861 C 19.38 6.4861 19.9425 6.5412 20.2152 6.5956 C 20.4864 6.6496 21.0166 6.8123 21.0166 6.8123 L 20.968 7.0561 C 20.968 7.0561 20.6882 7.0885 20.1277 6.9767 C 19.5673 6.865 19.3314 6.7298 19.3314 6.7298 L 19.38 6.4861 Z " stroke-width="0.21924918394599296"/>
      </g>
      <g id="ID0.25065995985642076">
        <path id="ID0.7756103258579969" fill="#65A8E7" d="M 19.9693 6.6942 C 19.9565 6.6564 19.9538 6.616 19.9617 6.5767 C 19.9862 6.4536 20.106 6.3736 20.2291 6.3982 C 20.3522 6.4227 20.4322 6.5425 20.4077 6.6656 C 20.3999 6.7049 20.382 6.7412 20.3556 6.7712 L 19.9693 6.6942 Z " stroke-width="0.4548085023119571"/>
      </g>
    </g>
    <g id="Share Button">
      <g id="ID0.22659530071541667">
        <path id="ID0.14593462646007538" fill="white" d="M 20.071 17.6336 C 20.7361 17.6336 21.3387 17.9038 21.775 18.3401 C 22.2113 18.7764 22.4815 19.379 22.4815 20.0441 C 22.4815 20.7092 22.2113 21.3118 21.775 21.7482 C 21.3387 22.1845 20.7361 22.4546 20.071 22.4546 C 19.4059 22.4546 18.8033 22.1845 18.367 21.7482 C 17.9307 21.3118 17.6605 20.7092 17.6605 20.0441 C 17.6605 19.379 17.9307 18.7764 18.367 18.3401 C 18.8033 17.9038 19.4059 17.6336 20.071 17.6336 Z " stroke-width="0.20087537169456482"/>
      </g>
      <g id="ID0.605927653145045">
        <path id="ID0.7451639156788588" fill="white" stroke="#65A8E7" stroke-width="0.31302762031555176" d="M 21.0102 20.0777 C 21.0102 19.5595 20.5893 19.1386 20.0711 19.1386 C 19.5529 19.1386 19.132 19.5595 19.132 20.0777 C 19.132 20.5959 19.5529 21.0168 20.0711 21.0168 C 20.5893 21.0168 21.0102 20.5959 21.0102 20.0777 Z "/>
      </g>
      <g id="ID0.626749599352479">
        <path id="ID0.7926652235910296" fill="white" d="M 19.2296 18.7448 L 21.4547 18.7448 L 21.4547 20.279 L 19.2296 20.279 L 19.2296 18.7448 Z " stroke-width="0.2884673644321215"/>
      </g>
      <g id="ID0.611120477784425">
        <path id="ID0.679237840231508" fill="white" stroke="#65A8E7" stroke-width="0.27065868098288776" stroke-linecap="square" stroke-linejoin="miter" d="M 20.113 19.0085 L 19.7542 19.3674 L 20.113 19.0085 L 20.4719 19.3674 L 20.113 19.0085 Z "/>
      </g>
      <g id="ID0.15562882414087653">
        <path id="ID0.28171850042417645" fill="none" stroke="#65A8E7" stroke-width="0.2962018847465515" stroke-linecap="butt" d="M 20.0892 19.0245 L 20.0892 20.14 "/>
      </g>
    </g>
    <g id="Import Button">
      <g id="ID0.6591782020404935">
        <path id="ID0.9187114494852722" fill="white" d="M 22.571 11.6336 C 23.2361 11.6336 23.8387 11.9038 24.275 12.3401 C 24.7113 12.7764 24.9815 13.379 24.9815 14.0441 C 24.9815 14.7092 24.7113 15.3118 24.275 15.7482 C 23.8387 16.1845 23.2361 16.4546 22.571 16.4546 C 21.9059 16.4546 21.3033 16.1845 20.867 15.7482 C 20.4307 15.3118 20.1605 14.7092 20.1605 14.0441 C 20.1605 13.379 20.4307 12.7764 20.867 12.3401 C 21.3033 11.9038 21.9059 11.6336 22.571 11.6336 Z " stroke-width="0.20087537169456482"/>
      </g>
      <g id="ID0.483306183014065">
        <path id="ID0.1669621472246945" fill="white" stroke="#65A8E7" stroke-width="0.31302762031555176" d="M 23.5102 14.0277 C 23.5102 13.5095 23.0893 13.0886 22.5711 13.0886 C 22.0529 13.0886 21.632 13.5095 21.632 14.0277 C 21.632 14.5459 22.0529 14.9668 22.5711 14.9668 C 23.0893 14.9668 23.5102 14.5459 23.5102 14.0277 Z "/>
      </g>
      <g id="ID0.8887625588104129">
        <path id="ID0.18033589888364077" fill="white" d="M 21.4811 12.7448 L 24.065 12.7448 L 24.065 14.279 L 21.4811 14.279 L 21.4811 12.7448 Z " stroke-width="0.3175282028979202"/>
      </g>
      <g id="ID0.7565710819326341">
        <path id="ID0.5405384050682187" fill="white" stroke="#65A8E7" stroke-width="0.27065868098288776" stroke-linecap="square" stroke-linejoin="miter" d="M 22.513 13.9915 L 22.1542 13.6326 L 22.513 13.9915 L 22.8719 13.6326 L 22.513 13.9915 Z "/>
      </g>
      <g id="ID0.5742728589102626">
        <path id="ID0.31013364205136895" fill="none" stroke="#65A8E7" stroke-width="0.2962018847465515" stroke-linecap="butt" d="M 22.4392 12.7745 L 22.4392 13.89 "/>
      </g>
    </g>
    <g id="Sound Button">
      <g id="ID0.424011402297765">
        <path id="ID0.4464543522335589" fill="white" d="M 7.371 17.5836 C 8.0361 17.5836 8.6387 17.8538 9.075 18.2901 C 9.5113 18.7264 9.7815 19.329 9.7815 19.9941 C 9.7815 20.6592 9.5113 21.2618 9.075 21.6982 C 8.6387 22.1345 8.0361 22.4046 7.371 22.4046 C 6.7059 22.4046 6.1033 22.1345 5.667 21.6982 C 5.2307 21.2618 4.9605 20.6592 4.9605 19.9941 C 4.9605 19.329 5.2307 18.7264 5.667 18.2901 C 6.1033 17.8538 6.7059 17.5836 7.371 17.5836 Z " stroke-width="0.20087537169456482"/>
      </g>
      <g id="ID0.7485292772762477">
        <path id="ID0.716244962066412" fill="none" stroke="#65A8E7" stroke-width="0.29870200121015467" stroke-linecap="butt" d="M 7.8536 18.9879 C 7.8536 18.9879 7.5617 19.3359 7.2973 19.4935 C 7.049 19.6417 6.8302 19.5998 6.741 19.5998 L 6.741 20.4156 C 6.8252 20.4156 7.0619 20.358 7.2973 20.4969 C 7.5769 20.6617 7.8536 21.0275 7.8536 21.0275 L 7.8536 18.9879 Z "/>
      </g>
      <g id="ID0.3393121692351997">
        <path id="ID0.724181673489511" fill="none" stroke="rgb(80,133,199)" stroke-width="0.26620052578464287" stroke-linecap="butt" d="M 8.1555 19.427 C 8.2172 19.5135 8.3409 19.6861 8.3409 20.0014 C 8.3409 20.3167 8.2172 20.4734 8.1555 20.5517 "/>
      </g>
    </g>
    <g id="ID0.28616218362003565">
      <path id="ID0.6838631387799978" fill="white" d="M 5.121 11.684 C 5.7861 11.684 6.3887 11.9542 6.825 12.3905 C 7.2613 12.8268 7.5315 13.4294 7.5315 14.0945 C 7.5315 14.7596 7.2613 15.3622 6.825 15.7985 C 6.3887 16.2348 5.7861 16.505 5.121 16.505 C 4.4559 16.505 3.8533 16.2348 3.417 15.7985 C 2.9807 15.3622 2.7105 14.7596 2.7105 14.0945 C 2.7105 13.4294 2.9807 12.8268 3.417 12.3905 C 3.8533 11.9542 4.4559 11.684 5.121 11.684 Z " stroke-width="0.20087591558768472"/>
    </g>
    <g id="ID0.9935790640302002">
      <path id="ID0.6393900373950601" fill="none" stroke="#65A8E7" stroke-width="0.27588260568193734" stroke-linecap="butt" d="M 6.1499 13.6274 L 3.9435 13.6274 "/>
    </g>
    <g id="ID0.9810847630724311">
      <path id="ID0.6492600105702877" fill="none" stroke="#65A8E7" stroke-width="0.27588260568193734" stroke-linecap="butt" d="M 6.1499 14.5774 L 3.9435 14.5774 "/>
    </g>
    <g id="ID0.742323275655508">
      <path id="ID0.7040488556958735" fill="none" stroke="#65A8E7" stroke-width="0.27822977840272484" stroke-linecap="butt" d="M 4.7203 13.0036 L 4.7203 15.2287 "/>
    </g>
    <g id="ID0.5669659818522632">
      <path id="ID0.5219045276753604" fill="none" stroke="#65A8E7" stroke-width="0.27822977840272484" stroke-linecap="butt" d="M 5.6703 13.0036 L 5.6703 15.2287 "/>
    </g>
    <g id="Character Button">
      <g id="ID0.586309832520783">
        <path id="ID0.9021040019579232" fill="white" d="M 7.371 5.3336 C 8.0361 5.3336 8.6387 5.6038 9.075 6.0401 C 9.5113 6.4764 9.7815 7.079 9.7815 7.7441 C 9.7815 8.4092 9.5113 9.0118 9.075 9.4482 C 8.6387 9.8845 8.0361 10.1546 7.371 10.1546 C 6.7059 10.1546 6.1033 9.8845 5.667 9.4482 C 5.2307 9.0118 4.9605 8.4092 4.9605 7.7441 C 4.9605 7.079 5.2307 6.4764 5.667 6.0401 C 6.1033 5.6038 6.7059 5.3336 7.371 5.3336 Z " stroke-width="0.20087537169456482"/>
      </g>
      <g id="Character">
        <g id="Body">
          <path id="ID0.982688486110419" fill="#65A8E7" d="M 6.8065 8.7253 L 6.7921 8.7251 L 6.7778 8.7245 L 6.7637 8.7236 L 6.7496 8.7224 L 6.7356 8.7208 L 6.7218 8.7189 L 6.708 8.7166 L 6.6944 8.714 L 6.6809 8.711 L 6.6675 8.7077 L 6.6542 8.7041 L 6.6411 8.7002 L 6.6281 8.6961 L 6.6153 8.6915 L 6.6026 8.6867 L 6.59 8.6815 L 6.5776 8.6761 L 6.5654 8.6704 L 6.5533 8.6644 L 6.5414 8.6581 L 6.5296 8.6516 L 6.5181 8.6447 L 6.5067 8.6376 L 6.4955 8.6302 L 6.4846 8.6225 L 6.4737 8.6147 L 6.4631 8.6066 L 6.4527 8.5982 L 6.4425 8.5895 L 6.4325 8.5807 L 6.4227 8.5716 L 6.4132 8.5623 L 6.4039 8.5527 L 6.3947 8.5429 L 6.3859 8.533 L 6.3773 8.5228 L 6.3689 8.5123 L 6.3608 8.5017 L 6.3529 8.4909 L 6.3452 8.48 L 6.3379 8.4687 L 6.3307 8.4573 L 6.3239 8.4458 L 6.3174 8.4341 L 6.3111 8.4222 L 6.3051 8.41 L 6.2993 8.3978 L 6.2939 8.3855 L 6.2887 8.3729 L 6.2839 8.3602 L 6.2794 8.3474 L 6.2752 8.3343 L 6.2713 8.3212 L 6.2677 8.308 L 6.2645 8.2945 L 6.2615 8.2811 L 6.2589 8.2675 L 6.2566 8.2536 L 6.2546 8.2398 L 6.2531 8.2258 L 6.2518 8.2117 L 6.2509 8.1976 L 6.2504 8.1834 L 6.2502 8.169 L 6.2502 7.0565 L 6.2504 7.0421 L 6.2509 7.0278 L 6.2518 7.0137 L 6.2531 6.9996 L 6.2546 6.9856 L 6.2566 6.9718 L 6.2589 6.958 L 6.2615 6.9444 L 6.2645 6.9309 L 6.2677 6.9175 L 6.2713 6.9042 L 6.2752 6.8911 L 6.2794 6.8781 L 6.2839 6.8653 L 6.2887 6.8526 L 6.2939 6.84 L 6.2993 6.8276 L 6.3051 6.8154 L 6.3111 6.8033 L 6.3174 6.7914 L 6.3239 6.7796 L 6.3307 6.7681 L 6.3379 6.7567 L 6.3452 6.7455 L 6.3529 6.7346 L 6.3608 6.7237 L 6.3689 6.7131 L 6.3773 6.7027 L 6.3859 6.6925 L 6.3947 6.6825 L 6.4039 6.6727 L 6.4132 6.6632 L 6.4227 6.6539 L 6.4325 6.6447 L 6.4425 6.6359 L 6.4527 6.6273 L 6.4631 6.6189 L 6.4737 6.6108 L 6.4846 6.6029 L 6.4955 6.5952 L 6.5067 6.5879 L 6.5181 6.5807 L 6.5296 6.5739 L 6.5414 6.5674 L 6.5533 6.5611 L 6.5654 6.5551 L 6.5776 6.5493 L 6.59 6.5439 L 6.6026 6.5387 L 6.6153 6.5339 L 6.6281 6.5294 L 6.6411 6.5252 L 6.6542 6.5213 L 6.6675 6.5177 L 6.6809 6.5145 L 6.6944 6.5115 L 6.708 6.5089 L 6.7218 6.5066 L 6.7356 6.5046 L 6.7496 6.5031 L 6.7637 6.5018 L 6.7778 6.5009 L 6.7921 6.5004 L 6.8065 6.5002 L 7.919 6.5002 L 7.9334 6.5004 L 7.9476 6.5009 L 7.9617 6.5018 L 7.9758 6.5031 L 7.9898 6.5046 L 8.0036 6.5066 L 8.0175 6.5089 L 8.0311 6.5115 L 8.0445 6.5145 L 8.058 6.5177 L 8.0712 6.5213 L 8.0843 6.5252 L 8.0974 6.5294 L 8.1102 6.5339 L 8.1229 6.5387 L 8.1355 6.5439 L 8.1478 6.5493 L 8.16 6.5551 L 8.1722 6.5611 L 8.1841 6.5674 L 8.1958 6.5739 L 8.2073 6.5807 L 8.2187 6.5879 L 8.23 6.5952 L 8.2409 6.6029 L 8.2517 6.6108 L 8.2623 6.6189 L 8.2728 6.6273 L 8.283 6.6359 L 8.2929 6.6447 L 8.3027 6.6539 L 8.3123 6.6632 L 8.3216 6.6727 L 8.3307 6.6825 L 8.3395 6.6925 L 8.3482 6.7027 L 8.3566 6.7131 L 8.3647 6.7237 L 8.3725 6.7346 L 8.3802 6.7455 L 8.3876 6.7567 L 8.3947 6.7681 L 8.4016 6.7796 L 8.4081 6.7914 L 8.4144 6.8033 L 8.4204 6.8154 L 8.4261 6.8276 L 8.4315 6.84 L 8.4367 6.8526 L 8.4415 6.8653 L 8.4461 6.8781 L 8.4502 6.8911 L 8.4541 6.9042 L 8.4577 6.9175 L 8.461 6.9309 L 8.464 6.9444 L 8.4666 6.958 L 8.4689 6.9718 L 8.4708 6.9856 L 8.4724 6.9996 L 8.4736 7.0137 L 8.4745 7.0278 L 8.4751 7.0421 L 8.4753 7.0565 L 8.4753 8.169 L 8.4751 8.1834 L 8.4745 8.1976 L 8.4736 8.2117 L 8.4724 8.2258 L 8.4708 8.2398 L 8.4689 8.2536 L 8.4666 8.2675 L 8.464 8.2811 L 8.461 8.2945 L 8.4577 8.308 L 8.4541 8.3212 L 8.4502 8.3343 L 8.4461 8.3474 L 8.4415 8.3602 L 8.4367 8.3729 L 8.4315 8.3855 L 8.4261 8.3978 L 8.4204 8.41 L 8.4144 8.4222 L 8.4081 8.4341 L 8.4016 8.4458 L 8.3947 8.4573 L 8.3876 8.4687 L 8.3802 8.48 L 8.3725 8.4909 L 8.3647 8.5017 L 8.3566 8.5123 L 8.3482 8.5228 L 8.3395 8.533 L 8.3307 8.5429 L 8.3216 8.5527 L 8.3123 8.5623 L 8.3027 8.5716 L 8.2929 8.5807 L 8.283 8.5895 L 8.2728 8.5982 L 8.2623 8.6066 L 8.2517 8.6147 L 8.2409 8.6225 L 8.23 8.6302 L 8.2187 8.6376 L 8.2073 8.6447 L 8.1958 8.6516 L 8.1841 8.6581 L 8.1722 8.6644 L 8.16 8.6704 L 8.1478 8.6761 L 8.1355 8.6815 L 8.1229 8.6867 L 8.1102 8.6915 L 8.0974 8.6961 L 8.0843 8.7002 L 8.0712 8.7041 L 8.058 8.7077 L 8.0445 8.711 L 8.0311 8.714 L 8.0175 8.7166 L 8.0036 8.7189 L 7.9898 8.7208 L 7.9758 8.7224 L 7.9617 8.7236 L 7.9476 8.7245 L 7.9334 8.7251 L 7.919 8.7253 L 6.8065 8.7253 Z M 6.8081 8.4547 L 7.9173 8.4547 L 7.9265 8.4546 L 7.9339 8.4544 L 7.9412 8.4539 L 7.9485 8.4533 L 7.9556 8.4524 L 7.9628 8.4514 L 7.9698 8.4503 L 7.9768 8.4489 L 7.9836 8.4474 L 7.9905 8.4457 L 7.9972 8.4439 L 8.0039 8.4419 L 8.0106 8.4398 L 8.0171 8.4375 L 8.0236 8.435 L 8.03 8.4324 L 8.0364 8.4296 L 8.0426 8.4267 L 8.0487 8.4236 L 8.0549 8.4203 L 8.0609 8.417 L 8.0669 8.4135 L 8.0727 8.4099 L 8.0785 8.4061 L 8.0841 8.4022 L 8.0897 8.3981 L 8.0951 8.3939 L 8.1005 8.3896 L 8.1058 8.385 L 8.111 8.3805 L 8.116 8.3758 L 8.1209 8.3709 L 8.1257 8.366 L 8.1305 8.361 L 8.1351 8.3558 L 8.1396 8.3505 L 8.1438 8.3451 L 8.1481 8.3397 L 8.1522 8.3341 L 8.1561 8.3285 L 8.1599 8.3227 L 8.1635 8.3169 L 8.167 8.3109 L 8.1704 8.3048 L 8.1736 8.2988 L 8.1766 8.2926 L 8.1796 8.2863 L 8.1824 8.28 L 8.185 8.2736 L 8.1875 8.2671 L 8.1898 8.2605 L 8.1919 8.2539 L 8.1939 8.2472 L 8.1957 8.2405 L 8.1974 8.2336 L 8.1989 8.2268 L 8.2003 8.2198 L 8.2014 8.2128 L 8.2024 8.2056 L 8.2033 8.1985 L 8.2039 8.1912 L 8.2044 8.1839 L 8.2046 8.1765 L 8.2047 8.1673 L 8.2047 7.0581 L 8.2046 7.0489 L 8.2044 7.0415 L 8.2039 7.0342 L 8.2033 7.027 L 8.2024 7.0198 L 8.2014 7.0127 L 8.2003 7.0056 L 8.1989 6.9987 L 8.1974 6.9918 L 8.1957 6.985 L 8.1939 6.9782 L 8.1919 6.9715 L 8.1898 6.9649 L 8.1875 6.9584 L 8.185 6.9519 L 8.1824 6.9455 L 8.1796 6.9392 L 8.1766 6.9329 L 8.1736 6.9267 L 8.1704 6.9206 L 8.167 6.9145 L 8.1635 6.9086 L 8.1599 6.9027 L 8.1561 6.897 L 8.1522 6.8913 L 8.1481 6.8858 L 8.1438 6.8803 L 8.1396 6.8749 L 8.1351 6.8696 L 8.1305 6.8644 L 8.1257 6.8594 L 8.1209 6.8545 L 8.116 6.8497 L 8.111 6.845 L 8.1058 6.8404 L 8.1005 6.8359 L 8.0951 6.8315 L 8.0897 6.8274 L 8.0841 6.8233 L 8.0785 6.8194 L 8.0727 6.8156 L 8.0668 6.812 L 8.0608 6.8084 L 8.0549 6.805 L 8.0488 6.8019 L 8.0426 6.7987 L 8.0364 6.7958 L 8.03 6.7931 L 8.0236 6.7905 L 8.0171 6.788 L 8.0106 6.7856 L 8.0039 6.7835 L 7.9972 6.7816 L 7.9905 6.7797 L 7.9836 6.778 L 7.9768 6.7766 L 7.9698 6.7752 L 7.9628 6.7741 L 7.9556 6.773 L 7.9485 6.7722 L 7.9412 6.7715 L 7.9339 6.7711 L 7.9265 6.7708 L 7.9172 6.7707 L 6.8082 6.7707 L 6.7989 6.7708 L 6.7915 6.7711 L 6.7842 6.7715 L 6.777 6.7722 L 6.7698 6.773 L 6.7627 6.7741 L 6.7556 6.7752 L 6.7487 6.7766 L 6.7418 6.778 L 6.735 6.7797 L 6.7282 6.7816 L 6.7215 6.7835 L 6.7149 6.7856 L 6.7084 6.788 L 6.7019 6.7905 L 6.6955 6.7931 L 6.6891 6.7958 L 6.6829 6.7988 L 6.6767 6.8019 L 6.6705 6.805 L 6.6646 6.8084 L 6.6587 6.812 L 6.6527 6.8156 L 6.647 6.8194 L 6.6413 6.8233 L 6.6358 6.8274 L 6.6303 6.8315 L 6.6249 6.8359 L 6.6196 6.8404 L 6.6144 6.845 L 6.6094 6.8497 L 6.6045 6.8544 L 6.5997 6.8594 L 6.595 6.8645 L 6.5903 6.8696 L 6.5859 6.8749 L 6.5816 6.8803 L 6.5774 6.8858 L 6.5733 6.8913 L 6.5694 6.897 L 6.5656 6.9027 L 6.562 6.9086 L 6.5584 6.9146 L 6.555 6.9206 L 6.5519 6.9267 L 6.5488 6.9329 L 6.5458 6.9392 L 6.5431 6.9455 L 6.5405 6.9519 L 6.538 6.9584 L 6.5356 6.9649 L 6.5335 6.9715 L 6.5316 6.9782 L 6.5297 6.985 L 6.528 6.9918 L 6.5266 6.9987 L 6.5252 7.0056 L 6.5241 7.0127 L 6.523 7.0198 L 6.5222 7.027 L 6.5215 7.0342 L 6.5211 7.0415 L 6.5208 7.0489 L 6.5207 7.0581 L 6.5207 8.1673 L 6.5208 8.1765 L 6.5211 8.1839 L 6.5215 8.1912 L 6.5222 8.1985 L 6.523 8.2056 L 6.5241 8.2128 L 6.5252 8.2198 L 6.5266 8.2268 L 6.528 8.2336 L 6.5297 8.2405 L 6.5316 8.2472 L 6.5335 8.2539 L 6.5356 8.2605 L 6.538 8.2671 L 6.5405 8.2736 L 6.5431 8.28 L 6.5458 8.2863 L 6.5488 8.2926 L 6.5519 8.2988 L 6.555 8.3048 L 6.5584 8.3108 L 6.562 8.3169 L 6.5656 8.3227 L 6.5694 8.3285 L 6.5733 8.3341 L 6.5774 8.3397 L 6.5816 8.3451 L 6.5859 8.3505 L 6.5903 8.3558 L 6.595 8.361 L 6.5997 8.366 L 6.6045 8.371 L 6.6094 8.3758 L 6.6144 8.3805 L 6.6196 8.385 L 6.6249 8.3896 L 6.6303 8.3939 L 6.6358 8.3981 L 6.6413 8.4021 L 6.647 8.4061 L 6.6527 8.4099 L 6.6586 8.4135 L 6.6645 8.417 L 6.6705 8.4203 L 6.6767 8.4236 L 6.6829 8.4266 L 6.6891 8.4296 L 6.6955 8.4324 L 6.7019 8.435 L 6.7084 8.4375 L 6.7149 8.4398 L 6.7215 8.4419 L 6.7282 8.4439 L 6.735 8.4457 L 6.7418 8.4474 L 6.7487 8.4489 L 6.7556 8.4503 L 6.7627 8.4514 L 6.7698 8.4524 L 6.777 8.4533 L 6.7842 8.4539 L 6.7915 8.4544 L 6.7989 8.4546 L 6.8081 8.4547 Z " stroke-width="0.09271205961704254"/>
        </g>
        <g id="ID0.6048285821452737">
          <path id="ID0.732632227241993" fill="rgb(80,133,199)" stroke="rgb(80,133,199)" stroke-width="0.10869240738451481" stroke-linecap="square" stroke-linejoin="miter" d="M 7.2792 7.4423 C 7.3177 7.4423 7.3525 7.4579 7.3779 7.4831 C 7.4031 7.5085 7.4187 7.5433 7.4187 7.5818 C 7.4187 7.6203 7.4031 7.6551 7.3779 7.6805 C 7.3525 7.7057 7.3177 7.7214 7.2792 7.7214 C 7.2407 7.7214 7.2058 7.7057 7.1805 7.6805 C 7.1552 7.6551 7.1396 7.6203 7.1396 7.5818 C 7.1396 7.5433 7.1552 7.5085 7.1805 7.4831 C 7.2058 7.4579 7.2407 7.4423 7.2792 7.4423 Z "/>
        </g>
        <g id="ID0.415909216273576">
          <path id="ID0.3503825576044619" fill="rgb(80,133,199)" stroke="rgb(80,133,199)" stroke-width="0.10816222473978997" stroke-linecap="square" stroke-linejoin="miter" d="M 7.7951 7.4428 C 7.8334 7.4428 7.8681 7.4583 7.8934 7.4834 C 7.9185 7.5087 7.934 7.5434 7.934 7.5816 C 7.934 7.6199 7.9185 7.6546 7.8934 7.6799 C 7.8681 7.705 7.8334 7.7205 7.7951 7.7205 C 7.7568 7.7205 7.7222 7.705 7.6969 7.6799 C 7.6718 7.6546 7.6563 7.6199 7.6563 7.5816 C 7.6563 7.5434 7.6718 7.5087 7.6969 7.4834 C 7.7222 7.4583 7.7568 7.4428 7.7951 7.4428 Z "/>
        </g>
      </g>
    </g>
    <g id="Settings Button">
      <g id="ID0.7142945118248463">
        <path id="ID0.5312076089903712" fill="white" d="M 13.729 11.6336 C 13.0639 11.6336 12.4613 11.9038 12.025 12.3401 C 11.5887 12.7764 11.3185 13.379 11.3185 14.0441 C 11.3185 14.7092 11.5887 15.3118 12.025 15.7482 C 12.4613 16.1845 13.0639 16.4546 13.729 16.4546 C 14.3941 16.4546 14.9967 16.1845 15.433 15.7482 C 15.8693 15.3118 16.1395 14.7092 16.1395 14.0441 C 16.1395 13.379 15.8693 12.7764 15.433 12.3401 C 14.9967 11.9038 14.3941 11.6336 13.729 11.6336 Z " stroke-width="0.20087537169456482"/>
      </g>
      <path id="ID0.09710953524336219" fill="rgb(80,133,199)" stroke="#65A8E7" stroke-width="0.3708479702472687" stroke-linecap="square" stroke-linejoin="miter" d="M 13.6079 12.9462 C 13.7201 12.9284 13.8343 12.9284 13.9465 12.9462 L 13.9873 13.2957 C 14.1026 13.3295 14.2081 13.3905 14.2951 13.4736 L 14.6181 13.3339 C 14.6897 13.4222 14.7468 13.5212 14.7876 13.6273 L 14.505 13.8374 C 14.5336 13.954 14.5336 14.076 14.505 14.1926 L 14.7876 14.4027 C 14.7468 14.5088 14.6897 14.6078 14.6181 14.6961 L 14.2951 14.5564 C 14.2081 14.6395 14.1026 14.7005 13.9873 14.7343 L 13.9465 15.0838 C 13.8343 15.1016 13.7201 15.1016 13.6079 15.0838 L 13.5671 14.7343 C 13.4518 14.7005 13.3463 14.6395 13.2593 14.5564 L 12.9363 14.6961 C 12.8647 14.6078 12.8076 14.5088 12.7668 14.4027 L 13.0494 14.1926 C 13.0209 14.076 13.0209 13.954 13.0494 13.8374 L 12.7668 13.6273 C 12.8076 13.5212 12.8647 13.4222 12.9363 13.3339 L 13.2593 13.4736 C 13.3463 13.3905 13.4518 13.3295 13.5671 13.2957 L 13.6079 12.9462 Z M 13.7772 13.5149 C 13.5011 13.5149 13.2771 13.7389 13.2771 14.015 C 13.2771 14.2911 13.5011 14.5151 13.7772 14.5151 C 14.0533 14.5151 14.2773 14.2911 14.2773 14.015 C 14.2773 13.7389 14.0533 13.5149 13.7772 13.5149 Z "/>
    </g>
    <g id="HOME Button">
      <g id="ID0.3612866997718811">
        <path id="ID0.8411586000584066" fill="white" d="M 13.7641 2.7652 C 14.4627 2.7652 15.0957 3.049 15.554 3.5073 C 16.0123 3.9656 16.2961 4.5986 16.2961 5.2972 C 16.2961 5.9958 16.0123 6.6288 15.554 7.0871 C 15.0957 7.5454 14.4627 7.8292 13.7641 7.8292 C 13.0655 7.8292 12.4324 7.5454 11.9741 7.0871 C 11.5158 6.6288 11.232 5.9958 11.232 5.2972 C 11.232 4.5986 11.5158 3.9656 11.9741 3.5073 C 12.4324 3.049 13.0655 2.7652 13.7641 2.7652 Z " stroke-width="0.21100357174873352"/>
      </g>
      <g id="ID0.14460169011726975">
        <path id="ID0.2119770161807537" fill="#65A8E7" d="M 13.1654 6.3307 L 13.1654 5.5115 L 13.7115 5.5115 L 13.7115 6.3307 L 14.3942 6.3307 L 14.3942 5.2384 L 14.8038 5.2384 L 13.4384 4.0096 L 12.0731 5.2384 L 12.4827 5.2384 L 12.4827 6.3307 L 13.1654 6.3307 Z " stroke-width="0.13653653860092163"/>
      </g>
      <g id="ID0.7934937020763755">
        <path id="ID0.8914999878033996" fill="#65A8E7" d="M 14.9948 4.0189 C 14.8428 3.879 14.6528 3.8091 14.4617 3.8038 L 14.4452 3.4072 L 13.97 3.9236 L 14.4864 4.3988 L 14.4698 3.9999 C 14.6108 4.0068 14.7504 4.0589 14.8629 4.1624 C 15.066 4.3493 15.1167 4.6407 15.0086 4.8792 L 15.1857 4.9596 C 15.3272 4.6458 15.2616 4.2644 14.9948 4.0189 Z " stroke-width="0.07796950576929429"/>
      </g>
    </g>
  </g>
<defs/></svg>