<svg width="481.46467" height="361.46467" viewBox="-0.732335 -0.732335 481.46467 361.46467" version="1.1" style="fill-rule:evenodd;clip-rule:evenodd;stroke-linecap:round;stroke-linejoin:round;stroke-miterlimit:1.41421;" xml:space="preserve" xmlns="http://www.w3.org/2000/svg" xmlns:xlink="http://www.w3.org/1999/xlink">
  <g>
    <rect x="0" y="0" width="480" height="360" style="fill:#ea5f61;" stroke-width="1"/>
    <g id="Icon">
      <g id="Cloud">
        <path d="M220.234,126.063c5.785,-6.619 14.288,-10.803 23.76,-10.803c16.406,0 29.903,12.549 31.409,28.564c0.046,-0.001 0.093,-0.001 0.139,-0.001c10.734,0 19.448,8.714 19.448,19.448c0,10.646 -8.573,19.306 -19.187,19.445l0,0.002l-70.035,0c-11.457,0 -20.758,-9.301 -20.758,-20.758c0,-9.612 6.547,-17.707 15.421,-20.064c-0.007,-0.197 -0.011,-0.395 -0.011,-0.594c0,-8.701 7.064,-15.765 15.765,-15.765c1.399,0 2.756,0.183 4.049,0.526Z" style="fill:#fff;" stroke-width="1"/>
        <g id="Face (Group)">
          <circle cx="225.971" cy="149.686" r="3.528" style="fill:#ea5f61;" stroke-width="1"/>
          <circle cx="251.624" cy="149.686" r="3.528" style="fill:#ea5f61;" stroke-width="1"/>
          <path d="M248.096,164.609c0,0 -3.366,-3.134 -9.163,-3.134c-5.797,0 -9.402,3.134 -9.402,3.134" style="fill:none;stroke-width:3px;stroke:#ea5f61;" stroke-width="1"/>
        </g>
      </g>
    </g>
    <g>
      <path d="M 191.0791 207.9201 L 188.3153 207.9201 L 187.2168 205.0625 L 182.1885 205.0625 L 181.1501 207.9201 L 178.4551 207.9201 L 183.3544 195.3401 L 186.0406 195.3401 L 191.0791 207.9201 Z M 186.4009 202.9432 L 184.6682 198.2738 L 182.9692 202.9432 L 186.4009 202.9432 Z " style="fill:#fff;fill-rule:nonzero;" stroke-width="1.46467"/>
      <path d="M 200.3563 201.5019 L 197.9792 201.9311 C 197.8986 201.4551 197.717 201.0977 197.4343 200.8575 C 197.1502 200.6173 196.7825 200.4972 196.3314 200.4972 C 195.7309 200.4972 195.2505 200.7051 194.8931 201.1197 C 194.5357 201.5342 194.357 202.2284 194.357 203.2009 C 194.357 204.2819 194.5386 205.0464 194.9019 205.4917 C 195.2651 205.9384 195.7529 206.161 196.3651 206.161 C 196.8235 206.161 197.1985 206.0307 197.49 205.7714 C 197.7814 205.5107 197.9879 205.0625 198.108 204.4283 L 200.4764 204.8311 C 200.2304 205.9179 199.7587 206.7396 199.0601 207.2947 C 198.3614 207.8498 197.427 208.1266 196.2538 208.1266 C 194.9209 208.1266 193.8576 207.7063 193.0652 206.8656 C 192.2728 206.0248 191.8773 204.8604 191.8773 203.3723 C 191.8773 201.8681 192.2743 200.6964 193.0696 199.8586 C 193.8649 199.0193 194.9414 198.6004 196.2962 198.6004 C 197.4065 198.6004 198.2897 198.8392 198.9444 199.3166 C 199.5991 199.7956 200.0707 200.5235 200.3563 201.5019 Z " style="fill:#fff;fill-rule:nonzero;" stroke-width="1.46467"/>
      <path d="M 210.1315 201.5019 L 207.7544 201.9311 C 207.6738 201.4551 207.4922 201.0977 207.2095 200.8575 C 206.9254 200.6173 206.5577 200.4972 206.1066 200.4972 C 205.5046 200.4972 205.0257 200.7051 204.6683 201.1197 C 204.3109 201.5342 204.1322 202.2284 204.1322 203.2009 C 204.1322 204.2819 204.3139 205.0464 204.6771 205.4917 C 205.0403 205.9384 205.5281 206.161 206.1403 206.161 C 206.5987 206.161 206.9722 206.0307 207.2652 205.7714 C 207.5566 205.5107 207.7617 205.0625 207.8818 204.4283 L 210.2516 204.8311 C 210.0056 205.9179 209.5325 206.7396 208.8353 207.2947 C 208.1366 207.8498 207.2022 208.1266 206.029 208.1266 C 204.6961 208.1266 203.6328 207.7063 202.8404 206.8656 C 202.048 206.0248 201.6525 204.8604 201.6525 203.3723 C 201.6525 201.8681 202.0495 200.6964 202.8448 199.8586 C 203.6401 199.0193 204.7152 198.6004 206.0715 198.6004 C 207.1817 198.6004 208.0649 198.8392 208.7196 199.3166 C 209.3743 199.7956 209.8444 200.5235 210.1315 201.5019 Z " style="fill:#fff;fill-rule:nonzero;" stroke-width="1.46467"/>
      <path d="M 217.2366 205.0201 L 219.6402 205.4229 C 219.3311 206.3046 218.8434 206.9754 218.177 207.4353 C 217.5105 207.8967 216.6757 208.1266 215.6753 208.1266 C 214.0905 208.1266 212.9173 207.6096 212.1557 206.5741 C 211.5552 205.7436 211.2549 204.6964 211.2549 203.4324 C 211.2549 201.9223 211.6504 200.7388 212.4398 199.8835 C 213.2293 199.0281 214.2282 198.6004 215.4351 198.6004 C 216.7914 198.6004 217.8606 199.0486 218.6442 199.9435 C 219.4278 200.8384 219.8027 202.2108 219.7691 204.0592 L 213.7273 204.0592 C 213.7434 204.774 213.9382 205.3306 214.3102 205.7275 C 214.6823 206.1259 215.1451 206.3251 215.7002 206.3251 C 216.0781 206.3251 216.3959 206.2211 216.6537 206.016 C 216.9115 205.8095 217.1048 205.477 217.2366 205.0201 Z M 217.3743 202.5829 C 217.3567 201.8842 217.1766 201.354 216.8339 200.9908 C 216.4897 200.6275 216.0722 200.4459 215.5801 200.4459 C 215.0543 200.4459 214.6193 200.6378 214.2765 201.0201 C 213.9323 201.4038 213.7639 201.9252 213.7698 202.5829 L 217.3743 202.5829 Z " style="fill:#fff;fill-rule:nonzero;" stroke-width="1.46467"/>
      <path d="M 220.8837 205.3203 L 223.3048 204.9512 C 223.4073 205.4199 223.6167 205.7773 223.9316 206.0204 C 224.2451 206.2636 224.6859 206.3851 225.2528 206.3851 C 225.8767 206.3851 226.3454 206.2694 226.6603 206.0409 C 226.8712 205.8813 226.9782 205.666 226.9782 205.398 C 226.9782 205.2149 226.921 205.0625 226.8053 204.9424 C 226.6852 204.8282 226.4172 204.7227 225.9998 204.6246 C 224.0547 204.1955 222.8214 203.8044 222.3 203.4499 C 221.5794 202.9578 221.2191 202.2738 221.2191 201.3979 C 221.2191 200.6085 221.531 199.945 222.155 199.4075 C 222.7775 198.8699 223.7456 198.6004 225.055 198.6004 C 226.3029 198.6004 227.2286 198.804 227.8365 199.2097 C 228.4428 199.6169 228.8603 200.2174 229.0887 201.0127 L 226.8141 201.4331 C 226.7174 201.0786 226.5329 200.8062 226.2605 200.6173 C 225.9895 200.4283 225.6014 200.3346 225.0975 200.3346 C 224.4633 200.3346 224.0078 200.4225 223.7339 200.5997 C 223.5508 200.7257 223.4586 200.8897 223.4586 201.0889 C 223.4586 201.2617 223.5391 201.4067 223.6988 201.5268 C 223.917 201.6879 224.6669 201.9135 225.9514 202.205 C 227.2359 202.4964 228.1338 202.8538 228.642 203.2786 C 229.1459 203.7063 229.3978 204.3053 229.3978 205.0713 C 229.3978 205.9062 229.0492 206.6253 228.3506 207.2259 C 227.6534 207.8264 226.6193 208.1266 225.2528 208.1266 C 224.0107 208.1266 223.0279 207.8747 222.3044 207.3709 C 221.5808 206.8685 221.1078 206.1845 220.8837 205.3203 Z " style="fill:#fff;fill-rule:nonzero;" stroke-width="1.46467"/>
      <path d="M 230.6589 205.3203 L 233.08 204.9512 C 233.1825 205.4199 233.3919 205.7773 233.7054 206.0204 C 234.0203 206.2636 234.4612 206.3851 235.028 206.3851 C 235.6505 206.3851 236.1206 206.2694 236.4355 206.0409 C 236.6464 205.8813 236.7519 205.666 236.7519 205.398 C 236.7519 205.2149 236.6948 205.0625 236.5805 204.9424 C 236.4604 204.8282 236.1924 204.7227 235.7735 204.6246 C 233.8284 204.1955 232.5966 203.8044 232.0752 203.4499 C 231.3546 202.9578 230.9943 202.2738 230.9943 201.3979 C 230.9943 200.6085 231.3063 199.945 231.9287 199.4075 C 232.5527 198.8699 233.5194 198.6004 234.8303 198.6004 C 236.0767 198.6004 237.0038 198.804 237.6102 199.2097 C 238.2166 199.6169 238.6355 200.2174 238.864 201.0127 L 236.5893 201.4331 C 236.4927 201.0786 236.3081 200.8062 236.0357 200.6173 C 235.7647 200.4283 235.3766 200.3346 234.8727 200.3346 C 234.2385 200.3346 233.783 200.4225 233.5091 200.5997 C 233.326 200.7257 233.2338 200.8897 233.2338 201.0889 C 233.2338 201.2617 233.3143 201.4067 233.474 201.5268 C 233.6922 201.6879 234.4421 201.9135 235.7266 202.205 C 237.0111 202.4964 237.9075 202.8538 238.4172 203.2786 C 238.9211 203.7063 239.173 204.3053 239.173 205.0713 C 239.173 205.9062 238.8229 206.6253 238.1258 207.2259 C 237.4271 207.8264 236.3945 208.1266 235.028 208.1266 C 233.7859 208.1266 232.8031 207.8747 232.0796 207.3709 C 231.3561 206.8685 230.883 206.1845 230.6589 205.3203 Z " style="fill:#fff;fill-rule:nonzero;" stroke-width="1.46467"/>
      <path d="M 254.5257 207.9201 L 252.2862 207.9201 L 252.2862 206.5814 C 251.9142 207.1028 251.4748 207.4895 250.968 207.7444 C 250.4627 207.9992 249.9515 208.1266 249.4374 208.1266 C 248.3902 208.1266 247.4923 207.7048 246.7468 206.8612 C 245.9998 206.0175 245.6263 204.8399 245.6263 203.3298 C 245.6263 201.7846 245.9896 200.6099 246.716 199.8058 C 247.4425 199.0032 248.3609 198.6004 249.4711 198.6004 C 250.489 198.6004 251.3708 199.0237 252.1148 199.8703 L 252.1148 195.3401 L 254.5257 195.3401 L 254.5257 207.9201 Z M 248.0899 203.1658 C 248.0899 204.1383 248.2232 204.8428 248.4927 205.2778 C 248.8823 205.9062 249.4257 206.2211 250.1229 206.2211 C 250.678 206.2211 251.1511 205.9853 251.5392 205.5137 C 251.9288 205.042 252.1236 204.3361 252.1236 203.3987 C 252.1236 202.3514 251.9347 201.5971 251.5568 201.1372 C 251.1789 200.6759 250.6956 200.4459 250.1068 200.4459 C 249.5341 200.4459 249.0551 200.6729 248.6685 201.1284 C 248.2832 201.5825 248.0899 202.2621 248.0899 203.1658 Z " style="fill:#fff;fill-rule:nonzero;" stroke-width="1.46467"/>
      <path d="M 262.1815 205.0201 L 264.5836 205.4229 C 264.2745 206.3046 263.7868 206.9754 263.1204 207.4353 C 262.4539 207.8967 261.6205 208.1266 260.6187 208.1266 C 259.0339 208.1266 257.8622 207.6096 257.1006 206.5741 C 256.5 205.7436 256.1998 204.6964 256.1998 203.4324 C 256.1998 201.9223 256.5938 200.7388 257.3832 199.8835 C 258.1727 199.0281 259.1716 198.6004 260.3785 198.6004 C 261.7348 198.6004 262.8054 199.0486 263.589 199.9435 C 264.3726 200.8384 264.7476 202.2108 264.7124 204.0592 L 258.6707 204.0592 C 258.6883 204.774 258.8831 205.3306 259.2551 205.7275 C 259.6271 206.1259 260.09 206.3251 260.6451 206.3251 C 261.0229 206.3251 261.3408 206.2211 261.5971 206.016 C 261.8549 205.8095 262.0497 205.477 262.1815 205.0201 Z M 262.3192 202.5829 C 262.3016 201.8842 262.1214 201.354 261.7773 200.9908 C 261.4345 200.6275 261.0171 200.4459 260.525 200.4459 C 259.9991 200.4459 259.5641 200.6378 259.2199 201.0201 C 258.8772 201.4038 258.7088 201.9252 258.7146 202.5829 L 262.3192 202.5829 Z " style="fill:#fff;fill-rule:nonzero;" stroke-width="1.46467"/>
      <path d="M 274.9681 207.9201 L 272.5572 207.9201 L 272.5572 203.2698 C 272.5572 202.2855 272.506 201.6484 272.402 201.3599 C 272.2994 201.0713 272.1325 200.8458 271.901 200.6861 C 271.6682 200.5265 271.3899 200.4459 271.0633 200.4459 C 270.6458 200.4459 270.2709 200.5601 269.9399 200.7886 C 269.6074 201.0186 269.3804 201.3218 269.2573 201.6982 C 269.1343 202.0761 269.0728 202.7747 269.0728 203.7927 L 269.0728 207.9201 L 266.6605 207.9201 L 266.6605 198.8069 L 268.9014 198.8069 L 268.9014 200.1456 C 269.6967 199.116 270.6971 198.6004 271.904 198.6004 C 272.4371 198.6004 272.9234 198.6971 273.3643 198.8875 C 273.8037 199.0794 274.1376 199.324 274.3632 199.6213 C 274.5887 199.9201 274.7469 200.257 274.8348 200.6348 C 274.9241 201.0127 274.9681 201.5532 274.9681 202.2562 L 274.9681 207.9201 Z " style="fill:#fff;fill-rule:nonzero;" stroke-width="1.46467"/>
      <path d="M 277.4141 197.5708 L 277.4141 195.3401 L 279.8264 195.3401 L 279.8264 197.5708 L 277.4141 197.5708 Z M 277.4141 207.9201 L 277.4141 198.8069 L 279.8264 198.8069 L 279.8264 207.9201 L 277.4141 207.9201 Z " style="fill:#fff;fill-rule:nonzero;" stroke-width="1.46467"/>
      <path d="M 287.5759 205.0201 L 289.978 205.4229 C 289.669 206.3046 289.1812 206.9754 288.5148 207.4353 C 287.8484 207.8967 287.015 208.1266 286.0131 208.1266 C 284.4284 208.1266 283.2552 207.6096 282.495 206.5741 C 281.8945 205.7436 281.5942 204.6964 281.5942 203.4324 C 281.5942 201.9223 281.9882 200.7388 282.7777 199.8835 C 283.5671 199.0281 284.5661 198.6004 285.7729 198.6004 C 287.1292 198.6004 288.1984 199.0486 288.9835 199.9435 C 289.7671 200.8384 290.142 202.2108 290.1069 204.0592 L 284.0651 204.0592 C 284.0827 204.774 284.2775 205.3306 284.6495 205.7275 C 285.0216 206.1259 285.4844 206.3251 286.0395 206.3251 C 286.4174 206.3251 286.7338 206.2211 286.9915 206.016 C 287.2493 205.8095 287.4441 205.477 287.5759 205.0201 Z M 287.7122 202.5829 C 287.6961 201.8842 287.5159 201.354 287.1717 200.9908 C 286.829 200.6275 286.4115 200.4459 285.9194 200.4459 C 285.3921 200.4459 284.9586 200.6378 284.6144 201.0201 C 284.2717 201.4038 284.1032 201.9252 284.1076 202.5829 L 287.7122 202.5829 Z " style="fill:#fff;fill-rule:nonzero;" stroke-width="1.46467"/>
      <path d="M 300.4314 207.9201 L 298.1919 207.9201 L 298.1919 206.5814 C 297.8198 207.1028 297.3804 207.4895 296.8737 207.7444 C 296.3684 207.9992 295.8572 208.1266 295.3416 208.1266 C 294.2959 208.1266 293.398 207.7048 292.651 206.8612 C 291.9055 206.0175 291.532 204.8399 291.532 203.3298 C 291.532 201.7846 291.8953 200.6099 292.6217 199.8058 C 293.3482 199.0032 294.2666 198.6004 295.3768 198.6004 C 296.3947 198.6004 297.2765 199.0237 298.0205 199.8703 L 298.0205 195.3401 L 300.4314 195.3401 L 300.4314 207.9201 Z M 293.9941 203.1658 C 293.9941 204.1383 294.1289 204.8428 294.3984 205.2778 C 294.7865 205.9062 295.3314 206.2211 296.0286 206.2211 C 296.5837 206.2211 297.0553 205.9853 297.4449 205.5137 C 297.8345 205.042 298.0278 204.3361 298.0278 203.3987 C 298.0278 202.3514 297.8389 201.5971 297.4625 201.1372 C 297.0846 200.6759 296.6012 200.4459 296.011 200.4459 C 295.4398 200.4459 294.9608 200.6729 294.5741 201.1284 C 294.1875 201.5825 293.9941 202.2621 293.9941 203.1658 Z " style="fill:#fff;fill-rule:nonzero;" stroke-width="1.46467"/>
      <path d="M 111.8668 241.5621 L 111.8668 237.0143 L 107.7291 230.8246 L 109.4574 230.8246 L 111.5739 234.063 C 111.9649 234.6679 112.3282 235.2728 112.6651 235.8792 C 112.9873 235.3168 113.3784 234.6855 113.8368 233.9825 L 115.9166 230.8246 L 117.5732 230.8246 L 113.2875 237.0143 L 113.2875 241.5621 L 111.8668 241.5621 Z " style="fill:#fff;fill-rule:nonzero;" stroke-width="1.46467"/>
      <path d="M 116.8115 237.6734 C 116.8115 236.2336 117.2114 235.1659 118.0126 234.4731 C 118.6805 233.896 119.4963 233.609 120.4586 233.609 C 121.5278 233.609 122.4022 233.959 123.0803 234.6591 C 123.7585 235.3607 124.0983 236.3289 124.0983 237.5636 C 124.0983 238.5639 123.9489 239.3519 123.6486 239.9261 C 123.3484 240.4988 122.9104 240.9455 122.3363 241.2619 C 121.7636 241.5797 121.1367 241.7379 120.4586 241.7379 C 119.3689 241.7379 118.4886 241.3893 117.8178 240.6906 C 117.1469 239.992 116.8115 238.9872 116.8115 237.6734 Z M 118.1664 237.6734 C 118.1664 238.6694 118.3831 239.4149 118.8181 239.9114 C 119.2517 240.4065 119.7995 240.654 120.4586 240.654 C 121.1133 240.654 121.6567 240.405 122.0917 239.907 C 122.5267 239.4091 122.7435 238.6504 122.7435 237.6295 C 122.7435 236.6672 122.5252 235.9393 122.0873 235.4427 C 121.6508 234.9477 121.1074 234.7001 120.4586 234.7001 C 119.7995 234.7001 119.2517 234.9462 118.8181 235.4398 C 118.3831 235.9319 118.1664 236.6774 118.1664 237.6734 Z " style="fill:#fff;fill-rule:nonzero;" stroke-width="1.46467"/>
      <path d="M 130.742 241.5621 L 130.742 240.4197 C 130.1356 241.2985 129.314 241.7379 128.2726 241.7379 C 127.8141 241.7379 127.3865 241.65 126.9881 241.4742 C 126.5897 241.2985 126.2938 241.0773 126.1019 240.8122 C 125.9086 240.5456 125.7739 240.2205 125.6948 239.8338 C 125.642 239.5746 125.6142 239.1645 125.6142 238.6035 L 125.6142 233.7847 L 126.9324 233.7847 L 126.9324 238.0982 C 126.9324 238.7866 126.9602 239.2509 127.013 239.4896 C 127.0964 239.8367 127.2722 240.1092 127.5402 240.3069 C 127.8097 240.5046 128.1408 240.6028 128.5362 240.6028 C 128.9331 240.6028 129.3037 240.5017 129.6508 240.2996 C 129.9965 240.096 130.2426 239.8206 130.3861 239.472 C 130.5296 239.122 130.6029 238.6152 130.6029 237.9517 L 130.6029 233.7847 L 131.9211 233.7847 L 131.9211 241.5621 L 130.742 241.5621 Z " style="fill:#fff;fill-rule:nonzero;" stroke-width="1.46467"/>
      <path d="M 138.1532 241.5621 L 138.1532 230.8246 L 139.4714 230.8246 L 139.4714 234.6782 C 140.0866 233.9649 140.8643 233.609 141.8017 233.609 C 142.3774 233.609 142.8783 233.7217 143.303 233.9488 C 143.7278 234.1758 144.031 234.4892 144.214 234.8905 C 144.3971 235.2904 144.4894 235.8719 144.4894 236.6335 L 144.4894 241.5621 L 143.1712 241.5621 L 143.1712 236.6335 C 143.1712 235.9744 143.0277 235.494 142.7421 235.1937 C 142.4564 234.8935 142.0522 234.7441 141.5308 234.7441 C 141.1397 234.7441 140.7721 234.8451 140.4279 235.0473 C 140.0837 235.2509 139.8376 235.5247 139.6911 235.8719 C 139.5447 236.219 139.4714 236.6965 139.4714 237.3073 L 139.4714 241.5621 L 138.1532 241.5621 Z " style="fill:#fff;fill-rule:nonzero;" stroke-width="1.46467"/>
      <path d="M 151.5711 240.6028 C 151.0834 241.0187 150.6132 241.3117 150.1621 241.4816 C 149.7095 241.6529 149.2261 241.7379 148.7077 241.7379 C 147.8538 241.7379 147.1961 241.5299 146.7377 241.1125 C 146.2792 240.695 146.0493 240.1619 146.0493 239.5116 C 146.0493 239.1308 146.1357 238.7836 146.3085 238.4687 C 146.4828 238.1538 146.7098 237.9004 146.9911 237.71 C 147.2708 237.5196 147.5872 237.3761 147.9387 237.278 C 148.198 237.2091 148.5876 237.1432 149.1104 237.0802 C 150.1753 236.9528 150.9589 236.8019 151.4612 236.6262 C 151.4671 236.446 151.4686 236.3303 151.4686 236.282 C 151.4686 235.7444 151.3441 235.3666 151.0951 235.1469 C 150.7582 234.8481 150.2587 234.7001 149.5938 234.7001 C 148.9742 234.7001 148.5158 234.8085 148.2214 235.0253 C 147.9255 235.2435 147.7073 235.6273 147.5652 236.1795 L 146.2763 236.0037 C 146.3935 235.4515 146.5868 235.0063 146.8548 234.6665 C 147.1229 234.3281 147.511 234.0659 148.0193 233.8829 C 148.5275 233.6998 149.1163 233.609 149.7842 233.609 C 150.4491 233.609 150.9881 233.6866 151.4026 233.8433 C 151.8186 233.9986 152.1233 234.1963 152.3181 234.4321 C 152.5143 234.6694 152.6505 234.9682 152.7282 235.3299 C 152.7721 235.554 152.7941 235.9598 152.7941 236.5456 L 152.7941 238.3032 C 152.7941 239.5292 152.8234 240.304 152.879 240.6291 C 152.9347 240.9528 153.046 241.2648 153.213 241.5621 L 151.8347 241.5621 C 151.6985 241.2897 151.6106 240.9689 151.5711 240.6028 Z M 151.4612 237.6588 C 150.9838 237.8536 150.2661 238.0205 149.3082 238.1568 C 148.7662 238.2344 148.3825 238.3223 148.1584 238.4204 C 147.9343 238.5185 147.76 238.6606 147.6384 238.8496 C 147.5169 239.037 147.4554 239.245 147.4554 239.475 C 147.4554 239.8265 147.5886 240.1194 147.8552 240.3538 C 148.1203 240.5881 148.5099 240.7053 149.0226 240.7053 C 149.5308 240.7053 149.9819 240.594 150.3774 240.3728 C 150.7728 240.1502 151.0643 239.8455 151.2489 239.4603 C 151.3909 239.163 151.4612 238.7236 151.4612 238.1421 L 151.4612 237.6588 Z " style="fill:#fff;fill-rule:nonzero;" stroke-width="1.46467"/>
      <path d="M 156.9992 241.5621 L 154.0405 233.7847 L 155.432 233.7847 L 157.1017 238.4424 C 157.2818 238.9448 157.4488 239.4676 157.5997 240.0096 C 157.7168 239.5995 157.8809 239.1059 158.0903 238.5303 L 159.8186 233.7847 L 161.1735 233.7847 L 158.2295 241.5621 L 156.9992 241.5621 Z " style="fill:#fff;fill-rule:nonzero;" stroke-width="1.46467"/>
      <path d="M 167.6634 239.0575 L 169.0256 239.226 C 168.8103 240.0228 168.4119 240.6394 167.8319 241.0788 C 167.2504 241.5182 166.5078 241.7379 165.6056 241.7379 C 164.4675 241.7379 163.5653 241.3878 162.8988 240.6877 C 162.2324 239.9861 161.8985 239.0033 161.8985 237.7393 C 161.8985 236.4314 162.2353 235.4149 162.9091 234.6928 C 163.5828 233.9693 164.4573 233.609 165.5323 233.609 C 166.5722 233.609 167.4217 233.9619 168.0808 234.6708 C 168.7399 235.3783 169.0695 236.3743 169.0695 237.6588 C 169.0695 237.7364 169.0666 237.8536 169.0622 238.0103 L 163.2606 238.0103 C 163.3104 238.8642 163.5521 239.5189 163.9856 239.973 C 164.4206 240.427 164.9626 240.654 165.6129 240.654 C 166.0962 240.654 166.5078 240.5281 166.8505 240.2732 C 167.1918 240.0198 167.4628 239.6141 167.6634 239.0575 Z M 163.3339 236.9264 L 167.6781 236.9264 C 167.6195 236.2717 167.4525 235.7811 167.1801 235.4544 C 166.7597 234.9462 166.2149 234.6928 165.547 234.6928 C 164.9406 234.6928 164.4324 234.8949 164.0193 235.3007 C 163.6063 235.7049 163.3778 236.2483 163.3339 236.9264 Z " style="fill:#fff;fill-rule:nonzero;" stroke-width="1.46467"/>
      <path d="M 176.0633 241.5621 L 174.8403 241.5621 L 174.8403 230.8246 L 176.1585 230.8246 L 176.1585 234.6562 C 176.7151 233.9576 177.4269 233.609 178.2911 233.609 C 178.7685 233.609 179.2226 233.7042 179.6488 233.8975 C 180.0765 234.0908 180.428 234.3618 180.7034 234.7104 C 180.9802 235.0604 181.1955 235.4808 181.3522 235.9744 C 181.5089 236.468 181.5866 236.9953 181.5866 237.5562 C 181.5866 238.8891 181.257 239.9188 180.5979 240.6467 C 179.9388 241.3746 179.1479 241.7379 178.2252 241.7379 C 177.3068 241.7379 176.5862 241.3556 176.0633 240.5881 L 176.0633 241.5621 Z M 176.0487 237.6148 C 176.0487 238.5478 176.1761 239.2216 176.4295 239.6361 C 176.8454 240.3157 177.4064 240.654 178.1153 240.654 C 178.6909 240.654 179.1889 240.4036 179.6093 239.9041 C 180.0282 239.4032 180.2391 238.6577 180.2391 237.6661 C 180.2391 236.6511 180.0369 235.9012 179.6342 235.4178 C 179.2314 234.9345 178.7451 234.6928 178.1739 234.6928 C 177.5968 234.6928 177.0988 234.9433 176.6785 235.4427 C 176.2596 235.9436 176.0487 236.6672 176.0487 237.6148 Z " style="fill:#fff;fill-rule:nonzero;" stroke-width="1.46467"/>
      <path d="M 188.5145 239.0575 L 189.8781 239.226 C 189.6628 240.0228 189.2644 240.6394 188.6829 241.0788 C 188.1029 241.5182 187.3603 241.7379 186.4566 241.7379 C 185.32 241.7379 184.4178 241.3878 183.7514 240.6877 C 183.0849 239.9861 182.751 239.0033 182.751 237.7393 C 182.751 236.4314 183.0879 235.4149 183.7616 234.6928 C 184.4354 233.9693 185.3098 233.609 186.3834 233.609 C 187.4233 233.609 188.2728 233.9619 188.9319 234.6708 C 189.5925 235.3783 189.922 236.3743 189.922 237.6588 C 189.922 237.7364 189.9191 237.8536 189.9147 238.0103 L 184.1131 238.0103 C 184.1615 238.8642 184.4031 239.5189 184.8381 239.973 C 185.2731 240.427 185.8151 240.654 186.4639 240.654 C 186.9473 240.654 187.3603 240.5281 187.7016 240.2732 C 188.0443 240.0198 188.3153 239.6141 188.5145 239.0575 Z M 184.1864 236.9264 L 188.5291 236.9264 C 188.4705 236.2717 188.305 235.7811 188.0311 235.4544 C 187.6122 234.9462 187.0674 234.6928 186.398 234.6928 C 185.7931 234.6928 185.2834 234.8949 184.8718 235.3007 C 184.4588 235.7049 184.2303 236.2483 184.1864 236.9264 Z " style="fill:#fff;fill-rule:nonzero;" stroke-width="1.46467"/>
      <path d="M 196.8572 239.0575 L 198.2194 239.226 C 198.0055 240.0228 197.6071 240.6394 197.0257 241.0788 C 196.4442 241.5182 195.7031 241.7379 194.7994 241.7379 C 193.6613 241.7379 192.7591 241.3878 192.0926 240.6877 C 191.4262 239.9861 191.0937 239.0033 191.0937 237.7393 C 191.0937 236.4314 191.4306 235.4149 192.1044 234.6928 C 192.7781 233.9693 193.6525 233.609 194.7261 233.609 C 195.766 233.609 196.6155 233.9619 197.2746 234.6708 C 197.9337 235.3783 198.2633 236.3743 198.2633 237.6588 C 198.2633 237.7364 198.2618 237.8536 198.256 238.0103 L 192.4559 238.0103 C 192.5042 238.8642 192.7459 239.5189 193.1809 239.973 C 193.6159 240.427 194.1578 240.654 194.8067 240.654 C 195.29 240.654 195.7031 240.5281 196.0443 240.2732 C 196.3856 240.0198 196.6566 239.6141 196.8572 239.0575 Z M 192.5291 236.9264 L 196.8719 236.9264 C 196.8133 236.2717 196.6478 235.7811 196.3739 235.4544 C 195.9535 234.9462 195.4101 234.6928 194.7408 234.6928 C 194.1359 234.6928 193.6262 234.8949 193.2131 235.3007 C 192.8015 235.7049 192.5731 236.2483 192.5291 236.9264 Z " style="fill:#fff;fill-rule:nonzero;" stroke-width="1.46467"/>
      <path d="M 199.8744 241.5621 L 199.8744 233.7847 L 201.0608 233.7847 L 201.0608 234.8905 C 201.6335 234.0352 202.4581 233.609 203.5376 233.609 C 204.0063 233.609 204.4369 233.6924 204.8294 233.8609 C 205.2234 234.0293 205.5178 234.2505 205.7126 234.5244 C 205.9074 234.7968 206.0451 235.122 206.1227 235.4984 C 206.1711 235.7415 206.196 236.1692 206.196 236.78 L 206.196 241.5621 L 204.8778 241.5621 L 204.8778 236.8312 C 204.8778 236.2937 204.8265 235.8924 204.724 235.6258 C 204.6214 235.3607 204.4398 235.1483 204.1776 234.9887 C 203.9169 234.8305 203.6108 234.7514 203.2593 234.7514 C 202.6969 234.7514 202.2121 234.9286 201.8049 235.286 C 201.3977 235.6419 201.1926 236.3186 201.1926 237.3146 L 201.1926 241.5621 L 199.8744 241.5621 Z " style="fill:#fff;fill-rule:nonzero;" stroke-width="1.46467"/>
      <path d="M 213.6013 241.5621 L 212.3769 241.5621 L 212.3769 230.8246 L 213.6965 230.8246 L 213.6965 234.6562 C 214.2531 233.9576 214.9635 233.609 215.8276 233.609 C 216.3051 233.609 216.7592 233.7042 217.1854 233.8975 C 217.6131 234.0908 217.9646 234.3618 218.2399 234.7104 C 218.5168 235.0604 218.7321 235.4808 218.8888 235.9744 C 219.0455 236.468 219.1231 236.9953 219.1231 237.5562 C 219.1231 238.8891 218.7936 239.9188 218.1345 240.6467 C 217.4754 241.3746 216.6845 241.7379 215.7617 241.7379 C 214.8434 241.7379 214.1227 241.3556 213.6013 240.5881 L 213.6013 241.5621 Z M 213.5867 237.6148 C 213.5867 238.5478 213.7126 239.2216 213.9675 239.6361 C 214.382 240.3157 214.943 240.654 215.6519 240.654 C 216.2275 240.654 216.7255 240.4036 217.1458 239.9041 C 217.5662 239.4032 217.7756 238.6577 217.7756 237.6661 C 217.7756 236.6511 217.5735 235.9012 217.1707 235.4178 C 216.7679 234.9345 216.2817 234.6928 215.7104 234.6928 C 215.1334 234.6928 214.6354 234.9433 214.2165 235.4427 C 213.7961 235.9436 213.5867 236.6672 213.5867 237.6148 Z " style="fill:#fff;fill-rule:nonzero;" stroke-width="1.46467"/>
      <path d="M 225.8035 240.6028 C 225.3143 241.0187 224.8441 241.3117 224.393 241.4816 C 223.9419 241.6529 223.4571 241.7379 222.9386 241.7379 C 222.0847 241.7379 221.4285 241.5299 220.9686 241.1125 C 220.5102 240.695 220.2802 240.1619 220.2802 239.5116 C 220.2802 239.1308 220.3666 238.7836 220.5409 238.4687 C 220.7138 238.1538 220.9408 237.9004 221.222 237.71 C 221.5018 237.5196 221.8181 237.3761 222.1696 237.278 C 222.4289 237.2091 222.82 237.1432 223.3414 237.0802 C 224.4062 236.9528 225.1898 236.8019 225.6936 236.6262 C 225.698 236.446 225.701 236.3303 225.701 236.282 C 225.701 235.7444 225.5765 235.3666 225.326 235.1469 C 224.9891 234.8481 224.4897 234.7001 223.8247 234.7001 C 223.2052 234.7001 222.7467 234.8085 222.4523 235.0253 C 222.1565 235.2435 221.9382 235.6273 221.7962 236.1795 L 220.5072 236.0037 C 220.6244 235.4515 220.8178 235.0063 221.0858 234.6665 C 221.3553 234.3281 221.7434 234.0659 222.2502 233.8829 C 222.7584 233.6998 223.3472 233.609 224.0151 233.609 C 224.6801 233.609 225.2191 233.6866 225.6351 233.8433 C 226.0496 233.9986 226.3542 234.1963 226.5505 234.4321 C 226.7453 234.6694 226.8815 234.9682 226.9606 235.3299 C 227.0045 235.554 227.0265 235.9598 227.0265 236.5456 L 227.0265 238.3032 C 227.0265 239.5292 227.0543 240.304 227.11 240.6291 C 227.1656 240.9528 227.2769 241.2648 227.4439 241.5621 L 226.0671 241.5621 C 225.9295 241.2897 225.8416 240.9689 225.8035 240.6028 Z M 225.6936 237.6588 C 225.2147 237.8536 224.497 238.0205 223.5391 238.1568 C 222.9972 238.2344 222.6149 238.3223 222.3893 238.4204 C 222.1653 238.5185 221.9924 238.6606 221.8694 238.8496 C 221.7478 239.037 221.6863 239.245 221.6863 239.475 C 221.6863 239.8265 221.8196 240.1194 222.0862 240.3538 C 222.3513 240.5881 222.7409 240.7053 223.2535 240.7053 C 223.7617 240.7053 224.2129 240.594 224.6083 240.3728 C 225.0038 240.1502 225.2952 239.8455 225.4813 239.4603 C 225.6219 239.163 225.6936 238.7236 225.6936 238.1421 L 225.6936 237.6588 Z " style="fill:#fff;fill-rule:nonzero;" stroke-width="1.46467"/>
      <path d="M 229.0697 241.5621 L 229.0697 233.7847 L 230.2561 233.7847 L 230.2561 234.8905 C 230.8273 234.0352 231.6519 233.609 232.7314 233.609 C 233.2001 233.609 233.6307 233.6924 234.0247 233.8609 C 234.4172 234.0293 234.7116 234.2505 234.9064 234.5244 C 235.1027 234.7968 235.2389 235.122 235.3165 235.4984 C 235.3663 235.7415 235.3898 236.1692 235.3898 236.78 L 235.3898 241.5621 L 234.0716 241.5621 L 234.0716 236.8312 C 234.0716 236.2937 234.0203 235.8924 233.9178 235.6258 C 233.8152 235.3607 233.6336 235.1483 233.3729 234.9887 C 233.1107 234.8305 232.8046 234.7514 232.4531 234.7514 C 231.8921 234.7514 231.4073 234.9286 230.9987 235.286 C 230.5915 235.6419 230.3879 236.3186 230.3879 237.3146 L 230.3879 241.5621 L 229.0697 241.5621 Z " style="fill:#fff;fill-rule:nonzero;" stroke-width="1.46467"/>
      <path d="M 237.411 241.5621 L 237.411 233.7847 L 238.5988 233.7847 L 238.5988 234.8905 C 239.1701 234.0352 239.9947 233.609 241.0741 233.609 C 241.5428 233.609 241.9734 233.6924 242.366 233.8609 C 242.76 234.0293 243.0544 234.2505 243.2492 234.5244 C 243.444 234.7968 243.5817 235.122 243.6593 235.4984 C 243.7076 235.7415 243.7325 236.1692 243.7325 236.78 L 243.7325 241.5621 L 242.4143 241.5621 L 242.4143 236.8312 C 242.4143 236.2937 242.363 235.8924 242.2605 235.6258 C 242.158 235.3607 241.9764 235.1483 241.7142 234.9887 C 241.4535 234.8305 241.1474 234.7514 240.7959 234.7514 C 240.2334 234.7514 239.7501 234.9286 239.3414 235.286 C 238.9343 235.6419 238.7307 236.3186 238.7307 237.3146 L 238.7307 241.5621 L 237.411 241.5621 Z " style="fill:#fff;fill-rule:nonzero;" stroke-width="1.46467"/>
      <path d="M 251.0793 239.0575 L 252.4414 239.226 C 252.2261 240.0228 251.8277 240.6394 251.2477 241.0788 C 250.6663 241.5182 249.9237 241.7379 249.02 241.7379 C 247.8834 241.7379 246.9812 241.3878 246.3147 240.6877 C 245.6483 239.9861 245.3144 239.0033 245.3144 237.7393 C 245.3144 236.4314 245.6512 235.4149 246.325 234.6928 C 246.9987 233.9693 247.8731 233.609 248.9467 233.609 C 249.9881 233.609 250.8376 233.9619 251.4967 234.6708 C 252.1558 235.3783 252.4854 236.3743 252.4854 237.6588 C 252.4854 237.7364 252.4825 237.8536 252.4781 238.0103 L 246.6765 238.0103 C 246.7263 238.8642 246.968 239.5189 247.4015 239.973 C 247.8365 240.427 248.3784 240.654 249.0273 240.654 C 249.5106 240.654 249.9237 240.5281 250.2664 240.2732 C 250.6077 240.0198 250.8786 239.6141 251.0793 239.0575 Z M 246.7497 236.9264 L 251.0939 236.9264 C 251.0354 236.2717 250.8684 235.7811 250.596 235.4544 C 250.1756 234.9462 249.6307 234.6928 248.9614 234.6928 C 248.3565 234.6928 247.8482 234.8949 247.4352 235.3007 C 247.0222 235.7049 246.7937 236.2483 246.7497 236.9264 Z " style="fill:#fff;fill-rule:nonzero;" stroke-width="1.46467"/>
      <path d="M 259.1423 241.5621 L 259.1423 240.5808 C 258.6502 241.3527 257.9252 241.7379 256.9673 241.7379 C 256.3477 241.7379 255.778 241.568 255.2565 241.2252 C 254.7366 240.884 254.3338 240.4065 254.0482 239.7943 C 253.7626 239.1806 253.6205 238.4761 253.6205 237.6807 C 253.6205 236.9045 253.7494 236.2 254.0086 235.5672 C 254.2679 234.936 254.656 234.4511 255.1731 234.1143 C 255.6901 233.7774 256.2686 233.609 256.9087 233.609 C 257.3774 233.609 257.7948 233.7071 258.161 233.9048 C 258.5271 234.1026 258.8259 234.3603 259.0544 234.6782 L 259.0544 230.8246 L 260.3653 230.8246 L 260.3653 241.5621 L 259.1423 241.5621 Z M 254.9753 237.6807 C 254.9753 238.6767 255.1848 239.4208 255.6051 239.9144 C 256.0255 240.408 256.5205 240.654 257.0918 240.654 C 257.6689 240.654 258.1581 240.4182 258.5608 239.9481 C 258.9636 239.4764 259.1643 238.7573 259.1643 237.7906 C 259.1643 236.7258 258.9592 235.9451 258.5491 235.4471 C 258.139 234.9491 257.6337 234.7001 257.0332 234.7001 C 256.4473 234.7001 255.9581 234.9389 255.5641 235.4178 C 255.1716 235.8953 254.9753 236.6511 254.9753 237.6807 Z " style="fill:#fff;fill-rule:nonzero;" stroke-width="1.46467"/>
      <path d="M 266.9212 241.5621 L 266.9212 234.81 L 265.7568 234.81 L 265.7568 233.7847 L 266.9212 233.7847 L 266.9212 232.9572 C 266.9212 232.4343 266.968 232.0462 267.0603 231.7913 C 267.1877 231.45 267.4104 231.1732 267.7311 230.9608 C 268.0504 230.7485 268.4986 230.6415 269.0742 230.6415 C 269.4448 230.6415 269.8564 230.6855 270.3046 230.7734 L 270.1068 231.9231 C 269.8344 231.8748 269.5752 231.8499 269.3306 231.8499 C 268.9307 231.8499 268.6466 231.9363 268.481 232.1077 C 268.3155 232.2776 268.2321 232.5983 268.2321 233.067 L 268.2321 233.7847 L 269.748 233.7847 L 269.748 234.81 L 268.2321 234.81 L 268.2321 241.5621 L 266.9212 241.5621 Z " style="fill:#fff;fill-rule:nonzero;" stroke-width="1.46467"/>
      <path d="M 270.7586 241.5621 L 270.7586 233.7847 L 271.945 233.7847 L 271.945 234.9638 C 272.2482 234.4116 272.5279 234.0484 272.7842 233.8726 C 273.0406 233.6968 273.3218 233.609 273.6294 233.609 C 274.0746 233.609 274.5257 233.7496 274.9856 234.0337 L 274.5316 235.2567 C 274.2094 235.0663 273.8871 234.9711 273.5634 234.9711 C 273.2764 234.9711 273.0171 235.0575 272.7872 235.2304 C 272.5587 235.4046 272.3946 235.6449 272.2965 235.9524 C 272.15 236.4211 272.0768 236.9338 272.0768 237.4903 L 272.0768 241.5621 L 270.7586 241.5621 Z " style="fill:#fff;fill-rule:nonzero;" stroke-width="1.46467"/>
      <path d="M 275.2786 237.6734 C 275.2786 236.2336 275.6784 235.1659 276.4796 234.4731 C 277.1475 233.896 277.9633 233.609 278.9256 233.609 C 279.9948 233.609 280.8692 233.959 281.5474 234.6591 C 282.227 235.3607 282.5653 236.3289 282.5653 237.5636 C 282.5653 238.5639 282.4159 239.3519 282.1157 239.9261 C 281.8154 240.4988 281.3775 240.9455 280.8048 241.2619 C 280.2306 241.5797 279.6037 241.7379 278.9256 241.7379 C 277.8374 241.7379 276.9571 241.3893 276.2848 240.6906 C 275.614 239.992 275.2786 238.9872 275.2786 237.6734 Z M 276.6334 237.6734 C 276.6334 238.6694 276.8502 239.4149 277.2852 239.9114 C 277.7187 240.4065 278.2665 240.654 278.9256 240.654 C 279.5803 240.654 280.1237 240.405 280.5587 239.907 C 280.9937 239.4091 281.2105 238.6504 281.2105 237.6295 C 281.2105 236.6672 280.9923 235.9393 280.5558 235.4427 C 280.1178 234.9477 279.5745 234.7001 278.9256 234.7001 C 278.2665 234.7001 277.7187 234.9462 277.2852 235.4398 C 276.8502 235.9319 276.6334 236.6774 276.6334 237.6734 Z " style="fill:#fff;fill-rule:nonzero;" stroke-width="1.46467"/>
      <path d="M 284.1105 241.5621 L 284.1105 233.7847 L 285.2896 233.7847 L 285.2896 234.8759 C 285.5342 234.4951 285.8594 234.189 286.2651 233.9561 C 286.6693 233.7247 287.1307 233.609 287.6492 233.609 C 288.2248 233.609 288.6979 233.7276 289.0655 233.9678 C 289.4346 234.2065 289.6939 234.5405 289.8462 234.9711 C 290.4613 234.063 291.2625 233.609 292.2482 233.609 C 293.0201 233.609 293.6133 233.8213 294.0278 234.249 C 294.4438 234.6767 294.6503 235.3343 294.6503 236.2234 L 294.6503 241.5621 L 293.3394 241.5621 L 293.3394 236.6628 C 293.3394 236.1355 293.2969 235.7562 293.212 235.5233 C 293.1256 235.2919 292.9703 235.1044 292.7462 234.9638 C 292.5221 234.8217 292.2585 234.7514 291.9553 234.7514 C 291.409 234.7514 290.9549 234.933 290.5932 235.2963 C 290.2314 235.661 290.0512 236.2424 290.0512 237.0436 L 290.0512 241.5621 L 288.733 241.5621 L 288.733 236.509 C 288.733 235.9231 288.6247 235.4837 288.4108 235.1908 C 288.1955 234.8979 287.844 234.7514 287.3562 234.7514 C 286.9842 234.7514 286.6415 234.8481 286.3266 235.0443 C 286.0117 235.2391 285.7832 235.5247 285.6411 235.9012 C 285.5005 236.2776 285.4287 236.8195 285.4287 237.527 L 285.4287 241.5621 L 284.1105 241.5621 Z " style="fill:#fff;fill-rule:nonzero;" stroke-width="1.46467"/>
      <path d="M 303.6522 240.3831 L 303.8426 241.5475 C 303.472 241.6266 303.1395 241.6646 302.8466 241.6646 C 302.3676 241.6646 301.9971 241.5899 301.7334 241.4376 C 301.4698 241.2868 301.2838 241.0876 301.1769 240.8415 C 301.0685 240.594 301.0158 240.0755 301.0158 239.2846 L 301.0158 234.81 L 300.0491 234.81 L 300.0491 233.7847 L 301.0158 233.7847 L 301.0158 231.8572 L 302.3266 231.0663 L 302.3266 233.7847 L 303.6522 233.7847 L 303.6522 234.81 L 302.3266 234.81 L 302.3266 239.3578 C 302.3266 239.7342 302.3501 239.9759 302.3955 240.0828 C 302.4423 240.1912 302.5185 240.2761 302.6225 240.3391 C 302.728 240.4036 302.8788 240.4343 303.0736 240.4343 C 303.2201 240.4343 303.4134 240.4182 303.6522 240.3831 Z " style="fill:#fff;fill-rule:nonzero;" stroke-width="1.46467"/>
      <path d="M 304.9411 241.5621 L 304.9411 230.8246 L 306.2593 230.8246 L 306.2593 234.6782 C 306.8744 233.9649 307.6507 233.609 308.5881 233.609 C 309.1652 233.609 309.6646 233.7217 310.0909 233.9488 C 310.5156 234.1758 310.8188 234.4892 311.0019 234.8905 C 311.185 235.2904 311.2772 235.8719 311.2772 236.6335 L 311.2772 241.5621 L 309.9576 241.5621 L 309.9576 236.6335 C 309.9576 235.9744 309.8155 235.494 309.5299 235.1937 C 309.2443 234.8935 308.84 234.7441 308.3171 234.7441 C 307.9275 234.7441 307.5599 234.8451 307.2157 235.0473 C 306.8715 235.2509 306.6254 235.5247 306.479 235.8719 C 306.3325 236.219 306.2593 236.6965 306.2593 237.3073 L 306.2593 241.5621 L 304.9411 241.5621 Z " style="fill:#fff;fill-rule:nonzero;" stroke-width="1.46467"/>
      <path d="M 313.2912 232.342 L 313.2912 230.8246 L 314.6094 230.8246 L 314.6094 232.342 L 313.2912 232.342 Z M 313.2912 241.5621 L 313.2912 233.7847 L 314.6094 233.7847 L 314.6094 241.5621 L 313.2912 241.5621 Z " style="fill:#fff;fill-rule:nonzero;" stroke-width="1.46467"/>
      <path d="M 316.0887 239.2406 L 317.3922 239.0356 C 317.4655 239.5585 317.6691 239.9583 318.0045 240.2366 C 318.3384 240.5149 318.8056 240.654 319.4062 240.654 C 320.0125 240.654 320.4607 240.531 320.7537 240.2849 C 321.0466 240.0374 321.1931 239.7489 321.1931 239.4164 C 321.1931 239.119 321.0642 238.8847 320.8049 238.7133 C 320.6248 238.5962 320.1751 238.4468 319.4574 238.2666 C 318.4907 238.022 317.8214 237.8111 317.4479 237.6324 C 317.0744 237.4552 316.7903 237.2077 316.5984 236.8928 C 316.405 236.5778 316.3084 236.2307 316.3084 235.8499 C 316.3084 235.5028 316.3875 235.182 316.5471 234.8862 C 316.7053 234.5918 316.9206 234.3457 317.1945 234.1509 C 317.3996 233.9986 317.6793 233.8711 318.0338 233.7657 C 318.3867 233.6602 318.7676 233.609 319.1718 233.609 C 319.7826 233.609 320.3186 233.6968 320.78 233.8726 C 321.2414 234.0484 321.5812 234.2856 321.8009 234.5859 C 322.0206 234.8862 322.1729 235.2875 322.2564 235.7913 L 320.966 235.9671 C 320.9074 235.5658 320.739 235.2538 320.4578 235.0297 C 320.1766 234.8041 319.7796 234.6928 319.267 234.6928 C 318.6621 234.6928 318.23 234.7924 317.9708 234.9931 C 317.7115 235.1923 317.5826 235.4266 317.5826 235.6961 C 317.5826 235.866 317.6368 236.0213 317.7438 236.1575 C 317.8507 236.2996 318.0191 236.4167 318.2491 236.509 C 318.3809 236.5573 318.769 236.6701 319.4135 236.8459 C 320.3465 237.0949 320.9968 237.2985 321.3659 237.4566 C 321.735 237.6163 322.0235 237.8463 322.2344 238.1494 C 322.4439 238.4526 322.5493 238.8276 322.5493 239.2772 C 322.5493 239.7166 322.4204 240.1311 322.1641 240.5193 C 321.9078 240.9074 321.5373 241.2077 321.0539 241.42 C 320.5706 241.6324 320.0242 241.7379 319.4135 241.7379 C 318.4029 241.7379 317.6324 241.5284 317.1037 241.1081 C 316.5735 240.6892 316.2351 240.0667 316.0887 239.2406 Z " style="fill:#fff;fill-rule:nonzero;" stroke-width="1.46467"/>
      <path d="M 328.2835 244.5442 L 328.2835 233.7847 L 329.4846 233.7847 L 329.4846 234.7953 C 329.7672 234.3999 330.088 234.1026 330.4439 233.9048 C 330.8013 233.7071 331.2334 233.609 331.7401 233.609 C 332.4051 233.609 332.991 233.7789 333.4977 234.1216 C 334.006 234.4629 334.3897 234.9447 334.649 235.5672 C 334.9068 236.1897 335.0371 236.8722 335.0371 237.6148 C 335.0371 238.4101 334.8936 239.1278 334.608 239.765 C 334.3224 240.4021 333.9079 240.8898 333.363 241.2296 C 332.8181 241.568 332.2455 241.7379 331.6449 241.7379 C 331.2055 241.7379 330.8115 241.6456 330.4629 241.4596 C 330.1129 241.275 329.8258 241.0407 329.6017 240.7566 L 329.6017 244.5442 L 328.2835 244.5442 Z M 329.4772 237.7174 C 329.4772 238.7177 329.6794 239.4574 330.0851 239.9363 C 330.4908 240.4153 330.9814 240.654 331.5571 240.654 C 332.1429 240.654 332.6453 240.4065 333.0627 239.9114 C 333.4802 239.4149 333.6882 238.6474 333.6882 237.6075 C 333.6882 236.6159 333.4846 235.8733 333.0774 235.3812 C 332.6702 234.8876 332.1825 234.6416 331.6156 234.6416 C 331.0547 234.6416 330.5582 234.9037 330.1261 235.4281 C 329.694 235.9539 329.4772 236.717 329.4772 237.7174 Z " style="fill:#fff;fill-rule:nonzero;" stroke-width="1.46467"/>
      <path d="M 336.6116 241.5621 L 336.6116 233.7847 L 337.798 233.7847 L 337.798 234.9638 C 338.0997 234.4116 338.3795 234.0484 338.6358 233.8726 C 338.8921 233.6968 339.1748 233.609 339.4824 233.609 C 339.9262 233.609 340.3788 233.7496 340.8372 234.0337 L 340.3832 235.2567 C 340.0609 235.0663 339.7387 234.9711 339.4165 234.9711 C 339.1279 234.9711 338.8702 235.0575 338.6402 235.2304 C 338.4102 235.4046 338.2477 235.6449 338.1495 235.9524 C 338.0031 236.4211 337.9298 236.9338 337.9298 237.4903 L 337.9298 241.5621 L 336.6116 241.5621 Z " style="fill:#fff;fill-rule:nonzero;" stroke-width="1.46467"/>
      <path d="M 341.1301 237.6734 C 341.1301 236.2336 341.53 235.1659 342.3312 234.4731 C 343.0005 233.896 343.8163 233.609 344.7772 233.609 C 345.8464 233.609 346.7208 233.959 347.4004 234.6591 C 348.0785 235.3607 348.4183 236.3289 348.4183 237.5636 C 348.4183 238.5639 348.2675 239.3519 347.9672 239.9261 C 347.667 240.4988 347.2305 240.9455 346.6563 241.2619 C 346.0822 241.5797 345.4568 241.7379 344.7772 241.7379 C 343.6889 241.7379 342.8087 241.3893 342.1378 240.6906 C 341.4656 239.992 341.1301 238.9872 341.1301 237.6734 Z M 342.485 237.6734 C 342.485 238.6694 342.7032 239.4149 343.1367 239.9114 C 343.5717 240.4065 344.1181 240.654 344.7772 240.654 C 345.4319 240.654 345.9767 240.405 346.4117 239.907 C 346.8453 239.4091 347.0635 238.6504 347.0635 237.6295 C 347.0635 236.6672 346.8438 235.9393 346.4073 235.4427 C 345.9709 234.9477 345.4275 234.7001 344.7772 234.7001 C 344.1181 234.7001 343.5717 234.9462 343.1367 235.4398 C 342.7032 235.9319 342.485 236.6774 342.485 237.6734 Z " style="fill:#fff;fill-rule:nonzero;" stroke-width="1.46467"/>
      <path d="M 349.9562 232.3567 L 349.9562 230.8246 L 351.2744 230.8246 L 351.2744 232.3567 L 349.9562 232.3567 Z M 348.2865 244.5808 L 348.5355 243.4589 C 348.7992 243.5277 349.0057 243.5614 349.158 243.5614 C 349.426 243.5614 349.6267 243.4735 349.7585 243.2948 C 349.8903 243.1161 349.9562 242.6709 349.9562 241.9576 L 349.9562 233.7847 L 351.2744 233.7847 L 351.2744 241.9869 C 351.2744 242.9448 351.1499 243.6112 350.901 243.9861 C 350.5831 244.4753 350.0558 244.7199 349.3191 244.7199 C 348.9617 244.7199 348.6175 244.6731 348.2865 244.5808 Z " style="fill:#fff;fill-rule:nonzero;" stroke-width="1.46467"/>
      <path d="M 358.6212 239.0575 L 359.9834 239.226 C 359.7681 240.0228 359.3697 240.6394 358.7897 241.0788 C 358.2082 241.5182 357.4656 241.7379 356.5619 241.7379 C 355.4253 241.7379 354.5231 241.3878 353.8567 240.6877 C 353.1902 239.9861 352.8563 239.0033 352.8563 237.7393 C 352.8563 236.4314 353.1932 235.4149 353.8669 234.6928 C 354.5407 233.9693 355.4151 233.609 356.4887 233.609 C 357.5286 233.609 358.3796 233.9619 359.0387 234.6708 C 359.6978 235.3783 360.0273 236.3743 360.0273 237.6588 C 360.0273 237.7364 360.0244 237.8536 360.02 238.0103 L 354.2184 238.0103 C 354.2668 238.8642 354.5099 239.5189 354.9434 239.973 C 355.3785 240.427 355.9204 240.654 356.5692 240.654 C 357.0526 240.654 357.4656 240.5281 357.8069 240.2732 C 358.1496 240.0198 358.4206 239.6141 358.6212 239.0575 Z M 354.2917 236.9264 L 358.6359 236.9264 C 358.5773 236.2717 358.4103 235.7811 358.1364 235.4544 C 357.7175 234.9462 357.1727 234.6928 356.5033 234.6928 C 355.8984 234.6928 355.3887 234.8949 354.9771 235.3007 C 354.5641 235.7049 354.3356 236.2483 354.2917 236.9264 Z " style="fill:#fff;fill-rule:nonzero;" stroke-width="1.46467"/>
      <path d="M 366.7135 238.7133 L 368.0098 238.8818 C 367.8692 239.7752 367.5059 240.4753 366.923 240.9806 C 366.3386 241.486 365.6224 241.7379 364.7728 241.7379 C 363.708 241.7379 362.8527 241.3908 362.2053 240.695 C 361.5594 239.9993 361.2357 239.0019 361.2357 237.7027 C 361.2357 236.8635 361.3748 236.1282 361.6531 235.4984 C 361.9314 234.8686 362.3547 234.3955 362.923 234.0806 C 363.4927 233.7657 364.1108 233.609 364.7802 233.609 C 365.6253 233.609 366.3151 233.8213 366.8527 234.249 C 367.3902 234.6767 367.7344 235.2831 367.8853 236.0696 L 366.6037 236.2673 C 366.4821 235.7444 366.2653 235.3519 365.9563 235.0883 C 365.6458 234.8246 365.2708 234.6928 364.8314 234.6928 C 364.1679 234.6928 363.6275 234.9301 363.213 235.4061 C 362.7985 235.8821 362.5905 236.6364 362.5905 237.6661 C 362.5905 238.7104 362.7911 239.4706 363.191 239.9437 C 363.5909 240.4182 364.1137 240.654 364.7582 240.654 C 365.2752 240.654 365.7073 240.4958 366.0544 240.178 C 366.4016 239.8602 366.6213 239.3724 366.7135 238.7133 Z " style="fill:#fff;fill-rule:nonzero;" stroke-width="1.46467"/>
      <path d="M 372.0171 240.3831 L 372.2075 241.5475 C 371.8355 241.6266 371.5045 241.6646 371.2115 241.6646 C 370.7326 241.6646 370.3606 241.5899 370.0969 241.4376 C 369.8333 241.2868 369.6487 241.0876 369.5403 240.8415 C 369.4334 240.594 369.3792 240.0755 369.3792 239.2846 L 369.3792 234.81 L 368.4125 234.81 L 368.4125 233.7847 L 369.3792 233.7847 L 369.3792 231.8572 L 370.6916 231.0663 L 370.6916 233.7847 L 372.0171 233.7847 L 372.0171 234.81 L 370.6916 234.81 L 370.6916 239.3578 C 370.6916 239.7342 370.7135 239.9759 370.7604 240.0828 C 370.8073 240.1912 370.882 240.2761 370.9874 240.3391 C 371.0929 240.4036 371.2423 240.4343 371.4386 240.4343 C 371.585 240.4343 371.7769 240.4182 372.0171 240.3831 Z " style="fill:#fff;fill-rule:nonzero;" stroke-width="1.46467"/>
      <path d="M 107.7467 257.0539 L 107.7467 256.0711 C 107.2546 256.843 106.5296 257.2297 105.5717 257.2297 C 104.9521 257.2297 104.3809 257.0583 103.8609 256.7171 C 103.341 256.3743 102.9382 255.8968 102.6526 255.2846 C 102.367 254.6724 102.2249 253.9679 102.2249 253.1711 C 102.2249 252.3948 102.3538 251.6903 102.613 251.059 C 102.8723 250.4263 103.2604 249.9415 103.7774 249.6046 C 104.2945 249.2677 104.873 249.0993 105.5131 249.0993 C 105.9818 249.0993 106.3992 249.1974 106.7654 249.3952 C 107.1315 249.5929 107.4303 249.8507 107.6588 250.1685 L 107.6588 246.3164 L 108.9697 246.3164 L 108.9697 257.0539 L 107.7467 257.0539 Z M 103.5797 253.1711 C 103.5797 254.1671 103.7892 254.9126 104.2095 255.4047 C 104.6299 255.8983 105.1249 256.1458 105.6962 256.1458 C 106.2718 256.1458 106.7624 255.91 107.1652 255.4384 C 107.568 254.9668 107.7687 254.2476 107.7687 253.2809 C 107.7687 252.2176 107.5636 251.4355 107.1535 250.9375 C 106.7434 250.4395 106.2381 250.1905 105.6376 250.1905 C 105.0517 250.1905 104.5625 250.4292 104.1685 250.9082 C 103.776 251.3871 103.5797 252.1414 103.5797 253.1711 Z " style="fill:#fff;fill-rule:nonzero;" stroke-width="1.46467"/>
      <path d="M 116.1407 257.0539 L 116.1407 255.91 C 115.5358 256.7903 114.7127 257.2297 113.6727 257.2297 C 113.2128 257.2297 112.7852 257.1418 112.3868 256.9661 C 111.9884 256.7903 111.694 256.5691 111.5006 256.3026 C 111.3073 256.036 111.1726 255.7108 111.0949 255.3242 C 111.0407 255.0664 111.0144 254.6563 111.0144 254.0938 L 111.0144 249.2751 L 112.3326 249.2751 L 112.3326 253.5885 C 112.3326 254.2769 112.3589 254.7412 112.4131 254.98 C 112.4952 255.3271 112.6709 255.5995 112.9404 255.7972 C 113.2084 255.995 113.5409 256.0931 113.9364 256.0931 C 114.3319 256.0931 114.7024 255.992 115.0495 255.7899 C 115.3967 255.5878 115.6413 255.311 115.7848 254.9624 C 115.9298 254.6138 116.0016 254.107 116.0016 253.4421 L 116.0016 249.2751 L 117.3198 249.2751 L 117.3198 257.0539 L 116.1407 257.0539 Z " style="fill:#fff;fill-rule:nonzero;" stroke-width="1.46467"/>
      <path d="M 124.7105 254.5479 L 126.0726 254.7163 C 125.8573 255.5131 125.4589 256.1312 124.8789 256.5706 C 124.2975 257.01 123.5549 257.2297 122.6526 257.2297 C 121.5146 257.2297 120.6124 256.8782 119.9459 256.1781 C 119.2795 255.4779 118.9456 254.4952 118.9456 253.2297 C 118.9456 251.9217 119.2824 250.9052 119.9562 250.1832 C 120.6299 249.4611 121.5043 249.0993 122.5779 249.0993 C 123.6193 249.0993 124.4688 249.4538 125.1279 250.1612 C 125.787 250.8686 126.1166 251.8646 126.1166 253.1491 C 126.1166 253.2282 126.1137 253.3454 126.1093 253.5006 L 120.3077 253.5006 C 120.3575 254.356 120.5992 255.0093 121.0327 255.4633 C 121.4677 255.9173 122.0097 256.1458 122.66 256.1458 C 123.1433 256.1458 123.5549 256.0184 123.8976 255.7636 C 124.2389 255.5102 124.5098 255.1045 124.7105 254.5479 Z M 120.3809 252.4168 L 124.7251 252.4168 C 124.6666 251.7621 124.4996 251.2714 124.2272 250.9448 C 123.8068 250.4366 123.2619 250.1832 122.5926 250.1832 C 121.9877 250.1832 121.4794 250.3853 121.0664 250.791 C 120.6534 251.1967 120.4249 251.7386 120.3809 252.4168 Z " style="fill:#fff;fill-rule:nonzero;" stroke-width="1.46467"/>
      <path d="M 134.7742 255.8734 L 134.9647 257.0393 C 134.5926 257.1169 134.2602 257.1565 133.9672 257.1565 C 133.4897 257.1565 133.1177 257.0803 132.8541 256.9294 C 132.5904 256.7771 132.4059 256.5779 132.2975 256.3319 C 132.1906 256.0858 132.1364 255.5658 132.1364 254.7749 L 132.1364 250.3003 L 131.1697 250.3003 L 131.1697 249.2751 L 132.1364 249.2751 L 132.1364 247.349 L 133.4473 246.5581 L 133.4473 249.2751 L 134.7742 249.2751 L 134.7742 250.3003 L 133.4473 250.3003 L 133.4473 254.8481 C 133.4473 255.2246 133.4707 255.4662 133.5176 255.5732 C 133.5644 255.6815 133.6391 255.7665 133.7446 255.8295 C 133.85 255.8939 133.9994 255.9247 134.1942 255.9247 C 134.3407 255.9247 134.534 255.9086 134.7742 255.8734 Z " style="fill:#fff;fill-rule:nonzero;" stroke-width="1.46467"/>
      <path d="M 135.5725 253.1638 C 135.5725 251.724 135.9723 250.6563 136.7735 249.9635 C 137.4414 249.3879 138.2572 249.0993 139.2195 249.0993 C 140.2887 249.0993 141.1631 249.4494 141.8413 250.1509 C 142.5194 250.8511 142.8592 251.8192 142.8592 253.0539 C 142.8592 254.0558 142.7098 254.8423 142.4096 255.4164 C 142.1093 255.9906 141.6714 256.4358 141.0987 256.7537 C 140.5245 257.07 139.8977 257.2297 139.2195 257.2297 C 138.1298 257.2297 137.251 256.8796 136.5787 256.1825 C 135.9079 255.4838 135.5725 254.4776 135.5725 253.1638 Z M 136.9273 253.1638 C 136.9273 254.1597 137.1441 254.9067 137.5791 255.4018 C 138.0126 255.8968 138.5604 256.1458 139.2195 256.1458 C 139.8742 256.1458 140.4176 255.8954 140.8526 255.3974 C 141.2876 254.8994 141.5044 254.1407 141.5044 253.1198 C 141.5044 252.159 141.2862 251.4296 140.8497 250.9345 C 140.4118 250.438 139.8684 250.1905 139.2195 250.1905 C 138.5604 250.1905 138.0126 250.4366 137.5791 250.9301 C 137.1441 251.4237 136.9273 252.1678 136.9273 253.1638 Z " style="fill:#fff;fill-rule:nonzero;" stroke-width="1.46467"/>
      <path d="M 148.5802 247.8324 L 148.5802 246.3164 L 149.8984 246.3164 L 149.8984 247.8324 L 148.5802 247.8324 Z M 148.5802 257.0539 L 148.5802 249.2751 L 149.8984 249.2751 L 149.8984 257.0539 L 148.5802 257.0539 Z " style="fill:#fff;fill-rule:nonzero;" stroke-width="1.46467"/>
      <path d="M 151.905 257.0539 L 151.905 249.2751 L 153.0914 249.2751 L 153.0914 250.3809 C 153.6626 249.527 154.4872 249.0993 155.5667 249.0993 C 156.0354 249.0993 156.466 249.1828 156.86 249.3512 C 157.2525 249.5197 157.5469 249.7408 157.7417 250.0147 C 157.938 250.2886 158.0742 250.6123 158.1518 250.9887 C 158.2016 251.2333 158.2251 251.6596 158.2251 252.2703 L 158.2251 257.0539 L 156.9069 257.0539 L 156.9069 252.3216 C 156.9069 251.7841 156.8556 251.3827 156.7531 251.1176 C 156.6506 250.8511 156.4689 250.6387 156.2082 250.4805 C 155.9461 250.3208 155.6399 250.2418 155.2884 250.2418 C 154.7274 250.2418 154.2426 250.4204 153.8355 250.7764 C 153.4268 251.1323 153.2232 251.809 153.2232 252.8049 L 153.2232 257.0539 L 151.905 257.0539 Z " style="fill:#fff;fill-rule:nonzero;" stroke-width="1.46467"/>
      <path d="M 165.3229 256.0931 C 164.8351 256.5091 164.365 256.802 163.9124 256.9734 C 163.4613 257.1433 162.9765 257.2297 162.4594 257.2297 C 161.6041 257.2297 160.9479 257.0202 160.4895 256.6028 C 160.0296 256.1854 159.8011 255.6522 159.8011 255.0019 C 159.8011 254.6211 159.8875 254.274 160.0603 253.9591 C 160.2331 253.6442 160.4602 253.3908 160.7414 253.2004 C 161.0226 253.01 161.339 252.8664 161.6905 252.7683 C 161.9483 252.7009 162.3393 252.635 162.8622 252.5706 C 163.927 252.4446 164.7106 252.2923 165.213 252.1165 C 165.2174 251.9364 165.2203 251.8207 165.2203 251.7723 C 165.2203 251.2348 165.0958 250.8569 164.8469 250.6372 C 164.51 250.3399 164.0091 250.1905 163.3456 250.1905 C 162.7245 250.1905 162.2676 250.2989 161.9717 250.5171 C 161.6773 250.7339 161.4576 251.1176 161.317 251.6698 L 160.0281 251.494 C 160.1453 250.9419 160.3371 250.4966 160.6066 250.1583 C 160.8747 249.8185 161.2628 249.5563 161.771 249.3732 C 162.2778 249.1901 162.8666 249.0993 163.536 249.0993 C 164.1995 249.0993 164.7399 249.1769 165.1544 249.3337 C 165.5689 249.4904 165.8751 249.6866 166.0699 249.9225 C 166.2647 250.1597 166.4023 250.4585 166.48 250.8203 C 166.5239 251.0444 166.5459 251.4501 166.5459 252.036 L 166.5459 253.7936 C 166.5459 255.0195 166.5737 255.7943 166.6308 256.1195 C 166.6865 256.4446 166.7978 256.7551 166.9633 257.0539 L 165.5865 257.0539 C 165.4503 256.78 165.3624 256.4607 165.3229 256.0931 Z M 165.213 253.1491 C 164.7341 253.3454 164.0164 253.5109 163.06 253.6471 C 162.518 253.7262 162.1343 253.8141 161.9102 253.9108 C 161.6846 254.0089 161.5118 254.1524 161.3902 254.3399 C 161.2672 254.5274 161.2071 254.7368 161.2071 254.9653 C 161.2071 255.3168 161.3404 255.6098 161.6055 255.8441 C 161.8721 256.0785 162.2617 256.1971 162.7743 256.1971 C 163.2826 256.1971 163.7337 256.0858 164.1292 255.8632 C 164.5246 255.6405 164.8146 255.3373 165.0006 254.9507 C 165.1427 254.6533 165.213 254.2139 165.213 253.6325 L 165.213 253.1491 Z " style="fill:#fff;fill-rule:nonzero;" stroke-width="1.46467"/>
      <path d="M 168.5891 260.0345 L 168.5891 249.2751 L 169.7901 249.2751 L 169.7901 250.2857 C 170.0743 249.8902 170.3936 249.5929 170.7495 249.3952 C 171.1069 249.1974 171.5389 249.0993 172.0472 249.0993 C 172.7107 249.0993 173.2965 249.2707 173.8048 249.6119 C 174.3116 249.9532 174.6953 250.4366 174.9545 251.059 C 175.2138 251.6815 175.3427 252.3641 175.3427 253.1052 C 175.3427 253.902 175.1991 254.6182 174.9135 255.2553 C 174.6279 255.8925 174.2134 256.3802 173.6686 256.72 C 173.1252 257.0598 172.5525 257.2297 171.952 257.2297 C 171.5126 257.2297 171.1171 257.136 170.7685 256.9514 C 170.4199 256.7654 170.1328 256.531 169.9073 256.2484 L 169.9073 260.0345 L 168.5891 260.0345 Z M 169.7828 253.2077 C 169.7828 254.2095 169.9864 254.9492 170.3906 255.4267 C 170.7963 255.9056 171.287 256.1458 171.8641 256.1458 C 172.45 256.1458 172.9509 255.8968 173.3683 255.4018 C 173.7857 254.9067 173.9952 254.1378 173.9952 253.0979 C 173.9952 252.1077 173.7916 251.3652 173.383 250.8716 C 172.9758 250.378 172.488 250.1319 171.9227 250.1319 C 171.3602 250.1319 170.8637 250.3941 170.4316 250.9199 C 169.9996 251.4442 169.7828 252.2073 169.7828 253.2077 Z " style="fill:#fff;fill-rule:nonzero;" stroke-width="1.46467"/>
      <path d="M 176.9318 260.0345 L 176.9318 249.2751 L 178.1329 249.2751 L 178.1329 250.2857 C 178.4156 249.8902 178.7363 249.5929 179.0922 249.3952 C 179.4496 249.1974 179.8817 249.0993 180.3885 249.0993 C 181.0534 249.0993 181.6393 249.2707 182.1461 249.6119 C 182.6543 249.9532 183.0381 250.4366 183.2973 251.059 C 183.5551 251.6815 183.6854 252.3641 183.6854 253.1052 C 183.6854 253.902 183.5419 254.6182 183.2563 255.2553 C 182.9707 255.8925 182.5562 256.3802 182.0113 256.72 C 181.4665 257.0598 180.8938 257.2297 180.2933 257.2297 C 179.8539 257.2297 179.4599 257.136 179.1113 256.9514 C 178.7612 256.7654 178.4741 256.531 178.25 256.2484 L 178.25 260.0345 L 176.9318 260.0345 Z M 178.1256 253.2077 C 178.1256 254.2095 178.3277 254.9492 178.7334 255.4267 C 179.1391 255.9056 179.6298 256.1458 180.2054 256.1458 C 180.7913 256.1458 181.2936 255.8968 181.7111 255.4018 C 182.1285 254.9067 182.3365 254.1378 182.3365 253.0979 C 182.3365 252.1077 182.1329 251.3652 181.7257 250.8716 C 181.3185 250.378 180.8308 250.1319 180.264 250.1319 C 179.703 250.1319 179.2065 250.3941 178.7744 250.9199 C 178.3423 251.4442 178.1256 252.2073 178.1256 253.2077 Z " style="fill:#fff;fill-rule:nonzero;" stroke-width="1.46467"/>
      <path d="M 185.26 257.0539 L 185.26 249.2751 L 186.4463 249.2751 L 186.4463 250.4541 C 186.7481 249.902 187.0278 249.5387 187.2841 249.363 C 187.5405 249.1872 187.8231 249.0993 188.1307 249.0993 C 188.5745 249.0993 189.0271 249.2414 189.4855 249.5241 L 189.0315 250.7471 C 188.7093 250.5567 188.387 250.4615 188.0648 250.4615 C 187.7763 250.4615 187.5185 250.5479 187.2885 250.7222 C 187.0586 250.895 186.8945 251.1352 186.7979 251.4428 C 186.6514 251.9115 186.5782 252.4241 186.5782 252.9807 L 186.5782 257.0539 L 185.26 257.0539 Z " style="fill:#fff;fill-rule:nonzero;" stroke-width="1.46467"/>
      <path d="M 189.7785 253.1638 C 189.7785 251.724 190.1783 250.6563 190.9795 249.9635 C 191.6489 249.3879 192.4647 249.0993 193.4255 249.0993 C 194.4947 249.0993 195.3691 249.4494 196.0487 250.1509 C 196.7269 250.8511 197.0667 251.8192 197.0667 253.0539 C 197.0667 254.0558 196.9158 254.8423 196.6155 255.4164 C 196.3153 255.9906 195.8788 256.4358 195.3047 256.7537 C 194.7305 257.07 194.1051 257.2297 193.4255 257.2297 C 192.3372 257.2297 191.457 256.8796 190.7862 256.1825 C 190.1139 255.4838 189.7785 254.4776 189.7785 253.1638 Z M 191.1333 253.1638 C 191.1333 254.1597 191.3515 254.9067 191.7851 255.4018 C 192.2201 255.8968 192.7664 256.1458 193.4255 256.1458 C 194.0802 256.1458 194.6251 255.8954 195.0586 255.3974 C 195.4936 254.8994 195.7118 254.1407 195.7118 253.1198 C 195.7118 252.159 195.4921 251.4296 195.0557 250.9345 C 194.6192 250.438 194.0758 250.1905 193.4255 250.1905 C 192.7664 250.1905 192.2201 250.4366 191.7851 250.9301 C 191.3515 251.4237 191.1333 252.1678 191.1333 253.1638 Z " style="fill:#fff;fill-rule:nonzero;" stroke-width="1.46467"/>
      <path d="M 198.6119 260.0345 L 198.6119 249.2751 L 199.8129 249.2751 L 199.8129 250.2857 C 200.0956 249.8902 200.4164 249.5929 200.7723 249.3952 C 201.1282 249.1974 201.5603 249.0993 202.0685 249.0993 C 202.732 249.0993 203.3193 249.2707 203.8261 249.6119 C 204.3344 249.9532 204.7181 250.4366 204.9759 251.059 C 205.2351 251.6815 205.364 252.3641 205.364 253.1052 C 205.364 253.902 205.2219 254.6182 204.9363 255.2553 C 204.6507 255.8925 204.2348 256.3802 203.6914 256.72 C 203.1465 257.0598 202.5738 257.2297 201.9733 257.2297 C 201.5339 257.2297 201.1399 257.136 200.7899 256.9514 C 200.4413 256.7654 200.1542 256.531 199.9301 256.2484 L 199.9301 260.0345 L 198.6119 260.0345 Z M 199.8056 253.2077 C 199.8056 254.2095 200.0077 254.9492 200.4134 255.4267 C 200.8191 255.9056 201.3098 256.1458 201.8854 256.1458 C 202.4713 256.1458 202.9737 255.8968 203.3911 255.4018 C 203.8085 254.9067 204.0165 254.1378 204.0165 253.0979 C 204.0165 252.1077 203.8129 251.3652 203.4058 250.8716 C 202.9971 250.378 202.5108 250.1319 201.944 250.1319 C 201.383 250.1319 200.8851 250.3941 200.453 250.9199 C 200.0209 251.4442 199.8056 252.2073 199.8056 253.2077 Z " style="fill:#fff;fill-rule:nonzero;" stroke-width="1.46467"/>
      <path d="M 206.9385 257.0539 L 206.9385 249.2751 L 208.1264 249.2751 L 208.1264 250.4541 C 208.4281 249.902 208.7079 249.5387 208.9642 249.363 C 209.2205 249.1872 209.5032 249.0993 209.8108 249.0993 C 210.2546 249.0993 210.7057 249.2414 211.1656 249.5241 L 210.7115 250.7471 C 210.3893 250.5567 210.0671 250.4615 209.7448 250.4615 C 209.4563 250.4615 209.1971 250.5479 208.9686 250.7222 C 208.7386 250.895 208.5746 251.1352 208.4779 251.4428 C 208.3314 251.9115 208.2582 252.4241 208.2582 252.9807 L 208.2582 257.0539 L 206.9385 257.0539 Z " style="fill:#fff;fill-rule:nonzero;" stroke-width="1.46467"/>
      <path d="M 211.9565 247.8324 L 211.9565 246.3164 L 213.2747 246.3164 L 213.2747 247.8324 L 211.9565 247.8324 Z M 211.9565 257.0539 L 211.9565 249.2751 L 213.2747 249.2751 L 213.2747 257.0539 L 211.9565 257.0539 Z " style="fill:#fff;fill-rule:nonzero;" stroke-width="1.46467"/>
      <path d="M 220.3578 256.0931 C 219.8686 256.5091 219.3985 256.802 218.9474 256.9734 C 218.4963 257.1433 218.0114 257.2297 217.493 257.2297 C 216.6391 257.2297 215.9829 257.0202 215.523 256.6028 C 215.0645 256.1854 214.8346 255.6522 214.8346 255.0019 C 214.8346 254.6211 214.921 254.274 215.0953 253.9591 C 215.2681 253.6442 215.4951 253.3908 215.7764 253.2004 C 216.0561 253.01 216.3725 252.8664 216.724 252.7683 C 216.9832 252.7009 217.3743 252.635 217.8957 252.5706 C 218.9606 252.4446 219.7442 252.2923 220.248 252.1165 C 220.2524 251.9364 220.2553 251.8207 220.2553 251.7723 C 220.2553 251.2348 220.1308 250.8569 219.8818 250.6372 C 219.545 250.3399 219.044 250.1905 218.3791 250.1905 C 217.7595 250.1905 217.3011 250.2989 217.0067 250.5171 C 216.7108 250.7339 216.4926 251.1176 216.3505 251.6698 L 215.0616 251.494 C 215.1788 250.9419 215.3721 250.4966 215.6401 250.1583 C 215.9096 249.8185 216.2978 249.5563 216.8046 249.3732 C 217.3128 249.1901 217.9016 249.0993 218.5695 249.0993 C 219.2344 249.0993 219.7734 249.1769 220.1894 249.3337 C 220.6039 249.4904 220.9086 249.6866 221.1048 249.9225 C 221.2996 250.1597 221.4358 250.4585 221.5149 250.8203 C 221.5589 251.0444 221.5808 251.4501 221.5808 252.036 L 221.5808 253.7936 C 221.5808 255.0195 221.6087 255.7943 221.6643 256.1195 C 221.7215 256.4446 221.8313 256.7551 221.9983 257.0539 L 220.6215 257.0539 C 220.4838 256.78 220.3959 256.4607 220.3578 256.0931 Z M 220.248 253.1491 C 219.7691 253.3454 219.0514 253.5109 218.0935 253.6471 C 217.5515 253.7262 217.1693 253.8141 216.9437 253.9108 C 216.7196 254.0089 216.5468 254.1524 216.4237 254.3399 C 216.3022 254.5274 216.2407 254.7368 216.2407 254.9653 C 216.2407 255.3168 216.3739 255.6098 216.6405 255.8441 C 216.9056 256.0785 217.2952 256.1971 217.8079 256.1971 C 218.3161 256.1971 218.7672 256.0858 219.1627 255.8632 C 219.5596 255.6405 219.8496 255.3373 220.0356 254.9507 C 220.1762 254.6533 220.248 254.2139 220.248 253.6325 L 220.248 253.1491 Z " style="fill:#fff;fill-rule:nonzero;" stroke-width="1.46467"/>
      <path d="M 226.5021 255.8734 L 226.6925 257.0393 C 226.322 257.1169 225.9895 257.1565 225.6966 257.1565 C 225.2176 257.1565 224.8471 257.0803 224.5834 256.9294 C 224.3198 256.7771 224.1338 256.5779 224.0268 256.3319 C 223.9199 256.0858 223.8657 255.5658 223.8657 254.7749 L 223.8657 250.3003 L 222.899 250.3003 L 222.899 249.2751 L 223.8657 249.2751 L 223.8657 247.349 L 225.1766 246.5581 L 225.1766 249.2751 L 226.5021 249.2751 L 226.5021 250.3003 L 225.1766 250.3003 L 225.1766 254.8481 C 225.1766 255.2246 225.2 255.4662 225.2455 255.5732 C 225.2923 255.6815 225.3685 255.7665 225.4739 255.8295 C 225.5779 255.8939 225.7288 255.9247 225.9236 255.9247 C 226.0701 255.9247 226.2634 255.9086 226.5021 255.8734 Z " style="fill:#fff;fill-rule:nonzero;" stroke-width="1.46467"/>
      <path d="M 233.1166 254.5479 L 234.4787 254.7163 C 234.2634 255.5131 233.865 256.1312 233.285 256.5706 C 232.7036 257.01 231.961 257.2297 231.0573 257.2297 C 229.9207 257.2297 229.0184 256.8782 228.352 256.1781 C 227.6856 255.4779 227.3516 254.4952 227.3516 253.2297 C 227.3516 251.9217 227.6885 250.9052 228.3623 250.1832 C 229.036 249.4611 229.9104 249.0993 230.984 249.0993 C 232.0254 249.0993 232.8749 249.4538 233.534 250.1612 C 234.1931 250.8686 234.5227 251.8646 234.5227 253.1491 C 234.5227 253.2282 234.5197 253.3454 234.5153 253.5006 L 228.7138 253.5006 C 228.7636 254.356 229.0053 255.0093 229.4388 255.4633 C 229.8738 255.9173 230.4157 256.1458 231.0646 256.1458 C 231.5494 256.1458 231.961 256.0184 232.3037 255.7636 C 232.645 255.5102 232.9159 255.1045 233.1166 254.5479 Z M 228.787 252.4168 L 233.1312 252.4168 C 233.0726 251.7621 232.9057 251.2714 232.6332 250.9448 C 232.2129 250.4366 231.668 250.1832 230.9987 250.1832 C 230.3938 250.1832 229.8855 250.3853 229.4725 250.791 C 229.0595 251.1967 228.831 251.7386 228.787 252.4168 Z " style="fill:#fff;fill-rule:nonzero;" stroke-width="1.46467"/>
      <path d="M 239.8101 253.1638 C 239.8101 251.724 240.2114 250.6563 241.0112 249.9635 C 241.6805 249.3879 242.4963 249.0993 243.4572 249.0993 C 244.5278 249.0993 245.4008 249.4494 246.0804 250.1509 C 246.7585 250.8511 247.0983 251.8192 247.0983 253.0539 C 247.0983 254.0558 246.9475 254.8423 246.6472 255.4164 C 246.347 255.9906 245.9105 256.4358 245.3363 256.7537 C 244.7622 257.07 244.1368 257.2297 243.4572 257.2297 C 242.3689 257.2297 241.4886 256.8796 240.8178 256.1825 C 240.1455 255.4838 239.8101 254.4776 239.8101 253.1638 Z M 241.1649 253.1638 C 241.1649 254.1597 241.3832 254.9067 241.8167 255.4018 C 242.2517 255.8968 242.7981 256.1458 243.4572 256.1458 C 244.1119 256.1458 244.6567 255.8954 245.0917 255.3974 C 245.5253 254.8994 245.7435 254.1407 245.7435 253.1198 C 245.7435 252.159 245.5253 251.4296 245.0873 250.9345 C 244.6509 250.438 244.1075 250.1905 243.4572 250.1905 C 242.7981 250.1905 242.2517 250.4366 241.8167 250.9301 C 241.3832 251.4237 241.1649 252.1678 241.1649 253.1638 Z " style="fill:#fff;fill-rule:nonzero;" stroke-width="1.46467"/>
      <path d="M 248.6289 257.0539 L 248.6289 249.2751 L 249.8153 249.2751 L 249.8153 250.4541 C 250.1185 249.902 250.3982 249.5387 250.6545 249.363 C 250.9109 249.1872 251.1921 249.0993 251.4997 249.0993 C 251.9449 249.0993 252.396 249.2414 252.8545 249.5241 L 252.4004 250.7471 C 252.0782 250.5567 251.756 250.4615 251.4338 250.4615 C 251.1452 250.4615 250.8874 250.5479 250.6575 250.7222 C 250.4275 250.895 250.2649 251.1352 250.1668 251.4428 C 250.0203 251.9115 249.9471 252.4241 249.9471 252.9807 L 249.9471 257.0539 L 248.6289 257.0539 Z " style="fill:#fff;fill-rule:nonzero;" stroke-width="1.46467"/>
      <path d="M 257.3159 253.1638 C 257.3159 251.724 257.7157 250.6563 258.5169 249.9635 C 259.1848 249.3879 260.0006 249.0993 260.9629 249.0993 C 262.0321 249.0993 262.9065 249.4494 263.5847 250.1509 C 264.2643 250.8511 264.6026 251.8192 264.6026 253.0539 C 264.6026 254.0558 264.4532 254.8423 264.1529 255.4164 C 263.8527 255.9906 263.4148 256.4358 262.8421 256.7537 C 262.2679 257.07 261.641 257.2297 260.9629 257.2297 C 259.8746 257.2297 258.9944 256.8796 258.3221 256.1825 C 257.6513 255.4838 257.3159 254.4776 257.3159 253.1638 Z M 258.6707 253.1638 C 258.6707 254.1597 258.8875 254.9067 259.3225 255.4018 C 259.7575 255.8968 260.3038 256.1458 260.9629 256.1458 C 261.6176 256.1458 262.161 255.8954 262.596 255.3974 C 263.031 254.8994 263.2478 254.1407 263.2478 253.1198 C 263.2478 252.159 263.0295 251.4296 262.5931 250.9345 C 262.1551 250.438 261.6117 250.1905 260.9629 250.1905 C 260.3038 250.1905 259.7575 250.4366 259.3225 250.9301 C 258.8875 251.4237 258.6707 252.1678 258.6707 253.1638 Z " style="fill:#fff;fill-rule:nonzero;" stroke-width="1.46467"/>
      <path d="M 266.4627 257.0539 L 266.4627 250.3003 L 265.2983 250.3003 L 265.2983 249.2751 L 266.4627 249.2751 L 266.4627 248.4475 C 266.4627 247.9246 266.5096 247.5365 266.6019 247.2831 C 266.7293 246.9404 266.9534 246.6636 267.2727 246.4512 C 267.592 246.2388 268.0402 246.1334 268.6173 246.1334 C 268.9878 246.1334 269.3979 246.1773 269.8476 246.2652 L 269.6499 247.4149 C 269.376 247.3651 269.1167 247.3417 268.8736 247.3417 C 268.4723 247.3417 268.1896 247.4267 268.0241 247.598 C 267.8571 247.7679 267.7751 248.0887 267.7751 248.5574 L 267.7751 249.2751 L 269.291 249.2751 L 269.291 250.3003 L 267.7751 250.3003 L 267.7751 257.0539 L 266.4627 257.0539 Z " style="fill:#fff;fill-rule:nonzero;" stroke-width="1.46467"/>
      <path d="M 270.3602 257.0539 L 270.3602 250.3003 L 269.1958 250.3003 L 269.1958 249.2751 L 270.3602 249.2751 L 270.3602 248.4475 C 270.3602 247.9246 270.4056 247.5365 270.4994 247.2831 C 270.6253 246.9404 270.8494 246.6636 271.1687 246.4512 C 271.4895 246.2388 271.9377 246.1334 272.5133 246.1334 C 272.8838 246.1334 273.294 246.1773 273.7436 246.2652 L 273.5459 247.4149 C 273.272 247.3651 273.0142 247.3417 272.7696 247.3417 C 272.3697 247.3417 272.0856 247.4267 271.9201 247.598 C 271.7546 247.7679 271.6711 248.0887 271.6711 248.5574 L 271.6711 249.2751 L 273.187 249.2751 L 273.187 250.3003 L 271.6711 250.3003 L 271.6711 257.0539 L 270.3602 257.0539 Z " style="fill:#fff;fill-rule:nonzero;" stroke-width="1.46467"/>
      <path d="M 279.5364 254.5479 L 280.9 254.7163 C 280.6847 255.5131 280.2863 256.1312 279.7048 256.5706 C 279.1248 257.01 278.3822 257.2297 277.4785 257.2297 C 276.3419 257.2297 275.4397 256.8782 274.7733 256.1781 C 274.1068 255.4779 273.7729 254.4952 273.7729 253.2297 C 273.7729 251.9217 274.1098 250.9052 274.7835 250.1832 C 275.4573 249.4611 276.3317 249.0993 277.4053 249.0993 C 278.4452 249.0993 279.2947 249.4538 279.9553 250.1612 C 280.6144 250.8686 280.9439 251.8646 280.9439 253.1491 C 280.9439 253.2282 280.941 253.3454 280.9366 253.5006 L 275.135 253.5006 C 275.1834 254.356 275.425 255.0093 275.8601 255.4633 C 276.2951 255.9173 276.837 256.1458 277.4858 256.1458 C 277.9692 256.1458 278.3822 256.0184 278.7235 255.7636 C 279.0662 255.5102 279.3372 255.1045 279.5364 254.5479 Z M 275.2083 252.4168 L 279.551 252.4168 C 279.4924 251.7621 279.3269 251.2714 279.053 250.9448 C 278.6341 250.4366 278.0893 250.1832 277.4199 250.1832 C 276.815 250.1832 276.3053 250.3853 275.8937 250.791 C 275.4807 251.1967 275.2522 251.7386 275.2083 252.4168 Z " style="fill:#fff;fill-rule:nonzero;" stroke-width="1.46467"/>
      <path d="M 282.5551 257.0539 L 282.5551 249.2751 L 283.7414 249.2751 L 283.7414 250.3809 C 284.3127 249.527 285.1373 249.0993 286.2167 249.0993 C 286.6854 249.0993 287.116 249.1828 287.51 249.3512 C 287.9026 249.5197 288.197 249.7408 288.3918 250.0147 C 288.588 250.2886 288.7242 250.6123 288.8019 250.9887 C 288.8517 251.2333 288.8751 251.6596 288.8751 252.2703 L 288.8751 257.0539 L 287.5569 257.0539 L 287.5569 252.3216 C 287.5569 251.7841 287.5056 251.3827 287.4031 251.1176 C 287.3006 250.8511 287.119 250.6387 286.8583 250.4805 C 286.5961 250.3208 286.29 250.2418 285.9384 250.2418 C 285.3775 250.2418 284.8927 250.4204 284.484 250.7764 C 284.0769 251.1323 283.8733 251.809 283.8733 252.8049 L 283.8733 257.0539 L 282.5551 257.0539 Z " style="fill:#fff;fill-rule:nonzero;" stroke-width="1.46467"/>
      <path d="M 290.3691 254.731 L 291.6726 254.5259 C 291.7459 255.0488 291.9509 255.4487 292.2849 255.7269 C 292.6188 256.0052 293.0875 256.1458 293.688 256.1458 C 294.2929 256.1458 294.7426 256.0213 295.0355 255.7753 C 295.3284 255.5292 295.4749 255.2392 295.4749 254.9067 C 295.4749 254.6094 295.3446 254.3751 295.0868 254.2037 C 294.9052 254.0865 294.457 253.9386 293.7393 253.757 C 292.7726 253.5138 292.1018 253.3014 291.7283 253.1242 C 291.3548 252.9455 291.0721 252.6995 290.8788 252.3846 C 290.6854 252.0697 290.5888 251.7211 290.5888 251.3403 C 290.5888 250.9931 290.6693 250.6724 290.8275 250.378 C 290.9857 250.0821 291.2025 249.836 291.4749 249.6412 C 291.68 249.4904 291.9597 249.3615 292.3142 249.256 C 292.6686 249.152 293.048 249.0993 293.4537 249.0993 C 294.063 249.0993 294.599 249.1872 295.0604 249.363 C 295.5218 249.5387 295.8631 249.776 296.0828 250.0762 C 296.3025 250.378 296.4533 250.7793 296.5368 251.2817 L 295.2479 251.4574 C 295.1893 251.0576 295.0194 250.7441 294.7382 250.52 C 294.4584 250.2959 294.0615 250.1832 293.5489 250.1832 C 292.9425 250.1832 292.5104 250.2828 292.2526 250.4834 C 291.9934 250.6841 291.8645 250.9184 291.8645 251.1865 C 291.8645 251.3578 291.9172 251.5116 292.0256 251.6478 C 292.1325 251.7899 292.301 251.9071 292.5309 251.9994 C 292.6627 252.0477 293.0509 252.1605 293.6953 252.3362 C 294.6269 252.5852 295.2786 252.7888 295.6463 252.9485 C 296.0154 253.1066 296.3054 253.3381 296.5148 253.6398 C 296.7243 253.943 296.8297 254.3194 296.8297 254.7676 C 296.8297 255.207 296.7008 255.6215 296.4445 256.0096 C 296.1882 256.3978 295.8191 256.698 295.3358 256.9104 C 294.8524 257.1228 294.3046 257.2297 293.6953 257.2297 C 292.6847 257.2297 291.9143 257.0188 291.3841 256.5999 C 290.8539 256.1795 290.5155 255.557 290.3691 254.731 Z " style="fill:#fff;fill-rule:nonzero;" stroke-width="1.46467"/>
      <path d="M 298.4043 247.8324 L 298.4043 246.3164 L 299.7225 246.3164 L 299.7225 247.8324 L 298.4043 247.8324 Z M 298.4043 257.0539 L 298.4043 249.2751 L 299.7225 249.2751 L 299.7225 257.0539 L 298.4043 257.0539 Z " style="fill:#fff;fill-rule:nonzero;" stroke-width="1.46467"/>
      <path d="M 303.8894 257.0539 L 300.9308 249.2751 L 302.3222 249.2751 L 303.9934 253.9327 C 304.1736 254.4366 304.3391 254.958 304.4914 255.4999 C 304.6086 255.0898 304.7712 254.5977 304.9821 254.0206 L 306.7104 249.2751 L 308.0652 249.2751 L 305.1212 257.0539 L 303.8894 257.0539 Z " style="fill:#fff;fill-rule:nonzero;" stroke-width="1.46467"/>
      <path d="M 314.5537 254.5479 L 315.9158 254.7163 C 315.702 255.5131 315.3036 256.1312 314.7221 256.5706 C 314.1421 257.01 313.3995 257.2297 312.4958 257.2297 C 311.3578 257.2297 310.457 256.8782 309.7891 256.1781 C 309.1227 255.4779 308.7902 254.4952 308.7902 253.2297 C 308.7902 251.9217 309.1271 250.9052 309.8009 250.1832 C 310.4746 249.4611 311.349 249.0993 312.4226 249.0993 C 313.4625 249.0993 314.312 249.4538 314.9711 250.1612 C 315.6302 250.8686 315.9598 251.8646 315.9598 253.1491 C 315.9598 253.2282 315.9583 253.3454 315.9525 253.5006 L 310.1524 253.5006 C 310.2007 254.356 310.4424 255.0093 310.8774 255.4633 C 311.3124 255.9173 311.8543 256.1458 312.5032 256.1458 C 312.9865 256.1458 313.3995 256.0184 313.7408 255.7636 C 314.0835 255.5102 314.3545 255.1045 314.5537 254.5479 Z M 310.2256 252.4168 L 314.5684 252.4168 C 314.5098 251.7621 314.3443 251.2714 314.0704 250.9448 C 313.6515 250.4366 313.1066 250.1832 312.4373 250.1832 C 311.8323 250.1832 311.3226 250.3853 310.9111 250.791 C 310.498 251.1967 310.2695 251.7386 310.2256 252.4168 Z " style="fill:#fff;fill-rule:nonzero;" stroke-width="1.46467"/>
      <path d="M 322.9551 257.0539 L 321.7321 257.0539 L 321.7321 246.3164 L 323.0503 246.3164 L 323.0503 250.1465 C 323.6068 249.4479 324.3172 249.0993 325.1813 249.0993 C 325.6603 249.0993 326.1129 249.196 326.5406 249.3879 C 326.9682 249.5812 327.3198 249.8522 327.5951 250.2022 C 327.8705 250.5508 328.0873 250.9712 328.244 251.4648 C 328.3992 251.9583 328.4783 252.4856 328.4783 253.0466 C 328.4783 254.3794 328.1488 255.4106 327.4882 256.1385 C 326.8291 256.865 326.0382 257.2297 325.1154 257.2297 C 324.1986 257.2297 323.4779 256.846 322.9551 256.0785 L 322.9551 257.0539 Z M 322.9404 253.1052 C 322.9404 254.0382 323.0678 254.7119 323.3212 255.1264 C 323.7357 255.806 324.2982 256.1458 325.0056 256.1458 C 325.5827 256.1458 326.0807 255.8954 326.4996 255.3945 C 326.9199 254.8935 327.1294 254.148 327.1294 253.1564 C 327.1294 252.1414 326.9287 251.3915 326.5259 250.9082 C 326.1231 250.4248 325.6354 250.1832 325.0642 250.1832 C 324.4886 250.1832 323.9906 250.4336 323.5702 250.9345 C 323.1499 251.434 322.9404 252.159 322.9404 253.1052 Z " style="fill:#fff;fill-rule:nonzero;" stroke-width="1.46467"/>
      <path d="M 335.4062 254.5479 L 336.7684 254.7163 C 336.5545 255.5131 336.1561 256.1312 335.5746 256.5706 C 334.9932 257.01 334.2521 257.2297 333.3483 257.2297 C 332.2103 257.2297 331.3081 256.8782 330.6416 256.1781 C 329.9752 255.4779 329.6427 254.4952 329.6427 253.2297 C 329.6427 251.9217 329.9796 250.9052 330.6534 250.1832 C 331.3271 249.4611 332.2015 249.0993 333.2751 249.0993 C 334.315 249.0993 335.1645 249.4538 335.8236 250.1612 C 336.4827 250.8686 336.8123 251.8646 336.8123 253.1491 C 336.8123 253.2282 336.8108 253.3454 336.805 253.5006 L 331.0049 253.5006 C 331.0532 254.356 331.2949 255.0093 331.7299 255.4633 C 332.1649 255.9173 332.7068 256.1458 333.3557 256.1458 C 333.839 256.1458 334.2521 256.0184 334.5933 255.7636 C 334.9346 255.5102 335.2056 255.1045 335.4062 254.5479 Z M 331.0781 252.4168 L 335.4209 252.4168 C 335.3623 251.7621 335.1968 251.2714 334.9229 250.9448 C 334.5025 250.4366 333.9591 250.1832 333.2898 250.1832 C 332.6849 250.1832 332.1751 250.3853 331.7621 250.791 C 331.3505 251.1967 331.1221 251.7386 331.0781 252.4168 Z " style="fill:#fff;fill-rule:nonzero;" stroke-width="1.46467"/>
      <path d="M 338.4234 257.0539 L 338.4234 246.3164 L 339.7416 246.3164 L 339.7416 250.1685 C 340.3583 249.4552 341.1345 249.0993 342.0719 249.0993 C 342.6475 249.0993 343.1485 249.2121 343.5732 249.4391 C 343.998 249.6661 344.3012 249.981 344.4842 250.3809 C 344.6673 250.7808 344.7596 251.3622 344.7596 252.1239 L 344.7596 257.0539 L 343.4414 257.0539 L 343.4414 252.1239 C 343.4414 251.4648 343.2979 250.9858 343.0122 250.6855 C 342.7266 250.3853 342.3224 250.2344 341.801 250.2344 C 341.4099 250.2344 341.0423 250.3355 340.6981 250.5391 C 340.3539 250.7412 340.1078 251.0151 339.9613 251.3622 C 339.8149 251.7094 339.7416 252.1883 339.7416 252.7976 L 339.7416 257.0539 L 338.4234 257.0539 Z " style="fill:#fff;fill-rule:nonzero;" stroke-width="1.46467"/>
      <path d="M 351.8413 256.0931 C 351.3535 256.5091 350.8834 256.802 350.4323 256.9734 C 349.9797 257.1433 349.4963 257.2297 348.9778 257.2297 C 348.1239 257.2297 347.4663 257.0202 347.0079 256.6028 C 346.5494 256.1854 346.3195 255.6522 346.3195 255.0019 C 346.3195 254.6211 346.4059 254.274 346.5802 253.9591 C 346.753 253.6442 346.98 253.3908 347.2613 253.2004 C 347.541 253.01 347.8574 252.8664 348.2089 252.7683 C 348.4681 252.7009 348.8592 252.635 349.3806 252.5706 C 350.4454 252.4446 351.229 252.2923 351.7314 252.1165 C 351.7373 251.9364 351.7387 251.8207 351.7387 251.7723 C 351.7387 251.2348 351.6142 250.8569 351.3653 250.6372 C 351.0284 250.3399 350.5289 250.1905 349.864 250.1905 C 349.2444 250.1905 348.786 250.2989 348.4916 250.5171 C 348.1957 250.7339 347.9775 251.1176 347.8354 251.6698 L 346.5465 251.494 C 346.6637 250.9419 346.857 250.4966 347.125 250.1583 C 347.3931 249.8185 347.7812 249.5563 348.2894 249.3732 C 348.7977 249.1901 349.3865 249.0993 350.0544 249.0993 C 350.7193 249.0993 351.2583 249.1769 351.6728 249.3337 C 352.0888 249.4904 352.3935 249.6866 352.5897 249.9225 C 352.7845 250.1597 352.9207 250.4585 352.9998 250.8203 C 353.0438 251.0444 353.0657 251.4501 353.0657 252.036 L 353.0657 253.7936 C 353.0657 255.0195 353.0936 255.7943 353.1492 256.1195 C 353.2049 256.4446 353.3162 256.7551 353.4832 257.0539 L 352.1049 257.0539 C 351.9687 256.78 351.8808 256.4607 351.8413 256.0931 Z M 351.7314 253.1491 C 351.2539 253.3454 350.5363 253.5109 349.5784 253.6471 C 349.0364 253.7262 348.6542 253.8141 348.4286 253.9108 C 348.2045 254.0089 348.0302 254.1524 347.9086 254.3399 C 347.7871 254.5274 347.7256 254.7368 347.7256 254.9653 C 347.7256 255.3168 347.8588 255.6098 348.1254 255.8441 C 348.3905 256.0785 348.7801 256.1971 349.2927 256.1971 C 349.801 256.1971 350.2521 256.0858 350.6476 255.8632 C 351.043 255.6405 351.3345 255.3373 351.519 254.9507 C 351.6611 254.6533 351.7314 254.2139 351.7314 253.6325 L 351.7314 253.1491 Z " style="fill:#fff;fill-rule:nonzero;" stroke-width="1.46467"/>
      <path d="M 357.2693 257.0539 L 354.3107 249.2751 L 355.7021 249.2751 L 357.3719 253.9327 C 357.552 254.4366 357.719 254.958 357.8699 255.4999 C 357.987 255.0898 358.1511 254.5977 358.3605 254.0206 L 360.0888 249.2751 L 361.4436 249.2751 L 358.4997 257.0539 L 357.2693 257.0539 Z " style="fill:#fff;fill-rule:nonzero;" stroke-width="1.46467"/>
      <path d="M 362.6154 247.8324 L 362.6154 246.3164 L 363.9336 246.3164 L 363.9336 247.8324 L 362.6154 247.8324 Z M 362.6154 257.0539 L 362.6154 249.2751 L 363.9336 249.2751 L 363.9336 257.0539 L 362.6154 257.0539 Z " style="fill:#fff;fill-rule:nonzero;" stroke-width="1.46467"/>
      <path d="M 365.451 253.1638 C 365.451 251.724 365.8508 250.6563 366.652 249.9635 C 367.3199 249.3879 368.1357 249.0993 369.098 249.0993 C 370.1672 249.0993 371.0416 249.4494 371.7198 250.1509 C 372.3979 250.8511 372.7377 251.8192 372.7377 253.0539 C 372.7377 254.0558 372.5883 254.8423 372.2881 255.4164 C 371.9878 255.9906 371.5499 256.4358 370.9772 256.7537 C 370.403 257.07 369.7762 257.2297 369.098 257.2297 C 368.0083 257.2297 367.1295 256.8796 366.4572 256.1825 C 365.7864 255.4838 365.451 254.4776 365.451 253.1638 Z M 366.8058 253.1638 C 366.8058 254.1597 367.0226 254.9067 367.4576 255.4018 C 367.8911 255.8968 368.4389 256.1458 369.098 256.1458 C 369.7527 256.1458 370.2961 255.8954 370.7311 255.3974 C 371.1661 254.8994 371.3829 254.1407 371.3829 253.1198 C 371.3829 252.159 371.1647 251.4296 370.7282 250.9345 C 370.2903 250.438 369.7469 250.1905 369.098 250.1905 C 368.4389 250.1905 367.8911 250.4366 367.4576 250.9301 C 367.0226 251.4237 366.8058 252.1678 366.8058 253.1638 Z " style="fill:#fff;fill-rule:nonzero;" stroke-width="1.46467"/>
      <path d="M 374.2683 257.0539 L 374.2683 249.2751 L 375.4547 249.2751 L 375.4547 250.4541 C 375.7579 249.902 376.0376 249.5387 376.2939 249.363 C 376.5503 249.1872 376.8329 249.0993 377.1405 249.0993 C 377.5843 249.0993 378.0354 249.2414 378.4953 249.5241 L 378.0413 250.7471 C 377.7191 250.5567 377.3968 250.4615 377.0746 250.4615 C 376.7861 250.4615 376.5268 250.5479 376.2969 250.7222 C 376.0684 250.895 375.9043 251.1352 375.8062 251.4428 C 375.6597 251.9115 375.5865 252.4241 375.5865 252.9807 L 375.5865 257.0539 L 374.2683 257.0539 Z " style="fill:#fff;fill-rule:nonzero;" stroke-width="1.46467"/>
    </g>
    <path d="M233.057,146.416c0.143,-0.533 -0.174,-1.082 -0.707,-1.225l-8.24,-2.208c-0.533,-0.142 -1.082,0.174 -1.225,0.707c-0.143,0.534 0.174,1.082 0.707,1.225l8.241,2.208c0.533,0.143 1.081,-0.174 1.224,-0.707Z" style="fill:#ea5f61;" stroke-width="1"/>
    <path d="M245.538,146.416c-0.143,-0.533 0.174,-1.082 0.707,-1.225l8.241,-2.208c0.533,-0.142 1.081,0.174 1.224,0.707c0.143,0.534 -0.174,1.082 -0.707,1.225l-8.24,2.208c-0.533,0.143 -1.082,-0.174 -1.225,-0.707Z" style="fill:#ea5f61;" stroke-width="1"/>
  </g>
</svg>