<svg version="1.1" width="52.56999969482422" height="22.204999923706055" viewBox="-0.23100000619888306 -0.2750000059604645 52.56999969482422 22.204999923706055" xmlns="http://www.w3.org/2000/svg" xmlns:xlink="http://www.w3.org/1999/xlink">
  <!-- Exported by Scratch - http://scratch.mit.edu/ -->
  <g id="Play Button">
    <path id="ID0.6874133907258511" fill="#6FD57E" d="M 0.269 0.225 L 51.839 0.225 L 51.839 21.430 L 0.269 21.430 L 0.269 0.225 Z " stroke-width="1"/>
    <path id="ID0.5755862407386303" fill="#fff" d="M 10.787 15.134 L 10.787 5.748 L 14.328 5.748 C 14.951 5.748 15.427 5.778 15.756 5.838 C 16.216 5.915 16.603 6.061 16.914 6.276 C 17.226 6.492 17.477 6.794 17.667 7.182 C 17.856 7.571 17.951 7.997 17.951 8.463 C 17.951 9.261 17.698 9.936 17.190 10.489 C 16.682 11.042 15.764 11.318 14.437 11.318 L 12.029 11.318 L 12.029 15.134 L 10.787 15.134 Z M 12.029 10.210 L 14.456 10.210 C 15.258 10.210 15.828 10.061 16.165 9.762 C 16.502 9.463 16.671 9.043 16.671 8.501 C 16.671 8.108 16.572 7.772 16.373 7.493 C 16.175 7.213 15.913 7.028 15.589 6.939 C 15.380 6.883 14.994 6.856 14.430 6.856 L 12.029 6.856 L 12.029 10.210 Z " stroke-width="1"/>
    <path id="ID0.9317852230742574" fill="#fff" d="M 19.482 15.134 L 19.482 5.748 L 20.724 5.748 L 20.724 14.026 L 25.346 14.026 L 25.346 15.134 L 19.482 15.134 Z " stroke-width="1"/>
    <path id="ID0.37769465055316687" fill="#fff" d="M 25.794 15.134 L 29.399 5.748 L 30.737 5.748 L 34.578 15.134 L 33.163 15.134 L 32.068 12.291 L 28.144 12.291 L 27.113 15.134 L 25.794 15.134 Z M 28.502 11.280 L 31.684 11.280 L 30.705 8.680 C 30.406 7.891 30.184 7.242 30.039 6.734 C 29.919 7.336 29.751 7.933 29.533 8.527 L 28.502 11.280 Z " stroke-width="1"/>
    <path id="ID0.36366920452564955" fill="#fff" d="M 37.241 15.134 L 37.241 11.158 L 33.624 5.748 L 35.135 5.748 L 36.985 8.578 C 37.327 9.107 37.645 9.636 37.939 10.166 C 38.221 9.675 38.562 9.122 38.963 8.507 L 40.782 5.748 L 42.229 5.748 L 38.483 11.158 L 38.483 15.134 L 37.241 15.134 Z " stroke-width="1"/>
  </g>
</svg>