<svg version="1.1" width="27.08323085308075" height="27.083330035209656" viewBox="-0.5415650176073541 -0.5427650175988674 27.08323085308075 27.083330035209656" xmlns="http://www.w3.org/2000/svg" xmlns:xlink="http://www.w3.org/1999/xlink">
  <!-- Exported by Scratch - http://scratch.mit.edu/ -->
  <g id="ID0.9484971105121076">
    <path id="ID0.5629956251941621" fill="#65A8E7" d="M 13.0001 -0.0011 C 9.4132 -0.0011 6.1632 1.456 3.8102 3.809 C 1.4572 6.162 0.0001 9.412 0.0001 12.9989 C 0.0001 16.5858 1.4572 19.8358 3.8102 22.1888 C 6.1632 24.5418 9.4132 25.9989 13.0001 25.9989 C 16.587 25.9989 19.837 24.5418 22.19 22.1888 C 24.543 19.8358 26 16.5858 26 12.9989 C 26 9.412 24.543 6.162 22.19 3.809 C 19.837 1.456 16.587 -0.0011 13.0001 -0.0011 Z " stroke-width="1.0833300352096558"/>
    <g id="ID0.7523217489942908">
      <g id="ID0.5579010276123881">
        <path id="ID0.24003890855237842" fill="white" d="M 13.0853 11.2882 C 12.5982 11.2882 12.1571 11.4859 11.8376 11.8053 C 11.5182 12.1247 11.3206 12.5659 11.3206 13.0529 C 11.3206 13.54 11.5182 13.9812 11.8376 14.3006 C 12.1571 14.62 12.5982 14.8176 13.0853 14.8176 C 13.5724 14.8176 14.0135 14.62 14.3329 14.3006 C 14.6524 13.9812 14.85 13.54 14.85 13.0529 C 14.85 12.5659 14.6524 12.1247 14.3329 11.8053 C 14.0135 11.4859 13.5724 11.2882 13.0853 11.2882 Z " stroke-width="0.8823529481887817"/>
      </g>
      <g id="ID0.48072896571829915">
        <path id="ID0.27812039060518146" fill="white" d="M 4.8353 11.2882 C 4.3482 11.2882 3.9071 11.4859 3.5876 11.8053 C 3.2682 12.1247 3.0706 12.5659 3.0706 13.0529 C 3.0706 13.54 3.2682 13.9812 3.5876 14.3006 C 3.9071 14.62 4.3482 14.8176 4.8353 14.8176 C 5.3224 14.8176 5.7635 14.62 6.0829 14.3006 C 6.4024 13.9812 6.6 13.54 6.6 13.0529 C 6.6 12.5659 6.4024 12.1247 6.0829 11.8053 C 5.7635 11.4859 5.3224 11.2882 4.8353 11.2882 Z " stroke-width="0.8823529481887817"/>
      </g>
      <g id="ID0.029252798296511173">
        <path id="ID0.8900190512649715" fill="white" d="M 23.0618 12.9853 C 23.0618 12.4982 22.8641 12.0571 22.5447 11.7376 C 22.2253 11.4182 21.7841 11.2206 21.2971 11.2206 C 20.81 11.2206 20.3688 11.4182 20.0494 11.7376 C 19.73 12.0571 19.5324 12.4982 19.5324 12.9853 C 19.5324 13.4724 19.73 13.9135 20.0494 14.2329 C 20.3688 14.5524 20.81 14.75 21.2971 14.75 C 21.7841 14.75 22.2253 14.5524 22.5447 14.2329 C 22.8641 13.9135 23.0618 13.4724 23.0618 12.9853 Z " stroke-width="0.8823529481887817"/>
      </g>
      <g id="ID0.7525404854677618">
        <path id="ID0.5425150683149695" fill="white" d="M 14.8618 4.7353 C 14.8618 4.2482 14.6641 3.8071 14.3447 3.4876 C 14.0253 3.1682 13.5841 2.9706 13.0971 2.9706 C 12.61 2.9706 12.1688 3.1682 11.8494 3.4876 C 11.53 3.8071 11.3324 4.2482 11.3324 4.7353 C 11.3324 5.2224 11.53 5.6635 11.8494 5.9829 C 12.1688 6.3024 12.61 6.5 13.0971 6.5 C 13.5841 6.5 14.0253 6.3024 14.3447 5.9829 C 14.6641 5.6635 14.8618 5.2224 14.8618 4.7353 Z " stroke-width="0.8823529481887817"/>
      </g>
      <g id="ID0.3243630900979042">
        <path id="ID0.5499905073083937" fill="white" d="M 20.4473 17.9222 C 20.1029 17.5778 19.6512 17.4056 19.1995 17.4056 C 18.7478 17.4056 18.2961 17.5778 17.9517 17.9222 C 17.6072 18.2666 17.435 18.7183 17.435 19.17 C 17.435 19.6217 17.6072 20.0734 17.9517 20.4179 C 18.2961 20.7623 18.7478 20.9345 19.1995 20.9345 C 19.6512 20.9345 20.1029 20.7623 20.4473 20.4179 C 20.7917 20.0734 20.9639 19.6217 20.9639 19.17 C 20.9639 18.7183 20.7917 18.2666 20.4473 17.9222 Z " stroke-width="0.8823528715326627"/>
      </g>
      <g id="ID0.4939500321634114">
        <path id="ID0.9193431492894888" fill="white" d="M 5.7722 17.9527 C 5.4278 18.2971 5.2556 18.7488 5.2556 19.2005 C 5.2556 19.6522 5.4278 20.1039 5.7722 20.4483 C 6.1166 20.7928 6.5683 20.965 7.02 20.965 C 7.4717 20.965 7.9234 20.7928 8.2679 20.4483 C 8.6123 20.1039 8.7845 19.6522 8.7845 19.2005 C 8.7845 18.7488 8.6123 18.2971 8.2679 17.9527 C 7.9234 17.6083 7.4717 17.4361 7.02 17.4361 C 6.5683 17.4361 6.1166 17.6083 5.7722 17.9527 Z " stroke-width="0.8823528715326627"/>
      </g>
      <g id="ID0.5585819804109633">
        <path id="ID0.4176929756067693" fill="white" d="M 20.4473 5.6722 C 20.1029 5.3278 19.6512 5.1556 19.1995 5.1556 C 18.7478 5.1556 18.2961 5.3278 17.9517 5.6722 C 17.6072 6.0166 17.435 6.4683 17.435 6.92 C 17.435 7.3717 17.6072 7.8234 17.9517 8.1679 C 18.2961 8.5123 18.7478 8.6845 19.1995 8.6845 C 19.6512 8.6845 20.1029 8.5123 20.4473 8.1679 C 20.7917 7.8234 20.9639 7.3717 20.9639 6.92 C 20.9639 6.4683 20.7917 6.0166 20.4473 5.6722 Z " stroke-width="0.8823528715326627"/>
      </g>
      <g id="ID0.86538175214082">
        <path id="ID0.09614757122471929" fill="white" d="M 8.0973 5.6722 C 7.7529 5.3278 7.3012 5.1556 6.8495 5.1556 C 6.3978 5.1556 5.9461 5.3278 5.6017 5.6722 C 5.2572 6.0166 5.085 6.4683 5.085 6.92 C 5.085 7.3717 5.2572 7.8234 5.6017 8.1679 C 5.9461 8.5123 6.3978 8.6845 6.8495 8.6845 C 7.3012 8.6845 7.7529 8.5123 8.0973 8.1679 C 8.4417 7.8234 8.6139 7.3717 8.6139 6.92 C 8.6139 6.4683 8.4417 6.0166 8.0973 5.6722 Z " stroke-width="0.8823528715326627"/>
      </g>
      <g id="ID0.936317247338593">
        <path id="ID0.9876126539893448" fill="white" d="M 14.8618 21.2353 C 14.8618 20.7482 14.6641 20.3071 14.3447 19.9876 C 14.0253 19.6682 13.5841 19.4706 13.0971 19.4706 C 12.61 19.4706 12.1688 19.6682 11.8494 19.9876 C 11.53 20.3071 11.3324 20.7482 11.3324 21.2353 C 11.3324 21.7224 11.53 22.1635 11.8494 22.4829 C 12.1688 22.8024 12.61 23 13.0971 23 C 13.5841 23 14.0253 22.8024 14.3447 22.4829 C 14.6641 22.1635 14.8618 21.7224 14.8618 21.2353 Z " stroke-width="0.8823529481887817"/>
      </g>
    </g>
  </g>
</svg>