<svg version="1.1" width="25.78322982788086" height="25.783231735229492" viewBox="0.11033493280410767 -0.36466506123542786 25.78322982788086 25.783231735229492" xmlns="http://www.w3.org/2000/svg" xmlns:xlink="http://www.w3.org/1999/xlink">
  <!-- Exported by Scratch - http://scratch.mit.edu/ -->
  <path id="ID0.7315086824819446" fill="white" d="M 13.0019 0.151 C 16.4167 0.151 19.5106 1.5381 21.7507 3.7781 C 23.9907 6.0182 25.3779 9.1122 25.3779 12.5269 C 25.3779 15.9417 23.9907 19.0356 21.7507 21.2757 C 19.5106 23.5157 16.4167 24.9029 13.0019 24.9029 C 9.5872 24.9029 6.4932 23.5157 4.2531 21.2757 C 2.0131 19.0356 0.626 15.9417 0.626 12.5269 C 0.626 9.1122 2.0131 6.0182 4.2531 3.7781 C 6.4932 1.5381 9.5872 0.151 13.0019 0.151 Z " stroke-width="1.0313301086425781"/>
  <g id="ID0.8441510824486613">
    <path id="ID0.2824611831456423" fill="rgb(101,168,231)" d="M 6.767 13.7419 L 5.551 13.7419 C 5.546 14.0939 5.61 14.3979 5.743 14.6539 C 5.876 14.9099 6.056 15.1199 6.283 15.2859 C 6.51 15.4509 6.771 15.5719 7.067 15.6499 C 7.363 15.7269 7.668 15.7659 7.983 15.7659 C 8.372 15.7659 8.715 15.7199 9.011 15.6299 C 9.307 15.5389 9.555 15.4119 9.755 15.2499 C 9.955 15.0869 10.106 14.8939 10.207 14.6699 C 10.308 14.4459 10.359 14.2029 10.359 13.9419 C 10.359 13.6219 10.291 13.3589 10.155 13.1539 C 10.019 12.9479 9.858 12.7839 9.671 12.6619 C 9.484 12.5389 9.296 12.4499 9.107 12.3939 C 8.918 12.3379 8.77 12.2989 8.663 12.2779 C 8.306 12.1869 8.016 12.1119 7.795 12.0539 C 7.574 11.9949 7.4 11.9359 7.275 11.8779 C 7.15 11.8189 7.066 11.7549 7.023 11.6859 C 6.98 11.6159 6.959 11.5259 6.959 11.4139 C 6.959 11.2909 6.986 11.1899 7.039 11.1099 C 7.092 11.0299 7.16 10.9629 7.243 10.9099 C 7.326 10.8559 7.418 10.8189 7.519 10.7979 C 7.62 10.7759 7.722 10.7659 7.823 10.7659 C 7.978 10.7659 8.12 10.7789 8.251 10.8059 C 8.382 10.8319 8.498 10.8779 8.599 10.9419 C 8.7 11.0059 8.782 11.0939 8.843 11.2059 C 8.904 11.3179 8.94 11.4589 8.951 11.6299 L 10.167 11.6299 C 10.167 11.2989 10.104 11.0179 9.979 10.7859 C 9.854 10.5539 9.684 10.3629 9.471 10.2139 C 9.258 10.0639 9.014 9.9559 8.739 9.8899 C 8.464 9.8229 8.178 9.7899 7.879 9.7899 C 7.623 9.7899 7.367 9.8239 7.111 9.8939 C 6.855 9.9629 6.626 10.0699 6.423 10.2139 C 6.22 10.3579 6.056 10.5379 5.931 10.7539 C 5.806 10.9699 5.743 11.2239 5.743 11.5179 C 5.743 11.7789 5.792 12.0019 5.891 12.1859 C 5.99 12.3699 6.119 12.5229 6.279 12.6459 C 6.439 12.7679 6.62 12.8679 6.823 12.9459 C 7.026 13.0229 7.234 13.0879 7.447 13.1419 C 7.655 13.1999 7.86 13.2539 8.063 13.3019 C 8.266 13.3499 8.447 13.4059 8.607 13.4699 C 8.767 13.5339 8.896 13.6139 8.995 13.7099 C 9.094 13.8059 9.143 13.9309 9.143 14.0859 C 9.143 14.2299 9.106 14.3479 9.031 14.4419 C 8.956 14.5349 8.863 14.6079 8.751 14.6619 C 8.639 14.7149 8.519 14.7509 8.391 14.7699 C 8.263 14.7879 8.143 14.7979 8.031 14.7979 C 7.866 14.7979 7.706 14.7779 7.551 14.7379 C 7.396 14.6979 7.262 14.6359 7.147 14.5539 C 7.032 14.4709 6.94 14.3629 6.871 14.2299 C 6.802 14.0959 6.767 13.9339 6.767 13.7419 Z " stroke-width="0.9999998211860657"/>
    <path id="ID0.6798662049695849" fill="rgb(101,168,231)" d="M 11.103 9.9259 L 11.103 15.6379 L 12.359 15.6379 L 12.359 13.2779 L 14.751 13.2779 L 14.751 12.3019 L 12.359 12.3019 L 12.359 10.9819 L 15.119 10.9819 L 15.119 9.9259 L 11.103 9.9259 Z " stroke-width="0.9999998211860657"/>
    <path id="ID0.8886672747321427" fill="rgb(101,168,231)" d="M 17.247 12.6459 L 15.255 15.6379 L 16.663 15.6379 L 17.935 13.6619 L 19.183 15.6379 L 20.679 15.6379 L 18.687 12.6539 L 20.519 9.9259 L 19.143 9.9259 L 17.983 11.7499 L 16.863 9.9259 L 15.407 9.9259 L 17.247 12.6459 Z " stroke-width="0.9999998211860657"/>
  </g>
<defs/></svg>