<svg version="1.1" width="100.1630211569977" height="28.286920616836568" viewBox="-1.0314601708507645 -0.13266018520356293 100.1630211569977 28.286920616836568" xmlns="http://www.w3.org/2000/svg" xmlns:xlink="http://www.w3.org/1999/xlink">
  <!-- Exported by Scratch - http://scratch.mit.edu/ -->
  <g id="ID0.03796483017504215">
    <path id="ID0.5629956251941621" fill="#65A8E7" d="M 13.0501 0.9989 C 9.4632 0.9989 6.2132 2.456 3.8602 4.809 C 1.5072 7.162 0.0501 10.412 0.0501 13.9989 C 0.0501 17.5858 1.5072 20.8358 3.8602 23.1888 C 6.2132 25.5418 9.4632 26.9989 13.0501 26.9989 C 16.637 26.9989 19.887 25.5418 22.24 23.1888 C 24.593 20.8358 26.05 17.5858 26.05 13.9989 C 26.05 10.412 24.593 7.162 22.24 4.809 C 19.887 2.456 16.637 0.9989 13.0501 0.9989 Z " stroke-width="1.0833300352096558"/>
  </g>
  <g id="ID0.03796483017504215">
    <path id="ID0.5629956251941621" fill="rgb(80,133,199)" d="M 49.0001 0.9989 C 45.4132 0.9989 42.1632 2.456 39.8102 4.809 C 37.4572 7.162 36.0001 10.412 36.0001 13.9989 C 36.0001 17.5858 37.4572 20.8358 39.8102 23.1888 C 42.1632 25.5418 45.4132 26.9989 49.0001 26.9989 C 52.587 26.9989 55.837 25.5418 58.19 23.1888 C 60.543 20.8358 62 17.5858 62 13.9989 C 62 10.412 60.543 7.162 58.19 4.809 C 55.837 2.456 52.587 0.9989 49.0001 0.9989 Z " stroke-width="1.0833300352096558"/>
  </g>
  <g id="ID0.03796483017504215">
    <path id="ID0.5629956251941621" fill="#65A8E7" d="M 85.0501 0.9489 C 81.4632 0.9489 78.2132 2.406 75.8602 4.759 C 73.5072 7.112 72.0501 10.362 72.0501 13.9489 C 72.0501 17.5358 73.5072 20.7858 75.8602 23.1388 C 78.2132 25.4918 81.4632 26.9489 85.0501 26.9489 C 88.637 26.9489 91.887 25.4918 94.24 23.1388 C 96.593 20.7858 98.05 17.5358 98.05 13.9489 C 98.05 10.362 96.593 7.112 94.24 4.759 C 91.887 2.406 88.637 0.9489 85.0501 0.9489 Z " stroke-width="1.0833300352096558"/>
  </g>
  <path id="ID0.4496537633240223" fill="#65A8E7" stroke="none" d="M 12.9024 0.9729 L 85.3064 0.9729 L 85.3064 27.0727 L 12.9024 27.0727 L 12.9024 0.9729 Z " stroke-width="2.1631203391266083"/>
<defs/></svg>