<svg version="1.1" width="360.5226135253906" height="82.1968994140625" viewBox="0.4635999798774719 -0.4538999982178211 360.5226135253906 82.1968994140625" xmlns="http://www.w3.org/2000/svg" xmlns:xlink="http://www.w3.org/1999/xlink">
  <!-- Exported by Scratch - http://scratch.mit.edu/ -->
  <path id="ID0.1595071922056377" fill="#FFFFFF" stroke="none" d="M 2.4362 0.0461 L 90.9362 0.0461 L 90.9362 12.043 L 2.4362 12.043 L 2.4362 0.0461 Z " stroke-width="0.8821949724904928"/>
  <path id="ID0.1595071922056377" fill="#FFFFFF" stroke="none" d="M 0.9636 35.373 L 87.9636 35.373 L 87.9636 46.0172 L 0.9636 46.0172 L 0.9636 35.373 Z " stroke-width="0.8654254200912977"/>
  <path id="ID0.1595071922056377" fill="#FFFFFF" stroke="none" d="M 2.5561 69.6621 L 87.8071 69.6621 L 87.8071 80.02 L 2.5561 80.02 L 2.5561 69.6621 Z " stroke-width="0.8479190933072754"/>
  <path id="ID0.1595071922056377" fill="#FFFFFF" stroke="none" d="M 271.4862 0.0461 L 359.9862 0.0461 L 359.9862 12.043 L 271.4862 12.043 L 271.4862 0.0461 Z " stroke-width="0.8821949724904928"/>
  <path id="ID0.1595071922056377" fill="#FFFFFF" stroke="none" d="M 271.0862 34.1961 L 359.5862 34.1961 L 359.5862 46.193 L 271.0862 46.193 L 271.0862 34.1961 Z " stroke-width="0.8821949724904928"/>
  <path id="ID0.1595071922056377" fill="#FFFFFF" stroke="none" d="M 271.9862 69.2461 L 360.4862 69.2461 L 360.4862 81.243 L 271.9862 81.243 L 271.9862 69.2461 Z " stroke-width="0.8821949724904928"/>
</svg>