<svg version="1.1" width="31.687999725341797" height="38.68800354003906" viewBox="0.03100001811981201 -0.3439999967813492 31.687999725341797 38.68800354003906" xmlns="http://www.w3.org/2000/svg" xmlns:xlink="http://www.w3.org/1999/xlink">
  <!-- Exported by Scratch - http://scratch.mit.edu/ -->
  <g id="ID0.057432962115854025">
    <g id="layer1">
      <path id="path3080" fill="#666666" stroke="none" d="M 16.875 0.156 C 14.508 0.156 12.336 0.645 10.344 1.594 C 8.352 2.543 6.609 3.856 5.156 5.531 C 3.703 7.207 2.57 9.172 1.75 11.469 C 0.93 13.766 0.531 16.273 0.531 18.969 C 0.531 21.969 0.906 24.625 1.656 26.969 C 2.406 29.313 3.461 31.301 4.844 32.906 C 6.227 34.512 7.906 35.75 9.875 36.594 C 11.844 37.437 14.023 37.844 16.438 37.844 C 21.336 37.844 25.523 36.617 28.969 34.156 L 28.969 29.719 C 25.359 32.555 21.523 33.969 17.469 33.969 C 15.57 33.969 13.855 33.645 12.344 33 C 10.832 32.356 9.555 31.438 8.5 30.219 C 7.445 29 6.625 27.508 6.063 25.75 C 5.5 23.992 5.211 22.016 5.188 19.813 L 31.219 19.813 L 31.219 17.563 C 31.219 14.891 30.883 12.469 30.25 10.313 C 29.617 8.156 28.707 6.344 27.5 4.844 C 26.293 3.344 24.812 2.184 23.031 1.375 C 21.25 0.566 19.195 0.156 16.875 0.156 Z M 16.75 4.063 C 19.797 4.063 22.195 5.094 23.906 7.156 C 25.617 9.219 26.492 12.125 26.563 15.875 L 5.313 15.875 C 5.57 14.047 6.012 12.402 6.656 10.938 C 7.301 9.473 8.109 8.238 9.094 7.219 C 10.078 6.199 11.23 5.414 12.531 4.875 C 13.832 4.336 15.227 4.063 16.75 4.063 Z " stroke-width="1"/>
    </g>
  </g>
</svg>