<svg width="113.3530044555664" height="30.483999252319336" viewBox="0.13699579238891602 0.25799989700317383 113.3530044555664 30.483999252319336" version="1.1" xmlns="http://www.w3.org/2000/svg" xmlns:xlink="http://www.w3.org/1999/xlink" xml:space="preserve" style="fill-rule:evenodd;clip-rule:evenodd;stroke-linejoin:round;stroke-miterlimit:1.41421;"><g id="Continue Button"><path d="M112.99,8.129c0,-4.068 -3.303,-7.371 -7.371,-7.371l-97.611,0c-4.068,0 -7.371,3.303 -7.371,7.371l0,14.742c0,4.068 3.303,7.371 7.371,7.371l97.611,0c4.068,0 7.371,-3.303 7.371,-7.371l0,-14.742Z" style="fill:#fff;" stroke-width="1"/><g><path d="M36.734,17.104l1.421,0.359c-0.298,1.167 -0.834,2.057 -1.608,2.67c-0.774,0.612 -1.72,0.919 -2.838,0.919c-1.157,0 -2.098,-0.236 -2.823,-0.707c-0.725,-0.471 -1.277,-1.154 -1.656,-2.047c-0.378,-0.894 -0.567,-1.853 -0.567,-2.879c0,-1.118 0.213,-2.093 0.641,-2.926c0.427,-0.832 1.035,-1.464 1.823,-1.897c0.789,-0.432 1.657,-0.648 2.604,-0.648c1.074,0 1.978,0.274 2.71,0.821c0.733,0.546 1.243,1.315 1.531,2.307l-1.399,0.329c-0.249,-0.781 -0.61,-1.35 -1.084,-1.706c-0.474,-0.357 -1.069,-0.535 -1.787,-0.535c-0.825,0 -1.515,0.198 -2.069,0.593c-0.554,0.396 -0.944,0.927 -1.168,1.593c-0.225,0.667 -0.337,1.354 -0.337,2.062c0,0.913 0.133,1.71 0.399,2.391c0.266,0.682 0.68,1.191 1.241,1.528c0.562,0.336 1.17,0.505 1.824,0.505c0.796,0 1.47,-0.23 2.022,-0.689c0.551,-0.459 0.925,-1.14 1.12,-2.043Z" style="fill:#ea5f61;fill-rule:nonzero;" stroke-width="1"/><path d="M39.246,16.979c0,-1.44 0.401,-2.507 1.202,-3.2c0.668,-0.576 1.484,-0.864 2.446,-0.864c1.069,0 1.943,0.35 2.622,1.051c0.679,0.7 1.018,1.668 1.018,2.904c0,1.001 -0.15,1.788 -0.451,2.362c-0.3,0.573 -0.737,1.019 -1.311,1.336c-0.573,0.318 -1.199,0.476 -1.878,0.476c-1.089,0 -1.969,-0.349 -2.641,-1.047c-0.671,-0.698 -1.007,-1.704 -1.007,-3.018ZM40.601,16.979c0,0.997 0.218,1.742 0.652,2.238c0.435,0.496 0.982,0.743 1.641,0.743c0.654,0 1.199,-0.249 1.633,-0.747c0.435,-0.498 0.652,-1.257 0.652,-2.277c0,-0.962 -0.219,-1.691 -0.656,-2.187c-0.437,-0.495 -0.98,-0.743 -1.629,-0.743c-0.659,0 -1.206,0.246 -1.641,0.74c-0.434,0.493 -0.652,1.237 -0.652,2.233Z" style="fill:#ea5f61;fill-rule:nonzero;" stroke-width="1"/><path d="M48.079,20.869l0,-7.779l1.187,0l0,1.106c0.571,-0.854 1.396,-1.281 2.475,-1.281c0.469,0 0.9,0.084 1.293,0.252c0.393,0.169 0.687,0.39 0.883,0.663c0.195,0.274 0.332,0.598 0.41,0.974c0.049,0.244 0.073,0.672 0.073,1.282l0,4.783l-1.318,0l0,-4.732c0,-0.537 -0.051,-0.939 -0.154,-1.205c-0.103,-0.266 -0.284,-0.478 -0.546,-0.637c-0.261,-0.159 -0.567,-0.238 -0.919,-0.238c-0.561,0 -1.046,0.178 -1.454,0.535c-0.407,0.356 -0.611,1.033 -0.611,2.029l0,4.248l-1.319,0Z" style="fill:#ea5f61;fill-rule:nonzero;" stroke-width="1"/><path d="M59.3,19.689l0.19,1.165c-0.371,0.078 -0.703,0.117 -0.996,0.117c-0.478,0 -0.849,-0.075 -1.113,-0.227c-0.264,-0.151 -0.449,-0.35 -0.557,-0.597c-0.107,-0.246 -0.161,-0.765 -0.161,-1.556l0,-4.475l-0.966,0l0,-1.026l0.966,0l0,-1.926l1.311,-0.791l0,2.717l1.326,0l0,1.026l-1.326,0l0,4.548c0,0.376 0.024,0.618 0.07,0.725c0.046,0.108 0.122,0.193 0.227,0.257c0.105,0.063 0.255,0.095 0.45,0.095c0.147,0 0.34,-0.017 0.579,-0.052Z" style="fill:#ea5f61;fill-rule:nonzero;" stroke-width="1"/><path d="M60.596,11.647l0,-1.516l1.319,0l0,1.516l-1.319,0ZM60.596,20.869l0,-7.779l1.319,0l0,7.779l-1.319,0Z" style="fill:#ea5f61;fill-rule:nonzero;" stroke-width="1"/><path d="M63.922,20.869l0,-7.779l1.186,0l0,1.106c0.571,-0.854 1.397,-1.281 2.476,-1.281c0.468,0 0.899,0.084 1.292,0.252c0.394,0.169 0.688,0.39 0.883,0.663c0.195,0.274 0.332,0.598 0.41,0.974c0.049,0.244 0.073,0.672 0.073,1.282l0,4.783l-1.318,0l0,-4.732c0,-0.537 -0.051,-0.939 -0.154,-1.205c-0.102,-0.266 -0.284,-0.478 -0.545,-0.637c-0.262,-0.159 -0.568,-0.238 -0.92,-0.238c-0.561,0 -1.046,0.178 -1.453,0.535c-0.408,0.356 -0.612,1.033 -0.612,2.029l0,4.248l-1.318,0Z" style="fill:#ea5f61;fill-rule:nonzero;" stroke-width="1"/><path d="M77.362,20.869l0,-1.143c-0.606,0.879 -1.429,1.318 -2.469,1.318c-0.459,0 -0.887,-0.087 -1.285,-0.263c-0.398,-0.176 -0.693,-0.397 -0.886,-0.663c-0.193,-0.266 -0.329,-0.592 -0.407,-0.978c-0.054,-0.259 -0.08,-0.669 -0.08,-1.23l0,-4.82l1.318,0l0,4.314c0,0.689 0.027,1.153 0.081,1.392c0.083,0.347 0.258,0.619 0.527,0.817c0.268,0.197 0.6,0.296 0.996,0.296c0.395,0 0.767,-0.101 1.113,-0.304c0.347,-0.202 0.592,-0.478 0.736,-0.827c0.144,-0.35 0.216,-0.856 0.216,-1.52l0,-4.168l1.319,0l0,7.779l-1.179,0Z" style="fill:#ea5f61;fill-rule:nonzero;" stroke-width="1"/><path d="M85.931,18.364l1.362,0.168c-0.215,0.796 -0.613,1.414 -1.194,1.853c-0.581,0.44 -1.323,0.659 -2.226,0.659c-1.138,0 -2.04,-0.35 -2.706,-1.051c-0.667,-0.7 -1,-1.683 -1,-2.948c0,-1.308 0.337,-2.324 1.01,-3.046c0.674,-0.723 1.548,-1.084 2.623,-1.084c1.04,0 1.889,0.354 2.548,1.062c0.66,0.708 0.989,1.704 0.989,2.988c0,0.078 -0.002,0.195 -0.007,0.351l-5.801,0c0.049,0.855 0.291,1.509 0.725,1.963c0.435,0.454 0.977,0.681 1.626,0.681c0.484,0 0.896,-0.127 1.238,-0.38c0.342,-0.254 0.613,-0.66 0.813,-1.216ZM81.602,16.232l4.344,0c-0.059,-0.654 -0.225,-1.145 -0.498,-1.472c-0.42,-0.508 -0.965,-0.761 -1.634,-0.761c-0.605,0 -1.114,0.202 -1.527,0.607c-0.412,0.406 -0.641,0.948 -0.685,1.626Z" style="fill:#ea5f61;fill-rule:nonzero;" stroke-width="1"/></g></g></svg>