<svg version="1.1" width="64.15599822998047" height="51.40599822998047" viewBox="0.09399998188018799 0.09399998188018799 64.15599822998047 51.40599822998047" xmlns="http://www.w3.org/2000/svg" xmlns:xlink="http://www.w3.org/1999/xlink">
  <!-- Exported by Scratch - http://scratch.mit.edu/ -->
  <g id="ID0.01875294093042612">
    <g id="layer1">
      <path id="path3484" fill="#666666" stroke="none" d="M 0.594 0.594 L 15.469 51 L 20.344 51 L 31.531 13.563 C 32.117 11.664 32.437 10.047 32.531 8.688 L 32.688 8.688 C 32.711 9.461 32.785 10.242 32.938 11.063 C 33.09 11.883 33.305 12.734 33.563 13.625 L 44.344 51 L 49.25 51 L 63.75 0.594 L 58.656 0.594 L 47.625 41.313 C 47.437 42.039 47.266 42.695 47.125 43.281 C 46.984 43.867 46.891 44.375 46.844 44.844 L 46.719 44.844 C 46.625 44.117 46.477 43.387 46.313 42.625 C 46.148 41.863 45.961 41.078 45.75 40.281 L 34.688 0.594 L 31 0.594 L 19.188 40.125 C 18.555 42.234 18.172 43.82 18.031 44.875 L 17.875 44.875 C 17.781 44.148 17.652 43.41 17.5 42.625 C 17.348 41.84 17.164 40.992 16.906 40.125 L 5.781 0.594 L 0.594 0.594 Z " stroke-width="1"/>
    </g>
  </g>
</svg>