<svg version="1.1" width="80.01699829101562" height="16.389999389648438" viewBox="-0.05399999022483826 -0.19499999284744263 80.01699829101562 16.389999389648438" xmlns="http://www.w3.org/2000/svg" xmlns:xlink="http://www.w3.org/1999/xlink">
  <!-- Exported by Scratch - http://scratch.mit.edu/ -->
  <g id="Mars Preset">
    <path id="ID0.5502161211334169" fill="#fff" d="M 79.463 4.135 C 79.463 2.021 77.747 0.305 75.633 0.305 L 4.276 0.305 C 2.162 0.305 0.446 2.021 0.446 4.135 L 0.446 11.865 C 0.446 13.979 2.162 15.695 4.276 15.695 L 75.633 15.695 C 77.747 15.695 79.463 13.979 79.463 11.865 L 79.463 4.135 Z " stroke-width="1"/>
    <path id="ID0.5011802767403424" fill="#65a8e7" d="M 23.726 9.146 L 24.666 9.017 C 24.691 9.618 24.803 10.030 25.004 10.252 C 25.204 10.474 25.482 10.585 25.836 10.585 C 26.098 10.585 26.323 10.525 26.513 10.405 C 26.703 10.285 26.834 10.122 26.905 9.916 C 26.977 9.710 27.013 9.382 27.013 8.931 L 27.013 3.506 L 28.055 3.506 L 28.055 8.872 C 28.055 9.530 27.975 10.041 27.816 10.402 C 27.656 10.764 27.404 11.040 27.058 11.230 C 26.713 11.419 26.307 11.514 25.842 11.514 C 25.151 11.514 24.622 11.315 24.255 10.918 C 23.888 10.521 23.711 9.930 23.726 9.146 Z " stroke-width="1"/>
    <path id="ID0.691215165425092" fill="#65a8e7" d="M 33.372 11.380 L 33.372 10.542 C 32.928 11.187 32.325 11.509 31.562 11.509 C 31.225 11.509 30.911 11.444 30.619 11.315 C 30.328 11.187 30.111 11.025 29.970 10.829 C 29.828 10.634 29.729 10.395 29.671 10.112 C 29.632 9.923 29.612 9.622 29.612 9.210 L 29.612 5.676 L 30.579 5.676 L 30.579 8.839 C 30.579 9.344 30.599 9.684 30.638 9.860 C 30.699 10.114 30.828 10.314 31.025 10.459 C 31.222 10.604 31.465 10.676 31.755 10.676 C 32.045 10.676 32.318 10.602 32.572 10.453 C 32.826 10.305 33.006 10.103 33.112 9.846 C 33.217 9.590 33.270 9.219 33.270 8.732 L 33.270 5.676 L 34.237 5.676 L 34.237 11.380 L 33.372 11.380 Z " stroke-width="1"/>
    <path id="ID0.9398409118875861" fill="#65a8e7" d="M 35.752 13.566 L 35.752 5.676 L 36.632 5.676 L 36.632 6.417 C 36.840 6.127 37.075 5.909 37.336 5.764 C 37.597 5.619 37.914 5.547 38.287 5.547 C 38.774 5.547 39.203 5.672 39.576 5.923 C 39.948 6.174 40.229 6.527 40.419 6.984 C 40.609 7.440 40.704 7.941 40.704 8.485 C 40.704 9.069 40.599 9.594 40.389 10.061 C 40.180 10.529 39.876 10.887 39.476 11.136 C 39.077 11.384 38.657 11.509 38.217 11.509 C 37.895 11.509 37.605 11.441 37.349 11.305 C 37.093 11.169 36.883 10.997 36.718 10.789 L 36.718 13.566 L 35.752 13.566 Z M 36.627 8.560 C 36.627 9.294 36.776 9.837 37.073 10.188 C 37.370 10.538 37.730 10.714 38.152 10.714 C 38.582 10.714 38.950 10.532 39.256 10.169 C 39.562 9.805 39.715 9.242 39.715 8.480 C 39.715 7.753 39.566 7.208 39.267 6.847 C 38.968 6.485 38.611 6.304 38.195 6.304 C 37.784 6.304 37.419 6.497 37.102 6.882 C 36.785 7.267 36.627 7.826 36.627 8.560 Z " stroke-width="1"/>
    <path id="ID0.4635487194173038" fill="#65a8e7" d="M 41.875 4.618 L 41.875 3.506 L 42.841 3.506 L 42.841 4.618 L 41.875 4.618 Z M 41.875 11.380 L 41.875 5.676 L 42.841 5.676 L 42.841 11.380 L 41.875 11.380 Z " stroke-width="1"/>
    <path id="ID0.39818425895646214" fill="#65a8e7" d="M 46.424 10.515 L 46.564 11.369 C 46.291 11.426 46.048 11.455 45.833 11.455 C 45.482 11.455 45.210 11.400 45.017 11.289 C 44.823 11.178 44.687 11.032 44.608 10.851 C 44.530 10.670 44.490 10.290 44.490 9.710 L 44.490 6.428 L 43.781 6.428 L 43.781 5.676 L 44.490 5.676 L 44.490 4.263 L 45.452 3.683 L 45.452 5.676 L 46.424 5.676 L 46.424 6.428 L 45.452 6.428 L 45.452 9.763 C 45.452 10.039 45.469 10.216 45.503 10.295 C 45.537 10.374 45.592 10.436 45.669 10.483 C 45.746 10.530 45.856 10.553 46 10.553 C 46.107 10.553 46.248 10.540 46.424 10.515 Z " stroke-width="1"/>
    <path id="ID0.3918984616175294" fill="#65a8e7" d="M 51.274 9.543 L 52.273 9.667 C 52.115 10.250 51.824 10.703 51.398 11.025 C 50.971 11.348 50.427 11.509 49.765 11.509 C 48.930 11.509 48.269 11.252 47.780 10.738 C 47.291 10.224 47.047 9.504 47.047 8.576 C 47.047 7.617 47.294 6.872 47.788 6.342 C 48.282 5.812 48.923 5.547 49.711 5.547 C 50.474 5.547 51.097 5.807 51.580 6.326 C 52.064 6.845 52.305 7.575 52.305 8.517 C 52.305 8.574 52.303 8.660 52.300 8.775 L 48.046 8.775 C 48.082 9.402 48.259 9.881 48.578 10.214 C 48.896 10.547 49.294 10.714 49.770 10.714 C 50.125 10.714 50.427 10.621 50.678 10.435 C 50.928 10.248 51.127 9.951 51.274 9.543 Z M 48.100 7.980 L 51.285 7.980 C 51.242 7.500 51.120 7.140 50.919 6.900 C 50.612 6.528 50.212 6.342 49.722 6.342 C 49.278 6.342 48.904 6.490 48.602 6.788 C 48.299 7.085 48.132 7.482 48.100 7.980 Z " stroke-width="1"/>
    <path id="ID0.9513516775332391" fill="#65a8e7" d="M 53.476 11.380 L 53.476 5.676 L 54.346 5.676 L 54.346 6.541 C 54.568 6.136 54.773 5.869 54.961 5.740 C 55.149 5.611 55.356 5.547 55.582 5.547 C 55.907 5.547 56.239 5.651 56.575 5.858 L 56.242 6.755 C 56.006 6.616 55.770 6.546 55.533 6.546 C 55.322 6.546 55.132 6.610 54.964 6.737 C 54.796 6.864 54.676 7.040 54.604 7.266 C 54.497 7.609 54.443 7.985 54.443 8.394 L 54.443 11.380 L 53.476 11.380 Z " stroke-width="1"/>
  </g>
</svg>