<svg version="1.1" width="30.8439998626709" height="51.40599822998047" viewBox="0.281000018119812 0.09399998188018799 30.8439998626709 51.40599822998047" xmlns="http://www.w3.org/2000/svg" xmlns:xlink="http://www.w3.org/1999/xlink">
  <!-- Exported by Scratch - http://scratch.mit.edu/ -->
  <g id="ID0.8547849976457655">
    <g id="layer1">
      <path id="path3016" fill="#666666" stroke="none" d="M 0.781 0.594 L 0.781 51 L 14.875 51 C 17.195 51 19.328 50.641 21.25 49.938 C 23.172 49.234 24.824 48.246 26.219 46.969 C 27.613 45.691 28.695 44.176 29.469 42.406 C 30.242 40.637 30.625 38.695 30.625 36.563 C 30.625 34.875 30.352 33.324 29.813 31.906 C 29.273 30.488 28.516 29.242 27.531 28.188 C 26.547 27.133 25.383 26.281 24 25.625 C 22.617 24.969 21.062 24.539 19.375 24.375 L 19.375 24.25 C 20.758 23.805 22.004 23.199 23.094 22.438 C 24.184 21.676 25.094 20.762 25.844 19.719 C 26.594 18.676 27.164 17.547 27.563 16.281 C 27.961 15.016 28.187 13.641 28.188 12.188 C 28.187 10.477 27.852 8.899 27.219 7.469 C 26.586 6.039 25.684 4.832 24.5 3.813 C 23.316 2.793 21.895 2 20.219 1.438 C 18.543 0.875 16.648 0.594 14.563 0.594 L 0.781 0.594 Z M 5.469 4.875 L 13.063 4.875 C 19.859 4.875 23.25 7.602 23.25 13.063 C 23.25 14.563 22.996 15.93 22.469 17.125 C 21.941 18.32 21.172 19.313 20.188 20.156 C 19.203 21 18.039 21.648 16.656 22.094 C 15.273 22.539 13.711 22.781 12 22.781 L 5.469 22.781 L 5.469 4.875 Z M 5.469 27 L 12.563 27 C 21.352 27 25.75 30.219 25.75 36.688 C 25.75 39.898 24.754 42.379 22.75 44.125 C 20.746 45.871 17.883 46.75 14.156 46.75 L 5.469 46.75 L 5.469 27 Z " stroke-width="1"/>
    </g>
  </g>
</svg>