<svg version="1.1" width="18.843000411987305" height="37.65599822998047" viewBox="-0.43699999898672104 -0.15599998831748962 18.843000411987305 37.65599822998047" xmlns="http://www.w3.org/2000/svg" xmlns:xlink="http://www.w3.org/1999/xlink">
  <!-- Exported by Scratch - http://scratch.mit.edu/ -->
  <g id="ID0.33777299290522933">
    <g id="layer1">
      <path id="path3282" fill="#666666" stroke="none" d="M 14.406 0.344 C 13.305 0.344 12.246 0.531 11.25 0.906 C 10.254 1.281 9.344 1.816 8.5 2.531 C 7.656 3.246 6.895 4.113 6.25 5.156 C 5.605 6.199 5.078 7.375 4.656 8.688 L 4.5 8.688 L 4.5 1 L 0.063 1 L 0.063 37 L 4.5 37 L 4.5 19.375 C 4.5 18.367 4.59 17.313 4.719 16.188 C 4.848 15.063 5.051 13.945 5.344 12.844 C 5.637 11.742 6.02 10.676 6.5 9.656 C 6.98 8.637 7.559 7.742 8.25 6.969 C 8.941 6.195 9.742 5.582 10.656 5.125 C 11.57 4.668 12.648 4.438 13.844 4.438 C 15.508 4.438 16.852 4.82 17.906 5.594 L 17.906 0.906 C 17.437 0.719 16.918 0.563 16.344 0.469 C 15.77 0.375 15.133 0.344 14.406 0.344 Z " stroke-width="1"/>
    </g>
  </g>
</svg>