<svg version="1.1" width="33.093997955322266" height="10.875" viewBox="-0.2810000032186508 -0.3439999967813492 33.093997955322266 10.875" xmlns="http://www.w3.org/2000/svg" xmlns:xlink="http://www.w3.org/1999/xlink">
  <!-- Exported by Scratch - http://scratch.mit.edu/ -->
  <g id="ID0.8017368889413774">
    <g id="layer1">
      <path id="path3317" fill="#666666" stroke="none" d="M 9.25 0.156 C 7.914 0.156 6.715 0.398 5.625 0.844 C 4.535 1.289 3.617 1.906 2.844 2.75 C 2.07 3.594 1.445 4.617 1 5.813 C 0.555 7.008 0.289 8.375 0.219 9.875 L 4 9.875 C 4.211 5.961 5.937 4 9.219 4 C 10.766 4 12.734 4.867 15.125 6.625 C 18.172 8.898 20.898 10.031 23.313 10.031 C 26.008 10.031 28.148 9.199 29.719 7.5 C 31.289 5.801 32.148 3.414 32.313 0.344 L 28.594 0.344 C 28.453 2.242 27.961 3.688 27.094 4.719 C 26.227 5.75 25.031 6.281 23.531 6.281 C 23.086 6.281 22.645 6.231 22.188 6.125 C 21.73 6.02 21.246 5.84 20.719 5.594 C 20.191 5.348 19.621 5.004 19 4.594 C 18.379 4.184 17.633 3.711 16.813 3.125 C 14.117 1.156 11.594 0.156 9.25 0.156 Z " stroke-width="1"/>
    </g>
  </g>
</svg>