<svg width="126.00000762939453" height="25.75200080871582" viewBox="-0.22100496292114258 -0.42799997329711914 126.00000762939453 25.75200080871582" version="1.1" xmlns="http://www.w3.org/2000/svg" xmlns:xlink="http://www.w3.org/1999/xlink" xml:space="preserve" style="fill-rule:evenodd;clip-rule:evenodd;stroke-linecap:square;stroke-miterlimit:1.41421;"><g id="Export as Code Button"><path d="M125.279,6.26c0,-3.415 -2.772,-6.188 -6.188,-6.188l-112.624,0c-3.415,0 -6.188,2.773 -6.188,6.188l0,12.376c0,3.416 2.773,6.188 6.188,6.188l112.624,0c3.416,0 6.188,-2.772 6.188,-6.188l0,-12.376Z" style="fill:#fff;" stroke-width="1"/><path d="M32.14,16.72l0,-7.874l5.839,0l0,1.332l-4.249,0l0,1.745l3.953,0l0,1.327l-3.953,0l0,2.143l4.399,0l0,1.327l-5.989,0Z" style="fill:#65a8e7;fill-rule:nonzero;" stroke-width="1"/><path d="M38.741,16.72l2.057,-2.938l-1.971,-2.766l1.842,0l1.01,1.568l1.064,-1.568l1.772,0l-1.933,2.701l2.11,3.003l-1.853,0l-1.16,-1.767l-1.171,1.767l-1.767,0Z" style="fill:#65a8e7;fill-rule:nonzero;" stroke-width="1"/><path d="M45.541,11.016l1.407,0l0,0.838c0.183,-0.287 0.43,-0.52 0.741,-0.699c0.312,-0.179 0.658,-0.268 1.037,-0.268c0.663,0 1.225,0.259 1.687,0.779c0.462,0.519 0.693,1.242 0.693,2.17c0,0.952 -0.233,1.692 -0.699,2.221c-0.465,0.528 -1.029,0.792 -1.692,0.792c-0.315,0 -0.6,-0.063 -0.856,-0.188c-0.256,-0.126 -0.526,-0.34 -0.809,-0.645l0,2.874l-1.509,0l0,-7.874ZM47.034,13.771c0,0.641 0.127,1.115 0.382,1.421c0.254,0.306 0.564,0.459 0.929,0.459c0.351,0 0.643,-0.141 0.875,-0.422c0.233,-0.281 0.349,-0.742 0.349,-1.383c0,-0.598 -0.12,-1.042 -0.359,-1.332c-0.24,-0.29 -0.538,-0.435 -0.892,-0.435c-0.369,0 -0.675,0.143 -0.919,0.427c-0.243,0.285 -0.365,0.707 -0.365,1.265Z" style="fill:#65a8e7;fill-rule:nonzero;" stroke-width="1"/><path d="M51.954,13.787c0,-0.501 0.124,-0.986 0.371,-1.455c0.247,-0.469 0.597,-0.827 1.05,-1.075c0.453,-0.247 0.959,-0.37 1.517,-0.37c0.863,0 1.57,0.28 2.122,0.84c0.551,0.561 0.827,1.269 0.827,2.125c0,0.863 -0.279,1.578 -0.835,2.145c-0.557,0.568 -1.258,0.852 -2.103,0.852c-0.523,0 -1.022,-0.118 -1.496,-0.355c-0.474,-0.236 -0.835,-0.583 -1.082,-1.039c-0.247,-0.457 -0.371,-1.012 -0.371,-1.668ZM53.501,13.868c0,0.566 0.134,0.999 0.403,1.3c0.268,0.3 0.6,0.451 0.993,0.451c0.394,0 0.725,-0.151 0.991,-0.451c0.267,-0.301 0.401,-0.738 0.401,-1.311c0,-0.559 -0.134,-0.988 -0.401,-1.289c-0.266,-0.301 -0.597,-0.451 -0.991,-0.451c-0.393,0 -0.725,0.15 -0.993,0.451c-0.269,0.301 -0.403,0.734 -0.403,1.3Z" style="fill:#65a8e7;fill-rule:nonzero;" stroke-width="1"/><path d="M60.467,16.72l-1.509,0l0,-5.704l1.402,0l0,0.811c0.24,-0.383 0.456,-0.636 0.647,-0.758c0.192,-0.121 0.409,-0.182 0.653,-0.182c0.343,0 0.675,0.095 0.993,0.285l-0.467,1.315c-0.254,-0.164 -0.49,-0.247 -0.709,-0.247c-0.211,0 -0.39,0.059 -0.537,0.175c-0.147,0.116 -0.262,0.327 -0.346,0.631c-0.085,0.304 -0.127,0.942 -0.127,1.912l0,1.762Z" style="fill:#65a8e7;fill-rule:nonzero;" stroke-width="1"/><path d="M65.919,11.016l0,1.203l-1.031,0l0,2.299c0,0.465 0.01,0.736 0.029,0.813c0.02,0.077 0.065,0.141 0.135,0.191c0.069,0.05 0.154,0.075 0.255,0.075c0.139,0 0.342,-0.048 0.607,-0.145l0.129,1.171c-0.351,0.151 -0.749,0.226 -1.193,0.226c-0.272,0 -0.517,-0.046 -0.736,-0.137c-0.218,-0.092 -0.378,-0.21 -0.48,-0.355c-0.102,-0.145 -0.173,-0.341 -0.213,-0.588c-0.032,-0.175 -0.048,-0.53 -0.048,-1.063l0,-2.487l-0.693,0l0,-1.203l0.693,0l0,-1.134l1.515,-0.88l0,2.014l1.031,0Z" style="fill:#65a8e7;fill-rule:nonzero;" stroke-width="1"/><path d="M71.15,12.756l-1.369,-0.247c0.154,-0.552 0.419,-0.96 0.795,-1.225c0.376,-0.265 0.934,-0.397 1.676,-0.397c0.673,0 1.174,0.08 1.503,0.239c0.33,0.159 0.562,0.362 0.696,0.607c0.134,0.245 0.201,0.695 0.201,1.351l-0.016,1.761c0,0.502 0.024,0.871 0.073,1.109c0.048,0.239 0.139,0.494 0.271,0.766l-1.493,0c-0.04,-0.1 -0.088,-0.249 -0.145,-0.446c-0.025,-0.089 -0.043,-0.149 -0.054,-0.177c-0.258,0.25 -0.533,0.438 -0.827,0.564c-0.294,0.125 -0.607,0.188 -0.94,0.188c-0.587,0 -1.05,-0.16 -1.388,-0.478c-0.339,-0.319 -0.508,-0.722 -0.508,-1.209c0,-0.322 0.077,-0.609 0.231,-0.862c0.154,-0.252 0.37,-0.446 0.647,-0.58c0.278,-0.134 0.678,-0.251 1.201,-0.352c0.705,-0.132 1.194,-0.256 1.466,-0.37l0,-0.151c0,-0.29 -0.072,-0.497 -0.215,-0.62c-0.143,-0.124 -0.413,-0.185 -0.811,-0.185c-0.268,0 -0.478,0.052 -0.628,0.158c-0.151,0.106 -0.272,0.291 -0.366,0.556ZM73.17,13.981c-0.193,0.064 -0.5,0.141 -0.918,0.231c-0.419,0.089 -0.693,0.177 -0.822,0.263c-0.197,0.139 -0.296,0.317 -0.296,0.531c0,0.212 0.079,0.394 0.237,0.548c0.157,0.154 0.358,0.231 0.601,0.231c0.272,0 0.532,-0.089 0.779,-0.268c0.183,-0.136 0.303,-0.303 0.36,-0.5c0.039,-0.129 0.059,-0.374 0.059,-0.736l0,-0.3Z" style="fill:#65a8e7;fill-rule:nonzero;" stroke-width="1"/><path d="M75.608,15.092l1.515,-0.231c0.065,0.294 0.195,0.517 0.392,0.669c0.197,0.152 0.473,0.228 0.827,0.228c0.391,0 0.684,-0.071 0.881,-0.214c0.133,-0.101 0.199,-0.235 0.199,-0.403c0,-0.115 -0.036,-0.21 -0.108,-0.285c-0.075,-0.072 -0.243,-0.138 -0.504,-0.199c-1.218,-0.268 -1.989,-0.513 -2.315,-0.735c-0.452,-0.308 -0.677,-0.736 -0.677,-1.284c0,-0.494 0.195,-0.91 0.585,-1.246c0.391,-0.337 0.996,-0.505 1.816,-0.505c0.78,0 1.36,0.127 1.74,0.381c0.38,0.254 0.641,0.63 0.784,1.128l-1.423,0.263c-0.061,-0.222 -0.176,-0.392 -0.347,-0.51c-0.17,-0.118 -0.412,-0.177 -0.727,-0.177c-0.398,0 -0.682,0.055 -0.854,0.166c-0.115,0.079 -0.172,0.181 -0.172,0.306c0,0.108 0.05,0.199 0.15,0.274c0.136,0.101 0.606,0.242 1.41,0.425c0.804,0.182 1.365,0.406 1.684,0.671c0.315,0.269 0.473,0.643 0.473,1.123c0,0.522 -0.219,0.972 -0.656,1.348c-0.437,0.376 -1.083,0.564 -1.939,0.564c-0.777,0 -1.392,-0.158 -1.845,-0.473c-0.453,-0.315 -0.749,-0.743 -0.889,-1.284Z" style="fill:#65a8e7;fill-rule:nonzero;" stroke-width="1"/><path d="M90.363,13.825l1.541,0.489c-0.236,0.859 -0.629,1.497 -1.179,1.914c-0.549,0.418 -1.247,0.626 -2.092,0.626c-1.045,0 -1.905,-0.357 -2.578,-1.071c-0.673,-0.715 -1.01,-1.691 -1.01,-2.93c0,-1.311 0.339,-2.329 1.016,-3.054c0.676,-0.725 1.566,-1.087 2.669,-1.087c0.963,0 1.746,0.284 2.347,0.854c0.358,0.336 0.627,0.82 0.806,1.45l-1.574,0.376c-0.093,-0.408 -0.287,-0.731 -0.583,-0.967c-0.295,-0.236 -0.654,-0.355 -1.077,-0.355c-0.583,0 -1.057,0.21 -1.42,0.629c-0.364,0.419 -0.545,1.097 -0.545,2.035c0,0.996 0.179,1.705 0.537,2.127c0.358,0.423 0.823,0.634 1.396,0.634c0.423,0 0.786,-0.134 1.091,-0.403c0.304,-0.268 0.522,-0.691 0.655,-1.267Z" style="fill:#65a8e7;fill-rule:nonzero;" stroke-width="1"/><path d="M92.909,13.787c0,-0.501 0.123,-0.986 0.37,-1.455c0.247,-0.469 0.597,-0.827 1.05,-1.075c0.453,-0.247 0.959,-0.37 1.518,-0.37c0.863,0 1.57,0.28 2.121,0.84c0.552,0.561 0.827,1.269 0.827,2.125c0,0.863 -0.278,1.578 -0.835,2.145c-0.557,0.568 -1.257,0.852 -2.103,0.852c-0.522,0 -1.021,-0.118 -1.495,-0.355c-0.475,-0.236 -0.836,-0.583 -1.083,-1.039c-0.247,-0.457 -0.37,-1.012 -0.37,-1.668ZM94.456,13.868c0,0.566 0.134,0.999 0.402,1.3c0.269,0.3 0.6,0.451 0.994,0.451c0.394,0 0.724,-0.151 0.991,-0.451c0.267,-0.301 0.4,-0.738 0.4,-1.311c0,-0.559 -0.133,-0.988 -0.4,-1.289c-0.267,-0.301 -0.597,-0.451 -0.991,-0.451c-0.394,0 -0.725,0.15 -0.994,0.451c-0.268,0.301 -0.402,0.734 -0.402,1.3Z" style="fill:#65a8e7;fill-rule:nonzero;" stroke-width="1"/><path d="M105.209,16.72l-1.402,0l0,-0.838c-0.233,0.326 -0.508,0.568 -0.825,0.728c-0.317,0.159 -0.636,0.239 -0.959,0.239c-0.655,0 -1.216,-0.264 -1.683,-0.792c-0.468,-0.529 -0.701,-1.265 -0.701,-2.211c0,-0.966 0.227,-1.701 0.682,-2.205c0.455,-0.503 1.029,-0.754 1.724,-0.754c0.637,0 1.189,0.265 1.654,0.795l0,-2.836l1.51,0l0,7.874ZM101.18,13.744c0,0.609 0.084,1.049 0.253,1.322c0.243,0.393 0.583,0.59 1.02,0.59c0.347,0 0.643,-0.147 0.886,-0.443c0.244,-0.295 0.366,-0.736 0.366,-1.324c0,-0.655 -0.119,-1.127 -0.355,-1.415c-0.236,-0.288 -0.539,-0.432 -0.908,-0.432c-0.358,0 -0.658,0.142 -0.899,0.427c-0.242,0.284 -0.363,0.71 -0.363,1.275Z" style="fill:#65a8e7;fill-rule:nonzero;" stroke-width="1"/><path d="M110,14.904l1.503,0.253c-0.193,0.551 -0.498,0.971 -0.915,1.259c-0.417,0.289 -0.939,0.433 -1.566,0.433c-0.992,0 -1.726,-0.324 -2.202,-0.972c-0.376,-0.52 -0.564,-1.175 -0.564,-1.966c0,-0.946 0.247,-1.686 0.741,-2.221c0.494,-0.536 1.119,-0.803 1.875,-0.803c0.848,0 1.518,0.28 2.008,0.84c0.491,0.561 0.726,1.419 0.704,2.576l-3.781,0c0.011,0.447 0.132,0.796 0.365,1.045c0.233,0.248 0.523,0.373 0.87,0.373c0.236,0 0.435,-0.065 0.596,-0.194c0.161,-0.128 0.283,-0.336 0.366,-0.623ZM110.085,13.379c-0.01,-0.437 -0.123,-0.769 -0.338,-0.996c-0.215,-0.228 -0.476,-0.341 -0.784,-0.341c-0.329,0 -0.602,0.12 -0.816,0.359c-0.215,0.24 -0.321,0.566 -0.317,0.978l2.255,0Z" style="fill:#65a8e7;fill-rule:nonzero;" stroke-width="1"/><g><path d="M21.12,9.668l-4.841,-4.931l-8.159,0l0,16l13,0l0,-11.069Z" style="fill:#65a8e7;" stroke-width="1"/><path d="M16.48,4.16l5.216,5.216l-5.216,0l0,-5.216Z" style="fill:#65a8e7;stroke-width:0.5px;stroke:#fff;" stroke-width="1"/><path d="M6.286,15.7l0,-3.337l5.231,0l0,-1.668l4.103,3.337l-4.103,3.336l0,-1.668l-5.231,0Z" style="fill:#fff;" stroke-width="1"/></g></g></svg>