<svg version="1.1" width="47.35564422607422" height="45.5" viewBox="0.25 0.75 47.35564422607422 45.5" xmlns="http://www.w3.org/2000/svg" xmlns:xlink="http://www.w3.org/1999/xlink">
  <!-- Exported by Scratch - http://scratch.mit.edu/ -->
  <path id="ID0.636300531681627" fill="none" stroke="#666666" stroke-width="2" d="M 23 1.75 C 29.001 1.75 34.438 4.187 38.375 8.125 C 42.313 12.062 44.75 17.499 44.75 23.5 C 44.75 29.501 42.313 34.938 38.375 38.875 C 34.438 42.813 29.001 45.25 23 45.25 C 16.999 45.25 11.562 42.813 7.625 38.875 C 3.687 34.938 1.25 29.501 1.25 23.5 C 1.25 17.499 3.687 12.062 7.625 8.125 C 11.562 4.187 16.999 1.75 23 1.75 Z "/>
  <path id="ID0.47749789524823427" fill="#666666" stroke="none" d="M 15 13.75 C 15.552 13.75 16.052 13.974 16.414 14.336 C 16.776 14.698 17 15.198 17 15.75 C 17 16.302 16.776 16.802 16.414 17.164 C 16.052 17.526 15.552 17.75 15 17.75 C 14.448 17.75 13.948 17.526 13.586 17.164 C 13.224 16.802 13 16.302 13 15.75 C 13 15.198 13.224 14.698 13.586 14.336 C 13.948 13.974 14.448 13.75 15 13.75 Z " stroke-width="1"/>
  <path id="ID0.47749789524823427" fill="#666666" stroke="none" d="M 30.75 13.5 C 31.302 13.5 31.802 13.724 32.164 14.086 C 32.526 14.448 32.75 14.948 32.75 15.5 C 32.75 16.052 32.526 16.552 32.164 16.914 C 31.802 17.276 31.302 17.5 30.75 17.5 C 30.198 17.5 29.698 17.276 29.336 16.914 C 28.974 16.552 28.75 16.052 28.75 15.5 C 28.75 14.948 28.974 14.448 29.336 14.086 C 29.698 13.724 30.198 13.5 30.75 13.5 Z " stroke-width="1"/>
  <text id="ID0.4037121497094631" fill="#666666" text-anchor="start" font-family="Sans Serif" font-size="22" transform="matrix(-0.0120338, -1.27031, -1.27031, 0.0120338, 48.1869, 36.4733)" stroke-width="1" alignment-baseline="text-before-edge" xml:space="preserve"><tspan x="0" style="white-space: pre" dy="1.13em">)</tspan></text>
</svg>