<svg width="61.37900161743164" height="19.381999969482422" viewBox="-0.04399999976158142 0.06599998474121094 61.37900161743164 19.381999969482422" version="1.1" xmlns="http://www.w3.org/2000/svg" xmlns:xlink="http://www.w3.org/1999/xlink" xml:space="preserve" style="fill-rule:evenodd;clip-rule:evenodd;stroke-linejoin:round;stroke-miterlimit:1.41421;"><g id="Rename Button"><rect x="0.456" y="0.566" width="60.379" height="18.382" style="fill:#b3b3b3;" stroke-width="1"/><path d="M8.493,14.052l0,-8.59l3.809,0c0.766,0 1.348,0.077 1.746,0.231c0.399,0.155 0.717,0.427 0.955,0.818c0.238,0.39 0.358,0.822 0.358,1.295c0,0.609 -0.198,1.123 -0.592,1.541c-0.395,0.417 -1.004,0.683 -1.828,0.796c0.3,0.145 0.529,0.288 0.685,0.428c0.332,0.305 0.647,0.686 0.944,1.143l1.494,2.338l-1.43,0l-1.137,-1.788c-0.332,-0.515 -0.605,-0.91 -0.82,-1.183c-0.215,-0.274 -0.407,-0.465 -0.577,-0.574c-0.17,-0.11 -0.343,-0.186 -0.519,-0.229c-0.129,-0.027 -0.34,-0.041 -0.633,-0.041l-1.318,0l0,3.815l-1.137,0ZM9.63,9.253l2.443,0c0.52,0 0.926,-0.054 1.219,-0.161c0.293,-0.108 0.516,-0.28 0.668,-0.516c0.153,-0.236 0.229,-0.493 0.229,-0.77c0,-0.407 -0.148,-0.741 -0.443,-1.002c-0.295,-0.262 -0.76,-0.393 -1.397,-0.393l-2.719,0l0,2.842Z" style="fill:#fff;fill-rule:nonzero;" stroke-width="1"/><path d="M21.267,12.048l1.09,0.134c-0.172,0.637 -0.491,1.131 -0.955,1.483c-0.465,0.351 -1.059,0.527 -1.782,0.527c-0.91,0 -1.631,-0.28 -2.165,-0.841c-0.533,-0.56 -0.799,-1.346 -0.799,-2.358c0,-1.047 0.269,-1.859 0.808,-2.437c0.539,-0.579 1.238,-0.868 2.098,-0.868c0.832,0 1.511,0.284 2.039,0.85c0.527,0.566 0.791,1.363 0.791,2.391c0,0.062 -0.002,0.156 -0.006,0.281l-4.641,0c0.039,0.683 0.233,1.207 0.58,1.57c0.348,0.363 0.782,0.545 1.301,0.545c0.387,0 0.717,-0.102 0.99,-0.305c0.274,-0.203 0.491,-0.527 0.651,-0.972ZM17.804,10.343l3.475,0c-0.047,-0.524 -0.18,-0.916 -0.399,-1.178c-0.336,-0.406 -0.771,-0.609 -1.307,-0.609c-0.484,0 -0.891,0.162 -1.221,0.486c-0.33,0.324 -0.513,0.758 -0.548,1.301Z" style="fill:#fff;fill-rule:nonzero;" stroke-width="1"/><path d="M23.681,14.052l0,-6.223l0.949,0l0,0.885c0.457,-0.684 1.117,-1.026 1.981,-1.026c0.375,0 0.719,0.068 1.034,0.202c0.314,0.135 0.55,0.312 0.706,0.531c0.156,0.218 0.265,0.478 0.328,0.779c0.039,0.195 0.059,0.537 0.059,1.025l0,3.827l-1.055,0l0,-3.786c0,-0.429 -0.041,-0.751 -0.123,-0.963c-0.082,-0.213 -0.228,-0.383 -0.437,-0.51c-0.209,-0.127 -0.454,-0.191 -0.735,-0.191c-0.449,0 -0.837,0.143 -1.163,0.428c-0.326,0.285 -0.489,0.826 -0.489,1.623l0,3.399l-1.055,0Z" style="fill:#fff;fill-rule:nonzero;" stroke-width="1"/><path d="M34.415,13.284c-0.39,0.332 -0.766,0.566 -1.128,0.703c-0.361,0.137 -0.749,0.205 -1.163,0.205c-0.683,0 -1.209,-0.167 -1.576,-0.501c-0.367,-0.334 -0.551,-0.76 -0.551,-1.28c0,-0.305 0.07,-0.583 0.208,-0.835c0.139,-0.252 0.321,-0.454 0.545,-0.606c0.225,-0.153 0.478,-0.268 0.759,-0.346c0.207,-0.055 0.52,-0.108 0.938,-0.158c0.851,-0.102 1.478,-0.223 1.88,-0.364c0.004,-0.144 0.006,-0.236 0.006,-0.275c0,-0.43 -0.099,-0.732 -0.299,-0.908c-0.269,-0.238 -0.669,-0.358 -1.201,-0.358c-0.496,0 -0.862,0.087 -1.098,0.261c-0.237,0.174 -0.412,0.482 -0.525,0.923l-1.031,-0.141c0.094,-0.441 0.248,-0.798 0.463,-1.069c0.215,-0.271 0.525,-0.48 0.931,-0.627c0.407,-0.146 0.877,-0.22 1.413,-0.22c0.531,0 0.962,0.063 1.295,0.188c0.332,0.125 0.576,0.282 0.732,0.472c0.156,0.189 0.266,0.428 0.328,0.717c0.035,0.18 0.053,0.504 0.053,0.973l0,1.406c0,0.981 0.022,1.601 0.067,1.861c0.045,0.259 0.134,0.508 0.267,0.747l-1.102,0c-0.109,-0.219 -0.179,-0.475 -0.211,-0.768ZM34.327,10.929c-0.382,0.156 -0.957,0.289 -1.722,0.398c-0.434,0.062 -0.74,0.133 -0.92,0.211c-0.18,0.078 -0.319,0.192 -0.416,0.343c-0.098,0.15 -0.147,0.317 -0.147,0.501c0,0.281 0.107,0.515 0.32,0.703c0.213,0.187 0.524,0.281 0.934,0.281c0.406,0 0.768,-0.089 1.084,-0.267c0.317,-0.177 0.549,-0.42 0.697,-0.729c0.114,-0.238 0.17,-0.59 0.17,-1.055l0,-0.386Z" style="fill:#fff;fill-rule:nonzero;" stroke-width="1"/><path d="M37.029,14.052l0,-6.223l0.943,0l0,0.873c0.195,-0.305 0.455,-0.55 0.779,-0.735c0.324,-0.186 0.694,-0.279 1.108,-0.279c0.461,0 0.839,0.096 1.133,0.287c0.295,0.192 0.503,0.459 0.624,0.803c0.493,-0.726 1.133,-1.09 1.922,-1.09c0.618,0 1.092,0.171 1.424,0.513c0.332,0.342 0.498,0.868 0.498,1.579l0,4.272l-1.049,0l0,-3.92c0,-0.422 -0.034,-0.726 -0.102,-0.911c-0.069,-0.186 -0.193,-0.335 -0.372,-0.449c-0.18,-0.113 -0.391,-0.17 -0.633,-0.17c-0.438,0 -0.801,0.146 -1.09,0.437c-0.289,0.291 -0.433,0.757 -0.433,1.397l0,3.616l-1.055,0l0,-4.043c0,-0.469 -0.086,-0.821 -0.258,-1.055c-0.172,-0.234 -0.453,-0.352 -0.844,-0.352c-0.297,0 -0.571,0.079 -0.823,0.235c-0.252,0.156 -0.435,0.385 -0.548,0.685c-0.113,0.301 -0.17,0.735 -0.17,1.301l0,3.229l-1.054,0Z" style="fill:#fff;fill-rule:nonzero;" stroke-width="1"/><path d="M51.284,12.048l1.09,0.134c-0.172,0.637 -0.49,1.131 -0.955,1.483c-0.465,0.351 -1.058,0.527 -1.781,0.527c-0.91,0 -1.632,-0.28 -2.165,-0.841c-0.533,-0.56 -0.8,-1.346 -0.8,-2.358c0,-1.047 0.27,-1.859 0.809,-2.437c0.539,-0.579 1.238,-0.868 2.097,-0.868c0.832,0 1.512,0.284 2.039,0.85c0.528,0.566 0.791,1.363 0.791,2.391c0,0.062 -0.002,0.156 -0.005,0.281l-4.641,0c0.039,0.683 0.232,1.207 0.58,1.57c0.348,0.363 0.781,0.545 1.301,0.545c0.387,0 0.717,-0.102 0.99,-0.305c0.273,-0.203 0.49,-0.527 0.65,-0.972ZM47.822,10.343l3.474,0c-0.047,-0.524 -0.18,-0.916 -0.398,-1.178c-0.336,-0.406 -0.772,-0.609 -1.307,-0.609c-0.484,0 -0.892,0.162 -1.222,0.486c-0.33,0.324 -0.512,0.758 -0.547,1.301Z" style="fill:#fff;fill-rule:nonzero;" stroke-width="1"/></g></svg>