<svg version="1.1" width="243" height="183" viewBox="-0.9470000267028809 -0.5839999914169312 243 183" xmlns="http://www.w3.org/2000/svg" xmlns:xlink="http://www.w3.org/1999/xlink">
  <!-- Exported by Scratch - http://scratch.mit.edu/ -->
  <g id="No Levels In Category">
    <path id="Level Placeholder" fill="#ea5f61" d="M 0.553 0.916 L 240.553 0.916 L 240.553 180.916 L 0.553 180.916 L 0.553 0.916 Z " stroke-width="1"/>
    <g id="Icon">
      <g id="Cloud">
        <path id="ID0.3452571160160005" fill="#fff" d="M 106.538 86.069 C 110.640 81.376 116.669 78.410 123.386 78.410 C 135.018 78.410 144.588 87.308 145.655 98.662 C 145.688 98.662 145.721 98.662 145.754 98.662 C 153.365 98.662 159.543 104.841 159.543 112.451 C 159.543 120 153.465 126.140 145.939 126.239 L 145.939 126.240 L 96.282 126.240 C 88.159 126.240 81.564 119.645 81.564 111.522 C 81.564 104.707 86.206 98.967 92.498 97.295 C 92.493 97.156 92.490 97.015 92.490 96.874 C 92.490 90.705 97.498 85.697 103.667 85.697 C 104.660 85.697 105.622 85.826 106.538 86.069 Z " stroke-width="1"/>
        <g id="Face (Group)">
          <path id="ID0.7511392310261726" fill="#ea5f61" d="M 110.607 100.317 C 111.297 100.317 111.923 100.597 112.376 101.050 C 112.829 101.503 113.109 102.129 113.109 102.819 C 113.109 103.509 112.829 104.135 112.376 104.588 C 111.923 105.041 111.297 105.321 110.607 105.321 C 109.917 105.321 109.291 105.041 108.838 104.588 C 108.385 104.135 108.105 103.509 108.105 102.819 C 108.105 102.129 108.385 101.503 108.838 101.050 C 109.291 100.597 109.917 100.317 110.607 100.317 Z " stroke-width="1"/>
          <path id="ID0.639850742649287" fill="#ea5f61" d="M 128.795 100.317 C 129.485 100.317 130.111 100.597 130.564 101.050 C 131.017 101.503 131.297 102.129 131.297 102.819 C 131.297 103.509 131.017 104.135 130.564 104.588 C 130.111 105.041 129.485 105.321 128.795 105.321 C 128.105 105.321 127.479 105.041 127.026 104.588 C 126.573 104.135 126.293 103.509 126.293 102.819 C 126.293 102.129 126.573 101.503 127.026 101.050 C 127.479 100.597 128.105 100.317 128.795 100.317 Z " stroke-width="1"/>
          <path id="ID0.017818675842136145" fill="none" stroke="#ea5f61" stroke-width="3" d="M 126.294 115.527 C 126.294 115.527 123.907 113.305 119.797 113.305 C 115.687 113.305 113.130 115.527 113.130 115.527 "/>
        </g>
      </g>
    </g>
    <path id="ID0.25021706335246563" fill="#fff" d="M 13.791 64.810 L 13.791 56.261 L 10.597 56.261 L 10.597 55.117 L 18.280 55.117 L 18.280 56.261 L 15.073 56.261 L 15.073 64.810 L 13.791 64.810 Z " stroke-width="1"/>
    <path id="ID0.8283360470086336" fill="#fff" d="M 19.444 64.810 L 19.444 55.117 L 20.634 55.117 L 20.634 58.595 C 21.190 57.951 21.891 57.629 22.737 57.629 C 23.257 57.629 23.709 57.732 24.093 57.937 C 24.476 58.142 24.751 58.425 24.916 58.787 C 25.081 59.148 25.164 59.673 25.164 60.360 L 25.164 64.810 L 23.974 64.810 L 23.974 60.360 C 23.974 59.765 23.845 59.332 23.587 59.061 C 23.329 58.790 22.964 58.654 22.492 58.654 C 22.140 58.654 21.808 58.746 21.497 58.929 C 21.186 59.112 20.965 59.360 20.833 59.673 C 20.700 59.986 20.634 60.418 20.634 60.969 L 20.634 64.810 L 19.444 64.810 Z " stroke-width="1"/>
    <path id="ID0.7391225029714406" fill="#fff" d="M 31.783 62.549 L 33.013 62.701 C 32.819 63.420 32.459 63.977 31.935 64.374 C 31.410 64.771 30.740 64.969 29.925 64.969 C 28.898 64.969 28.083 64.653 27.481 64.020 C 26.880 63.388 26.579 62.501 26.579 61.359 C 26.579 60.177 26.883 59.260 27.491 58.608 C 28.100 57.956 28.889 57.629 29.859 57.629 C 30.798 57.629 31.565 57.949 32.160 58.588 C 32.755 59.227 33.052 60.127 33.052 61.286 C 33.052 61.357 33.050 61.462 33.046 61.603 L 27.809 61.603 C 27.853 62.375 28.071 62.966 28.463 63.376 C 28.856 63.786 29.345 63.991 29.931 63.991 C 30.368 63.991 30.740 63.876 31.049 63.647 C 31.357 63.417 31.602 63.052 31.783 62.549 Z M 27.875 60.625 L 31.796 60.625 C 31.743 60.034 31.593 59.591 31.346 59.296 C 30.967 58.837 30.476 58.608 29.872 58.608 C 29.325 58.608 28.866 58.791 28.493 59.157 C 28.121 59.523 27.915 60.012 27.875 60.625 Z " stroke-width="1"/>
    <path id="ID0.12325920118018985" fill="#fff" d="M 34.494 64.810 L 34.494 57.788 L 35.565 57.788 L 35.565 58.853 C 35.838 58.355 36.091 58.026 36.322 57.867 C 36.554 57.709 36.808 57.629 37.086 57.629 C 37.487 57.629 37.895 57.757 38.309 58.013 L 37.899 59.117 C 37.608 58.945 37.317 58.859 37.026 58.859 C 36.766 58.859 36.533 58.938 36.325 59.094 C 36.118 59.251 35.971 59.468 35.882 59.745 C 35.750 60.169 35.684 60.631 35.684 61.134 L 35.684 64.810 L 34.494 64.810 Z " stroke-width="1"/>
    <path id="ID0.09675113065168262" fill="#fff" d="M 43.824 62.549 L 45.054 62.701 C 44.860 63.420 44.501 63.977 43.976 64.374 C 43.451 64.771 42.781 64.969 41.966 64.969 C 40.939 64.969 40.124 64.653 39.523 64.020 C 38.921 63.388 38.620 62.501 38.620 61.359 C 38.620 60.177 38.924 59.260 39.532 58.608 C 40.141 57.956 40.930 57.629 41.900 57.629 C 42.839 57.629 43.606 57.949 44.201 58.588 C 44.796 59.227 45.093 60.127 45.093 61.286 C 45.093 61.357 45.091 61.462 45.087 61.603 L 39.850 61.603 C 39.894 62.375 40.112 62.966 40.504 63.376 C 40.897 63.786 41.386 63.991 41.972 63.991 C 42.409 63.991 42.781 63.876 43.090 63.647 C 43.398 63.417 43.643 63.052 43.824 62.549 Z M 39.916 60.625 L 43.837 60.625 C 43.784 60.034 43.634 59.591 43.387 59.296 C 43.008 58.837 42.517 58.608 41.913 58.608 C 41.366 58.608 40.907 58.791 40.534 59.157 C 40.162 59.523 39.956 60.012 39.916 60.625 Z " stroke-width="1"/>
    <path id="ID0.4933413849212229" fill="#fff" d="M 51.607 64.810 L 49.458 57.788 L 50.687 57.788 L 51.805 61.842 L 52.222 63.349 C 52.239 63.274 52.360 62.791 52.585 61.901 L 53.703 57.788 L 54.926 57.788 L 55.977 61.861 L 56.328 63.204 L 56.731 61.848 L 57.935 57.788 L 59.092 57.788 L 56.896 64.810 L 55.660 64.810 L 54.542 60.605 L 54.271 59.408 L 52.850 64.810 L 51.607 64.810 Z " stroke-width="1"/>
    <path id="ID0.13780100410804152" fill="#fff" d="M 64.897 62.549 L 66.127 62.701 C 65.933 63.420 65.574 63.977 65.049 64.374 C 64.525 64.771 63.855 64.969 63.039 64.969 C 62.012 64.969 61.198 64.653 60.596 64.020 C 59.994 63.388 59.693 62.501 59.693 61.359 C 59.693 60.177 59.998 59.260 60.606 58.608 C 61.214 57.956 62.003 57.629 62.973 57.629 C 63.912 57.629 64.679 57.949 65.274 58.588 C 65.869 59.227 66.167 60.127 66.167 61.286 C 66.167 61.357 66.165 61.462 66.160 61.603 L 60.923 61.603 C 60.967 62.375 61.186 62.966 61.578 63.376 C 61.970 63.786 62.460 63.991 63.046 63.991 C 63.482 63.991 63.855 63.876 64.163 63.647 C 64.472 63.417 64.717 63.052 64.897 62.549 Z M 60.989 60.625 L 64.911 60.625 C 64.858 60.034 64.708 59.591 64.461 59.296 C 64.082 58.837 63.590 58.608 62.986 58.608 C 62.440 58.608 61.980 58.791 61.608 59.157 C 61.235 59.523 61.029 60.012 60.989 60.625 Z " stroke-width="1"/>
    <path id="ID0.5731584853492677" fill="#fff" d="M 67.608 64.810 L 67.608 57.788 L 68.680 57.788 L 68.680 58.853 C 68.953 58.355 69.205 58.026 69.437 57.867 C 69.668 57.709 69.923 57.629 70.200 57.629 C 70.602 57.629 71.009 57.757 71.424 58.013 L 71.014 59.117 C 70.723 58.945 70.432 58.859 70.141 58.859 C 69.881 58.859 69.647 58.938 69.440 59.094 C 69.233 59.251 69.085 59.468 68.997 59.745 C 68.865 60.169 68.799 60.631 68.799 61.134 L 68.799 64.810 L 67.608 64.810 Z " stroke-width="1"/>
    <path id="ID0.2999080792069435" fill="#fff" d="M 76.938 62.549 L 78.168 62.701 C 77.974 63.420 77.615 63.977 77.091 64.374 C 76.566 64.771 75.896 64.969 75.080 64.969 C 74.053 64.969 73.239 64.653 72.637 64.020 C 72.035 63.388 71.735 62.501 71.735 61.359 C 71.735 60.177 72.039 59.260 72.647 58.608 C 73.255 57.956 74.044 57.629 75.014 57.629 C 75.953 57.629 76.720 57.949 77.315 58.588 C 77.910 59.227 78.208 60.127 78.208 61.286 C 78.208 61.357 78.206 61.462 78.201 61.603 L 72.964 61.603 C 73.009 62.375 73.227 62.966 73.619 63.376 C 74.011 63.786 74.501 63.991 75.087 63.991 C 75.523 63.991 75.896 63.876 76.204 63.647 C 76.513 63.417 76.758 63.052 76.938 62.549 Z M 73.031 60.625 L 76.952 60.625 C 76.899 60.034 76.749 59.591 76.502 59.296 C 76.123 58.837 75.631 58.608 75.027 58.608 C 74.481 58.608 74.021 58.791 73.649 59.157 C 73.276 59.523 73.070 60.012 73.031 60.625 Z " stroke-width="1"/>
    <path id="ID0.9751055864617229" fill="#fff" d="M 83.425 64.810 L 83.425 57.788 L 84.496 57.788 L 84.496 58.787 C 85.012 58.015 85.757 57.629 86.731 57.629 C 87.155 57.629 87.544 57.705 87.898 57.858 C 88.253 58.010 88.519 58.209 88.695 58.456 C 88.872 58.703 88.995 58.996 89.065 59.335 C 89.110 59.556 89.132 59.942 89.132 60.493 L 89.132 64.810 L 87.941 64.810 L 87.941 60.539 C 87.941 60.054 87.895 59.691 87.803 59.451 C 87.710 59.211 87.546 59.019 87.310 58.876 C 87.074 58.733 86.797 58.661 86.480 58.661 C 85.973 58.661 85.536 58.822 85.167 59.144 C 84.799 59.465 84.615 60.076 84.615 60.975 L 84.615 64.810 L 83.425 64.810 Z " stroke-width="1"/>
    <path id="ID0.8283701026812196" fill="#fff" d="M 90.514 61.299 C 90.514 59.999 90.875 59.036 91.598 58.410 C 92.202 57.890 92.938 57.629 93.807 57.629 C 94.772 57.629 95.561 57.946 96.174 58.578 C 96.786 59.211 97.093 60.085 97.093 61.200 C 97.093 62.104 96.957 62.815 96.686 63.333 C 96.415 63.851 96.021 64.253 95.503 64.539 C 94.985 64.826 94.419 64.969 93.807 64.969 C 92.823 64.969 92.029 64.654 91.423 64.024 C 90.817 63.393 90.514 62.485 90.514 61.299 Z M 91.737 61.299 C 91.737 62.199 91.933 62.872 92.325 63.319 C 92.718 63.767 93.211 63.991 93.807 63.991 C 94.397 63.991 94.889 63.766 95.281 63.316 C 95.673 62.866 95.870 62.181 95.870 61.260 C 95.870 60.391 95.672 59.733 95.278 59.286 C 94.883 58.838 94.393 58.615 93.807 58.615 C 93.211 58.615 92.718 58.837 92.325 59.283 C 91.933 59.728 91.737 60.400 91.737 61.299 Z " stroke-width="1"/>
    <path id="ID0.04372819000855088" fill="#fff" d="M 102.237 64.810 L 102.237 57.788 L 103.308 57.788 L 103.308 58.853 C 103.582 58.355 103.834 58.026 104.066 57.867 C 104.297 57.709 104.552 57.629 104.829 57.629 C 105.230 57.629 105.638 57.757 106.053 58.013 L 105.643 59.117 C 105.352 58.945 105.061 58.859 104.770 58.859 C 104.510 58.859 104.276 58.938 104.069 59.094 C 103.862 59.251 103.714 59.468 103.626 59.745 C 103.494 60.169 103.427 60.631 103.427 61.134 L 103.427 64.810 L 102.237 64.810 Z " stroke-width="1"/>
    <path id="ID0.9281097198836505" fill="#fff" d="M 111.567 62.549 L 112.797 62.701 C 112.603 63.420 112.244 63.977 111.719 64.374 C 111.195 64.771 110.525 64.969 109.709 64.969 C 108.682 64.969 107.868 64.653 107.266 64.020 C 106.664 63.388 106.363 62.501 106.363 61.359 C 106.363 60.177 106.668 59.260 107.276 58.608 C 107.884 57.956 108.673 57.629 109.643 57.629 C 110.582 57.629 111.349 57.949 111.944 58.588 C 112.539 59.227 112.837 60.127 112.837 61.286 C 112.837 61.357 112.835 61.462 112.830 61.603 L 107.593 61.603 C 107.637 62.375 107.856 62.966 108.248 63.376 C 108.640 63.786 109.130 63.991 109.716 63.991 C 110.152 63.991 110.525 63.876 110.833 63.647 C 111.142 63.417 111.387 63.052 111.567 62.549 Z M 107.659 60.625 L 111.580 60.625 C 111.528 60.034 111.378 59.591 111.131 59.296 C 110.752 58.837 110.260 58.608 109.656 58.608 C 109.110 58.608 108.650 58.791 108.278 59.157 C 107.905 59.523 107.699 60.012 107.659 60.625 Z " stroke-width="1"/>
    <path id="ID0.42525963904336095" fill="#fff" d="M 113.815 62.714 L 114.992 62.529 C 115.059 63.001 115.243 63.362 115.545 63.614 C 115.847 63.865 116.269 63.991 116.811 63.991 C 117.357 63.991 117.763 63.879 118.028 63.657 C 118.292 63.434 118.424 63.173 118.424 62.873 C 118.424 62.604 118.307 62.393 118.074 62.238 C 117.911 62.132 117.505 61.998 116.857 61.835 C 115.984 61.614 115.379 61.424 115.042 61.263 C 114.705 61.102 114.449 60.879 114.275 60.595 C 114.101 60.311 114.014 59.997 114.014 59.653 C 114.014 59.340 114.085 59.050 114.229 58.783 C 114.372 58.517 114.567 58.295 114.814 58.119 C 114.999 57.982 115.251 57.866 115.571 57.772 C 115.891 57.677 116.233 57.629 116.599 57.629 C 117.150 57.629 117.634 57.709 118.051 57.867 C 118.467 58.026 118.775 58.241 118.973 58.512 C 119.171 58.783 119.308 59.146 119.383 59.600 L 118.219 59.759 C 118.166 59.397 118.013 59.115 117.760 58.912 C 117.506 58.709 117.148 58.608 116.685 58.608 C 116.139 58.608 115.748 58.698 115.515 58.879 C 115.281 59.060 115.164 59.272 115.164 59.514 C 115.164 59.668 115.213 59.807 115.310 59.931 C 115.407 60.058 115.559 60.164 115.766 60.248 C 115.885 60.292 116.236 60.393 116.817 60.552 C 117.659 60.777 118.247 60.961 118.580 61.104 C 118.912 61.248 119.174 61.456 119.363 61.729 C 119.553 62.002 119.648 62.342 119.648 62.747 C 119.648 63.144 119.532 63.518 119.300 63.868 C 119.069 64.219 118.735 64.490 118.299 64.682 C 117.862 64.873 117.368 64.969 116.817 64.969 C 115.905 64.969 115.210 64.780 114.731 64.400 C 114.253 64.021 113.948 63.459 113.815 62.714 Z " stroke-width="1"/>
    <path id="ID0.2141121388413012" fill="#fff" d="M 125.665 64.810 L 125.665 63.779 C 125.118 64.572 124.375 64.969 123.436 64.969 C 123.022 64.969 122.635 64.890 122.276 64.731 C 121.917 64.572 121.650 64.373 121.476 64.133 C 121.302 63.892 121.179 63.598 121.109 63.250 C 121.060 63.016 121.036 62.646 121.036 62.139 L 121.036 57.788 L 122.226 57.788 L 122.226 61.683 C 122.226 62.304 122.251 62.723 122.299 62.939 C 122.374 63.252 122.533 63.498 122.775 63.676 C 123.018 63.855 123.317 63.944 123.674 63.944 C 124.032 63.944 124.367 63.853 124.680 63.670 C 124.993 63.487 125.214 63.238 125.344 62.923 C 125.474 62.607 125.539 62.150 125.539 61.551 L 125.539 57.788 L 126.729 57.788 L 126.729 64.810 L 125.665 64.810 Z " stroke-width="1"/>
    <path id="ID0.5453094583936036" fill="#fff" d="M 128.568 55.117 L 129.758 55.117 L 129.758 64.811 L 128.568 64.811 L 128.568 55.117 Z " stroke-width="1"/>
    <path id="ID0.09666687622666359" fill="#fff" d="M 134.201 63.746 L 134.373 64.797 C 134.038 64.868 133.738 64.903 133.474 64.903 C 133.042 64.903 132.707 64.835 132.469 64.698 C 132.231 64.561 132.063 64.382 131.966 64.159 C 131.869 63.937 131.821 63.468 131.821 62.754 L 131.821 58.714 L 130.948 58.714 L 130.948 57.788 L 131.821 57.788 L 131.821 56.049 L 133.004 55.335 L 133.004 57.788 L 134.201 57.788 L 134.201 58.714 L 133.004 58.714 L 133.004 62.820 C 133.004 63.160 133.025 63.378 133.067 63.475 C 133.109 63.572 133.177 63.649 133.272 63.706 C 133.367 63.764 133.503 63.792 133.679 63.792 C 133.811 63.792 133.985 63.777 134.201 63.746 Z " stroke-width="1"/>
    <path id="ID0.8231188850477338" fill="#fff" d="M 134.889 62.714 L 136.066 62.529 C 136.132 63.001 136.316 63.362 136.618 63.614 C 136.920 63.865 137.342 63.991 137.884 63.991 C 138.431 63.991 138.837 63.879 139.101 63.657 C 139.366 63.434 139.498 63.173 139.498 62.873 C 139.498 62.604 139.381 62.393 139.147 62.238 C 138.984 62.132 138.579 61.998 137.931 61.835 C 137.058 61.614 136.453 61.424 136.116 61.263 C 135.778 61.102 135.523 60.879 135.349 60.595 C 135.174 60.311 135.087 59.997 135.087 59.653 C 135.087 59.340 135.159 59.050 135.302 58.783 C 135.446 58.517 135.641 58.295 135.887 58.119 C 136.073 57.982 136.325 57.866 136.645 57.772 C 136.964 57.677 137.307 57.629 137.673 57.629 C 138.224 57.629 138.708 57.709 139.124 57.867 C 139.541 58.026 139.848 58.241 140.047 58.512 C 140.245 58.783 140.382 59.146 140.457 59.600 L 139.293 59.759 C 139.240 59.397 139.087 59.115 138.833 58.912 C 138.580 58.709 138.222 58.608 137.759 58.608 C 137.212 58.608 136.822 58.698 136.588 58.879 C 136.355 59.060 136.238 59.272 136.238 59.514 C 136.238 59.668 136.286 59.807 136.383 59.931 C 136.480 60.058 136.632 60.164 136.840 60.248 C 136.959 60.292 137.309 60.393 137.891 60.552 C 138.733 60.777 139.320 60.961 139.653 61.104 C 139.986 61.248 140.247 61.456 140.437 61.729 C 140.626 62.002 140.721 62.342 140.721 62.747 C 140.721 63.144 140.605 63.518 140.374 63.868 C 140.142 64.219 139.809 64.490 139.372 64.682 C 138.936 64.873 138.442 64.969 137.891 64.969 C 136.978 64.969 136.283 64.780 135.805 64.400 C 135.326 64.021 135.021 63.459 134.889 62.714 Z " stroke-width="1"/>
    <path id="ID0.6356104472652078" fill="#fff" d="M 145.456 61.299 C 145.456 59.999 145.817 59.036 146.540 58.410 C 147.144 57.890 147.880 57.629 148.748 57.629 C 149.714 57.629 150.503 57.946 151.116 58.578 C 151.728 59.211 152.035 60.085 152.035 61.200 C 152.035 62.104 151.899 62.815 151.628 63.333 C 151.357 63.851 150.962 64.253 150.445 64.539 C 149.927 64.826 149.361 64.969 148.748 64.969 C 147.765 64.969 146.971 64.654 146.365 64.024 C 145.759 63.393 145.456 62.485 145.456 61.299 Z M 146.679 61.299 C 146.679 62.199 146.875 62.872 147.267 63.319 C 147.660 63.767 148.153 63.991 148.748 63.991 C 149.339 63.991 149.831 63.766 150.223 63.316 C 150.615 62.866 150.811 62.181 150.811 61.260 C 150.811 60.391 150.614 59.733 150.220 59.286 C 149.825 58.838 149.335 58.615 148.748 58.615 C 148.153 58.615 147.660 58.837 147.267 59.283 C 146.875 59.728 146.679 60.400 146.679 61.299 Z " stroke-width="1"/>
    <path id="ID0.17648613126948476" fill="#fff" d="M 153.430 64.810 L 153.430 57.788 L 154.501 57.788 L 154.501 58.787 C 155.017 58.015 155.762 57.629 156.736 57.629 C 157.159 57.629 157.548 57.705 157.903 57.858 C 158.258 58.010 158.524 58.209 158.700 58.456 C 158.876 58.703 159.000 58.996 159.070 59.335 C 159.114 59.556 159.136 59.942 159.136 60.493 L 159.136 64.810 L 157.946 64.810 L 157.946 60.539 C 157.946 60.054 157.900 59.691 157.807 59.451 C 157.715 59.211 157.551 59.019 157.315 58.876 C 157.079 58.733 156.802 58.661 156.485 58.661 C 155.978 58.661 155.540 58.822 155.172 59.144 C 154.804 59.465 154.620 60.076 154.620 60.975 L 154.620 64.810 L 153.430 64.810 Z " stroke-width="1"/>
    <path id="ID0.516556890681386" fill="#fff" d="M 167.323 63.746 L 167.494 64.797 C 167.159 64.868 166.860 64.903 166.595 64.903 C 166.163 64.903 165.828 64.835 165.590 64.698 C 165.352 64.561 165.185 64.382 165.088 64.159 C 164.991 63.937 164.942 63.468 164.942 62.754 L 164.942 58.714 L 164.069 58.714 L 164.069 57.788 L 164.942 57.788 L 164.942 56.049 L 166.126 55.335 L 166.126 57.788 L 167.323 57.788 L 167.323 58.714 L 166.126 58.714 L 166.126 62.820 C 166.126 63.160 166.147 63.378 166.188 63.475 C 166.230 63.572 166.299 63.649 166.393 63.706 C 166.488 63.764 166.624 63.792 166.800 63.792 C 166.932 63.792 167.107 63.777 167.323 63.746 Z " stroke-width="1"/>
    <path id="ID0.9933098996989429" fill="#fff" d="M 168.486 64.810 L 168.486 55.117 L 169.677 55.117 L 169.677 58.595 C 170.232 57.951 170.933 57.629 171.779 57.629 C 172.299 57.629 172.751 57.732 173.135 57.937 C 173.518 58.142 173.793 58.425 173.958 58.787 C 174.123 59.148 174.206 59.673 174.206 60.360 L 174.206 64.810 L 173.016 64.810 L 173.016 60.360 C 173.016 59.765 172.887 59.332 172.629 59.061 C 172.371 58.790 172.006 58.654 171.535 58.654 C 171.182 58.654 170.850 58.746 170.539 58.929 C 170.229 59.112 170.007 59.360 169.875 59.673 C 169.743 59.986 169.677 60.418 169.677 60.969 L 169.677 64.810 L 168.486 64.810 Z " stroke-width="1"/>
    <path id="ID0.6172390491701663" fill="#fff" d="M 180.600 63.944 C 180.159 64.319 179.735 64.583 179.327 64.738 C 178.919 64.892 178.482 64.969 178.015 64.969 C 177.243 64.969 176.650 64.781 176.236 64.404 C 175.822 64.027 175.614 63.545 175.614 62.959 C 175.614 62.615 175.693 62.301 175.849 62.017 C 176.006 61.732 176.211 61.504 176.464 61.332 C 176.718 61.160 177.003 61.030 177.320 60.942 C 177.554 60.881 177.907 60.821 178.378 60.764 C 179.339 60.649 180.047 60.512 180.501 60.354 C 180.505 60.191 180.508 60.087 180.508 60.043 C 180.508 59.558 180.395 59.216 180.170 59.018 C 179.866 58.749 179.414 58.615 178.815 58.615 C 178.255 58.615 177.842 58.713 177.575 58.909 C 177.308 59.105 177.111 59.452 176.983 59.950 L 175.819 59.792 C 175.925 59.294 176.099 58.891 176.342 58.585 C 176.584 58.279 176.935 58.043 177.393 57.877 C 177.852 57.712 178.383 57.629 178.987 57.629 C 179.586 57.629 180.073 57.700 180.448 57.841 C 180.823 57.982 181.098 58.160 181.275 58.373 C 181.451 58.587 181.574 58.857 181.645 59.183 C 181.685 59.386 181.704 59.752 181.704 60.281 L 181.704 61.868 C 181.704 62.974 181.730 63.674 181.780 63.967 C 181.831 64.261 181.931 64.542 182.081 64.810 L 180.838 64.810 C 180.715 64.564 180.635 64.275 180.600 63.944 Z M 180.501 61.286 C 180.069 61.462 179.421 61.612 178.557 61.736 C 178.068 61.806 177.722 61.886 177.519 61.974 C 177.316 62.062 177.159 62.191 177.049 62.361 C 176.939 62.530 176.884 62.719 176.884 62.926 C 176.884 63.243 177.004 63.508 177.244 63.719 C 177.485 63.931 177.836 64.037 178.299 64.037 C 178.757 64.037 179.165 63.937 179.522 63.736 C 179.879 63.535 180.142 63.261 180.309 62.913 C 180.437 62.644 180.501 62.247 180.501 61.722 L 180.501 61.286 Z " stroke-width="1"/>
    <path id="ID0.9156125243753195" fill="#fff" d="M 186.148 63.746 L 186.320 64.797 C 185.985 64.868 185.685 64.903 185.420 64.903 C 184.988 64.903 184.653 64.835 184.415 64.698 C 184.177 64.561 184.010 64.382 183.913 64.159 C 183.816 63.937 183.767 63.468 183.767 62.754 L 183.767 58.714 L 182.895 58.714 L 182.895 57.788 L 183.767 57.788 L 183.767 56.049 L 184.951 55.335 L 184.951 57.788 L 186.148 57.788 L 186.148 58.714 L 184.951 58.714 L 184.951 62.820 C 184.951 63.160 184.972 63.378 185.014 63.475 C 185.056 63.572 185.124 63.649 185.219 63.706 C 185.314 63.764 185.449 63.792 185.625 63.792 C 185.758 63.792 185.932 63.777 186.148 63.746 Z " stroke-width="1"/>
    <path id="ID0.12451118789613247" fill="#fff" d="M 190.598 62.714 L 191.775 62.529 C 191.841 63.001 192.025 63.362 192.327 63.614 C 192.629 63.865 193.051 63.991 193.593 63.991 C 194.140 63.991 194.546 63.879 194.810 63.657 C 195.074 63.434 195.207 63.173 195.207 62.873 C 195.207 62.604 195.090 62.393 194.856 62.238 C 194.693 62.132 194.288 61.998 193.640 61.835 C 192.767 61.614 192.162 61.424 191.825 61.263 C 191.487 61.102 191.232 60.879 191.058 60.595 C 190.883 60.311 190.796 59.997 190.796 59.653 C 190.796 59.340 190.868 59.050 191.011 58.783 C 191.154 58.517 191.350 58.295 191.596 58.119 C 191.782 57.982 192.034 57.866 192.354 57.772 C 192.673 57.677 193.016 57.629 193.382 57.629 C 193.933 57.629 194.417 57.709 194.833 57.867 C 195.250 58.026 195.557 58.241 195.756 58.512 C 195.954 58.783 196.091 59.146 196.166 59.600 L 195.002 59.759 C 194.949 59.397 194.796 59.115 194.542 58.912 C 194.289 58.709 193.931 58.608 193.468 58.608 C 192.921 58.608 192.531 58.698 192.297 58.879 C 192.064 59.060 191.947 59.272 191.947 59.514 C 191.947 59.668 191.995 59.807 192.092 59.931 C 192.189 60.058 192.341 60.164 192.549 60.248 C 192.668 60.292 193.018 60.393 193.600 60.552 C 194.442 60.777 195.029 60.961 195.362 61.104 C 195.695 61.248 195.956 61.456 196.146 61.729 C 196.335 62.002 196.430 62.342 196.430 62.747 C 196.430 63.144 196.314 63.518 196.083 63.868 C 195.851 64.219 195.518 64.490 195.081 64.682 C 194.645 64.873 194.151 64.969 193.600 64.969 C 192.687 64.969 191.992 64.780 191.514 64.400 C 191.035 64.021 190.730 63.459 190.598 62.714 Z " stroke-width="1"/>
    <path id="ID0.8349217348732054" fill="#fff" d="M 202.652 62.549 L 203.882 62.701 C 203.688 63.420 203.329 63.977 202.804 64.374 C 202.280 64.771 201.610 64.969 200.794 64.969 C 199.767 64.969 198.953 64.653 198.351 64.020 C 197.749 63.388 197.448 62.501 197.448 61.359 C 197.448 60.177 197.752 59.260 198.361 58.608 C 198.969 57.956 199.758 57.629 200.728 57.629 C 201.667 57.629 202.434 57.949 203.029 58.588 C 203.624 59.227 203.922 60.127 203.922 61.286 C 203.922 61.357 203.920 61.462 203.915 61.603 L 198.678 61.603 C 198.722 62.375 198.941 62.966 199.333 63.376 C 199.725 63.786 200.214 63.991 200.801 63.991 C 201.237 63.991 201.610 63.876 201.918 63.647 C 202.227 63.417 202.472 63.052 202.652 62.549 Z M 198.744 60.625 L 202.665 60.625 C 202.613 60.034 202.463 59.591 202.216 59.296 C 201.837 58.837 201.345 58.608 200.741 58.608 C 200.195 58.608 199.735 58.791 199.363 59.157 C 198.990 59.523 198.784 60.012 198.744 60.625 Z " stroke-width="1"/>
    <path id="ID0.4361514491029084" fill="#fff" d="M 209.959 63.944 C 209.518 64.319 209.094 64.583 208.686 64.738 C 208.278 64.892 207.841 64.969 207.373 64.969 C 206.602 64.969 206.009 64.781 205.595 64.404 C 205.180 64.027 204.973 63.545 204.973 62.959 C 204.973 62.615 205.051 62.301 205.208 62.017 C 205.364 61.732 205.569 61.504 205.823 61.332 C 206.076 61.160 206.362 61.030 206.679 60.942 C 206.913 60.881 207.265 60.821 207.737 60.764 C 208.698 60.649 209.406 60.512 209.860 60.354 C 209.864 60.191 209.866 60.087 209.866 60.043 C 209.866 59.558 209.754 59.216 209.529 59.018 C 209.225 58.749 208.773 58.615 208.174 58.615 C 207.614 58.615 207.200 58.713 206.934 58.909 C 206.667 59.105 206.470 59.452 206.342 59.950 L 205.178 59.792 C 205.284 59.294 205.458 58.891 205.701 58.585 C 205.943 58.279 206.293 58.043 206.752 57.877 C 207.210 57.712 207.742 57.629 208.345 57.629 C 208.945 57.629 209.432 57.700 209.807 57.841 C 210.181 57.982 210.457 58.160 210.633 58.373 C 210.810 58.587 210.933 58.857 211.004 59.183 C 211.043 59.386 211.063 59.752 211.063 60.281 L 211.063 61.868 C 211.063 62.974 211.088 63.674 211.139 63.967 C 211.190 64.261 211.290 64.542 211.440 64.810 L 210.197 64.810 C 210.073 64.564 209.994 64.275 209.959 63.944 Z M 209.860 61.286 C 209.428 61.462 208.780 61.612 207.916 61.736 C 207.426 61.806 207.080 61.886 206.878 61.974 C 206.675 62.062 206.518 62.191 206.408 62.361 C 206.298 62.530 206.243 62.719 206.243 62.926 C 206.243 63.243 206.363 63.508 206.603 63.719 C 206.843 63.931 207.195 64.037 207.658 64.037 C 208.116 64.037 208.524 63.937 208.881 63.736 C 209.238 63.535 209.500 63.261 209.668 62.913 C 209.796 62.644 209.860 62.247 209.860 61.722 L 209.860 61.286 Z " stroke-width="1"/>
    <path id="ID0.3735030312091112" fill="#fff" d="M 212.895 64.810 L 212.895 57.788 L 213.966 57.788 L 213.966 58.853 C 214.239 58.355 214.492 58.026 214.723 57.867 C 214.954 57.709 215.209 57.629 215.487 57.629 C 215.888 57.629 216.296 57.757 216.710 58.013 L 216.300 59.117 C 216.009 58.945 215.718 58.859 215.427 58.859 C 215.167 58.859 214.934 58.938 214.726 59.094 C 214.519 59.251 214.372 59.468 214.283 59.745 C 214.151 60.169 214.085 60.631 214.085 61.134 L 214.085 64.810 L 212.895 64.810 Z " stroke-width="1"/>
    <path id="ID0.07803066074848175" fill="#fff" d="M 222 62.238 L 223.170 62.390 C 223.042 63.197 222.715 63.829 222.188 64.285 C 221.662 64.741 221.015 64.969 220.248 64.969 C 219.287 64.969 218.514 64.655 217.930 64.027 C 217.346 63.399 217.054 62.498 217.054 61.326 C 217.054 60.568 217.180 59.904 217.431 59.335 C 217.682 58.767 218.065 58.340 218.578 58.056 C 219.092 57.772 219.650 57.629 220.254 57.629 C 221.017 57.629 221.641 57.822 222.126 58.208 C 222.610 58.594 222.921 59.141 223.058 59.851 L 221.901 60.030 C 221.791 59.558 221.595 59.203 221.316 58.965 C 221.036 58.727 220.697 58.608 220.301 58.608 C 219.701 58.608 219.214 58.823 218.839 59.253 C 218.465 59.683 218.277 60.363 218.277 61.293 C 218.277 62.236 218.458 62.922 218.819 63.349 C 219.181 63.777 219.653 63.991 220.234 63.991 C 220.702 63.991 221.092 63.847 221.405 63.561 C 221.718 63.274 221.916 62.833 222.000 62.238 Z " stroke-width="1"/>
    <path id="ID0.5262510627508163" fill="#fff" d="M 224.189 64.810 L 224.189 55.117 L 225.379 55.117 L 225.379 58.595 C 225.934 57.951 226.635 57.629 227.482 57.629 C 228.002 57.629 228.454 57.732 228.837 57.937 C 229.221 58.142 229.495 58.425 229.660 58.787 C 229.826 59.148 229.908 59.673 229.908 60.360 L 229.908 64.810 L 228.718 64.810 L 228.718 60.360 C 228.718 59.765 228.589 59.332 228.331 59.061 C 228.073 58.790 227.709 58.654 227.237 58.654 C 226.884 58.654 226.553 58.746 226.242 58.929 C 225.931 59.112 225.709 59.360 225.577 59.673 C 225.445 59.986 225.379 60.418 225.379 60.969 L 225.379 64.810 L 224.189 64.810 Z " stroke-width="1"/>
  </g>
</svg>