<svg version="1.1" width="36.672000885009766" height="36.69900131225586" viewBox="-0.171999990940094 -0.5 36.672000885009766 36.69900131225586" xmlns="http://www.w3.org/2000/svg" xmlns:xlink="http://www.w3.org/1999/xlink">
  <defs>
    <linearGradient id="grad_1" x1="0" y1="0" x2="1" y2="0" gradientUnits="userSpaceOnUse">
      <stop offset="0" stop-color="#808080" stop-opacity="1"/>
      <stop offset="1" stop-color="#b3b3b3" stop-opacity="1"/>
    </linearGradient>
  <linearGradient id="grad_1-1.8369701465288538e-16,1,1,1.8369701465288538e-16,0,-12" x1="0" y1="-12" x2="0" y2="-11" gradientUnits="userSpaceOnUse">
      <stop offset="0" stop-color="#808080" stop-opacity="1"/>
      <stop offset="1" stop-color="#b3b3b3" stop-opacity="1"/>
    </linearGradient></defs>
  <!-- Exported by Scratch - http://scratch.mit.edu/ -->
  <path id="Basic Block" fill="url(#grad_1-1.8369701465288538e-16,1,1,1.8369701465288538e-16,0,-12)" d="M 12 0 L 12 24 L 36 24 L 36 0 L 12 0 Z " stroke-width="1"/>
  <path id="ID0.5868475032038987" fill="#808080" d="M 36 24 L 12 24 L 12 0 L 36 0 L 36 24 Z M 13.389 1.389 L 13.389 22.611 L 34.611 22.611 L 34.611 1.389 L 13.389 1.389 Z " stroke-width="1"/>
  <path id="ID0.1779211200773716" fill="#f00" d="M 24 35.699 L 21.878 21.733 L 26.122 21.733 L 24 35.699 Z " stroke-width="1"/>
  <path id="ID0.8954716697335243" fill="#f00" d="M 0.328 12 L 14.293 9.878 L 14.293 14.122 L 0.328 12 Z " stroke-width="1"/>
  <g id="Cannon">
    <path id="ID0.4729808117263019" fill="#555" d="M 27.857 5.314 L 20.143 5.314 L 21.159 2.283 L 26.841 2.283 L 27.857 5.314 Z " stroke-width="1"/>
    <path id="ID0.8567346855998039" fill="#39393e" d="M 20.143 5.314 L 27.857 5.314 L 24 18.686 L 20.143 5.314 Z " stroke-width="1"/>
    <path id="ID0.7988140247762203" fill="#555" d="M 30.686 15.857 L 30.686 8.143 L 33.717 9.159 L 33.717 14.841 L 30.686 15.857 Z " stroke-width="1"/>
    <path id="ID0.7052570795640349" fill="#39393e" d="M 30.686 8.143 L 30.686 15.857 L 17.474 12 L 30.686 8.143 Z " stroke-width="1"/>
    <path id="ID0.657986578065902" fill="#555" d="M 20.143 18.686 L 27.857 18.686 L 26.841 21.717 L 21.159 21.717 L 20.143 18.686 Z " stroke-width="1"/>
    <path id="ID0.13710103183984756" fill="#39393e" d="M 27.857 18.686 L 20.143 18.686 L 24 5.314 L 27.857 18.686 Z " stroke-width="1"/>
    <path id="ID0.2686081980355084" fill="#555" d="M 17.314 8.143 L 17.314 15.857 L 14.283 14.841 L 14.283 9.159 L 17.314 8.143 Z " stroke-width="1"/>
    <path id="ID0.29574837628751993" fill="#39393e" d="M 17.314 15.857 L 17.314 8.143 L 30.686 12 L 17.314 15.857 Z " stroke-width="1"/>
    <path id="ID0.44896237924695015" fill="none" stroke="#f00" stroke-width="1" d="M 20.505 12 L 24 8.474 L 27.495 12 L 24 15.526 L 20.505 12 Z "/>
  </g>
</svg>