<svg width="113.36400604248047" height="14.907999992370605" viewBox="-0.5000052452087402 -0.5 113.36400604248047 14.907999992370605" version="1.1" xmlns="http://www.w3.org/2000/svg" xmlns:xlink="http://www.w3.org/1999/xlink" xml:space="preserve" style="fill-rule:evenodd;clip-rule:evenodd;stroke-linejoin:round;stroke-miterlimit:1.41421;"><g id="1"><path d="M112.364,6.954c0,-3.838 -3.116,-6.954 -6.954,-6.954l-98.456,0c-3.838,0 -6.954,3.116 -6.954,6.954c0,3.838 3.116,6.954 6.954,6.954l98.456,0c3.838,0 6.954,-3.116 6.954,-6.954Z" style="fill:#9fd3ff;" stroke-width="1"/><path d="M5.766,10.156l0,-5.923l0.784,0l0,2.432l3.079,0l0,-2.432l0.783,0l0,5.923l-0.783,0l0,-2.792l-3.079,0l0,2.792l-0.784,0Z" style="fill:#fff;fill-rule:nonzero;" stroke-width="1"/><path d="M11.354,8.01c0,-0.794 0.221,-1.383 0.662,-1.765c0.369,-0.318 0.819,-0.477 1.35,-0.477c0.59,0 1.072,0.193 1.446,0.58c0.375,0.386 0.562,0.92 0.562,1.602c0,0.552 -0.083,0.986 -0.248,1.303c-0.166,0.316 -0.407,0.562 -0.724,0.737c-0.316,0.175 -0.662,0.263 -1.036,0.263c-0.601,0 -1.086,-0.193 -1.457,-0.578c-0.37,-0.385 -0.555,-0.94 -0.555,-1.665ZM12.101,8.01c0,0.55 0.12,0.961 0.36,1.235c0.24,0.273 0.541,0.41 0.905,0.41c0.361,0 0.661,-0.137 0.901,-0.412c0.24,-0.275 0.36,-0.694 0.36,-1.257c0,-0.53 -0.121,-0.932 -0.362,-1.206c-0.241,-0.273 -0.541,-0.41 -0.899,-0.41c-0.364,0 -0.665,0.136 -0.905,0.408c-0.24,0.272 -0.36,0.683 -0.36,1.232Z" style="fill:#fff;fill-rule:nonzero;" stroke-width="1"/><rect x="16.21" y="4.233" width="0.727" height="5.923" style="fill:#fff;fill-rule:nonzero;" stroke-width="1"/><path d="M18.033,11.808l-0.081,-0.682c0.159,0.043 0.298,0.064 0.416,0.064c0.162,0 0.291,-0.027 0.388,-0.081c0.097,-0.053 0.176,-0.129 0.238,-0.226c0.046,-0.073 0.12,-0.253 0.223,-0.541c0.013,-0.041 0.035,-0.1 0.064,-0.178l-1.628,-4.299l0.784,0l0.893,2.485c0.116,0.315 0.219,0.646 0.311,0.994c0.083,-0.334 0.183,-0.66 0.299,-0.978l0.917,-2.501l0.727,0l-1.632,4.364c-0.175,0.471 -0.311,0.796 -0.408,0.973c-0.129,0.24 -0.278,0.416 -0.445,0.528c-0.167,0.111 -0.366,0.167 -0.598,0.167c-0.14,0 -0.296,-0.029 -0.468,-0.089Z" style="fill:#fff;fill-rule:nonzero;" stroke-width="1"/><path d="M27.302,8.584l0.715,0.093c-0.078,0.493 -0.278,0.879 -0.6,1.158c-0.322,0.279 -0.718,0.418 -1.186,0.418c-0.587,0 -1.059,-0.192 -1.416,-0.576c-0.357,-0.384 -0.536,-0.934 -0.536,-1.65c0,-0.464 0.077,-0.869 0.231,-1.217c0.153,-0.347 0.387,-0.608 0.701,-0.781c0.313,-0.174 0.655,-0.261 1.024,-0.261c0.466,0 0.847,0.118 1.143,0.354c0.297,0.235 0.486,0.57 0.57,1.004l-0.707,0.109c-0.067,-0.289 -0.187,-0.505 -0.358,-0.651c-0.171,-0.145 -0.377,-0.218 -0.62,-0.218c-0.366,0 -0.664,0.131 -0.893,0.394c-0.229,0.263 -0.343,0.678 -0.343,1.246c0,0.577 0.11,0.996 0.331,1.257c0.221,0.261 0.509,0.392 0.865,0.392c0.285,0 0.524,-0.088 0.715,-0.263c0.191,-0.175 0.312,-0.444 0.364,-0.808Z" style="fill:#fff;fill-rule:nonzero;" stroke-width="1"/><path d="M31.451,10.156l0,-0.63c-0.334,0.484 -0.788,0.727 -1.362,0.727c-0.253,0 -0.489,-0.049 -0.709,-0.146c-0.219,-0.097 -0.382,-0.218 -0.489,-0.365c-0.106,-0.147 -0.181,-0.327 -0.224,-0.54c-0.029,-0.142 -0.044,-0.369 -0.044,-0.678l0,-2.659l0.727,0l0,2.38c0,0.38 0.015,0.635 0.044,0.767c0.046,0.192 0.143,0.342 0.291,0.451c0.149,0.109 0.332,0.164 0.55,0.164c0.218,0 0.423,-0.056 0.614,-0.168c0.191,-0.112 0.327,-0.264 0.406,-0.457c0.08,-0.192 0.119,-0.472 0.119,-0.838l0,-2.299l0.728,0l0,4.291l-0.651,0Z" style="fill:#fff;fill-rule:nonzero;" stroke-width="1"/><path d="M33.233,10.156l0,-4.291l0.654,0l0,0.65c0.167,-0.304 0.322,-0.505 0.463,-0.602c0.141,-0.097 0.297,-0.145 0.467,-0.145c0.245,0 0.494,0.078 0.747,0.234l-0.25,0.675c-0.178,-0.105 -0.356,-0.157 -0.534,-0.157c-0.159,0 -0.301,0.047 -0.428,0.143c-0.126,0.096 -0.217,0.228 -0.271,0.398c-0.08,0.259 -0.121,0.541 -0.121,0.848l0,2.247l-0.727,0Z" style="fill:#fff;fill-rule:nonzero;" stroke-width="1"/><path d="M35.988,10.156l0,-4.291l0.655,0l0,0.65c0.167,-0.304 0.321,-0.505 0.463,-0.602c0.141,-0.097 0.297,-0.145 0.466,-0.145c0.245,0 0.495,0.078 0.748,0.234l-0.251,0.675c-0.177,-0.105 -0.355,-0.157 -0.533,-0.157c-0.159,0 -0.302,0.047 -0.428,0.143c-0.127,0.096 -0.217,0.228 -0.271,0.398c-0.081,0.259 -0.121,0.541 -0.121,0.848l0,2.247l-0.728,0Z" style="fill:#fff;fill-rule:nonzero;" stroke-width="1"/><path d="M38.72,11.808l-0.081,-0.682c0.159,0.043 0.298,0.064 0.416,0.064c0.162,0 0.291,-0.027 0.388,-0.081c0.097,-0.053 0.177,-0.129 0.238,-0.226c0.046,-0.073 0.12,-0.253 0.223,-0.541c0.013,-0.041 0.035,-0.1 0.064,-0.178l-1.628,-4.299l0.784,0l0.893,2.485c0.116,0.315 0.219,0.646 0.311,0.994c0.083,-0.334 0.183,-0.66 0.299,-0.978l0.917,-2.501l0.727,0l-1.632,4.364c-0.175,0.471 -0.311,0.796 -0.408,0.973c-0.129,0.24 -0.277,0.416 -0.444,0.528c-0.167,0.111 -0.367,0.167 -0.598,0.167c-0.141,0 -0.297,-0.029 -0.469,-0.089Z" style="fill:#fff;fill-rule:nonzero;" stroke-width="1"/><path d="M42.465,10.156l0,-0.828l0.829,0l0,0.828c0,0.304 -0.054,0.55 -0.162,0.737c-0.108,0.188 -0.279,0.332 -0.513,0.435l-0.202,-0.311c0.153,-0.068 0.267,-0.167 0.339,-0.297c0.073,-0.131 0.113,-0.319 0.121,-0.564l-0.412,0Z" style="fill:#fff;fill-rule:nonzero;" stroke-width="1"/><path d="M48.461,9.505l0.105,0.643c-0.204,0.043 -0.387,0.064 -0.549,0.064c-0.264,0 -0.469,-0.041 -0.614,-0.125c-0.146,-0.083 -0.248,-0.193 -0.307,-0.329c-0.06,-0.136 -0.089,-0.422 -0.089,-0.859l0,-2.468l-0.534,0l0,-0.566l0.534,0l0,-1.063l0.723,-0.436l0,1.499l0.731,0l0,0.566l-0.731,0l0,2.509c0,0.207 0.013,0.34 0.038,0.4c0.026,0.059 0.068,0.106 0.126,0.141c0.058,0.035 0.14,0.053 0.248,0.053c0.081,0 0.187,-0.01 0.319,-0.029Z" style="fill:#fff;fill-rule:nonzero;" stroke-width="1"/><path d="M49.173,10.156l0,-5.923l0.727,0l0,2.125c0.339,-0.393 0.767,-0.59 1.285,-0.59c0.318,0 0.594,0.063 0.828,0.188c0.234,0.125 0.402,0.298 0.503,0.519c0.101,0.221 0.152,0.541 0.152,0.962l0,2.719l-0.728,0l0,-2.719c0,-0.364 -0.079,-0.629 -0.236,-0.794c-0.158,-0.166 -0.381,-0.249 -0.669,-0.249c-0.215,0 -0.418,0.056 -0.608,0.168c-0.19,0.112 -0.325,0.263 -0.406,0.454c-0.081,0.192 -0.121,0.456 -0.121,0.792l0,2.348l-0.727,0Z" style="fill:#fff;fill-rule:nonzero;" stroke-width="1"/><path d="M53.779,5.069l0,-0.836l0.727,0l0,0.836l-0.727,0ZM53.779,10.156l0,-4.291l0.727,0l0,4.291l-0.727,0Z" style="fill:#fff;fill-rule:nonzero;" stroke-width="1"/><path d="M55.322,8.875l0.719,-0.113c0.041,0.288 0.153,0.509 0.338,0.663c0.184,0.153 0.442,0.23 0.773,0.23c0.334,0 0.582,-0.068 0.744,-0.204c0.161,-0.136 0.242,-0.296 0.242,-0.479c0,-0.164 -0.071,-0.294 -0.214,-0.388c-0.1,-0.064 -0.347,-0.147 -0.743,-0.246c-0.534,-0.135 -0.903,-0.251 -1.109,-0.35c-0.206,-0.098 -0.363,-0.234 -0.469,-0.408c-0.107,-0.174 -0.16,-0.366 -0.16,-0.576c0,-0.191 0.044,-0.368 0.132,-0.531c0.087,-0.163 0.206,-0.298 0.357,-0.406c0.113,-0.084 0.268,-0.154 0.463,-0.212c0.195,-0.058 0.405,-0.087 0.628,-0.087c0.337,0 0.632,0.048 0.887,0.145c0.255,0.097 0.442,0.229 0.564,0.394c0.121,0.166 0.204,0.388 0.25,0.665l-0.711,0.097c-0.032,-0.221 -0.126,-0.393 -0.281,-0.517c-0.155,-0.124 -0.374,-0.186 -0.656,-0.186c-0.334,0 -0.573,0.055 -0.716,0.166c-0.142,0.11 -0.214,0.239 -0.214,0.388c0,0.094 0.03,0.179 0.089,0.254c0.059,0.078 0.152,0.143 0.279,0.194c0.073,0.027 0.287,0.089 0.642,0.186c0.515,0.137 0.874,0.25 1.077,0.337c0.204,0.088 0.363,0.215 0.479,0.382c0.116,0.167 0.174,0.374 0.174,0.622c0,0.243 -0.071,0.471 -0.212,0.685c-0.142,0.214 -0.346,0.38 -0.612,0.497c-0.267,0.117 -0.569,0.176 -0.906,0.176c-0.557,0 -0.982,-0.116 -1.274,-0.348c-0.293,-0.231 -0.479,-0.575 -0.56,-1.03Z" style="fill:#fff;fill-rule:nonzero;" stroke-width="1"/><rect x="62.033" y="4.233" width="0.727" height="5.923" style="fill:#fff;fill-rule:nonzero;" stroke-width="1"/><path d="M66.825,8.774l0.752,0.093c-0.119,0.439 -0.338,0.78 -0.659,1.022c-0.32,0.243 -0.73,0.364 -1.228,0.364c-0.628,0 -1.125,-0.193 -1.493,-0.58c-0.368,-0.386 -0.552,-0.929 -0.552,-1.626c0,-0.722 0.186,-1.282 0.558,-1.681c0.372,-0.399 0.854,-0.598 1.446,-0.598c0.574,0 1.043,0.195 1.407,0.586c0.363,0.39 0.545,0.94 0.545,1.648c0,0.043 -0.001,0.108 -0.004,0.194l-3.2,0c0.027,0.472 0.16,0.833 0.4,1.083c0.24,0.251 0.539,0.376 0.897,0.376c0.267,0 0.494,-0.07 0.683,-0.21c0.188,-0.14 0.338,-0.364 0.448,-0.671ZM64.437,7.598l2.396,0c-0.032,-0.361 -0.124,-0.631 -0.274,-0.812c-0.232,-0.28 -0.532,-0.42 -0.901,-0.42c-0.334,0 -0.615,0.112 -0.843,0.335c-0.227,0.224 -0.353,0.523 -0.378,0.897Z" style="fill:#fff;fill-rule:nonzero;" stroke-width="1"/><path d="M69.682,10.156l-1.632,-4.291l0.767,0l0.921,2.57c0.1,0.277 0.192,0.565 0.275,0.864c0.065,-0.226 0.155,-0.498 0.271,-0.816l0.953,-2.618l0.748,0l-1.624,4.291l-0.679,0Z" style="fill:#fff;fill-rule:nonzero;" stroke-width="1"/><path d="M75.565,8.774l0.751,0.093c-0.118,0.439 -0.338,0.78 -0.658,1.022c-0.321,0.243 -0.73,0.364 -1.229,0.364c-0.627,0 -1.125,-0.193 -1.493,-0.58c-0.367,-0.386 -0.551,-0.929 -0.551,-1.626c0,-0.722 0.186,-1.282 0.558,-1.681c0.371,-0.399 0.853,-0.598 1.446,-0.598c0.574,0 1.042,0.195 1.406,0.586c0.364,0.39 0.546,0.94 0.546,1.648c0,0.043 -0.002,0.108 -0.004,0.194l-3.201,0c0.027,0.472 0.161,0.833 0.4,1.083c0.24,0.251 0.539,0.376 0.897,0.376c0.267,0 0.495,-0.07 0.683,-0.21c0.189,-0.14 0.338,-0.364 0.449,-0.671ZM73.177,7.598l2.396,0c-0.032,-0.361 -0.124,-0.631 -0.275,-0.812c-0.232,-0.28 -0.532,-0.42 -0.901,-0.42c-0.334,0 -0.615,0.112 -0.842,0.335c-0.228,0.224 -0.354,0.523 -0.378,0.897Z" style="fill:#fff;fill-rule:nonzero;" stroke-width="1"/><rect x="77.213" y="4.233" width="0.727" height="5.923" style="fill:#fff;fill-rule:nonzero;" stroke-width="1"/><path d="M81.371,5.069l0,-0.836l0.727,0l0,0.836l-0.727,0ZM81.371,10.156l0,-4.291l0.727,0l0,4.291l-0.727,0Z" style="fill:#fff;fill-rule:nonzero;" stroke-width="1"/><path d="M82.914,8.875l0.72,-0.113c0.04,0.288 0.152,0.509 0.337,0.663c0.184,0.153 0.442,0.23 0.774,0.23c0.334,0 0.582,-0.068 0.743,-0.204c0.162,-0.136 0.243,-0.296 0.243,-0.479c0,-0.164 -0.072,-0.294 -0.215,-0.388c-0.099,-0.064 -0.347,-0.147 -0.743,-0.246c-0.533,-0.135 -0.903,-0.251 -1.109,-0.35c-0.206,-0.098 -0.362,-0.234 -0.469,-0.408c-0.106,-0.174 -0.159,-0.366 -0.159,-0.576c0,-0.191 0.043,-0.368 0.131,-0.531c0.087,-0.163 0.207,-0.298 0.357,-0.406c0.114,-0.084 0.268,-0.154 0.463,-0.212c0.195,-0.058 0.405,-0.087 0.628,-0.087c0.337,0 0.633,0.048 0.887,0.145c0.255,0.097 0.443,0.229 0.564,0.394c0.121,0.166 0.205,0.388 0.25,0.665l-0.711,0.097c-0.032,-0.221 -0.126,-0.393 -0.28,-0.517c-0.155,-0.124 -0.374,-0.186 -0.657,-0.186c-0.334,0 -0.572,0.055 -0.715,0.166c-0.143,0.11 -0.214,0.239 -0.214,0.388c0,0.094 0.029,0.179 0.089,0.254c0.059,0.078 0.152,0.143 0.278,0.194c0.073,0.027 0.287,0.089 0.643,0.186c0.514,0.137 0.873,0.25 1.077,0.337c0.203,0.088 0.362,0.215 0.478,0.382c0.116,0.167 0.174,0.374 0.174,0.622c0,0.243 -0.071,0.471 -0.212,0.685c-0.141,0.214 -0.346,0.38 -0.612,0.497c-0.267,0.117 -0.569,0.176 -0.905,0.176c-0.558,0 -0.983,-0.116 -1.275,-0.348c-0.292,-0.231 -0.479,-0.575 -0.56,-1.03Z" style="fill:#fff;fill-rule:nonzero;" stroke-width="1"/><path d="M92.579,8.774l0.752,0.093c-0.119,0.439 -0.338,0.78 -0.659,1.022c-0.32,0.243 -0.73,0.364 -1.228,0.364c-0.628,0 -1.125,-0.193 -1.493,-0.58c-0.368,-0.386 -0.552,-0.929 -0.552,-1.626c0,-0.722 0.186,-1.282 0.558,-1.681c0.372,-0.399 0.854,-0.598 1.446,-0.598c0.574,0 1.043,0.195 1.406,0.586c0.364,0.39 0.546,0.94 0.546,1.648c0,0.043 -0.001,0.108 -0.004,0.194l-3.2,0c0.027,0.472 0.16,0.833 0.4,1.083c0.24,0.251 0.539,0.376 0.897,0.376c0.266,0 0.494,-0.07 0.683,-0.21c0.188,-0.14 0.338,-0.364 0.448,-0.671ZM90.191,7.598l2.396,0c-0.032,-0.361 -0.124,-0.631 -0.275,-0.812c-0.231,-0.28 -0.532,-0.42 -0.901,-0.42c-0.334,0 -0.614,0.112 -0.842,0.335c-0.228,0.224 -0.354,0.523 -0.378,0.897Z" style="fill:#fff;fill-rule:nonzero;" stroke-width="1"/><path d="M94.244,11.8l0,-5.935l0.662,0l0,0.558c0.157,-0.219 0.333,-0.382 0.53,-0.491c0.196,-0.109 0.435,-0.164 0.715,-0.164c0.366,0 0.689,0.094 0.97,0.283c0.28,0.188 0.491,0.454 0.634,0.798c0.143,0.343 0.214,0.72 0.214,1.129c0,0.439 -0.079,0.834 -0.236,1.186c-0.158,0.352 -0.387,0.621 -0.687,0.808c-0.3,0.187 -0.616,0.281 -0.948,0.281c-0.242,0 -0.46,-0.051 -0.652,-0.154c-0.193,-0.102 -0.351,-0.231 -0.475,-0.388l0,2.089l-0.727,0ZM94.902,8.035c0,0.552 0.112,0.96 0.336,1.224c0.223,0.264 0.494,0.396 0.812,0.396c0.323,0 0.6,-0.137 0.83,-0.41c0.231,-0.274 0.346,-0.697 0.346,-1.271c0,-0.547 -0.113,-0.956 -0.338,-1.228c-0.225,-0.272 -0.493,-0.408 -0.806,-0.408c-0.31,0 -0.584,0.144 -0.822,0.434c-0.238,0.29 -0.358,0.71 -0.358,1.263Z" style="fill:#fff;fill-rule:nonzero;" stroke-width="1"/><path d="M98.85,5.069l0,-0.836l0.727,0l0,0.836l-0.727,0ZM98.85,10.156l0,-4.291l0.727,0l0,4.291l-0.727,0Z" style="fill:#fff;fill-rule:nonzero;" stroke-width="1"/><path d="M103.484,8.584l0.716,0.093c-0.079,0.493 -0.279,0.879 -0.6,1.158c-0.322,0.279 -0.718,0.418 -1.186,0.418c-0.588,0 -1.06,-0.192 -1.417,-0.576c-0.356,-0.384 -0.535,-0.934 -0.535,-1.65c0,-0.464 0.077,-0.869 0.23,-1.217c0.154,-0.347 0.388,-0.608 0.701,-0.781c0.314,-0.174 0.656,-0.261 1.025,-0.261c0.466,0 0.847,0.118 1.143,0.354c0.296,0.235 0.486,0.57 0.57,1.004l-0.707,0.109c-0.068,-0.289 -0.187,-0.505 -0.358,-0.651c-0.171,-0.145 -0.378,-0.218 -0.62,-0.218c-0.366,0 -0.664,0.131 -0.893,0.394c-0.229,0.263 -0.343,0.678 -0.343,1.246c0,0.577 0.11,0.996 0.331,1.257c0.221,0.261 0.509,0.392 0.865,0.392c0.285,0 0.523,-0.088 0.715,-0.263c0.191,-0.175 0.312,-0.444 0.363,-0.808Z" style="fill:#fff;fill-rule:nonzero;" stroke-width="1"/><path d="M105.21,8.685l-0.223,-3.139l0,-1.313l0.901,0l0,1.313l-0.21,3.139l-0.468,0ZM105.02,10.156l0,-0.828l0.836,0l0,0.828l-0.836,0Z" style="fill:#fff;fill-rule:nonzero;" stroke-width="1"/></g></svg>