<svg version="1.1" width="80.01699829101562" height="16.390000343322754" viewBox="-0.4050000011920929 -0.25699999928474426 80.01699829101562 16.390000343322754" xmlns="http://www.w3.org/2000/svg" xmlns:xlink="http://www.w3.org/1999/xlink">
  <!-- Exported by Scratch - http://scratch.mit.edu/ -->
  <g id="Earth Preset">
    <path id="ID0.0779041638597846" fill="#fff" d="M 79.112 4.073 C 79.112 1.959 77.396 0.243 75.282 0.243 L 3.925 0.243 C 1.811 0.243 0.095 1.959 0.095 4.073 L 0.095 11.803 C 0.095 13.917 1.811 15.633 3.925 15.633 L 75.282 15.633 C 77.396 15.633 79.112 13.917 79.112 11.803 L 79.112 4.073 Z " stroke-width="1"/>
    <path id="ID0.22024709545075893" fill="#65a8e7" d="M 27.290 11.318 L 27.290 3.444 L 32.984 3.444 L 32.984 4.373 L 28.332 4.373 L 28.332 6.785 L 32.688 6.785 L 32.688 7.708 L 28.332 7.708 L 28.332 10.389 L 33.166 10.389 L 33.166 11.318 L 27.290 11.318 Z " stroke-width="1"/>
    <path id="ID0.007601912599056959" fill="#65a8e7" d="M 38.204 10.614 C 37.846 10.919 37.502 11.133 37.170 11.259 C 36.839 11.384 36.484 11.447 36.104 11.447 C 35.478 11.447 34.996 11.294 34.659 10.987 C 34.323 10.681 34.155 10.290 34.155 9.814 C 34.155 9.535 34.218 9.279 34.345 9.048 C 34.472 8.818 34.639 8.632 34.845 8.493 C 35.051 8.353 35.282 8.247 35.540 8.176 C 35.730 8.126 36.017 8.077 36.400 8.031 C 37.180 7.938 37.755 7.827 38.124 7.698 C 38.127 7.565 38.129 7.481 38.129 7.445 C 38.129 7.051 38.038 6.774 37.855 6.613 C 37.608 6.394 37.241 6.285 36.754 6.285 C 36.299 6.285 35.964 6.365 35.747 6.524 C 35.530 6.683 35.370 6.965 35.266 7.370 L 34.321 7.241 C 34.407 6.836 34.548 6.510 34.745 6.261 C 34.942 6.012 35.227 5.820 35.599 5.686 C 35.972 5.552 36.403 5.485 36.894 5.485 C 37.381 5.485 37.776 5.542 38.081 5.657 C 38.385 5.771 38.609 5.915 38.752 6.089 C 38.895 6.263 38.996 6.482 39.053 6.747 C 39.085 6.912 39.101 7.209 39.101 7.639 L 39.101 8.928 C 39.101 9.826 39.122 10.395 39.163 10.633 C 39.204 10.871 39.286 11.099 39.407 11.318 L 38.398 11.318 C 38.297 11.117 38.233 10.883 38.204 10.614 Z M 38.124 8.455 C 37.773 8.598 37.246 8.720 36.545 8.820 C 36.147 8.878 35.866 8.942 35.701 9.014 C 35.537 9.085 35.410 9.190 35.320 9.328 C 35.231 9.466 35.186 9.619 35.186 9.787 C 35.186 10.045 35.283 10.260 35.479 10.432 C 35.674 10.603 35.959 10.689 36.335 10.689 C 36.708 10.689 37.039 10.608 37.329 10.445 C 37.619 10.282 37.832 10.059 37.968 9.776 C 38.072 9.558 38.124 9.236 38.124 8.809 L 38.124 8.455 Z " stroke-width="1"/>
    <path id="ID0.21094269677996635" fill="#65a8e7" d="M 40.589 11.318 L 40.589 5.614 L 41.459 5.614 L 41.459 6.478 C 41.681 6.074 41.886 5.807 42.074 5.678 C 42.262 5.549 42.469 5.485 42.695 5.485 C 43.020 5.485 43.352 5.589 43.688 5.796 L 43.355 6.693 C 43.119 6.554 42.883 6.484 42.646 6.484 C 42.435 6.484 42.245 6.547 42.077 6.674 C 41.909 6.802 41.789 6.978 41.717 7.204 C 41.610 7.547 41.556 7.923 41.556 8.331 L 41.556 11.318 L 40.589 11.318 Z " stroke-width="1"/>
    <path id="ID0.892844086047262" fill="#65a8e7" d="M 46.374 10.453 L 46.513 11.307 C 46.241 11.364 45.998 11.393 45.783 11.393 C 45.432 11.393 45.160 11.337 44.967 11.226 C 44.773 11.115 44.637 10.970 44.558 10.789 C 44.480 10.608 44.440 10.227 44.440 9.647 L 44.440 6.366 L 43.731 6.366 L 43.731 5.614 L 44.440 5.614 L 44.440 4.201 L 45.402 3.621 L 45.402 5.614 L 46.374 5.614 L 46.374 6.366 L 45.402 6.366 L 45.402 9.701 C 45.402 9.977 45.419 10.154 45.453 10.233 C 45.487 10.312 45.542 10.374 45.619 10.421 C 45.696 10.467 45.806 10.491 45.949 10.491 C 46.057 10.491 46.198 10.478 46.374 10.453 Z " stroke-width="1"/>
    <path id="ID0.3275347310118377" fill="#65a8e7" d="M 47.319 11.318 L 47.319 3.444 L 48.286 3.444 L 48.286 6.269 C 48.737 5.746 49.306 5.485 49.994 5.485 C 50.416 5.485 50.783 5.568 51.095 5.735 C 51.406 5.901 51.629 6.131 51.764 6.425 C 51.898 6.718 51.965 7.144 51.965 7.703 L 51.965 11.318 L 50.998 11.318 L 50.998 7.703 C 50.998 7.220 50.894 6.868 50.684 6.648 C 50.475 6.427 50.178 6.317 49.795 6.317 C 49.509 6.317 49.239 6.392 48.987 6.540 C 48.734 6.689 48.554 6.890 48.447 7.144 C 48.340 7.399 48.286 7.750 48.286 8.197 L 48.286 11.318 L 47.319 11.318 Z " stroke-width="1"/>
  </g>
</svg>