<svg version="1.1" width="21.473782062530518" height="21.473782062530518" viewBox="-2.7305412404239178 -2.7739412393420935 21.473782062530518 21.473782062530518" xmlns="http://www.w3.org/2000/svg" xmlns:xlink="http://www.w3.org/1999/xlink">
  <!-- Exported by Scratch - http://scratch.mit.edu/ -->
  <g id="Mr Happy">
    <path id="Body" fill="#f8af22" d="M 15.976 3.9782 C 15.976 1.781 14.1883 -0.0067 11.9911 -0.0067 L 4.0215 -0.0067 C 1.8243 -0.0067 0.0367 1.781 0.0367 3.9782 L 0.0367 11.9478 C 0.0367 14.1505 1.8243 15.9326 4.0215 15.9326 L 11.9911 15.9326 C 14.1883 15.9326 15.976 14.1505 15.976 11.9478 L 15.976 3.9782 Z " stroke-width="5.534482479095459"/>
    <path id="Body1" fill="#f8af22" d="M 15.976 3.9782 C 15.976 1.781 14.1883 -0.0067 11.9911 -0.0067 L 4.0215 -0.0067 C 1.8243 -0.0067 0.0367 1.781 0.0367 3.9782 L 0.0367 11.9478 C 0.0367 14.1505 1.8243 15.9326 4.0215 15.9326 L 11.9911 15.9326 C 14.1883 15.9326 15.976 14.1505 15.976 11.9478 L 15.976 3.9782 Z " stroke-width="5.534482479095459"/>
    <g id="Eyes">
      <path id="ID0.2565763690508902" fill="#fff" stroke="#555" stroke-width="0.27672412395477297" d="M 8.0063 5.0518 C 8.3661 4.3047 9.1243 3.7955 10.0043 3.7955 C 11.2329 3.7955 12.2236 4.7917 12.2236 6.0148 C 12.2236 7.238 11.2329 8.2342 10.0043 8.2342 C 9.1243 8.2342 8.3661 7.725 8.0063 6.9778 C 7.6466 7.725 6.8828 8.2342 6.0084 8.2342 C 4.7797 8.2342 3.7835 7.238 3.7835 6.0148 C 3.7835 4.7917 4.7797 3.7955 6.0084 3.7955 C 6.8828 3.7955 7.6466 4.3047 8.0063 5.0518 Z "/>
      <path id="ID0.309354514349252" fill="#555" d="M 9.9766 4.7364 C 10.3363 4.7364 10.6629 4.8803 10.9008 5.1183 C 11.1388 5.3562 11.2827 5.6828 11.2827 6.0425 C 11.2827 6.4023 11.1388 6.7288 10.9008 6.9668 C 10.6629 7.2048 10.3363 7.3487 9.9766 7.3487 C 9.6168 7.3487 9.2903 7.2048 9.0523 6.9668 C 8.8143 6.7288 8.6704 6.4023 8.6704 6.0425 C 8.6704 5.6828 8.8143 5.3562 9.0523 5.1183 C 9.2903 4.8803 9.6168 4.7364 9.9766 4.7364 Z " stroke-width="5.534482479095459"/>
      <path id="ID0.7851152028888464" fill="#555" d="M 6.0637 4.7364 C 6.4234 4.7364 6.75 4.8803 6.988 5.1183 C 7.2259 5.3562 7.3698 5.6828 7.3698 6.0425 C 7.3698 6.4023 7.2259 6.7288 6.988 6.9668 C 6.75 7.2048 6.4234 7.3487 6.0637 7.3487 C 5.704 7.3487 5.3774 7.2048 5.1394 6.9668 C 4.9015 6.7288 4.7576 6.4023 4.7576 6.0425 C 4.7576 5.6828 4.9015 5.3562 5.1394 5.1183 C 5.3774 4.8803 5.704 4.7364 6.0637 4.7364 Z " stroke-width="5.534482479095459"/>
    </g>
    <path id="ID0.9189920243807137" fill="#e17777" stroke="#555" stroke-width="0.27672412395477297" d="M 5.9752 9.1252 C 5.87 9.3853 5.8147 9.6621 5.8147 9.9443 C 5.8147 11.1564 6.7943 12.136 8.0063 12.136 C 9.2128 12.136 10.198 11.1564 10.198 9.9443 C 10.198 9.6621 10.1426 9.3853 10.0375 9.1252 L 5.9752 9.1252 Z "/>
  </g>
</svg>