<svg width="130.05704748448213" height="19.1046472769626" viewBox="-0.5285237422410652 0.35957628579695966 130.05704748448213 19.1046472769626" version="1.1" xmlns="http://www.w3.org/2000/svg" xmlns:xlink="http://www.w3.org/1999/xlink" xml:space="preserve" style="fill-rule:evenodd;clip-rule:evenodd;stroke-linejoin:round;stroke-miterlimit:1.41421;">
    <g>
        <g id="View in browser">
            <g>
                <path d="M 129 5.3995 C 129 2.9093 126.978 0.8881 124.488 0.8881 L 4.512 0.8881 C 2.022 0.8881 0 2.9093 0 5.3995 L 0 14.4233 C 0 16.9134 2.022 18.9357 4.512 18.9357 L 124.488 18.9357 C 126.978 18.9357 129 16.9134 129 14.4233 L 129 5.3995 Z " style="fill:white;" stroke-width="1.0570474844821305"/>
            </g>
            <g>
                <path d="M 15.926 14.2968 L 11.766 3.5598 L 13.304 3.5598 L 16.094 11.3598 C 16.319 11.9848 16.507 12.5708 16.658 13.1178 C 16.824 12.5318 17.017 11.9458 17.237 11.3598 L 20.137 3.5598 L 21.587 3.5598 L 17.383 14.2968 L 15.926 14.2968 Z " style="fill:rgb(52,221,120);fill-rule:nonzero;" stroke-width="1"/>
                <path d="M 22.43 5.0758 L 22.43 3.5598 L 23.748 3.5598 L 23.748 5.0758 L 22.43 5.0758 Z M 22.43 14.2968 L 22.43 6.5188 L 23.748 6.5188 L 23.748 14.2968 L 22.43 14.2968 Z " style="fill:rgb(52,221,120);fill-rule:nonzero;" stroke-width="1"/>
                <path d="M 31.079 11.7918 L 32.442 11.9608 C 32.227 12.7568 31.829 13.3738 31.248 13.8138 C 30.667 14.2528 29.925 14.4728 29.021 14.4728 C 27.884 14.4728 26.982 14.1228 26.315 13.4218 C 25.649 12.7208 25.315 11.7388 25.315 10.4738 C 25.315 9.1648 25.652 8.1498 26.326 7.4268 C 27 6.7048 27.874 6.3428 28.948 6.3428 C 29.988 6.3428 30.838 6.6968 31.497 7.4048 C 32.156 8.1128 32.486 9.1088 32.486 10.3928 C 32.486 10.4718 32.483 10.5888 32.478 10.7448 L 26.678 10.7448 C 26.726 11.5998 26.968 12.2538 27.403 12.7078 C 27.837 13.1618 28.379 13.3888 29.029 13.3888 C 29.512 13.3888 29.925 13.2618 30.266 13.0078 C 30.608 12.7538 30.879 12.3488 31.079 11.7918 Z M 26.751 9.6608 L 31.094 9.6608 C 31.036 9.0068 30.87 8.5158 30.596 8.1888 C 30.176 7.6808 29.632 7.4268 28.963 7.4268 C 28.357 7.4268 27.848 7.6298 27.436 8.0348 C 27.023 8.4398 26.795 8.9818 26.751 9.6608 Z " style="fill:rgb(52,221,120);fill-rule:nonzero;" stroke-width="1"/>
                <path d="M 35.533 14.2968 L 33.152 6.5188 L 34.515 6.5188 L 35.752 11.0088 L 36.214 12.6788 C 36.233 12.5958 36.368 12.0608 36.617 11.0748 L 37.854 6.5188 L 39.209 6.5188 L 40.374 11.0308 L 40.762 12.5178 L 41.209 11.0158 L 42.542 6.5188 L 43.824 6.5188 L 41.392 14.2968 L 40.022 14.2968 L 38.785 9.6388 L 38.484 8.3128 L 36.91 14.2968 L 35.533 14.2968 Z " style="fill:rgb(52,221,120);fill-rule:nonzero;" stroke-width="1"/>
                <path d="M 49.104 5.0758 L 49.104 3.5598 L 50.423 3.5598 L 50.423 5.0758 L 49.104 5.0758 Z M 49.104 14.2968 L 49.104 6.5188 L 50.423 6.5188 L 50.423 14.2968 L 49.104 14.2968 Z " style="fill:rgb(52,221,120);fill-rule:nonzero;" stroke-width="1"/>
                <path d="M 52.43 14.2968 L 52.43 6.5188 L 53.616 6.5188 L 53.616 7.6248 C 54.187 6.7698 55.013 6.3428 56.092 6.3428 C 56.56 6.3428 56.991 6.4268 57.384 6.5958 C 57.777 6.7638 58.072 6.9848 58.267 7.2588 C 58.462 7.5318 58.599 7.8568 58.677 8.2328 C 58.726 8.4768 58.75 8.9038 58.75 9.5148 L 58.75 14.2968 L 57.432 14.2968 L 57.432 9.5658 C 57.432 9.0288 57.381 8.6268 57.278 8.3608 C 57.176 8.0948 56.994 7.8818 56.733 7.7238 C 56.471 7.5648 56.165 7.4858 55.813 7.4858 C 55.252 7.4858 54.767 7.6638 54.36 8.0198 C 53.952 8.3768 53.748 9.0528 53.748 10.0488 L 53.748 14.2968 L 52.43 14.2968 Z " style="fill:rgb(52,221,120);fill-rule:nonzero;" stroke-width="1"/>
                <path d="M 66.155 14.2968 L 64.932 14.2968 L 64.932 3.5598 L 66.25 3.5598 L 66.25 7.3908 C 66.807 6.6918 67.517 6.3428 68.382 6.3428 C 68.86 6.3428 69.313 6.4398 69.74 6.6318 C 70.168 6.8248 70.519 7.0958 70.795 7.4448 C 71.071 7.7948 71.287 8.2158 71.443 8.7088 C 71.6 9.2018 71.678 9.7288 71.678 10.2908 C 71.678 11.6238 71.348 12.6538 70.689 13.3818 C 70.03 14.1088 69.239 14.4728 68.316 14.4728 C 67.398 14.4728 66.678 14.0898 66.155 13.3228 L 66.155 14.2968 Z M 66.141 10.3498 C 66.141 11.2818 66.267 11.9558 66.521 12.3708 C 66.936 13.0498 67.498 13.3888 68.206 13.3888 C 68.782 13.3888 69.28 13.1388 69.7 12.6378 C 70.12 12.1378 70.33 11.3918 70.33 10.4008 C 70.33 9.3848 70.129 8.6358 69.726 8.1518 C 69.323 7.6688 68.836 7.4268 68.265 7.4268 C 67.688 7.4268 67.19 7.6768 66.77 8.1778 C 66.35 8.6778 66.141 9.4018 66.141 10.3498 Z " style="fill:rgb(52,221,120);fill-rule:nonzero;" stroke-width="1"/>
                <path d="M 73.267 14.2968 L 73.267 6.5188 L 74.454 6.5188 L 74.454 7.6978 C 74.756 7.1458 75.036 6.7828 75.292 6.6068 C 75.548 6.4308 75.83 6.3428 76.138 6.3428 C 76.582 6.3428 77.034 6.4848 77.493 6.7678 L 77.039 7.9908 C 76.717 7.8008 76.394 7.7048 76.072 7.7048 C 75.784 7.7048 75.525 7.7918 75.296 7.9658 C 75.066 8.1388 74.903 8.3788 74.805 8.6868 C 74.659 9.1558 74.585 9.6678 74.585 10.2248 L 74.585 14.2968 L 73.267 14.2968 Z " style="fill:rgb(52,221,120);fill-rule:nonzero;" stroke-width="1"/>
                <path d="M 77.786 10.4078 C 77.786 8.9678 78.186 7.9008 78.987 7.2068 C 79.656 6.6308 80.472 6.3428 81.433 6.3428 C 82.503 6.3428 83.377 6.6938 84.056 7.3938 C 84.734 8.0948 85.074 9.0628 85.074 10.2978 C 85.074 11.2988 84.923 12.0868 84.623 12.6598 C 84.323 13.2338 83.886 13.6798 83.312 13.9968 C 82.738 14.3138 82.112 14.4728 81.433 14.4728 C 80.345 14.4728 79.464 14.1238 78.793 13.4258 C 78.122 12.7268 77.786 11.7218 77.786 10.4078 Z M 79.141 10.4078 C 79.141 11.4038 79.358 12.1498 79.793 12.6458 C 80.227 13.1408 80.774 13.3888 81.433 13.3888 C 82.088 13.3888 82.632 13.1398 83.067 12.6418 C 83.501 12.1438 83.719 11.3848 83.719 10.3638 C 83.719 9.4018 83.5 8.6738 83.063 8.1778 C 82.626 7.6818 82.083 7.4338 81.433 7.4338 C 80.774 7.4338 80.227 7.6808 79.793 8.1738 C 79.358 8.6668 79.141 9.4118 79.141 10.4078 Z " style="fill:rgb(52,221,120);fill-rule:nonzero;" stroke-width="1"/>
                <path d="M 88.055 14.2968 L 85.674 6.5188 L 87.037 6.5188 L 88.274 11.0088 L 88.736 12.6788 C 88.755 12.5958 88.89 12.0608 89.139 11.0748 L 90.376 6.5188 L 91.731 6.5188 L 92.896 11.0308 L 93.284 12.5178 L 93.731 11.0158 L 95.064 6.5188 L 96.346 6.5188 L 93.914 14.2968 L 92.544 14.2968 L 91.307 9.6388 L 91.006 8.3128 L 89.432 14.2968 L 88.055 14.2968 Z " style="fill:rgb(52,221,120);fill-rule:nonzero;" stroke-width="1"/>
                <path d="M 96.924 11.9758 L 98.228 11.7698 C 98.301 12.2928 98.505 12.6928 98.839 12.9718 C 99.174 13.2498 99.641 13.3888 100.242 13.3888 C 100.848 13.3888 101.297 13.2658 101.59 13.0188 C 101.883 12.7728 102.029 12.4828 102.029 12.1508 C 102.029 11.8528 101.9 11.6188 101.641 11.4478 C 101.46 11.3308 101.011 11.1818 100.293 11.0008 C 99.327 10.7568 98.656 10.5458 98.283 10.3678 C 97.909 10.1898 97.626 9.9428 97.433 9.6278 C 97.24 9.3128 97.144 8.9648 97.144 8.5838 C 97.144 8.2378 97.223 7.9168 97.382 7.6208 C 97.541 7.3258 97.757 7.0798 98.03 6.8848 C 98.235 6.7338 98.515 6.6058 98.869 6.5008 C 99.223 6.3958 99.602 6.3428 100.008 6.3428 C 100.618 6.3428 101.154 6.4308 101.615 6.6068 C 102.077 6.7828 102.417 7.0208 102.637 7.3208 C 102.857 7.6208 103.008 8.0228 103.091 8.5258 L 101.802 8.7018 C 101.744 8.3008 101.574 7.9888 101.293 7.7638 C 101.012 7.5388 100.616 7.4268 100.103 7.4268 C 99.497 7.4268 99.065 7.5268 98.807 7.7268 C 98.548 7.9278 98.418 8.1618 98.418 8.4308 C 98.418 8.6008 98.472 8.7548 98.579 8.8918 C 98.687 9.0338 98.855 9.1508 99.085 9.2438 C 99.217 9.2918 99.605 9.4048 100.249 9.5798 C 101.182 9.8298 101.833 10.0328 102.201 10.1918 C 102.57 10.3508 102.859 10.5808 103.069 10.8838 C 103.279 11.1868 103.384 11.5628 103.384 12.0118 C 103.384 12.4518 103.256 12.8648 103 13.2538 C 102.743 13.6418 102.373 13.9418 101.89 14.1538 C 101.407 14.3668 100.86 14.4728 100.249 14.4728 C 99.239 14.4728 98.468 14.2628 97.939 13.8428 C 97.409 13.4228 97.071 12.8008 96.924 11.9758 Z " style="fill:rgb(52,221,120);fill-rule:nonzero;" stroke-width="1"/>
                <path d="M 110.276 11.7918 L 111.639 11.9608 C 111.424 12.7568 111.026 13.3738 110.445 13.8138 C 109.864 14.2528 109.121 14.4728 108.218 14.4728 C 107.08 14.4728 106.178 14.1228 105.512 13.4218 C 104.845 12.7208 104.512 11.7388 104.512 10.4738 C 104.512 9.1648 104.849 8.1498 105.523 7.4268 C 106.197 6.7048 107.071 6.3428 108.145 6.3428 C 109.185 6.3428 110.035 6.6968 110.694 7.4048 C 111.353 8.1128 111.683 9.1088 111.683 10.3928 C 111.683 10.4718 111.68 10.5888 111.675 10.7448 L 105.874 10.7448 C 105.923 11.5998 106.165 12.2538 106.6 12.7078 C 107.034 13.1618 107.576 13.3888 108.225 13.3888 C 108.709 13.3888 109.121 13.2618 109.463 13.0078 C 109.805 12.7538 110.076 12.3488 110.276 11.7918 Z M 105.948 9.6608 L 110.291 9.6608 C 110.232 9.0068 110.066 8.5158 109.793 8.1888 C 109.373 7.6808 108.829 7.4268 108.16 7.4268 C 107.554 7.4268 107.045 7.6298 106.632 8.0348 C 106.22 8.4398 105.992 8.9818 105.948 9.6608 Z " style="fill:rgb(52,221,120);fill-rule:nonzero;" stroke-width="1"/>
                <path d="M 113.279 14.2968 L 113.279 6.5188 L 114.466 6.5188 L 114.466 7.6978 C 114.768 7.1458 115.048 6.7828 115.304 6.6068 C 115.561 6.4308 115.843 6.3428 116.15 6.3428 C 116.595 6.3428 117.046 6.4848 117.505 6.7678 L 117.051 7.9908 C 116.729 7.8008 116.407 7.7048 116.084 7.7048 C 115.796 7.7048 115.537 7.7918 115.308 7.9658 C 115.079 8.1388 114.915 8.3788 114.817 8.6868 C 114.671 9.1558 114.598 9.6678 114.598 10.2248 L 114.598 14.2968 L 113.279 14.2968 Z " style="fill:rgb(52,221,120);fill-rule:nonzero;" stroke-width="1"/>
            </g>
        </g>
    </g>
</svg>