<svg version="1.1" width="110.2020034790039" height="14.907999992370605" viewBox="-0.5 -0.5 110.2020034790039 14.907999992370605" xmlns="http://www.w3.org/2000/svg" xmlns:xlink="http://www.w3.org/1999/xlink">
  <!-- Exported by Scratch - http://scratch.mit.edu/ -->
  <g id="1">
    <path id="ID0.7135141915641725" fill="#9fd3ff" d="M 109.202 6.954 C 109.202 3.116 106.086 0 102.248 0 L 6.954 0 C 3.116 0 0.000 3.116 0.000 6.954 C 0.000 10.792 3.116 13.908 6.954 13.908 L 102.248 13.908 C 106.086 13.908 109.202 10.792 109.202 6.954 Z " stroke-width="1"/>
    <path id="ID0.24899200443178415" fill="#fff" d="M 7.410 10.156 L 7.410 7.647 L 5.127 4.233 L 6.081 4.233 L 7.249 6.019 C 7.464 6.353 7.665 6.687 7.851 7.021 C 8.029 6.711 8.244 6.362 8.497 5.974 L 9.645 4.233 L 10.558 4.233 L 8.194 7.647 L 8.194 10.156 L 7.410 10.156 Z " stroke-width="1"/>
    <path id="ID0.24075848050415516" fill="#fff" d="M 10.138 8.010 C 10.138 7.216 10.359 6.627 10.800 6.245 C 11.169 5.927 11.619 5.768 12.150 5.768 C 12.740 5.768 13.222 5.961 13.596 6.348 C 13.971 6.734 14.158 7.268 14.158 7.950 C 14.158 8.502 14.075 8.936 13.909 9.253 C 13.744 9.569 13.503 9.815 13.186 9.990 C 12.870 10.165 12.524 10.253 12.150 10.253 C 11.549 10.253 11.064 10.060 10.693 9.675 C 10.323 9.290 10.138 8.735 10.138 8.010 Z M 10.885 8.010 C 10.885 8.560 11.005 8.971 11.245 9.245 C 11.484 9.518 11.786 9.655 12.150 9.655 C 12.511 9.655 12.811 9.518 13.051 9.243 C 13.291 8.968 13.410 8.549 13.410 7.986 C 13.410 7.456 13.290 7.054 13.049 6.780 C 12.808 6.507 12.508 6.370 12.150 6.370 C 11.786 6.370 11.484 6.506 11.245 6.778 C 11.005 7.050 10.885 7.461 10.885 8.010 Z " stroke-width="1"/>
    <path id="ID0.3855898720212281" fill="#fff" d="M 17.823 10.156 L 17.823 9.526 C 17.489 10.010 17.035 10.253 16.461 10.253 C 16.208 10.253 15.971 10.204 15.752 10.107 C 15.532 10.010 15.369 9.889 15.263 9.742 C 15.157 9.595 15.082 9.415 15.039 9.202 C 15.009 9.060 14.994 8.833 14.994 8.524 L 14.994 5.865 L 15.722 5.865 L 15.722 8.245 C 15.722 8.625 15.736 8.880 15.766 9.012 C 15.812 9.204 15.909 9.354 16.057 9.463 C 16.205 9.572 16.388 9.627 16.606 9.627 C 16.825 9.627 17.029 9.571 17.221 9.459 C 17.412 9.347 17.547 9.195 17.627 9.002 C 17.706 8.810 17.746 8.530 17.746 8.164 L 17.746 5.865 L 18.473 5.865 L 18.473 10.156 L 17.823 10.156 Z " stroke-width="1"/>
    <path id="ID0.2729919054545462" fill="#fff" d="M 19.617 6.330 L 19.431 5.223 L 19.431 4.233 L 20.259 4.233 L 20.259 5.223 L 20.065 6.330 L 19.617 6.330 Z " stroke-width="1"/>
    <path id="ID0.32565409783273935" fill="#fff" d="M 21.184 10.156 L 21.184 5.865 L 21.839 5.865 L 21.839 6.515 C 22.006 6.211 22.160 6.010 22.301 5.913 C 22.443 5.816 22.598 5.768 22.768 5.768 C 23.013 5.768 23.262 5.846 23.516 6.002 L 23.265 6.677 C 23.087 6.572 22.910 6.520 22.732 6.520 C 22.573 6.520 22.430 6.567 22.303 6.663 C 22.177 6.759 22.087 6.891 22.033 7.061 C 21.952 7.320 21.912 7.602 21.912 7.909 L 21.912 10.156 L 21.184 10.156 Z " stroke-width="1"/>
    <path id="ID0.09435517061501741" fill="#fff" d="M 26.885 8.774 L 27.637 8.867 C 27.518 9.306 27.299 9.647 26.978 9.889 C 26.658 10.132 26.248 10.253 25.750 10.253 C 25.122 10.253 24.625 10.060 24.257 9.673 C 23.889 9.287 23.705 8.744 23.705 8.047 C 23.705 7.325 23.891 6.765 24.263 6.366 C 24.635 5.967 25.117 5.768 25.710 5.768 C 26.283 5.768 26.752 5.963 27.116 6.354 C 27.479 6.744 27.661 7.294 27.661 8.002 C 27.661 8.045 27.660 8.110 27.657 8.196 L 24.457 8.196 C 24.484 8.668 24.617 9.029 24.857 9.279 C 25.097 9.530 25.396 9.655 25.754 9.655 C 26.021 9.655 26.248 9.585 26.437 9.445 C 26.625 9.305 26.775 9.081 26.885 8.774 Z M 24.497 7.598 L 26.893 7.598 C 26.861 7.237 26.770 6.967 26.619 6.786 C 26.387 6.506 26.087 6.366 25.718 6.366 C 25.384 6.366 25.103 6.478 24.875 6.701 C 24.648 6.925 24.522 7.224 24.497 7.598 Z " stroke-width="1"/>
    <path id="ID0.504478685092181" fill="#fff" d="M 33.649 9.627 C 33.380 9.856 33.120 10.017 32.871 10.111 C 32.622 10.206 32.355 10.253 32.069 10.253 C 31.598 10.253 31.236 10.138 30.982 9.907 C 30.729 9.677 30.603 9.383 30.603 9.025 C 30.603 8.814 30.650 8.623 30.746 8.449 C 30.842 8.275 30.967 8.136 31.122 8.031 C 31.277 7.926 31.451 7.846 31.645 7.792 C 31.788 7.755 32.003 7.718 32.291 7.683 C 32.879 7.613 33.311 7.530 33.588 7.433 C 33.591 7.333 33.592 7.270 33.592 7.243 C 33.592 6.946 33.524 6.738 33.386 6.616 C 33.201 6.452 32.924 6.370 32.558 6.370 C 32.216 6.370 31.964 6.430 31.801 6.550 C 31.638 6.670 31.517 6.882 31.439 7.186 L 30.728 7.089 C 30.792 6.785 30.899 6.539 31.047 6.352 C 31.195 6.165 31.409 6.021 31.689 5.920 C 31.970 5.818 32.294 5.768 32.663 5.768 C 33.030 5.768 33.327 5.811 33.556 5.897 C 33.785 5.983 33.953 6.092 34.061 6.223 C 34.169 6.353 34.244 6.518 34.287 6.718 C 34.312 6.841 34.324 7.065 34.324 7.388 L 34.324 8.358 C 34.324 9.034 34.339 9.462 34.370 9.641 C 34.401 9.820 34.463 9.992 34.554 10.156 L 33.795 10.156 C 33.719 10.005 33.671 9.829 33.649 9.627 Z M 33.588 8.002 C 33.324 8.110 32.929 8.202 32.401 8.277 C 32.102 8.320 31.890 8.369 31.766 8.423 C 31.642 8.476 31.547 8.555 31.479 8.659 C 31.412 8.763 31.378 8.878 31.378 9.004 C 31.378 9.198 31.452 9.360 31.599 9.489 C 31.745 9.619 31.960 9.683 32.243 9.683 C 32.523 9.683 32.772 9.622 32.990 9.499 C 33.209 9.377 33.369 9.209 33.471 8.996 C 33.549 8.832 33.588 8.590 33.588 8.269 L 33.588 8.002 Z " stroke-width="1"/>
    <path id="ID0.036288787610828876" fill="#fff" d="M 37.617 10.511 L 38.324 10.617 C 38.354 10.835 38.436 10.994 38.570 11.093 C 38.751 11.228 38.997 11.295 39.310 11.295 C 39.646 11.295 39.906 11.228 40.090 11.093 C 40.273 10.959 40.397 10.770 40.461 10.528 C 40.499 10.380 40.516 10.068 40.514 9.594 C 40.196 9.969 39.800 10.156 39.326 10.156 C 38.736 10.156 38.279 9.943 37.956 9.518 C 37.633 9.092 37.471 8.581 37.471 7.986 C 37.471 7.577 37.545 7.199 37.694 6.853 C 37.842 6.507 38.057 6.239 38.338 6.051 C 38.619 5.862 38.950 5.768 39.330 5.768 C 39.836 5.768 40.254 5.973 40.582 6.382 L 40.582 5.865 L 41.253 5.865 L 41.253 9.574 C 41.253 10.242 41.185 10.716 41.049 10.994 C 40.913 11.273 40.698 11.493 40.403 11.655 C 40.108 11.817 39.745 11.897 39.314 11.897 C 38.802 11.897 38.389 11.782 38.073 11.552 C 37.758 11.322 37.606 10.975 37.617 10.511 Z M 38.219 7.934 C 38.219 8.497 38.331 8.907 38.554 9.166 C 38.778 9.425 39.058 9.554 39.395 9.554 C 39.729 9.554 40.009 9.425 40.235 9.168 C 40.461 8.911 40.574 8.507 40.574 7.958 C 40.574 7.433 40.458 7.037 40.225 6.770 C 39.992 6.503 39.711 6.370 39.382 6.370 C 39.059 6.370 38.784 6.501 38.558 6.764 C 38.332 7.027 38.219 7.417 38.219 7.934 Z " stroke-width="1"/>
    <path id="ID0.06292877905070782" fill="#fff" d="M 42.081 8.010 C 42.081 7.216 42.302 6.627 42.744 6.245 C 43.113 5.927 43.563 5.768 44.094 5.768 C 44.684 5.768 45.166 5.961 45.540 6.348 C 45.915 6.734 46.102 7.268 46.102 7.950 C 46.102 8.502 46.019 8.936 45.853 9.253 C 45.688 9.569 45.447 9.815 45.130 9.990 C 44.814 10.165 44.468 10.253 44.094 10.253 C 43.493 10.253 43.007 10.060 42.637 9.675 C 42.267 9.290 42.081 8.735 42.081 8.010 Z M 42.829 8.010 C 42.829 8.560 42.949 8.971 43.189 9.245 C 43.428 9.518 43.730 9.655 44.094 9.655 C 44.455 9.655 44.755 9.518 44.995 9.243 C 45.234 8.968 45.354 8.549 45.354 7.986 C 45.354 7.456 45.234 7.054 44.993 6.780 C 44.752 6.507 44.452 6.370 44.094 6.370 C 43.730 6.370 43.428 6.506 43.189 6.778 C 42.949 7.050 42.829 7.461 42.829 8.010 Z " stroke-width="1"/>
    <path id="ID0.23160785995423794" fill="#fff" d="M 46.684 8.010 C 46.684 7.216 46.904 6.627 47.346 6.245 C 47.715 5.927 48.165 5.768 48.696 5.768 C 49.286 5.768 49.768 5.961 50.142 6.348 C 50.517 6.734 50.704 7.268 50.704 7.950 C 50.704 8.502 50.621 8.936 50.455 9.253 C 50.290 9.569 50.049 9.815 49.732 9.990 C 49.416 10.165 49.070 10.253 48.696 10.253 C 48.095 10.253 47.610 10.060 47.239 9.675 C 46.869 9.290 46.684 8.735 46.684 8.010 Z M 47.431 8.010 C 47.431 8.560 47.551 8.971 47.791 9.245 C 48.030 9.518 48.332 9.655 48.696 9.655 C 49.057 9.655 49.357 9.518 49.597 9.243 C 49.836 8.968 49.956 8.549 49.956 7.986 C 49.956 7.456 49.836 7.054 49.595 6.780 C 49.354 6.507 49.054 6.370 48.696 6.370 C 48.332 6.370 48.030 6.506 47.791 6.778 C 47.551 7.050 47.431 7.461 47.431 8.010 Z " stroke-width="1"/>
    <path id="ID0.4923311942256987" fill="#fff" d="M 54.340 10.156 L 54.340 9.615 C 54.068 10.040 53.668 10.253 53.140 10.253 C 52.798 10.253 52.484 10.159 52.197 9.970 C 51.910 9.782 51.688 9.518 51.530 9.180 C 51.373 8.842 51.294 8.454 51.294 8.014 C 51.294 7.586 51.365 7.198 51.508 6.849 C 51.651 6.500 51.865 6.233 52.150 6.047 C 52.436 5.861 52.755 5.768 53.108 5.768 C 53.367 5.768 53.597 5.823 53.799 5.932 C 54.001 6.041 54.165 6.183 54.292 6.358 L 54.292 4.233 L 55.015 4.233 L 55.015 10.156 L 54.340 10.156 Z M 52.041 8.014 C 52.041 8.564 52.157 8.975 52.389 9.247 C 52.620 9.519 52.894 9.655 53.209 9.655 C 53.527 9.655 53.797 9.525 54.019 9.265 C 54.241 9.005 54.352 8.608 54.352 8.075 C 54.352 7.488 54.239 7.057 54.013 6.782 C 53.787 6.507 53.508 6.370 53.177 6.370 C 52.853 6.370 52.583 6.502 52.366 6.766 C 52.150 7.030 52.041 7.446 52.041 8.014 Z " stroke-width="1"/>
    <path id="ID0.7616013963706791" fill="#fff" d="M 58.441 4.233 L 59.168 4.233 L 59.168 10.156 L 58.441 10.156 L 58.441 4.233 Z " stroke-width="1"/>
    <path id="ID0.35599987860769033" fill="#fff" d="M 63.233 8.774 L 63.985 8.867 C 63.866 9.306 63.647 9.647 63.326 9.889 C 63.006 10.132 62.596 10.253 62.098 10.253 C 61.470 10.253 60.973 10.060 60.605 9.673 C 60.237 9.287 60.053 8.744 60.053 8.047 C 60.053 7.325 60.239 6.765 60.611 6.366 C 60.983 5.967 61.465 5.768 62.058 5.768 C 62.631 5.768 63.100 5.963 63.464 6.354 C 63.827 6.744 64.009 7.294 64.009 8.002 C 64.009 8.045 64.008 8.110 64.005 8.196 L 60.805 8.196 C 60.832 8.668 60.965 9.029 61.205 9.279 C 61.445 9.530 61.744 9.655 62.102 9.655 C 62.369 9.655 62.596 9.585 62.785 9.445 C 62.973 9.305 63.123 9.081 63.233 8.774 Z M 60.845 7.598 L 63.241 7.598 C 63.209 7.237 63.117 6.967 62.967 6.786 C 62.735 6.506 62.435 6.366 62.066 6.366 C 61.732 6.366 61.451 6.478 61.223 6.701 C 60.996 6.925 60.870 7.224 60.845 7.598 Z " stroke-width="1"/>
    <path id="ID0.7626854227855802" fill="#fff" d="M 66.090 10.156 L 64.458 5.865 L 65.225 5.865 L 66.146 8.435 C 66.246 8.712 66.338 9 66.421 9.299 C 66.486 9.073 66.576 8.801 66.692 8.483 L 67.645 5.865 L 68.393 5.865 L 66.769 10.156 L 66.090 10.156 Z " stroke-width="1"/>
    <path id="ID0.0938697112724185" fill="#fff" d="M 71.973 8.774 L 72.724 8.867 C 72.606 9.306 72.386 9.647 72.066 9.889 C 71.745 10.132 71.336 10.253 70.837 10.253 C 70.210 10.253 69.712 10.060 69.344 9.673 C 68.977 9.287 68.793 8.744 68.793 8.047 C 68.793 7.325 68.979 6.765 69.351 6.366 C 69.722 5.967 70.204 5.768 70.797 5.768 C 71.371 5.768 71.839 5.963 72.203 6.354 C 72.567 6.744 72.749 7.294 72.749 8.002 C 72.749 8.045 72.747 8.110 72.745 8.196 L 69.544 8.196 C 69.571 8.668 69.705 9.029 69.945 9.279 C 70.184 9.530 70.483 9.655 70.841 9.655 C 71.108 9.655 71.336 9.585 71.524 9.445 C 71.713 9.305 71.862 9.081 71.973 8.774 Z M 69.585 7.598 L 71.981 7.598 C 71.949 7.237 71.857 6.967 71.706 6.786 C 71.474 6.506 71.174 6.366 70.805 6.366 C 70.471 6.366 70.190 6.478 69.963 6.701 C 69.735 6.925 69.609 7.224 69.585 7.598 Z " stroke-width="1"/>
    <path id="ID0.5822084974497557" fill="#fff" d="M 73.621 4.233 L 74.348 4.233 L 74.348 10.156 L 73.621 10.156 L 73.621 4.233 Z " stroke-width="1"/>
    <path id="ID0.07151316711679101" fill="#fff" d="M 80.575 8.584 L 81.290 8.677 C 81.212 9.170 81.012 9.556 80.690 9.835 C 80.368 10.114 79.973 10.253 79.504 10.253 C 78.917 10.253 78.445 10.061 78.088 9.677 C 77.731 9.293 77.553 8.743 77.553 8.027 C 77.553 7.563 77.629 7.158 77.783 6.810 C 77.937 6.463 78.170 6.202 78.484 6.029 C 78.798 5.855 79.139 5.768 79.508 5.768 C 79.974 5.768 80.355 5.886 80.652 6.122 C 80.948 6.357 81.138 6.692 81.221 7.126 L 80.514 7.235 C 80.447 6.946 80.328 6.730 80.157 6.584 C 79.986 6.439 79.779 6.366 79.537 6.366 C 79.170 6.366 78.873 6.497 78.644 6.760 C 78.415 7.023 78.300 7.438 78.300 8.006 C 78.300 8.583 78.411 9.002 78.631 9.263 C 78.852 9.524 79.141 9.655 79.496 9.655 C 79.782 9.655 80.020 9.567 80.211 9.392 C 80.403 9.217 80.524 8.948 80.575 8.584 Z " stroke-width="1"/>
    <path id="ID0.16585797863081098" fill="#fff" d="M 81.904 10.156 L 81.904 5.865 L 82.559 5.865 L 82.559 6.515 C 82.726 6.211 82.880 6.010 83.021 5.913 C 83.163 5.816 83.318 5.768 83.488 5.768 C 83.733 5.768 83.982 5.846 84.236 6.002 L 83.985 6.677 C 83.807 6.572 83.630 6.520 83.452 6.520 C 83.293 6.520 83.150 6.567 83.023 6.663 C 82.897 6.759 82.807 6.891 82.753 7.061 C 82.672 7.320 82.632 7.602 82.632 7.909 L 82.632 10.156 L 81.904 10.156 Z " stroke-width="1"/>
    <path id="ID0.42628917191177607" fill="#fff" d="M 87.605 8.774 L 88.357 8.867 C 88.238 9.306 88.019 9.647 87.698 9.889 C 87.378 10.132 86.968 10.253 86.470 10.253 C 85.842 10.253 85.345 10.060 84.977 9.673 C 84.609 9.287 84.426 8.744 84.426 8.047 C 84.426 7.325 84.611 6.765 84.983 6.366 C 85.355 5.967 85.837 5.768 86.430 5.768 C 87.003 5.768 87.472 5.963 87.836 6.354 C 88.199 6.744 88.381 7.294 88.381 8.002 C 88.381 8.045 88.380 8.110 88.377 8.196 L 85.177 8.196 C 85.204 8.668 85.337 9.029 85.577 9.279 C 85.817 9.530 86.116 9.655 86.474 9.655 C 86.741 9.655 86.968 9.585 87.157 9.445 C 87.345 9.305 87.495 9.081 87.605 8.774 Z M 85.217 7.598 L 87.613 7.598 C 87.581 7.237 87.490 6.967 87.339 6.786 C 87.107 6.506 86.807 6.366 86.438 6.366 C 86.104 6.366 85.823 6.478 85.595 6.701 C 85.368 6.925 85.242 7.224 85.217 7.598 Z " stroke-width="1"/>
    <path id="ID0.07952703582122922" fill="#fff" d="M 92.070 9.627 C 91.801 9.856 91.541 10.017 91.292 10.111 C 91.043 10.206 90.776 10.253 90.490 10.253 C 90.019 10.253 89.657 10.138 89.403 9.907 C 89.150 9.677 89.024 9.383 89.024 9.025 C 89.024 8.814 89.071 8.623 89.167 8.449 C 89.263 8.275 89.388 8.136 89.543 8.031 C 89.698 7.926 89.872 7.846 90.066 7.792 C 90.209 7.755 90.424 7.718 90.712 7.683 C 91.300 7.613 91.732 7.530 92.009 7.433 C 92.012 7.333 92.013 7.270 92.013 7.243 C 92.013 6.946 91.945 6.738 91.807 6.616 C 91.622 6.452 91.345 6.370 90.979 6.370 C 90.637 6.370 90.385 6.430 90.222 6.550 C 90.059 6.670 89.938 6.882 89.860 7.186 L 89.149 7.089 C 89.213 6.785 89.320 6.539 89.468 6.352 C 89.616 6.165 89.830 6.021 90.110 5.920 C 90.391 5.818 90.715 5.768 91.084 5.768 C 91.451 5.768 91.748 5.811 91.977 5.897 C 92.206 5.983 92.374 6.092 92.482 6.223 C 92.590 6.353 92.665 6.518 92.708 6.718 C 92.733 6.841 92.745 7.065 92.745 7.388 L 92.745 8.358 C 92.745 9.034 92.760 9.462 92.791 9.641 C 92.822 9.820 92.884 9.992 92.975 10.156 L 92.216 10.156 C 92.140 10.005 92.092 9.829 92.070 9.627 Z M 92.009 8.002 C 91.745 8.110 91.350 8.202 90.822 8.277 C 90.523 8.320 90.311 8.369 90.187 8.423 C 90.063 8.476 89.968 8.555 89.900 8.659 C 89.833 8.763 89.799 8.878 89.799 9.004 C 89.799 9.198 89.873 9.360 90.020 9.489 C 90.166 9.619 90.381 9.683 90.664 9.683 C 90.944 9.683 91.193 9.622 91.411 9.499 C 91.630 9.377 91.790 9.209 91.892 8.996 C 91.970 8.832 92.009 8.590 92.009 8.269 L 92.009 8.002 Z " stroke-width="1"/>
    <path id="ID0.4727855655364692" fill="#fff" d="M 95.460 9.505 L 95.565 10.148 C 95.360 10.191 95.177 10.212 95.016 10.212 C 94.752 10.212 94.547 10.171 94.401 10.087 C 94.256 10.004 94.154 9.894 94.094 9.758 C 94.035 9.622 94.005 9.336 94.005 8.899 L 94.005 6.431 L 93.472 6.431 L 93.472 5.865 L 94.005 5.865 L 94.005 4.802 L 94.729 4.366 L 94.729 5.865 L 95.460 5.865 L 95.460 6.431 L 94.729 6.431 L 94.729 8.940 C 94.729 9.147 94.741 9.280 94.767 9.340 C 94.793 9.399 94.834 9.446 94.892 9.481 C 94.950 9.516 95.033 9.534 95.141 9.534 C 95.222 9.534 95.328 9.524 95.460 9.505 Z " stroke-width="1"/>
    <path id="ID0.40606971364468336" fill="#fff" d="M 95.900 8.010 C 95.900 7.216 96.121 6.627 96.563 6.245 C 96.932 5.927 97.382 5.768 97.913 5.768 C 98.502 5.768 98.985 5.961 99.359 6.348 C 99.733 6.734 99.921 7.268 99.921 7.950 C 99.921 8.502 99.838 8.936 99.672 9.253 C 99.507 9.569 99.265 9.815 98.949 9.990 C 98.632 10.165 98.287 10.253 97.913 10.253 C 97.312 10.253 96.826 10.060 96.456 9.675 C 96.086 9.290 95.900 8.735 95.900 8.010 Z M 96.648 8.010 C 96.648 8.560 96.768 8.971 97.008 9.245 C 97.247 9.518 97.549 9.655 97.913 9.655 C 98.274 9.655 98.574 9.518 98.814 9.243 C 99.053 8.968 99.173 8.549 99.173 7.986 C 99.173 7.456 99.053 7.054 98.812 6.780 C 98.570 6.507 98.271 6.370 97.913 6.370 C 97.549 6.370 97.247 6.506 97.008 6.778 C 96.768 7.050 96.648 7.461 96.648 8.010 Z " stroke-width="1"/>
    <path id="ID0.6725950371474028" fill="#fff" d="M 100.765 10.156 L 100.765 5.865 L 101.420 5.865 L 101.420 6.515 C 101.587 6.211 101.741 6.010 101.882 5.913 C 102.024 5.816 102.179 5.768 102.349 5.768 C 102.594 5.768 102.843 5.846 103.096 6.002 L 102.846 6.677 C 102.668 6.572 102.490 6.520 102.313 6.520 C 102.154 6.520 102.011 6.567 101.884 6.663 C 101.758 6.759 101.667 6.891 101.614 7.061 C 101.533 7.320 101.492 7.602 101.492 7.909 L 101.492 10.156 L 100.765 10.156 Z " stroke-width="1"/>
    <path id="ID0.37058523669838905" fill="#fff" d="M 103.278 9.328 L 104.106 9.328 L 104.106 10.156 L 103.278 10.156 L 103.278 9.328 Z " stroke-width="1"/>
  </g>
</svg>