<svg version="1.1" width="39.1879997253418" height="51.40599822998047" viewBox="0.25 0.09399998188018799 39.1879997253418 51.40599822998047" xmlns="http://www.w3.org/2000/svg" xmlns:xlink="http://www.w3.org/1999/xlink">
  <!-- Exported by Scratch - http://scratch.mit.edu/ -->
  <g id="ID0.3889816706068814">
    <g id="layer1">
      <path id="path3504" fill="#666666" stroke="none" d="M 1.906 0.594 L 17.188 25.625 L 0.75 51 L 6.5 51 L 18.375 31.75 C 18.703 31.211 19.004 30.68 19.25 30.188 C 19.496 29.695 19.734 29.219 19.969 28.75 L 20.125 28.75 C 20.312 29.242 20.562 29.754 20.844 30.281 C 21.125 30.809 21.398 31.305 21.656 31.75 L 33.25 51 L 38.938 51 L 23.188 25.563 L 38.656 0.594 L 33.25 0.594 L 22.281 18.875 C 21.977 19.367 21.66 19.914 21.344 20.5 C 21.027 21.086 20.703 21.695 20.375 22.375 L 20.25 22.375 C 19.945 21.766 19.637 21.168 19.344 20.594 C 19.051 20.02 18.734 19.477 18.406 18.938 L 7.625 0.594 L 1.906 0.594 Z " stroke-width="1"/>
    </g>
  </g>
</svg>