<svg version="1.1" width="52.10005982549696" height="45.23915894659071" viewBox="-0.29323015526786067 1.2227698175524213 52.10005982549696 45.23915894659071" xmlns="http://www.w3.org/2000/svg" xmlns:xlink="http://www.w3.org/1999/xlink">
  <!-- Exported by Scratch - http://scratch.mit.edu/ -->
  <g id="ID0.7792892288416624">
    <path id="Head_Fill" fill="none" stroke="#666666" stroke-width="1.363060313778214" d="M 46.4158 30.032 C 45.5242 25.1986 41.0303 24.3499 41.0303 24.3499 C 41.0303 24.3499 41.1369 20.3382 39.4385 16.5926 C 38.3143 14.1133 34.3801 10.5634 34.3801 10.5634 L 32.6514 1.9043 L 28.1509 7.3922 L 26.4222 8.2206 C 25.4899 8.1134 23.5644 7.9867 22.4941 8.0504 C 19.6296 8.2191 16.9051 9.5768 16.9051 9.5768 L 9.1046 3.1863 L 10.4572 17.3633 C 10.8485 16.7741 4.065 26.9612 8.3511 35.5214 C 10.3615 39.5398 14.5046 43.1115 17.7997 44.4782 C 20.2602 45.4978 24.3615 45.7804 26.2798 45.7804 C 27.8825 45.7804 30.985 45.3748 32.5308 45.0465 C 34.3607 44.6574 36.4553 43.8252 38.6214 42.7164 C 44.3739 39.767 47.3062 34.8654 46.4158 30.032 Z M 18.1401 11.1055 L 16.9075 9.5768 M 26.5699 8.1066 C 27.7814 8.3563 29.1945 9.1307 29.1945 9.1307 "/>
    <path id="Muzzle" fill="none" stroke-width="1.363060313778214" d="M 40.779 24.5381 L 39.0339 22.2087 L 33.5139 24.2037 C 33.5139 24.2112 33.5109 25.4175 32.6538 26.4026 C 32.2625 26.8524 31.695 27.2558 30.8681 27.4785 C 28.2205 28.1914 24.0768 25.7714 24.0768 25.7714 L 19.3619 28.3331 C 19.3619 28.3331 16.4883 28.7245 14.974 30.5493 C 14.4695 31.158 14.1157 31.925 14.0703 32.8906 C 13.7717 39.1867 19.3279 42.8258 23.2064 44.5876 C 24.2834 45.0765 24.6528 45.2257 25.3094 45.4416 C 25.3094 45.4416 29.8063 45.2954 31.4763 45.0007 C 33.3128 44.6769 36.0664 43.6827 38.2325 42.5747 C 43.9856 39.6261 47.0766 35.0596 46.185 30.2262 C 45.2922 25.3898 40.779 24.5381 40.779 24.5381 Z "/>
    <path id="Eyeball_1_" fill="none" stroke="#666666" stroke-width="1.363060313778214" d="M 23.5111 19.0667 C 25.2834 22.4254 25.0968 26.4603 23.098 28.0745 C 21.0973 29.6931 18.039 28.2784 16.2685 24.9197 C 14.4949 21.561 14.679 17.5275 16.6791 15.9104 C 18.6792 14.294 21.7369 15.7065 23.5111 19.0667 "/>
    <path id="Pupil_1_" fill="#666666" stroke-width="1.363060313778214" d="M 22.428 23.481 C 22.428 24.2914 21.9416 24.9482 21.3371 24.9482 C 20.7362 24.9482 20.2444 24.2899 20.2444 23.481 C 20.2444 22.6713 20.7362 22.0138 21.3371 22.0138 C 21.9404 22.0138 22.428 22.6713 22.428 23.481 "/>
    <path id="Eyeball" fill="none" stroke="#666666" stroke-width="1.363060313778214" d="M 37.8806 16.7568 C 39.6523 20.1148 39.8692 23.8184 38.1786 25.1858 C 36.4868 26.5541 33.8289 24.772 32.0584 21.4118 C 30.2818 18.0531 30.1934 14.5639 31.8852 13.1957 C 33.5733 11.829 36.1076 13.3966 37.8806 16.7568 "/>
    <path id="Pupil" fill="#666666" stroke-width="1.363060313778214" d="M 37.5771 21.9928 C 37.5771 22.8025 37.0913 23.4593 36.4868 23.4593 C 35.8853 23.4593 35.3941 22.8018 35.3941 21.9928 C 35.3941 21.1831 35.8853 20.5249 36.4868 20.5249 C 37.0913 20.5249 37.5771 21.1831 37.5771 21.9928 "/>
    <path id="Nose" fill="none" stroke="#666666" stroke-width="1.363060313778214" d="M 30.7179 26.0443 C 31.8409 26.0443 33.4776 25.8313 33.5624 26.4708 C 33.6502 27.1118 32.5272 29.6219 31.7531 29.7283 C 30.9766 29.8348 28.0431 27.9643 28.0013 26.7902 C 27.9564 25.6162 29.6815 26.0443 30.7179 26.0443 "/>
    <path id="Whisker_3_" fill="#666666" stroke-width="1.363060313778214" d="M 7.8302 29.391 C 7.8162 29.3782 6.3873 28.0715 4.1946 26.8704 C 1.7645 25.5382 0.401 25.1761 0.3883 25.1723 L 0.5367 24.2914 C 0.5942 24.3064 1.9789 24.6708 4.489 26.0473 C 6.7611 27.2925 8.2039 28.6143 8.2638 28.6698 L 7.8302 29.391 L 7.8302 29.391 Z "/>
    <path id="Whisker_2_" fill="#666666" stroke-width="1.363060313778214" d="M 4.1219 32.8786 C 2.8893 32.8786 1.0376 32.6717 0.9492 32.662 L 1.014 31.7661 C 1.0388 31.7691 3.4902 32.0412 4.5799 31.9655 C 5.6823 31.8875 7.858 31.5322 7.8792 31.5284 L 7.9743 32.4198 C 7.8847 32.4348 5.7513 32.7827 4.6204 32.8629 C 4.4739 32.8741 4.3043 32.8786 4.1219 32.8786 L 4.1219 32.8786 Z "/>
    <path id="Whisker_1_" fill="#666666" stroke-width="1.363060313778214" d="M 44.0365 28.546 L 43.919 27.6576 C 43.9469 27.6524 46.6593 27.0999 48.0143 26.5158 C 49.5728 25.8456 50.6346 24.7053 50.6461 24.694 L 51.1253 25.3703 C 51.078 25.4212 49.9453 26.638 48.2529 27.3653 C 46.8392 27.9755 44.1498 28.5228 44.0365 28.546 L 44.0365 28.546 Z "/>
    <path id="Whisker" fill="#666666" stroke-width="1.363060313778214" d="M 49.5044 34.1719 C 49.0125 34.1719 48.3505 34.1457 47.5727 34.0497 C 45.8416 33.8353 44.1904 33.0158 44.1207 32.9806 L 44.3933 32.1469 C 44.4096 32.1552 46.0203 32.9529 47.6448 33.1545 C 49.2633 33.3547 50.3814 33.2378 50.3917 33.237 L 50.4547 34.1329 C 50.4287 34.1359 50.084 34.1719 49.5044 34.1719 L 49.5044 34.1719 Z "/>
    <path id="Mouth" fill="none" stroke="#666666" stroke-width="1.363060313778214" d="M 22.849 31.5239 C 22.849 31.5239 29.1164 33.8135 31.4605 34.4448 C 33.8029 35.076 38.0332 35.7073 38.0332 35.7073 C 38.0332 35.7073 33.1941 43.3881 27.5379 41.4389 C 21.8811 39.4919 21.9828 35.0775 22.849 31.5239 Z "/>
  </g>
</svg>