<svg version="1.1" width="91.88814407545992" height="28.06203895766207" viewBox="-0.8690193367931672 -0.02021935561631405 91.88814407545992 28.06203895766207" xmlns="http://www.w3.org/2000/svg" xmlns:xlink="http://www.w3.org/1999/xlink">
  <!-- Exported by Scratch - http://scratch.mit.edu/ -->
  <g id="ID0.03796483017504215">
    <path id="ID0.5629956251941621" fill="#65A8E7" d="M 13.1001 0.9989 C 9.5132 0.9989 6.2632 2.456 3.9102 4.809 C 1.5572 7.162 0.1001 10.412 0.1001 13.9989 C 0.1001 17.5858 1.5572 20.8358 3.9102 23.1888 C 6.2632 25.5418 9.5132 26.9989 13.1001 26.9989 C 16.687 26.9989 19.937 25.5418 22.29 23.1888 C 24.643 20.8358 26.1 17.5858 26.1 13.9989 C 26.1 10.412 24.643 7.162 22.29 4.809 C 19.937 2.456 16.687 0.9989 13.1001 0.9989 Z " stroke-width="1.0833300352096558"/>
  </g>
  <g id="ID0.03796483017504215">
    <path id="ID0.5629956251941621" fill="rgb(80,133,199)" d="M 45.0001 0.9989 C 41.4132 0.9989 38.1632 2.456 35.8102 4.809 C 33.4572 7.162 32.0001 10.412 32.0001 13.9989 C 32.0001 17.5858 33.4572 20.8358 35.8102 23.1888 C 38.1632 25.5418 41.4132 26.9989 45.0001 26.9989 C 48.587 26.9989 51.837 25.5418 54.19 23.1888 C 56.543 20.8358 58 17.5858 58 13.9989 C 58 10.412 56.543 7.162 54.19 4.809 C 51.837 2.456 48.587 0.9989 45.0001 0.9989 Z " stroke-width="1.0833300352096558"/>
  </g>
  <g id="ID0.03796483017504215">
    <path id="ID0.5629956251941621" fill="#65A8E7" d="M 77.0501 0.9489 C 73.4632 0.9489 70.2132 2.406 67.8602 4.759 C 65.5072 7.112 64.0501 10.362 64.0501 13.9489 C 64.0501 17.5358 65.5072 20.7858 67.8602 23.1388 C 70.2132 25.4918 73.4632 26.9489 77.0501 26.9489 C 80.637 26.9489 83.887 25.4918 86.24 23.1388 C 88.593 20.7858 90.05 17.5358 90.05 13.9489 C 90.05 10.362 88.593 7.112 86.24 4.759 C 83.887 2.406 80.637 0.9489 77.0501 0.9489 Z " stroke-width="1.0833300352096558"/>
  </g>
  <path id="ID0.4496537633240223" fill="#65A8E7" stroke="none" d="M 13.1935 0.9729 L 77.25 0.9729 L 77.25 27.0727 L 13.1935 27.0727 L 13.1935 0.9729 Z " stroke-width="1.9382386799521105"/>
<defs/></svg>