<svg width="105.11400604248047" height="14.907999992370605" viewBox="-0.5000052452087402 -0.5 105.11400604248047 14.907999992370605" version="1.1" xmlns="http://www.w3.org/2000/svg" xmlns:xlink="http://www.w3.org/1999/xlink" xml:space="preserve" style="fill-rule:evenodd;clip-rule:evenodd;stroke-linejoin:round;stroke-miterlimit:1.41421;"><g id="1"><path d="M104.114,6.954c0,-3.838 -3.116,-6.954 -6.954,-6.954l-90.206,0c-3.838,0 -6.954,3.116 -6.954,6.954c0,3.838 3.116,6.954 6.954,6.954l90.206,0c3.838,0 6.954,-3.116 6.954,-6.954Z" style="fill:#9fd3ff;" stroke-width="1"/><path d="M5.091,10.156l2.275,-5.923l0.844,0l2.425,5.923l-0.893,0l-0.691,-1.794l-2.477,0l-0.651,1.794l-0.832,0ZM6.8,7.724l2.008,0l-0.618,-1.641c-0.188,-0.498 -0.328,-0.908 -0.42,-1.228c-0.076,0.38 -0.182,0.757 -0.319,1.131l-0.651,1.738Z" style="fill:#fff;fill-rule:nonzero;" stroke-width="1"/><path d="M11.16,10.156l0,-4.291l0.654,0l0,0.65c0.167,-0.304 0.322,-0.505 0.463,-0.602c0.141,-0.097 0.297,-0.145 0.467,-0.145c0.245,0 0.494,0.078 0.747,0.234l-0.25,0.675c-0.178,-0.105 -0.356,-0.157 -0.534,-0.157c-0.159,0 -0.301,0.047 -0.428,0.143c-0.127,0.096 -0.217,0.228 -0.271,0.398c-0.08,0.259 -0.121,0.541 -0.121,0.848l0,2.247l-0.727,0Z" style="fill:#fff;fill-rule:nonzero;" stroke-width="1"/><path d="M13.79,10.511l0.707,0.106c0.03,0.218 0.112,0.377 0.247,0.476c0.18,0.135 0.427,0.202 0.739,0.202c0.337,0 0.597,-0.067 0.78,-0.202c0.183,-0.134 0.307,-0.323 0.372,-0.565c0.037,-0.148 0.055,-0.46 0.052,-0.934c-0.318,0.375 -0.714,0.562 -1.188,0.562c-0.59,0 -1.046,-0.213 -1.369,-0.638c-0.324,-0.426 -0.485,-0.937 -0.485,-1.532c0,-0.409 0.074,-0.787 0.222,-1.133c0.148,-0.346 0.363,-0.614 0.644,-0.802c0.282,-0.189 0.613,-0.283 0.992,-0.283c0.507,0 0.924,0.205 1.253,0.614l0,-0.517l0.671,0l0,3.709c0,0.668 -0.068,1.142 -0.204,1.42c-0.136,0.279 -0.352,0.499 -0.647,0.661c-0.295,0.162 -0.658,0.242 -1.089,0.242c-0.512,0 -0.925,-0.115 -1.24,-0.345c-0.315,-0.23 -0.468,-0.577 -0.457,-1.041ZM14.392,7.934c0,0.563 0.112,0.973 0.336,1.232c0.223,0.259 0.503,0.388 0.84,0.388c0.334,0 0.614,-0.129 0.84,-0.386c0.227,-0.257 0.34,-0.661 0.34,-1.21c0,-0.525 -0.117,-0.921 -0.35,-1.188c-0.233,-0.267 -0.513,-0.4 -0.842,-0.4c-0.323,0 -0.598,0.131 -0.824,0.394c-0.227,0.263 -0.34,0.653 -0.34,1.17Z" style="fill:#fff;fill-rule:nonzero;" stroke-width="1"/><path d="M18.526,10.156l0,-5.923l0.727,0l0,2.125c0.339,-0.393 0.768,-0.59 1.285,-0.59c0.318,0 0.594,0.063 0.828,0.188c0.234,0.125 0.402,0.298 0.503,0.519c0.101,0.221 0.152,0.541 0.152,0.962l0,2.719l-0.728,0l0,-2.719c0,-0.364 -0.078,-0.629 -0.236,-0.794c-0.158,-0.166 -0.381,-0.249 -0.669,-0.249c-0.215,0 -0.418,0.056 -0.608,0.168c-0.19,0.112 -0.325,0.263 -0.406,0.454c-0.081,0.192 -0.121,0.456 -0.121,0.792l0,2.348l-0.727,0Z" style="fill:#fff;fill-rule:nonzero;" stroke-width="1"/><path d="M23.128,10.156l0,-5.923l0.727,0l0,2.125c0.339,-0.393 0.768,-0.59 1.285,-0.59c0.318,0 0.594,0.063 0.828,0.188c0.234,0.125 0.402,0.298 0.503,0.519c0.101,0.221 0.152,0.541 0.152,0.962l0,2.719l-0.728,0l0,-2.719c0,-0.364 -0.078,-0.629 -0.236,-0.794c-0.158,-0.166 -0.38,-0.249 -0.669,-0.249c-0.215,0 -0.418,0.056 -0.608,0.168c-0.19,0.112 -0.325,0.263 -0.406,0.454c-0.081,0.192 -0.121,0.456 -0.121,0.792l0,2.348l-0.727,0Z" style="fill:#fff;fill-rule:nonzero;" stroke-width="1"/><path d="M27.92,10.156l0,-0.828l0.828,0l0,0.828c0,0.304 -0.054,0.55 -0.162,0.737c-0.107,0.188 -0.278,0.332 -0.513,0.435l-0.202,-0.311c0.154,-0.068 0.267,-0.167 0.34,-0.297c0.072,-0.131 0.113,-0.319 0.121,-0.564l-0.412,0Z" style="fill:#fff;fill-rule:nonzero;" stroke-width="1"/><path d="M32.332,5.069l0,-0.836l0.727,0l0,0.836l-0.727,0ZM32.332,10.156l0,-4.291l0.727,0l0,4.291l-0.727,0Z" style="fill:#fff;fill-rule:nonzero;" stroke-width="1"/><path d="M35.754,9.505l0.105,0.643c-0.205,0.043 -0.388,0.064 -0.549,0.064c-0.264,0 -0.469,-0.041 -0.614,-0.125c-0.146,-0.083 -0.248,-0.193 -0.308,-0.329c-0.059,-0.136 -0.088,-0.422 -0.088,-0.859l0,-2.468l-0.534,0l0,-0.566l0.534,0l0,-1.063l0.723,-0.436l0,1.499l0.731,0l0,0.566l-0.731,0l0,2.509c0,0.207 0.013,0.34 0.038,0.4c0.026,0.059 0.068,0.106 0.125,0.141c0.058,0.035 0.141,0.053 0.249,0.053c0.081,0 0.187,-0.01 0.319,-0.029Z" style="fill:#fff;fill-rule:nonzero;" stroke-width="1"/><path d="M36.469,6.33l-0.186,-1.107l0,-0.99l0.829,0l0,0.99l-0.194,1.107l-0.449,0Z" style="fill:#fff;fill-rule:nonzero;" stroke-width="1"/><path d="M37.754,8.875l0.719,-0.113c0.041,0.288 0.153,0.509 0.338,0.663c0.184,0.153 0.442,0.23 0.773,0.23c0.335,0 0.582,-0.068 0.744,-0.204c0.162,-0.136 0.242,-0.296 0.242,-0.479c0,-0.164 -0.071,-0.294 -0.214,-0.388c-0.099,-0.064 -0.347,-0.147 -0.743,-0.246c-0.534,-0.135 -0.903,-0.251 -1.109,-0.35c-0.206,-0.098 -0.363,-0.234 -0.469,-0.408c-0.106,-0.174 -0.16,-0.366 -0.16,-0.576c0,-0.191 0.044,-0.368 0.132,-0.531c0.087,-0.163 0.206,-0.298 0.357,-0.406c0.113,-0.084 0.268,-0.154 0.463,-0.212c0.195,-0.058 0.405,-0.087 0.628,-0.087c0.337,0 0.633,0.048 0.887,0.145c0.255,0.097 0.443,0.229 0.564,0.394c0.121,0.166 0.204,0.388 0.25,0.665l-0.711,0.097c-0.032,-0.221 -0.126,-0.393 -0.281,-0.517c-0.155,-0.124 -0.373,-0.186 -0.656,-0.186c-0.334,0 -0.573,0.055 -0.715,0.166c-0.143,0.11 -0.215,0.239 -0.215,0.388c0,0.094 0.03,0.179 0.089,0.254c0.06,0.078 0.153,0.143 0.279,0.194c0.073,0.027 0.287,0.089 0.643,0.186c0.514,0.137 0.873,0.25 1.076,0.337c0.204,0.088 0.363,0.215 0.479,0.382c0.116,0.167 0.174,0.374 0.174,0.622c0,0.243 -0.071,0.471 -0.212,0.685c-0.142,0.214 -0.346,0.38 -0.612,0.497c-0.267,0.117 -0.569,0.176 -0.905,0.176c-0.558,0 -0.983,-0.116 -1.275,-0.348c-0.292,-0.231 -0.479,-0.575 -0.56,-1.03Z" style="fill:#fff;fill-rule:nonzero;" stroke-width="1"/><path d="M44.191,8.875l0.719,-0.113c0.04,0.288 0.153,0.509 0.337,0.663c0.185,0.153 0.443,0.23 0.774,0.23c0.334,0 0.582,-0.068 0.743,-0.204c0.162,-0.136 0.243,-0.296 0.243,-0.479c0,-0.164 -0.072,-0.294 -0.214,-0.388c-0.1,-0.064 -0.348,-0.147 -0.744,-0.246c-0.533,-0.135 -0.903,-0.251 -1.109,-0.35c-0.206,-0.098 -0.362,-0.234 -0.469,-0.408c-0.106,-0.174 -0.159,-0.366 -0.159,-0.576c0,-0.191 0.044,-0.368 0.131,-0.531c0.088,-0.163 0.207,-0.298 0.358,-0.406c0.113,-0.084 0.267,-0.154 0.462,-0.212c0.196,-0.058 0.405,-0.087 0.629,-0.087c0.336,0 0.632,0.048 0.887,0.145c0.254,0.097 0.442,0.229 0.563,0.394c0.121,0.166 0.205,0.388 0.251,0.665l-0.711,0.097c-0.033,-0.221 -0.126,-0.393 -0.281,-0.517c-0.155,-0.124 -0.374,-0.186 -0.657,-0.186c-0.334,0 -0.572,0.055 -0.715,0.166c-0.143,0.11 -0.214,0.239 -0.214,0.388c0,0.094 0.03,0.179 0.089,0.254c0.059,0.078 0.152,0.143 0.279,0.194c0.072,0.027 0.286,0.089 0.642,0.186c0.514,0.137 0.873,0.25 1.077,0.337c0.203,0.088 0.363,0.215 0.479,0.382c0.115,0.167 0.173,0.374 0.173,0.622c0,0.243 -0.07,0.471 -0.212,0.685c-0.141,0.214 -0.345,0.38 -0.612,0.497c-0.267,0.117 -0.568,0.176 -0.905,0.176c-0.558,0 -0.983,-0.116 -1.275,-0.348c-0.292,-0.231 -0.479,-0.575 -0.559,-1.03Z" style="fill:#fff;fill-rule:nonzero;" stroke-width="1"/><path d="M48.348,8.01c0,-0.794 0.221,-1.383 0.663,-1.765c0.369,-0.318 0.819,-0.477 1.349,-0.477c0.59,0 1.072,0.193 1.447,0.58c0.374,0.386 0.562,0.92 0.562,1.602c0,0.552 -0.083,0.986 -0.249,1.303c-0.166,0.316 -0.407,0.562 -0.723,0.737c-0.317,0.175 -0.662,0.263 -1.037,0.263c-0.6,0 -1.086,-0.193 -1.456,-0.578c-0.371,-0.385 -0.556,-0.94 -0.556,-1.665ZM49.096,8.01c0,0.55 0.12,0.961 0.359,1.235c0.24,0.273 0.542,0.41 0.905,0.41c0.361,0 0.662,-0.137 0.901,-0.412c0.24,-0.275 0.36,-0.694 0.36,-1.257c0,-0.53 -0.121,-0.932 -0.362,-1.206c-0.241,-0.273 -0.54,-0.41 -0.899,-0.41c-0.363,0 -0.665,0.136 -0.905,0.408c-0.239,0.272 -0.359,0.683 -0.359,1.232Z" style="fill:#fff;fill-rule:nonzero;" stroke-width="1"/><path d="M55.694,10.156l0,-3.725l-0.643,0l0,-0.566l0.643,0l0,-0.457c0,-0.288 0.025,-0.502 0.077,-0.642c0.07,-0.189 0.193,-0.341 0.369,-0.459c0.177,-0.117 0.424,-0.175 0.742,-0.175c0.204,0 0.431,0.024 0.678,0.072l-0.109,0.635c-0.15,-0.027 -0.293,-0.041 -0.428,-0.041c-0.221,0 -0.377,0.047 -0.469,0.142c-0.091,0.094 -0.137,0.27 -0.137,0.529l0,0.396l0.836,0l0,0.566l-0.836,0l0,3.725l-0.723,0Z" style="fill:#fff;fill-rule:nonzero;" stroke-width="1"/><path d="M57.811,10.156l0,-4.291l0.655,0l0,0.65c0.167,-0.304 0.321,-0.505 0.462,-0.602c0.142,-0.097 0.297,-0.145 0.467,-0.145c0.245,0 0.494,0.078 0.747,0.234l-0.25,0.675c-0.178,-0.105 -0.356,-0.157 -0.533,-0.157c-0.159,0 -0.302,0.047 -0.429,0.143c-0.126,0.096 -0.217,0.228 -0.27,0.398c-0.081,0.259 -0.122,0.541 -0.122,0.848l0,2.247l-0.727,0Z" style="fill:#fff;fill-rule:nonzero;" stroke-width="1"/><path d="M63.387,10.156l0,-0.63c-0.334,0.484 -0.788,0.727 -1.362,0.727c-0.253,0 -0.489,-0.049 -0.709,-0.146c-0.219,-0.097 -0.382,-0.218 -0.489,-0.365c-0.106,-0.147 -0.181,-0.327 -0.224,-0.54c-0.03,-0.142 -0.044,-0.369 -0.044,-0.678l0,-2.659l0.727,0l0,2.38c0,0.38 0.015,0.635 0.044,0.767c0.046,0.192 0.143,0.342 0.291,0.451c0.148,0.109 0.331,0.164 0.55,0.164c0.218,0 0.423,-0.056 0.614,-0.168c0.191,-0.112 0.326,-0.264 0.406,-0.457c0.079,-0.192 0.119,-0.472 0.119,-0.838l0,-2.299l0.727,0l0,4.291l-0.65,0Z" style="fill:#fff;fill-rule:nonzero;" stroke-width="1"/><path d="M64.886,8.875l0.719,-0.113c0.04,0.288 0.153,0.509 0.337,0.663c0.185,0.153 0.443,0.23 0.774,0.23c0.334,0 0.582,-0.068 0.744,-0.204c0.161,-0.136 0.242,-0.296 0.242,-0.479c0,-0.164 -0.071,-0.294 -0.214,-0.388c-0.1,-0.064 -0.348,-0.147 -0.744,-0.246c-0.533,-0.135 -0.903,-0.251 -1.109,-0.35c-0.206,-0.098 -0.362,-0.234 -0.468,-0.408c-0.107,-0.174 -0.16,-0.366 -0.16,-0.576c0,-0.191 0.044,-0.368 0.131,-0.531c0.088,-0.163 0.207,-0.298 0.358,-0.406c0.113,-0.084 0.267,-0.154 0.463,-0.212c0.195,-0.058 0.404,-0.087 0.628,-0.087c0.337,0 0.632,0.048 0.887,0.145c0.254,0.097 0.442,0.229 0.563,0.394c0.122,0.166 0.205,0.388 0.251,0.665l-0.711,0.097c-0.033,-0.221 -0.126,-0.393 -0.281,-0.517c-0.155,-0.124 -0.374,-0.186 -0.657,-0.186c-0.334,0 -0.572,0.055 -0.715,0.166c-0.143,0.11 -0.214,0.239 -0.214,0.388c0,0.094 0.03,0.179 0.089,0.254c0.059,0.078 0.152,0.143 0.279,0.194c0.073,0.027 0.287,0.089 0.642,0.186c0.515,0.137 0.874,0.25 1.077,0.337c0.203,0.088 0.363,0.215 0.479,0.382c0.116,0.167 0.174,0.374 0.174,0.622c0,0.243 -0.071,0.471 -0.213,0.685c-0.141,0.214 -0.345,0.38 -0.612,0.497c-0.266,0.117 -0.568,0.176 -0.905,0.176c-0.557,0 -0.982,-0.116 -1.275,-0.348c-0.292,-0.231 -0.478,-0.575 -0.559,-1.03Z" style="fill:#fff;fill-rule:nonzero;" stroke-width="1"/><path d="M70.902,9.505l0.105,0.643c-0.205,0.043 -0.388,0.064 -0.549,0.064c-0.264,0 -0.469,-0.041 -0.615,-0.125c-0.145,-0.083 -0.247,-0.193 -0.307,-0.329c-0.059,-0.136 -0.088,-0.422 -0.088,-0.859l0,-2.468l-0.534,0l0,-0.566l0.534,0l0,-1.063l0.723,-0.436l0,1.499l0.731,0l0,0.566l-0.731,0l0,2.509c0,0.207 0.013,0.34 0.038,0.4c0.026,0.059 0.067,0.106 0.125,0.141c0.058,0.035 0.141,0.053 0.249,0.053c0.081,0 0.187,-0.01 0.319,-0.029Z" style="fill:#fff;fill-rule:nonzero;" stroke-width="1"/><path d="M71.605,10.156l0,-4.291l0.655,0l0,0.65c0.167,-0.304 0.321,-0.505 0.462,-0.602c0.142,-0.097 0.297,-0.145 0.467,-0.145c0.245,0 0.494,0.078 0.747,0.234l-0.25,0.675c-0.178,-0.105 -0.356,-0.157 -0.533,-0.157c-0.159,0 -0.302,0.047 -0.429,0.143c-0.126,0.096 -0.216,0.228 -0.27,0.398c-0.081,0.259 -0.122,0.541 -0.122,0.848l0,2.247l-0.727,0Z" style="fill:#fff;fill-rule:nonzero;" stroke-width="1"/><path d="M77.169,9.627c-0.27,0.229 -0.529,0.39 -0.778,0.484c-0.249,0.095 -0.516,0.142 -0.802,0.142c-0.471,0 -0.834,-0.115 -1.087,-0.346c-0.253,-0.23 -0.38,-0.524 -0.38,-0.882c0,-0.211 0.048,-0.402 0.144,-0.576c0.095,-0.174 0.221,-0.313 0.376,-0.418c0.154,-0.105 0.329,-0.185 0.523,-0.239c0.143,-0.037 0.358,-0.074 0.646,-0.109c0.587,-0.07 1.02,-0.153 1.297,-0.25c0.003,-0.1 0.004,-0.163 0.004,-0.19c0,-0.297 -0.068,-0.505 -0.206,-0.627c-0.186,-0.164 -0.462,-0.246 -0.828,-0.246c-0.342,0 -0.595,0.06 -0.758,0.18c-0.163,0.12 -0.283,0.332 -0.361,0.636l-0.711,-0.097c0.064,-0.304 0.171,-0.55 0.319,-0.737c0.148,-0.187 0.362,-0.331 0.642,-0.432c0.28,-0.102 0.605,-0.152 0.974,-0.152c0.366,0 0.664,0.043 0.893,0.129c0.229,0.086 0.397,0.195 0.505,0.326c0.108,0.13 0.183,0.295 0.226,0.495c0.024,0.123 0.037,0.347 0.037,0.67l0,0.97c0,0.676 0.015,1.104 0.046,1.283c0.031,0.179 0.092,0.351 0.184,0.515l-0.76,0c-0.075,-0.151 -0.124,-0.327 -0.145,-0.529ZM77.108,8.002c-0.264,0.108 -0.66,0.2 -1.188,0.275c-0.299,0.043 -0.51,0.092 -0.634,0.146c-0.124,0.053 -0.22,0.132 -0.287,0.236c-0.067,0.104 -0.101,0.219 -0.101,0.345c0,0.194 0.074,0.356 0.22,0.485c0.147,0.13 0.362,0.194 0.645,0.194c0.28,0 0.529,-0.061 0.747,-0.184c0.218,-0.122 0.379,-0.29 0.481,-0.503c0.078,-0.164 0.117,-0.406 0.117,-0.727l0,-0.267Z" style="fill:#fff;fill-rule:nonzero;" stroke-width="1"/><path d="M80.559,9.505l0.105,0.643c-0.205,0.043 -0.388,0.064 -0.55,0.064c-0.264,0 -0.468,-0.041 -0.614,-0.125c-0.145,-0.083 -0.248,-0.193 -0.307,-0.329c-0.059,-0.136 -0.089,-0.422 -0.089,-0.859l0,-2.468l-0.533,0l0,-0.566l0.533,0l0,-1.063l0.723,-0.436l0,1.499l0.732,0l0,0.566l-0.732,0l0,2.509c0,0.207 0.013,0.34 0.039,0.4c0.025,0.059 0.067,0.106 0.125,0.141c0.058,0.035 0.141,0.053 0.249,0.053c0.08,0 0.187,-0.01 0.319,-0.029Z" style="fill:#fff;fill-rule:nonzero;" stroke-width="1"/><path d="M81.274,5.069l0,-0.836l0.727,0l0,0.836l-0.727,0ZM81.274,10.156l0,-4.291l0.727,0l0,4.291l-0.727,0Z" style="fill:#fff;fill-rule:nonzero;" stroke-width="1"/><path d="M83.108,10.156l0,-4.291l0.655,0l0,0.61c0.315,-0.471 0.77,-0.707 1.366,-0.707c0.258,0 0.496,0.046 0.713,0.139c0.217,0.093 0.379,0.215 0.487,0.366c0.107,0.151 0.183,0.33 0.226,0.537c0.027,0.135 0.04,0.371 0.04,0.708l0,2.638l-0.727,0l0,-2.61c0,-0.297 -0.028,-0.518 -0.085,-0.665c-0.056,-0.147 -0.157,-0.264 -0.301,-0.351c-0.144,-0.088 -0.313,-0.132 -0.507,-0.132c-0.31,0 -0.577,0.099 -0.802,0.295c-0.225,0.197 -0.337,0.57 -0.337,1.119l0,2.344l-0.728,0Z" style="fill:#fff;fill-rule:nonzero;" stroke-width="1"/><path d="M87.577,10.511l0.707,0.106c0.03,0.218 0.112,0.377 0.247,0.476c0.18,0.135 0.427,0.202 0.739,0.202c0.337,0 0.597,-0.067 0.78,-0.202c0.183,-0.134 0.307,-0.323 0.372,-0.565c0.037,-0.148 0.055,-0.46 0.052,-0.934c-0.318,0.375 -0.714,0.562 -1.188,0.562c-0.59,0 -1.046,-0.213 -1.37,-0.638c-0.323,-0.426 -0.484,-0.937 -0.484,-1.532c0,-0.409 0.074,-0.787 0.222,-1.133c0.148,-0.346 0.363,-0.614 0.644,-0.802c0.282,-0.189 0.612,-0.283 0.992,-0.283c0.507,0 0.924,0.205 1.253,0.614l0,-0.517l0.67,0l0,3.709c0,0.668 -0.068,1.142 -0.204,1.42c-0.136,0.279 -0.351,0.499 -0.646,0.661c-0.295,0.162 -0.658,0.242 -1.089,0.242c-0.512,0 -0.925,-0.115 -1.24,-0.345c-0.316,-0.23 -0.468,-0.577 -0.457,-1.041ZM88.179,7.934c0,0.563 0.112,0.973 0.335,1.232c0.224,0.259 0.504,0.388 0.841,0.388c0.334,0 0.614,-0.129 0.84,-0.386c0.227,-0.257 0.34,-0.661 0.34,-1.21c0,-0.525 -0.117,-0.921 -0.35,-1.188c-0.233,-0.267 -0.514,-0.4 -0.842,-0.4c-0.323,0 -0.598,0.131 -0.825,0.394c-0.226,0.263 -0.339,0.653 -0.339,1.17Z" style="fill:#fff;fill-rule:nonzero;" stroke-width="1"/><path d="M92.7,8.685l-0.222,-3.139l0,-1.313l0.901,0l0,1.313l-0.21,3.139l-0.469,0ZM92.51,10.156l0,-0.828l0.837,0l0,0.828l-0.837,0Z" style="fill:#fff;fill-rule:nonzero;" stroke-width="1"/><path d="M94.999,8.685l-0.222,-3.139l0,-1.313l0.901,0l0,1.313l-0.21,3.139l-0.469,0ZM94.809,10.156l0,-0.828l0.837,0l0,0.828l-0.837,0Z" style="fill:#fff;fill-rule:nonzero;" stroke-width="1"/><path d="M97.298,8.685l-0.222,-3.139l0,-1.313l0.901,0l0,1.313l-0.21,3.139l-0.469,0ZM97.109,10.156l0,-0.828l0.836,0l0,0.828l-0.836,0Z" style="fill:#fff;fill-rule:nonzero;" stroke-width="1"/></g></svg>