<svg version="1.1" width="481" height="361" viewBox="-0.5 -0.5 481 361" xmlns="http://www.w3.org/2000/svg" xmlns:xlink="http://www.w3.org/1999/xlink">
  <!-- Exported by Scratch - http://scratch.mit.edu/ -->
  <g id="ID0.8937063901685178">
    <path id="ID0.7027639378793538" fill="#6FD57E" d="M 0 0 L 480 0 L 480 360 L 0 360 L 0 0 Z " stroke-width="1"/>
    <path id="ID0.5617261584848166" fill="#fff" d="M 151.451 224.468 L 151.451 211.886 L 156.797 211.886 C 158.142 211.886 159.119 211.999 159.728 212.225 C 160.337 212.451 160.825 212.853 161.191 213.431 C 161.557 214.009 161.740 214.670 161.740 215.414 C 161.740 216.358 161.463 217.137 160.908 217.752 C 160.353 218.367 159.523 218.755 158.419 218.915 C 158.968 219.235 159.422 219.587 159.779 219.971 C 160.137 220.354 160.619 221.035 161.226 222.013 L 162.762 224.468 L 159.724 224.468 L 157.887 221.730 C 157.235 220.752 156.789 220.135 156.548 219.880 C 156.308 219.626 156.053 219.451 155.785 219.357 C 155.516 219.263 155.089 219.215 154.506 219.215 L 153.991 219.215 L 153.991 224.468 L 151.451 224.468 Z M 153.991 217.207 L 155.870 217.207 C 157.089 217.207 157.850 217.156 158.153 217.053 C 158.456 216.950 158.694 216.772 158.866 216.521 C 159.037 216.269 159.123 215.954 159.123 215.577 C 159.123 215.153 159.010 214.811 158.784 214.551 C 158.558 214.291 158.239 214.126 157.827 214.058 C 157.621 214.029 157.003 214.015 155.973 214.015 L 153.991 214.015 L 153.991 217.207 Z " stroke-width="1"/>
    <path id="ID0.8010227265767753" fill="#fff" d="M 169.396 221.567 L 171.799 221.970 C 171.490 222.851 171.002 223.522 170.335 223.983 C 169.669 224.443 168.835 224.674 167.834 224.674 C 166.249 224.674 165.076 224.156 164.315 223.120 C 163.714 222.291 163.414 221.244 163.414 219.979 C 163.414 218.469 163.809 217.286 164.598 216.430 C 165.388 215.575 166.386 215.147 167.593 215.147 C 168.949 215.147 170.019 215.595 170.803 216.491 C 171.587 217.386 171.962 218.758 171.927 220.606 L 165.886 220.606 C 165.903 221.321 166.097 221.877 166.469 222.275 C 166.841 222.672 167.304 222.871 167.859 222.871 C 168.237 222.871 168.555 222.768 168.812 222.562 C 169.070 222.356 169.264 222.025 169.396 221.567 Z M 169.533 219.130 C 169.516 218.432 169.336 217.901 168.992 217.538 C 168.649 217.174 168.231 216.993 167.739 216.993 C 167.213 216.993 166.778 217.184 166.435 217.568 C 166.092 217.951 165.923 218.472 165.929 219.130 L 169.533 219.130 Z " stroke-width="1"/>
    <path id="ID0.0156415612436831" fill="#fff" d="M 178.072 215.353 L 178.072 217.276 L 176.424 217.276 L 176.424 220.949 C 176.424 221.693 176.440 222.126 176.472 222.249 C 176.503 222.372 176.575 222.474 176.686 222.554 C 176.798 222.634 176.934 222.674 177.094 222.674 C 177.317 222.674 177.640 222.597 178.063 222.442 L 178.269 224.313 C 177.709 224.553 177.074 224.674 176.364 224.674 C 175.929 224.674 175.538 224.601 175.189 224.455 C 174.840 224.309 174.583 224.120 174.420 223.888 C 174.257 223.657 174.144 223.343 174.081 222.949 C 174.030 222.668 174.004 222.102 174.004 221.249 L 174.004 217.276 L 172.897 217.276 L 172.897 215.353 L 174.004 215.353 L 174.004 213.543 L 176.424 212.135 L 176.424 215.353 L 178.072 215.353 Z " stroke-width="1"/>
    <path id="ID0.27058091247454286" fill="#fff" d="M 185.744 224.468 L 185.744 223.103 C 185.413 223.589 184.976 223.973 184.436 224.253 C 183.895 224.533 183.324 224.674 182.724 224.674 C 182.111 224.674 181.562 224.539 181.076 224.270 C 180.589 224.001 180.238 223.624 180.020 223.137 C 179.803 222.651 179.694 221.979 179.694 221.121 L 179.694 215.353 L 182.106 215.353 L 182.106 219.541 C 182.106 220.823 182.150 221.608 182.239 221.897 C 182.327 222.186 182.489 222.415 182.724 222.584 C 182.958 222.753 183.256 222.837 183.616 222.837 C 184.028 222.837 184.397 222.724 184.723 222.498 C 185.049 222.272 185.272 221.992 185.393 221.657 C 185.513 221.322 185.573 220.503 185.573 219.198 L 185.573 215.353 L 187.984 215.353 L 187.984 224.468 L 185.744 224.468 Z " stroke-width="1"/>
    <path id="ID0.44073260901495814" fill="#fff" d="M 192.790 224.468 L 190.379 224.468 L 190.379 215.353 L 192.619 215.353 L 192.619 216.649 C 193.002 216.037 193.347 215.634 193.653 215.439 C 193.959 215.245 194.306 215.147 194.695 215.147 C 195.245 215.147 195.774 215.299 196.283 215.602 L 195.537 217.705 C 195.130 217.442 194.753 217.310 194.404 217.310 C 194.066 217.310 193.780 217.403 193.545 217.589 C 193.311 217.775 193.126 218.111 192.992 218.597 C 192.857 219.084 192.790 220.102 192.790 221.653 L 192.790 224.468 Z " stroke-width="1"/>
    <path id="ID0.17356516886502504" fill="#fff" d="M 205.612 224.468 L 203.200 224.468 L 203.200 219.816 C 203.200 218.832 203.149 218.196 203.046 217.907 C 202.943 217.618 202.775 217.393 202.544 217.233 C 202.312 217.073 202.033 216.993 201.707 216.993 C 201.289 216.993 200.915 217.107 200.583 217.336 C 200.251 217.565 200.023 217.868 199.900 218.246 C 199.777 218.623 199.716 219.321 199.716 220.340 L 199.716 224.468 L 197.304 224.468 L 197.304 215.353 L 199.544 215.353 L 199.544 216.692 C 200.340 215.662 201.341 215.147 202.548 215.147 C 203.080 215.147 203.566 215.243 204.007 215.435 C 204.448 215.627 204.781 215.871 205.007 216.169 C 205.233 216.466 205.390 216.804 205.479 217.181 C 205.567 217.559 205.612 218.100 205.612 218.803 L 205.612 224.468 Z " stroke-width="1"/>
    <path id="ID0.23440034547820687" fill="#fff" d="M 208.058 214.118 L 208.058 211.886 L 210.469 211.886 L 210.469 214.118 L 208.058 214.118 Z M 208.058 224.468 L 208.058 215.353 L 210.469 215.353 L 210.469 224.468 L 208.058 224.468 Z " stroke-width="1"/>
    <path id="ID0.09621893707662821" fill="#fff" d="M 221.231 224.468 L 218.820 224.468 L 218.820 219.816 C 218.820 218.832 218.768 218.196 218.665 217.907 C 218.562 217.618 218.395 217.393 218.163 217.233 C 217.931 217.073 217.652 216.993 217.326 216.993 C 216.909 216.993 216.534 217.107 216.202 217.336 C 215.870 217.565 215.643 217.868 215.520 218.246 C 215.397 218.623 215.335 219.321 215.335 220.340 L 215.335 224.468 L 212.924 224.468 L 212.924 215.353 L 215.164 215.353 L 215.164 216.692 C 215.959 215.662 216.960 215.147 218.167 215.147 C 218.699 215.147 219.186 215.243 219.626 215.435 C 220.067 215.627 220.400 215.871 220.626 216.169 C 220.852 216.466 221.009 216.804 221.098 217.181 C 221.187 217.559 221.231 218.100 221.231 218.803 L 221.231 224.468 Z " stroke-width="1"/>
    <path id="ID0.9433350078761578" fill="#fff" d="M 223.454 225.068 L 226.209 225.403 C 226.254 225.723 226.360 225.944 226.526 226.064 C 226.755 226.235 227.116 226.321 227.608 226.321 C 228.237 226.321 228.709 226.227 229.024 226.038 C 229.235 225.912 229.395 225.709 229.504 225.429 C 229.579 225.229 229.616 224.859 229.616 224.322 L 229.616 222.991 C 228.895 223.976 227.985 224.468 226.887 224.468 C 225.662 224.468 224.693 223.950 223.977 222.914 C 223.417 222.096 223.136 221.078 223.136 219.859 C 223.136 218.331 223.504 217.164 224.239 216.358 C 224.974 215.551 225.888 215.147 226.981 215.147 C 228.108 215.147 229.038 215.642 229.770 216.632 L 229.770 215.353 L 232.027 215.353 L 232.027 223.532 C 232.027 224.608 231.939 225.412 231.761 225.944 C 231.584 226.476 231.335 226.893 231.015 227.197 C 230.694 227.500 230.267 227.737 229.732 227.909 C 229.197 228.081 228.520 228.166 227.702 228.166 C 226.157 228.166 225.062 227.902 224.415 227.373 C 223.769 226.843 223.445 226.173 223.445 225.360 C 223.445 225.280 223.448 225.183 223.454 225.068 Z M 225.608 219.722 C 225.608 220.689 225.795 221.397 226.170 221.846 C 226.545 222.295 227.007 222.519 227.556 222.519 C 228.145 222.519 228.643 222.289 229.049 221.829 C 229.456 221.368 229.659 220.686 229.659 219.782 C 229.659 218.838 229.464 218.137 229.075 217.679 C 228.686 217.221 228.194 216.993 227.599 216.993 C 227.021 216.993 226.545 217.217 226.170 217.666 C 225.795 218.115 225.608 218.801 225.608 219.722 Z " stroke-width="1"/>
    <path id="ID0.3109584623016417" fill="#fff" d="M 243.476 215.353 L 243.476 217.276 L 241.828 217.276 L 241.828 220.949 C 241.828 221.693 241.844 222.126 241.875 222.249 C 241.907 222.372 241.978 222.474 242.090 222.554 C 242.201 222.634 242.337 222.674 242.497 222.674 C 242.721 222.674 243.044 222.597 243.467 222.442 L 243.673 224.313 C 243.112 224.553 242.477 224.674 241.768 224.674 C 241.333 224.674 240.941 224.601 240.592 224.455 C 240.243 224.309 239.987 224.120 239.824 223.888 C 239.661 223.657 239.548 223.343 239.485 222.949 C 239.434 222.668 239.408 222.102 239.408 221.249 L 239.408 217.276 L 238.301 217.276 L 238.301 215.353 L 239.408 215.353 L 239.408 213.543 L 241.828 212.135 L 241.828 215.353 L 243.476 215.353 Z " stroke-width="1"/>
    <path id="ID0.3410368491895497" fill="#fff" d="M 244.591 219.782 C 244.591 218.981 244.789 218.206 245.184 217.456 C 245.578 216.707 246.138 216.134 246.861 215.740 C 247.585 215.345 248.393 215.147 249.286 215.147 C 250.665 215.147 251.795 215.595 252.676 216.491 C 253.557 217.386 253.997 218.517 253.997 219.885 C 253.997 221.264 253.552 222.406 252.663 223.313 C 251.773 224.220 250.653 224.674 249.303 224.674 C 248.468 224.674 247.671 224.485 246.913 224.107 C 246.155 223.730 245.578 223.176 245.184 222.446 C 244.789 221.717 244.591 220.829 244.591 219.782 Z M 247.063 219.911 C 247.063 220.814 247.278 221.507 247.707 221.987 C 248.136 222.468 248.665 222.708 249.294 222.708 C 249.924 222.708 250.451 222.468 250.878 221.987 C 251.304 221.507 251.517 220.809 251.517 219.893 C 251.517 219.001 251.304 218.314 250.878 217.834 C 250.451 217.353 249.924 217.113 249.294 217.113 C 248.665 217.113 248.136 217.353 247.707 217.834 C 247.278 218.314 247.063 219.007 247.063 219.911 Z " stroke-width="1"/>
    <path id="ID0.09918720414862037" fill="#fff" d="M 260.794 211.886 L 265.823 211.886 C 266.819 211.886 267.561 211.928 268.050 212.011 C 268.540 212.094 268.977 212.267 269.363 212.530 C 269.750 212.793 270.071 213.144 270.329 213.581 C 270.586 214.019 270.715 214.510 270.715 215.053 C 270.715 215.642 270.556 216.183 270.239 216.675 C 269.921 217.167 269.491 217.536 268.947 217.782 C 269.714 218.005 270.303 218.386 270.715 218.924 C 271.127 219.461 271.333 220.094 271.333 220.820 C 271.333 221.392 271.200 221.949 270.934 222.489 C 270.668 223.030 270.305 223.462 269.844 223.785 C 269.383 224.109 268.816 224.307 268.140 224.382 C 267.717 224.428 266.696 224.456 265.077 224.468 L 260.794 224.468 L 260.794 211.886 Z M 263.335 213.980 L 263.335 216.890 L 264.999 216.890 C 265.989 216.890 266.604 216.875 266.845 216.847 C 267.279 216.795 267.621 216.645 267.870 216.396 C 268.119 216.147 268.243 215.820 268.243 215.414 C 268.243 215.024 268.136 214.708 267.922 214.465 C 267.707 214.222 267.388 214.075 266.965 214.023 C 266.713 213.995 265.989 213.980 264.793 213.980 L 263.335 213.980 Z M 263.335 218.984 L 263.335 222.348 L 265.686 222.348 C 266.601 222.348 267.182 222.322 267.428 222.271 C 267.806 222.202 268.113 222.035 268.351 221.769 C 268.588 221.502 268.707 221.146 268.707 220.700 C 268.707 220.322 268.615 220.002 268.432 219.739 C 268.249 219.476 267.985 219.284 267.638 219.164 C 267.292 219.044 266.541 218.984 265.386 218.984 L 263.335 218.984 Z " stroke-width="1"/>
    <path id="ID0.42378300800919533" fill="#fff" d="M 275.770 224.468 L 273.358 224.468 L 273.358 215.353 L 275.598 215.353 L 275.598 216.649 C 275.982 216.037 276.326 215.634 276.632 215.439 C 276.938 215.245 277.286 215.147 277.675 215.147 C 278.224 215.147 278.754 215.299 279.263 215.602 L 278.516 217.705 C 278.110 217.442 277.732 217.310 277.383 217.310 C 277.046 217.310 276.760 217.403 276.525 217.589 C 276.291 217.775 276.106 218.111 275.972 218.597 C 275.837 219.084 275.770 220.102 275.770 221.653 L 275.770 224.468 Z " stroke-width="1"/>
    <path id="ID0.09130411734804511" fill="#fff" d="M 279.743 219.782 C 279.743 218.981 279.941 218.206 280.336 217.456 C 280.730 216.707 281.290 216.134 282.013 215.740 C 282.737 215.345 283.545 215.147 284.438 215.147 C 285.817 215.147 286.947 215.595 287.828 216.491 C 288.709 217.386 289.149 218.517 289.149 219.885 C 289.149 221.264 288.704 222.406 287.815 223.313 C 286.925 224.220 285.805 224.674 284.455 224.674 C 283.620 224.674 282.823 224.485 282.065 224.107 C 281.307 223.730 280.730 223.176 280.336 222.446 C 279.941 221.717 279.743 220.829 279.743 219.782 Z M 282.215 219.911 C 282.215 220.814 282.430 221.507 282.859 221.987 C 283.288 222.468 283.817 222.708 284.446 222.708 C 285.076 222.708 285.603 222.468 286.030 221.987 C 286.456 221.507 286.669 220.809 286.669 219.893 C 286.669 219.001 286.456 218.314 286.030 217.834 C 285.603 217.353 285.076 217.113 284.446 217.113 C 283.817 217.113 283.288 217.353 282.859 217.834 C 282.430 218.314 282.215 219.007 282.215 219.911 Z " stroke-width="1"/>
    <path id="ID0.8441111310385168" fill="#fff" d="M 292.737 224.468 L 289.853 215.353 L 292.196 215.353 L 293.904 221.327 L 295.474 215.353 L 297.800 215.353 L 299.319 221.327 L 301.061 215.353 L 303.438 215.353 L 300.512 224.468 L 298.195 224.468 L 296.624 218.606 L 295.079 224.468 L 292.737 224.468 Z " stroke-width="1"/>
    <path id="ID0.1585668339394033" fill="#fff" d="M 303.859 221.867 L 306.279 221.498 C 306.382 221.967 306.591 222.323 306.905 222.567 C 307.220 222.810 307.661 222.931 308.227 222.931 C 308.851 222.931 309.320 222.817 309.635 222.588 C 309.846 222.428 309.952 222.213 309.952 221.944 C 309.952 221.761 309.895 221.610 309.780 221.490 C 309.660 221.375 309.391 221.269 308.974 221.172 C 307.029 220.743 305.796 220.351 305.275 219.996 C 304.554 219.504 304.194 218.821 304.194 217.945 C 304.194 217.156 304.505 216.492 305.129 215.954 C 305.753 215.416 306.720 215.147 308.030 215.147 C 309.277 215.147 310.204 215.351 310.810 215.757 C 311.417 216.163 311.834 216.764 312.063 217.559 L 309.789 217.980 C 309.692 217.625 309.507 217.353 309.236 217.164 C 308.964 216.975 308.576 216.881 308.073 216.881 C 307.438 216.881 306.983 216.970 306.708 217.147 C 306.525 217.273 306.433 217.436 306.433 217.636 C 306.433 217.808 306.514 217.954 306.674 218.074 C 306.891 218.234 307.642 218.460 308.927 218.752 C 310.211 219.044 311.108 219.401 311.617 219.825 C 312.121 220.254 312.372 220.852 312.372 221.618 C 312.372 222.454 312.023 223.172 311.325 223.772 C 310.627 224.373 309.595 224.674 308.227 224.674 C 306.986 224.674 306.003 224.422 305.279 223.918 C 304.555 223.415 304.082 222.731 303.859 221.867 Z " stroke-width="1"/>
    <path id="ID0.7245586304925382" fill="#fff" d="M 319.761 221.567 L 322.164 221.970 C 321.855 222.851 321.368 223.522 320.701 223.983 C 320.035 224.443 319.201 224.674 318.199 224.674 C 316.615 224.674 315.442 224.156 314.681 223.120 C 314.080 222.291 313.780 221.244 313.780 219.979 C 313.780 218.469 314.174 217.286 314.964 216.430 C 315.754 215.575 316.752 215.147 317.959 215.147 C 319.315 215.147 320.385 215.595 321.169 216.491 C 321.953 217.386 322.327 218.758 322.293 220.606 L 316.251 220.606 C 316.268 221.321 316.463 221.877 316.835 222.275 C 317.207 222.672 317.670 222.871 318.225 222.871 C 318.603 222.871 318.920 222.768 319.178 222.562 C 319.435 222.356 319.630 222.025 319.761 221.567 Z M 319.899 219.130 C 319.882 218.432 319.701 217.901 319.358 217.538 C 319.015 217.174 318.597 216.993 318.105 216.993 C 317.579 216.993 317.144 217.184 316.801 217.568 C 316.457 217.951 316.289 218.472 316.294 219.130 L 319.899 219.130 Z " stroke-width="1"/>
    <path id="ID0.6795107354409993" fill="#fff" d="M 326.567 224.468 L 324.155 224.468 L 324.155 215.353 L 326.395 215.353 L 326.395 216.649 C 326.779 216.037 327.123 215.634 327.429 215.439 C 327.736 215.245 328.083 215.147 328.472 215.147 C 329.021 215.147 329.551 215.299 330.060 215.602 L 329.313 217.705 C 328.907 217.442 328.529 217.310 328.180 217.310 C 327.843 217.310 327.557 217.403 327.322 217.589 C 327.088 217.775 326.903 218.111 326.769 218.597 C 326.634 219.084 326.567 220.102 326.567 221.653 L 326.567 224.468 Z " stroke-width="1"/>
    <path id="ID0.7314573246985674" fill="#fff" d="M 273.525 158.230 C 279.447 158.230 284.813 160.635 288.699 164.521 C 292.585 168.407 294.990 173.773 294.990 179.695 C 294.990 185.617 292.585 190.983 288.699 194.869 C 284.813 198.755 279.447 201.160 273.525 201.160 C 267.603 201.160 262.237 198.755 258.351 194.869 C 254.465 190.983 252.060 185.617 252.060 179.695 C 252.060 173.773 254.465 168.407 258.351 164.521 C 262.237 160.635 267.603 158.230 273.525 158.230 Z " stroke-width="1"/>
    <path id="ID0.6526131420396268" fill="#fff" d="M 231.278 169.400 C 235.659 169.400 239.629 171.179 242.504 174.054 C 245.379 176.929 247.158 180.899 247.158 185.280 C 247.158 189.661 245.379 193.631 242.504 196.506 C 239.629 199.381 235.659 201.160 231.278 201.160 C 226.897 201.160 222.927 199.381 220.052 196.506 C 217.177 193.631 215.398 189.661 215.398 185.280 C 215.398 180.899 217.177 176.929 220.052 174.054 C 222.927 171.179 226.897 169.400 231.278 169.400 Z " stroke-width="1"/>
    <path id="ID0.9515065089799464" fill="#fff" d="M 196.758 177.665 C 199.999 177.665 202.936 178.981 205.063 181.108 C 207.190 183.235 208.506 186.172 208.506 189.413 C 208.506 192.654 207.190 195.591 205.063 197.718 C 202.936 199.845 199.999 201.161 196.758 201.161 C 193.517 201.161 190.580 199.845 188.453 197.718 C 186.326 195.591 185.010 192.654 185.010 189.413 C 185.010 186.172 186.326 183.235 188.453 181.108 C 190.580 178.981 193.517 177.665 196.758 177.665 Z " stroke-width="1"/>
  </g>
</svg>