<svg version="1.1" width="25.78322982788086" height="25.78322982788086" viewBox="0.11033493280410767 0.13533496856689453 25.78322982788086 25.78322982788086" xmlns="http://www.w3.org/2000/svg" xmlns:xlink="http://www.w3.org/1999/xlink">
  <!-- Exported by Scratch - http://scratch.mit.edu/ -->
  <g id="ID0.5664191716350615">
    <path id="ID0.07273625116795301" fill="white" d="M 13.0019 0.651 C 16.4167 0.651 19.5106 2.0381 21.7507 4.2781 C 23.9907 6.5182 25.3779 9.6122 25.3779 13.0269 C 25.3779 16.4417 23.9907 19.5356 21.7507 21.7757 C 19.5106 24.0157 16.4167 25.4029 13.0019 25.4029 C 9.5872 25.4029 6.4932 24.0157 4.2531 21.7757 C 2.0131 19.5356 0.626 16.4417 0.626 13.0269 C 0.626 9.6122 2.0131 6.5182 4.2531 4.2781 C 6.4932 2.0381 9.5872 0.651 13.0019 0.651 Z " stroke-width="1.0313301086425781"/>
  </g>
  <g id="Note">
    <g id="ID0.7406596662476659">
      <path id="ID0.04561008932068944" fill="rgb(101,168,231)" d="M 9.8447 7.9921 L 9.8447 15.3499 C 9.4811 15.1404 9.0621 15.0109 8.6123 15.0109 C 7.2504 15.0109 6.2983 16.411 7.1475 17.4759 C 8.2715 18.8845 11.0772 18.8377 11.0772 17.4759 L 11.0772 10.457 L 17.5753 9.4569 L 17.5753 6.992 L 9.8447 7.9921 Z " stroke-width="0.6162266135215759"/>
    </g>
    <g id="ID0.2533802194520831">
      <path id="ID0.48850278183817863" fill="rgb(101,168,231)" d="M 16.3287 8.8326 L 16.3447 14.2499 C 15.9811 14.0404 15.5621 13.9109 15.1123 13.9109 C 13.7504 13.9109 12.8304 15.2864 13.6475 16.3759 C 14.8208 17.9405 17.5772 17.7377 17.5772 16.3759 L 17.5772 8.8326 L 16.3287 8.8326 Z " stroke-width="0.6162266135215759"/>
    </g>
  </g>
<defs/></svg>