<svg version="1.1" width="128.74400329589844" height="99.35799407958984" viewBox="-1.1229999959468842 -1.2290000021457672 128.74400329589844 99.35799407958984" xmlns="http://www.w3.org/2000/svg" xmlns:xlink="http://www.w3.org/1999/xlink">
  <!-- Exported by Scratch - http://scratch.mit.edu/ -->
  <g id="Icon">
    <g id="Cloud">
      <path id="ID0.2741390857845545" fill="#fff" d="M 43.234 11.074 C 49.019 4.455 57.522 0.271 66.994 0.271 C 83.400 0.271 96.897 12.820 98.403 28.835 C 98.449 28.834 98.496 28.834 98.542 28.834 C 109.276 28.834 117.990 37.548 117.990 48.282 C 117.990 58.928 109.417 67.588 98.803 67.727 L 98.803 67.729 L 28.768 67.729 C 17.311 67.729 8.010 58.428 8.010 46.971 C 8.010 37.359 14.557 29.264 23.431 26.907 C 23.424 26.710 23.420 26.512 23.420 26.313 C 23.420 17.612 30.484 10.548 39.185 10.548 C 40.584 10.548 41.941 10.731 43.234 11.074 Z " stroke-width="1"/>
      <g id="Face (Group)">
        <path id="ID0.5380451334640384" fill="#6FD57E" d="M 48.971 31.169 C 49.944 31.169 50.826 31.564 51.465 32.203 C 52.104 32.842 52.499 33.724 52.499 34.697 C 52.499 35.670 52.104 36.552 51.465 37.191 C 50.826 37.830 49.944 38.225 48.971 38.225 C 47.998 38.225 47.116 37.830 46.477 37.191 C 45.838 36.552 45.443 35.670 45.443 34.697 C 45.443 33.724 45.838 32.842 46.477 32.203 C 47.116 31.564 47.998 31.169 48.971 31.169 Z " stroke-width="1"/>
        <path id="ID0.33779674861580133" fill="#6FD57E" d="M 74.624 31.169 C 75.597 31.169 76.479 31.564 77.118 32.203 C 77.757 32.842 78.152 33.724 78.152 34.697 C 78.152 35.670 77.757 36.552 77.118 37.191 C 76.479 37.830 75.597 38.225 74.624 38.225 C 73.651 38.225 72.769 37.830 72.130 37.191 C 71.491 36.552 71.096 35.670 71.096 34.697 C 71.096 33.724 71.491 32.842 72.130 32.203 C 72.769 31.564 73.651 31.169 74.624 31.169 Z " stroke-width="1"/>
        <path id="ID0.592732276301831" fill="none" stroke="#6FD57E" stroke-width="3" d="M 52.531 49.486 C 52.531 49.486 55.897 52.620 61.694 52.620 C 67.491 52.620 71.096 49.486 71.096 49.486 "/>
      </g>
    </g>
    <path id="ID0.6790881380438805" fill="#fff" d="M 0.377 92.931 L 0.377 80.452 L 2.917 80.452 L 2.917 90.811 L 9.234 90.811 L 9.234 92.931 L 0.377 92.931 Z " stroke-width="1"/>
    <path id="ID0.3033092259429395" fill="#fff" d="M 10.469 88.245 C 10.469 87.444 10.667 86.669 11.062 85.919 C 11.456 85.170 12.016 84.597 12.739 84.203 C 13.463 83.808 14.271 83.611 15.164 83.611 C 16.543 83.611 17.673 84.058 18.554 84.954 C 19.435 85.849 19.875 86.980 19.875 88.348 C 19.875 89.727 19.430 90.869 18.541 91.776 C 17.651 92.683 16.531 93.137 15.181 93.137 C 14.346 93.137 13.549 92.948 12.791 92.570 C 12.033 92.193 11.456 91.639 11.062 90.910 C 10.667 90.180 10.469 89.292 10.469 88.245 Z M 12.941 88.374 C 12.941 89.278 13.156 89.970 13.585 90.450 C 14.014 90.931 14.543 91.171 15.172 91.171 C 15.802 91.171 16.329 90.931 16.756 90.450 C 17.182 89.970 17.395 89.272 17.395 88.356 C 17.395 87.464 17.182 86.777 16.756 86.297 C 16.329 85.816 15.802 85.576 15.172 85.576 C 14.543 85.576 14.014 85.816 13.585 86.297 C 13.156 86.777 12.941 87.470 12.941 88.374 Z " stroke-width="1"/>
    <path id="ID0.8201872021891177" fill="#fff" d="M 23.566 86.597 L 21.377 86.202 C 21.623 85.321 22.047 84.669 22.647 84.246 C 23.248 83.822 24.141 83.611 25.325 83.611 C 26.401 83.611 27.201 83.738 27.728 83.992 C 28.254 84.247 28.625 84.570 28.839 84.962 C 29.054 85.354 29.161 86.074 29.161 87.121 L 29.135 89.935 C 29.135 90.736 29.174 91.327 29.251 91.708 C 29.328 92.088 29.473 92.496 29.685 92.931 L 27.299 92.931 C 27.236 92.770 27.159 92.533 27.067 92.218 C 27.027 92.075 26.998 91.981 26.981 91.935 C 26.569 92.336 26.129 92.636 25.660 92.836 C 25.190 93.036 24.690 93.137 24.158 93.137 C 23.219 93.137 22.480 92.882 21.939 92.373 C 21.399 91.864 21.128 91.220 21.128 90.442 C 21.128 89.927 21.251 89.468 21.497 89.064 C 21.743 88.661 22.088 88.352 22.531 88.138 C 22.975 87.923 23.614 87.736 24.450 87.575 C 25.577 87.364 26.358 87.166 26.792 86.983 L 26.792 86.743 C 26.792 86.280 26.678 85.949 26.449 85.752 C 26.220 85.554 25.788 85.456 25.153 85.456 C 24.724 85.456 24.389 85.540 24.149 85.709 C 23.909 85.878 23.714 86.174 23.566 86.597 Z M 26.792 88.554 C 26.483 88.657 25.994 88.780 25.325 88.923 C 24.655 89.066 24.218 89.206 24.012 89.343 C 23.697 89.566 23.540 89.850 23.540 90.193 C 23.540 90.531 23.666 90.822 23.917 91.068 C 24.169 91.314 24.490 91.437 24.879 91.437 C 25.313 91.437 25.728 91.294 26.123 91.008 C 26.415 90.791 26.606 90.525 26.698 90.210 C 26.761 90.004 26.792 89.612 26.792 89.034 L 26.792 88.554 Z " stroke-width="1"/>
    <path id="ID0.6441136039793491" fill="#fff" d="M 39.897 92.931 L 37.657 92.931 L 37.657 91.592 C 37.285 92.112 36.846 92.500 36.340 92.755 C 35.834 93.009 35.323 93.137 34.808 93.137 C 33.761 93.137 32.864 92.715 32.118 91.871 C 31.371 91.027 30.998 89.850 30.998 88.339 C 30.998 86.794 31.361 85.620 32.088 84.816 C 32.814 84.012 33.732 83.611 34.842 83.611 C 35.861 83.611 36.742 84.034 37.486 84.881 L 37.486 80.349 L 39.897 80.349 L 39.897 92.931 Z M 33.461 88.176 C 33.461 89.149 33.595 89.853 33.864 90.287 C 34.253 90.917 34.797 91.231 35.495 91.231 C 36.050 91.231 36.522 90.995 36.911 90.523 C 37.300 90.051 37.494 89.346 37.494 88.408 C 37.494 87.361 37.305 86.607 36.928 86.147 C 36.550 85.686 36.067 85.456 35.477 85.456 C 34.905 85.456 34.426 85.683 34.040 86.138 C 33.654 86.593 33.461 87.272 33.461 88.176 Z " stroke-width="1"/>
    <path id="ID0.9756484432145953" fill="#fff" d="M 42.274 82.581 L 42.274 80.349 L 44.686 80.349 L 44.686 82.581 L 42.274 82.581 Z M 42.274 92.931 L 42.274 83.816 L 44.686 83.816 L 44.686 92.931 L 42.274 92.931 Z " stroke-width="1"/>
    <path id="ID0.7818933939561248" fill="#fff" d="M 55.448 92.931 L 53.036 92.931 L 53.036 88.279 C 53.036 87.295 52.985 86.659 52.882 86.370 C 52.779 86.081 52.611 85.856 52.380 85.696 C 52.148 85.536 51.869 85.456 51.543 85.456 C 51.125 85.456 50.751 85.570 50.419 85.799 C 50.087 86.028 49.859 86.331 49.736 86.709 C 49.613 87.086 49.552 87.784 49.552 88.803 L 49.552 92.931 L 47.140 92.931 L 47.140 83.816 L 49.380 83.816 L 49.380 85.155 C 50.176 84.125 51.177 83.611 52.384 83.611 C 52.916 83.611 53.402 83.706 53.843 83.898 C 54.284 84.090 54.617 84.334 54.843 84.632 C 55.069 84.929 55.226 85.267 55.315 85.644 C 55.403 86.022 55.448 86.563 55.448 87.266 L 55.448 92.931 Z " stroke-width="1"/>
    <path id="ID0.49715428007766604" fill="#fff" d="M 57.671 93.531 L 60.425 93.866 C 60.471 94.186 60.577 94.407 60.743 94.527 C 60.972 94.699 61.332 94.784 61.824 94.784 C 62.454 94.784 62.926 94.690 63.240 94.501 C 63.452 94.375 63.612 94.172 63.721 93.892 C 63.795 93.692 63.832 93.323 63.832 92.785 L 63.832 91.455 C 63.112 92.439 62.202 92.931 61.103 92.931 C 59.879 92.931 58.909 92.413 58.194 91.377 C 57.633 90.559 57.353 89.541 57.353 88.322 C 57.353 86.794 57.721 85.627 58.456 84.821 C 59.191 84.014 60.105 83.611 61.198 83.611 C 62.325 83.611 63.255 84.105 63.987 85.095 L 63.987 83.816 L 66.244 83.816 L 66.244 91.995 C 66.244 93.071 66.155 93.875 65.978 94.407 C 65.801 94.939 65.552 95.356 65.231 95.660 C 64.911 95.963 64.483 96.200 63.948 96.372 C 63.413 96.544 62.737 96.629 61.919 96.629 C 60.374 96.629 59.278 96.365 58.632 95.836 C 57.985 95.306 57.662 94.636 57.662 93.823 C 57.662 93.743 57.665 93.646 57.671 93.531 Z M 59.825 88.185 C 59.825 89.152 60.012 89.860 60.387 90.309 C 60.762 90.758 61.224 90.982 61.773 90.982 C 62.362 90.982 62.860 90.752 63.266 90.292 C 63.672 89.831 63.875 89.149 63.875 88.245 C 63.875 87.301 63.681 86.600 63.292 86.142 C 62.903 85.685 62.411 85.456 61.816 85.456 C 61.238 85.456 60.762 85.680 60.387 86.129 C 60.012 86.578 59.825 87.264 59.825 88.185 Z " stroke-width="1"/>
    <path id="ID0.717315667308867" fill="#fff" d="M 73.599 92.931 L 73.599 80.452 L 76.139 80.452 L 76.139 90.811 L 82.455 90.811 L 82.455 92.931 L 73.599 92.931 Z " stroke-width="1"/>
    <path id="ID0.31894674990326166" fill="#fff" d="M 89.527 90.030 L 91.930 90.433 C 91.621 91.314 91.133 91.985 90.467 92.446 C 89.800 92.906 88.966 93.137 87.965 93.137 C 86.380 93.137 85.207 92.619 84.446 91.583 C 83.846 90.754 83.545 89.707 83.545 88.442 C 83.545 86.932 83.940 85.749 84.730 84.894 C 85.519 84.038 86.518 83.611 87.725 83.611 C 89.081 83.611 90.151 84.058 90.935 84.954 C 91.718 85.849 92.093 87.221 92.059 89.069 L 86.017 89.069 C 86.034 89.784 86.229 90.340 86.601 90.738 C 86.972 91.136 87.436 91.334 87.991 91.334 C 88.368 91.334 88.686 91.231 88.943 91.025 C 89.201 90.819 89.395 90.488 89.527 90.030 Z M 89.664 87.593 C 89.647 86.895 89.467 86.364 89.124 86.001 C 88.780 85.637 88.363 85.456 87.871 85.456 C 87.344 85.456 86.910 85.647 86.566 86.031 C 86.223 86.414 86.054 86.935 86.060 87.593 L 89.664 87.593 Z " stroke-width="1"/>
    <path id="ID0.4167698444798589" fill="#fff" d="M 96.530 92.931 L 92.857 83.816 L 95.389 83.816 L 97.105 88.468 L 97.603 90.021 C 97.734 89.627 97.817 89.366 97.852 89.240 C 97.932 88.983 98.018 88.725 98.109 88.468 L 99.843 83.816 L 102.323 83.816 L 98.701 92.931 L 96.530 92.931 Z " stroke-width="1"/>
    <path id="ID0.5894800093956292" fill="#fff" d="M 109.077 90.030 L 111.480 90.433 C 111.171 91.314 110.683 91.985 110.017 92.446 C 109.350 92.906 108.516 93.137 107.515 93.137 C 105.930 93.137 104.757 92.619 103.996 91.583 C 103.396 90.754 103.095 89.707 103.095 88.442 C 103.095 86.932 103.490 85.749 104.280 84.894 C 105.069 84.038 106.067 83.611 107.275 83.611 C 108.631 83.611 109.701 84.058 110.484 84.954 C 111.268 85.849 111.643 87.221 111.609 89.069 L 105.567 89.069 C 105.584 89.784 105.779 90.340 106.150 90.738 C 106.522 91.136 106.986 91.334 107.541 91.334 C 107.918 91.334 108.236 91.231 108.493 91.025 C 108.751 90.819 108.945 90.488 109.077 90.030 Z M 109.214 87.593 C 109.197 86.895 109.017 86.364 108.674 86.001 C 108.330 85.637 107.913 85.456 107.421 85.456 C 106.894 85.456 106.459 85.647 106.116 86.031 C 105.773 86.414 105.604 86.935 105.610 87.593 L 109.214 87.593 Z " stroke-width="1"/>
    <path id="ID0.5363527582958341" fill="#fff" d="M 113.574 80.349 L 115.986 80.349 L 115.986 92.930 L 113.574 92.930 L 113.574 80.349 Z " stroke-width="1"/>
    <path id="ID0.06651554070413113" fill="#fff" d="M 117.607 90.330 L 120.028 89.961 C 120.131 90.430 120.339 90.787 120.654 91.030 C 120.969 91.273 121.409 91.394 121.976 91.394 C 122.599 91.394 123.068 91.280 123.383 91.051 C 123.595 90.891 123.701 90.676 123.701 90.407 C 123.701 90.224 123.643 90.073 123.529 89.953 C 123.409 89.838 123.140 89.732 122.722 89.635 C 120.777 89.206 119.544 88.814 119.023 88.459 C 118.303 87.967 117.942 87.284 117.942 86.408 C 117.942 85.619 118.254 84.955 118.878 84.417 C 119.501 83.879 120.468 83.611 121.778 83.611 C 123.026 83.611 123.952 83.814 124.559 84.220 C 125.165 84.626 125.583 85.227 125.812 86.022 L 123.538 86.443 C 123.440 86.088 123.256 85.816 122.984 85.627 C 122.712 85.438 122.325 85.344 121.821 85.344 C 121.186 85.344 120.731 85.433 120.457 85.610 C 120.274 85.736 120.182 85.899 120.182 86.099 C 120.182 86.271 120.262 86.417 120.422 86.537 C 120.640 86.697 121.391 86.923 122.675 87.215 C 123.960 87.507 124.856 87.864 125.366 88.288 C 125.869 88.717 126.121 89.315 126.121 90.081 C 126.121 90.917 125.772 91.635 125.074 92.235 C 124.376 92.836 123.343 93.137 121.976 93.137 C 120.734 93.137 119.752 92.885 119.028 92.381 C 118.304 91.878 117.831 91.194 117.607 90.330 Z " stroke-width="1"/>
  </g>
</svg>