<svg version="1.1" width="481" height="361" viewBox="-0.5 -0.5 481 361" xmlns="http://www.w3.org/2000/svg" xmlns:xlink="http://www.w3.org/1999/xlink">
  <!-- Exported by Scratch - http://scratch.mit.edu/ -->
  <path id="ID0.6071781408973038" fill="#FFF" scratch-type="backdrop-fill" d="M 0 0 L 480 0 L 480 360 L 0 360 L 0 0 Z " stroke-width="1"/>
  <g id="ID0.8430061368271708">
    <path id="Level Placeholder" fill="none" stroke="#555" stroke-width="1" d="M 229.553 50.916 L 469.553 50.916 L 469.553 230.916 L 229.553 230.916 L 229.553 50.916 Z "/>
    <path id="Divider" fill="none" stroke="#555" stroke-width="1" stroke-linecap="square" stroke-linejoin="miter" d="M 229.589 262.757 L 469.553 262.757 "/>
    <g id="Play levels consecutively">
      <path id="ID0.36377424746751785" fill="#b3b3b3" d="M 11.166 327.671 L 218.103 327.671 L 218.103 348.876 L 11.166 348.876 L 11.166 327.671 Z " stroke-width="1"/>
      <g id="PLC toggle">
        <path id="ID0.9804684356786311" fill="#fff" d="M 49.625 338.273 C 49.625 336.273 48.001 334.649 46.001 334.649 L 24.307 334.649 C 22.307 334.649 20.683 336.273 20.683 338.273 C 20.683 340.273 22.307 341.897 24.307 341.897 L 46.001 341.897 C 48.001 341.897 49.625 340.273 49.625 338.273 Z " stroke-width="1"/>
      </g>
      <path id="ID0.9215032579377294" fill="#fff" d="M 68.856 342.542 L 68.856 333.434 L 72.292 333.434 C 72.897 333.434 73.359 333.463 73.678 333.521 C 74.125 333.596 74.500 333.737 74.802 333.947 C 75.104 334.156 75.348 334.449 75.532 334.826 C 75.716 335.203 75.809 335.617 75.809 336.068 C 75.809 336.843 75.562 337.498 75.069 338.035 C 74.576 338.571 73.686 338.839 72.398 338.839 L 70.062 338.839 L 70.062 342.542 L 68.856 342.542 Z M 70.062 337.764 L 72.416 337.764 C 73.195 337.764 73.748 337.619 74.075 337.329 C 74.402 337.040 74.566 336.632 74.566 336.106 C 74.566 335.724 74.470 335.398 74.277 335.127 C 74.084 334.856 73.831 334.677 73.516 334.590 C 73.313 334.536 72.938 334.509 72.391 334.509 L 70.062 334.509 L 70.062 337.764 Z " stroke-width="1"/>
      <path id="ID0.174519173335284" fill="#fff" d="M 77.175 333.434 L 78.293 333.434 L 78.293 342.542 L 77.175 342.542 L 77.175 333.434 Z " stroke-width="1"/>
      <path id="ID0.7704964424483478" fill="#fff" d="M 84.333 341.728 C 83.918 342.080 83.520 342.329 83.137 342.474 C 82.754 342.619 82.342 342.691 81.903 342.691 C 81.179 342.691 80.621 342.514 80.232 342.160 C 79.843 341.806 79.648 341.353 79.648 340.803 C 79.648 340.479 79.722 340.184 79.869 339.917 C 80.016 339.650 80.208 339.436 80.446 339.274 C 80.685 339.113 80.953 338.990 81.251 338.908 C 81.471 338.850 81.802 338.794 82.245 338.740 C 83.148 338.632 83.813 338.504 84.239 338.355 C 84.244 338.201 84.246 338.104 84.246 338.063 C 84.246 337.607 84.140 337.286 83.929 337.100 C 83.643 336.847 83.218 336.721 82.655 336.721 C 82.129 336.721 81.741 336.813 81.490 336.997 C 81.240 337.181 81.054 337.508 80.934 337.976 L 79.841 337.827 C 79.940 337.358 80.104 336.981 80.332 336.693 C 80.559 336.405 80.889 336.183 81.319 336.028 C 81.750 335.873 82.249 335.795 82.817 335.795 C 83.380 335.795 83.838 335.861 84.190 335.994 C 84.542 336.126 84.801 336.293 84.966 336.494 C 85.132 336.695 85.248 336.948 85.314 337.255 C 85.352 337.445 85.370 337.789 85.370 338.286 L 85.370 339.777 C 85.370 340.817 85.394 341.475 85.442 341.750 C 85.489 342.025 85.584 342.289 85.724 342.542 L 84.556 342.542 C 84.440 342.310 84.366 342.039 84.333 341.728 Z M 84.239 339.231 C 83.834 339.396 83.225 339.537 82.413 339.653 C 81.953 339.719 81.628 339.794 81.437 339.877 C 81.247 339.960 81.100 340.081 80.996 340.240 C 80.893 340.400 80.841 340.577 80.841 340.771 C 80.841 341.070 80.954 341.318 81.180 341.517 C 81.405 341.716 81.736 341.815 82.171 341.815 C 82.601 341.815 82.984 341.721 83.320 341.533 C 83.655 341.344 83.902 341.086 84.059 340.759 C 84.179 340.506 84.239 340.134 84.239 339.641 L 84.239 339.231 Z " stroke-width="1"/>
      <path id="ID0.22574563650414348" fill="#fff" d="M 87.054 345.083 L 86.930 344.033 C 87.174 344.100 87.387 344.133 87.570 344.133 C 87.818 344.133 88.017 344.091 88.166 344.008 C 88.315 343.926 88.437 343.810 88.533 343.660 C 88.603 343.549 88.717 343.271 88.874 342.828 C 88.895 342.766 88.928 342.675 88.974 342.555 L 86.470 335.944 L 87.675 335.944 L 89.048 339.765 C 89.226 340.250 89.386 340.759 89.527 341.293 C 89.655 340.780 89.808 340.279 89.986 339.790 L 91.397 335.944 L 92.515 335.944 L 90.005 342.654 C 89.736 343.379 89.527 343.878 89.378 344.151 C 89.179 344.520 88.951 344.790 88.694 344.962 C 88.437 345.134 88.131 345.220 87.775 345.220 C 87.559 345.220 87.319 345.174 87.054 345.083 Z " stroke-width="1"/>
      <path id="ID0.06983651407063007" fill="#fff" d="M 96.976 333.434 L 98.094 333.434 L 98.094 342.542 L 96.976 342.542 L 96.976 333.434 Z " stroke-width="1"/>
      <path id="ID0.25835567247122526" fill="#fff" d="M 104.344 340.417 L 105.500 340.560 C 105.318 341.235 104.980 341.759 104.487 342.132 C 103.994 342.505 103.365 342.691 102.599 342.691 C 101.634 342.691 100.868 342.394 100.303 341.800 C 99.738 341.205 99.455 340.372 99.455 339.299 C 99.455 338.189 99.741 337.327 100.312 336.714 C 100.884 336.101 101.625 335.795 102.537 335.795 C 103.419 335.795 104.139 336.095 104.699 336.696 C 105.258 337.296 105.537 338.141 105.537 339.231 C 105.537 339.297 105.535 339.396 105.531 339.529 L 100.611 339.529 C 100.652 340.254 100.857 340.809 101.226 341.194 C 101.594 341.579 102.054 341.772 102.605 341.772 C 103.015 341.772 103.365 341.664 103.655 341.449 C 103.945 341.233 104.175 340.889 104.344 340.417 Z M 100.673 338.609 L 104.357 338.609 C 104.307 338.054 104.166 337.638 103.934 337.361 C 103.578 336.930 103.116 336.714 102.549 336.714 C 102.035 336.714 101.604 336.886 101.254 337.230 C 100.904 337.574 100.710 338.034 100.673 338.609 Z " stroke-width="1"/>
      <path id="ID0.0948744504712522" fill="#fff" d="M 108.737 342.542 L 106.227 335.944 L 107.407 335.944 L 108.824 339.895 C 108.977 340.322 109.118 340.765 109.246 341.225 C 109.346 340.877 109.485 340.459 109.663 339.970 L 111.129 335.944 L 112.278 335.944 L 109.781 342.542 L 108.737 342.542 Z " stroke-width="1"/>
      <path id="ID0.793098877184093" fill="#fff" d="M 117.783 340.417 L 118.939 340.560 C 118.756 341.235 118.419 341.759 117.926 342.132 C 117.433 342.505 116.803 342.691 116.037 342.691 C 115.072 342.691 114.307 342.394 113.742 341.800 C 113.176 341.205 112.893 340.372 112.893 339.299 C 112.893 338.189 113.179 337.327 113.751 336.714 C 114.322 336.101 115.064 335.795 115.975 335.795 C 116.857 335.795 117.578 336.095 118.137 336.696 C 118.696 337.296 118.976 338.141 118.976 339.231 C 118.976 339.297 118.974 339.396 118.970 339.529 L 114.049 339.529 C 114.090 340.254 114.296 340.809 114.664 341.194 C 115.033 341.579 115.493 341.772 116.043 341.772 C 116.453 341.772 116.803 341.664 117.093 341.449 C 117.383 341.233 117.613 340.889 117.783 340.417 Z M 114.111 338.609 L 117.795 338.609 C 117.746 338.054 117.605 337.638 117.373 337.361 C 117.017 336.930 116.555 336.714 115.987 336.714 C 115.474 336.714 115.042 336.886 114.692 337.230 C 114.342 337.574 114.148 338.034 114.111 338.609 Z " stroke-width="1"/>
      <path id="ID0.05118869850412011" fill="#fff" d="M 120.318 333.434 L 121.436 333.434 L 121.436 342.542 L 120.318 342.542 L 120.318 333.434 Z " stroke-width="1"/>
      <path id="ID0.30490007204934955" fill="#fff" d="M 122.722 340.573 L 123.828 340.399 C 123.890 340.842 124.063 341.182 124.347 341.418 C 124.631 341.654 125.027 341.772 125.537 341.772 C 126.050 341.772 126.431 341.667 126.680 341.458 C 126.928 341.249 127.053 341.003 127.053 340.722 C 127.053 340.469 126.943 340.270 126.723 340.125 C 126.570 340.026 126.189 339.900 125.580 339.746 C 124.760 339.539 124.192 339.360 123.875 339.209 C 123.558 339.058 123.318 338.849 123.154 338.581 C 122.990 338.314 122.909 338.019 122.909 337.696 C 122.909 337.402 122.976 337.130 123.111 336.879 C 123.245 336.628 123.428 336.420 123.660 336.255 C 123.834 336.126 124.072 336.018 124.372 335.928 C 124.672 335.839 124.994 335.795 125.338 335.795 C 125.856 335.795 126.310 335.869 126.702 336.019 C 127.093 336.168 127.382 336.370 127.568 336.624 C 127.755 336.879 127.883 337.220 127.954 337.646 L 126.860 337.795 C 126.810 337.456 126.666 337.191 126.428 337 C 126.190 336.810 125.854 336.714 125.419 336.714 C 124.905 336.714 124.539 336.799 124.319 336.969 C 124.099 337.139 123.990 337.338 123.990 337.566 C 123.990 337.711 124.035 337.841 124.126 337.957 C 124.218 338.077 124.360 338.177 124.555 338.255 C 124.667 338.297 124.996 338.392 125.543 338.541 C 126.334 338.752 126.886 338.925 127.199 339.060 C 127.511 339.194 127.757 339.390 127.935 339.647 C 128.113 339.904 128.202 340.223 128.202 340.604 C 128.202 340.976 128.093 341.328 127.876 341.657 C 127.658 341.986 127.345 342.241 126.935 342.421 C 126.525 342.601 126.061 342.691 125.543 342.691 C 124.686 342.691 124.032 342.513 123.583 342.157 C 123.133 341.801 122.847 341.273 122.722 340.573 Z " stroke-width="1"/>
      <path id="ID0.7647118242457509" fill="#fff" d="M 137.372 340.125 L 138.472 340.268 C 138.352 341.026 138.044 341.620 137.549 342.048 C 137.054 342.477 136.447 342.691 135.726 342.691 C 134.823 342.691 134.097 342.396 133.548 341.806 C 132.999 341.216 132.725 340.370 132.725 339.268 C 132.725 338.556 132.843 337.932 133.079 337.398 C 133.315 336.864 133.675 336.463 134.157 336.196 C 134.640 335.928 135.165 335.795 135.732 335.795 C 136.449 335.795 137.035 335.976 137.490 336.339 C 137.946 336.701 138.238 337.216 138.366 337.882 L 137.279 338.050 C 137.176 337.607 136.992 337.274 136.729 337.050 C 136.466 336.826 136.148 336.714 135.776 336.714 C 135.212 336.714 134.755 336.916 134.403 337.320 C 134.051 337.724 133.874 338.363 133.874 339.237 C 133.874 340.123 134.044 340.767 134.384 341.169 C 134.724 341.571 135.167 341.772 135.714 341.772 C 136.153 341.772 136.519 341.637 136.813 341.368 C 137.107 341.099 137.294 340.684 137.372 340.125 Z " stroke-width="1"/>
      <path id="ID0.439339158590883" fill="#fff" d="M 139.013 339.243 C 139.013 338.021 139.352 337.116 140.031 336.528 C 140.599 336.039 141.291 335.795 142.107 335.795 C 143.014 335.795 143.755 336.092 144.331 336.686 C 144.907 337.281 145.194 338.102 145.194 339.150 C 145.194 339.999 145.067 340.667 144.812 341.154 C 144.558 341.640 144.187 342.018 143.700 342.287 C 143.214 342.557 142.682 342.691 142.107 342.691 C 141.183 342.691 140.436 342.395 139.867 341.803 C 139.297 341.210 139.013 340.357 139.013 339.243 Z M 140.162 339.243 C 140.162 340.088 140.346 340.721 140.715 341.141 C 141.084 341.562 141.547 341.772 142.107 341.772 C 142.662 341.772 143.123 341.560 143.492 341.138 C 143.861 340.716 144.045 340.071 144.045 339.206 C 144.045 338.390 143.860 337.772 143.489 337.351 C 143.118 336.931 142.657 336.721 142.107 336.721 C 141.547 336.721 141.084 336.930 140.715 337.348 C 140.346 337.766 140.162 338.398 140.162 339.243 Z " stroke-width="1"/>
      <path id="ID0.6077708173543215" fill="#fff" d="M 146.505 342.542 L 146.505 335.944 L 147.512 335.944 L 147.512 336.882 C 147.996 336.157 148.696 335.795 149.612 335.795 C 150.009 335.795 150.375 335.866 150.708 336.009 C 151.042 336.152 151.291 336.340 151.457 336.572 C 151.623 336.803 151.739 337.079 151.805 337.398 C 151.846 337.605 151.867 337.967 151.867 338.485 L 151.867 342.542 L 150.749 342.542 L 150.749 338.529 C 150.749 338.073 150.705 337.732 150.618 337.507 C 150.531 337.281 150.377 337.101 150.155 336.966 C 149.934 336.831 149.674 336.764 149.376 336.764 C 148.899 336.764 148.488 336.915 148.142 337.218 C 147.797 337.520 147.624 338.094 147.624 338.939 L 147.624 342.542 L 146.505 342.542 Z " stroke-width="1"/>
      <path id="ID0.674345760140568" fill="#fff" d="M 153.135 340.573 L 154.240 340.399 C 154.303 340.842 154.475 341.182 154.759 341.418 C 155.043 341.654 155.440 341.772 155.949 341.772 C 156.463 341.772 156.844 341.667 157.092 341.458 C 157.341 341.249 157.465 341.003 157.465 340.722 C 157.465 340.469 157.355 340.270 157.136 340.125 C 156.982 340.026 156.601 339.900 155.992 339.746 C 155.172 339.539 154.604 339.360 154.287 339.209 C 153.970 339.058 153.730 338.849 153.566 338.581 C 153.403 338.314 153.321 338.019 153.321 337.696 C 153.321 337.402 153.388 337.130 153.523 336.879 C 153.657 336.628 153.841 336.420 154.073 336.255 C 154.247 336.126 154.484 336.018 154.784 335.928 C 155.084 335.839 155.406 335.795 155.750 335.795 C 156.268 335.795 156.722 335.869 157.114 336.019 C 157.505 336.168 157.794 336.370 157.981 336.624 C 158.167 336.879 158.295 337.220 158.366 337.646 L 157.272 337.795 C 157.223 337.456 157.079 337.191 156.841 337 C 156.602 336.810 156.266 336.714 155.831 336.714 C 155.317 336.714 154.951 336.799 154.731 336.969 C 154.512 337.139 154.402 337.338 154.402 337.566 C 154.402 337.711 154.448 337.841 154.539 337.957 C 154.630 338.077 154.773 338.177 154.967 338.255 C 155.079 338.297 155.408 338.392 155.955 338.541 C 156.746 338.752 157.298 338.925 157.611 339.060 C 157.924 339.194 158.169 339.390 158.347 339.647 C 158.525 339.904 158.614 340.223 158.614 340.604 C 158.614 340.976 158.506 341.328 158.288 341.657 C 158.071 341.986 157.757 342.241 157.347 342.421 C 156.937 342.601 156.473 342.691 155.955 342.691 C 155.098 342.691 154.444 342.513 153.995 342.157 C 153.546 341.801 153.259 341.273 153.135 340.573 Z " stroke-width="1"/>
      <path id="ID0.9280202691443264" fill="#fff" d="M 164.461 340.417 L 165.616 340.560 C 165.434 341.235 165.096 341.759 164.604 342.132 C 164.111 342.505 163.481 342.691 162.715 342.691 C 161.750 342.691 160.985 342.394 160.419 341.800 C 159.854 341.205 159.571 340.372 159.571 339.299 C 159.571 338.189 159.857 337.327 160.428 336.714 C 161 336.101 161.741 335.795 162.653 335.795 C 163.535 335.795 164.256 336.095 164.815 336.696 C 165.374 337.296 165.654 338.141 165.654 339.231 C 165.654 339.297 165.651 339.396 165.647 339.529 L 160.727 339.529 C 160.768 340.254 160.973 340.809 161.342 341.194 C 161.710 341.579 162.170 341.772 162.721 341.772 C 163.131 341.772 163.481 341.664 163.771 341.449 C 164.061 341.233 164.291 340.889 164.461 340.417 Z M 160.789 338.609 L 164.473 338.609 C 164.423 338.054 164.283 337.638 164.051 337.361 C 163.694 336.930 163.233 336.714 162.665 336.714 C 162.152 336.714 161.720 336.886 161.370 337.230 C 161.020 337.574 160.826 338.034 160.789 338.609 Z " stroke-width="1"/>
      <path id="ID0.7202286925166845" fill="#fff" d="M 171.326 340.125 L 172.426 340.268 C 172.306 341.026 171.998 341.620 171.503 342.048 C 171.008 342.477 170.400 342.691 169.680 342.691 C 168.777 342.691 168.051 342.396 167.502 341.806 C 166.953 341.216 166.679 340.370 166.679 339.268 C 166.679 338.556 166.797 337.932 167.033 337.398 C 167.269 336.864 167.628 336.463 168.111 336.196 C 168.593 335.928 169.118 335.795 169.686 335.795 C 170.402 335.795 170.988 335.976 171.444 336.339 C 171.900 336.701 172.192 337.216 172.320 337.882 L 171.233 338.050 C 171.129 337.607 170.946 337.274 170.683 337.050 C 170.420 336.826 170.102 336.714 169.729 336.714 C 169.166 336.714 168.708 336.916 168.356 337.320 C 168.004 337.724 167.828 338.363 167.828 339.237 C 167.828 340.123 167.998 340.767 168.338 341.169 C 168.677 341.571 169.120 341.772 169.667 341.772 C 170.106 341.772 170.473 341.637 170.767 341.368 C 171.061 341.099 171.247 340.684 171.326 340.125 Z " stroke-width="1"/>
      <path id="ID0.4572607888840139" fill="#fff" d="M 177.707 342.542 L 177.707 341.573 C 177.193 342.318 176.495 342.691 175.613 342.691 C 175.224 342.691 174.860 342.617 174.522 342.468 C 174.185 342.318 173.934 342.131 173.771 341.905 C 173.607 341.680 173.492 341.403 173.426 341.076 C 173.380 340.856 173.358 340.508 173.358 340.032 L 173.358 335.944 L 174.476 335.944 L 174.476 339.603 C 174.476 340.187 174.499 340.581 174.544 340.784 C 174.615 341.078 174.764 341.309 174.992 341.477 C 175.219 341.644 175.501 341.728 175.837 341.728 C 176.172 341.728 176.487 341.642 176.781 341.470 C 177.075 341.299 177.283 341.064 177.405 340.768 C 177.527 340.472 177.589 340.042 177.589 339.479 L 177.589 335.944 L 178.707 335.944 L 178.707 342.542 L 177.707 342.542 Z " stroke-width="1"/>
      <path id="ID0.7914762101136148" fill="#fff" d="M 182.901 341.542 L 183.062 342.530 C 182.747 342.596 182.466 342.629 182.217 342.629 C 181.811 342.629 181.496 342.565 181.273 342.437 C 181.049 342.308 180.892 342.139 180.801 341.930 C 180.710 341.721 180.664 341.281 180.664 340.610 L 180.664 336.814 L 179.844 336.814 L 179.844 335.944 L 180.664 335.944 L 180.664 334.310 L 181.776 333.639 L 181.776 335.944 L 182.901 335.944 L 182.901 336.814 L 181.776 336.814 L 181.776 340.672 C 181.776 340.991 181.796 341.196 181.835 341.287 C 181.874 341.378 181.939 341.451 182.028 341.505 C 182.117 341.558 182.244 341.585 182.410 341.585 C 182.534 341.585 182.698 341.571 182.901 341.542 Z " stroke-width="1"/>
      <path id="ID0.5394679480232298" fill="#fff" d="M 184 334.720 L 184 333.434 L 185.119 333.434 L 185.119 334.720 L 184 334.720 Z M 184 342.542 L 184 335.944 L 185.119 335.944 L 185.119 342.542 L 184 342.542 Z " stroke-width="1"/>
      <path id="ID0.23877735855057836" fill="#fff" d="M 188.654 342.542 L 186.144 335.944 L 187.324 335.944 L 188.741 339.895 C 188.894 340.322 189.035 340.765 189.163 341.225 C 189.263 340.877 189.401 340.459 189.579 339.970 L 191.046 335.944 L 192.195 335.944 L 189.698 342.542 L 188.654 342.542 Z " stroke-width="1"/>
      <path id="ID0.14838933432474732" fill="#fff" d="M 197.700 340.417 L 198.855 340.560 C 198.673 341.235 198.336 341.759 197.843 342.132 C 197.350 342.505 196.720 342.691 195.954 342.691 C 194.989 342.691 194.224 342.394 193.658 341.800 C 193.093 341.205 192.810 340.372 192.810 339.299 C 192.810 338.189 193.096 337.327 193.668 336.714 C 194.239 336.101 194.981 335.795 195.892 335.795 C 196.774 335.795 197.495 336.095 198.054 336.696 C 198.613 337.296 198.893 338.141 198.893 339.231 C 198.893 339.297 198.891 339.396 198.886 339.529 L 193.966 339.529 C 194.007 340.254 194.212 340.809 194.581 341.194 C 194.950 341.579 195.409 341.772 195.960 341.772 C 196.370 341.772 196.720 341.664 197.010 341.449 C 197.300 341.233 197.530 340.889 197.700 340.417 Z M 194.028 338.609 L 197.712 338.609 C 197.662 338.054 197.522 337.638 197.290 337.361 C 196.934 336.930 196.472 336.714 195.904 336.714 C 195.391 336.714 194.959 336.886 194.609 337.230 C 194.259 337.574 194.065 338.034 194.028 338.609 Z " stroke-width="1"/>
      <path id="ID0.6148288734257221" fill="#fff" d="M 200.235 333.434 L 201.353 333.434 L 201.353 342.542 L 200.235 342.542 L 200.235 333.434 Z " stroke-width="1"/>
      <path id="ID0.29999770736321807" fill="#fff" d="M 203.037 345.083 L 202.912 344.033 C 203.157 344.100 203.370 344.133 203.552 344.133 C 203.801 344.133 204 344.091 204.149 344.008 C 204.298 343.926 204.420 343.810 204.515 343.660 C 204.586 343.549 204.700 343.271 204.857 342.828 C 204.878 342.766 204.911 342.675 204.956 342.555 L 202.453 335.944 L 203.658 335.944 L 205.031 339.765 C 205.209 340.250 205.369 340.759 205.509 341.293 C 205.638 340.780 205.791 340.279 205.969 339.790 L 207.379 335.944 L 208.498 335.944 L 205.988 342.654 C 205.719 343.379 205.509 343.878 205.360 344.151 C 205.161 344.520 204.934 344.790 204.677 344.962 C 204.420 345.134 204.114 345.220 203.757 345.220 C 203.542 345.220 203.302 345.174 203.037 345.083 Z " stroke-width="1"/>
    </g>
  </g>
</svg>