<svg version="1.1" width="51.46799850463867" height="59.03099822998047" viewBox="0.3129986524581909 0.25 51.46799850463867 59.03099822998047" xmlns="http://www.w3.org/2000/svg" xmlns:xlink="http://www.w3.org/1999/xlink">
  <!-- Exported by Scratch - http://scratch.mit.edu/ -->
  <g id="ID0.9027522983960807">
    <g id="layer1">
      <path id="path3364" fill="#666666" stroke="none" d="M 25.188 0.75 C 21.437 0.75 18.074 1.371 15.063 2.625 C 12.051 3.879 9.484 5.68 7.375 8 C 5.266 10.32 3.637 13.105 2.5 16.375 C 1.363 19.645 0.812 23.289 0.813 27.344 C 0.812 31.117 1.355 34.59 2.469 37.719 C 3.582 40.848 5.168 43.512 7.219 45.75 C 9.27 47.988 11.73 49.727 14.625 50.969 C 17.52 52.211 20.75 52.844 24.313 52.844 C 25.836 52.844 27.305 52.723 28.688 52.5 C 30.07 52.277 31.391 51.953 32.656 51.531 L 42.781 58.781 L 51.281 58.781 L 37.375 49.344 C 40.797 47.187 43.465 44.105 45.375 40.156 C 47.285 36.207 48.219 31.531 48.219 26.094 C 48.219 22.344 47.676 18.918 46.563 15.813 C 45.449 12.707 43.871 10.02 41.844 7.781 C 39.816 5.543 37.387 3.824 34.563 2.594 C 31.738 1.363 28.609 0.75 25.188 0.75 Z M 24.719 5 C 27.578 5 30.141 5.484 32.438 6.469 C 34.734 7.453 36.695 8.887 38.313 10.75 C 39.93 12.613 41.164 14.898 42.031 17.594 C 42.898 20.289 43.344 23.336 43.344 26.781 C 43.344 30.203 42.891 33.293 42 36 C 41.109 38.707 39.84 41 38.188 42.875 C 36.535 44.75 34.531 46.172 32.188 47.156 C 29.844 48.141 27.211 48.625 24.281 48.625 C 21.469 48.625 18.91 48.125 16.625 47.094 C 14.34 46.063 12.398 44.586 10.781 42.688 C 9.164 40.789 7.922 38.516 7.031 35.844 C 6.141 33.172 5.687 30.188 5.688 26.906 C 5.687 23.648 6.156 20.684 7.094 18 C 8.031 15.316 9.324 13.016 11 11.094 C 12.676 9.172 14.699 7.66 17.031 6.594 C 19.363 5.527 21.93 5 24.719 5 Z " stroke-width="1"/>
    </g>
  </g>
</svg>