<svg version="1.1" width="29.120002365112306" height="29.120103454589845" viewBox="-0.05870120525360112 0.4423988580703735 29.120002365112306 29.120103454589845" xmlns="http://www.w3.org/2000/svg" xmlns:xlink="http://www.w3.org/1999/xlink">
  <!-- Exported by Scratch - http://scratch.mit.edu/ -->
  <g id="ID0.7556073288433254">
    <g id="Next Button">
      <g id="ID0.13083327282220125">
        <path id="ID0.46837166091427207" fill="white" stroke="white" stroke-width="1.1200023651123048" d="M 14.5013 1.0024 C 18.3653 1.0024 21.8653 2.5704 24.3993 5.1044 C 26.9333 7.6384 28.5013 11.1384 28.5013 15.0024 C 28.5013 18.8664 26.9333 22.3665 24.3993 24.9005 C 21.8653 27.4345 18.3653 29.0025 14.5013 29.0025 C 10.6373 29.0025 7.1373 27.4345 4.6033 24.9005 C 2.0693 22.3665 0.5013 18.8664 0.5013 15.0024 C 0.5013 11.1384 2.0693 7.6384 4.6033 5.1044 C 7.1373 2.5704 10.6373 1.0024 14.5013 1.0024 Z "/>
      </g>
      <g id="ID0.18295503873378038">
        <path id="ID0.023100375197827816" fill="#65A8E7" d="M 10.79 19.59 L 15.37 15 L 10.79 10.41 L 12.2 9 L 18.2 15 L 12.2 21 L 10.79 19.59 Z " stroke-width="1.0000004768371582"/>
      </g>
    </g>
  </g>
</svg>