<svg version="1.1" width="30.8439998626709" height="52.25" viewBox="0.343999981880188 0.25 30.8439998626709 52.25" xmlns="http://www.w3.org/2000/svg" xmlns:xlink="http://www.w3.org/1999/xlink">
  <!-- Exported by Scratch - http://scratch.mit.edu/ -->
  <g id="ID0.14794569462537766">
    <g id="layer1">
      <path id="path3032" fill="#666666" stroke="none" d="M 15.781 0.75 C 13.133 0.75 10.734 1.156 8.625 2 C 6.516 2.844 4.594 4.039 2.813 5.563 L 2.813 10.563 C 4.641 8.781 6.582 7.348 8.656 6.281 C 10.73 5.215 12.906 4.688 15.156 4.688 C 16.633 4.688 17.969 4.891 19.188 5.313 C 20.406 5.734 21.445 6.355 22.313 7.188 C 23.18 8.02 23.863 9.051 24.344 10.281 C 24.824 11.512 25.062 12.938 25.063 14.531 C 25.062 16.195 24.82 17.703 24.375 19.063 C 23.93 20.422 23.273 21.699 22.406 22.906 C 21.539 24.113 20.477 25.301 19.188 26.438 C 17.898 27.574 16.414 28.75 14.75 29.969 C 12.289 31.75 10.195 33.352 8.438 34.781 C 6.68 36.211 5.219 37.652 4.094 39.094 C 2.969 40.535 2.152 42.066 1.625 43.719 C 1.098 45.371 0.844 47.313 0.844 49.563 L 0.844 52 L 30.688 52 L 30.688 47.969 L 5.594 47.969 C 5.594 47.57 5.59 47.203 5.625 46.875 C 5.66 46.547 5.758 46.203 5.875 45.875 C 6.016 44.633 6.32 43.508 6.813 42.5 C 7.305 41.492 8.02 40.477 8.969 39.469 C 9.918 38.461 11.121 37.426 12.563 36.313 C 14.004 35.199 15.734 33.891 17.75 32.438 C 19.555 31.148 21.191 29.871 22.656 28.594 C 24.121 27.316 25.363 25.973 26.406 24.531 C 27.449 23.09 28.25 21.492 28.813 19.781 C 29.375 18.07 29.656 16.156 29.656 14 C 29.656 12.148 29.394 10.449 28.844 8.938 C 28.293 7.426 27.508 6.133 26.5 5.031 C 25.492 3.93 24.293 3.035 22.875 2.344 C 21.457 1.652 19.859 1.219 18.125 1.031 C 17.75 0.938 17.387 0.859 17 0.813 C 16.613 0.766 16.203 0.75 15.781 0.75 Z " stroke-width="1"/>
    </g>
  </g>
</svg>