<svg width="104.36400604248047" height="14.907999992370605" viewBox="-0.5000052452087402 -0.5 104.36400604248047 14.907999992370605" version="1.1" style="fill-rule:evenodd;clip-rule:evenodd;stroke-linejoin:round;stroke-miterlimit:1.41421;" xml:space="preserve" xmlns="http://www.w3.org/2000/svg" xmlns:xlink="http://www.w3.org/1999/xlink">
  <g>
    <g id="1">
      <path d="M103.364,6.954c0,-3.838 -3.116,-6.954 -6.954,-6.954l-89.456,0c-3.838,0 -6.954,3.116 -6.954,6.954c0,3.838 3.116,6.954 6.954,6.954l89.456,0c3.838,0 6.954,-3.116 6.954,-6.954Z" style="fill:#9fd3ff;" stroke-width="1"/>
      <path d="M6.776,10.156l-1.572,-5.923l0.804,0l0.901,3.882c0.097,0.407 0.181,0.811 0.251,1.213c0.151,-0.633 0.24,-0.998 0.266,-1.095l1.128,-4l0.945,0l0.849,2.998c0.213,0.743 0.366,1.442 0.46,2.097c0.076,-0.375 0.174,-0.804 0.295,-1.289l0.93,-3.806l0.787,0l-1.624,5.923l-0.755,0l-1.249,-4.513c-0.105,-0.377 -0.167,-0.609 -0.186,-0.695c-0.062,0.272 -0.12,0.503 -0.173,0.695l-1.257,4.513l-0.8,0Z" style="fill:#fff;fill-rule:nonzero;" stroke-width="1"/>
      <path d="M13.039,8.01c0,-0.794 0.221,-1.383 0.662,-1.765c0.369,-0.318 0.819,-0.477 1.35,-0.477c0.59,0 1.072,0.193 1.446,0.58c0.375,0.386 0.562,0.92 0.562,1.602c0,0.552 -0.083,0.986 -0.249,1.303c-0.165,0.316 -0.406,0.562 -0.723,0.737c-0.316,0.175 -0.662,0.263 -1.036,0.263c-0.601,0 -1.086,-0.193 -1.457,-0.578c-0.37,-0.385 -0.555,-0.94 -0.555,-1.665ZM13.786,8.01c0,0.55 0.12,0.961 0.36,1.235c0.239,0.273 0.541,0.41 0.905,0.41c0.361,0 0.661,-0.137 0.901,-0.412c0.24,-0.275 0.359,-0.694 0.359,-1.257c0,-0.53 -0.12,-0.932 -0.361,-1.206c-0.241,-0.273 -0.541,-0.41 -0.899,-0.41c-0.364,0 -0.666,0.136 -0.905,0.408c-0.24,0.272 -0.36,0.683 -0.36,1.232Z" style="fill:#fff;fill-rule:nonzero;" stroke-width="1"/>
      <path d="M20.712,9.627c-0.27,0.229 -0.529,0.39 -0.778,0.484c-0.249,0.095 -0.517,0.142 -0.802,0.142c-0.472,0 -0.834,-0.115 -1.087,-0.346c-0.253,-0.23 -0.38,-0.524 -0.38,-0.882c0,-0.211 0.048,-0.402 0.143,-0.576c0.096,-0.174 0.221,-0.313 0.376,-0.418c0.155,-0.105 0.33,-0.185 0.523,-0.239c0.143,-0.037 0.359,-0.074 0.647,-0.109c0.587,-0.07 1.019,-0.153 1.297,-0.25c0.003,-0.1 0.004,-0.163 0.004,-0.19c0,-0.297 -0.069,-0.505 -0.206,-0.627c-0.186,-0.164 -0.462,-0.246 -0.828,-0.246c-0.343,0 -0.595,0.06 -0.758,0.18c-0.163,0.12 -0.284,0.332 -0.362,0.636l-0.711,-0.097c0.065,-0.304 0.171,-0.55 0.319,-0.737c0.149,-0.187 0.363,-0.331 0.643,-0.432c0.28,-0.102 0.605,-0.152 0.974,-0.152c0.366,0 0.664,0.043 0.893,0.129c0.229,0.086 0.397,0.195 0.505,0.326c0.107,0.13 0.183,0.295 0.226,0.495c0.024,0.123 0.036,0.347 0.036,0.67l0,0.97c0,0.676 0.016,1.104 0.047,1.283c0.031,0.179 0.092,0.351 0.184,0.515l-0.76,0c-0.075,-0.151 -0.124,-0.327 -0.145,-0.529ZM20.651,8.002c-0.264,0.108 -0.66,0.2 -1.188,0.275c-0.299,0.043 -0.51,0.092 -0.634,0.146c-0.124,0.053 -0.22,0.132 -0.287,0.236c-0.068,0.104 -0.101,0.219 -0.101,0.345c0,0.194 0.073,0.356 0.22,0.485c0.147,0.13 0.362,0.194 0.644,0.194c0.281,0 0.53,-0.061 0.748,-0.184c0.218,-0.122 0.378,-0.29 0.481,-0.503c0.078,-0.164 0.117,-0.406 0.117,-0.727l0,-0.267Z" style="fill:#fff;fill-rule:nonzero;" stroke-width="1"/>
      <path d="M22.514,10.156l0,-5.923l0.727,0l0,2.125c0.339,-0.393 0.768,-0.59 1.285,-0.59c0.318,0 0.594,0.063 0.828,0.188c0.234,0.125 0.402,0.298 0.503,0.519c0.101,0.221 0.152,0.541 0.152,0.962l0,2.719l-0.728,0l0,-2.719c0,-0.364 -0.079,-0.629 -0.236,-0.794c-0.158,-0.166 -0.381,-0.249 -0.669,-0.249c-0.215,0 -0.418,0.056 -0.608,0.168c-0.19,0.112 -0.325,0.263 -0.406,0.454c-0.081,0.192 -0.121,0.456 -0.121,0.792l0,2.348l-0.727,0Z" style="fill:#fff;fill-rule:nonzero;" stroke-width="1"/>
      <path d="M27.504,8.685l-0.223,-3.139l0,-1.313l0.901,0l0,1.313l-0.21,3.139l-0.468,0ZM27.314,10.156l0,-0.828l0.836,0l0,0.828l-0.836,0Z" style="fill:#fff;fill-rule:nonzero;" stroke-width="1"/>
      <path d="M31.774,10.156l0,-5.923l2.223,0c0.452,0 0.815,0.06 1.088,0.179c0.274,0.12 0.488,0.305 0.643,0.554c0.155,0.249 0.232,0.51 0.232,0.782c0,0.253 -0.068,0.491 -0.206,0.715c-0.137,0.224 -0.345,0.404 -0.622,0.541c0.358,0.105 0.634,0.285 0.826,0.538c0.193,0.253 0.289,0.552 0.289,0.897c0,0.277 -0.059,0.535 -0.176,0.773c-0.117,0.239 -0.262,0.423 -0.434,0.552c-0.172,0.129 -0.389,0.227 -0.649,0.293c-0.259,0.066 -0.578,0.099 -0.955,0.099l-2.259,0ZM32.558,6.722l1.281,0c0.347,0 0.597,-0.023 0.747,-0.069c0.2,-0.059 0.35,-0.158 0.451,-0.295c0.101,-0.137 0.151,-0.31 0.151,-0.517c0,-0.197 -0.047,-0.37 -0.141,-0.519c-0.094,-0.15 -0.229,-0.252 -0.404,-0.308c-0.175,-0.055 -0.475,-0.082 -0.901,-0.082l-1.184,0l0,1.79ZM32.558,9.457l1.475,0c0.253,0 0.431,-0.009 0.533,-0.028c0.181,-0.033 0.332,-0.087 0.453,-0.162c0.121,-0.075 0.221,-0.185 0.299,-0.329c0.078,-0.144 0.117,-0.311 0.117,-0.499c0,-0.221 -0.057,-0.413 -0.17,-0.576c-0.113,-0.163 -0.27,-0.277 -0.47,-0.343c-0.201,-0.066 -0.49,-0.099 -0.867,-0.099l-1.37,0l0,2.036Z" style="fill:#fff;fill-rule:nonzero;" stroke-width="1"/>
      <path d="M40.17,8.774l0.752,0.093c-0.119,0.439 -0.338,0.78 -0.659,1.022c-0.32,0.243 -0.73,0.364 -1.228,0.364c-0.628,0 -1.125,-0.193 -1.493,-0.58c-0.368,-0.386 -0.551,-0.929 -0.551,-1.626c0,-0.722 0.185,-1.282 0.557,-1.681c0.372,-0.399 0.854,-0.598 1.447,-0.598c0.573,0 1.042,0.195 1.406,0.586c0.363,0.39 0.545,0.94 0.545,1.648c0,0.043 -0.001,0.108 -0.004,0.194l-3.2,0c0.027,0.472 0.16,0.833 0.4,1.083c0.24,0.251 0.539,0.376 0.897,0.376c0.267,0 0.494,-0.07 0.683,-0.21c0.188,-0.14 0.338,-0.364 0.448,-0.671ZM37.782,7.598l2.396,0c-0.032,-0.361 -0.123,-0.631 -0.274,-0.812c-0.232,-0.28 -0.532,-0.42 -0.901,-0.42c-0.334,0 -0.615,0.112 -0.843,0.335c-0.227,0.224 -0.353,0.523 -0.378,0.897Z" style="fill:#fff;fill-rule:nonzero;" stroke-width="1"/>
      <path d="M41.544,8.875l0.719,-0.113c0.041,0.288 0.153,0.509 0.338,0.663c0.184,0.153 0.442,0.23 0.773,0.23c0.334,0 0.582,-0.068 0.744,-0.204c0.162,-0.136 0.242,-0.296 0.242,-0.479c0,-0.164 -0.071,-0.294 -0.214,-0.388c-0.099,-0.064 -0.347,-0.147 -0.743,-0.246c-0.534,-0.135 -0.903,-0.251 -1.109,-0.35c-0.206,-0.098 -0.363,-0.234 -0.469,-0.408c-0.106,-0.174 -0.16,-0.366 -0.16,-0.576c0,-0.191 0.044,-0.368 0.132,-0.531c0.087,-0.163 0.206,-0.298 0.357,-0.406c0.113,-0.084 0.268,-0.154 0.463,-0.212c0.195,-0.058 0.405,-0.087 0.628,-0.087c0.337,0 0.632,0.048 0.887,0.145c0.255,0.097 0.442,0.229 0.564,0.394c0.121,0.166 0.204,0.388 0.25,0.665l-0.711,0.097c-0.032,-0.221 -0.126,-0.393 -0.281,-0.517c-0.155,-0.124 -0.373,-0.186 -0.656,-0.186c-0.334,0 -0.573,0.055 -0.715,0.166c-0.143,0.11 -0.215,0.239 -0.215,0.388c0,0.094 0.03,0.179 0.089,0.254c0.06,0.078 0.152,0.143 0.279,0.194c0.073,0.027 0.287,0.089 0.642,0.186c0.515,0.137 0.874,0.25 1.077,0.337c0.204,0.088 0.363,0.215 0.479,0.382c0.116,0.167 0.174,0.374 0.174,0.622c0,0.243 -0.071,0.471 -0.212,0.685c-0.142,0.214 -0.346,0.38 -0.612,0.497c-0.267,0.117 -0.569,0.176 -0.906,0.176c-0.557,0 -0.982,-0.116 -1.274,-0.348c-0.293,-0.231 -0.479,-0.575 -0.56,-1.03Z" style="fill:#fff;fill-rule:nonzero;" stroke-width="1"/>
      <path d="M47.56,9.505l0.105,0.643c-0.204,0.043 -0.387,0.064 -0.549,0.064c-0.264,0 -0.469,-0.041 -0.614,-0.125c-0.146,-0.083 -0.248,-0.193 -0.307,-0.329c-0.06,-0.136 -0.089,-0.422 -0.089,-0.859l0,-2.468l-0.534,0l0,-0.566l0.534,0l0,-1.063l0.723,-0.436l0,1.499l0.731,0l0,0.566l-0.731,0l0,2.509c0,0.207 0.013,0.34 0.038,0.4c0.026,0.059 0.068,0.106 0.126,0.141c0.058,0.035 0.14,0.053 0.248,0.053c0.081,0 0.187,-0.01 0.319,-0.029Z" style="fill:#fff;fill-rule:nonzero;" stroke-width="1"/>
      <rect x="50.554" y="4.233" width="0.727" height="5.923" style="fill:#fff;fill-rule:nonzero;" stroke-width="1"/>
      <path d="M55.346,8.774l0.752,0.093c-0.119,0.439 -0.338,0.78 -0.659,1.022c-0.32,0.243 -0.73,0.364 -1.228,0.364c-0.628,0 -1.125,-0.193 -1.493,-0.58c-0.368,-0.386 -0.552,-0.929 -0.552,-1.626c0,-0.722 0.186,-1.282 0.558,-1.681c0.372,-0.399 0.854,-0.598 1.447,-0.598c0.573,0 1.042,0.195 1.406,0.586c0.363,0.39 0.545,0.94 0.545,1.648c0,0.043 -0.001,0.108 -0.004,0.194l-3.2,0c0.027,0.472 0.16,0.833 0.4,1.083c0.24,0.251 0.539,0.376 0.897,0.376c0.267,0 0.494,-0.07 0.683,-0.21c0.188,-0.14 0.338,-0.364 0.448,-0.671ZM52.958,7.598l2.396,0c-0.032,-0.361 -0.123,-0.631 -0.274,-0.812c-0.232,-0.28 -0.532,-0.42 -0.901,-0.42c-0.334,0 -0.615,0.112 -0.843,0.335c-0.227,0.224 -0.353,0.523 -0.378,0.897Z" style="fill:#fff;fill-rule:nonzero;" stroke-width="1"/>
      <path d="M58.203,10.156l-1.632,-4.291l0.767,0l0.921,2.57c0.1,0.277 0.192,0.565 0.275,0.864c0.065,-0.226 0.155,-0.498 0.271,-0.816l0.954,-2.618l0.747,0l-1.624,4.291l-0.679,0Z" style="fill:#fff;fill-rule:nonzero;" stroke-width="1"/>
      <path d="M64.086,8.774l0.751,0.093c-0.118,0.439 -0.338,0.78 -0.658,1.022c-0.321,0.243 -0.73,0.364 -1.229,0.364c-0.627,0 -1.125,-0.193 -1.492,-0.58c-0.368,-0.386 -0.552,-0.929 -0.552,-1.626c0,-0.722 0.186,-1.282 0.558,-1.681c0.371,-0.399 0.853,-0.598 1.446,-0.598c0.574,0 1.043,0.195 1.406,0.586c0.364,0.39 0.546,0.94 0.546,1.648c0,0.043 -0.002,0.108 -0.004,0.194l-3.2,0c0.026,0.472 0.16,0.833 0.4,1.083c0.239,0.251 0.538,0.376 0.897,0.376c0.266,0 0.494,-0.07 0.682,-0.21c0.189,-0.14 0.338,-0.364 0.449,-0.671ZM61.698,7.598l2.396,0c-0.032,-0.361 -0.124,-0.631 -0.275,-0.812c-0.231,-0.28 -0.532,-0.42 -0.901,-0.42c-0.334,0 -0.615,0.112 -0.842,0.335c-0.228,0.224 -0.354,0.523 -0.378,0.897Z" style="fill:#fff;fill-rule:nonzero;" stroke-width="1"/>
      <rect x="65.734" y="4.233" width="0.727" height="5.923" style="fill:#fff;fill-rule:nonzero;" stroke-width="1"/>
      <path d="M72.825,8.774l0.752,0.093c-0.119,0.439 -0.338,0.78 -0.659,1.022c-0.32,0.243 -0.73,0.364 -1.228,0.364c-0.628,0 -1.125,-0.193 -1.493,-0.58c-0.368,-0.386 -0.551,-0.929 -0.551,-1.626c0,-0.722 0.185,-1.282 0.557,-1.681c0.372,-0.399 0.854,-0.598 1.447,-0.598c0.573,0 1.042,0.195 1.406,0.586c0.363,0.39 0.545,0.94 0.545,1.648c0,0.043 -0.001,0.108 -0.004,0.194l-3.2,0c0.027,0.472 0.16,0.833 0.4,1.083c0.24,0.251 0.539,0.376 0.897,0.376c0.267,0 0.494,-0.07 0.683,-0.21c0.188,-0.14 0.338,-0.364 0.448,-0.671ZM70.437,7.598l2.396,0c-0.032,-0.361 -0.123,-0.631 -0.274,-0.812c-0.232,-0.28 -0.532,-0.42 -0.901,-0.42c-0.334,0 -0.615,0.112 -0.843,0.335c-0.227,0.224 -0.353,0.523 -0.378,0.897Z" style="fill:#fff;fill-rule:nonzero;" stroke-width="1"/>
      <path d="M75.682,10.156l-1.632,-4.291l0.767,0l0.922,2.57c0.099,0.277 0.191,0.565 0.274,0.864c0.065,-0.226 0.155,-0.498 0.271,-0.816l0.954,-2.618l0.747,0l-1.624,4.291l-0.679,0Z" style="fill:#fff;fill-rule:nonzero;" stroke-width="1"/>
      <path d="M81.565,8.774l0.751,0.093c-0.118,0.439 -0.338,0.78 -0.658,1.022c-0.321,0.243 -0.73,0.364 -1.229,0.364c-0.627,0 -1.125,-0.193 -1.492,-0.58c-0.368,-0.386 -0.552,-0.929 -0.552,-1.626c0,-0.722 0.186,-1.282 0.558,-1.681c0.371,-0.399 0.853,-0.598 1.446,-0.598c0.574,0 1.043,0.195 1.406,0.586c0.364,0.39 0.546,0.94 0.546,1.648c0,0.043 -0.002,0.108 -0.004,0.194l-3.2,0c0.026,0.472 0.16,0.833 0.4,1.083c0.239,0.251 0.538,0.376 0.897,0.376c0.266,0 0.494,-0.07 0.682,-0.21c0.189,-0.14 0.338,-0.364 0.449,-0.671ZM79.177,7.598l2.396,0c-0.032,-0.361 -0.124,-0.631 -0.275,-0.812c-0.231,-0.28 -0.532,-0.42 -0.901,-0.42c-0.334,0 -0.615,0.112 -0.842,0.335c-0.228,0.224 -0.354,0.523 -0.378,0.897Z" style="fill:#fff;fill-rule:nonzero;" stroke-width="1"/>
      <path d="M83.221,10.156l0,-4.291l0.655,0l0,0.65c0.167,-0.304 0.321,-0.505 0.463,-0.602c0.141,-0.097 0.297,-0.145 0.466,-0.145c0.245,0 0.495,0.078 0.748,0.234l-0.251,0.675c-0.177,-0.105 -0.355,-0.157 -0.533,-0.157c-0.159,0 -0.302,0.047 -0.428,0.143c-0.127,0.096 -0.217,0.228 -0.271,0.398c-0.081,0.259 -0.121,0.541 -0.121,0.848l0,2.247l-0.728,0Z" style="fill:#fff;fill-rule:nonzero;" stroke-width="1"/>
      <path d="M86.373,8.685l-0.222,-3.139l0,-1.313l0.901,0l0,1.313l-0.21,3.139l-0.469,0ZM86.183,10.156l0,-0.828l0.836,0l0,0.828l-0.836,0Z" style="fill:#fff;fill-rule:nonzero;" stroke-width="1"/>
    </g>
    <g id="Shocked emoji">
      <circle cx="94.854" cy="6.954" r="4.164" style="fill:#ffca59;" stroke-width="1"/>
      <g id="Face">
        <circle cx="93.225" cy="5.769" r="0.681" style="fill:#000;" stroke-width="1"/>
        <circle cx="96.484" cy="5.769" r="0.681" style="fill:#000;" stroke-width="1"/>
        <path d="M94.854,6.478c0.721,0 1.305,0.397 1.305,1.321c0,1.723 -0.001,1.674 -1.305,1.674c-1.303,0 -1.304,0.077 -1.304,-1.674c0,-0.924 0.584,-1.321 1.304,-1.321Z" style="fill:#000;" stroke-width="1"/>
      </g>
    </g>
  </g>
</svg>