<svg version="1.1" width="33.25" height="54.75" viewBox="0.03100001811981201 -0.3439999967813492 33.25 54.75" xmlns="http://www.w3.org/2000/svg" xmlns:xlink="http://www.w3.org/1999/xlink">
  <!-- Exported by Scratch - http://scratch.mit.edu/ -->
  <g id="ID0.2871193019673228">
    <g id="layer1">
      <path id="path2993" fill="#666666" stroke="none" d="M 17 0.156 C 14.469 0.156 12.184 0.645 10.156 1.594 C 8.129 2.543 6.43 3.859 5 5.594 C 3.57 7.328 2.461 9.418 1.688 11.844 C 0.914 14.27 0.531 16.953 0.531 19.906 C 0.531 22.695 0.898 25.191 1.625 27.406 C 2.352 29.621 3.344 31.516 4.656 33.063 C 5.969 34.609 7.566 35.805 9.406 36.625 C 11.246 37.445 13.273 37.844 15.5 37.844 C 21.172 37.844 25.391 35.484 28.156 30.75 L 28.281 30.75 L 28.281 35.063 C 28.281 45 23.586 49.969 14.188 49.969 C 10.648 49.969 6.945 48.898 3.031 46.719 L 3.031 51.281 C 6.547 53.039 10.25 53.906 14.188 53.906 C 20.516 53.906 25.215 52.285 28.25 49.063 C 31.285 45.84 32.781 40.898 32.781 34.219 L 32.781 1 L 28.281 1 L 28.281 6.344 L 28.156 6.344 C 25.812 2.219 22.086 0.156 17 0.156 Z M 17.438 4.063 C 19.031 4.063 20.488 4.371 21.813 4.969 C 23.137 5.566 24.289 6.367 25.25 7.375 C 26.211 8.383 26.961 9.539 27.5 10.875 C 28.039 12.211 28.281 13.625 28.281 15.125 L 28.281 21.344 C 28.281 23.125 28 24.809 27.438 26.344 C 26.875 27.879 26.094 29.207 25.063 30.344 C 24.031 31.48 22.797 32.356 21.344 33 C 19.891 33.645 18.25 33.969 16.469 33.969 C 14.758 33.969 13.207 33.648 11.813 32.969 C 10.418 32.289 9.234 31.305 8.25 30.063 C 7.266 28.82 6.508 27.313 5.969 25.531 C 5.43 23.75 5.156 21.766 5.156 19.563 C 5.156 17.172 5.457 15.035 6.031 13.125 C 6.605 11.215 7.402 9.586 8.469 8.25 C 9.535 6.914 10.832 5.883 12.344 5.156 C 13.855 4.43 15.562 4.063 17.438 4.063 Z " stroke-width="1"/>
    </g>
  </g>
</svg>