<svg version="1.1" width="46.509586334228516" height="45.5" viewBox="0.25 0.75 46.509586334228516 45.5" xmlns="http://www.w3.org/2000/svg" xmlns:xlink="http://www.w3.org/1999/xlink">
  <!-- Exported by Scratch - http://scratch.mit.edu/ -->
  <path id="ID0.636300531681627" fill="none" stroke="#666666" stroke-width="2" d="M 23 1.75 C 29.001 1.75 34.438 4.187 38.375 8.125 C 42.313 12.062 44.75 17.499 44.75 23.5 C 44.75 29.501 42.313 34.938 38.375 38.875 C 34.438 42.813 29.001 45.25 23 45.25 C 16.999 45.25 11.562 42.813 7.625 38.875 C 3.687 34.938 1.25 29.501 1.25 23.5 C 1.25 17.499 3.687 12.062 7.625 8.125 C 11.562 4.187 16.999 1.75 23 1.75 Z "/>
  <path id="ID0.47749789524823427" fill="#666666" stroke="none" d="M 15.75 13.75 C 16.302 13.75 16.802 13.974 17.164 14.336 C 17.526 14.698 17.75 15.198 17.75 15.75 C 17.75 16.302 17.526 16.802 17.164 17.164 C 16.802 17.526 16.302 17.75 15.75 17.75 C 15.198 17.75 14.698 17.526 14.336 17.164 C 13.974 16.802 13.75 16.302 13.75 15.75 C 13.75 15.198 13.974 14.698 14.336 14.336 C 14.698 13.974 15.198 13.75 15.75 13.75 Z " stroke-width="1"/>
  <path id="ID0.47749789524823427" fill="#666666" stroke="none" d="M 31.5 13.5 C 32.052 13.5 32.552 13.724 32.914 14.086 C 33.276 14.448 33.5 14.948 33.5 15.5 C 33.5 16.052 33.276 16.552 32.914 16.914 C 32.552 17.276 32.052 17.5 31.5 17.5 C 30.948 17.5 30.448 17.276 30.086 16.914 C 29.724 16.552 29.5 16.052 29.5 15.5 C 29.5 14.948 29.724 14.448 30.086 14.086 C 30.448 13.724 30.948 13.5 31.5 13.5 Z " stroke-width="1"/>
  <text id="ID0.4037121497094631" fill="#666666" text-anchor="start" font-family="Sans Serif" font-size="22" transform="matrix(-0.0101418, 1.27032, -1.27032, -0.0101418, 47.3407, 29.5711)" stroke-width="1" alignment-baseline="text-before-edge" xml:space="preserve"><tspan x="0" style="white-space: pre" dy="1.13em">)</tspan></text>
</svg>