<svg version="1.1" width="24.812999725341797" height="52.875" viewBox="0.156000018119812 0.25 24.812999725341797 52.875" xmlns="http://www.w3.org/2000/svg" xmlns:xlink="http://www.w3.org/1999/xlink">
  <!-- Exported by Scratch - http://scratch.mit.edu/ -->
  <g id="ID0.1701659862883389">
    <g id="layer1">
      <path id="path3343" fill="#666666" stroke="none" d="M 11.906 0.75 C 9.82 0.75 7.84 1.039 6 1.625 C 4.16 2.211 2.391 3.086 0.656 4.281 L 0.656 9.281 C 2.203 7.805 3.844 6.699 5.625 5.938 C 7.406 5.176 9.359 4.781 11.469 4.781 C 12.664 4.781 13.801 4.941 14.844 5.281 C 15.887 5.621 16.77 6.137 17.531 6.781 C 18.293 7.426 18.91 8.219 19.344 9.156 C 19.777 10.094 19.969 11.156 19.969 12.375 C 19.969 13.383 19.836 14.34 19.531 15.219 C 19.227 16.098 18.805 16.914 18.313 17.688 C 17.82 18.461 17.27 19.195 16.625 19.875 C 15.98 20.555 15.297 21.219 14.594 21.875 C 13.727 22.695 12.902 23.516 12.094 24.313 C 11.285 25.109 10.578 25.914 9.969 26.781 C 9.359 27.649 8.875 28.59 8.5 29.563 C 8.125 30.535 7.937 31.617 7.938 32.813 C 7.937 33.773 7.992 34.707 8.156 35.656 C 8.32 36.605 8.516 37.391 8.75 38 L 13.031 38 C 12.797 37.391 12.566 36.66 12.344 35.781 C 12.121 34.902 12 33.922 12 32.844 C 12 31.953 12.137 31.133 12.406 30.406 C 12.676 29.68 13.078 28.984 13.594 28.281 C 14.109 27.578 14.738 26.824 15.5 26.063 C 16.262 25.301 17.148 24.461 18.156 23.5 C 18.953 22.75 19.719 21.945 20.469 21.125 C 21.219 20.305 21.902 19.438 22.5 18.5 C 23.098 17.563 23.574 16.539 23.938 15.438 C 24.301 14.336 24.469 13.125 24.469 11.813 C 24.469 10.008 24.156 8.434 23.5 7.063 C 22.844 5.691 21.937 4.531 20.813 3.594 C 19.687 2.656 18.379 1.949 16.844 1.469 C 15.309 0.988 13.664 0.75 11.906 0.75 Z M 10.938 45.906 C 10.492 45.906 10.066 46.012 9.656 46.188 C 9.246 46.363 8.898 46.582 8.594 46.875 C 8.289 47.168 8.051 47.527 7.875 47.938 C 7.699 48.348 7.594 48.789 7.594 49.281 C 7.594 49.75 7.687 50.215 7.875 50.625 C 8.062 51.035 8.32 51.383 8.625 51.688 C 8.93 51.992 9.289 52.211 9.688 52.375 C 10.086 52.539 10.492 52.625 10.938 52.625 C 11.383 52.625 11.809 52.539 12.219 52.375 C 12.629 52.211 12.996 51.992 13.313 51.688 C 13.629 51.383 13.875 51.035 14.063 50.625 C 14.25 50.215 14.344 49.75 14.344 49.281 C 14.344 48.789 14.25 48.348 14.063 47.938 C 13.875 47.527 13.629 47.18 13.313 46.875 C 12.996 46.57 12.629 46.32 12.219 46.156 C 11.809 45.992 11.383 45.906 10.938 45.906 Z " stroke-width="1"/>
    </g>
  </g>
</svg>