<svg version="1.1" width="32.65599822998047" height="53.09400177001953" viewBox="-0.125 0.25 32.65599822998047 53.09400177001953" xmlns="http://www.w3.org/2000/svg" xmlns:xlink="http://www.w3.org/1999/xlink">
  <!-- Exported by Scratch - http://scratch.mit.edu/ -->
  <g id="ID0.04322133352980018">
    <g id="layer1">
      <path id="path3006" fill="#666666" stroke="none" d="M 16.844 0.75 C 11.523 0.75 7.449 3.035 4.625 7.594 C 1.801 12.152 0.375 18.891 0.375 27.844 C 0.375 31.922 0.715 35.539 1.406 38.656 C 2.098 41.773 3.113 44.371 4.438 46.469 C 5.762 48.566 7.383 50.141 9.281 51.219 C 11.18 52.297 13.336 52.844 15.75 52.844 C 18.328 52.844 20.609 52.262 22.625 51.125 C 24.641 49.988 26.355 48.32 27.75 46.094 C 29.144 43.867 30.211 41.133 30.938 37.875 C 31.664 34.617 32.031 30.859 32.031 26.594 C 32.031 9.367 26.969 0.75 16.844 0.75 Z M 16.563 4.688 C 23.781 4.688 27.375 12.18 27.375 27.156 C 27.375 30.695 27.137 33.813 26.656 36.531 C 26.176 39.25 25.469 41.535 24.531 43.375 C 23.594 45.215 22.426 46.613 21.031 47.563 C 19.637 48.512 18.055 48.969 16.25 48.969 C 12.547 48.969 9.73 47.145 7.844 43.5 C 5.957 39.856 5.031 34.531 5.031 27.5 C 5.031 19.883 6 14.172 7.969 10.375 C 9.937 6.578 12.812 4.688 16.563 4.688 Z " stroke-width="1"/>
    </g>
  </g>
</svg>