<svg version="1.1" width="80.0165023803711" height="16.389699935913086" viewBox="-0.047500014305114746 -0.4690000005066395 80.0165023803711 16.389699935913086" xmlns="http://www.w3.org/2000/svg" xmlns:xlink="http://www.w3.org/1999/xlink">
  <!-- Exported by Scratch - http://scratch.mit.edu/ -->
  <g id="ID0.9886956689879298">
    <g id="Moon Preset">
      <g id="ID0.07773778727278113">
        <path id="ID0.207949323579669" fill="white" d="M 79.469 3.8609 C 79.469 1.7469 77.7531 0.031 75.6388 0.031 L 4.2827 0.031 C 2.1685 0.031 0.4525 1.7469 0.4525 3.8609 L 0.4525 11.5908 C 0.4525 13.7048 2.1685 15.4207 4.2827 15.4207 L 75.6388 15.4207 C 77.7531 15.4207 79.469 13.7048 79.469 11.5908 L 79.469 3.8609 Z " stroke-width="0.902641895932372"/>
      </g>
      <g id="ID0.6175116756930947">
        <path id="ID0.22728204354643822" fill="rgb(101,168,231)" d="M 27.021 11.122 L 27.021 3.248 L 28.589 3.248 L 30.453 8.823 C 30.625 9.343 30.75 9.731 30.829 9.989 C 30.919 9.702 31.058 9.282 31.248 8.727 L 33.133 3.248 L 34.535 3.248 L 34.535 11.122 L 33.531 11.122 L 33.531 4.532 L 31.243 11.122 L 30.303 11.122 L 28.025 4.419 L 28.025 11.122 L 27.021 11.122 Z " stroke-width="1"/>
        <path id="ID0.4930201000533998" fill="rgb(101,168,231)" d="M 35.733 8.27 C 35.733 7.214 36.027 6.431 36.614 5.923 C 37.104 5.501 37.702 5.289 38.408 5.289 C 39.192 5.289 39.833 5.546 40.331 6.06 C 40.828 6.574 41.077 7.284 41.077 8.19 C 41.077 8.924 40.967 9.501 40.747 9.922 C 40.527 10.343 40.206 10.669 39.785 10.902 C 39.365 11.135 38.906 11.251 38.408 11.251 C 37.609 11.251 36.964 10.995 36.472 10.483 C 35.979 9.971 35.733 9.233 35.733 8.27 Z M 36.727 8.27 C 36.727 9.001 36.886 9.548 37.205 9.911 C 37.523 10.275 37.924 10.456 38.408 10.456 C 38.888 10.456 39.287 10.274 39.606 9.908 C 39.924 9.543 40.084 8.986 40.084 8.238 C 40.084 7.533 39.923 6.998 39.603 6.635 C 39.282 6.271 38.884 6.09 38.408 6.09 C 37.924 6.09 37.523 6.27 37.205 6.632 C 36.886 6.994 36.727 7.54 36.727 8.27 Z " stroke-width="1"/>
        <path id="ID0.5658823219127953" fill="rgb(101,168,231)" d="M 41.851 8.27 C 41.851 7.214 42.144 6.431 42.732 5.923 C 43.222 5.501 43.82 5.289 44.525 5.289 C 45.31 5.289 45.951 5.546 46.448 6.06 C 46.946 6.574 47.195 7.284 47.195 8.19 C 47.195 8.924 47.085 9.501 46.865 9.922 C 46.644 10.343 46.324 10.669 45.903 10.902 C 45.482 11.135 45.023 11.251 44.525 11.251 C 43.727 11.251 43.082 10.995 42.589 10.483 C 42.097 9.971 41.851 9.233 41.851 8.27 Z M 42.844 8.27 C 42.844 9.001 43.004 9.548 43.322 9.911 C 43.641 10.275 44.042 10.456 44.525 10.456 C 45.005 10.456 45.405 10.274 45.723 9.908 C 46.042 9.543 46.201 8.986 46.201 8.238 C 46.201 7.533 46.041 6.998 45.721 6.635 C 45.4 6.271 45.002 6.09 44.525 6.09 C 44.042 6.09 43.641 6.27 43.322 6.632 C 43.004 6.994 42.844 7.54 42.844 8.27 Z " stroke-width="1"/>
        <path id="ID0.2101927069015801" fill="rgb(101,168,231)" d="M 48.328 11.122 L 48.328 5.418 L 49.198 5.418 L 49.198 6.229 C 49.617 5.603 50.222 5.289 51.014 5.289 C 51.358 5.289 51.674 5.351 51.962 5.475 C 52.25 5.598 52.466 5.76 52.609 5.961 C 52.752 6.161 52.852 6.399 52.91 6.675 C 52.946 6.854 52.963 7.167 52.963 7.615 L 52.963 11.122 L 51.997 11.122 L 51.997 7.653 C 51.997 7.259 51.959 6.964 51.884 6.769 C 51.809 6.574 51.675 6.418 51.484 6.302 C 51.292 6.185 51.067 6.127 50.81 6.127 C 50.398 6.127 50.042 6.258 49.743 6.519 C 49.445 6.781 49.295 7.277 49.295 8.007 L 49.295 11.122 L 48.328 11.122 Z " stroke-width="1"/>
      </g>
    </g>
  </g>
<defs/></svg>