<svg width="110.2020034790039" height="14.907999992370605" viewBox="-0.499997615814209 -0.5 110.2020034790039 14.907999992370605" version="1.1" xmlns="http://www.w3.org/2000/svg" xmlns:xlink="http://www.w3.org/1999/xlink" xml:space="preserve" style="fill-rule:evenodd;clip-rule:evenodd;stroke-linejoin:round;stroke-miterlimit:1.41421;"><g id="1"><path d="M109.202,6.954c0,-3.838 -3.116,-6.954 -6.954,-6.954l-95.294,0c-3.838,0 -6.954,3.116 -6.954,6.954c0,3.838 3.116,6.954 6.954,6.954l95.294,0c3.838,0 6.954,-3.116 6.954,-6.954Z" style="fill:#9fd3ff;" stroke-width="1"/><path d="M9.968,8.079l0.784,0.198c-0.165,0.644 -0.46,1.135 -0.887,1.473c-0.427,0.338 -0.949,0.507 -1.566,0.507c-0.638,0 -1.157,-0.13 -1.557,-0.39c-0.4,-0.26 -0.705,-0.636 -0.914,-1.129c-0.208,-0.493 -0.313,-1.023 -0.313,-1.588c0,-0.617 0.118,-1.155 0.354,-1.614c0.236,-0.46 0.571,-0.808 1.006,-1.047c0.435,-0.238 0.914,-0.357 1.436,-0.357c0.593,0 1.091,0.15 1.495,0.452c0.404,0.302 0.686,0.726 0.845,1.273l-0.772,0.182c-0.137,-0.431 -0.337,-0.745 -0.598,-0.942c-0.261,-0.196 -0.59,-0.295 -0.986,-0.295c-0.455,0 -0.836,0.109 -1.141,0.328c-0.306,0.218 -0.521,0.511 -0.645,0.878c-0.124,0.368 -0.186,0.747 -0.186,1.138c0,0.504 0.074,0.943 0.221,1.319c0.146,0.376 0.375,0.657 0.684,0.842c0.31,0.186 0.646,0.279 1.007,0.279c0.439,0 0.81,-0.126 1.115,-0.38c0.304,-0.253 0.51,-0.629 0.618,-1.127Z" style="fill:#fff;fill-rule:nonzero;" stroke-width="1"/><path d="M11.625,10.156l0,-5.923l0.727,0l0,2.125c0.339,-0.393 0.767,-0.59 1.285,-0.59c0.318,0 0.594,0.063 0.828,0.188c0.234,0.125 0.402,0.298 0.503,0.519c0.101,0.221 0.152,0.541 0.152,0.962l0,2.719l-0.728,0l0,-2.719c0,-0.364 -0.079,-0.629 -0.236,-0.794c-0.158,-0.166 -0.381,-0.249 -0.669,-0.249c-0.215,0 -0.418,0.056 -0.608,0.168c-0.19,0.112 -0.325,0.263 -0.406,0.454c-0.081,0.192 -0.121,0.456 -0.121,0.792l0,2.348l-0.727,0Z" style="fill:#fff;fill-rule:nonzero;" stroke-width="1"/><path d="M19.027,9.627c-0.27,0.229 -0.529,0.39 -0.778,0.484c-0.249,0.095 -0.517,0.142 -0.802,0.142c-0.472,0 -0.834,-0.115 -1.087,-0.346c-0.253,-0.23 -0.38,-0.524 -0.38,-0.882c0,-0.211 0.048,-0.402 0.144,-0.576c0.095,-0.174 0.22,-0.313 0.375,-0.418c0.155,-0.105 0.33,-0.185 0.524,-0.239c0.142,-0.037 0.358,-0.074 0.646,-0.109c0.587,-0.07 1.02,-0.153 1.297,-0.25c0.003,-0.1 0.004,-0.163 0.004,-0.19c0,-0.297 -0.069,-0.505 -0.206,-0.627c-0.186,-0.164 -0.462,-0.246 -0.828,-0.246c-0.342,0 -0.595,0.06 -0.758,0.18c-0.163,0.12 -0.283,0.332 -0.361,0.636l-0.712,-0.097c0.065,-0.304 0.171,-0.55 0.32,-0.737c0.148,-0.187 0.362,-0.331 0.642,-0.432c0.28,-0.102 0.605,-0.152 0.974,-0.152c0.366,0 0.664,0.043 0.893,0.129c0.229,0.086 0.397,0.195 0.505,0.326c0.108,0.13 0.183,0.295 0.226,0.495c0.024,0.123 0.036,0.347 0.036,0.67l0,0.97c0,0.676 0.016,1.104 0.047,1.283c0.031,0.179 0.092,0.351 0.184,0.515l-0.76,0c-0.075,-0.151 -0.124,-0.327 -0.145,-0.529ZM18.966,8.002c-0.264,0.108 -0.66,0.2 -1.188,0.275c-0.299,0.043 -0.51,0.092 -0.634,0.146c-0.124,0.053 -0.22,0.132 -0.287,0.236c-0.067,0.104 -0.101,0.219 -0.101,0.345c0,0.194 0.073,0.356 0.22,0.485c0.147,0.13 0.362,0.194 0.645,0.194c0.28,0 0.529,-0.061 0.747,-0.184c0.218,-0.122 0.379,-0.29 0.481,-0.503c0.078,-0.164 0.117,-0.406 0.117,-0.727l0,-0.267Z" style="fill:#fff;fill-rule:nonzero;" stroke-width="1"/><rect x="20.813" y="4.233" width="0.727" height="5.923" style="fill:#fff;fill-rule:nonzero;" stroke-width="1"/><rect x="22.651" y="4.233" width="0.727" height="5.923" style="fill:#fff;fill-rule:nonzero;" stroke-width="1"/><path d="M27.443,8.774l0.751,0.093c-0.118,0.439 -0.338,0.78 -0.658,1.022c-0.321,0.243 -0.73,0.364 -1.228,0.364c-0.628,0 -1.126,-0.193 -1.493,-0.58c-0.368,-0.386 -0.552,-0.929 -0.552,-1.626c0,-0.722 0.186,-1.282 0.558,-1.681c0.371,-0.399 0.854,-0.598 1.446,-0.598c0.574,0 1.043,0.195 1.406,0.586c0.364,0.39 0.546,0.94 0.546,1.648c0,0.043 -0.002,0.108 -0.004,0.194l-3.2,0c0.027,0.472 0.16,0.833 0.4,1.083c0.239,0.251 0.538,0.376 0.897,0.376c0.266,0 0.494,-0.07 0.682,-0.21c0.189,-0.14 0.338,-0.364 0.449,-0.671ZM25.055,7.598l2.396,0c-0.032,-0.361 -0.124,-0.631 -0.275,-0.812c-0.231,-0.28 -0.532,-0.42 -0.901,-0.42c-0.334,0 -0.615,0.112 -0.842,0.335c-0.228,0.224 -0.354,0.523 -0.378,0.897Z" style="fill:#fff;fill-rule:nonzero;" stroke-width="1"/><path d="M29.108,10.156l0,-4.291l0.654,0l0,0.61c0.315,-0.471 0.771,-0.707 1.366,-0.707c0.258,0 0.496,0.046 0.713,0.139c0.217,0.093 0.379,0.215 0.487,0.366c0.108,0.151 0.183,0.33 0.226,0.537c0.027,0.135 0.041,0.371 0.041,0.708l0,2.638l-0.728,0l0,-2.61c0,-0.297 -0.028,-0.518 -0.085,-0.665c-0.056,-0.147 -0.157,-0.264 -0.301,-0.351c-0.144,-0.088 -0.313,-0.132 -0.507,-0.132c-0.309,0 -0.577,0.099 -0.802,0.295c-0.225,0.197 -0.337,0.57 -0.337,1.119l0,2.344l-0.727,0Z" style="fill:#fff;fill-rule:nonzero;" stroke-width="1"/><path d="M33.576,10.511l0.707,0.106c0.03,0.218 0.112,0.377 0.247,0.476c0.18,0.135 0.427,0.202 0.739,0.202c0.337,0 0.597,-0.067 0.78,-0.202c0.183,-0.134 0.307,-0.323 0.372,-0.565c0.038,-0.148 0.055,-0.46 0.052,-0.934c-0.318,0.375 -0.713,0.562 -1.188,0.562c-0.589,0 -1.046,-0.213 -1.369,-0.638c-0.324,-0.426 -0.485,-0.937 -0.485,-1.532c0,-0.409 0.074,-0.787 0.222,-1.133c0.148,-0.346 0.363,-0.614 0.645,-0.802c0.281,-0.189 0.612,-0.283 0.991,-0.283c0.507,0 0.924,0.205 1.253,0.614l0,-0.517l0.671,0l0,3.709c0,0.668 -0.068,1.142 -0.204,1.42c-0.136,0.279 -0.352,0.499 -0.647,0.661c-0.295,0.162 -0.658,0.242 -1.089,0.242c-0.511,0 -0.925,-0.115 -1.24,-0.345c-0.315,-0.23 -0.467,-0.577 -0.457,-1.041ZM34.178,7.934c0,0.563 0.112,0.973 0.336,1.232c0.223,0.259 0.503,0.388 0.84,0.388c0.334,0 0.614,-0.129 0.841,-0.386c0.226,-0.257 0.339,-0.661 0.339,-1.21c0,-0.525 -0.117,-0.921 -0.35,-1.188c-0.233,-0.267 -0.513,-0.4 -0.842,-0.4c-0.323,0 -0.598,0.131 -0.824,0.394c-0.227,0.263 -0.34,0.653 -0.34,1.17Z" style="fill:#fff;fill-rule:nonzero;" stroke-width="1"/><path d="M38.316,5.069l0,-0.836l0.727,0l0,0.836l-0.727,0ZM38.316,10.156l0,-4.291l0.727,0l0,4.291l-0.727,0Z" style="fill:#fff;fill-rule:nonzero;" stroke-width="1"/><path d="M40.15,10.156l0,-4.291l0.655,0l0,0.61c0.315,-0.471 0.77,-0.707 1.365,-0.707c0.259,0 0.497,0.046 0.714,0.139c0.216,0.093 0.379,0.215 0.486,0.366c0.108,0.151 0.184,0.33 0.227,0.537c0.027,0.135 0.04,0.371 0.04,0.708l0,2.638l-0.727,0l0,-2.61c0,-0.297 -0.028,-0.518 -0.085,-0.665c-0.057,-0.147 -0.157,-0.264 -0.301,-0.351c-0.144,-0.088 -0.313,-0.132 -0.507,-0.132c-0.31,0 -0.577,0.099 -0.802,0.295c-0.225,0.197 -0.338,0.57 -0.338,1.119l0,2.344l-0.727,0Z" style="fill:#fff;fill-rule:nonzero;" stroke-width="1"/><path d="M44.619,10.511l0.707,0.106c0.03,0.218 0.112,0.377 0.246,0.476c0.181,0.135 0.427,0.202 0.74,0.202c0.337,0 0.597,-0.067 0.78,-0.202c0.183,-0.134 0.307,-0.323 0.371,-0.565c0.038,-0.148 0.056,-0.46 0.053,-0.934c-0.318,0.375 -0.714,0.562 -1.188,0.562c-0.59,0 -1.046,-0.213 -1.37,-0.638c-0.323,-0.426 -0.485,-0.937 -0.485,-1.532c0,-0.409 0.075,-0.787 0.223,-1.133c0.148,-0.346 0.363,-0.614 0.644,-0.802c0.282,-0.189 0.612,-0.283 0.992,-0.283c0.506,0 0.924,0.205 1.253,0.614l0,-0.517l0.67,0l0,3.709c0,0.668 -0.068,1.142 -0.204,1.42c-0.136,0.279 -0.351,0.499 -0.646,0.661c-0.295,0.162 -0.658,0.242 -1.089,0.242c-0.512,0 -0.925,-0.115 -1.241,-0.345c-0.315,-0.23 -0.467,-0.577 -0.456,-1.041ZM45.221,7.934c0,0.563 0.112,0.973 0.335,1.232c0.224,0.259 0.504,0.388 0.841,0.388c0.334,0 0.614,-0.129 0.84,-0.386c0.226,-0.257 0.34,-0.661 0.34,-1.21c0,-0.525 -0.117,-0.921 -0.35,-1.188c-0.233,-0.267 -0.514,-0.4 -0.842,-0.4c-0.324,0 -0.598,0.131 -0.825,0.394c-0.226,0.263 -0.339,0.653 -0.339,1.17Z" style="fill:#fff;fill-rule:nonzero;" stroke-width="1"/><path d="M51.657,5.069l0,-0.836l0.728,0l0,0.836l-0.728,0ZM51.657,10.156l0,-4.291l0.728,0l0,4.291l-0.728,0Z" style="fill:#fff;fill-rule:nonzero;" stroke-width="1"/><path d="M53.492,10.156l0,-4.291l0.654,0l0,0.61c0.315,-0.471 0.771,-0.707 1.366,-0.707c0.259,0 0.496,0.046 0.713,0.139c0.217,0.093 0.379,0.215 0.487,0.366c0.108,0.151 0.183,0.33 0.226,0.537c0.027,0.135 0.041,0.371 0.041,0.708l0,2.638l-0.728,0l0,-2.61c0,-0.297 -0.028,-0.518 -0.084,-0.665c-0.057,-0.147 -0.157,-0.264 -0.301,-0.351c-0.145,-0.088 -0.314,-0.132 -0.508,-0.132c-0.309,0 -0.577,0.099 -0.802,0.295c-0.225,0.197 -0.337,0.57 -0.337,1.119l0,2.344l-0.727,0Z" style="fill:#fff;fill-rule:nonzero;" stroke-width="1"/><path d="M63.193,9.627c-0.269,0.229 -0.529,0.39 -0.778,0.484c-0.249,0.095 -0.516,0.142 -0.802,0.142c-0.471,0 -0.834,-0.115 -1.087,-0.346c-0.253,-0.23 -0.38,-0.524 -0.38,-0.882c0,-0.211 0.048,-0.402 0.144,-0.576c0.095,-0.174 0.221,-0.313 0.376,-0.418c0.154,-0.105 0.329,-0.185 0.523,-0.239c0.143,-0.037 0.358,-0.074 0.646,-0.109c0.588,-0.07 1.02,-0.153 1.297,-0.25c0.003,-0.1 0.004,-0.163 0.004,-0.19c0,-0.297 -0.068,-0.505 -0.206,-0.627c-0.186,-0.164 -0.462,-0.246 -0.828,-0.246c-0.342,0 -0.595,0.06 -0.758,0.18c-0.163,0.12 -0.283,0.332 -0.361,0.636l-0.711,-0.097c0.064,-0.304 0.171,-0.55 0.319,-0.737c0.148,-0.187 0.362,-0.331 0.642,-0.432c0.28,-0.102 0.605,-0.152 0.974,-0.152c0.366,0 0.664,0.043 0.893,0.129c0.229,0.086 0.397,0.195 0.505,0.326c0.108,0.13 0.183,0.295 0.226,0.495c0.025,0.123 0.037,0.347 0.037,0.67l0,0.97c0,0.676 0.015,1.104 0.046,1.283c0.031,0.179 0.092,0.351 0.184,0.515l-0.76,0c-0.075,-0.151 -0.124,-0.327 -0.145,-0.529ZM63.132,8.002c-0.264,0.108 -0.66,0.2 -1.188,0.275c-0.299,0.043 -0.51,0.092 -0.634,0.146c-0.124,0.053 -0.219,0.132 -0.287,0.236c-0.067,0.104 -0.101,0.219 -0.101,0.345c0,0.194 0.074,0.356 0.22,0.485c0.147,0.13 0.362,0.194 0.645,0.194c0.28,0 0.529,-0.061 0.747,-0.184c0.218,-0.122 0.379,-0.29 0.481,-0.503c0.078,-0.164 0.117,-0.406 0.117,-0.727l0,-0.267Z" style="fill:#fff;fill-rule:nonzero;" stroke-width="1"/><path d="M67.161,10.511l0.707,0.106c0.029,0.218 0.111,0.377 0.246,0.476c0.181,0.135 0.427,0.202 0.74,0.202c0.336,0 0.596,-0.067 0.779,-0.202c0.184,-0.134 0.307,-0.323 0.372,-0.565c0.038,-0.148 0.055,-0.46 0.053,-0.934c-0.318,0.375 -0.714,0.562 -1.188,0.562c-0.59,0 -1.047,-0.213 -1.37,-0.638c-0.323,-0.426 -0.485,-0.937 -0.485,-1.532c0,-0.409 0.074,-0.787 0.222,-1.133c0.149,-0.346 0.363,-0.614 0.645,-0.802c0.281,-0.189 0.612,-0.283 0.992,-0.283c0.506,0 0.924,0.205 1.252,0.614l0,-0.517l0.671,0l0,3.709c0,0.668 -0.068,1.142 -0.204,1.42c-0.136,0.279 -0.352,0.499 -0.646,0.661c-0.295,0.162 -0.658,0.242 -1.089,0.242c-0.512,0 -0.926,-0.115 -1.241,-0.345c-0.315,-0.23 -0.467,-0.577 -0.456,-1.041ZM67.763,7.934c0,0.563 0.111,0.973 0.335,1.232c0.224,0.259 0.504,0.388 0.84,0.388c0.334,0 0.615,-0.129 0.841,-0.386c0.226,-0.257 0.339,-0.661 0.339,-1.21c0,-0.525 -0.116,-0.921 -0.349,-1.188c-0.233,-0.267 -0.514,-0.4 -0.843,-0.4c-0.323,0 -0.598,0.131 -0.824,0.394c-0.226,0.263 -0.339,0.653 -0.339,1.17Z" style="fill:#fff;fill-rule:nonzero;" stroke-width="1"/><path d="M71.625,8.01c0,-0.794 0.221,-1.383 0.663,-1.765c0.369,-0.318 0.819,-0.477 1.349,-0.477c0.59,0 1.073,0.193 1.447,0.58c0.374,0.386 0.562,0.92 0.562,1.602c0,0.552 -0.083,0.986 -0.249,1.303c-0.166,0.316 -0.407,0.562 -0.723,0.737c-0.317,0.175 -0.662,0.263 -1.037,0.263c-0.6,0 -1.086,-0.193 -1.456,-0.578c-0.37,-0.385 -0.556,-0.94 -0.556,-1.665ZM72.373,8.01c0,0.55 0.12,0.961 0.359,1.235c0.24,0.273 0.542,0.41 0.905,0.41c0.361,0 0.662,-0.137 0.902,-0.412c0.239,-0.275 0.359,-0.694 0.359,-1.257c0,-0.53 -0.12,-0.932 -0.362,-1.206c-0.241,-0.273 -0.54,-0.41 -0.899,-0.41c-0.363,0 -0.665,0.136 -0.905,0.408c-0.239,0.272 -0.359,0.683 -0.359,1.232Z" style="fill:#fff;fill-rule:nonzero;" stroke-width="1"/><path d="M76.227,8.01c0,-0.794 0.221,-1.383 0.663,-1.765c0.369,-0.318 0.819,-0.477 1.35,-0.477c0.589,0 1.072,0.193 1.446,0.58c0.374,0.386 0.562,0.92 0.562,1.602c0,0.552 -0.083,0.986 -0.249,1.303c-0.165,0.316 -0.407,0.562 -0.723,0.737c-0.317,0.175 -0.662,0.263 -1.036,0.263c-0.601,0 -1.087,-0.193 -1.457,-0.578c-0.37,-0.385 -0.556,-0.94 -0.556,-1.665ZM76.975,8.01c0,0.55 0.12,0.961 0.36,1.235c0.239,0.273 0.541,0.41 0.905,0.41c0.361,0 0.661,-0.137 0.901,-0.412c0.239,-0.275 0.359,-0.694 0.359,-1.257c0,-0.53 -0.12,-0.932 -0.361,-1.206c-0.242,-0.273 -0.541,-0.41 -0.899,-0.41c-0.364,0 -0.666,0.136 -0.905,0.408c-0.24,0.272 -0.36,0.683 -0.36,1.232Z" style="fill:#fff;fill-rule:nonzero;" stroke-width="1"/><path d="M83.884,10.156l0,-0.541c-0.272,0.425 -0.672,0.638 -1.2,0.638c-0.342,0 -0.657,-0.094 -0.943,-0.283c-0.287,-0.188 -0.509,-0.452 -0.667,-0.79c-0.158,-0.338 -0.236,-0.726 -0.236,-1.166c0,-0.428 0.071,-0.816 0.214,-1.165c0.142,-0.349 0.357,-0.616 0.642,-0.802c0.286,-0.186 0.605,-0.279 0.958,-0.279c0.258,0 0.489,0.055 0.691,0.164c0.202,0.109 0.366,0.251 0.493,0.426l0,-2.125l0.723,0l0,5.923l-0.675,0ZM81.585,8.014c0,0.55 0.116,0.961 0.348,1.233c0.231,0.272 0.505,0.408 0.82,0.408c0.318,0 0.588,-0.13 0.81,-0.39c0.222,-0.26 0.333,-0.657 0.333,-1.19c0,-0.587 -0.113,-1.018 -0.339,-1.293c-0.226,-0.275 -0.505,-0.412 -0.837,-0.412c-0.323,0 -0.593,0.132 -0.81,0.396c-0.217,0.264 -0.325,0.68 -0.325,1.248Z" style="fill:#fff;fill-rule:nonzero;" stroke-width="1"/><path d="M88.793,10.156l-1.313,-4.291l0.752,0l0.682,2.477l0.255,0.921c0.011,-0.046 0.085,-0.341 0.222,-0.885l0.683,-2.513l0.748,0l0.642,2.489l0.214,0.82l0.247,-0.828l0.735,-2.481l0.707,0l-1.341,4.291l-0.756,0l-0.683,-2.57l-0.165,-0.731l-0.869,3.301l-0.76,0Z" style="fill:#fff;fill-rule:nonzero;" stroke-width="1"/><path d="M96.777,9.627c-0.269,0.229 -0.528,0.39 -0.778,0.484c-0.249,0.095 -0.516,0.142 -0.802,0.142c-0.471,0 -0.833,-0.115 -1.087,-0.346c-0.253,-0.23 -0.379,-0.524 -0.379,-0.882c0,-0.211 0.047,-0.402 0.143,-0.576c0.096,-0.174 0.221,-0.313 0.376,-0.418c0.155,-0.105 0.329,-0.185 0.523,-0.239c0.143,-0.037 0.358,-0.074 0.647,-0.109c0.587,-0.07 1.019,-0.153 1.297,-0.25c0.002,-0.1 0.004,-0.163 0.004,-0.19c0,-0.297 -0.069,-0.505 -0.206,-0.627c-0.186,-0.164 -0.462,-0.246 -0.829,-0.246c-0.342,0 -0.594,0.06 -0.757,0.18c-0.163,0.12 -0.284,0.332 -0.362,0.636l-0.711,-0.097c0.065,-0.304 0.171,-0.55 0.319,-0.737c0.148,-0.187 0.362,-0.331 0.643,-0.432c0.28,-0.102 0.604,-0.152 0.973,-0.152c0.367,0 0.664,0.043 0.893,0.129c0.229,0.086 0.398,0.195 0.505,0.326c0.108,0.13 0.183,0.295 0.227,0.495c0.024,0.123 0.036,0.347 0.036,0.67l0,0.97c0,0.676 0.015,1.104 0.046,1.283c0.031,0.179 0.093,0.351 0.184,0.515l-0.759,0c-0.076,-0.151 -0.124,-0.327 -0.146,-0.529ZM96.717,8.002c-0.264,0.108 -0.66,0.2 -1.188,0.275c-0.299,0.043 -0.511,0.092 -0.635,0.146c-0.124,0.053 -0.219,0.132 -0.287,0.236c-0.067,0.104 -0.101,0.219 -0.101,0.345c0,0.194 0.074,0.356 0.221,0.485c0.146,0.13 0.361,0.194 0.644,0.194c0.28,0 0.529,-0.061 0.748,-0.184c0.218,-0.122 0.378,-0.29 0.48,-0.503c0.079,-0.164 0.118,-0.406 0.118,-0.727l0,-0.267Z" style="fill:#fff;fill-rule:nonzero;" stroke-width="1"/><path d="M98.547,11.808l-0.081,-0.682c0.159,0.043 0.298,0.064 0.416,0.064c0.162,0 0.291,-0.027 0.388,-0.081c0.097,-0.053 0.177,-0.129 0.239,-0.226c0.045,-0.073 0.119,-0.253 0.222,-0.541c0.013,-0.041 0.035,-0.1 0.064,-0.178l-1.628,-4.299l0.784,0l0.893,2.485c0.116,0.315 0.219,0.646 0.311,0.994c0.084,-0.334 0.183,-0.66 0.299,-0.978l0.917,-2.501l0.727,0l-1.632,4.364c-0.175,0.471 -0.311,0.796 -0.408,0.973c-0.129,0.24 -0.277,0.416 -0.444,0.528c-0.167,0.111 -0.367,0.167 -0.598,0.167c-0.14,0 -0.297,-0.029 -0.469,-0.089Z" style="fill:#fff;fill-rule:nonzero;" stroke-width="1"/><rect x="102.309" y="9.328" width="0.828" height="0.828" style="fill:#fff;fill-rule:nonzero;" stroke-width="1"/></g></svg>