<svg width="91.34600067138672" height="22" viewBox="0.451995849609375 0.49900007247924805 91.34600067138672 22" version="1.1" xmlns="http://www.w3.org/2000/svg" xmlns:xlink="http://www.w3.org/1999/xlink" xml:space="preserve" style="fill-rule:evenodd;clip-rule:evenodd;stroke-linejoin:round;stroke-miterlimit:1.41421;"><g id="Post comment Button"><path d="M91.298,6.249c0,-2.898 -2.353,-5.25 -5.25,-5.25l-79.846,0c-2.897,0 -5.25,2.352 -5.25,5.25l0,10.5c0,2.898 2.353,5.25 5.25,5.25l79.846,0c2.897,0 5.25,-2.352 5.25,-5.25l0,-10.5Z" style="fill:#b3b3b3;" stroke-width="1"/><path d="M34.482,12.431l1.471,0.467c-0.225,0.82 -0.6,1.429 -1.125,1.827c-0.525,0.399 -1.19,0.598 -1.997,0.598c-0.998,0 -1.818,-0.341 -2.461,-1.023c-0.643,-0.682 -0.964,-1.614 -0.964,-2.797c0,-1.251 0.323,-2.222 0.969,-2.915c0.646,-0.692 1.496,-1.038 2.548,-1.038c0.92,0 1.666,0.272 2.241,0.815c0.342,0.322 0.598,0.783 0.769,1.385l-1.502,0.359c-0.089,-0.39 -0.275,-0.698 -0.557,-0.923c-0.282,-0.226 -0.624,-0.339 -1.028,-0.339c-0.557,0 -1.009,0.2 -1.356,0.6c-0.347,0.4 -0.52,1.048 -0.52,1.943c0,0.951 0.171,1.627 0.513,2.031c0.341,0.403 0.786,0.605 1.333,0.605c0.403,0 0.75,-0.129 1.04,-0.385c0.291,-0.256 0.499,-0.66 0.626,-1.21Z" style="fill:#fff;fill-rule:nonzero;" stroke-width="1"/><path d="M38.322,11.411l-1.307,-0.236c0.147,-0.526 0.399,-0.916 0.758,-1.169c0.359,-0.253 0.892,-0.379 1.6,-0.379c0.643,0 1.121,0.076 1.435,0.228c0.315,0.152 0.536,0.345 0.664,0.579c0.129,0.234 0.193,0.664 0.193,1.29l-0.016,1.681c0,0.479 0.023,0.832 0.07,1.059c0.046,0.227 0.132,0.471 0.258,0.73l-1.425,0c-0.037,-0.095 -0.084,-0.237 -0.138,-0.425c-0.024,-0.085 -0.041,-0.142 -0.052,-0.169c-0.246,0.239 -0.509,0.418 -0.789,0.538c-0.28,0.12 -0.579,0.18 -0.897,0.18c-0.561,0 -1.003,-0.153 -1.326,-0.457c-0.323,-0.304 -0.484,-0.688 -0.484,-1.153c0,-0.308 0.073,-0.582 0.22,-0.823c0.147,-0.241 0.353,-0.426 0.618,-0.554c0.265,-0.128 0.647,-0.24 1.146,-0.336c0.673,-0.126 1.14,-0.244 1.4,-0.353l0,-0.144c0,-0.277 -0.069,-0.474 -0.205,-0.592c-0.137,-0.118 -0.395,-0.177 -0.775,-0.177c-0.256,0 -0.456,0.05 -0.599,0.151c-0.144,0.101 -0.26,0.278 -0.349,0.531ZM40.25,12.58c-0.185,0.061 -0.477,0.135 -0.877,0.22c-0.4,0.086 -0.661,0.169 -0.784,0.251c-0.188,0.134 -0.282,0.303 -0.282,0.508c0,0.202 0.075,0.376 0.225,0.523c0.151,0.147 0.342,0.22 0.574,0.22c0.26,0 0.508,-0.085 0.744,-0.256c0.174,-0.13 0.289,-0.289 0.343,-0.477c0.038,-0.123 0.057,-0.357 0.057,-0.702l0,-0.287Z" style="fill:#fff;fill-rule:nonzero;" stroke-width="1"/><path d="M48.037,15.194l-1.44,0l0,-2.778c0,-0.588 -0.031,-0.968 -0.092,-1.141c-0.062,-0.173 -0.162,-0.307 -0.3,-0.403c-0.139,-0.095 -0.305,-0.143 -0.5,-0.143c-0.25,0 -0.474,0.068 -0.672,0.205c-0.198,0.137 -0.334,0.318 -0.408,0.543c-0.073,0.226 -0.11,0.643 -0.11,1.251l0,2.466l-1.44,0l0,-5.444l1.338,0l0,0.799c0.475,-0.615 1.073,-0.922 1.794,-0.922c0.318,0 0.609,0.057 0.872,0.171c0.263,0.115 0.462,0.261 0.597,0.439c0.135,0.177 0.229,0.379 0.282,0.605c0.053,0.225 0.079,0.548 0.079,0.969l0,3.383Z" style="fill:#fff;fill-rule:nonzero;" stroke-width="1"/><path d="M54.246,11.36l-1.42,0.256c-0.048,-0.284 -0.156,-0.497 -0.326,-0.641c-0.169,-0.144 -0.388,-0.215 -0.658,-0.215c-0.359,0 -0.645,0.124 -0.859,0.371c-0.214,0.248 -0.321,0.663 -0.321,1.244c0,0.646 0.109,1.102 0.326,1.369c0.217,0.266 0.508,0.399 0.874,0.399c0.274,0 0.497,-0.077 0.672,-0.233c0.174,-0.155 0.297,-0.423 0.369,-0.802l1.415,0.241c-0.147,0.649 -0.429,1.14 -0.846,1.471c-0.417,0.332 -0.976,0.498 -1.676,0.498c-0.797,0 -1.432,-0.252 -1.905,-0.754c-0.474,-0.503 -0.71,-1.198 -0.71,-2.087c0,-0.899 0.237,-1.599 0.712,-2.099c0.476,-0.501 1.118,-0.751 1.928,-0.751c0.663,0 1.19,0.142 1.582,0.428c0.391,0.285 0.672,0.72 0.843,1.305Z" style="fill:#fff;fill-rule:nonzero;" stroke-width="1"/><path d="M58.491,13.462l1.436,0.241c-0.185,0.526 -0.476,0.927 -0.874,1.202c-0.398,0.275 -0.897,0.413 -1.495,0.413c-0.947,0 -1.647,-0.31 -2.102,-0.928c-0.359,-0.496 -0.538,-1.122 -0.538,-1.877c0,-0.902 0.236,-1.609 0.707,-2.12c0.472,-0.511 1.068,-0.766 1.79,-0.766c0.81,0 1.449,0.267 1.917,0.802c0.468,0.535 0.692,1.354 0.672,2.458l-3.61,0c0.011,0.428 0.127,0.76 0.349,0.998c0.222,0.237 0.499,0.356 0.831,0.356c0.225,0 0.415,-0.062 0.569,-0.185c0.153,-0.123 0.27,-0.321 0.348,-0.594ZM58.573,12.006c-0.01,-0.417 -0.118,-0.734 -0.323,-0.952c-0.205,-0.217 -0.454,-0.325 -0.748,-0.325c-0.315,0 -0.574,0.114 -0.779,0.343c-0.206,0.229 -0.306,0.54 -0.303,0.934l2.153,0Z" style="fill:#fff;fill-rule:nonzero;" stroke-width="1"/><rect x="61.178" y="7.678" width="1.441" height="7.516" style="fill:#fff;fill-rule:nonzero;" stroke-width="1"/></g></svg>