<svg version="1.1" width="33.93800354003906" height="51.40599822998047" viewBox="0.281000018119812 0.09399998188018799 33.93800354003906 51.40599822998047" xmlns="http://www.w3.org/2000/svg" xmlns:xlink="http://www.w3.org/1999/xlink">
  <!-- Exported by Scratch - http://scratch.mit.edu/ -->
  <g id="ID0.47169490344822407">
    <g id="layer1">
      <path id="path3384" fill="#666666" stroke="none" d="M 0.781 0.594 L 0.781 51 L 5.469 51 L 5.469 29.063 L 11.031 29.063 C 12.086 29.063 13.02 29.191 13.875 29.438 C 14.73 29.684 15.531 30.082 16.281 30.656 C 17.031 31.23 17.766 32.008 18.469 32.969 C 19.172 33.93 19.906 35.133 20.656 36.563 L 28.25 51 L 33.719 51 L 25.25 35.406 C 24.687 34.352 24.141 33.414 23.625 32.594 C 23.109 31.773 22.59 31.039 22.063 30.406 C 21.535 29.773 21 29.227 20.438 28.781 C 19.875 28.336 19.242 27.969 18.563 27.688 L 18.563 27.563 C 20.344 27.164 21.957 26.559 23.375 25.75 C 24.793 24.941 26.004 23.941 27 22.781 C 27.996 21.621 28.773 20.313 29.313 18.813 C 29.852 17.313 30.125 15.656 30.125 13.875 C 30.125 11.672 29.707 9.727 28.875 8.063 C 28.043 6.398 26.914 5.039 25.531 3.938 C 24.148 2.836 22.582 2 20.813 1.438 C 19.043 0.875 17.211 0.594 15.313 0.594 L 0.781 0.594 Z M 5.469 4.875 L 14.219 4.875 C 17.781 4.875 20.52 5.699 22.406 7.375 C 24.293 9.051 25.219 11.383 25.219 14.313 C 25.219 15.93 24.957 17.367 24.406 18.656 C 23.855 19.945 23.059 21.055 22.063 21.969 C 21.066 22.883 19.875 23.57 18.469 24.063 C 17.062 24.555 15.531 24.813 13.844 24.813 L 5.469 24.813 L 5.469 4.875 Z " stroke-width="1"/>
    </g>
  </g>
</svg>