<svg version="1.1" width="26.359041333198547" height="26.359041333198547" viewBox="-0.5275698602199554 -0.6525698602199554 26.359041333198547 26.359041333198547" xmlns="http://www.w3.org/2000/svg" xmlns:xlink="http://www.w3.org/1999/xlink">
  <!-- Exported by Scratch - http://scratch.mit.edu/ -->
  <g id="ID0.41720314137637615">
    <g id="Share Button">
      <g id="ID0.9417430432513356">
        <path id="ID0.3477697637863457" fill="white" d="M 12.6519 0.151 C 16.0667 0.151 19.1606 1.5381 21.4007 3.7781 C 23.6407 6.0182 25.0279 9.1122 25.0279 12.5269 C 25.0279 15.9417 23.6407 19.0356 21.4007 21.2757 C 19.1606 23.5157 16.0667 24.9029 12.6519 24.9029 C 9.2372 24.9029 6.1432 23.5157 3.9031 21.2757 C 1.6631 19.0356 0.276 15.9417 0.276 12.5269 C 0.276 9.1122 1.6631 6.0182 3.9031 3.7781 C 6.1432 1.5381 9.2372 0.151 12.6519 0.151 Z " stroke-width="1.0313301086425781"/>
      </g>
      <g id="ID0.7065460379235446">
        <path id="ID0.3384803137741983" fill="white" stroke="#65A8E7" stroke-width="1.6071397066116333" d="M 17.457 12.5209 C 17.457 9.8603 15.2962 7.6995 12.6356 7.6995 C 9.975 7.6995 7.8142 9.8603 7.8142 12.5209 C 7.8142 15.1815 9.975 17.3423 12.6356 17.3423 C 15.2962 17.3423 17.457 15.1815 17.457 12.5209 Z "/>
      </g>
      <g id="ID0.8745283144526184">
        <path id="ID0.9113381574861705" fill="white" d="M 6.9603 5.8695 L 18.3843 5.8695 L 18.3843 13.7465 L 6.9603 13.7465 L 6.9603 5.8695 Z " stroke-width="1.4810430241162738"/>
      </g>
      <g id="ID0.8871593386866152">
        <path id="ID0.066195716150105" fill="white" stroke="#65A8E7" stroke-width="1.3896100945770742" stroke-linecap="square" stroke-linejoin="miter" d="M 12.6181 8.2696 L 10.7755 10.1122 L 12.6181 8.2696 L 14.4607 10.1122 L 12.6181 8.2696 Z "/>
      </g>
      <g id="ID0.7448986889794469">
        <path id="ID0.48754494497552514" fill="none" stroke="#65A8E7" stroke-width="1.5207533836364746" stroke-linecap="butt" d="M 12.6518 7.9759 L 12.6518 13.7031 "/>
      </g>
    </g>
  </g>
</svg>