<svg width="267" height="79.47699737548828" viewBox="-0.4999961853027344 -0.5 267 79.47699737548828" version="1.1" xmlns="http://www.w3.org/2000/svg" xmlns:xlink="http://www.w3.org/1999/xlink" xml:space="preserve" style="fill-rule:evenodd;clip-rule:evenodd;stroke-linejoin:round;stroke-miterlimit:1.41421;"><g><path d="M266,19.619c0,-10.828 -8.791,-19.619 -19.619,-19.619l-226.762,0c-10.828,0 -19.619,8.791 -19.619,19.619l0,39.239c0,10.828 8.791,19.619 19.619,19.619l226.762,0c10.828,0 19.619,-8.791 19.619,-19.619l0,-39.239Z" style="fill:#b3b3b3;" stroke-width="1"/><path d="M80.3,19.246l1.853,0.587c-0.284,1.033 -0.756,1.8 -1.417,2.302c-0.661,0.501 -1.499,0.752 -2.515,0.752c-1.256,0 -2.289,-0.429 -3.098,-1.288c-0.81,-0.859 -1.214,-2.033 -1.214,-3.522c0,-1.575 0.407,-2.798 1.22,-3.67c0.814,-0.872 1.883,-1.307 3.209,-1.307c1.157,0 2.098,0.342 2.821,1.026c0.43,0.405 0.753,0.986 0.968,1.743l-1.891,0.452c-0.112,-0.49 -0.346,-0.878 -0.701,-1.162c-0.355,-0.284 -0.786,-0.426 -1.294,-0.426c-0.702,0 -1.271,0.252 -1.708,0.755c-0.437,0.504 -0.655,1.32 -0.655,2.447c0,1.197 0.215,2.049 0.646,2.557c0.43,0.508 0.989,0.761 1.678,0.761c0.508,0 0.945,-0.161 1.311,-0.484c0.365,-0.323 0.628,-0.83 0.787,-1.523Z" style="fill:#fff;fill-rule:nonzero;" stroke-width="1"/><path d="M85.588,13.261l0,3.48c0.585,-0.685 1.284,-1.027 2.098,-1.027c0.417,0 0.794,0.078 1.13,0.233c0.335,0.155 0.588,0.353 0.758,0.594c0.17,0.241 0.286,0.508 0.349,0.8c0.062,0.293 0.093,0.747 0.093,1.362l0,4.022l-1.814,0l0,-3.621c0,-0.719 -0.034,-1.175 -0.103,-1.369c-0.069,-0.194 -0.19,-0.348 -0.365,-0.462c-0.174,-0.114 -0.392,-0.171 -0.655,-0.171c-0.301,0 -0.57,0.073 -0.807,0.22c-0.237,0.146 -0.41,0.367 -0.52,0.662c-0.109,0.294 -0.164,0.73 -0.164,1.307l0,3.434l-1.814,0l0,-9.464l1.814,0Z" style="fill:#fff;fill-rule:nonzero;" stroke-width="1"/><path d="M95.827,20.543l1.807,0.304c-0.232,0.663 -0.599,1.167 -1.1,1.514c-0.502,0.346 -1.129,0.519 -1.882,0.519c-1.192,0 -2.075,-0.389 -2.647,-1.168c-0.452,-0.624 -0.678,-1.412 -0.678,-2.363c0,-1.136 0.297,-2.026 0.891,-2.67c0.594,-0.643 1.345,-0.965 2.253,-0.965c1.02,0 1.825,0.337 2.415,1.011c0.589,0.673 0.871,1.705 0.845,3.095l-4.545,0c0.013,0.538 0.16,0.957 0.439,1.256c0.28,0.299 0.629,0.449 1.046,0.449c0.284,0 0.523,-0.078 0.717,-0.233c0.193,-0.155 0.34,-0.404 0.439,-0.749ZM95.93,18.71c-0.013,-0.525 -0.148,-0.924 -0.407,-1.198c-0.258,-0.273 -0.572,-0.41 -0.942,-0.41c-0.396,0 -0.723,0.145 -0.982,0.433c-0.258,0.288 -0.385,0.68 -0.38,1.175l2.711,0Z" style="fill:#fff;fill-rule:nonzero;" stroke-width="1"/><path d="M105.188,17.896l-1.788,0.323c-0.061,-0.357 -0.197,-0.626 -0.41,-0.807c-0.213,-0.181 -0.49,-0.271 -0.83,-0.271c-0.452,0 -0.812,0.156 -1.081,0.468c-0.269,0.312 -0.404,0.834 -0.404,1.566c0,0.813 0.137,1.388 0.41,1.723c0.273,0.336 0.64,0.504 1.101,0.504c0.344,0 0.626,-0.098 0.846,-0.294c0.219,-0.196 0.374,-0.532 0.464,-1.01l1.782,0.303c-0.185,0.818 -0.54,1.436 -1.065,1.853c-0.525,0.418 -1.229,0.626 -2.111,0.626c-1.003,0 -1.802,-0.316 -2.398,-0.949c-0.597,-0.632 -0.895,-1.508 -0.895,-2.627c0,-1.132 0.3,-2.013 0.898,-2.644c0.598,-0.63 1.407,-0.946 2.427,-0.946c0.835,0 1.499,0.18 1.992,0.539c0.493,0.36 0.847,0.907 1.062,1.643Z" style="fill:#fff;fill-rule:nonzero;" stroke-width="1"/><path d="M106.498,22.725l0,-9.464l1.815,0l0,5.023l2.124,-2.415l2.233,0l-2.343,2.505l2.511,4.351l-1.956,0l-1.724,-3.079l-0.845,0.884l0,2.195l-1.815,0Z" style="fill:#fff;fill-rule:nonzero;" stroke-width="1"/><path d="M113.865,15.869l1.691,0l0,1.007c0.22,-0.344 0.517,-0.624 0.891,-0.839c0.374,-0.215 0.79,-0.323 1.246,-0.323c0.796,0 1.472,0.312 2.027,0.936c0.555,0.624 0.833,1.494 0.833,2.609c0,1.144 -0.28,2.034 -0.839,2.669c-0.56,0.635 -1.238,0.952 -2.034,0.952c-0.379,0 -0.722,-0.075 -1.03,-0.226c-0.307,-0.15 -0.631,-0.408 -0.971,-0.774l0,3.454l-1.814,0l0,-9.465ZM115.659,19.181c0,0.771 0.153,1.34 0.459,1.708c0.305,0.368 0.678,0.552 1.117,0.552c0.421,0 0.772,-0.169 1.052,-0.507c0.28,-0.338 0.42,-0.892 0.42,-1.662c0,-0.719 -0.145,-1.253 -0.433,-1.602c-0.288,-0.348 -0.646,-0.522 -1.072,-0.522c-0.443,0 -0.811,0.171 -1.104,0.513c-0.292,0.342 -0.439,0.849 -0.439,1.52Z" style="fill:#fff;fill-rule:nonzero;" stroke-width="1"/><path d="M121.573,19.201c0,-0.603 0.148,-1.186 0.445,-1.75c0.297,-0.564 0.718,-0.994 1.263,-1.291c0.544,-0.297 1.152,-0.446 1.823,-0.446c1.038,0 1.888,0.337 2.55,1.011c0.663,0.673 0.995,1.524 0.995,2.553c0,1.037 -0.335,1.897 -1.004,2.579c-0.669,0.682 -1.512,1.023 -2.528,1.023c-0.628,0 -1.227,-0.142 -1.798,-0.426c-0.57,-0.284 -1.004,-0.7 -1.301,-1.249c-0.297,-0.549 -0.445,-1.217 -0.445,-2.004ZM123.432,19.297c0,0.68 0.162,1.201 0.485,1.563c0.322,0.361 0.72,0.542 1.194,0.542c0.473,0 0.87,-0.181 1.191,-0.542c0.321,-0.362 0.481,-0.887 0.481,-1.576c0,-0.671 -0.16,-1.187 -0.481,-1.549c-0.321,-0.362 -0.718,-0.542 -1.191,-0.542c-0.474,0 -0.872,0.18 -1.194,0.542c-0.323,0.362 -0.485,0.882 -0.485,1.562Z" style="fill:#fff;fill-rule:nonzero;" stroke-width="1"/><path d="M130.069,14.94l0,-1.679l1.814,0l0,1.679l-1.814,0ZM130.069,22.725l0,-6.856l1.814,0l0,6.856l-1.814,0Z" style="fill:#fff;fill-rule:nonzero;" stroke-width="1"/><path d="M139.979,22.725l-1.814,0l0,-3.499c0,-0.74 -0.039,-1.219 -0.116,-1.436c-0.078,-0.217 -0.204,-0.386 -0.378,-0.507c-0.174,-0.12 -0.384,-0.181 -0.63,-0.181c-0.314,0 -0.596,0.086 -0.845,0.259c-0.25,0.172 -0.421,0.4 -0.514,0.684c-0.092,0.284 -0.138,0.809 -0.138,1.575l0,3.105l-1.814,0l0,-6.856l1.685,0l0,1.007c0.598,-0.774 1.351,-1.162 2.259,-1.162c0.4,0 0.766,0.072 1.098,0.217c0.331,0.144 0.582,0.328 0.752,0.552c0.17,0.223 0.288,0.477 0.355,0.761c0.067,0.284 0.1,0.691 0.1,1.221l0,4.26Z" style="fill:#fff;fill-rule:nonzero;" stroke-width="1"/><path d="M144.963,15.869l0,1.446l-1.24,0l0,2.764c0,0.559 0.012,0.885 0.036,0.978c0.023,0.092 0.077,0.169 0.161,0.229c0.084,0.06 0.186,0.09 0.307,0.09c0.168,0 0.411,-0.058 0.729,-0.174l0.155,1.407c-0.421,0.181 -0.899,0.271 -1.433,0.271c-0.327,0 -0.622,-0.054 -0.884,-0.164c-0.263,-0.11 -0.456,-0.252 -0.578,-0.426c-0.123,-0.175 -0.208,-0.41 -0.255,-0.707c-0.039,-0.211 -0.058,-0.637 -0.058,-1.279l0,-2.989l-0.833,0l0,-1.446l0.833,0l0,-1.362l1.82,-1.059l0,2.421l1.24,0Z" style="fill:#fff;fill-rule:nonzero;" stroke-width="1"/><path d="M149.727,23.177l2.073,0.252c0.034,0.241 0.114,0.407 0.239,0.497c0.172,0.129 0.443,0.194 0.813,0.194c0.473,0 0.828,-0.071 1.065,-0.213c0.159,-0.095 0.28,-0.248 0.362,-0.458c0.056,-0.151 0.084,-0.429 0.084,-0.833l0,-1.001c-0.543,0.74 -1.227,1.11 -2.053,1.11c-0.921,0 -1.651,-0.389 -2.189,-1.168c-0.422,-0.616 -0.633,-1.382 -0.633,-2.298c0,-1.15 0.277,-2.028 0.83,-2.634c0.553,-0.607 1.241,-0.911 2.063,-0.911c0.848,0 1.547,0.373 2.098,1.117l0,-0.962l1.698,0l0,6.153c0,0.809 -0.067,1.414 -0.2,1.814c-0.134,0.4 -0.321,0.714 -0.562,0.942c-0.241,0.229 -0.563,0.407 -0.965,0.536c-0.403,0.129 -0.912,0.194 -1.527,0.194c-1.162,0 -1.986,-0.199 -2.473,-0.597c-0.486,-0.398 -0.729,-0.903 -0.729,-1.514c0,-0.06 0.002,-0.134 0.006,-0.22ZM151.348,19.155c0,0.728 0.141,1.26 0.423,1.598c0.282,0.338 0.629,0.507 1.042,0.507c0.444,0 0.818,-0.173 1.124,-0.52c0.305,-0.346 0.458,-0.859 0.458,-1.539c0,-0.711 -0.146,-1.238 -0.439,-1.582c-0.293,-0.345 -0.663,-0.517 -1.11,-0.517c-0.435,0 -0.793,0.169 -1.075,0.507c-0.282,0.338 -0.423,0.853 -0.423,1.546Z" style="fill:#fff;fill-rule:nonzero;" stroke-width="1"/><path d="M159.708,22.725l-1.814,0l0,-6.856l1.685,0l0,0.975c0.288,-0.46 0.548,-0.764 0.778,-0.91c0.23,-0.147 0.492,-0.22 0.784,-0.22c0.414,0 0.812,0.114 1.195,0.342l-0.562,1.582c-0.306,-0.198 -0.59,-0.297 -0.852,-0.297c-0.254,0 -0.469,0.07 -0.646,0.21c-0.176,0.14 -0.315,0.393 -0.416,0.759c-0.101,0.365 -0.152,1.132 -0.152,2.298l0,2.117Z" style="fill:#fff;fill-rule:nonzero;" stroke-width="1"/><path d="M164.473,17.961l-1.647,-0.297c0.185,-0.663 0.504,-1.153 0.956,-1.472c0.452,-0.318 1.123,-0.478 2.014,-0.478c0.809,0 1.412,0.096 1.808,0.288c0.396,0.191 0.674,0.434 0.836,0.729c0.161,0.295 0.242,0.836 0.242,1.624l-0.019,2.117c0,0.603 0.029,1.047 0.087,1.333c0.058,0.287 0.166,0.593 0.326,0.92l-1.795,0c-0.047,-0.12 -0.105,-0.299 -0.174,-0.535c-0.03,-0.108 -0.052,-0.179 -0.065,-0.213c-0.31,0.301 -0.641,0.527 -0.994,0.677c-0.353,0.151 -0.73,0.226 -1.13,0.226c-0.706,0 -1.262,-0.191 -1.669,-0.574c-0.406,-0.383 -0.61,-0.867 -0.61,-1.453c0,-0.387 0.093,-0.733 0.278,-1.036c0.185,-0.303 0.444,-0.536 0.778,-0.697c0.333,-0.162 0.814,-0.303 1.443,-0.423c0.847,-0.159 1.435,-0.308 1.762,-0.446l0,-0.18c0,-0.349 -0.086,-0.597 -0.258,-0.746c-0.172,-0.148 -0.497,-0.223 -0.975,-0.223c-0.323,0 -0.575,0.064 -0.755,0.191c-0.181,0.127 -0.327,0.349 -0.439,0.668ZM166.9,19.433c-0.232,0.077 -0.6,0.17 -1.104,0.278c-0.503,0.107 -0.833,0.213 -0.988,0.316c-0.236,0.168 -0.355,0.381 -0.355,0.639c0,0.254 0.095,0.473 0.284,0.659c0.19,0.185 0.431,0.277 0.723,0.277c0.328,0 0.64,-0.107 0.937,-0.323c0.219,-0.163 0.363,-0.363 0.432,-0.6c0.047,-0.155 0.071,-0.45 0.071,-0.885l0,-0.361Z" style="fill:#fff;fill-rule:nonzero;" stroke-width="1"/><path d="M172.355,22.725l-2.763,-6.856l1.905,0l1.291,3.499l0.374,1.169c0.099,-0.297 0.162,-0.493 0.188,-0.588c0.06,-0.193 0.124,-0.387 0.193,-0.581l1.304,-3.499l1.866,0l-2.724,6.856l-1.634,0Z" style="fill:#fff;fill-rule:nonzero;" stroke-width="1"/><path d="M177.824,14.94l0,-1.679l1.814,0l0,1.679l-1.814,0ZM177.824,22.725l0,-6.856l1.814,0l0,6.856l-1.814,0Z" style="fill:#fff;fill-rule:nonzero;" stroke-width="1"/><path d="M184.641,15.869l0,1.446l-1.24,0l0,2.764c0,0.559 0.012,0.885 0.036,0.978c0.024,0.092 0.077,0.169 0.161,0.229c0.084,0.06 0.186,0.09 0.307,0.09c0.168,0 0.411,-0.058 0.73,-0.174l0.154,1.407c-0.421,0.181 -0.899,0.271 -1.433,0.271c-0.327,0 -0.622,-0.054 -0.884,-0.164c-0.263,-0.11 -0.455,-0.252 -0.578,-0.426c-0.123,-0.175 -0.208,-0.41 -0.255,-0.707c-0.039,-0.211 -0.058,-0.637 -0.058,-1.279l0,-2.989l-0.833,0l0,-1.446l0.833,0l0,-1.362l1.82,-1.059l0,2.421l1.24,0Z" style="fill:#fff;fill-rule:nonzero;" stroke-width="1"/><path d="M185.041,15.869l1.931,0l1.639,4.868l1.601,-4.868l1.879,0l-2.421,6.598l-0.432,1.195c-0.16,0.4 -0.311,0.705 -0.456,0.916c-0.144,0.211 -0.309,0.382 -0.497,0.514c-0.187,0.131 -0.417,0.233 -0.69,0.306c-0.274,0.073 -0.583,0.11 -0.927,0.11c-0.348,0 -0.691,-0.037 -1.026,-0.11l-0.162,-1.42c0.284,0.056 0.54,0.084 0.768,0.084c0.422,0 0.734,-0.124 0.937,-0.371c0.202,-0.248 0.357,-0.563 0.464,-0.946l-2.608,-6.876Z" style="fill:#fff;fill-rule:nonzero;" stroke-width="1"/><g><path d="M 18.762 40.1659 L 18.762 33.2209 L 16.168 33.2209 L 16.168 32.2919 L 22.409 32.2919 L 22.409 33.2209 L 19.804 33.2209 L 19.804 40.1659 L 18.762 40.1659 Z " style="fill:#fff;fill-rule:nonzero;" stroke-width="1"/><path d="M 21.775 37.3139 C 21.775 36.2569 22.069 35.4749 22.656 34.9669 C 23.147 34.5439 23.744 34.3329 24.45 34.3329 C 25.234 34.3329 25.875 34.5899 26.373 35.1039 C 26.87 35.6169 27.119 36.3269 27.119 37.2329 C 27.119 37.9669 27.009 38.5449 26.789 38.9649 C 26.569 39.3859 26.248 39.7129 25.828 39.9459 C 25.407 40.1779 24.948 40.2949 24.45 40.2949 C 23.651 40.2949 23.006 40.0389 22.514 39.5269 C 22.021 39.0149 21.775 38.2769 21.775 37.3139 Z M 22.769 37.3139 C 22.769 38.0439 22.928 38.5909 23.247 38.9549 C 23.565 39.3179 23.967 39.4999 24.45 39.4999 C 24.93 39.4999 25.329 39.3169 25.648 38.9519 C 25.966 38.5869 26.126 38.0299 26.126 37.2809 C 26.126 36.5759 25.965 36.0419 25.645 35.6779 C 25.324 35.3149 24.926 35.1329 24.45 35.1329 C 23.967 35.1329 23.565 35.3139 23.247 35.6759 C 22.928 36.0369 22.769 36.5829 22.769 37.3139 Z " style="fill:#fff;fill-rule:nonzero;" stroke-width="1"/><path d="M 28.075 40.6379 L 29.015 40.7779 C 29.055 41.0679 29.164 41.2789 29.343 41.4119 C 29.583 41.5909 29.911 41.6799 30.326 41.6799 C 30.773 41.6799 31.119 41.5909 31.362 41.4119 C 31.606 41.2329 31.771 40.9819 31.857 40.6599 C 31.907 40.4629 31.93 40.0489 31.926 39.4189 C 31.504 39.9169 30.978 40.1659 30.347 40.1659 C 29.563 40.1659 28.956 39.8829 28.527 39.3169 C 28.097 38.7509 27.882 38.0729 27.882 37.2809 C 27.882 36.7369 27.981 36.2349 28.177 35.7749 C 28.374 35.3149 28.66 34.9589 29.034 34.7089 C 29.408 34.4579 29.848 34.3329 30.353 34.3329 C 31.026 34.3329 31.581 34.6049 32.018 35.1489 L 32.018 34.4619 L 32.909 34.4619 L 32.909 39.3919 C 32.909 40.2799 32.819 40.9099 32.638 41.2799 C 32.457 41.6509 32.171 41.9439 31.779 42.1579 C 31.387 42.3729 30.904 42.4809 30.331 42.4809 C 29.651 42.4809 29.101 42.3279 28.682 42.0209 C 28.263 41.7149 28.061 41.2539 28.075 40.6379 Z M 28.876 37.2119 C 28.876 37.9599 29.024 38.5059 29.321 38.8499 C 29.619 39.1939 29.991 39.3649 30.439 39.3649 C 30.883 39.3649 31.255 39.1949 31.556 38.8529 C 31.857 38.5109 32.007 37.9739 32.007 37.2439 C 32.007 36.5459 31.852 36.0189 31.542 35.6649 C 31.233 35.3099 30.859 35.1329 30.423 35.1329 C 29.993 35.1329 29.628 35.3079 29.327 35.6569 C 29.026 36.0059 28.876 36.5239 28.876 37.2119 Z " style="fill:#fff;fill-rule:nonzero;" stroke-width="1"/><path d="M 34.193 40.6379 L 35.133 40.7779 C 35.172 41.0679 35.282 41.2789 35.461 41.4119 C 35.701 41.5909 36.028 41.6799 36.444 41.6799 C 36.891 41.6799 37.237 41.5909 37.48 41.4119 C 37.724 41.2329 37.888 40.9819 37.974 40.6599 C 38.024 40.4629 38.048 40.0489 38.044 39.4189 C 37.622 39.9169 37.095 40.1659 36.465 40.1659 C 35.681 40.1659 35.074 39.8829 34.644 39.3169 C 34.215 38.7509 34 38.0729 34 37.2809 C 34 36.7369 34.098 36.2349 34.295 35.7749 C 34.492 35.3149 34.778 34.9589 35.152 34.7089 C 35.526 34.4579 35.966 34.3329 36.47 34.3329 C 37.144 34.3329 37.699 34.6049 38.135 35.1489 L 38.135 34.4619 L 39.027 34.4619 L 39.027 39.3919 C 39.027 40.2799 38.937 40.9099 38.756 41.2799 C 38.575 41.6509 38.289 41.9439 37.896 42.1579 C 37.504 42.3729 37.022 42.4809 36.449 42.4809 C 35.769 42.4809 35.219 42.3279 34.8 42.0209 C 34.381 41.7149 34.179 41.2539 34.193 40.6379 Z M 34.993 37.2119 C 34.993 37.9599 35.142 38.5059 35.439 38.8499 C 35.736 39.1939 36.109 39.3649 36.556 39.3649 C 37 39.3649 37.373 39.1949 37.674 38.8529 C 37.974 38.5109 38.125 37.9739 38.125 37.2439 C 38.125 36.5459 37.97 36.0189 37.66 35.6649 C 37.35 35.3099 36.977 35.1329 36.54 35.1329 C 36.111 35.1329 35.745 35.3079 35.445 35.6569 C 35.144 36.0059 34.993 36.5239 34.993 37.2119 Z " style="fill:#fff;fill-rule:nonzero;" stroke-width="1"/><rect x="205.257" y="71.062" width="0.967" height="7.874" style="fill:#fff;fill-rule:nonzero;" stroke-width="1" transform="matrix(1,0,0,1,-164.79,-38.7701)"/><path d="M 46.837 38.3289 L 47.836 38.4519 C 47.678 39.0359 47.386 39.4889 46.96 39.8109 C 46.534 40.1339 45.99 40.2949 45.327 40.2949 C 44.493 40.2949 43.831 40.0379 43.343 39.5239 C 42.854 39.0099 42.61 38.2889 42.61 37.3619 C 42.61 36.4019 42.857 35.6579 43.351 35.1279 C 43.845 34.5979 44.486 34.3329 45.274 34.3329 C 46.036 34.3329 46.659 34.5919 47.143 35.1119 C 47.626 35.6309 47.868 36.3609 47.868 37.3029 C 47.868 37.3599 47.866 37.4459 47.862 37.5609 L 43.609 37.5609 C 43.644 38.1869 43.822 38.6669 44.14 38.9999 C 44.459 39.3329 44.856 39.4999 45.333 39.4999 C 45.687 39.4999 45.99 39.4069 46.24 39.2199 C 46.491 39.0339 46.69 38.7369 46.837 38.3289 Z M 43.662 36.7659 L 46.847 36.7659 C 46.804 36.2859 46.683 35.9259 46.482 35.6859 C 46.174 35.3139 45.775 35.1279 45.284 35.1279 C 44.84 35.1279 44.467 35.2759 44.165 35.5729 C 43.862 35.8709 43.695 36.2679 43.662 36.7659 Z " style="fill:#fff;fill-rule:nonzero;" stroke-width="1"/><path d="M 48.663 38.4629 L 49.619 38.3129 C 49.673 38.6959 49.822 38.9899 50.067 39.1939 C 50.313 39.3979 50.655 39.4999 51.096 39.4999 C 51.54 39.4999 51.869 39.4089 52.084 39.2289 C 52.299 39.0479 52.406 38.8359 52.406 38.5919 C 52.406 38.3739 52.312 38.2019 52.122 38.0759 C 51.989 37.9899 51.66 37.8809 51.133 37.7489 C 50.425 37.5699 49.933 37.4149 49.659 37.2839 C 49.385 37.1529 49.178 36.9729 49.036 36.7419 C 48.895 36.5109 48.824 36.2559 48.824 35.9759 C 48.824 35.7219 48.882 35.4869 48.998 35.2699 C 49.115 35.0529 49.273 34.8729 49.474 34.7299 C 49.624 34.6189 49.829 34.5249 50.089 34.4479 C 50.348 34.3709 50.627 34.3329 50.924 34.3329 C 51.372 34.3329 51.765 34.3969 52.103 34.5259 C 52.441 34.6549 52.691 34.8299 52.852 35.0499 C 53.013 35.2699 53.124 35.5649 53.185 35.9329 L 52.24 36.0619 C 52.197 35.7689 52.073 35.5389 51.867 35.3749 C 51.661 35.2099 51.37 35.1279 50.994 35.1279 C 50.55 35.1279 50.233 35.2009 50.043 35.3479 C 49.853 35.4949 49.758 35.6669 49.758 35.8639 C 49.758 35.9889 49.798 36.1019 49.877 36.2019 C 49.955 36.3059 50.079 36.3919 50.247 36.4599 C 50.344 36.4959 50.629 36.5779 51.101 36.7069 C 51.785 36.8889 52.262 37.0389 52.533 37.1549 C 52.803 37.2719 53.015 37.4409 53.169 37.6629 C 53.323 37.8849 53.4 38.1609 53.4 38.4899 C 53.4 38.8119 53.306 39.1159 53.118 39.3999 C 52.93 39.6849 52.659 39.9049 52.304 40.0609 C 51.95 40.2169 51.549 40.2949 51.101 40.2949 C 50.36 40.2949 49.795 40.1409 49.407 39.8329 C 49.018 39.5249 48.77 39.0679 48.663 38.4629 Z " style="fill:#fff;fill-rule:nonzero;" stroke-width="1"/><path d="M 58.658 40.1659 L 56.913 34.4619 L 57.912 34.4619 L 58.82 37.7539 L 59.158 38.9789 C 59.172 38.9179 59.271 38.5259 59.453 37.8019 L 60.361 34.4619 L 61.355 34.4619 L 62.209 37.7699 L 62.493 38.8609 L 62.821 37.7599 L 63.799 34.4619 L 64.738 34.4619 L 62.955 40.1659 L 61.951 40.1659 L 61.043 36.7499 L 60.823 35.7779 L 59.668 40.1659 L 58.658 40.1659 Z " style="fill:#fff;fill-rule:nonzero;" stroke-width="1"/><path d="M 65.55 40.1659 L 65.55 32.2919 L 66.516 32.2919 L 66.516 35.1169 C 66.967 34.5939 67.537 34.3329 68.224 34.3329 C 68.647 34.3329 69.014 34.4159 69.325 34.5829 C 69.637 34.7489 69.86 34.9789 69.994 35.2729 C 70.128 35.5659 70.196 35.9919 70.196 36.5509 L 70.196 40.1659 L 69.229 40.1659 L 69.229 36.5509 C 69.229 36.0679 69.124 35.7159 68.915 35.4959 C 68.705 35.2749 68.409 35.1649 68.026 35.1649 C 67.739 35.1649 67.47 35.2399 67.217 35.3879 C 66.965 35.5369 66.785 35.7379 66.677 35.9919 C 66.57 36.2469 66.516 36.5979 66.516 37.0449 L 66.516 40.1659 L 65.55 40.1659 Z " style="fill:#fff;fill-rule:nonzero;" stroke-width="1"/><path d="M 75.572 38.3289 L 76.571 38.4519 C 76.413 39.0359 76.122 39.4889 75.696 39.8109 C 75.269 40.1339 74.725 40.2949 74.063 40.2949 C 73.228 40.2949 72.567 40.0379 72.078 39.5239 C 71.589 39.0099 71.345 38.2889 71.345 37.3619 C 71.345 36.4019 71.592 35.6579 72.086 35.1279 C 72.58 34.5979 73.221 34.3329 74.009 34.3329 C 74.772 34.3329 75.395 34.5919 75.878 35.1119 C 76.362 35.6309 76.603 36.3609 76.603 37.3029 C 76.603 37.3599 76.601 37.4459 76.598 37.5609 L 72.344 37.5609 C 72.38 38.1869 72.557 38.6669 72.876 38.9999 C 73.194 39.3329 73.592 39.4999 74.068 39.4999 C 74.423 39.4999 74.725 39.4069 74.976 39.2199 C 75.226 39.0339 75.425 38.7369 75.572 38.3289 Z M 72.398 36.7659 L 75.583 36.7659 C 75.54 36.2859 75.418 35.9259 75.217 35.6859 C 74.91 35.3139 74.51 35.1279 74.02 35.1279 C 73.576 35.1279 73.202 35.2759 72.9 35.5729 C 72.597 35.8709 72.43 36.2679 72.398 36.7659 Z " style="fill:#fff;fill-rule:nonzero;" stroke-width="1"/><path d="M 79.896 39.3009 L 80.035 40.1549 C 79.763 40.2119 79.52 40.2409 79.305 40.2409 C 78.954 40.2409 78.682 40.1849 78.488 40.0739 C 78.295 39.9629 78.159 39.8179 78.08 39.6369 C 78.001 39.4559 77.962 39.0749 77.962 38.4949 L 77.962 35.2139 L 77.253 35.2139 L 77.253 34.4619 L 77.962 34.4619 L 77.962 33.0489 L 78.924 32.4689 L 78.924 34.4619 L 79.896 34.4619 L 79.896 35.2139 L 78.924 35.2139 L 78.924 38.5489 C 78.924 38.8249 78.941 39.0019 78.975 39.0809 C 79.009 39.1599 79.064 39.2219 79.141 39.2689 C 79.218 39.3149 79.328 39.3389 79.471 39.3389 C 79.579 39.3389 79.72 39.3259 79.896 39.3009 Z " style="fill:#fff;fill-rule:nonzero;" stroke-width="1"/><path d="M 80.841 40.1659 L 80.841 32.2919 L 81.808 32.2919 L 81.808 35.1169 C 82.259 34.5939 82.828 34.3329 83.516 34.3329 C 83.938 34.3329 84.305 34.4159 84.617 34.5829 C 84.928 34.7489 85.151 34.9789 85.286 35.2729 C 85.42 35.5659 85.487 35.9919 85.487 36.5509 L 85.487 40.1659 L 84.52 40.1659 L 84.52 36.5509 C 84.52 36.0679 84.415 35.7159 84.206 35.4959 C 83.997 35.2749 83.7 35.1649 83.317 35.1649 C 83.031 35.1649 82.761 35.2399 82.509 35.3879 C 82.256 35.5369 82.076 35.7379 81.969 35.9919 C 81.862 36.2469 81.808 36.5979 81.808 37.0449 L 81.808 40.1659 L 80.841 40.1659 Z " style="fill:#fff;fill-rule:nonzero;" stroke-width="1"/><path d="M 90.863 38.3289 L 91.862 38.4519 C 91.705 39.0359 91.413 39.4889 90.987 39.8109 C 90.561 40.1339 90.017 40.2949 89.354 40.2949 C 88.52 40.2949 87.858 40.0379 87.37 39.5239 C 86.881 39.0099 86.636 38.2889 86.636 37.3619 C 86.636 36.4019 86.883 35.6579 87.378 35.1279 C 87.872 34.5979 88.513 34.3329 89.3 34.3329 C 90.063 34.3329 90.686 34.5919 91.17 35.1119 C 91.653 35.6309 91.895 36.3609 91.895 37.3029 C 91.895 37.3599 91.893 37.4459 91.889 37.5609 L 87.635 37.5609 C 87.671 38.1869 87.849 38.6669 88.167 38.9999 C 88.486 39.3329 88.883 39.4999 89.36 39.4999 C 89.714 39.4999 90.017 39.4069 90.267 39.2199 C 90.518 39.0339 90.717 38.7369 90.863 38.3289 Z M 87.689 36.7659 L 90.874 36.7659 C 90.831 36.2859 90.71 35.9259 90.509 35.6859 C 90.201 35.3139 89.802 35.1279 89.311 35.1279 C 88.867 35.1279 88.494 35.2759 88.191 35.5729 C 87.889 35.8709 87.721 36.2679 87.689 36.7659 Z " style="fill:#fff;fill-rule:nonzero;" stroke-width="1"/><path d="M 93.066 40.1659 L 93.066 34.4619 L 93.936 34.4619 L 93.936 35.3259 C 94.158 34.9219 94.363 34.6549 94.551 34.5259 C 94.739 34.3969 94.946 34.3329 95.171 34.3329 C 95.497 34.3329 95.828 34.4369 96.165 34.6439 L 95.832 35.5409 C 95.595 35.4019 95.359 35.3319 95.123 35.3319 C 94.911 35.3319 94.722 35.3949 94.553 35.5219 C 94.385 35.6499 94.265 35.8259 94.194 36.0519 C 94.086 36.3949 94.032 36.7709 94.032 37.1789 L 94.032 40.1659 L 93.066 40.1659 Z " style="fill:#fff;fill-rule:nonzero;" stroke-width="1"/><path d="M 101.906 39.3009 L 102.046 40.1549 C 101.774 40.2119 101.53 40.2409 101.316 40.2409 C 100.965 40.2409 100.693 40.1849 100.499 40.0739 C 100.306 39.9629 100.17 39.8179 100.091 39.6369 C 100.012 39.4559 99.973 39.0749 99.973 38.4949 L 99.973 35.2139 L 99.264 35.2139 L 99.264 34.4619 L 99.973 34.4619 L 99.973 33.0489 L 100.934 32.4689 L 100.934 34.4619 L 101.906 34.4619 L 101.906 35.2139 L 100.934 35.2139 L 100.934 38.5489 C 100.934 38.8249 100.951 39.0019 100.985 39.0809 C 101.019 39.1599 101.075 39.2219 101.152 39.2689 C 101.229 39.3149 101.339 39.3389 101.482 39.3389 C 101.59 39.3389 101.731 39.3259 101.906 39.3009 Z " style="fill:#fff;fill-rule:nonzero;" stroke-width="1"/><path d="M 102.852 40.1659 L 102.852 32.2919 L 103.819 32.2919 L 103.819 35.1169 C 104.27 34.5939 104.839 34.3329 105.527 34.3329 C 105.949 34.3329 106.316 34.4159 106.628 34.5829 C 106.939 34.7489 107.162 34.9789 107.296 35.2729 C 107.431 35.5659 107.498 35.9919 107.498 36.5509 L 107.498 40.1659 L 106.531 40.1659 L 106.531 36.5509 C 106.531 36.0679 106.426 35.7159 106.217 35.4959 C 106.007 35.2749 105.711 35.1649 105.328 35.1649 C 105.041 35.1649 104.772 35.2399 104.519 35.3879 C 104.267 35.5369 104.087 35.7379 103.98 35.9919 C 103.872 36.2469 103.819 36.5979 103.819 37.0449 L 103.819 40.1659 L 102.852 40.1659 Z " style="fill:#fff;fill-rule:nonzero;" stroke-width="1"/><path d="M 112.874 38.3289 L 113.873 38.4519 C 113.716 39.0359 113.424 39.4889 112.998 39.8109 C 112.572 40.1339 112.027 40.2949 111.365 40.2949 C 110.531 40.2949 109.869 40.0379 109.38 39.5239 C 108.892 39.0099 108.647 38.2889 108.647 37.3619 C 108.647 36.4019 108.894 35.6579 109.388 35.1279 C 109.883 34.5979 110.523 34.3329 111.311 34.3329 C 112.074 34.3329 112.697 34.5919 113.18 35.1119 C 113.664 35.6309 113.905 36.3609 113.905 37.3029 C 113.905 37.3599 113.904 37.4459 113.9 37.5609 L 109.646 37.5609 C 109.682 38.1869 109.859 38.6669 110.178 38.9999 C 110.497 39.3329 110.894 39.4999 111.37 39.4999 C 111.725 39.4999 112.027 39.4069 112.278 39.2199 C 112.529 39.0339 112.727 38.7369 112.874 38.3289 Z M 109.7 36.7659 L 112.885 36.7659 C 112.842 36.2859 112.72 35.9259 112.52 35.6859 C 112.212 35.3139 111.813 35.1279 111.322 35.1279 C 110.878 35.1279 110.505 35.2759 110.202 35.5729 C 109.9 35.8709 109.732 36.2679 109.7 36.7659 Z " style="fill:#fff;fill-rule:nonzero;" stroke-width="1"/><path d="M 120.254 39.3009 L 120.394 40.1549 C 120.122 40.2119 119.878 40.2409 119.663 40.2409 C 119.312 40.2409 119.04 40.1849 118.847 40.0739 C 118.654 39.9629 118.517 39.8179 118.439 39.6369 C 118.36 39.4559 118.321 39.0749 118.321 38.4949 L 118.321 35.2139 L 117.612 35.2139 L 117.612 34.4619 L 118.321 34.4619 L 118.321 33.0489 L 119.282 32.4689 L 119.282 34.4619 L 120.254 34.4619 L 120.254 35.2139 L 119.282 35.2139 L 119.282 38.5489 C 119.282 38.8249 119.299 39.0019 119.333 39.0809 C 119.367 39.1599 119.422 39.2219 119.499 39.2689 C 119.576 39.3149 119.687 39.3389 119.83 39.3389 C 119.937 39.3389 120.079 39.3259 120.254 39.3009 Z " style="fill:#fff;fill-rule:nonzero;" stroke-width="1"/><path d="M 121.199 40.1659 L 121.199 32.2919 L 122.166 32.2919 L 122.166 35.1169 C 122.617 34.5939 123.187 34.3329 123.874 34.3329 C 124.297 34.3329 124.664 34.4159 124.975 34.5829 C 125.287 34.7489 125.51 34.9789 125.644 35.2729 C 125.778 35.5659 125.845 35.9919 125.845 36.5509 L 125.845 40.1659 L 124.879 40.1659 L 124.879 36.5509 C 124.879 36.0679 124.774 35.7159 124.564 35.4959 C 124.355 35.2749 124.059 35.1649 123.675 35.1649 C 123.389 35.1649 123.12 35.2399 122.867 35.3879 C 122.615 35.5369 122.435 35.7379 122.327 35.9919 C 122.22 36.2469 122.166 36.5979 122.166 37.0449 L 122.166 40.1659 L 121.199 40.1659 Z " style="fill:#fff;fill-rule:nonzero;" stroke-width="1"/><path d="M 131.222 38.3289 L 132.221 38.4519 C 132.063 39.0359 131.772 39.4889 131.345 39.8109 C 130.919 40.1339 130.375 40.2949 129.713 40.2949 C 128.878 40.2949 128.217 40.0379 127.728 39.5239 C 127.239 39.0099 126.995 38.2889 126.995 37.3619 C 126.995 36.4019 127.242 35.6579 127.736 35.1279 C 128.23 34.5979 128.871 34.3329 129.659 34.3329 C 130.422 34.3329 131.045 34.5919 131.528 35.1119 C 132.011 35.6309 132.253 36.3609 132.253 37.3029 C 132.253 37.3599 132.251 37.4459 132.248 37.5609 L 127.994 37.5609 C 128.03 38.1869 128.207 38.6669 128.526 38.9999 C 128.844 39.3329 129.242 39.4999 129.718 39.4999 C 130.072 39.4999 130.375 39.4069 130.626 39.2199 C 130.876 39.0339 131.075 38.7369 131.222 38.3289 Z M 128.048 36.7659 L 131.233 36.7659 C 131.19 36.2859 131.068 35.9259 130.867 35.6859 C 130.559 35.3139 130.16 35.1279 129.67 35.1279 C 129.226 35.1279 128.852 35.2759 128.55 35.5729 C 128.247 35.8709 128.08 36.2679 128.048 36.7659 Z " style="fill:#fff;fill-rule:nonzero;" stroke-width="1"/><path d="M 140.213 38.0759 L 141.164 38.1999 C 141.06 38.8549 140.794 39.3679 140.366 39.7389 C 139.938 40.1089 139.413 40.2949 138.79 40.2949 C 138.009 40.2949 137.382 40.0399 136.907 39.5289 C 136.433 39.0189 136.196 38.2879 136.196 37.3349 C 136.196 36.7189 136.298 36.1799 136.502 35.7189 C 136.706 35.2569 137.016 34.9099 137.434 34.6789 C 137.851 34.4479 138.305 34.3329 138.795 34.3329 C 139.415 34.3329 139.921 34.4889 140.315 34.8029 C 140.709 35.1159 140.961 35.5609 141.072 36.1369 L 140.133 36.2819 C 140.043 35.8989 139.885 35.6109 139.657 35.4179 C 139.43 35.2239 139.155 35.1279 138.833 35.1279 C 138.346 35.1279 137.95 35.3019 137.646 35.6509 C 137.341 35.9999 137.189 36.5529 137.189 37.3079 C 137.189 38.0749 137.336 38.6309 137.63 38.9789 C 137.923 39.3259 138.306 39.4999 138.779 39.4999 C 139.159 39.4999 139.475 39.3829 139.73 39.1509 C 139.984 38.9179 140.145 38.5599 140.213 38.0759 Z " style="fill:#fff;fill-rule:nonzero;" stroke-width="1"/><path d="M 145.729 40.1659 L 145.729 39.3279 C 145.285 39.9719 144.682 40.2949 143.919 40.2949 C 143.583 40.2949 143.268 40.2299 142.977 40.1009 C 142.685 39.9719 142.468 39.8099 142.327 39.6149 C 142.185 39.4199 142.086 39.1809 142.029 38.8979 C 141.989 38.7079 141.969 38.4079 141.969 37.9959 L 141.969 34.4619 L 142.936 34.4619 L 142.936 37.6249 C 142.936 38.1299 142.956 38.4699 142.995 38.6459 C 143.056 38.8999 143.185 39.0999 143.382 39.2449 C 143.579 39.3899 143.822 39.4619 144.112 39.4619 C 144.403 39.4619 144.675 39.3879 144.929 39.2389 C 145.183 39.0909 145.363 38.8879 145.469 38.6319 C 145.574 38.3759 145.627 38.0049 145.627 37.5179 L 145.627 34.4619 L 146.594 34.4619 L 146.594 40.1659 L 145.729 40.1659 Z " style="fill:#fff;fill-rule:nonzero;" stroke-width="1"/><path d="M 148.098 40.1659 L 148.098 34.4619 L 148.968 34.4619 L 148.968 35.3259 C 149.19 34.9219 149.395 34.6549 149.583 34.5259 C 149.771 34.3969 149.978 34.3329 150.203 34.3329 C 150.529 34.3329 150.86 34.4369 151.197 34.6439 L 150.864 35.5409 C 150.628 35.4019 150.391 35.3319 150.155 35.3319 C 149.944 35.3319 149.754 35.3949 149.586 35.5219 C 149.417 35.6499 149.297 35.8259 149.226 36.0519 C 149.118 36.3949 149.065 36.7709 149.065 37.1789 L 149.065 40.1659 L 148.098 40.1659 Z " style="fill:#fff;fill-rule:nonzero;" stroke-width="1"/><path d="M 151.761 40.1659 L 151.761 34.4619 L 152.631 34.4619 L 152.631 35.3259 C 152.853 34.9219 153.058 34.6549 153.246 34.5259 C 153.434 34.3969 153.641 34.3329 153.866 34.3329 C 154.192 34.3329 154.523 34.4369 154.86 34.6439 L 154.527 35.5409 C 154.291 35.4019 154.054 35.3319 153.818 35.3319 C 153.607 35.3319 153.417 35.3949 153.249 35.5219 C 153.08 35.6499 152.96 35.8259 152.889 36.0519 C 152.781 36.3949 152.728 36.7709 152.728 37.1789 L 152.728 40.1659 L 151.761 40.1659 Z " style="fill:#fff;fill-rule:nonzero;" stroke-width="1"/><path d="M 159.34 38.3289 L 160.339 38.4519 C 160.181 39.0359 159.889 39.4889 159.463 39.8109 C 159.037 40.1339 158.493 40.2949 157.83 40.2949 C 156.996 40.2949 156.334 40.0379 155.846 39.5239 C 155.357 39.0099 155.112 38.2889 155.112 37.3619 C 155.112 36.4019 155.36 35.6579 155.854 35.1279 C 156.348 34.5979 156.989 34.3329 157.777 34.3329 C 158.539 34.3329 159.162 34.5919 159.646 35.1119 C 160.129 35.6309 160.371 36.3609 160.371 37.3029 C 160.371 37.3599 160.369 37.4459 160.365 37.5609 L 156.112 37.5609 C 156.147 38.1869 156.325 38.6669 156.643 38.9999 C 156.962 39.3329 157.359 39.4999 157.836 39.4999 C 158.19 39.4999 158.493 39.4069 158.743 39.2199 C 158.994 39.0339 159.193 38.7369 159.34 38.3289 Z M 156.165 36.7659 L 159.35 36.7659 C 159.307 36.2859 159.186 35.9259 158.985 35.6859 C 158.677 35.3139 158.278 35.1279 157.787 35.1279 C 157.343 35.1279 156.97 35.2759 156.667 35.5729 C 156.365 35.8709 156.197 36.2679 156.165 36.7659 Z " style="fill:#fff;fill-rule:nonzero;" stroke-width="1"/><path d="M 161.552 40.1659 L 161.552 34.4619 L 162.423 34.4619 L 162.423 35.2729 C 162.842 34.6459 163.447 34.3329 164.238 34.3329 C 164.582 34.3329 164.898 34.3949 165.186 34.5179 C 165.474 34.6419 165.69 34.8039 165.833 35.0039 C 165.976 35.2049 166.077 35.4429 166.134 35.7189 C 166.17 35.8979 166.188 36.2109 166.188 36.6579 L 166.188 40.1659 L 165.221 40.1659 L 165.221 36.6959 C 165.221 36.3019 165.183 36.0079 165.108 35.8129 C 165.033 35.6169 164.9 35.4619 164.708 35.3449 C 164.516 35.2289 164.292 35.1709 164.034 35.1709 C 163.622 35.1709 163.267 35.3009 162.968 35.5629 C 162.669 35.8239 162.519 36.3199 162.519 37.0509 L 162.519 40.1659 L 161.552 40.1659 Z " style="fill:#fff;fill-rule:nonzero;" stroke-width="1"/><path d="M 169.781 39.3009 L 169.921 40.1549 C 169.648 40.2119 169.405 40.2409 169.19 40.2409 C 168.839 40.2409 168.567 40.1849 168.374 40.0739 C 168.18 39.9629 168.044 39.8179 167.966 39.6369 C 167.887 39.4559 167.847 39.0749 167.847 38.4949 L 167.847 35.2139 L 167.138 35.2139 L 167.138 34.4619 L 167.847 34.4619 L 167.847 33.0489 L 168.809 32.4689 L 168.809 34.4619 L 169.781 34.4619 L 169.781 35.2139 L 168.809 35.2139 L 168.809 38.5489 C 168.809 38.8249 168.826 39.0019 168.86 39.0809 C 168.894 39.1599 168.949 39.2219 169.026 39.2689 C 169.103 39.3149 169.213 39.3389 169.357 39.3389 C 169.464 39.3389 169.606 39.3259 169.781 39.3009 Z " style="fill:#fff;fill-rule:nonzero;" stroke-width="1"/><path d="M 173.605 40.6379 L 174.545 40.7779 C 174.585 41.0679 174.694 41.2789 174.873 41.4119 C 175.113 41.5909 175.44 41.6799 175.856 41.6799 C 176.303 41.6799 176.649 41.5909 176.892 41.4119 C 177.136 41.2329 177.3 40.9819 177.386 40.6599 C 177.437 40.4629 177.46 40.0489 177.456 39.4189 C 177.034 39.9169 176.507 40.1659 175.877 40.1659 C 175.093 40.1659 174.486 39.8829 174.056 39.3169 C 173.627 38.7509 173.412 38.0729 173.412 37.2809 C 173.412 36.7369 173.51 36.2349 173.707 35.7749 C 173.904 35.3149 174.19 34.9589 174.564 34.7089 C 174.938 34.4579 175.378 34.3329 175.883 34.3329 C 176.556 34.3329 177.111 34.6049 177.548 35.1489 L 177.548 34.4619 L 178.439 34.4619 L 178.439 39.3919 C 178.439 40.2799 178.349 40.9099 178.168 41.2799 C 177.987 41.6509 177.701 41.9439 177.309 42.1579 C 176.916 42.3729 176.434 42.4809 175.861 42.4809 C 175.181 42.4809 174.631 42.3279 174.212 42.0209 C 173.793 41.7149 173.591 41.2539 173.605 40.6379 Z M 174.405 37.2119 C 174.405 37.9599 174.554 38.5059 174.851 38.8499 C 175.148 39.1939 175.521 39.3649 175.968 39.3649 C 176.412 39.3649 176.785 39.1949 177.086 38.8529 C 177.386 38.5109 177.537 37.9739 177.537 37.2439 C 177.537 36.5459 177.382 36.0189 177.072 35.6649 C 176.762 35.3099 176.389 35.1329 175.952 35.1329 C 175.523 35.1329 175.157 35.3079 174.857 35.6569 C 174.556 36.0059 174.405 36.5239 174.405 37.2119 Z " style="fill:#fff;fill-rule:nonzero;" stroke-width="1"/><path d="M 179.889 40.1659 L 179.889 34.4619 L 180.759 34.4619 L 180.759 35.3259 C 180.981 34.9219 181.186 34.6549 181.374 34.5259 C 181.562 34.3969 181.769 34.3329 181.995 34.3329 C 182.321 34.3329 182.652 34.4369 182.988 34.6439 L 182.655 35.5409 C 182.419 35.4019 182.183 35.3319 181.946 35.3319 C 181.735 35.3319 181.545 35.3949 181.377 35.5219 C 181.209 35.6499 181.089 35.8259 181.017 36.0519 C 180.91 36.3949 180.856 36.7709 180.856 37.1789 L 180.856 40.1659 L 179.889 40.1659 Z " style="fill:#fff;fill-rule:nonzero;" stroke-width="1"/><path d="M 187.285 39.4619 C 186.927 39.7669 186.583 39.9809 186.251 40.1069 C 185.92 40.2319 185.565 40.2949 185.185 40.2949 C 184.559 40.2949 184.077 40.1419 183.74 39.8349 C 183.404 39.5289 183.236 39.1379 183.236 38.6619 C 183.236 38.3829 183.299 38.1269 183.426 37.8959 C 183.553 37.6659 183.72 37.4799 183.926 37.3409 C 184.132 37.2009 184.363 37.0949 184.621 37.0239 C 184.811 36.9739 185.098 36.9249 185.481 36.8789 C 186.261 36.7859 186.836 36.6749 187.205 36.5459 C 187.208 36.4129 187.21 36.3289 187.21 36.2929 C 187.21 35.8989 187.119 35.6219 186.936 35.4609 C 186.689 35.2419 186.322 35.1329 185.835 35.1329 C 185.38 35.1329 185.045 35.2129 184.828 35.3719 C 184.611 35.5309 184.451 35.8129 184.347 36.2179 L 183.402 36.0889 C 183.488 35.6839 183.629 35.3579 183.826 35.1089 C 184.023 34.8599 184.308 34.6679 184.68 34.5339 C 185.053 34.3999 185.484 34.3329 185.975 34.3329 C 186.462 34.3329 186.857 34.3899 187.162 34.5049 C 187.466 34.6189 187.69 34.7629 187.833 34.9369 C 187.976 35.1109 188.077 35.3299 188.134 35.5949 C 188.166 35.7599 188.182 36.0569 188.182 36.4869 L 188.182 37.7759 C 188.182 38.6739 188.203 39.2429 188.244 39.4809 C 188.285 39.7189 188.367 39.9469 188.488 40.1659 L 187.479 40.1659 C 187.378 39.9649 187.314 39.7309 187.285 39.4619 Z M 187.205 37.3029 C 186.854 37.4459 186.328 37.5679 185.626 37.6679 C 185.228 37.7259 184.947 37.7899 184.782 37.8619 C 184.618 37.9329 184.491 38.0379 184.401 38.1759 C 184.312 38.3139 184.267 38.4669 184.267 38.6349 C 184.267 38.8929 184.364 39.1079 184.56 39.2799 C 184.755 39.4509 185.04 39.5369 185.416 39.5369 C 185.789 39.5369 186.12 39.4559 186.41 39.2929 C 186.7 39.1299 186.913 38.9069 187.049 38.6239 C 187.153 38.4059 187.205 38.0839 187.205 37.6569 L 187.205 37.3029 Z " style="fill:#fff;fill-rule:nonzero;" stroke-width="1"/><path d="M 191.265 40.1659 L 189.095 34.4619 L 190.116 34.4619 L 191.341 37.8779 C 191.473 38.2469 191.595 38.6299 191.706 39.0269 C 191.792 38.7259 191.912 38.3649 192.066 37.9419 L 193.333 34.4619 L 194.327 34.4619 L 192.168 40.1659 L 191.265 40.1659 Z " style="fill:#fff;fill-rule:nonzero;" stroke-width="1"/><path d="M 195.186 33.4039 L 195.186 32.2919 L 196.153 32.2919 L 196.153 33.4039 L 195.186 33.4039 Z M 195.186 40.1659 L 195.186 34.4619 L 196.153 34.4619 L 196.153 40.1659 L 195.186 40.1659 Z " style="fill:#fff;fill-rule:nonzero;" stroke-width="1"/><path d="M 199.736 39.3009 L 199.875 40.1549 C 199.603 40.2119 199.36 40.2409 199.145 40.2409 C 198.794 40.2409 198.522 40.1849 198.328 40.0739 C 198.135 39.9629 197.999 39.8179 197.92 39.6369 C 197.841 39.4559 197.802 39.0749 197.802 38.4949 L 197.802 35.2139 L 197.093 35.2139 L 197.093 34.4619 L 197.802 34.4619 L 197.802 33.0489 L 198.763 32.4689 L 198.763 34.4619 L 199.736 34.4619 L 199.736 35.2139 L 198.763 35.2139 L 198.763 38.5489 C 198.763 38.8249 198.78 39.0019 198.814 39.0809 C 198.848 39.1599 198.904 39.2219 198.981 39.2689 C 199.058 39.3149 199.168 39.3389 199.311 39.3389 C 199.419 39.3389 199.56 39.3259 199.736 39.3009 Z " style="fill:#fff;fill-rule:nonzero;" stroke-width="1"/><path d="M 200.638 42.3629 L 200.53 41.4549 C 200.742 41.5119 200.926 41.5409 201.084 41.5409 C 201.299 41.5409 201.47 41.5049 201.599 41.4329 C 201.728 41.3619 201.834 41.2609 201.916 41.1329 C 201.977 41.0359 202.076 40.7959 202.212 40.4129 C 202.23 40.3589 202.258 40.2799 202.298 40.1769 L 200.133 34.4619 L 201.175 34.4619 L 202.362 37.7649 C 202.516 38.1839 202.654 38.6239 202.776 39.0859 C 202.887 38.6419 203.019 38.2089 203.173 37.7859 L 204.392 34.4619 L 205.359 34.4619 L 203.189 40.2619 C 202.956 40.8889 202.776 41.3209 202.647 41.5569 C 202.475 41.8759 202.278 42.1089 202.056 42.2579 C 201.834 42.4059 201.569 42.4809 201.261 42.4809 C 201.075 42.4809 200.867 42.4409 200.638 42.3629 Z " style="fill:#fff;fill-rule:nonzero;" stroke-width="1"/><path d="M 212.938 40.1659 L 212.938 39.4459 C 212.576 40.0119 212.044 40.2949 211.342 40.2949 C 210.888 40.2949 210.47 40.1689 210.088 39.9189 C 209.707 39.6679 209.412 39.3179 209.202 38.8689 C 208.993 38.4189 208.888 37.9029 208.888 37.3189 C 208.888 36.7499 208.983 36.2329 209.173 35.7699 C 209.362 35.3059 209.647 34.9499 210.027 34.7029 C 210.406 34.4559 210.83 34.3329 211.3 34.3329 C 211.643 34.3329 211.949 34.4049 212.218 34.5499 C 212.487 34.6949 212.705 34.8839 212.873 35.1169 L 212.873 32.2919 L 213.835 32.2919 L 213.835 40.1659 L 212.938 40.1659 Z M 209.882 37.3189 C 209.882 38.0499 210.036 38.5959 210.343 38.9569 C 210.651 39.3189 211.015 39.4999 211.434 39.4999 C 211.856 39.4999 212.215 39.3269 212.511 38.9809 C 212.806 38.6359 212.954 38.1089 212.954 37.3999 C 212.954 36.6189 212.803 36.0459 212.503 35.6809 C 212.202 35.3159 211.831 35.1329 211.391 35.1329 C 210.961 35.1329 210.602 35.3089 210.314 35.6589 C 210.026 36.0099 209.882 36.5639 209.882 37.3189 Z " style="fill:#fff;fill-rule:nonzero;" stroke-width="1"/><path d="M 215.36 33.4039 L 215.36 32.2919 L 216.327 32.2919 L 216.327 33.4039 L 215.36 33.4039 Z M 215.36 40.1659 L 215.36 34.4619 L 216.327 34.4619 L 216.327 40.1659 L 215.36 40.1659 Z " style="fill:#fff;fill-rule:nonzero;" stroke-width="1"/><path d="M 217.788 40.1659 L 217.788 34.4619 L 218.658 34.4619 L 218.658 35.3259 C 218.88 34.9219 219.085 34.6549 219.273 34.5259 C 219.461 34.3969 219.668 34.3329 219.893 34.3329 C 220.219 34.3329 220.55 34.4369 220.887 34.6439 L 220.554 35.5409 C 220.318 35.4019 220.081 35.3319 219.845 35.3319 C 219.634 35.3319 219.444 35.3949 219.276 35.5219 C 219.107 35.6499 218.987 35.8259 218.916 36.0519 C 218.808 36.3949 218.755 36.7709 218.755 37.1789 L 218.755 40.1659 L 217.788 40.1659 Z " style="fill:#fff;fill-rule:nonzero;" stroke-width="1"/><path d="M 225.366 38.3289 L 226.365 38.4519 C 226.208 39.0359 225.916 39.4889 225.49 39.8109 C 225.064 40.1339 224.52 40.2949 223.857 40.2949 C 223.023 40.2949 222.361 40.0379 221.873 39.5239 C 221.384 39.0099 221.139 38.2889 221.139 37.3619 C 221.139 36.4019 221.386 35.6579 221.881 35.1279 C 222.375 34.5979 223.016 34.3329 223.803 34.3329 C 224.566 34.3329 225.189 34.5919 225.673 35.1119 C 226.156 35.6309 226.398 36.3609 226.398 37.3029 C 226.398 37.3599 226.396 37.4459 226.392 37.5609 L 222.138 37.5609 C 222.174 38.1869 222.351 38.6669 222.67 38.9999 C 222.989 39.3329 223.386 39.4999 223.862 39.4999 C 224.217 39.4999 224.52 39.4069 224.77 39.2199 C 225.021 39.0339 225.22 38.7369 225.366 38.3289 Z M 222.192 36.7659 L 225.377 36.7659 C 225.334 36.2859 225.212 35.9259 225.012 35.6859 C 224.704 35.3139 224.305 35.1279 223.814 35.1279 C 223.37 35.1279 222.997 35.2759 222.694 35.5729 C 222.392 35.8709 222.224 36.2679 222.192 36.7659 Z " style="fill:#fff;fill-rule:nonzero;" stroke-width="1"/><path d="M 231.301 38.0759 L 232.252 38.1999 C 232.148 38.8549 231.882 39.3679 231.455 39.7389 C 231.027 40.1089 230.501 40.2949 229.878 40.2949 C 229.098 40.2949 228.47 40.0399 227.996 39.5289 C 227.521 39.0189 227.284 38.2879 227.284 37.3349 C 227.284 36.7189 227.386 36.1799 227.59 35.7189 C 227.794 35.2569 228.105 34.9099 228.522 34.6789 C 228.939 34.4479 229.393 34.3329 229.883 34.3329 C 230.503 34.3329 231.01 34.4889 231.404 34.8029 C 231.797 35.1159 232.05 35.5609 232.161 36.1369 L 231.221 36.2819 C 231.131 35.8989 230.973 35.6109 230.746 35.4179 C 230.518 35.2239 230.243 35.1279 229.921 35.1279 C 229.434 35.1279 229.038 35.3019 228.734 35.6509 C 228.43 35.9999 228.278 36.5529 228.278 37.3079 C 228.278 38.0749 228.424 38.6309 228.718 38.9789 C 229.012 39.3259 229.395 39.4999 229.867 39.4999 C 230.247 39.4999 230.564 39.3829 230.818 39.1509 C 231.072 38.9179 231.233 38.5599 231.301 38.0759 Z " style="fill:#fff;fill-rule:nonzero;" stroke-width="1"/><path d="M 235.19 39.3009 L 235.33 40.1549 C 235.058 40.2119 234.814 40.2409 234.599 40.2409 C 234.248 40.2409 233.976 40.1849 233.783 40.0739 C 233.59 39.9629 233.453 39.8179 233.375 39.6369 C 233.296 39.4559 233.257 39.0749 233.257 38.4949 L 233.257 35.2139 L 232.548 35.2139 L 232.548 34.4619 L 233.257 34.4619 L 233.257 33.0489 L 234.218 32.4689 L 234.218 34.4619 L 235.19 34.4619 L 235.19 35.2139 L 234.218 35.2139 L 234.218 38.5489 C 234.218 38.8249 234.235 39.0019 234.269 39.0809 C 234.303 39.1599 234.359 39.2219 234.435 39.2689 C 234.512 39.3149 234.623 39.3389 234.766 39.3389 C 234.873 39.3389 235.015 39.3259 235.19 39.3009 Z " style="fill:#fff;fill-rule:nonzero;" stroke-width="1"/><path d="M 236.141 33.4039 L 236.141 32.2919 L 237.108 32.2919 L 237.108 33.4039 L 236.141 33.4039 Z M 236.141 40.1659 L 236.141 34.4619 L 237.108 34.4619 L 237.108 40.1659 L 236.141 40.1659 Z " style="fill:#fff;fill-rule:nonzero;" stroke-width="1"/><path d="M 238.219 37.3139 C 238.219 36.2569 238.513 35.4749 239.1 34.9669 C 239.591 34.5439 240.189 34.3329 240.894 34.3329 C 241.678 34.3329 242.319 34.5899 242.817 35.1039 C 243.315 35.6169 243.564 36.3269 243.564 37.2329 C 243.564 37.9669 243.454 38.5449 243.233 38.9649 C 243.013 39.3859 242.693 39.7129 242.272 39.9459 C 241.851 40.1779 241.392 40.2949 240.894 40.2949 C 240.096 40.2949 239.45 40.0389 238.958 39.5269 C 238.466 39.0149 238.219 38.2769 238.219 37.3139 Z M 239.213 37.3139 C 239.213 38.0439 239.372 38.5909 239.691 38.9549 C 240.01 39.3179 240.411 39.4999 240.894 39.4999 C 241.374 39.4999 241.773 39.3169 242.092 38.9519 C 242.411 38.5869 242.57 38.0299 242.57 37.2809 C 242.57 36.5759 242.41 36.0419 242.089 35.6779 C 241.769 35.3149 241.37 35.1329 240.894 35.1329 C 240.411 35.1329 240.01 35.3139 239.691 35.6759 C 239.372 36.0369 239.213 36.5829 239.213 37.3139 Z " style="fill:#fff;fill-rule:nonzero;" stroke-width="1"/><path d="M 244.697 40.1659 L 244.697 34.4619 L 245.567 34.4619 L 245.567 35.2729 C 245.986 34.6459 246.591 34.3329 247.383 34.3329 C 247.726 34.3329 248.042 34.3949 248.331 34.5179 C 248.619 34.6419 248.835 34.8039 248.978 35.0039 C 249.121 35.2049 249.221 35.4429 249.279 35.7189 C 249.314 35.8979 249.332 36.2109 249.332 36.6579 L 249.332 40.1659 L 248.365 40.1659 L 248.365 36.6959 C 248.365 36.3019 248.328 36.0079 248.253 35.8129 C 248.177 35.6169 248.044 35.4619 247.852 35.3449 C 247.661 35.2289 247.436 35.1709 247.178 35.1709 C 246.767 35.1709 246.411 35.3009 246.112 35.5629 C 245.813 35.8239 245.664 36.3199 245.664 37.0509 L 245.664 40.1659 L 244.697 40.1659 Z " style="fill:#fff;fill-rule:nonzero;" stroke-width="1"/><path d="M 29.378 49.8229 L 30.334 49.6729 C 30.388 50.0559 30.537 50.3489 30.782 50.5529 C 31.028 50.7579 31.371 50.8599 31.811 50.8599 C 32.255 50.8599 32.584 50.7689 32.799 50.5879 C 33.014 50.4079 33.122 50.1949 33.122 49.9519 C 33.122 49.7329 33.027 49.5619 32.837 49.4359 C 32.704 49.3499 32.375 49.2409 31.849 49.1089 C 31.14 48.9299 30.648 48.7749 30.374 48.6439 C 30.1 48.5129 29.893 48.3329 29.751 48.1019 C 29.61 47.8709 29.539 47.6149 29.539 47.3359 C 29.539 47.0819 29.597 46.8469 29.714 46.6299 C 29.83 46.4129 29.988 46.2329 30.189 46.0899 C 30.339 45.9789 30.544 45.8849 30.804 45.8079 C 31.064 45.7309 31.342 45.6929 31.639 45.6929 C 32.087 45.6929 32.48 45.7569 32.818 45.8859 C 33.156 46.0149 33.406 46.1889 33.567 46.4099 C 33.728 46.6299 33.839 46.9239 33.9 47.2929 L 32.955 47.4219 C 32.912 47.1289 32.788 46.8989 32.582 46.7349 C 32.376 46.5699 32.085 46.4879 31.709 46.4879 C 31.265 46.4879 30.948 46.5609 30.758 46.7079 C 30.568 46.8549 30.474 47.0259 30.474 47.2229 C 30.474 47.3489 30.513 47.4619 30.592 47.5619 C 30.671 47.6659 30.794 47.7519 30.962 47.8199 C 31.059 47.8549 31.344 47.9379 31.816 48.0669 C 32.5 48.2489 32.977 48.3989 33.248 48.5149 C 33.518 48.6319 33.73 48.8009 33.884 49.0229 C 34.038 49.2449 34.115 49.5199 34.115 49.8499 C 34.115 50.1719 34.021 50.4759 33.833 50.7599 C 33.645 51.0449 33.374 51.2649 33.019 51.4209 C 32.665 51.5769 32.264 51.6549 31.816 51.6549 C 31.075 51.6549 30.51 51.5009 30.122 51.1929 C 29.733 50.8849 29.485 50.4279 29.378 49.8229 Z " style="fill:#fff;fill-rule:nonzero;" stroke-width="1"/><path d="M 35.265 51.5259 L 35.265 43.6519 L 36.231 43.6519 L 36.231 46.4769 C 36.683 45.9539 37.252 45.6929 37.939 45.6929 C 38.362 45.6929 38.729 45.7759 39.04 45.9419 C 39.352 46.1089 39.575 46.3389 39.709 46.6329 C 39.843 46.9259 39.911 47.3519 39.911 47.9109 L 39.911 51.5259 L 38.944 51.5259 L 38.944 47.9109 C 38.944 47.4269 38.839 47.0759 38.63 46.8549 C 38.42 46.6349 38.124 46.5249 37.741 46.5249 C 37.454 46.5249 37.185 46.5989 36.932 46.7479 C 36.68 46.8969 36.5 47.0979 36.393 47.3519 C 36.285 47.6069 36.231 47.9569 36.231 48.4049 L 36.231 51.5259 L 35.265 51.5259 Z " style="fill:#fff;fill-rule:nonzero;" stroke-width="1"/><path d="M 41.022 48.6739 C 41.022 47.6169 41.316 46.8349 41.903 46.3259 C 42.394 45.9039 42.992 45.6929 43.697 45.6929 C 44.481 45.6929 45.122 45.9499 45.62 46.4629 C 46.118 46.9769 46.367 47.6869 46.367 48.5929 C 46.367 49.3269 46.257 49.9039 46.036 50.3249 C 45.816 50.7459 45.496 51.0729 45.075 51.3049 C 44.654 51.5379 44.195 51.6549 43.697 51.6549 C 42.899 51.6549 42.253 51.3989 41.761 50.8859 C 41.269 50.3739 41.022 49.6369 41.022 48.6739 Z M 42.016 48.6739 C 42.016 49.4039 42.175 49.9509 42.494 50.3139 C 42.813 50.6779 43.214 50.8599 43.697 50.8599 C 44.177 50.8599 44.576 50.6769 44.895 50.3119 C 45.214 49.9469 45.373 49.3899 45.373 48.6409 C 45.373 47.9359 45.213 47.4019 44.892 47.0379 C 44.572 46.6749 44.173 46.4929 43.697 46.4929 C 43.214 46.4929 42.813 46.6739 42.494 47.0349 C 42.175 47.3969 42.016 47.9429 42.016 48.6739 Z " style="fill:#fff;fill-rule:nonzero;" stroke-width="1"/><path d="M 51.238 51.5259 L 51.238 50.6879 C 50.794 51.3319 50.191 51.6549 49.428 51.6549 C 49.092 51.6549 48.777 51.5899 48.486 51.4609 C 48.194 51.3319 47.977 51.1699 47.836 50.9749 C 47.694 50.7799 47.595 50.5409 47.538 50.2579 C 47.498 50.0679 47.478 49.7679 47.478 49.3559 L 47.478 45.8219 L 48.445 45.8219 L 48.445 48.9849 C 48.445 49.4899 48.465 49.8299 48.504 50.0059 C 48.565 50.2599 48.694 50.4589 48.891 50.6039 C 49.088 50.7499 49.331 50.8219 49.622 50.8219 C 49.912 50.8219 50.184 50.7479 50.438 50.5989 C 50.692 50.4509 50.872 50.2479 50.978 49.9919 C 51.083 49.7359 51.136 49.3649 51.136 48.8779 L 51.136 45.8219 L 52.103 45.8219 L 52.103 51.5259 L 51.238 51.5259 Z " style="fill:#fff;fill-rule:nonzero;" stroke-width="1"/><rect x="218.386" y="82.422" width="0.967" height="7.874" style="fill:#fff;fill-rule:nonzero;" stroke-width="1" transform="matrix(1,0,0,1,-164.79,-38.7701)"/><path d="M 59.762 51.5259 L 59.762 50.8059 C 59.401 51.3719 58.869 51.6549 58.167 51.6549 C 57.712 51.6549 57.294 51.5289 56.913 51.2789 C 56.531 51.0279 56.236 50.6779 56.027 50.2289 C 55.817 49.7789 55.712 49.2629 55.712 48.6789 C 55.712 48.1099 55.807 47.5929 55.997 47.1289 C 56.187 46.6659 56.471 46.3099 56.851 46.0629 C 57.231 45.8159 57.655 45.6929 58.124 45.6929 C 58.468 45.6929 58.774 45.7649 59.042 45.9099 C 59.311 46.0549 59.529 46.2439 59.698 46.4769 L 59.698 43.6519 L 60.659 43.6519 L 60.659 51.5259 L 59.762 51.5259 Z M 56.706 48.6789 C 56.706 49.4089 56.86 49.9549 57.168 50.3169 C 57.476 50.6789 57.839 50.8599 58.258 50.8599 C 58.681 50.8599 59.04 50.6869 59.335 50.3409 C 59.631 49.9959 59.778 49.4689 59.778 48.7599 C 59.778 47.9789 59.628 47.4059 59.327 47.0409 C 59.026 46.6759 58.656 46.4929 58.215 46.4929 C 57.786 46.4929 57.427 46.6679 57.138 47.0189 C 56.85 47.3699 56.706 47.9229 56.706 48.6789 Z " style="fill:#fff;fill-rule:nonzero;" stroke-width="1"/><path d="M 66.127 51.5259 L 65.23 51.5259 L 65.23 43.6519 L 66.197 43.6519 L 66.197 46.4609 C 66.605 45.9489 67.126 45.6929 67.76 45.6929 C 68.111 45.6929 68.443 45.7629 68.756 45.9049 C 69.069 46.0459 69.327 46.2449 69.529 46.5009 C 69.732 46.7569 69.89 47.0659 70.005 47.4269 C 70.119 47.7889 70.177 48.1759 70.177 48.5879 C 70.177 49.5649 69.935 50.3209 69.452 50.8539 C 68.968 51.3879 68.388 51.6549 67.711 51.6549 C 67.038 51.6549 66.51 51.3729 66.127 50.8109 L 66.127 51.5259 Z M 66.116 48.6309 C 66.116 49.3149 66.209 49.8089 66.395 50.1129 C 66.7 50.6109 67.112 50.8599 67.631 50.8599 C 68.053 50.8599 68.419 50.6759 68.727 50.3089 C 69.034 49.9419 69.188 49.3949 69.188 48.6679 C 69.188 47.9229 69.041 47.3739 68.745 47.0189 C 68.45 46.6649 68.093 46.4879 67.674 46.4879 C 67.251 46.4879 66.886 46.6709 66.578 47.0379 C 66.27 47.4049 66.116 47.9359 66.116 48.6309 Z " style="fill:#fff;fill-rule:nonzero;" stroke-width="1"/><path d="M 75.258 49.6889 L 76.257 49.8119 C 76.099 50.3959 75.807 50.8489 75.381 51.1709 C 74.955 51.4929 74.411 51.6549 73.748 51.6549 C 72.914 51.6549 72.253 51.3979 71.764 50.8839 C 71.275 50.3699 71.031 49.6489 71.031 48.7219 C 71.031 47.7619 71.278 47.0179 71.772 46.4879 C 72.266 45.9579 72.907 45.6929 73.695 45.6929 C 74.457 45.6929 75.081 45.9519 75.564 46.4709 C 76.047 46.9909 76.289 47.7209 76.289 48.6629 C 76.289 48.7199 76.287 48.8059 76.284 48.9209 L 72.03 48.9209 C 72.066 49.5469 72.243 50.0269 72.561 50.3599 C 72.88 50.6929 73.278 50.8599 73.754 50.8599 C 74.108 50.8599 74.411 50.7669 74.662 50.5799 C 74.912 50.3939 75.111 50.0969 75.258 49.6889 Z M 72.083 48.1259 L 75.269 48.1259 C 75.226 47.6459 75.104 47.2859 74.903 47.0459 C 74.595 46.6739 74.196 46.4879 73.706 46.4879 C 73.262 46.4879 72.888 46.6359 72.586 46.9329 C 72.283 47.2309 72.116 47.6279 72.083 48.1259 Z " style="fill:#fff;fill-rule:nonzero;" stroke-width="1"/><path d="M 80.14 49.8229 L 81.096 49.6729 C 81.15 50.0559 81.299 50.3489 81.545 50.5529 C 81.79 50.7579 82.133 50.8599 82.573 50.8599 C 83.017 50.8599 83.347 50.7689 83.561 50.5879 C 83.776 50.4079 83.884 50.1949 83.884 49.9519 C 83.884 49.7329 83.789 49.5619 83.599 49.4359 C 83.467 49.3499 83.137 49.2409 82.611 49.1089 C 81.902 48.9299 81.41 48.7749 81.136 48.6439 C 80.862 48.5129 80.655 48.3329 80.513 48.1019 C 80.372 47.8709 80.301 47.6149 80.301 47.3359 C 80.301 47.0819 80.359 46.8469 80.476 46.6299 C 80.592 46.4129 80.751 46.2329 80.951 46.0899 C 81.102 45.9789 81.307 45.8849 81.566 45.8079 C 81.826 45.7309 82.104 45.6929 82.401 45.6929 C 82.849 45.6929 83.242 45.7569 83.58 45.8859 C 83.919 46.0149 84.168 46.1889 84.33 46.4099 C 84.491 46.6299 84.602 46.9239 84.663 47.2929 L 83.717 47.4219 C 83.674 47.1289 83.55 46.8989 83.344 46.7349 C 83.138 46.5699 82.847 46.4879 82.471 46.4879 C 82.027 46.4879 81.71 46.5609 81.52 46.7079 C 81.331 46.8549 81.236 47.0259 81.236 47.2229 C 81.236 47.3489 81.275 47.4619 81.354 47.5619 C 81.433 47.6659 81.556 47.7519 81.725 47.8199 C 81.821 47.8549 82.106 47.9379 82.579 48.0669 C 83.262 48.2489 83.74 48.3989 84.01 48.5149 C 84.28 48.6319 84.492 48.8009 84.646 49.0229 C 84.8 49.2449 84.877 49.5199 84.877 49.8499 C 84.877 50.1719 84.783 50.4759 84.595 50.7599 C 84.407 51.0449 84.136 51.2649 83.782 51.4209 C 83.427 51.5769 83.026 51.6549 82.579 51.6549 C 81.837 51.6549 81.272 51.5009 80.884 51.1929 C 80.495 50.8849 80.248 50.4279 80.14 49.8229 Z " style="fill:#fff;fill-rule:nonzero;" stroke-width="1"/><path d="M 89.749 50.8219 C 89.391 51.1259 89.046 51.3409 88.715 51.4669 C 88.384 51.5919 88.028 51.6549 87.649 51.6549 C 87.022 51.6549 86.541 51.5009 86.204 51.1949 C 85.867 50.8889 85.699 50.4979 85.699 50.0219 C 85.699 49.7419 85.763 49.4869 85.89 49.2559 C 86.017 49.0249 86.183 48.8399 86.389 48.6999 C 86.595 48.5609 86.827 48.4549 87.085 48.3839 C 87.275 48.3329 87.561 48.2849 87.944 48.2389 C 88.725 48.1449 89.3 48.0339 89.668 47.9059 C 89.672 47.7729 89.674 47.6889 89.674 47.6529 C 89.674 47.2589 89.582 46.9819 89.4 46.8209 C 89.153 46.6019 88.786 46.4929 88.299 46.4929 C 87.844 46.4929 87.508 46.5729 87.292 46.7319 C 87.075 46.8909 86.915 47.1729 86.811 47.5779 L 85.866 47.4489 C 85.952 47.0439 86.093 46.7179 86.29 46.4689 C 86.487 46.2199 86.772 46.0279 87.144 45.8939 C 87.516 45.7599 87.948 45.6929 88.438 45.6929 C 88.925 45.6929 89.321 45.7499 89.625 45.8649 C 89.93 45.9789 90.154 46.1229 90.297 46.2969 C 90.44 46.4709 90.54 46.6899 90.598 46.9549 C 90.63 47.1199 90.646 47.4169 90.646 47.8459 L 90.646 49.1359 C 90.646 50.0339 90.667 50.6029 90.708 50.8409 C 90.749 51.0789 90.83 51.3069 90.952 51.5259 L 89.942 51.5259 C 89.842 51.3249 89.778 51.0909 89.749 50.8219 Z M 89.668 48.6629 C 89.317 48.8059 88.791 48.9279 88.089 49.0279 C 87.692 49.0849 87.411 49.1499 87.246 49.2209 C 87.081 49.2929 86.954 49.3979 86.865 49.5359 C 86.775 49.6739 86.73 49.8269 86.73 49.9949 C 86.73 50.2529 86.828 50.4679 87.023 50.6389 C 87.218 50.8109 87.504 50.8969 87.88 50.8969 C 88.252 50.8969 88.583 50.8159 88.873 50.6529 C 89.164 50.4899 89.377 50.2669 89.513 49.9839 C 89.616 49.7659 89.668 49.4429 89.668 49.0169 L 89.668 48.6629 Z " style="fill:#fff;fill-rule:nonzero;" stroke-width="1"/><path d="M 93.729 51.5259 L 91.559 45.8219 L 92.58 45.8219 L 93.804 49.2379 C 93.937 49.6059 94.058 49.9899 94.169 50.3869 C 94.255 50.0859 94.375 49.7249 94.529 49.3019 L 95.797 45.8219 L 96.79 45.8219 L 94.631 51.5259 L 93.729 51.5259 Z " style="fill:#fff;fill-rule:nonzero;" stroke-width="1"/><path d="M 101.549 49.6889 L 102.548 49.8119 C 102.391 50.3959 102.099 50.8489 101.673 51.1709 C 101.247 51.4929 100.702 51.6549 100.04 51.6549 C 99.206 51.6549 98.544 51.3979 98.055 50.8839 C 97.567 50.3699 97.322 49.6489 97.322 48.7219 C 97.322 47.7619 97.569 47.0179 98.063 46.4879 C 98.558 45.9579 99.199 45.6929 99.986 45.6929 C 100.749 45.6929 101.372 45.9519 101.855 46.4709 C 102.339 46.9909 102.581 47.7209 102.581 48.6629 C 102.581 48.7199 102.579 48.8059 102.575 48.9209 L 98.321 48.9209 C 98.357 49.5469 98.534 50.0269 98.853 50.3599 C 99.172 50.6929 99.569 50.8599 100.045 50.8599 C 100.4 50.8599 100.702 50.7669 100.953 50.5799 C 101.204 50.3939 101.402 50.0969 101.549 49.6889 Z M 98.375 48.1259 L 101.56 48.1259 C 101.517 47.6459 101.395 47.2859 101.195 47.0459 C 100.887 46.6739 100.488 46.4879 99.997 46.4879 C 99.553 46.4879 99.18 46.6359 98.877 46.9329 C 98.575 47.2309 98.407 47.6279 98.375 48.1259 Z " style="fill:#fff;fill-rule:nonzero;" stroke-width="1"/><path d="M 107.463 51.5259 L 107.463 50.8059 C 107.101 51.3719 106.569 51.6549 105.868 51.6549 C 105.413 51.6549 104.995 51.5289 104.613 51.2789 C 104.232 51.0279 103.937 50.6779 103.727 50.2289 C 103.518 49.7789 103.413 49.2629 103.413 48.6789 C 103.413 48.1099 103.508 47.5929 103.698 47.1289 C 103.887 46.6659 104.172 46.3099 104.552 46.0629 C 104.931 45.8159 105.356 45.6929 105.825 45.6929 C 106.168 45.6929 106.475 45.7649 106.743 45.9099 C 107.012 46.0549 107.23 46.2439 107.398 46.4769 L 107.398 43.6519 L 108.36 43.6519 L 108.36 51.5259 L 107.463 51.5259 Z M 104.407 48.6789 C 104.407 49.4089 104.561 49.9549 104.869 50.3169 C 105.177 50.6789 105.54 50.8599 105.959 50.8599 C 106.381 50.8599 106.74 50.6869 107.036 50.3409 C 107.331 49.9959 107.479 49.4689 107.479 48.7599 C 107.479 47.9789 107.329 47.4059 107.028 47.0409 C 106.727 46.6759 106.356 46.4929 105.916 46.4929 C 105.486 46.4929 105.127 46.6679 104.839 47.0189 C 104.551 47.3699 104.407 47.9229 104.407 48.6789 Z " style="fill:#fff;fill-rule:nonzero;" stroke-width="1"/><path d="M 116.658 50.8219 C 116.3 51.1259 115.955 51.3409 115.624 51.4669 C 115.293 51.5919 114.938 51.6549 114.558 51.6549 C 113.931 51.6549 113.45 51.5009 113.113 51.1949 C 112.777 50.8889 112.608 50.4979 112.608 50.0219 C 112.608 49.7419 112.672 49.4869 112.799 49.2559 C 112.926 49.0249 113.093 48.8399 113.299 48.6999 C 113.504 48.5609 113.736 48.4549 113.994 48.3839 C 114.184 48.3329 114.47 48.2849 114.853 48.2389 C 115.634 48.1449 116.209 48.0339 116.578 47.9059 C 116.581 47.7729 116.583 47.6889 116.583 47.6529 C 116.583 47.2589 116.492 46.9819 116.309 46.8209 C 116.062 46.6019 115.695 46.4929 115.208 46.4929 C 114.753 46.4929 114.418 46.5729 114.201 46.7319 C 113.984 46.8909 113.824 47.1729 113.72 47.5779 L 112.775 47.4489 C 112.861 47.0439 113.002 46.7179 113.199 46.4689 C 113.396 46.2199 113.681 46.0279 114.053 45.8939 C 114.426 45.7599 114.857 45.6929 115.348 45.6929 C 115.835 45.6929 116.23 45.7499 116.535 45.8649 C 116.839 45.9789 117.063 46.1229 117.206 46.2969 C 117.349 46.4709 117.449 46.6899 117.507 46.9549 C 117.539 47.1199 117.555 47.4169 117.555 47.8459 L 117.555 49.1359 C 117.555 50.0339 117.576 50.6029 117.617 50.8409 C 117.658 51.0789 117.74 51.3069 117.861 51.5259 L 116.852 51.5259 C 116.751 51.3249 116.687 51.0909 116.658 50.8219 Z M 116.578 48.6629 C 116.227 48.8059 115.7 48.9279 114.998 49.0279 C 114.601 49.0849 114.32 49.1499 114.155 49.2209 C 113.991 49.2929 113.863 49.3979 113.774 49.5359 C 113.684 49.6739 113.64 49.8269 113.64 49.9949 C 113.64 50.2529 113.737 50.4679 113.932 50.6389 C 114.127 50.8109 114.413 50.8969 114.789 50.8969 C 115.161 50.8969 115.493 50.8159 115.783 50.6529 C 116.073 50.4899 116.286 50.2669 116.422 49.9839 C 116.526 49.7659 116.578 49.4429 116.578 49.0169 L 116.578 48.6629 Z " style="fill:#fff;fill-rule:nonzero;" stroke-width="1"/><rect x="283.822" y="82.422" width="0.967" height="7.874" style="fill:#fff;fill-rule:nonzero;" stroke-width="1" transform="matrix(1,0,0,1,-164.79,-38.7701)"/><path d="M 121.138 48.6739 C 121.138 47.6169 121.431 46.8349 122.019 46.3259 C 122.509 45.9039 123.107 45.6929 123.812 45.6929 C 124.597 45.6929 125.238 45.9499 125.735 46.4629 C 126.233 46.9769 126.482 47.6869 126.482 48.5929 C 126.482 49.3269 126.372 49.9039 126.152 50.3249 C 125.931 50.7459 125.611 51.0729 125.19 51.3049 C 124.769 51.5379 124.31 51.6549 123.812 51.6549 C 123.014 51.6549 122.369 51.3989 121.876 50.8859 C 121.384 50.3739 121.138 49.6369 121.138 48.6739 Z M 122.131 48.6739 C 122.131 49.4039 122.291 49.9509 122.609 50.3139 C 122.928 50.6779 123.329 50.8599 123.812 50.8599 C 124.292 50.8599 124.692 50.6769 125.01 50.3119 C 125.329 49.9469 125.488 49.3899 125.488 48.6409 C 125.488 47.9359 125.328 47.4019 125.008 47.0379 C 124.687 46.6749 124.289 46.4929 123.812 46.4929 C 123.329 46.4929 122.928 46.6739 122.609 47.0349 C 122.291 47.3969 122.131 47.9429 122.131 48.6739 Z " style="fill:#fff;fill-rule:nonzero;" stroke-width="1"/><path d="M 127.615 51.5259 L 127.615 45.8219 L 128.485 45.8219 L 128.485 46.6329 C 128.904 46.0059 129.509 45.6929 130.301 45.6929 C 130.644 45.6929 130.96 45.7539 131.249 45.8779 C 131.537 46.0009 131.753 46.1629 131.896 46.3639 C 132.039 46.5649 132.139 46.8029 132.197 47.0779 C 132.233 47.2569 132.25 47.5709 132.25 48.0179 L 132.25 51.5259 L 131.284 51.5259 L 131.284 48.0559 C 131.284 47.6619 131.246 47.3679 131.171 47.1719 C 131.096 46.9769 130.962 46.8209 130.771 46.7049 C 130.579 46.5889 130.354 46.5309 130.097 46.5309 C 129.685 46.5309 129.329 46.6609 129.03 46.9229 C 128.731 47.1839 128.582 47.6799 128.582 48.4099 L 128.582 51.5259 L 127.615 51.5259 Z " style="fill:#fff;fill-rule:nonzero;" stroke-width="1"/><path d="M 133.556 51.9979 L 134.496 52.1379 C 134.535 52.4279 134.644 52.6389 134.823 52.7719 C 135.063 52.9509 135.391 53.0399 135.806 53.0399 C 136.254 53.0399 136.599 52.9509 136.843 52.7719 C 137.086 52.5929 137.251 52.3419 137.337 52.0199 C 137.387 51.8229 137.41 51.4089 137.407 50.7789 C 136.984 51.2769 136.458 51.5259 135.828 51.5259 C 135.043 51.5259 134.436 51.2429 134.007 50.6769 C 133.577 50.1109 133.362 49.4329 133.362 48.6409 C 133.362 48.0969 133.461 47.5949 133.658 47.1349 C 133.855 46.6749 134.14 46.3189 134.514 46.0689 C 134.889 45.8179 135.328 45.6929 135.833 45.6929 C 136.506 45.6929 137.061 45.9649 137.498 46.5089 L 137.498 45.8219 L 138.39 45.8219 L 138.39 50.7519 C 138.39 51.6399 138.299 52.2699 138.118 52.6399 C 137.938 53.0109 137.651 53.3029 137.259 53.5179 C 136.867 53.7329 136.384 53.8409 135.811 53.8409 C 135.131 53.8409 134.581 53.6879 134.163 53.3809 C 133.744 53.0749 133.541 52.6139 133.556 51.9979 Z M 134.356 48.5719 C 134.356 49.3199 134.505 49.8659 134.802 50.2099 C 135.099 50.5529 135.471 50.7249 135.919 50.7249 C 136.363 50.7249 136.735 50.5539 137.036 50.2119 C 137.337 49.8699 137.487 49.3339 137.487 48.6039 C 137.487 47.9059 137.332 47.3789 137.023 47.0249 C 136.713 46.6699 136.34 46.4929 135.903 46.4929 C 135.473 46.4929 135.108 46.6669 134.807 47.0169 C 134.506 47.3659 134.356 47.8839 134.356 48.5719 Z " style="fill:#fff;fill-rule:nonzero;" stroke-width="1"/><path d="M 143.959 51.5259 L 142.214 45.8219 L 143.213 45.8219 L 144.121 49.1139 L 144.459 50.3389 C 144.473 50.2779 144.572 49.8859 144.754 49.1619 L 145.662 45.8219 L 146.656 45.8219 L 147.51 49.1299 L 147.794 50.2199 L 148.122 49.1189 L 149.1 45.8219 L 150.04 45.8219 L 148.256 51.5259 L 147.252 51.5259 L 146.344 48.1099 L 146.124 47.1369 L 144.969 51.5259 L 143.959 51.5259 Z " style="fill:#fff;fill-rule:nonzero;" stroke-width="1"/><path d="M 150.856 44.7629 L 150.856 43.6519 L 151.823 43.6519 L 151.823 44.7629 L 150.856 44.7629 Z M 150.856 51.5259 L 150.856 45.8219 L 151.823 45.8219 L 151.823 51.5259 L 150.856 51.5259 Z " style="fill:#fff;fill-rule:nonzero;" stroke-width="1"/><path d="M 155.405 50.6609 L 155.545 51.5149 C 155.273 51.5719 155.029 51.6009 154.814 51.6009 C 154.463 51.6009 154.191 51.5449 153.998 51.4339 C 153.805 51.3229 153.669 51.1769 153.59 50.9969 C 153.511 50.8159 153.472 50.4349 153.472 49.8549 L 153.472 46.5729 L 152.763 46.5729 L 152.763 45.8219 L 153.472 45.8219 L 153.472 44.4089 L 154.433 43.8289 L 154.433 45.8219 L 155.405 45.8219 L 155.405 46.5729 L 154.433 46.5729 L 154.433 49.9089 C 154.433 50.1849 154.45 50.3619 154.484 50.4409 C 154.518 50.5189 154.574 50.5819 154.651 50.6289 C 154.728 50.6749 154.838 50.6979 154.981 50.6979 C 155.088 50.6979 155.23 50.6859 155.405 50.6609 Z " style="fill:#fff;fill-rule:nonzero;" stroke-width="1"/><path d="M 156.351 51.5259 L 156.351 43.6519 L 157.317 43.6519 L 157.317 46.4769 C 157.769 45.9539 158.338 45.6929 159.025 45.6929 C 159.448 45.6929 159.815 45.7759 160.126 45.9419 C 160.438 46.1089 160.661 46.3389 160.795 46.6329 C 160.929 46.9259 160.997 47.3519 160.997 47.9109 L 160.997 51.5259 L 160.03 51.5259 L 160.03 47.9109 C 160.03 47.4269 159.925 47.0759 159.716 46.8549 C 159.506 46.6349 159.21 46.5249 158.827 46.5249 C 158.54 46.5249 158.271 46.5989 158.018 46.7479 C 157.766 46.8969 157.586 47.0979 157.478 47.3519 C 157.371 47.6069 157.317 47.9569 157.317 48.4049 L 157.317 51.5259 L 156.351 51.5259 Z " style="fill:#fff;fill-rule:nonzero;" stroke-width="1"/><path d="M 167.635 50.6609 L 167.775 51.5149 C 167.503 51.5719 167.259 51.6009 167.044 51.6009 C 166.693 51.6009 166.421 51.5449 166.228 51.4339 C 166.035 51.3229 165.899 51.1769 165.82 50.9969 C 165.741 50.8159 165.702 50.4349 165.702 49.8549 L 165.702 46.5729 L 164.993 46.5729 L 164.993 45.8219 L 165.702 45.8219 L 165.702 44.4089 L 166.663 43.8289 L 166.663 45.8219 L 167.635 45.8219 L 167.635 46.5729 L 166.663 46.5729 L 166.663 49.9089 C 166.663 50.1849 166.68 50.3619 166.714 50.4409 C 166.748 50.5189 166.804 50.5819 166.881 50.6289 C 166.958 50.6749 167.068 50.6979 167.211 50.6979 C 167.318 50.6979 167.46 50.6859 167.635 50.6609 Z " style="fill:#fff;fill-rule:nonzero;" stroke-width="1"/><path d="M 168.581 51.5259 L 168.581 43.6519 L 169.547 43.6519 L 169.547 46.4769 C 169.998 45.9539 170.568 45.6929 171.255 45.6929 C 171.678 45.6929 172.045 45.7759 172.356 45.9419 C 172.668 46.1089 172.891 46.3389 173.025 46.6329 C 173.159 46.9259 173.227 47.3519 173.227 47.9109 L 173.227 51.5259 L 172.26 51.5259 L 172.26 47.9109 C 172.26 47.4269 172.155 47.0759 171.946 46.8549 C 171.736 46.6349 171.44 46.5249 171.057 46.5249 C 170.77 46.5249 170.501 46.5989 170.248 46.7479 C 169.996 46.8969 169.816 47.0979 169.708 47.3519 C 169.601 47.6069 169.547 47.9569 169.547 48.4049 L 169.547 51.5259 L 168.581 51.5259 Z " style="fill:#fff;fill-rule:nonzero;" stroke-width="1"/><path d="M 178.603 49.6889 L 179.602 49.8119 C 179.444 50.3959 179.153 50.8489 178.727 51.1709 C 178.3 51.4929 177.756 51.6549 177.094 51.6549 C 176.259 51.6549 175.598 51.3979 175.109 50.8839 C 174.62 50.3699 174.376 49.6489 174.376 48.7219 C 174.376 47.7619 174.623 47.0179 175.117 46.4879 C 175.611 45.9579 176.252 45.6929 177.04 45.6929 C 177.803 45.6929 178.426 45.9519 178.909 46.4709 C 179.393 46.9909 179.634 47.7209 179.634 48.6629 C 179.634 48.7199 179.632 48.8059 179.629 48.9209 L 175.375 48.9209 C 175.411 49.5469 175.588 50.0269 175.907 50.3599 C 176.225 50.6929 176.623 50.8599 177.099 50.8599 C 177.454 50.8599 177.756 50.7669 178.007 50.5799 C 178.257 50.3939 178.456 50.0969 178.603 49.6889 Z M 175.429 48.1259 L 178.614 48.1259 C 178.571 47.6459 178.449 47.2859 178.248 47.0459 C 177.941 46.6739 177.541 46.4879 177.051 46.4879 C 176.607 46.4879 176.233 46.6359 175.931 46.9329 C 175.628 47.2309 175.461 47.6279 175.429 48.1259 Z " style="fill:#fff;fill-rule:nonzero;" stroke-width="1"/><path d="M 187.594 49.4359 L 188.545 49.5599 C 188.441 50.2149 188.175 50.7279 187.747 51.0989 C 187.319 51.4689 186.794 51.6549 186.171 51.6549 C 185.39 51.6549 184.763 51.3989 184.288 50.8889 C 183.814 50.3789 183.577 49.6479 183.577 48.6949 C 183.577 48.0789 183.679 47.5399 183.883 47.0779 C 184.087 46.6159 184.397 46.2699 184.815 46.0389 C 185.232 45.8079 185.686 45.6929 186.176 45.6929 C 186.796 45.6929 187.302 45.8489 187.696 46.1629 C 188.09 46.4759 188.343 46.9209 188.454 47.4969 L 187.514 47.6419 C 187.424 47.2589 187.266 46.9709 187.038 46.7779 C 186.811 46.5839 186.536 46.4879 186.214 46.4879 C 185.727 46.4879 185.331 46.6619 185.027 47.0109 C 184.722 47.3599 184.57 47.9129 184.57 48.6679 C 184.57 49.4339 184.717 49.9909 185.011 50.3389 C 185.304 50.6859 185.687 50.8599 186.16 50.8599 C 186.54 50.8599 186.857 50.7429 187.111 50.5109 C 187.365 50.2779 187.526 49.9199 187.594 49.4359 Z " style="fill:#fff;fill-rule:nonzero;" stroke-width="1"/><path d="M 189.012 48.6739 C 189.012 47.6169 189.306 46.8349 189.893 46.3259 C 190.384 45.9039 190.982 45.6929 191.687 45.6929 C 192.471 45.6929 193.112 45.9499 193.61 46.4629 C 194.108 46.9769 194.356 47.6869 194.356 48.5929 C 194.356 49.3269 194.246 49.9039 194.026 50.3249 C 193.806 50.7459 193.485 51.0729 193.065 51.3049 C 192.644 51.5379 192.185 51.6549 191.687 51.6549 C 190.888 51.6549 190.243 51.3989 189.751 50.8859 C 189.258 50.3739 189.012 49.6369 189.012 48.6739 Z M 190.006 48.6739 C 190.006 49.4039 190.165 49.9509 190.484 50.3139 C 190.803 50.6779 191.204 50.8599 191.687 50.8599 C 192.167 50.8599 192.566 50.6769 192.885 50.3119 C 193.203 49.9469 193.363 49.3899 193.363 48.6409 C 193.363 47.9359 193.203 47.4019 192.882 47.0379 C 192.562 46.6749 192.163 46.4929 191.687 46.4929 C 191.204 46.4929 190.803 46.6739 190.484 47.0349 C 190.165 47.3969 190.006 47.9429 190.006 48.6739 Z " style="fill:#fff;fill-rule:nonzero;" stroke-width="1"/><path d="M 195.13 48.6739 C 195.13 47.6169 195.423 46.8349 196.011 46.3259 C 196.501 45.9039 197.099 45.6929 197.805 45.6929 C 198.589 45.6929 199.23 45.9499 199.727 46.4629 C 200.225 46.9769 200.474 47.6869 200.474 48.5929 C 200.474 49.3269 200.364 49.9039 200.144 50.3249 C 199.924 50.7459 199.603 51.0729 199.182 51.3049 C 198.762 51.5379 198.302 51.6549 197.805 51.6549 C 197.006 51.6549 196.361 51.3989 195.868 50.8859 C 195.376 50.3739 195.13 49.6369 195.13 48.6739 Z M 196.123 48.6739 C 196.123 49.4039 196.283 49.9509 196.602 50.3139 C 196.92 50.6779 197.321 50.8599 197.805 50.8599 C 198.284 50.8599 198.684 50.6769 199.002 50.3119 C 199.321 49.9469 199.48 49.3899 199.48 48.6409 C 199.48 47.9359 199.32 47.4019 199 47.0379 C 198.679 46.6749 198.281 46.4929 197.805 46.4929 C 197.321 46.4929 196.92 46.6739 196.602 47.0349 C 196.283 47.3969 196.123 47.9429 196.123 48.6739 Z " style="fill:#fff;fill-rule:nonzero;" stroke-width="1"/><path d="M 201.597 51.5259 L 201.597 45.8219 L 202.467 45.8219 L 202.467 46.6859 C 202.689 46.2819 202.894 46.0149 203.082 45.8859 C 203.27 45.7569 203.477 45.6929 203.702 45.6929 C 204.028 45.6929 204.359 45.7959 204.696 46.0039 L 204.363 46.9009 C 204.126 46.7609 203.89 46.6919 203.654 46.6919 C 203.442 46.6919 203.253 46.7549 203.084 46.8819 C 202.916 47.0089 202.796 47.1859 202.725 47.4109 C 202.617 47.7549 202.563 48.1309 202.563 48.5389 L 202.563 51.5259 L 201.597 51.5259 Z " style="fill:#fff;fill-rule:nonzero;" stroke-width="1"/><path d="M 208.971 51.5259 L 208.971 50.8059 C 208.609 51.3719 208.078 51.6549 207.376 51.6549 C 206.921 51.6549 206.503 51.5289 206.122 51.2789 C 205.74 51.0279 205.445 50.6779 205.236 50.2289 C 205.026 49.7789 204.921 49.2629 204.921 48.6789 C 204.921 48.1099 205.016 47.5929 205.206 47.1289 C 205.396 46.6659 205.68 46.3099 206.06 46.0629 C 206.44 45.8159 206.864 45.6929 207.333 45.6929 C 207.677 45.6929 207.983 45.7649 208.251 45.9099 C 208.52 46.0549 208.738 46.2439 208.907 46.4769 L 208.907 43.6519 L 209.868 43.6519 L 209.868 51.5259 L 208.971 51.5259 Z M 205.915 48.6789 C 205.915 49.4089 206.069 49.9549 206.377 50.3169 C 206.685 50.6789 207.048 50.8599 207.467 50.8599 C 207.89 50.8599 208.249 50.6869 208.544 50.3409 C 208.84 49.9959 208.987 49.4689 208.987 48.7599 C 208.987 47.9789 208.837 47.4059 208.536 47.0409 C 208.235 46.6759 207.865 46.4929 207.424 46.4929 C 206.995 46.4929 206.636 46.6679 206.347 47.0189 C 206.059 47.3699 205.915 47.9229 205.915 48.6789 Z " style="fill:#fff;fill-rule:nonzero;" stroke-width="1"/><path d="M 211.394 44.7629 L 211.394 43.6519 L 212.36 43.6519 L 212.36 44.7629 L 211.394 44.7629 Z M 211.394 51.5259 L 211.394 45.8219 L 212.36 45.8219 L 212.36 51.5259 L 211.394 51.5259 Z " style="fill:#fff;fill-rule:nonzero;" stroke-width="1"/><path d="M 213.832 51.5259 L 213.832 45.8219 L 214.702 45.8219 L 214.702 46.6329 C 215.121 46.0059 215.726 45.6929 216.518 45.6929 C 216.861 45.6929 217.177 45.7539 217.466 45.8779 C 217.754 46.0009 217.97 46.1629 218.113 46.3639 C 218.256 46.5649 218.356 46.8029 218.414 47.0779 C 218.449 47.2569 218.467 47.5709 218.467 48.0179 L 218.467 51.5259 L 217.5 51.5259 L 217.5 48.0559 C 217.5 47.6619 217.463 47.3679 217.388 47.1719 C 217.312 46.9769 217.179 46.8209 216.987 46.7049 C 216.796 46.5889 216.571 46.5309 216.313 46.5309 C 215.902 46.5309 215.546 46.6609 215.247 46.9229 C 214.948 47.1839 214.799 47.6799 214.799 48.4099 L 214.799 51.5259 L 213.832 51.5259 Z " style="fill:#fff;fill-rule:nonzero;" stroke-width="1"/><path d="M 223.672 50.8219 C 223.314 51.1259 222.969 51.3409 222.638 51.4669 C 222.307 51.5919 221.951 51.6549 221.572 51.6549 C 220.945 51.6549 220.463 51.5009 220.127 51.1949 C 219.79 50.8889 219.622 50.4979 219.622 50.0219 C 219.622 49.7419 219.686 49.4869 219.813 49.2559 C 219.94 49.0249 220.106 48.8399 220.312 48.6999 C 220.518 48.5609 220.75 48.4549 221.008 48.3839 C 221.198 48.3329 221.484 48.2849 221.867 48.2389 C 222.648 48.1449 223.222 48.0339 223.591 47.9059 C 223.595 47.7729 223.597 47.6889 223.597 47.6529 C 223.597 47.2589 223.505 46.9819 223.323 46.8209 C 223.076 46.6019 222.709 46.4929 222.222 46.4929 C 221.767 46.4929 221.431 46.5729 221.215 46.7319 C 220.998 46.8909 220.838 47.1729 220.734 47.5779 L 219.789 47.4489 C 219.874 47.0439 220.016 46.7179 220.213 46.4689 C 220.41 46.2199 220.694 46.0279 221.067 45.8939 C 221.439 45.7599 221.871 45.6929 222.361 45.6929 C 222.848 45.6929 223.244 45.7499 223.548 45.8649 C 223.853 45.9789 224.076 46.1229 224.22 46.2969 C 224.363 46.4709 224.463 46.6899 224.52 46.9549 C 224.553 47.1199 224.569 47.4169 224.569 47.8459 L 224.569 49.1359 C 224.569 50.0339 224.589 50.6029 224.631 50.8409 C 224.672 51.0789 224.753 51.3069 224.875 51.5259 L 223.865 51.5259 C 223.765 51.3249 223.7 51.0909 223.672 50.8219 Z M 223.591 48.6629 C 223.24 48.8059 222.714 48.9279 222.012 49.0279 C 221.615 49.0849 221.334 49.1499 221.169 49.2209 C 221.004 49.2929 220.877 49.3979 220.788 49.5359 C 220.698 49.6739 220.653 49.8269 220.653 49.9949 C 220.653 50.2529 220.751 50.4679 220.946 50.6389 C 221.141 50.8109 221.427 50.8969 221.803 50.8969 C 222.175 50.8969 222.506 50.8159 222.796 50.6529 C 223.086 50.4899 223.299 50.2669 223.435 49.9839 C 223.539 49.7659 223.591 49.4429 223.591 49.0169 L 223.591 48.6629 Z " style="fill:#fff;fill-rule:nonzero;" stroke-width="1"/><path d="M 228.178 50.6609 L 228.318 51.5149 C 228.046 51.5719 227.802 51.6009 227.587 51.6009 C 227.236 51.6009 226.964 51.5449 226.771 51.4339 C 226.578 51.3229 226.442 51.1769 226.363 50.9969 C 226.284 50.8159 226.245 50.4349 226.245 49.8549 L 226.245 46.5729 L 225.536 46.5729 L 225.536 45.8219 L 226.245 45.8219 L 226.245 44.4089 L 227.206 43.8289 L 227.206 45.8219 L 228.178 45.8219 L 228.178 46.5729 L 227.206 46.5729 L 227.206 49.9089 C 227.206 50.1849 227.223 50.3619 227.257 50.4409 C 227.291 50.5189 227.347 50.5819 227.424 50.6289 C 227.501 50.6749 227.611 50.6979 227.754 50.6979 C 227.861 50.6979 228.003 50.6859 228.178 50.6609 Z " style="fill:#fff;fill-rule:nonzero;" stroke-width="1"/><path d="M 233.028 49.6889 L 234.027 49.8119 C 233.87 50.3959 233.578 50.8489 233.152 51.1709 C 232.726 51.4929 232.181 51.6549 231.519 51.6549 C 230.685 51.6549 230.023 51.3979 229.534 50.8839 C 229.046 50.3699 228.801 49.6489 228.801 48.7219 C 228.801 47.7619 229.048 47.0179 229.542 46.4879 C 230.037 45.9579 230.678 45.6929 231.465 45.6929 C 232.228 45.6929 232.851 45.9519 233.334 46.4709 C 233.818 46.9909 234.06 47.7209 234.06 48.6629 C 234.06 48.7199 234.058 48.8059 234.054 48.9209 L 229.8 48.9209 C 229.836 49.5469 230.013 50.0269 230.332 50.3599 C 230.651 50.6929 231.048 50.8599 231.524 50.8599 C 231.879 50.8599 232.181 50.7669 232.432 50.5799 C 232.683 50.3939 232.881 50.0969 233.028 49.6889 Z M 229.854 48.1259 L 233.039 48.1259 C 232.996 47.6459 232.874 47.2859 232.674 47.0459 C 232.366 46.6739 231.967 46.4879 231.476 46.4879 C 231.032 46.4879 230.659 46.6359 230.356 46.9329 C 230.054 47.2309 229.886 47.6279 229.854 48.1259 Z " style="fill:#fff;fill-rule:nonzero;" stroke-width="1"/><path d="M 234.854 49.8229 L 235.81 49.6729 C 235.864 50.0559 236.014 50.3489 236.259 50.5529 C 236.504 50.7579 236.847 50.8599 237.288 50.8599 C 237.732 50.8599 238.061 50.7689 238.276 50.5879 C 238.491 50.4079 238.598 50.1949 238.598 49.9519 C 238.598 49.7329 238.503 49.5619 238.313 49.4359 C 238.181 49.3499 237.852 49.2409 237.325 49.1089 C 236.616 48.9299 236.125 48.7749 235.851 48.6439 C 235.577 48.5129 235.369 48.3329 235.228 48.1019 C 235.086 47.8709 235.016 47.6149 235.016 47.3359 C 235.016 47.0819 235.074 46.8469 235.19 46.6299 C 235.307 46.4129 235.465 46.2329 235.665 46.0899 C 235.816 45.9789 236.021 45.8849 236.28 45.8079 C 236.54 45.7309 236.818 45.6929 237.116 45.6929 C 237.563 45.6929 237.956 45.7569 238.295 45.8859 C 238.633 46.0149 238.883 46.1889 239.044 46.4099 C 239.205 46.6299 239.316 46.9239 239.377 47.2929 L 238.432 47.4219 C 238.389 47.1289 238.264 46.8989 238.058 46.7349 C 237.852 46.5699 237.561 46.4879 237.185 46.4879 C 236.741 46.4879 236.425 46.5609 236.235 46.7079 C 236.045 46.8549 235.95 47.0259 235.95 47.2229 C 235.95 47.3489 235.99 47.4619 236.068 47.5619 C 236.147 47.6659 236.271 47.7519 236.439 47.8199 C 236.536 47.8549 236.82 47.9379 237.293 48.0669 C 237.977 48.2489 238.454 48.3989 238.724 48.5149 C 238.995 48.6319 239.207 48.8009 239.361 49.0229 C 239.515 49.2449 239.592 49.5199 239.592 49.8499 C 239.592 50.1719 239.498 50.4759 239.31 50.7599 C 239.122 51.0449 238.851 51.2649 238.496 51.4209 C 238.142 51.5769 237.741 51.6549 237.293 51.6549 C 236.552 51.6549 235.987 51.5009 235.598 51.1929 C 235.21 50.8849 234.962 50.4279 234.854 49.8229 Z " style="fill:#fff;fill-rule:nonzero;" stroke-width="1"/><path d="M 65.37 62.8859 L 63.624 57.1809 L 64.623 57.1809 L 65.531 60.4739 L 65.869 61.6979 C 65.883 61.6379 65.982 61.2459 66.165 60.5219 L 67.072 57.1809 L 68.066 57.1809 L 68.92 60.4899 L 69.205 61.5799 L 69.532 60.4789 L 70.51 57.1809 L 71.45 57.1809 L 69.666 62.8859 L 68.662 62.8859 L 67.754 59.4689 L 67.534 58.4969 L 66.379 62.8859 L 65.37 62.8859 Z " style="fill:#fff;fill-rule:nonzero;" stroke-width="1"/><path d="M 72.261 62.8859 L 72.261 55.0109 L 73.227 55.0109 L 73.227 57.8369 C 73.679 57.3139 74.248 57.0519 74.935 57.0519 C 75.358 57.0519 75.725 57.1359 76.037 57.3019 C 76.348 57.4689 76.571 57.6989 76.705 57.9919 C 76.84 58.2859 76.907 58.7119 76.907 59.2709 L 76.907 62.8859 L 75.94 62.8859 L 75.94 59.2709 C 75.94 58.7869 75.835 58.4359 75.626 58.2149 C 75.416 57.9949 75.12 57.8849 74.737 57.8849 C 74.45 57.8849 74.181 57.9589 73.928 58.1079 C 73.676 58.2569 73.496 58.4579 73.389 58.7119 C 73.281 58.9659 73.227 59.3169 73.227 59.7649 L 73.227 62.8859 L 72.261 62.8859 Z " style="fill:#fff;fill-rule:nonzero;" stroke-width="1"/><path d="M 82.283 61.0489 L 83.282 61.1719 C 83.125 61.7559 82.833 62.2089 82.407 62.5309 C 81.981 62.8529 81.436 63.0139 80.774 63.0139 C 79.94 63.0139 79.278 62.7569 78.789 62.2439 C 78.3 61.7299 78.056 61.0089 78.056 60.0819 C 78.056 59.1219 78.303 58.3769 78.797 57.8469 C 79.291 57.3169 79.932 57.0519 80.72 57.0519 C 81.483 57.0519 82.106 57.3119 82.589 57.8309 C 83.073 58.3509 83.314 59.0809 83.314 60.0229 C 83.314 60.0799 83.313 60.1659 83.309 60.2809 L 79.055 60.2809 C 79.091 60.9069 79.268 61.3869 79.587 61.7199 C 79.906 62.0529 80.303 62.2189 80.779 62.2189 C 81.134 62.2189 81.436 62.1259 81.687 61.9399 C 81.938 61.7539 82.136 61.4569 82.283 61.0489 Z M 79.109 59.4859 L 82.294 59.4859 C 82.251 59.0059 82.129 58.6459 81.929 58.4059 C 81.621 58.0339 81.221 57.8469 80.731 57.8469 C 80.287 57.8469 79.914 57.9959 79.611 58.2929 C 79.308 58.5899 79.141 58.9879 79.109 59.4859 Z " style="fill:#fff;fill-rule:nonzero;" stroke-width="1"/><path d="M 84.496 62.8859 L 84.496 57.1809 L 85.366 57.1809 L 85.366 57.9919 C 85.785 57.3659 86.39 57.0519 87.182 57.0519 C 87.525 57.0519 87.841 57.1139 88.13 57.2379 C 88.418 57.3609 88.634 57.5229 88.777 57.7239 C 88.92 57.9239 89.02 58.1629 89.078 58.4379 C 89.113 58.6169 89.131 58.9309 89.131 59.3779 L 89.131 62.8859 L 88.165 62.8859 L 88.165 59.4159 C 88.165 59.0219 88.127 58.7269 88.052 58.5319 C 87.977 58.3369 87.843 58.1809 87.652 58.0649 C 87.46 57.9489 87.235 57.8899 86.977 57.8899 C 86.566 57.8899 86.21 58.0209 85.911 58.2819 C 85.612 58.5439 85.463 59.0399 85.463 59.7699 L 85.463 62.8859 L 84.496 62.8859 Z " style="fill:#fff;fill-rule:nonzero;" stroke-width="1"/><path d="M 95.781 62.0209 L 95.92 62.8749 C 95.648 62.9319 95.405 62.9609 95.19 62.9609 C 94.839 62.9609 94.567 62.9049 94.373 62.7939 C 94.18 62.6829 94.044 62.5369 93.965 62.3559 C 93.887 62.1759 93.847 61.7949 93.847 61.2149 L 93.847 57.9329 L 93.138 57.9329 L 93.138 57.1809 L 93.847 57.1809 L 93.847 55.7689 L 94.809 55.1889 L 94.809 57.1809 L 95.781 57.1809 L 95.781 57.9329 L 94.809 57.9329 L 94.809 61.2689 C 94.809 61.5449 94.826 61.7219 94.86 61.8009 C 94.894 61.8789 94.949 61.9419 95.026 61.9889 C 95.103 62.0349 95.213 62.0579 95.356 62.0579 C 95.464 62.0579 95.605 62.0459 95.781 62.0209 Z " style="fill:#fff;fill-rule:nonzero;" stroke-width="1"/><path d="M 96.366 60.0329 C 96.366 58.9769 96.66 58.1949 97.247 57.6859 C 97.738 57.2639 98.336 57.0519 99.041 57.0519 C 99.825 57.0519 100.466 57.3089 100.964 57.8229 C 101.462 58.3369 101.71 59.0469 101.71 59.9529 C 101.71 60.6869 101.6 61.2639 101.38 61.6849 C 101.16 62.1059 100.839 62.4329 100.419 62.6649 C 99.998 62.8979 99.539 63.0139 99.041 63.0139 C 98.242 63.0139 97.597 62.7579 97.105 62.2459 C 96.612 61.7339 96.366 60.9969 96.366 60.0329 Z M 97.36 60.0329 C 97.36 60.7639 97.519 61.3109 97.838 61.6739 C 98.157 62.0379 98.558 62.2189 99.041 62.2189 C 99.521 62.2189 99.92 62.0369 100.239 61.6719 C 100.557 61.3059 100.717 60.7499 100.717 60.0009 C 100.717 59.2959 100.557 58.7609 100.236 58.3979 C 99.916 58.0349 99.517 57.8529 99.041 57.8529 C 98.558 57.8529 98.157 58.0339 97.838 58.3949 C 97.519 58.7569 97.36 59.3029 97.36 60.0329 Z " style="fill:#fff;fill-rule:nonzero;" stroke-width="1"/><path d="M 106.582 62.8859 L 106.582 62.0479 C 106.138 62.6919 105.535 63.0139 104.772 63.0139 C 104.435 63.0139 104.121 62.9499 103.829 62.8209 C 103.537 62.6919 103.321 62.5299 103.179 62.3349 C 103.038 62.1399 102.939 61.9009 102.881 61.6179 C 102.842 61.4279 102.822 61.1269 102.822 60.7159 L 102.822 57.1809 L 103.789 57.1809 L 103.789 60.3449 C 103.789 60.8499 103.809 61.1899 103.848 61.3649 C 103.909 61.6199 104.038 61.8189 104.235 61.9639 C 104.432 62.1089 104.675 62.1819 104.965 62.1819 C 105.255 62.1819 105.527 62.1079 105.782 61.9589 C 106.036 61.8099 106.216 61.6079 106.321 61.3519 C 106.427 61.0959 106.48 60.7249 106.48 60.2379 L 106.48 57.1809 L 107.447 57.1809 L 107.447 62.8859 L 106.582 62.8859 Z " style="fill:#fff;fill-rule:nonzero;" stroke-width="1"/><path d="M 112.684 60.7959 L 113.634 60.9199 C 113.53 61.5749 113.265 62.0879 112.837 62.4589 C 112.409 62.8289 111.883 63.0139 111.26 63.0139 C 110.48 63.0139 109.852 62.7589 109.378 62.2489 C 108.903 61.7389 108.666 61.0069 108.666 60.0549 C 108.666 59.4389 108.768 58.8999 108.972 58.4379 C 109.176 57.9759 109.487 57.6299 109.904 57.3989 C 110.321 57.1679 110.775 57.0519 111.266 57.0519 C 111.885 57.0519 112.392 57.2089 112.786 57.5219 C 113.179 57.8359 113.432 58.2809 113.543 58.8569 L 112.603 59.0019 C 112.513 58.6189 112.355 58.3309 112.128 58.1369 C 111.9 57.9439 111.625 57.8469 111.303 57.8469 C 110.816 57.8469 110.421 58.0219 110.116 58.3709 C 109.812 58.7199 109.66 59.2729 109.66 60.0279 C 109.66 60.7939 109.806 61.3509 110.1 61.6979 C 110.394 62.0459 110.777 62.2189 111.249 62.2189 C 111.629 62.2189 111.946 62.1029 112.2 61.8699 C 112.454 61.6379 112.616 61.2799 112.684 60.7959 Z " style="fill:#fff;fill-rule:nonzero;" stroke-width="1"/><path d="M 114.461 62.8859 L 114.461 55.0109 L 115.428 55.0109 L 115.428 57.8369 C 115.879 57.3139 116.449 57.0519 117.136 57.0519 C 117.559 57.0519 117.926 57.1359 118.237 57.3019 C 118.549 57.4689 118.772 57.6989 118.906 57.9919 C 119.04 58.2859 119.107 58.7119 119.107 59.2709 L 119.107 62.8859 L 118.141 62.8859 L 118.141 59.2709 C 118.141 58.7869 118.036 58.4359 117.826 58.2149 C 117.617 57.9949 117.321 57.8849 116.937 57.8849 C 116.651 57.8849 116.382 57.9589 116.129 58.1079 C 115.877 58.2569 115.697 58.4579 115.589 58.7119 C 115.482 58.9659 115.428 59.3169 115.428 59.7649 L 115.428 62.8859 L 114.461 62.8859 Z " style="fill:#fff;fill-rule:nonzero;" stroke-width="1"/><path d="M 120.584 56.1229 L 120.584 55.0109 L 121.551 55.0109 L 121.551 56.1229 L 120.584 56.1229 Z M 120.584 62.8859 L 120.584 57.1809 L 121.551 57.1809 L 121.551 62.8859 L 120.584 62.8859 Z " style="fill:#fff;fill-rule:nonzero;" stroke-width="1"/><path d="M 123.023 62.8859 L 123.023 57.1809 L 123.893 57.1809 L 123.893 57.9919 C 124.312 57.3659 124.917 57.0519 125.708 57.0519 C 126.052 57.0519 126.368 57.1139 126.656 57.2379 C 126.945 57.3609 127.16 57.5229 127.304 57.7239 C 127.447 57.9239 127.547 58.1629 127.604 58.4379 C 127.64 58.6169 127.658 58.9309 127.658 59.3779 L 127.658 62.8859 L 126.691 62.8859 L 126.691 59.4159 C 126.691 59.0219 126.654 58.7269 126.579 58.5319 C 126.503 58.3369 126.37 58.1809 126.178 58.0649 C 125.987 57.9489 125.762 57.8899 125.504 57.8899 C 125.093 57.8899 124.737 58.0209 124.438 58.2819 C 124.139 58.5439 123.99 59.0399 123.99 59.7699 L 123.99 62.8859 L 123.023 62.8859 Z " style="fill:#fff;fill-rule:nonzero;" stroke-width="1"/><path d="M 128.963 63.3579 L 129.903 63.4979 C 129.943 63.7879 130.052 63.9989 130.231 64.1319 C 130.471 64.3109 130.798 64.3999 131.214 64.3999 C 131.661 64.3999 132.007 64.3109 132.25 64.1319 C 132.494 63.9529 132.659 63.7019 132.745 63.3799 C 132.795 63.1829 132.818 62.7689 132.814 62.1389 C 132.392 62.6369 131.866 62.8859 131.235 62.8859 C 130.451 62.8859 129.844 62.6029 129.415 62.0369 C 128.985 61.4709 128.77 60.7929 128.77 60.0009 C 128.77 59.4569 128.868 58.9549 129.065 58.4949 C 129.262 58.0349 129.548 57.6789 129.922 57.4279 C 130.296 57.1779 130.736 57.0519 131.241 57.0519 C 131.914 57.0519 132.469 57.3249 132.906 57.8689 L 132.906 57.1809 L 133.797 57.1809 L 133.797 62.1119 C 133.797 62.9999 133.707 63.6289 133.526 63.9999 C 133.345 64.3709 133.059 64.6629 132.667 64.8779 C 132.275 65.0929 131.792 65.1999 131.219 65.1999 C 130.539 65.1999 129.989 65.0469 129.57 64.7409 C 129.151 64.4349 128.949 63.9739 128.963 63.3579 Z M 129.764 59.9309 C 129.764 60.6799 129.912 61.2259 130.209 61.5699 C 130.507 61.9129 130.879 62.0849 131.327 62.0849 C 131.771 62.0849 132.143 61.9139 132.444 61.5719 C 132.745 61.2299 132.895 60.6939 132.895 59.9639 C 132.895 59.2649 132.74 58.7389 132.43 58.3849 C 132.121 58.0299 131.747 57.8529 131.31 57.8529 C 130.881 57.8529 130.516 58.0269 130.215 58.3759 C 129.914 58.7259 129.764 59.2439 129.764 59.9309 Z " style="fill:#fff;fill-rule:nonzero;" stroke-width="1"/><path d="M 142.037 62.1819 C 141.678 62.4859 141.334 62.7009 141.003 62.8259 C 140.671 62.9519 140.316 63.0139 139.936 63.0139 C 139.31 63.0139 138.828 62.8609 138.492 62.5549 C 138.155 62.2489 137.987 61.8579 137.987 61.3819 C 137.987 61.1019 138.05 60.8469 138.177 60.6159 C 138.305 60.3849 138.471 60.1999 138.677 60.0599 C 138.883 59.9209 139.115 59.8149 139.373 59.7429 C 139.562 59.6929 139.849 59.6449 140.232 59.5979 C 141.012 59.5049 141.587 59.3939 141.956 59.2649 C 141.96 59.1329 141.961 59.0489 141.961 59.0129 C 141.961 58.6189 141.87 58.3419 141.687 58.1799 C 141.44 57.9619 141.073 57.8529 140.586 57.8529 C 140.132 57.8529 139.796 57.9319 139.579 58.0919 C 139.363 58.2509 139.202 58.5329 139.099 58.9379 L 138.153 58.8089 C 138.239 58.4039 138.381 58.0769 138.578 57.8289 C 138.775 57.5799 139.059 57.3879 139.432 57.2539 C 139.804 57.1199 140.235 57.0519 140.726 57.0519 C 141.213 57.0519 141.609 57.1099 141.913 57.2239 C 142.217 57.3389 142.441 57.4829 142.584 57.6569 C 142.728 57.8299 142.828 58.0499 142.885 58.3149 C 142.917 58.4789 142.934 58.7769 142.934 59.2059 L 142.934 60.4949 C 142.934 61.3939 142.954 61.9629 142.995 62.2009 C 143.036 62.4389 143.118 62.6669 143.24 62.8859 L 142.23 62.8859 C 142.13 62.6849 142.065 62.4499 142.037 62.1819 Z M 141.956 60.0229 C 141.605 60.1659 141.079 60.2879 140.377 60.3879 C 139.979 60.4449 139.698 60.5099 139.534 60.5809 C 139.369 60.6529 139.242 60.7579 139.152 60.8959 C 139.063 61.0329 139.018 61.1859 139.018 61.3549 C 139.018 61.6129 139.116 61.8269 139.311 61.9989 C 139.506 62.1709 139.791 62.2569 140.167 62.2569 C 140.54 62.2569 140.871 62.1759 141.161 62.0129 C 141.451 61.8499 141.664 61.6269 141.8 61.3439 C 141.904 61.1259 141.956 60.8029 141.956 60.3769 L 141.956 60.0229 Z " style="fill:#fff;fill-rule:nonzero;" stroke-width="1"/><path d="M 151.21 60.7959 L 152.161 60.9199 C 152.057 61.5749 151.791 62.0879 151.363 62.4589 C 150.936 62.8289 150.41 63.0139 149.787 63.0139 C 149.006 63.0139 148.379 62.7589 147.904 62.2489 C 147.43 61.7389 147.193 61.0069 147.193 60.0549 C 147.193 59.4389 147.295 58.8999 147.499 58.4379 C 147.703 57.9759 148.014 57.6299 148.431 57.3989 C 148.848 57.1679 149.302 57.0519 149.792 57.0519 C 150.412 57.0519 150.919 57.2089 151.312 57.5219 C 151.706 57.8359 151.959 58.2809 152.07 58.8569 L 151.13 59.0019 C 151.04 58.6189 150.882 58.3309 150.654 58.1369 C 150.427 57.9439 150.152 57.8469 149.83 57.8469 C 149.343 57.8469 148.947 58.0219 148.643 58.3709 C 148.339 58.7199 148.186 59.2729 148.186 60.0279 C 148.186 60.7939 148.333 61.3509 148.627 61.6979 C 148.921 62.0459 149.304 62.2189 149.776 62.2189 C 150.156 62.2189 150.473 62.1029 150.727 61.8699 C 150.981 61.6379 151.142 61.2799 151.21 60.7959 Z " style="fill:#fff;fill-rule:nonzero;" stroke-width="1"/><path d="M 152.988 62.8859 L 152.988 55.0109 L 153.955 55.0109 L 153.955 57.8369 C 154.406 57.3139 154.976 57.0519 155.663 57.0519 C 156.086 57.0519 156.453 57.1359 156.764 57.3019 C 157.076 57.4689 157.299 57.6989 157.433 57.9919 C 157.567 58.2859 157.634 58.7119 157.634 59.2709 L 157.634 62.8859 L 156.667 62.8859 L 156.667 59.2709 C 156.667 58.7869 156.563 58.4359 156.353 58.2149 C 156.144 57.9949 155.847 57.8849 155.464 57.8849 C 155.178 57.8849 154.908 57.9589 154.656 58.1079 C 154.404 58.2569 154.224 58.4579 154.116 58.7119 C 154.009 58.9659 153.955 59.3169 153.955 59.7649 L 153.955 62.8859 L 152.988 62.8859 Z " style="fill:#fff;fill-rule:nonzero;" stroke-width="1"/><path d="M 163.011 61.0489 L 164.01 61.1719 C 163.852 61.7559 163.56 62.2089 163.134 62.5309 C 162.708 62.8529 162.164 63.0139 161.501 63.0139 C 160.667 63.0139 160.006 62.7569 159.517 62.2439 C 159.028 61.7299 158.784 61.0089 158.784 60.0819 C 158.784 59.1219 159.031 58.3769 159.525 57.8469 C 160.019 57.3169 160.66 57.0519 161.448 57.0519 C 162.21 57.0519 162.833 57.3119 163.317 57.8309 C 163.8 58.3509 164.042 59.0809 164.042 60.0229 C 164.042 60.0799 164.04 60.1659 164.037 60.2809 L 159.783 60.2809 C 159.818 60.9069 159.996 61.3869 160.314 61.7199 C 160.633 62.0529 161.031 62.2189 161.507 62.2189 C 161.861 62.2189 162.164 62.1259 162.415 61.9399 C 162.665 61.7539 162.864 61.4569 163.011 61.0489 Z M 159.836 59.4859 L 163.021 59.4859 C 162.978 59.0059 162.857 58.6459 162.656 58.4059 C 162.348 58.0339 161.949 57.8469 161.458 57.8469 C 161.014 57.8469 160.641 57.9959 160.339 58.2929 C 160.036 58.5899 159.869 58.9879 159.836 59.4859 Z " style="fill:#fff;fill-rule:nonzero;" stroke-width="1"/><path d="M 168.946 60.7959 L 169.896 60.9199 C 169.793 61.5749 169.527 62.0879 169.099 62.4589 C 168.671 62.8289 168.145 63.0139 167.522 63.0139 C 166.742 63.0139 166.114 62.7589 165.64 62.2489 C 165.165 61.7389 164.928 61.0069 164.928 60.0549 C 164.928 59.4389 165.03 58.8999 165.234 58.4379 C 165.438 57.9759 165.749 57.6299 166.166 57.3989 C 166.583 57.1679 167.037 57.0519 167.528 57.0519 C 168.147 57.0519 168.654 57.2089 169.048 57.5219 C 169.442 57.8359 169.694 58.2809 169.805 58.8569 L 168.865 59.0019 C 168.776 58.6189 168.617 58.3309 168.39 58.1369 C 168.162 57.9439 167.888 57.8469 167.565 57.8469 C 167.078 57.8469 166.683 58.0219 166.378 58.3709 C 166.074 58.7199 165.922 59.2729 165.922 60.0279 C 165.922 60.7939 166.069 61.3509 166.362 61.6979 C 166.656 62.0459 167.039 62.2189 167.512 62.2189 C 167.891 62.2189 168.208 62.1029 168.462 61.8699 C 168.717 61.6379 168.878 61.2799 168.946 60.7959 Z " style="fill:#fff;fill-rule:nonzero;" stroke-width="1"/><path d="M 170.729 62.8859 L 170.729 55.0109 L 171.696 55.0109 L 171.696 59.5019 L 173.984 57.1809 L 175.235 57.1809 L 173.055 59.2979 L 175.456 62.8859 L 174.263 62.8859 L 172.378 59.9689 L 171.696 60.6239 L 171.696 62.8859 L 170.729 62.8859 Z " style="fill:#fff;fill-rule:nonzero;" stroke-width="1"/><path d="M 176.224 65.0719 L 176.224 57.1809 L 177.104 57.1809 L 177.104 57.9229 C 177.312 57.6329 177.547 57.4149 177.808 57.2699 C 178.069 57.1249 178.386 57.0519 178.759 57.0519 C 179.246 57.0519 179.675 57.1779 180.048 57.4279 C 180.42 57.6789 180.701 58.0329 180.891 58.4889 C 181.081 58.9459 181.176 59.4459 181.176 59.9899 C 181.176 60.5739 181.071 61.0999 180.862 61.5669 C 180.652 62.0339 180.348 62.3919 179.948 62.6409 C 179.549 62.8899 179.129 63.0139 178.689 63.0139 C 178.367 63.0139 178.078 62.9459 177.821 62.8099 C 177.565 62.6739 177.355 62.5019 177.19 62.2949 L 177.19 65.0719 L 176.224 65.0719 Z M 177.099 60.0659 C 177.099 60.7999 177.248 61.3419 177.545 61.6929 C 177.842 62.0439 178.202 62.2189 178.624 62.2189 C 179.054 62.2189 179.422 62.0379 179.728 61.6739 C 180.034 61.3109 180.187 60.7479 180.187 59.9849 C 180.187 59.2579 180.038 58.7139 179.739 58.3519 C 179.44 57.9909 179.083 57.8099 178.667 57.8099 C 178.256 57.8099 177.891 58.0019 177.574 58.3869 C 177.258 58.7719 177.099 59.3319 177.099 60.0659 Z " style="fill:#fff;fill-rule:nonzero;" stroke-width="1"/><path d="M 181.981 60.0329 C 181.981 58.9769 182.275 58.1949 182.862 57.6859 C 183.353 57.2639 183.951 57.0519 184.656 57.0519 C 185.44 57.0519 186.081 57.3089 186.579 57.8229 C 187.077 58.3369 187.326 59.0469 187.326 59.9529 C 187.326 60.6869 187.216 61.2639 186.995 61.6849 C 186.775 62.1059 186.455 62.4329 186.034 62.6649 C 185.613 62.8979 185.154 63.0139 184.656 63.0139 C 183.858 63.0139 183.212 62.7579 182.72 62.2459 C 182.228 61.7339 181.981 60.9969 181.981 60.0329 Z M 182.975 60.0329 C 182.975 60.7639 183.134 61.3109 183.453 61.6739 C 183.772 62.0379 184.173 62.2189 184.656 62.2189 C 185.136 62.2189 185.535 62.0369 185.854 61.6719 C 186.173 61.3059 186.332 60.7499 186.332 60.0009 C 186.332 59.2959 186.172 58.7609 185.851 58.3979 C 185.531 58.0349 185.132 57.8529 184.656 57.8529 C 184.173 57.8529 183.772 58.0339 183.453 58.3949 C 183.134 58.7569 182.975 59.3029 182.975 60.0329 Z " style="fill:#fff;fill-rule:nonzero;" stroke-width="1"/><path d="M 188.464 56.1229 L 188.464 55.0109 L 189.431 55.0109 L 189.431 56.1229 L 188.464 56.1229 Z M 188.464 62.8859 L 188.464 57.1809 L 189.431 57.1809 L 189.431 62.8859 L 188.464 62.8859 Z " style="fill:#fff;fill-rule:nonzero;" stroke-width="1"/><path d="M 190.903 62.8859 L 190.903 57.1809 L 191.773 57.1809 L 191.773 57.9919 C 192.192 57.3659 192.797 57.0519 193.588 57.0519 C 193.932 57.0519 194.248 57.1139 194.536 57.2379 C 194.825 57.3609 195.04 57.5229 195.184 57.7239 C 195.327 57.9239 195.427 58.1629 195.484 58.4379 C 195.52 58.6169 195.538 58.9309 195.538 59.3779 L 195.538 62.8859 L 194.571 62.8859 L 194.571 59.4159 C 194.571 59.0219 194.534 58.7269 194.458 58.5319 C 194.383 58.3369 194.25 58.1809 194.058 58.0649 C 193.867 57.9489 193.642 57.8899 193.384 57.8899 C 192.972 57.8899 192.617 58.0209 192.318 58.2819 C 192.019 58.5439 191.87 59.0399 191.87 59.7699 L 191.87 62.8859 L 190.903 62.8859 Z " style="fill:#fff;fill-rule:nonzero;" stroke-width="1"/><path d="M 199.131 62.0209 L 199.271 62.8749 C 198.999 62.9319 198.755 62.9609 198.54 62.9609 C 198.19 62.9609 197.917 62.9049 197.724 62.7939 C 197.531 62.6829 197.395 62.5369 197.316 62.3559 C 197.237 62.1759 197.198 61.7949 197.198 61.2149 L 197.198 57.9329 L 196.489 57.9329 L 196.489 57.1809 L 197.198 57.1809 L 197.198 55.7689 L 198.159 55.1889 L 198.159 57.1809 L 199.131 57.1809 L 199.131 57.9329 L 198.159 57.9329 L 198.159 61.2689 C 198.159 61.5449 198.176 61.7219 198.21 61.8009 C 198.244 61.8789 198.3 61.9419 198.377 61.9889 C 198.454 62.0349 198.564 62.0579 198.707 62.0579 C 198.814 62.0579 198.956 62.0459 199.131 62.0209 Z " style="fill:#fff;fill-rule:nonzero;" stroke-width="1"/><rect x="365.141" y="100.554" width="1.101" height="1.101" style="fill:#fff;fill-rule:nonzero;" stroke-width="1" transform="matrix(1,0,0,1,-164.79,-38.7701)"/></g></g></svg>