<svg version="1.1" width="16.312000274658203" height="62.875" viewBox="0.18800002336502075 0.09399998188018799 16.312000274658203 62.875" xmlns="http://www.w3.org/2000/svg" xmlns:xlink="http://www.w3.org/1999/xlink">
  <!-- Exported by Scratch - http://scratch.mit.edu/ -->
  <g id="ID0.6296565202064812">
    <g id="layer1">
      <path id="path3226" fill="#666666" stroke="none" d="M 0.688 0.594 L 0.688 4.313 C 1.625 4.359 2.422 4.531 3.125 4.813 C 3.828 5.094 4.418 5.527 4.875 6.125 C 5.332 6.723 5.672 7.488 5.906 8.438 C 6.141 9.387 6.25 10.555 6.25 11.938 L 6.25 22.25 C 6.25 27.289 8 30.367 11.469 31.469 L 11.469 31.594 C 8 32.695 6.25 35.859 6.25 41.063 L 6.25 50.969 C 6.25 52.422 6.16 53.641 5.938 54.625 C 5.715 55.609 5.363 56.402 4.906 57 C 4.449 57.598 3.891 58.031 3.188 58.313 C 2.484 58.594 1.648 58.758 0.688 58.781 L 0.688 62.469 C 3.969 62.375 6.41 61.469 8.063 59.781 C 9.715 58.094 10.562 55.461 10.563 51.875 L 10.563 41.406 C 10.562 36.273 12.367 33.492 16 33.094 L 16 29.938 C 12.367 29.586 10.562 26.922 10.563 21.906 L 10.563 11.25 C 10.562 7.617 9.715 4.938 8.063 3.25 C 6.41 1.563 3.969 0.688 0.688 0.594 Z " stroke-width="1"/>
    </g>
  </g>
</svg>