<svg version="1.1" width="23.39299964904785" height="23.39299964904785" viewBox="-0.20800000429153442 -0.07199999690055847 23.39299964904785 23.39299964904785" xmlns="http://www.w3.org/2000/svg" xmlns:xlink="http://www.w3.org/1999/xlink">
  <!-- Exported by Scratch - http://scratch.mit.edu/ -->
  <path id="ID0.769709400832653" fill="#fff" d="M 22.685 11.625 C 22.685 5.445 17.668 0.428 11.488 0.428 C 5.309 0.428 0.292 5.445 0.292 11.625 C 0.292 17.804 5.309 22.821 11.488 22.821 C 17.668 22.821 22.685 17.804 22.685 11.625 Z " stroke-width="1"/>
  <path id="ID0.6506172707304358" fill="#6FD57E" d="M 11.488 4.259 C 13.52 4.259 15.362 5.084 16.695 6.418 C 18.029 7.751 18.854 9.593 18.854 11.625 C 18.854 13.657 18.029 15.499 16.695 16.832 C 15.362 18.166 13.52 18.991 11.488 18.991 C 9.456 18.991 7.614 18.166 6.281 16.832 C 4.947 15.499 4.122 13.657 4.122 11.625 C 4.122 9.593 4.947 7.751 6.281 6.418 C 7.614 5.084 9.456 4.259 11.488 4.259 Z " stroke-width="1"/>
  <path id="ID0.5992119573056698" fill="none" stroke="#fff" stroke-width="1" d="M 11.488 12.843 L 11.488 7.241 L 11.488 12.843 Z "/>
  <path id="ID0.2809293889440596" fill="none" stroke="#fff" stroke-width="1" d="M 7.396 12.343 L 11.488 12.343 "/>
</svg>