<svg version="1.1" width="7.75" height="52.03099822998047" viewBox="-0.4060000032186508 0.09399998188018799 7.75 52.03099822998047" xmlns="http://www.w3.org/2000/svg" xmlns:xlink="http://www.w3.org/1999/xlink">
  <!-- Exported by Scratch - http://scratch.mit.edu/ -->
  <g id="ID0.7457289979793131">
    <g id="layer1">
      <path id="path3010" fill="#666666" stroke="none" d="M 0.938 0.594 L 1.438 36.844 L 5.344 36.844 L 5.844 0.594 L 0.938 0.594 Z M 3.469 44.906 C 2.531 44.906 1.75 45.231 1.094 45.875 C 0.437 46.52 0.094 47.32 0.094 48.281 C 0.094 49.219 0.437 50.012 1.094 50.656 C 1.75 51.301 2.531 51.625 3.469 51.625 C 3.914 51.625 4.352 51.539 4.75 51.375 C 5.148 51.211 5.496 50.992 5.813 50.688 C 6.129 50.383 6.375 50.035 6.563 49.625 C 6.75 49.215 6.844 48.75 6.844 48.281 C 6.844 47.789 6.75 47.348 6.563 46.938 C 6.375 46.527 6.129 46.18 5.813 45.875 C 5.496 45.57 5.148 45.32 4.75 45.156 C 4.352 44.992 3.914 44.906 3.469 44.906 Z " stroke-width="1"/>
    </g>
  </g>
</svg>