<svg version="1.1" width="7.781000137329102" height="7.812999725341797" viewBox="0.25 0.406000018119812 7.781000137329102 7.812999725341797" xmlns="http://www.w3.org/2000/svg" xmlns:xlink="http://www.w3.org/1999/xlink">
  <!-- Exported by Scratch - http://scratch.mit.edu/ -->
  <g id="ID0.9379358738660812">
    <g id="layer1">
      <path id="path3382" fill="#666666" stroke="none" d="M 4.125 0.906 C 3.164 0.906 2.363 1.25 1.719 1.906 C 1.074 2.563 0.75 3.383 0.75 4.344 C 0.75 5.281 1.094 6.063 1.75 6.719 C 2.406 7.375 3.187 7.719 4.125 7.719 C 4.594 7.719 5.027 7.613 5.438 7.438 C 5.848 7.262 6.195 7.023 6.5 6.719 C 6.805 6.414 7.062 6.066 7.25 5.656 C 7.437 5.246 7.531 4.812 7.531 4.344 C 7.531 3.852 7.437 3.391 7.25 2.969 C 7.062 2.547 6.805 2.168 6.5 1.875 C 6.195 1.582 5.848 1.363 5.438 1.188 C 5.027 1.012 4.594 0.906 4.125 0.906 Z " stroke-width="1"/>
    </g>
  </g>
</svg>