<svg version="1.1" width="23.39299964904785" height="23.39299964904785" viewBox="-0.16699999570846558 -0.5189999993890524 23.39299964904785 23.39299964904785" xmlns="http://www.w3.org/2000/svg" xmlns:xlink="http://www.w3.org/1999/xlink">
  <!-- Exported by Scratch - http://scratch.mit.edu/ -->
  <g id="Random Button">
    <path id="ID0.5602836636826396" fill="#fff" d="M 22.726 11.177 C 22.726 4.998 17.709 -0.019 11.53 -0.019 C 5.35 -0.019 0.333 4.998 0.333 11.177 C 0.333 17.357 5.35 22.374 11.53 22.374 C 17.709 22.374 22.726 17.357 22.726 11.177 Z " stroke-width="1"/>
    <g id="Question mark">
      <path id="ID0.27370406733825803" fill="#6FD57E" d="M 11.53 3.811 C 13.562 3.811 15.404 4.636 16.737 5.97 C 18.071 7.303 18.896 9.145 18.896 11.177 C 18.896 13.209 18.071 15.051 16.737 16.384 C 15.404 17.718 13.562 18.543 11.53 18.543 C 9.498 18.543 7.656 17.718 6.323 16.384 C 4.989 15.051 4.164 13.209 4.164 11.177 C 4.164 9.145 4.989 7.303 6.323 5.97 C 7.656 4.636 9.498 3.811 11.53 3.811 Z " stroke-width="1"/>
      <path id="ID0.977611587382853" fill="#fff" d="M 12.227 13.301 L 10.733 13.301 C 10.729 13.086 10.727 12.955 10.727 12.908 C 10.727 12.424 10.807 12.026 10.967 11.713 C 11.128 11.401 11.448 11.049 11.928 10.658 C 12.409 10.268 12.696 10.012 12.79 9.891 C 12.934 9.7 13.006 9.489 13.006 9.258 C 13.006 8.938 12.879 8.663 12.623 8.435 C 12.367 8.206 12.022 8.092 11.589 8.092 C 11.171 8.092 10.821 8.211 10.54 8.45 C 10.258 8.688 10.065 9.051 9.96 9.539 L 8.448 9.352 C 8.491 8.653 8.789 8.059 9.341 7.571 C 9.894 7.082 10.62 6.838 11.518 6.838 C 12.464 6.838 13.215 7.085 13.774 7.579 C 14.333 8.074 14.612 8.649 14.612 9.305 C 14.612 9.668 14.509 10.012 14.304 10.336 C 14.099 10.66 13.661 11.102 12.989 11.66 C 12.641 11.95 12.425 12.182 12.341 12.358 C 12.257 12.533 12.219 12.848 12.227 13.301 Z M 10.733 15.516 L 10.733 13.869 L 12.38 13.869 L 12.38 15.516 L 10.733 15.516 Z " stroke-width="1"/>
    </g>
  </g>
</svg>