<svg version="1.1" width="481" height="46" viewBox="-0.5 -0.5 481 46" xmlns="http://www.w3.org/2000/svg" xmlns:xlink="http://www.w3.org/1999/xlink">
  <!-- Exported by Scratch - http://scratch.mit.edu/ -->
  <g id="Layer1">
    <g id="ID0.9457987127825618">
      <path id="ID0.11037569819018245" fill="rgb(52,221,120)" d="M 0 0 L 480 0 L 480 45 L 0 45 L 0 0 Z " stroke-width="0.9692539012044264"/>
    </g>
    <g id="ID0.0293149808421731">
      <path id="ID0.14516203850507736" fill="white" d="M 188.895 32.537 L 188.895 23.441 L 180.619 11.063 L 184.076 11.063 L 188.309 17.537 C 189.091 18.748 189.818 19.959 190.492 21.17 C 191.137 20.047 191.918 18.782 192.836 17.376 L 196.996 11.063 L 200.306 11.063 L 191.737 23.441 L 191.737 32.537 L 188.895 32.537 Z " stroke-width="1"/>
      <path id="ID0.3258255058899522" fill="white" d="M 198.783 24.759 C 198.783 21.878 199.584 19.744 201.185 18.358 C 202.523 17.205 204.154 16.629 206.078 16.629 C 208.217 16.629 209.965 17.33 211.322 18.731 C 212.679 20.132 213.358 22.068 213.358 24.539 C 213.358 26.541 213.058 28.116 212.457 29.263 C 211.857 30.411 210.983 31.302 209.835 31.937 C 208.688 32.571 207.435 32.889 206.078 32.889 C 203.9 32.889 202.14 32.191 200.797 30.794 C 199.454 29.398 198.783 27.386 198.783 24.759 Z M 201.493 24.759 C 201.493 26.751 201.928 28.243 202.797 29.234 C 203.666 30.225 204.76 30.721 206.078 30.721 C 207.387 30.721 208.475 30.223 209.345 29.227 C 210.214 28.231 210.648 26.712 210.648 24.671 C 210.648 22.747 210.211 21.29 209.337 20.298 C 208.463 19.307 207.377 18.812 206.078 18.812 C 204.76 18.812 203.666 19.305 202.797 20.291 C 201.928 21.277 201.493 22.767 201.493 24.759 Z " stroke-width="1"/>
      <path id="ID0.5041719586588442" fill="white" d="M 226.644 32.537 L 226.644 30.252 C 225.433 32.01 223.788 32.889 221.708 32.889 C 220.79 32.889 219.933 32.713 219.137 32.361 C 218.341 32.01 217.75 31.568 217.365 31.036 C 216.979 30.504 216.708 29.852 216.552 29.08 C 216.444 28.563 216.39 27.742 216.39 26.619 L 216.39 16.981 L 219.027 16.981 L 219.027 25.609 C 219.027 26.985 219.081 27.913 219.188 28.392 C 219.354 29.085 219.706 29.63 220.243 30.025 C 220.78 30.421 221.444 30.618 222.235 30.618 C 223.026 30.618 223.768 30.416 224.462 30.01 C 225.155 29.605 225.646 29.053 225.934 28.355 C 226.222 27.657 226.366 26.644 226.366 25.316 L 226.366 16.981 L 229.003 16.981 L 229.003 32.537 L 226.644 32.537 Z " stroke-width="1"/>
      <path id="ID0.4179067318327725" fill="white" d="M 245.555 32.537 L 239.857 11.063 L 242.772 11.063 L 246.039 25.14 C 246.39 26.614 246.693 28.079 246.947 29.534 C 247.494 27.239 247.816 25.916 247.914 25.565 L 252.001 11.063 L 255.429 11.063 L 258.505 21.932 C 259.276 24.627 259.833 27.161 260.175 29.534 C 260.448 28.177 260.804 26.619 261.244 24.861 L 264.613 11.063 L 267.47 11.063 L 261.581 32.537 L 258.842 32.537 L 254.315 16.175 C 253.934 14.808 253.71 13.968 253.641 13.655 C 253.417 14.642 253.207 15.482 253.012 16.175 L 248.456 32.537 L 245.555 32.537 Z " stroke-width="1"/>
      <path id="ID0.2544672950170934" fill="white" d="M 269.799 14.095 L 269.799 11.063 L 272.435 11.063 L 272.435 14.095 L 269.799 14.095 Z M 269.799 32.537 L 269.799 16.981 L 272.435 16.981 L 272.435 32.537 L 269.799 32.537 Z " stroke-width="1"/>
      <path id="ID0.6595720103941858" fill="white" d="M 276.449 32.537 L 276.449 16.981 L 278.822 16.981 L 278.822 19.192 C 279.965 17.484 281.615 16.629 283.773 16.629 C 284.711 16.629 285.573 16.797 286.359 17.134 C 287.145 17.471 287.733 17.913 288.124 18.46 C 288.514 19.007 288.788 19.656 288.944 20.408 C 289.042 20.897 289.091 21.751 289.091 22.972 L 289.091 32.537 L 286.454 32.537 L 286.454 23.074 C 286.454 22 286.351 21.197 286.146 20.665 C 285.941 20.132 285.577 19.708 285.055 19.39 C 284.533 19.073 283.92 18.914 283.217 18.914 C 282.094 18.914 281.124 19.271 280.309 19.984 C 279.493 20.696 279.086 22.049 279.086 24.041 L 279.086 32.537 L 276.449 32.537 Z " stroke-width="1"/>
      <path id="ID0.18226500507444143" fill="white" d="M 294.54 27.205 L 293.734 15.823 L 293.734 11.063 L 297.001 11.063 L 297.001 15.823 L 296.239 27.205 L 294.54 27.205 Z M 293.851 32.537 L 293.851 29.534 L 296.884 29.534 L 296.884 32.537 L 293.851 32.537 Z " stroke-width="1"/>
    </g>
  </g>
<defs/></svg>