<svg version="1.1" width="11.149999662184644" height="11.149999662184644" viewBox="0.412299968826806 0.3899000068784112 11.149999662184644 11.149999662184644" xmlns="http://www.w3.org/2000/svg" xmlns:xlink="http://www.w3.org/1999/xlink">
  <!-- Exported by Scratch - http://scratch.mit.edu/ -->
  <path id="ID0.1349430033005774" fill="#EA5F61" stroke="none" d="M 5.9873 0.8899 C 7.3877 0.8899 8.6565 1.4584 9.5751 2.3771 C 10.4938 3.2957 11.0623 4.5644 11.0623 5.9649 C 11.0623 7.3653 10.4938 8.634 9.5751 9.5527 C 8.6565 10.4713 7.3877 11.0399 5.9873 11.0399 C 4.5869 11.0399 3.3182 10.4713 2.3995 9.5527 C 1.4809 8.634 0.9123 7.3653 0.9123 5.9649 C 0.9123 4.5644 1.4809 3.2957 2.3995 2.3771 C 3.3182 1.4584 4.5869 0.8899 5.9873 0.8899 Z " stroke-width="0.7355072498321533"/>
  <path id="ID0.579712871927768" fill="none" stroke="#FFFFFF" stroke-width="1.0000000436543715" stroke-linecap="round" d="M 3.8078 3.9438 L 8.2046 8.2747 "/>
  <path id="ID0.579712871927768" fill="none" stroke="#FFFFFF" stroke-width="1.0000000436543715" stroke-linecap="round" d="M 8.3062 3.9578 L 3.9753 8.3546 "/>
</svg>