<svg version="1.1" width="46.156002044677734" height="53.125" viewBox="0.3129979968070984 0.25 46.156002044677734 53.125" xmlns="http://www.w3.org/2000/svg" xmlns:xlink="http://www.w3.org/1999/xlink">
  <!-- Exported by Scratch - http://scratch.mit.edu/ -->
  <g id="ID0.8545918669551611">
    <g id="layer1">
      <path id="path3108" fill="#666666" stroke="none" d="M 19.656 0.75 C 17.781 0.75 16.059 1.027 14.5 1.625 C 12.941 2.223 11.586 3.07 10.438 4.125 C 9.289 5.18 8.414 6.414 7.781 7.844 C 7.148 9.274 6.844 10.844 6.844 12.531 C 6.844 15.953 8.672 19.922 12.375 24.469 C 4.664 28.172 0.812 33.125 0.813 39.313 C 0.812 41.281 1.18 43.086 1.906 44.75 C 2.633 46.414 3.691 47.856 5.063 49.063 C 6.434 50.27 8.105 51.207 10.063 51.875 C 12.02 52.543 14.187 52.875 16.625 52.875 C 23.117 52.875 28.695 50.547 33.313 45.906 L 39.438 52 L 45.969 52.031 C 44 50.086 42.227 48.348 40.656 46.813 C 39.086 45.277 37.672 43.898 36.406 42.656 C 40.25 37.477 42.227 31.695 42.344 25.344 L 38 25.344 C 37.953 26.609 37.836 27.887 37.625 29.188 C 37.414 30.488 37.125 31.789 36.75 33.031 C 36.375 34.273 35.934 35.457 35.406 36.594 C 34.879 37.73 34.289 38.75 33.656 39.688 C 30.961 37.063 28.41 34.586 26.031 32.219 C 23.652 29.852 21.422 27.539 19.313 25.313 C 21.445 24.305 23.262 23.289 24.75 22.281 C 26.238 21.274 27.437 20.199 28.375 19.063 C 29.312 17.926 30.016 16.707 30.438 15.406 C 30.859 14.105 31.062 12.688 31.063 11.094 C 31.062 9.594 30.789 8.203 30.25 6.938 C 29.711 5.672 28.953 4.57 27.969 3.656 C 26.984 2.742 25.781 2.047 24.375 1.531 C 22.969 1.016 21.391 0.75 19.656 0.75 Z M 19.563 4.531 C 20.547 4.531 21.469 4.723 22.313 5.063 C 23.156 5.402 23.898 5.879 24.531 6.5 C 25.164 7.121 25.637 7.863 26 8.719 C 26.363 9.574 26.562 10.5 26.563 11.531 C 26.562 12.633 26.375 13.672 26 14.656 C 25.625 15.641 25.047 16.578 24.25 17.469 C 23.453 18.359 22.41 19.23 21.156 20.063 C 19.902 20.895 18.375 21.711 16.594 22.531 C 13.125 18.641 11.406 15.328 11.406 12.563 C 11.406 11.414 11.582 10.328 11.969 9.344 C 12.355 8.359 12.922 7.527 13.625 6.813 C 14.328 6.098 15.18 5.523 16.188 5.125 C 17.195 4.727 18.32 4.531 19.563 4.531 Z M 15.156 27.406 C 17.57 29.961 20.051 32.504 22.594 35.094 C 25.137 37.684 27.805 40.352 30.594 43.094 C 26.68 46.984 22.078 48.938 16.781 48.938 C 15.094 48.938 13.551 48.699 12.156 48.219 C 10.762 47.738 9.578 47.074 8.594 46.219 C 7.609 45.363 6.832 44.313 6.281 43.094 C 5.73 41.875 5.469 40.539 5.469 39.063 C 5.469 36.602 6.234 34.426 7.781 32.563 C 9.328 30.699 11.781 29 15.156 27.406 Z " stroke-width="1"/>
    </g>
  </g>
</svg>