<svg version="1.1" width="41.031005859375" height="53.125" viewBox="0.3129972219467163 0.25 41.031005859375 53.125" xmlns="http://www.w3.org/2000/svg" xmlns:xlink="http://www.w3.org/1999/xlink">
  <!-- Exported by Scratch - http://scratch.mit.edu/ -->
  <g id="ID0.49511911580339074">
    <g id="layer1">
      <path id="path3152" fill="#666666" stroke="none" d="M 26.469 0.75 C 23.82 0.75 21.359 1.055 19.063 1.688 C 16.766 2.32 14.66 3.234 12.75 4.406 C 10.84 5.578 9.133 6.977 7.656 8.594 C 6.18 10.211 4.926 12.008 3.906 14 C 2.887 15.992 2.121 18.133 1.594 20.406 C 1.066 22.68 0.812 25.039 0.813 27.5 C 0.812 31.227 1.348 34.645 2.438 37.75 C 3.527 40.856 5.086 43.512 7.125 45.75 C 9.164 47.988 11.656 49.746 14.563 51 C 17.469 52.254 20.719 52.875 24.375 52.875 C 30.164 52.875 35.664 51.438 40.844 48.531 L 40.844 26.344 L 24.719 26.344 L 24.719 30.594 L 36.156 30.594 L 36.156 45.969 C 33.016 47.75 29.328 48.625 25.063 48.625 C 21.898 48.625 19.102 48.078 16.688 47 C 14.273 45.922 12.266 44.422 10.625 42.5 C 8.984 40.578 7.738 38.293 6.906 35.656 C 6.074 33.02 5.664 30.148 5.688 27.031 C 5.711 23.891 6.195 20.996 7.156 18.313 C 8.117 15.629 9.473 13.281 11.219 11.313 C 12.965 9.344 15.078 7.813 17.563 6.688 C 20.047 5.563 22.836 5 25.906 5 C 30.875 5 35.5 6.203 39.813 8.594 L 39.813 3.406 C 35.898 1.625 31.461 0.75 26.469 0.75 Z " stroke-width="1"/>
    </g>
  </g>
</svg>