<svg width="100.4520034790039" height="14.907999992370605" viewBox="-0.499997615814209 -0.5 100.4520034790039 14.907999992370605" version="1.1" style="fill-rule:evenodd;clip-rule:evenodd;stroke-linecap:round;stroke-miterlimit:1.41421;" xml:space="preserve" xmlns="http://www.w3.org/2000/svg" xmlns:xlink="http://www.w3.org/1999/xlink">
  <g>
    <g id="1">
      <path d="M99.452,6.954c0,-3.838 -3.116,-6.954 -6.954,-6.954l-85.544,0c-3.838,0 -6.954,3.116 -6.954,6.954c0,3.838 3.116,6.954 6.954,6.954l85.544,0c3.838,0 6.954,-3.116 6.954,-6.954Z" style="fill:#9fd3ff;" stroke-width="1"/>
      <path d="M5.091,10.156l2.275,-5.923l0.844,0l2.425,5.923l-0.893,0l-0.691,-1.794l-2.477,0l-0.651,1.794l-0.832,0ZM6.8,7.724l2.008,0l-0.618,-1.641c-0.188,-0.498 -0.328,-0.908 -0.42,-1.228c-0.076,0.38 -0.182,0.757 -0.319,1.131l-0.651,1.738Z" style="fill:#fff;fill-rule:nonzero;" stroke-width="1"/>
      <path d="M11.16,10.156l0,-4.291l0.654,0l0,0.65c0.167,-0.304 0.322,-0.505 0.463,-0.602c0.141,-0.097 0.297,-0.145 0.467,-0.145c0.245,0 0.494,0.078 0.747,0.234l-0.25,0.675c-0.178,-0.105 -0.356,-0.157 -0.534,-0.157c-0.159,0 -0.301,0.047 -0.428,0.143c-0.127,0.096 -0.217,0.228 -0.271,0.398c-0.08,0.259 -0.121,0.541 -0.121,0.848l0,2.247l-0.727,0Z" style="fill:#fff;fill-rule:nonzero;" stroke-width="1"/>
      <path d="M13.79,10.511l0.707,0.106c0.03,0.218 0.112,0.377 0.247,0.476c0.18,0.135 0.427,0.202 0.739,0.202c0.337,0 0.597,-0.067 0.78,-0.202c0.183,-0.134 0.307,-0.323 0.372,-0.565c0.037,-0.148 0.055,-0.46 0.052,-0.934c-0.318,0.375 -0.714,0.562 -1.188,0.562c-0.59,0 -1.046,-0.213 -1.369,-0.638c-0.324,-0.426 -0.485,-0.937 -0.485,-1.532c0,-0.409 0.074,-0.787 0.222,-1.133c0.148,-0.346 0.363,-0.614 0.644,-0.802c0.282,-0.189 0.613,-0.283 0.992,-0.283c0.507,0 0.924,0.205 1.253,0.614l0,-0.517l0.671,0l0,3.709c0,0.668 -0.068,1.142 -0.204,1.42c-0.136,0.279 -0.352,0.499 -0.647,0.661c-0.295,0.162 -0.658,0.242 -1.089,0.242c-0.512,0 -0.925,-0.115 -1.24,-0.345c-0.315,-0.23 -0.468,-0.577 -0.457,-1.041ZM14.392,7.934c0,0.563 0.112,0.973 0.336,1.232c0.223,0.259 0.503,0.388 0.84,0.388c0.334,0 0.614,-0.129 0.84,-0.386c0.227,-0.257 0.34,-0.661 0.34,-1.21c0,-0.525 -0.117,-0.921 -0.35,-1.188c-0.233,-0.267 -0.513,-0.4 -0.842,-0.4c-0.323,0 -0.598,0.131 -0.824,0.394c-0.227,0.263 -0.34,0.653 -0.34,1.17Z" style="fill:#fff;fill-rule:nonzero;" stroke-width="1"/>
      <path d="M18.526,10.156l0,-5.923l0.727,0l0,2.125c0.339,-0.393 0.768,-0.59 1.285,-0.59c0.318,0 0.594,0.063 0.828,0.188c0.234,0.125 0.402,0.298 0.503,0.519c0.101,0.221 0.152,0.541 0.152,0.962l0,2.719l-0.728,0l0,-2.719c0,-0.364 -0.078,-0.629 -0.236,-0.794c-0.158,-0.166 -0.381,-0.249 -0.669,-0.249c-0.215,0 -0.418,0.056 -0.608,0.168c-0.19,0.112 -0.325,0.263 -0.406,0.454c-0.081,0.192 -0.121,0.456 -0.121,0.792l0,2.348l-0.727,0Z" style="fill:#fff;fill-rule:nonzero;" stroke-width="1"/>
      <path d="M23.128,10.156l0,-5.923l0.727,0l0,2.125c0.339,-0.393 0.768,-0.59 1.285,-0.59c0.318,0 0.594,0.063 0.828,0.188c0.234,0.125 0.402,0.298 0.503,0.519c0.101,0.221 0.152,0.541 0.152,0.962l0,2.719l-0.728,0l0,-2.719c0,-0.364 -0.078,-0.629 -0.236,-0.794c-0.158,-0.166 -0.38,-0.249 -0.669,-0.249c-0.215,0 -0.418,0.056 -0.608,0.168c-0.19,0.112 -0.325,0.263 -0.406,0.454c-0.081,0.192 -0.121,0.456 -0.121,0.792l0,2.348l-0.727,0Z" style="fill:#fff;fill-rule:nonzero;" stroke-width="1"/>
      <path d="M27.92,10.156l0,-0.828l0.828,0l0,0.828c0,0.304 -0.054,0.55 -0.162,0.737c-0.107,0.188 -0.278,0.332 -0.513,0.435l-0.202,-0.311c0.154,-0.068 0.267,-0.167 0.34,-0.297c0.072,-0.131 0.113,-0.319 0.121,-0.564l-0.412,0Z" style="fill:#fff;fill-rule:nonzero;" stroke-width="1"/>
      <rect x="32.554" y="4.233" width="0.784" height="5.923" style="fill:#fff;fill-rule:nonzero;" stroke-width="1"/>
      <path d="M39.726,8.584l0.715,0.093c-0.078,0.493 -0.278,0.879 -0.6,1.158c-0.322,0.279 -0.717,0.418 -1.186,0.418c-0.587,0 -1.059,-0.192 -1.416,-0.576c-0.357,-0.384 -0.535,-0.934 -0.535,-1.65c0,-0.464 0.076,-0.869 0.23,-1.217c0.153,-0.347 0.387,-0.608 0.701,-0.781c0.314,-0.174 0.655,-0.261 1.024,-0.261c0.466,0 0.847,0.118 1.144,0.354c0.296,0.235 0.486,0.57 0.569,1.004l-0.707,0.109c-0.067,-0.289 -0.186,-0.505 -0.357,-0.651c-0.171,-0.145 -0.378,-0.218 -0.62,-0.218c-0.367,0 -0.664,0.131 -0.893,0.394c-0.229,0.263 -0.344,0.678 -0.344,1.246c0,0.577 0.111,0.996 0.331,1.257c0.221,0.261 0.51,0.392 0.865,0.392c0.286,0 0.524,-0.088 0.715,-0.263c0.192,-0.175 0.313,-0.444 0.364,-0.808Z" style="fill:#fff;fill-rule:nonzero;" stroke-width="1"/>
      <path d="M43.863,9.627c-0.269,0.229 -0.528,0.39 -0.777,0.484c-0.25,0.095 -0.517,0.142 -0.802,0.142c-0.472,0 -0.834,-0.115 -1.087,-0.346c-0.254,-0.23 -0.38,-0.524 -0.38,-0.882c0,-0.211 0.048,-0.402 0.143,-0.576c0.096,-0.174 0.221,-0.313 0.376,-0.418c0.155,-0.105 0.329,-0.185 0.523,-0.239c0.143,-0.037 0.359,-0.074 0.647,-0.109c0.587,-0.07 1.019,-0.153 1.297,-0.25c0.002,-0.1 0.004,-0.163 0.004,-0.19c0,-0.297 -0.069,-0.505 -0.206,-0.627c-0.186,-0.164 -0.462,-0.246 -0.829,-0.246c-0.342,0 -0.594,0.06 -0.757,0.18c-0.163,0.12 -0.284,0.332 -0.362,0.636l-0.711,-0.097c0.065,-0.304 0.171,-0.55 0.319,-0.737c0.148,-0.187 0.363,-0.331 0.643,-0.432c0.28,-0.102 0.604,-0.152 0.973,-0.152c0.367,0 0.664,0.043 0.893,0.129c0.229,0.086 0.398,0.195 0.505,0.326c0.108,0.13 0.184,0.295 0.227,0.495c0.024,0.123 0.036,0.347 0.036,0.67l0,0.97c0,0.676 0.016,1.104 0.047,1.283c0.031,0.179 0.092,0.351 0.183,0.515l-0.759,0c-0.076,-0.151 -0.124,-0.327 -0.146,-0.529ZM43.803,8.002c-0.264,0.108 -0.66,0.2 -1.188,0.275c-0.299,0.043 -0.511,0.092 -0.635,0.146c-0.123,0.053 -0.219,0.132 -0.286,0.236c-0.068,0.104 -0.101,0.219 -0.101,0.345c0,0.194 0.073,0.356 0.22,0.485c0.147,0.13 0.361,0.194 0.644,0.194c0.28,0 0.53,-0.061 0.748,-0.184c0.218,-0.122 0.378,-0.29 0.481,-0.503c0.078,-0.164 0.117,-0.406 0.117,-0.727l0,-0.267Z" style="fill:#fff;fill-rule:nonzero;" stroke-width="1"/>
      <path d="M45.665,10.156l0,-4.291l0.655,0l0,0.61c0.315,-0.471 0.77,-0.707 1.366,-0.707c0.258,0 0.496,0.046 0.713,0.139c0.217,0.093 0.379,0.215 0.487,0.366c0.107,0.151 0.183,0.33 0.226,0.537c0.027,0.135 0.04,0.371 0.04,0.708l0,2.638l-0.727,0l0,-2.61c0,-0.297 -0.028,-0.518 -0.085,-0.665c-0.056,-0.147 -0.157,-0.264 -0.301,-0.351c-0.144,-0.088 -0.313,-0.132 -0.507,-0.132c-0.31,0 -0.577,0.099 -0.802,0.295c-0.225,0.197 -0.337,0.57 -0.337,1.119l0,2.344l-0.728,0Z" style="fill:#fff;fill-rule:nonzero;" stroke-width="1"/>
      <path d="M50.272,6.33l-0.186,-1.107l0,-0.99l0.828,0l0,0.99l-0.194,1.107l-0.448,0Z" style="fill:#fff;fill-rule:nonzero;" stroke-width="1"/>
      <path d="M53.435,9.505l0.105,0.643c-0.204,0.043 -0.388,0.064 -0.549,0.064c-0.264,0 -0.469,-0.041 -0.614,-0.125c-0.146,-0.083 -0.248,-0.193 -0.307,-0.329c-0.06,-0.136 -0.089,-0.422 -0.089,-0.859l0,-2.468l-0.534,0l0,-0.566l0.534,0l0,-1.063l0.723,-0.436l0,1.499l0.731,0l0,0.566l-0.731,0l0,2.509c0,0.207 0.013,0.34 0.038,0.4c0.026,0.059 0.068,0.106 0.126,0.141c0.057,0.035 0.14,0.053 0.248,0.053c0.081,0 0.187,-0.01 0.319,-0.029Z" style="fill:#fff;fill-rule:nonzero;" stroke-width="1"/>
      <path d="M56.639,10.156l0,-3.729l-0.646,0l0,-0.562l0.646,0l0,-0.416c0,-0.426 0.092,-0.752 0.275,-0.978c0.183,-0.226 0.473,-0.339 0.869,-0.339c0.266,0 0.513,0.031 0.739,0.093l-0.113,0.614c-0.143,-0.025 -0.273,-0.037 -0.392,-0.037c-0.25,0 -0.421,0.05 -0.513,0.15c-0.092,0.099 -0.137,0.311 -0.137,0.634l0,0.279l0.832,0l0,0.562l-0.832,0l0,3.729l-0.728,0ZM58.748,5.069l0,-0.836l0.728,0l0,0.836l-0.728,0ZM58.748,10.156l0,-4.291l0.728,0l0,4.291l-0.728,0Z" style="fill:#fff;fill-rule:nonzero;" stroke-width="1"/>
      <path d="M60.583,10.156l0,-4.291l0.654,0l0,0.61c0.315,-0.471 0.771,-0.707 1.366,-0.707c0.259,0 0.496,0.046 0.713,0.139c0.217,0.093 0.379,0.215 0.487,0.366c0.108,0.151 0.183,0.33 0.226,0.537c0.027,0.135 0.041,0.371 0.041,0.708l0,2.638l-0.728,0l0,-2.61c0,-0.297 -0.028,-0.518 -0.084,-0.665c-0.057,-0.147 -0.157,-0.264 -0.301,-0.351c-0.145,-0.088 -0.314,-0.132 -0.508,-0.132c-0.309,0 -0.577,0.099 -0.802,0.295c-0.224,0.197 -0.337,0.57 -0.337,1.119l0,2.344l-0.727,0Z" style="fill:#fff;fill-rule:nonzero;" stroke-width="1"/>
      <path d="M65.189,5.069l0,-0.836l0.727,0l0,0.836l-0.727,0ZM65.189,10.156l0,-4.291l0.727,0l0,4.291l-0.727,0Z" style="fill:#fff;fill-rule:nonzero;" stroke-width="1"/>
      <path d="M66.732,8.875l0.72,-0.113c0.04,0.288 0.152,0.509 0.337,0.663c0.184,0.153 0.442,0.23 0.774,0.23c0.334,0 0.581,-0.068 0.743,-0.204c0.162,-0.136 0.243,-0.296 0.243,-0.479c0,-0.164 -0.072,-0.294 -0.215,-0.388c-0.099,-0.064 -0.347,-0.147 -0.743,-0.246c-0.533,-0.135 -0.903,-0.251 -1.109,-0.35c-0.206,-0.098 -0.362,-0.234 -0.469,-0.408c-0.106,-0.174 -0.159,-0.366 -0.159,-0.576c0,-0.191 0.043,-0.368 0.131,-0.531c0.087,-0.163 0.207,-0.298 0.357,-0.406c0.114,-0.084 0.268,-0.154 0.463,-0.212c0.195,-0.058 0.405,-0.087 0.628,-0.087c0.337,0 0.633,0.048 0.887,0.145c0.255,0.097 0.443,0.229 0.564,0.394c0.121,0.166 0.205,0.388 0.25,0.665l-0.711,0.097c-0.032,-0.221 -0.126,-0.393 -0.281,-0.517c-0.154,-0.124 -0.373,-0.186 -0.656,-0.186c-0.334,0 -0.572,0.055 -0.715,0.166c-0.143,0.11 -0.214,0.239 -0.214,0.388c0,0.094 0.029,0.179 0.088,0.254c0.06,0.078 0.153,0.143 0.279,0.194c0.073,0.027 0.287,0.089 0.643,0.186c0.514,0.137 0.873,0.25 1.076,0.337c0.204,0.088 0.363,0.215 0.479,0.382c0.116,0.167 0.174,0.374 0.174,0.622c0,0.243 -0.071,0.471 -0.212,0.685c-0.142,0.214 -0.346,0.38 -0.612,0.497c-0.267,0.117 -0.569,0.176 -0.905,0.176c-0.558,0 -0.983,-0.116 -1.275,-0.348c-0.292,-0.231 -0.479,-0.575 -0.56,-1.03Z" style="fill:#fff;fill-rule:nonzero;" stroke-width="1"/>
      <path d="M71.161,10.156l0,-5.923l0.727,0l0,2.125c0.339,-0.393 0.768,-0.59 1.285,-0.59c0.318,0 0.594,0.063 0.828,0.188c0.234,0.125 0.402,0.298 0.503,0.519c0.101,0.221 0.152,0.541 0.152,0.962l0,2.719l-0.728,0l0,-2.719c0,-0.364 -0.078,-0.629 -0.236,-0.794c-0.158,-0.166 -0.38,-0.249 -0.669,-0.249c-0.215,0 -0.418,0.056 -0.608,0.168c-0.19,0.112 -0.325,0.263 -0.406,0.454c-0.081,0.192 -0.121,0.456 -0.121,0.792l0,2.348l-0.727,0Z" style="fill:#fff;fill-rule:nonzero;" stroke-width="1"/>
      <path d="M78.066,5.069l0,-0.836l0.727,0l0,0.836l-0.727,0ZM78.066,10.156l0,-4.291l0.727,0l0,4.291l-0.727,0Z" style="fill:#fff;fill-rule:nonzero;" stroke-width="1"/>
      <path d="M81.488,9.505l0.105,0.643c-0.205,0.043 -0.388,0.064 -0.549,0.064c-0.264,0 -0.469,-0.041 -0.615,-0.125c-0.145,-0.083 -0.247,-0.193 -0.307,-0.329c-0.059,-0.136 -0.088,-0.422 -0.088,-0.859l0,-2.468l-0.534,0l0,-0.566l0.534,0l0,-1.063l0.723,-0.436l0,1.499l0.731,0l0,0.566l-0.731,0l0,2.509c0,0.207 0.013,0.34 0.038,0.4c0.026,0.059 0.067,0.106 0.125,0.141c0.058,0.035 0.141,0.053 0.249,0.053c0.081,0 0.187,-0.01 0.319,-0.029Z" style="fill:#fff;fill-rule:nonzero;" stroke-width="1"/>
      <path d="M82.587,8.685l-0.222,-3.139l0,-1.313l0.901,0l0,1.313l-0.21,3.139l-0.469,0ZM82.397,10.156l0,-0.828l0.837,0l0,0.828l-0.837,0Z" style="fill:#fff;fill-rule:nonzero;" stroke-width="1"/>
    </g>
    <g id="Sad Emoji">
      <circle cx="90.71" cy="6.954" r="4.164" style="fill:#ffca59;" stroke-width="1"/>
      <g id="Face">
        <circle cx="89.081" cy="6.87" r="0.681" style="fill:#000;" stroke-width="1"/>
        <circle cx="92.34" cy="6.87" r="0.681" style="fill:#000;" stroke-width="1"/>
        <path d="M91.844,5.501c-0.116,0.046 -0.207,0.122 -0.263,0.221c-0.179,0.308 0.017,0.755 0.436,0.997c0.419,0.242 0.904,0.188 1.082,-0.121c0.056,-0.098 0.077,-0.215 0.06,-0.338l-1.315,-0.759Z" style="fill:#ffca59;" stroke-width="1"/>
        <path d="M88.262,6.26c-0.018,0.123 0.003,0.24 0.06,0.338c0.178,0.309 0.663,0.363 1.082,0.121c0.419,-0.242 0.614,-0.689 0.436,-0.997c-0.057,-0.099 -0.148,-0.175 -0.263,-0.221l-1.315,0.759Z" style="fill:#ffca59;" stroke-width="1"/>
      </g>
      <path d="M89.831,8.699c0,0 0.365,-0.75 0.879,-0.75c0.514,0 0.88,0.75 0.88,0.75" style="fill:none;stroke-width:0.5px;stroke:#000;" stroke-width="1"/>
    </g>
  </g>
</svg>