<svg version="1.1" width="50.883230090141296" height="27.207130312919617" viewBox="-0.3915650248527527 0.40723496675491333 50.883230090141296 27.207130312919617" xmlns="http://www.w3.org/2000/svg" xmlns:xlink="http://www.w3.org/1999/xlink">
  <!-- Exported by Scratch - http://scratch.mit.edu/ -->
  <g id="ID0.03796483017504215">
    <path id="ID0.5629956251941621" fill="#65A8E7" d="M 13.1501 0.9989 C 9.5632 0.9989 6.3132 2.456 3.9602 4.809 C 1.6072 7.162 0.1501 10.412 0.1501 13.9989 C 0.1501 17.5858 1.6072 20.8358 3.9602 23.1888 C 6.3132 25.5418 9.5632 26.9989 13.1501 26.9989 C 16.737 26.9989 19.987 25.5418 22.34 23.1888 C 24.693 20.8358 26.15 17.5858 26.15 13.9989 C 26.15 10.412 24.693 7.162 22.34 4.809 C 19.987 2.456 16.737 0.9989 13.1501 0.9989 Z " stroke-width="1.0833300352096558"/>
  </g>
  <g id="ID0.03796483017504215">
    <path id="ID0.5629956251941621" fill="#65A8E7" d="M 25.0001 0.9989 C 21.4132 0.9989 18.1632 2.456 15.8102 4.809 C 13.4572 7.162 12.0001 10.412 12.0001 13.9989 C 12.0001 17.5858 13.4572 20.8358 15.8102 23.1888 C 18.1632 25.5418 21.4132 26.9989 25.0001 26.9989 C 28.587 26.9989 31.837 25.5418 34.19 23.1888 C 36.543 20.8358 38 17.5858 38 13.9989 C 38 10.412 36.543 7.162 34.19 4.809 C 31.837 2.456 28.587 0.9989 25.0001 0.9989 Z " stroke-width="1.0833300352096558"/>
  </g>
  <g id="ID0.03796483017504215">
    <path id="ID0.5629956251941621" fill="#65A8E7" d="M 36.9501 0.9489 C 33.3632 0.9489 30.1132 2.406 27.7602 4.759 C 25.4072 7.112 23.9501 10.362 23.9501 13.9489 C 23.9501 17.5358 25.4072 20.7858 27.7602 23.1388 C 30.1132 25.4918 33.3632 26.9489 36.9501 26.9489 C 40.537 26.9489 43.787 25.4918 46.14 23.1388 C 48.493 20.7858 49.95 17.5358 49.95 13.9489 C 49.95 10.362 48.493 7.112 46.14 4.759 C 43.787 2.406 40.537 0.9489 36.9501 0.9489 Z " stroke-width="1.0833300352096558"/>
  </g>
  <path id="ID0.4496537633240223" fill="#65A8E7" stroke="none" d="M 13.2626 0.9729 L 37.0029 0.9729 L 37.0029 27.0727 L 13.2626 27.0727 L 13.2626 0.9729 Z " stroke-width="0.9438096994135526"/>
</svg>