<svg width="91.34600067138672" height="22" viewBox="0.201995849609375 -0.5 91.34600067138672 22" version="1.1" xmlns="http://www.w3.org/2000/svg" xmlns:xlink="http://www.w3.org/1999/xlink" xml:space="preserve" style="fill-rule:evenodd;clip-rule:evenodd;stroke-linejoin:round;stroke-miterlimit:1.41421;"><g id="Post comment Button"><path d="M91.048,5.25c0,-2.898 -2.353,-5.25 -5.25,-5.25l-79.846,0c-2.897,0 -5.25,2.352 -5.25,5.25l0,10.5c0,2.898 2.353,5.25 5.25,5.25l79.846,0c2.897,0 5.25,-2.352 5.25,-5.25l0,-10.5Z" style="fill:#68aae8;" stroke-width="1"/><path d="M10.466,14.196l0,-7.517l2.435,0c0.923,0 1.524,0.038 1.805,0.113c0.43,0.113 0.791,0.358 1.081,0.736c0.291,0.378 0.436,0.866 0.436,1.464c0,0.461 -0.084,0.849 -0.251,1.163c-0.167,0.315 -0.38,0.562 -0.638,0.741c-0.258,0.18 -0.521,0.299 -0.787,0.357c-0.363,0.071 -0.887,0.107 -1.574,0.107l-0.99,0l0,2.836l-1.517,0ZM11.983,7.951l0,2.133l0.831,0c0.598,0 0.998,-0.04 1.2,-0.118c0.201,-0.079 0.359,-0.202 0.474,-0.369c0.114,-0.168 0.172,-0.363 0.172,-0.585c0,-0.273 -0.081,-0.499 -0.241,-0.677c-0.161,-0.177 -0.364,-0.288 -0.611,-0.333c-0.181,-0.034 -0.545,-0.051 -1.092,-0.051l-0.733,0Z" style="fill:#fff;fill-rule:nonzero;" stroke-width="1"/><path d="M17.126,11.396c0,-0.478 0.117,-0.941 0.353,-1.389c0.236,-0.448 0.57,-0.79 1.003,-1.026c0.432,-0.235 0.915,-0.353 1.448,-0.353c0.824,0 1.499,0.267 2.025,0.802c0.527,0.535 0.79,1.211 0.79,2.028c0,0.823 -0.266,1.506 -0.798,2.048c-0.531,0.542 -1.2,0.813 -2.007,0.813c-0.499,0 -0.975,-0.113 -1.428,-0.339c-0.452,-0.225 -0.797,-0.556 -1.033,-0.992c-0.236,-0.436 -0.353,-0.966 -0.353,-1.592ZM18.602,11.473c0,0.54 0.128,0.954 0.385,1.241c0.256,0.287 0.572,0.431 0.948,0.431c0.376,0 0.691,-0.144 0.946,-0.431c0.255,-0.287 0.382,-0.704 0.382,-1.251c0,-0.533 -0.127,-0.943 -0.382,-1.231c-0.255,-0.287 -0.57,-0.43 -0.946,-0.43c-0.376,0 -0.692,0.143 -0.948,0.43c-0.257,0.288 -0.385,0.701 -0.385,1.241Z" style="fill:#fff;fill-rule:nonzero;" stroke-width="1"/><path d="M23.365,12.642l1.446,-0.22c0.061,0.28 0.186,0.493 0.374,0.638c0.188,0.145 0.451,0.218 0.79,0.218c0.372,0 0.652,-0.069 0.84,-0.205c0.127,-0.096 0.19,-0.224 0.19,-0.385c0,-0.109 -0.034,-0.2 -0.102,-0.272c-0.072,-0.068 -0.233,-0.131 -0.482,-0.189c-1.162,-0.257 -1.899,-0.491 -2.21,-0.703c-0.431,-0.294 -0.646,-0.702 -0.646,-1.225c0,-0.472 0.186,-0.868 0.559,-1.189c0.372,-0.322 0.95,-0.482 1.733,-0.482c0.745,0 1.299,0.121 1.661,0.364c0.362,0.242 0.612,0.601 0.748,1.076l-1.358,0.252c-0.058,-0.212 -0.169,-0.375 -0.331,-0.488c-0.162,-0.112 -0.394,-0.169 -0.695,-0.169c-0.379,0 -0.651,0.053 -0.815,0.159c-0.109,0.075 -0.164,0.173 -0.164,0.292c0,0.103 0.048,0.19 0.144,0.262c0.13,0.096 0.578,0.231 1.346,0.405c0.767,0.174 1.303,0.388 1.607,0.641c0.301,0.256 0.451,0.613 0.451,1.071c0,0.499 -0.209,0.928 -0.626,1.287c-0.417,0.359 -1.033,0.539 -1.85,0.539c-0.742,0 -1.329,-0.151 -1.761,-0.452c-0.433,-0.3 -0.716,-0.709 -0.849,-1.225Z" style="fill:#fff;fill-rule:nonzero;" stroke-width="1"/><path d="M32.209,8.751l0,1.148l-0.984,0l0,2.194c0,0.445 0.009,0.704 0.028,0.777c0.019,0.074 0.061,0.134 0.128,0.182c0.067,0.048 0.148,0.072 0.244,0.072c0.133,0 0.326,-0.046 0.579,-0.138l0.123,1.117c-0.335,0.144 -0.714,0.216 -1.138,0.216c-0.26,0 -0.494,-0.044 -0.703,-0.131c-0.208,-0.087 -0.361,-0.2 -0.458,-0.339c-0.098,-0.138 -0.165,-0.325 -0.203,-0.561c-0.031,-0.167 -0.046,-0.506 -0.046,-1.015l0,-2.374l-0.662,0l0,-1.148l0.662,0l0,-1.082l1.446,-0.841l0,1.923l0.984,0Z" style="fill:#fff;fill-rule:nonzero;" stroke-width="1"/><path d="M40.874,10.361l-1.421,0.256c-0.047,-0.284 -0.156,-0.497 -0.325,-0.641c-0.169,-0.144 -0.389,-0.215 -0.659,-0.215c-0.359,0 -0.645,0.124 -0.859,0.371c-0.213,0.248 -0.32,0.663 -0.32,1.244c0,0.646 0.108,1.102 0.325,1.369c0.217,0.266 0.509,0.4 0.875,0.4c0.273,0 0.497,-0.078 0.671,-0.234c0.174,-0.155 0.298,-0.423 0.369,-0.802l1.415,0.241c-0.147,0.649 -0.429,1.14 -0.846,1.471c-0.417,0.332 -0.975,0.498 -1.676,0.498c-0.797,0 -1.431,-0.252 -1.905,-0.754c-0.473,-0.503 -0.71,-1.198 -0.71,-2.087c0,-0.899 0.238,-1.599 0.713,-2.099c0.475,-0.501 1.117,-0.751 1.928,-0.751c0.663,0 1.19,0.142 1.581,0.428c0.392,0.285 0.673,0.72 0.844,1.305Z" style="fill:#fff;fill-rule:nonzero;" stroke-width="1"/><path d="M41.632,11.396c0,-0.478 0.118,-0.941 0.354,-1.389c0.236,-0.448 0.57,-0.79 1.002,-1.026c0.433,-0.235 0.916,-0.353 1.449,-0.353c0.824,0 1.499,0.267 2.025,0.802c0.526,0.535 0.789,1.211 0.789,2.028c0,0.823 -0.265,1.506 -0.797,2.048c-0.531,0.542 -1.2,0.813 -2.007,0.813c-0.499,0 -0.975,-0.113 -1.428,-0.339c-0.453,-0.225 -0.797,-0.556 -1.033,-0.992c-0.236,-0.436 -0.354,-0.966 -0.354,-1.592ZM43.109,11.473c0,0.54 0.128,0.954 0.384,1.241c0.257,0.287 0.573,0.431 0.949,0.431c0.376,0 0.691,-0.144 0.946,-0.431c0.254,-0.287 0.382,-0.704 0.382,-1.251c0,-0.533 -0.128,-0.943 -0.382,-1.231c-0.255,-0.287 -0.57,-0.43 -0.946,-0.43c-0.376,0 -0.692,0.143 -0.949,0.43c-0.256,0.288 -0.384,0.701 -0.384,1.241Z" style="fill:#fff;fill-rule:nonzero;" stroke-width="1"/><path d="M48.272,8.751l1.328,0l0,0.743c0.475,-0.578 1.04,-0.866 1.697,-0.866c0.348,0 0.651,0.071 0.907,0.215c0.256,0.144 0.467,0.361 0.631,0.651c0.239,-0.29 0.497,-0.507 0.774,-0.651c0.277,-0.144 0.572,-0.215 0.887,-0.215c0.4,0 0.738,0.081 1.015,0.243c0.277,0.163 0.484,0.401 0.62,0.715c0.099,0.233 0.149,0.609 0.149,1.128l0,3.482l-1.441,0l0,-3.113c0,-0.54 -0.049,-0.888 -0.148,-1.045c-0.134,-0.206 -0.339,-0.308 -0.616,-0.308c-0.201,0 -0.391,0.061 -0.569,0.185c-0.177,0.123 -0.306,0.303 -0.384,0.54c-0.079,0.238 -0.118,0.613 -0.118,1.126l0,2.615l-1.441,0l0,-2.984c0,-0.53 -0.025,-0.872 -0.077,-1.026c-0.051,-0.154 -0.13,-0.268 -0.238,-0.343c-0.108,-0.075 -0.254,-0.113 -0.438,-0.113c-0.223,0 -0.423,0.06 -0.6,0.179c-0.178,0.12 -0.305,0.293 -0.382,0.518c-0.077,0.226 -0.116,0.6 -0.116,1.123l0,2.646l-1.44,0l0,-5.445Z" style="fill:#fff;fill-rule:nonzero;" stroke-width="1"/><path d="M57.608,8.751l1.328,0l0,0.743c0.475,-0.578 1.041,-0.866 1.697,-0.866c0.348,0 0.651,0.071 0.907,0.215c0.257,0.144 0.467,0.361 0.631,0.651c0.239,-0.29 0.497,-0.507 0.774,-0.651c0.277,-0.144 0.573,-0.215 0.887,-0.215c0.4,0 0.738,0.081 1.015,0.243c0.277,0.163 0.484,0.401 0.62,0.715c0.1,0.233 0.149,0.609 0.149,1.128l0,3.482l-1.44,0l0,-3.113c0,-0.54 -0.05,-0.888 -0.149,-1.045c-0.133,-0.206 -0.339,-0.308 -0.615,-0.308c-0.202,0 -0.392,0.061 -0.57,0.185c-0.177,0.123 -0.305,0.303 -0.384,0.54c-0.079,0.238 -0.118,0.613 -0.118,1.126l0,2.615l-1.441,0l0,-2.984c0,-0.53 -0.025,-0.872 -0.077,-1.026c-0.051,-0.154 -0.13,-0.268 -0.238,-0.343c-0.108,-0.075 -0.254,-0.113 -0.438,-0.113c-0.222,0 -0.422,0.06 -0.6,0.179c-0.178,0.12 -0.305,0.293 -0.382,0.518c-0.077,0.226 -0.115,0.6 -0.115,1.123l0,2.646l-1.441,0l0,-5.445Z" style="fill:#fff;fill-rule:nonzero;" stroke-width="1"/><path d="M70.205,12.463l1.435,0.241c-0.184,0.526 -0.476,0.927 -0.874,1.202c-0.398,0.275 -0.896,0.413 -1.494,0.413c-0.947,0 -1.648,-0.31 -2.102,-0.928c-0.359,-0.496 -0.539,-1.121 -0.539,-1.877c0,-0.902 0.236,-1.609 0.708,-2.12c0.472,-0.511 1.068,-0.766 1.789,-0.766c0.81,0 1.449,0.267 1.918,0.802c0.468,0.535 0.692,1.354 0.671,2.458l-3.609,0c0.01,0.428 0.126,0.76 0.348,0.998c0.223,0.237 0.5,0.356 0.831,0.356c0.226,0 0.415,-0.062 0.569,-0.185c0.154,-0.123 0.27,-0.321 0.349,-0.594ZM70.287,11.007c-0.01,-0.417 -0.118,-0.734 -0.323,-0.951c-0.205,-0.218 -0.455,-0.326 -0.749,-0.326c-0.314,0 -0.574,0.114 -0.779,0.343c-0.205,0.229 -0.306,0.541 -0.303,0.934l2.154,0Z" style="fill:#fff;fill-rule:nonzero;" stroke-width="1"/><path d="M77.844,14.196l-1.441,0l0,-2.779c0,-0.588 -0.031,-0.968 -0.092,-1.141c-0.062,-0.173 -0.162,-0.307 -0.3,-0.402c-0.138,-0.096 -0.305,-0.144 -0.5,-0.144c-0.249,0 -0.473,0.068 -0.671,0.205c-0.199,0.137 -0.335,0.318 -0.408,0.543c-0.074,0.226 -0.11,0.643 -0.11,1.251l0,2.467l-1.441,0l0,-5.445l1.338,0l0,0.8c0.475,-0.616 1.073,-0.923 1.795,-0.923c0.317,0 0.608,0.057 0.871,0.171c0.263,0.115 0.462,0.261 0.597,0.439c0.135,0.178 0.229,0.379 0.282,0.605c0.053,0.225 0.08,0.548 0.08,0.969l0,3.384Z" style="fill:#fff;fill-rule:nonzero;" stroke-width="1"/><path d="M81.802,8.751l0,1.148l-0.984,0l0,2.194c0,0.445 0.009,0.704 0.028,0.777c0.019,0.074 0.061,0.134 0.128,0.182c0.067,0.048 0.148,0.072 0.243,0.072c0.134,0 0.327,-0.046 0.58,-0.138l0.123,1.117c-0.335,0.144 -0.715,0.216 -1.138,0.216c-0.26,0 -0.494,-0.044 -0.703,-0.131c-0.208,-0.087 -0.361,-0.2 -0.459,-0.339c-0.097,-0.138 -0.165,-0.325 -0.202,-0.561c-0.031,-0.167 -0.046,-0.506 -0.046,-1.015l0,-2.374l-0.662,0l0,-1.148l0.662,0l0,-1.082l1.446,-0.841l0,1.923l0.984,0Z" style="fill:#fff;fill-rule:nonzero;" stroke-width="1"/></g></svg>