<svg version="1.1" width="29.7810001373291" height="37.84400177001953" viewBox="-0.43699999898672104 -0.3439999967813492 29.7810001373291 37.84400177001953" xmlns="http://www.w3.org/2000/svg" xmlns:xlink="http://www.w3.org/1999/xlink">
  <!-- Exported by Scratch - http://scratch.mit.edu/ -->
  <g id="ID0.3595489370636642">
    <g id="layer1">
      <path id="path3224" fill="#666666" stroke="none" d="M 16.75 0.156 C 11.383 0.156 7.359 2.516 4.688 7.25 L 4.563 7.25 L 4.563 1 L 0.063 1 L 0.063 37 L 4.563 37 L 4.563 16.406 C 4.562 14.648 4.824 13.012 5.375 11.5 C 5.926 9.988 6.684 8.664 7.656 7.563 C 8.629 6.461 9.789 5.621 11.125 5 C 12.461 4.379 13.93 4.063 15.5 4.063 C 21.406 4.063 24.344 8.117 24.344 16.25 L 24.344 37 L 28.844 37 L 28.844 15.063 C 28.844 10.234 27.812 6.555 25.75 4 C 23.687 1.445 20.687 0.156 16.75 0.156 Z " stroke-width="1"/>
    </g>
  </g>
</svg>