<svg version="1.1" width="40.375" height="51.413997650146484" viewBox="0.2889999747276306 0.12300002574920654 40.375 51.413997650146484" xmlns="http://www.w3.org/2000/svg" xmlns:xlink="http://www.w3.org/1999/xlink">
  <!-- Exported by Scratch - http://scratch.mit.edu/ -->
  <g id="ID0.8262594914995134">
    <g id="layer1">
      <g id="text2985">
        <path id="path3301" fill="#666666" stroke="none" d="M 35.313 51.037 L 7.328 10.572 C 6.977 10.056 6.631 9.529 6.291 8.99 C 5.951 8.451 5.676 7.923 5.465 7.408 L 5.289 7.408 C 5.336 7.83 5.377 8.416 5.412 9.166 C 5.447 9.916 5.465 10.853 5.465 11.978 L 5.465 51.037 L 0.789 51.037 L 0.789 0.623 L 5.957 0.623 L 33.484 40.595 C 33.906 41.228 34.287 41.82 34.627 42.371 C 34.967 42.921 35.277 43.431 35.559 43.9 L 35.734 43.9 C 35.641 43.127 35.57 42.259 35.523 41.298 C 35.477 40.337 35.453 39.271 35.453 38.099 L 35.453 0.623 L 40.164 0.623 L 40.164 51.037 Z " stroke-width="1"/>
      </g>
    </g>
  </g>
</svg>