<svg width="112.61400604248047" height="14.907999992370605" viewBox="-0.5000052452087402 -0.5 112.61400604248047 14.907999992370605" version="1.1" xmlns="http://www.w3.org/2000/svg" xmlns:xlink="http://www.w3.org/1999/xlink" xml:space="preserve" style="fill-rule:evenodd;clip-rule:evenodd;stroke-linejoin:round;stroke-miterlimit:1.41421;"><g id="1"><path d="M111.614,6.954c0,-3.838 -3.116,-6.954 -6.954,-6.954l-97.706,0c-3.838,0 -6.954,3.116 -6.954,6.954c0,3.838 3.116,6.954 6.954,6.954l97.706,0c3.838,0 6.954,-3.116 6.954,-6.954Z" style="fill:#9fd3ff;" stroke-width="1"/><path d="M6.776,10.156l-1.572,-5.923l0.804,0l0.901,3.882c0.097,0.407 0.181,0.811 0.251,1.213c0.151,-0.633 0.24,-0.998 0.266,-1.095l1.128,-4l0.945,0l0.849,2.998c0.213,0.743 0.366,1.442 0.46,2.097c0.076,-0.375 0.174,-0.804 0.295,-1.289l0.93,-3.806l0.787,0l-1.624,5.923l-0.755,0l-1.249,-4.513c-0.105,-0.377 -0.167,-0.609 -0.186,-0.695c-0.062,0.272 -0.12,0.503 -0.173,0.695l-1.257,4.513l-0.8,0Z" style="fill:#fff;fill-rule:nonzero;" stroke-width="1"/><path d="M13.039,8.01c0,-0.794 0.221,-1.383 0.662,-1.765c0.369,-0.318 0.819,-0.477 1.35,-0.477c0.59,0 1.072,0.193 1.446,0.58c0.375,0.386 0.562,0.92 0.562,1.602c0,0.552 -0.083,0.986 -0.249,1.303c-0.165,0.316 -0.406,0.562 -0.723,0.737c-0.316,0.175 -0.662,0.263 -1.036,0.263c-0.601,0 -1.086,-0.193 -1.457,-0.578c-0.37,-0.385 -0.555,-0.94 -0.555,-1.665ZM13.786,8.01c0,0.55 0.12,0.961 0.36,1.235c0.239,0.273 0.541,0.41 0.905,0.41c0.361,0 0.661,-0.137 0.901,-0.412c0.24,-0.275 0.359,-0.694 0.359,-1.257c0,-0.53 -0.12,-0.932 -0.361,-1.206c-0.241,-0.273 -0.541,-0.41 -0.899,-0.41c-0.364,0 -0.666,0.136 -0.905,0.408c-0.24,0.272 -0.36,0.683 -0.36,1.232Z" style="fill:#fff;fill-rule:nonzero;" stroke-width="1"/><path d="M18.703,10.156l-1.313,-4.291l0.752,0l0.683,2.477l0.254,0.921c0.011,-0.046 0.085,-0.341 0.222,-0.885l0.683,-2.513l0.748,0l0.642,2.489l0.214,0.82l0.247,-0.828l0.735,-2.481l0.707,0l-1.341,4.291l-0.756,0l-0.683,-2.57l-0.165,-0.731l-0.869,3.301l-0.76,0Z" style="fill:#fff;fill-rule:nonzero;" stroke-width="1"/><path d="M23.621,10.156l0,-0.828l0.828,0l0,0.828c0,0.304 -0.054,0.55 -0.162,0.737c-0.107,0.188 -0.278,0.332 -0.513,0.435l-0.202,-0.311c0.154,-0.068 0.267,-0.167 0.34,-0.297c0.072,-0.131 0.113,-0.319 0.121,-0.564l-0.412,0Z" style="fill:#fff;fill-rule:nonzero;" stroke-width="1"/><path d="M27.738,8.875l0.719,-0.113c0.04,0.288 0.153,0.509 0.337,0.663c0.185,0.153 0.443,0.23 0.774,0.23c0.334,0 0.582,-0.068 0.744,-0.204c0.161,-0.136 0.242,-0.296 0.242,-0.479c0,-0.164 -0.071,-0.294 -0.214,-0.388c-0.1,-0.064 -0.348,-0.147 -0.744,-0.246c-0.533,-0.135 -0.903,-0.251 -1.109,-0.35c-0.206,-0.098 -0.362,-0.234 -0.468,-0.408c-0.107,-0.174 -0.16,-0.366 -0.16,-0.576c0,-0.191 0.044,-0.368 0.131,-0.531c0.088,-0.163 0.207,-0.298 0.358,-0.406c0.113,-0.084 0.267,-0.154 0.463,-0.212c0.195,-0.058 0.404,-0.087 0.628,-0.087c0.337,0 0.632,0.048 0.887,0.145c0.254,0.097 0.442,0.229 0.563,0.394c0.122,0.166 0.205,0.388 0.251,0.665l-0.711,0.097c-0.033,-0.221 -0.126,-0.393 -0.281,-0.517c-0.155,-0.124 -0.374,-0.186 -0.657,-0.186c-0.334,0 -0.572,0.055 -0.715,0.166c-0.142,0.11 -0.214,0.239 -0.214,0.388c0,0.094 0.03,0.179 0.089,0.254c0.059,0.078 0.152,0.143 0.279,0.194c0.073,0.027 0.287,0.089 0.642,0.186c0.515,0.137 0.874,0.25 1.077,0.337c0.203,0.088 0.363,0.215 0.479,0.382c0.116,0.167 0.174,0.374 0.174,0.622c0,0.243 -0.071,0.471 -0.213,0.685c-0.141,0.214 -0.345,0.38 -0.612,0.497c-0.266,0.117 -0.568,0.176 -0.905,0.176c-0.557,0 -0.982,-0.116 -1.275,-0.348c-0.292,-0.231 -0.478,-0.575 -0.559,-1.03Z" style="fill:#fff;fill-rule:nonzero;" stroke-width="1"/><path d="M34.978,10.156l0,-0.63c-0.334,0.484 -0.788,0.727 -1.361,0.727c-0.253,0 -0.49,-0.049 -0.709,-0.146c-0.22,-0.097 -0.383,-0.218 -0.489,-0.365c-0.107,-0.147 -0.181,-0.327 -0.225,-0.54c-0.029,-0.142 -0.044,-0.369 -0.044,-0.678l0,-2.659l0.727,0l0,2.38c0,0.38 0.015,0.635 0.045,0.767c0.046,0.192 0.143,0.342 0.291,0.451c0.148,0.109 0.331,0.164 0.549,0.164c0.218,0 0.423,-0.056 0.614,-0.168c0.192,-0.112 0.327,-0.264 0.406,-0.457c0.08,-0.192 0.12,-0.472 0.12,-0.838l0,-2.299l0.727,0l0,4.291l-0.651,0Z" style="fill:#fff;fill-rule:nonzero;" stroke-width="1"/><path d="M39.568,8.584l0.715,0.093c-0.078,0.493 -0.278,0.879 -0.6,1.158c-0.321,0.279 -0.717,0.418 -1.185,0.418c-0.588,0 -1.06,-0.192 -1.417,-0.576c-0.356,-0.384 -0.535,-0.934 -0.535,-1.65c0,-0.464 0.077,-0.869 0.23,-1.217c0.154,-0.347 0.388,-0.608 0.701,-0.781c0.314,-0.174 0.656,-0.261 1.025,-0.261c0.466,0 0.847,0.118 1.143,0.354c0.296,0.235 0.486,0.57 0.57,1.004l-0.707,0.109c-0.068,-0.289 -0.187,-0.505 -0.358,-0.651c-0.171,-0.145 -0.378,-0.218 -0.62,-0.218c-0.366,0 -0.664,0.131 -0.893,0.394c-0.229,0.263 -0.343,0.678 -0.343,1.246c0,0.577 0.11,0.996 0.331,1.257c0.221,0.261 0.509,0.392 0.865,0.392c0.285,0 0.523,-0.088 0.715,-0.263c0.191,-0.175 0.312,-0.444 0.363,-0.808Z" style="fill:#fff;fill-rule:nonzero;" stroke-width="1"/><path d="M40.906,10.156l0,-5.923l0.727,0l0,2.125c0.339,-0.393 0.768,-0.59 1.285,-0.59c0.318,0 0.594,0.063 0.828,0.188c0.235,0.125 0.402,0.298 0.503,0.519c0.101,0.221 0.152,0.541 0.152,0.962l0,2.719l-0.728,0l0,-2.719c0,-0.364 -0.078,-0.629 -0.236,-0.794c-0.158,-0.166 -0.38,-0.249 -0.669,-0.249c-0.215,0 -0.418,0.056 -0.608,0.168c-0.19,0.112 -0.325,0.263 -0.406,0.454c-0.081,0.192 -0.121,0.456 -0.121,0.792l0,2.348l-0.727,0Z" style="fill:#fff;fill-rule:nonzero;" stroke-width="1"/><path d="M50.607,9.627c-0.269,0.229 -0.529,0.39 -0.778,0.484c-0.249,0.095 -0.516,0.142 -0.802,0.142c-0.471,0 -0.834,-0.115 -1.087,-0.346c-0.253,-0.23 -0.38,-0.524 -0.38,-0.882c0,-0.211 0.048,-0.402 0.144,-0.576c0.095,-0.174 0.221,-0.313 0.376,-0.418c0.154,-0.105 0.329,-0.185 0.523,-0.239c0.143,-0.037 0.358,-0.074 0.646,-0.109c0.587,-0.07 1.02,-0.153 1.297,-0.25c0.003,-0.1 0.004,-0.163 0.004,-0.19c0,-0.297 -0.068,-0.505 -0.206,-0.627c-0.186,-0.164 -0.462,-0.246 -0.828,-0.246c-0.342,0 -0.595,0.06 -0.758,0.18c-0.163,0.12 -0.283,0.332 -0.361,0.636l-0.711,-0.097c0.064,-0.304 0.171,-0.55 0.319,-0.737c0.148,-0.187 0.362,-0.331 0.642,-0.432c0.28,-0.102 0.605,-0.152 0.974,-0.152c0.366,0 0.664,0.043 0.893,0.129c0.229,0.086 0.397,0.195 0.505,0.326c0.108,0.13 0.183,0.295 0.226,0.495c0.025,0.123 0.037,0.347 0.037,0.67l0,0.97c0,0.676 0.015,1.104 0.046,1.283c0.031,0.179 0.092,0.351 0.184,0.515l-0.76,0c-0.075,-0.151 -0.124,-0.327 -0.145,-0.529ZM50.546,8.002c-0.264,0.108 -0.66,0.2 -1.188,0.275c-0.299,0.043 -0.51,0.092 -0.634,0.146c-0.124,0.053 -0.22,0.132 -0.287,0.236c-0.067,0.104 -0.101,0.219 -0.101,0.345c0,0.194 0.074,0.356 0.22,0.485c0.147,0.13 0.362,0.194 0.645,0.194c0.28,0 0.529,-0.061 0.747,-0.184c0.218,-0.122 0.379,-0.29 0.481,-0.503c0.078,-0.164 0.117,-0.406 0.117,-0.727l0,-0.267Z" style="fill:#fff;fill-rule:nonzero;" stroke-width="1"/><path d="M57.508,8.584l0.715,0.093c-0.078,0.493 -0.278,0.879 -0.6,1.158c-0.322,0.279 -0.717,0.418 -1.186,0.418c-0.587,0 -1.059,-0.192 -1.416,-0.576c-0.357,-0.384 -0.535,-0.934 -0.535,-1.65c0,-0.464 0.076,-0.869 0.23,-1.217c0.154,-0.347 0.387,-0.608 0.701,-0.781c0.314,-0.174 0.655,-0.261 1.024,-0.261c0.466,0 0.847,0.118 1.144,0.354c0.296,0.235 0.486,0.57 0.569,1.004l-0.707,0.109c-0.067,-0.289 -0.186,-0.505 -0.357,-0.651c-0.171,-0.145 -0.378,-0.218 -0.62,-0.218c-0.367,0 -0.664,0.131 -0.893,0.394c-0.229,0.263 -0.344,0.678 -0.344,1.246c0,0.577 0.111,0.996 0.332,1.257c0.22,0.261 0.509,0.392 0.864,0.392c0.286,0 0.524,-0.088 0.715,-0.263c0.192,-0.175 0.313,-0.444 0.364,-0.808Z" style="fill:#fff;fill-rule:nonzero;" stroke-width="1"/><path d="M58.575,8.01c0,-0.794 0.221,-1.383 0.662,-1.765c0.369,-0.318 0.819,-0.477 1.35,-0.477c0.59,0 1.072,0.193 1.446,0.58c0.375,0.386 0.562,0.92 0.562,1.602c0,0.552 -0.083,0.986 -0.249,1.303c-0.165,0.316 -0.406,0.562 -0.723,0.737c-0.316,0.175 -0.662,0.263 -1.036,0.263c-0.601,0 -1.086,-0.193 -1.457,-0.578c-0.37,-0.385 -0.555,-0.94 -0.555,-1.665ZM59.322,8.01c0,0.55 0.12,0.961 0.36,1.235c0.239,0.273 0.541,0.41 0.905,0.41c0.361,0 0.661,-0.137 0.901,-0.412c0.24,-0.275 0.359,-0.694 0.359,-1.257c0,-0.53 -0.12,-0.932 -0.361,-1.206c-0.241,-0.273 -0.541,-0.41 -0.899,-0.41c-0.364,0 -0.666,0.136 -0.905,0.408c-0.24,0.272 -0.36,0.683 -0.36,1.232Z" style="fill:#fff;fill-rule:nonzero;" stroke-width="1"/><path d="M63.447,10.156l0,-4.291l0.651,0l0,0.602c0.135,-0.21 0.314,-0.379 0.537,-0.507c0.224,-0.128 0.478,-0.192 0.764,-0.192c0.318,0 0.578,0.066 0.782,0.198c0.203,0.132 0.347,0.316 0.43,0.554c0.34,-0.501 0.781,-0.752 1.325,-0.752c0.426,0 0.753,0.118 0.982,0.354c0.229,0.235 0.344,0.598 0.344,1.088l0,2.946l-0.724,0l0,-2.703c0,-0.291 -0.023,-0.5 -0.07,-0.628c-0.047,-0.128 -0.133,-0.231 -0.257,-0.31c-0.124,-0.078 -0.269,-0.117 -0.436,-0.117c-0.302,0 -0.552,0.101 -0.752,0.301c-0.199,0.201 -0.299,0.522 -0.299,0.964l0,2.493l-0.727,0l0,-2.788c0,-0.323 -0.059,-0.566 -0.178,-0.727c-0.118,-0.162 -0.312,-0.243 -0.582,-0.243c-0.204,0 -0.394,0.054 -0.567,0.162c-0.174,0.108 -0.3,0.265 -0.378,0.473c-0.078,0.207 -0.117,0.506 -0.117,0.897l0,2.226l-0.728,0Z" style="fill:#fff;fill-rule:nonzero;" stroke-width="1"/><path d="M70.34,11.8l0,-5.935l0.663,0l0,0.558c0.156,-0.219 0.333,-0.382 0.529,-0.491c0.197,-0.109 0.435,-0.164 0.716,-0.164c0.366,0 0.689,0.094 0.969,0.283c0.28,0.188 0.492,0.454 0.635,0.798c0.142,0.343 0.214,0.72 0.214,1.129c0,0.439 -0.079,0.834 -0.237,1.186c-0.157,0.352 -0.386,0.621 -0.686,0.808c-0.301,0.187 -0.617,0.281 -0.948,0.281c-0.242,0 -0.46,-0.051 -0.652,-0.154c-0.193,-0.102 -0.351,-0.231 -0.475,-0.388l0,2.089l-0.728,0ZM70.999,8.035c0,0.552 0.112,0.96 0.335,1.224c0.224,0.264 0.495,0.396 0.813,0.396c0.323,0 0.6,-0.137 0.83,-0.41c0.23,-0.274 0.345,-0.697 0.345,-1.271c0,-0.547 -0.112,-0.956 -0.337,-1.228c-0.225,-0.272 -0.494,-0.408 -0.806,-0.408c-0.31,0 -0.584,0.144 -0.822,0.434c-0.239,0.29 -0.358,0.71 -0.358,1.263Z" style="fill:#fff;fill-rule:nonzero;" stroke-width="1"/><rect x="74.926" y="4.233" width="0.727" height="5.923" style="fill:#fff;fill-rule:nonzero;" stroke-width="1"/><path d="M79.718,8.774l0.752,0.093c-0.119,0.439 -0.338,0.78 -0.659,1.022c-0.32,0.243 -0.73,0.364 -1.228,0.364c-0.628,0 -1.125,-0.193 -1.493,-0.58c-0.368,-0.386 -0.551,-0.929 -0.551,-1.626c0,-0.722 0.185,-1.282 0.557,-1.681c0.372,-0.399 0.854,-0.598 1.447,-0.598c0.573,0 1.042,0.195 1.406,0.586c0.363,0.39 0.545,0.94 0.545,1.648c0,0.043 -0.001,0.108 -0.004,0.194l-3.2,0c0.027,0.472 0.16,0.833 0.4,1.083c0.24,0.251 0.539,0.376 0.897,0.376c0.267,0 0.494,-0.07 0.683,-0.21c0.188,-0.14 0.338,-0.364 0.448,-0.671ZM77.33,7.598l2.396,0c-0.032,-0.361 -0.123,-0.631 -0.274,-0.812c-0.232,-0.28 -0.532,-0.42 -0.901,-0.42c-0.334,0 -0.615,0.112 -0.843,0.335c-0.227,0.224 -0.353,0.523 -0.378,0.897Z" style="fill:#fff;fill-rule:nonzero;" stroke-width="1"/><path d="M80.898,10.156l1.568,-2.23l-1.451,-2.061l0.909,0l0.659,1.006c0.124,0.191 0.224,0.352 0.299,0.481c0.119,-0.178 0.228,-0.336 0.327,-0.473l0.724,-1.014l0.868,0l-1.483,2.02l1.596,2.271l-0.893,0l-0.88,-1.333l-0.235,-0.36l-1.127,1.693l-0.881,0Z" style="fill:#fff;fill-rule:nonzero;" stroke-width="1"/><rect x="87.803" y="4.233" width="0.727" height="5.923" style="fill:#fff;fill-rule:nonzero;" stroke-width="1"/><path d="M92.595,8.774l0.752,0.093c-0.119,0.439 -0.338,0.78 -0.659,1.022c-0.32,0.243 -0.73,0.364 -1.228,0.364c-0.628,0 -1.125,-0.193 -1.493,-0.58c-0.368,-0.386 -0.552,-0.929 -0.552,-1.626c0,-0.722 0.186,-1.282 0.558,-1.681c0.372,-0.399 0.854,-0.598 1.447,-0.598c0.573,0 1.042,0.195 1.406,0.586c0.363,0.39 0.545,0.94 0.545,1.648c0,0.043 -0.001,0.108 -0.004,0.194l-3.2,0c0.027,0.472 0.16,0.833 0.4,1.083c0.24,0.251 0.539,0.376 0.897,0.376c0.267,0 0.494,-0.07 0.683,-0.21c0.188,-0.14 0.338,-0.364 0.448,-0.671ZM90.207,7.598l2.396,0c-0.032,-0.361 -0.124,-0.631 -0.274,-0.812c-0.232,-0.28 -0.532,-0.42 -0.901,-0.42c-0.334,0 -0.615,0.112 -0.843,0.335c-0.227,0.224 -0.353,0.523 -0.378,0.897Z" style="fill:#fff;fill-rule:nonzero;" stroke-width="1"/><path d="M95.452,10.156l-1.632,-4.291l0.767,0l0.921,2.57c0.1,0.277 0.192,0.565 0.275,0.864c0.065,-0.226 0.155,-0.498 0.271,-0.816l0.954,-2.618l0.747,0l-1.624,4.291l-0.679,0Z" style="fill:#fff;fill-rule:nonzero;" stroke-width="1"/><path d="M101.335,8.774l0.751,0.093c-0.118,0.439 -0.338,0.78 -0.658,1.022c-0.321,0.243 -0.73,0.364 -1.229,0.364c-0.627,0 -1.125,-0.193 -1.492,-0.58c-0.368,-0.386 -0.552,-0.929 -0.552,-1.626c0,-0.722 0.186,-1.282 0.558,-1.681c0.371,-0.399 0.853,-0.598 1.446,-0.598c0.574,0 1.042,0.195 1.406,0.586c0.364,0.39 0.546,0.94 0.546,1.648c0,0.043 -0.002,0.108 -0.004,0.194l-3.2,0c0.026,0.472 0.16,0.833 0.4,1.083c0.239,0.251 0.538,0.376 0.897,0.376c0.266,0 0.494,-0.07 0.682,-0.21c0.189,-0.14 0.338,-0.364 0.449,-0.671ZM98.947,7.598l2.396,0c-0.032,-0.361 -0.124,-0.631 -0.275,-0.812c-0.231,-0.28 -0.532,-0.42 -0.901,-0.42c-0.334,0 -0.615,0.112 -0.842,0.335c-0.228,0.224 -0.354,0.523 -0.378,0.897Z" style="fill:#fff;fill-rule:nonzero;" stroke-width="1"/><rect x="102.983" y="4.233" width="0.727" height="5.923" style="fill:#fff;fill-rule:nonzero;" stroke-width="1"/><path d="M105.226,8.685l-0.222,-3.139l0,-1.313l0.901,0l0,1.313l-0.211,3.139l-0.468,0ZM105.036,10.156l0,-0.828l0.836,0l0,0.828l-0.836,0Z" style="fill:#fff;fill-rule:nonzero;" stroke-width="1"/></g></svg>