<svg version="1.1" width="32.0629997253418" height="52.25" viewBox="0.03100001811981201 0.25 32.0629997253418 52.25" xmlns="http://www.w3.org/2000/svg" xmlns:xlink="http://www.w3.org/1999/xlink">
  <!-- Exported by Scratch - http://scratch.mit.edu/ -->
  <g id="ID0.757017613388598">
    <g id="layer1">
      <path id="path3036" fill="#666666" stroke="none" d="M 21.938 0.75 C 19.969 0.75 18.18 1.117 16.563 1.844 C 14.945 2.57 13.535 3.594 12.375 4.906 C 11.215 6.219 10.332 7.777 9.688 9.594 C 9.043 11.41 8.719 13.414 8.719 15.594 L 8.719 25.156 L 1.219 25.156 L 1.219 29.219 L 8.719 29.219 L 8.719 36.219 C 8.719 42.125 5.992 46.086 0.531 48.125 L 0.531 52 L 31.594 52 L 31.594 48.063 L 6.063 48.063 C 10.82 45.672 13.219 41.344 13.219 35.063 L 13.219 29.219 L 23.781 29.219 L 23.781 25.156 L 13.219 25.156 L 13.219 16.094 C 13.219 12.32 13.961 9.484 15.438 7.563 C 16.914 5.641 19.07 4.688 21.906 4.688 C 24.32 4.688 26.625 5.274 28.875 6.469 L 28.875 2.094 C 26.695 1.203 24.398 0.75 21.938 0.75 Z " stroke-width="1"/>
    </g>
  </g>
</svg>