<svg width="25" height="25" viewBox="-0.5 -0.5 25 25" version="1.1" xmlns="http://www.w3.org/2000/svg" xmlns:xlink="http://www.w3.org/1999/xlink" xml:space="preserve" style="fill-rule:evenodd;clip-rule:evenodd;stroke-linecap:square;stroke-miterlimit:1.41421;">
    <g>
        <g>
            <g id="Orange Door">
                <g id="Basic Block">
                    <path d="M 24 6 C 24 2.689 21.311 0 18 0 L 6 0 C 2.689 0 0 2.689 0 6 L 0 18 C 0 21.311 2.689 24 6 24 L 18 24 C 21.311 24 24 21.311 24 18 L 24 6 Z " style="fill:white;" stroke-width="1"/>
                    <path d="M 6 24 L 5.923 24 L 5.845 23.998 L 5.768 23.996 L 5.691 23.992 L 5.615 23.988 L 5.539 23.982 L 5.463 23.976 L 5.387 23.969 L 5.311 23.961 L 5.236 23.952 L 5.161 23.942 L 5.087 23.931 L 5.012 23.919 L 4.938 23.906 L 4.865 23.893 L 4.791 23.878 L 4.718 23.863 L 4.646 23.846 L 4.573 23.829 L 4.501 23.811 L 4.43 23.792 L 4.358 23.772 L 4.287 23.752 L 4.217 23.73 L 4.146 23.708 L 4.076 23.685 L 4.007 23.661 L 3.938 23.636 L 3.869 23.61 L 3.801 23.584 L 3.733 23.556 L 3.665 23.528 L 3.598 23.499 L 3.532 23.47 L 3.466 23.439 L 3.4 23.408 L 3.334 23.376 L 3.269 23.343 L 3.205 23.31 L 3.141 23.275 L 3.078 23.24 L 3.014 23.205 L 2.952 23.168 L 2.89 23.131 L 2.828 23.093 L 2.767 23.054 L 2.706 23.015 L 2.646 22.975 L 2.587 22.934 L 2.528 22.892 L 2.469 22.85 L 2.411 22.807 L 2.354 22.764 L 2.297 22.72 L 2.24 22.675 L 2.184 22.629 L 2.129 22.583 L 2.074 22.536 L 2.02 22.489 L 1.967 22.441 L 1.914 22.392 L 1.861 22.342 L 1.809 22.292 L 1.758 22.242 L 1.708 22.191 L 1.658 22.139 L 1.608 22.086 L 1.559 22.033 L 1.511 21.98 L 1.464 21.926 L 1.417 21.871 L 1.371 21.816 L 1.325 21.76 L 1.28 21.703 L 1.236 21.646 L 1.193 21.589 L 1.15 21.531 L 1.108 21.472 L 1.066 21.413 L 1.025 21.354 L 0.985 21.294 L 0.946 21.233 L 0.907 21.172 L 0.869 21.11 L 0.832 21.048 L 0.795 20.986 L 0.76 20.922 L 0.725 20.859 L 0.69 20.795 L 0.657 20.731 L 0.624 20.666 L 0.592 20.6 L 0.561 20.534 L 0.53 20.468 L 0.501 20.402 L 0.472 20.335 L 0.444 20.267 L 0.416 20.199 L 0.39 20.131 L 0.364 20.062 L 0.339 19.993 L 0.315 19.924 L 0.292 19.854 L 0.27 19.783 L 0.248 19.713 L 0.228 19.642 L 0.208 19.57 L 0.189 19.499 L 0.171 19.427 L 0.154 19.354 L 0.137 19.282 L 0.122 19.209 L 0.107 19.135 L 0.094 19.062 L 0.081 18.988 L 0.069 18.913 L 0.058 18.839 L 0.048 18.764 L 0.039 18.689 L 0.031 18.613 L 0.024 18.537 L 0.018 18.461 L 0.012 18.385 L 0.008 18.309 L 0.004 18.232 L 0.002 18.155 L 0 18.077 L 0 18 L 0 6 L 0 5.923 L 0.002 5.845 L 0.004 5.768 L 0.008 5.691 L 0.012 5.615 L 0.018 5.539 L 0.024 5.463 L 0.031 5.387 L 0.039 5.311 L 0.048 5.236 L 0.058 5.161 L 0.069 5.087 L 0.081 5.012 L 0.094 4.938 L 0.107 4.865 L 0.122 4.791 L 0.137 4.718 L 0.154 4.646 L 0.171 4.573 L 0.189 4.501 L 0.208 4.43 L 0.228 4.358 L 0.248 4.287 L 0.27 4.217 L 0.292 4.146 L 0.315 4.076 L 0.339 4.007 L 0.364 3.938 L 0.39 3.869 L 0.416 3.801 L 0.444 3.733 L 0.472 3.665 L 0.501 3.598 L 0.53 3.532 L 0.561 3.466 L 0.592 3.4 L 0.624 3.334 L 0.657 3.269 L 0.69 3.205 L 0.725 3.141 L 0.76 3.078 L 0.795 3.014 L 0.832 2.952 L 0.869 2.89 L 0.907 2.828 L 0.946 2.767 L 0.985 2.706 L 1.025 2.646 L 1.066 2.587 L 1.108 2.528 L 1.15 2.469 L 1.193 2.411 L 1.236 2.354 L 1.28 2.297 L 1.325 2.24 L 1.371 2.184 L 1.417 2.129 L 1.464 2.074 L 1.511 2.02 L 1.559 1.967 L 1.608 1.914 L 1.658 1.861 L 1.708 1.809 L 1.758 1.758 L 1.809 1.708 L 1.861 1.658 L 1.914 1.608 L 1.967 1.559 L 2.02 1.511 L 2.074 1.464 L 2.129 1.417 L 2.184 1.371 L 2.24 1.325 L 2.297 1.28 L 2.354 1.236 L 2.411 1.193 L 2.469 1.15 L 2.528 1.108 L 2.587 1.066 L 2.646 1.025 L 2.706 0.985 L 2.767 0.946 L 2.828 0.907 L 2.89 0.869 L 2.952 0.832 L 3.014 0.795 L 3.078 0.76 L 3.141 0.725 L 3.205 0.69 L 3.269 0.657 L 3.334 0.624 L 3.4 0.592 L 3.466 0.561 L 3.532 0.53 L 3.598 0.501 L 3.665 0.472 L 3.733 0.444 L 3.801 0.416 L 3.869 0.39 L 3.938 0.364 L 4.007 0.339 L 4.076 0.315 L 4.146 0.292 L 4.217 0.27 L 4.287 0.248 L 4.358 0.228 L 4.43 0.208 L 4.501 0.189 L 4.573 0.171 L 4.646 0.154 L 4.718 0.137 L 4.791 0.122 L 4.865 0.107 L 4.938 0.094 L 5.012 0.081 L 5.087 0.069 L 5.161 0.058 L 5.236 0.048 L 5.311 0.039 L 5.387 0.031 L 5.463 0.024 L 5.539 0.018 L 5.615 0.012 L 5.691 0.008 L 5.768 0.004 L 5.845 0.002 L 5.923 0 L 6 0 L 18 0 L 18.077 0 L 18.155 0.002 L 18.232 0.004 L 18.309 0.008 L 18.385 0.012 L 18.461 0.018 L 18.537 0.024 L 18.613 0.031 L 18.689 0.039 L 18.764 0.048 L 18.839 0.058 L 18.913 0.069 L 18.988 0.081 L 19.062 0.094 L 19.135 0.107 L 19.209 0.122 L 19.282 0.137 L 19.354 0.154 L 19.427 0.171 L 19.499 0.189 L 19.57 0.208 L 19.642 0.228 L 19.713 0.248 L 19.783 0.27 L 19.854 0.292 L 19.924 0.315 L 19.993 0.339 L 20.062 0.364 L 20.131 0.39 L 20.199 0.416 L 20.267 0.444 L 20.335 0.472 L 20.402 0.501 L 20.468 0.53 L 20.534 0.561 L 20.6 0.592 L 20.666 0.624 L 20.731 0.657 L 20.795 0.69 L 20.859 0.725 L 20.922 0.76 L 20.986 0.795 L 21.048 0.832 L 21.11 0.869 L 21.172 0.907 L 21.233 0.946 L 21.294 0.985 L 21.354 1.025 L 21.413 1.066 L 21.472 1.108 L 21.531 1.15 L 21.589 1.193 L 21.646 1.236 L 21.703 1.28 L 21.76 1.325 L 21.816 1.371 L 21.871 1.417 L 21.926 1.464 L 21.98 1.511 L 22.033 1.559 L 22.086 1.608 L 22.139 1.658 L 22.191 1.708 L 22.242 1.758 L 22.292 1.809 L 22.342 1.861 L 22.392 1.914 L 22.441 1.967 L 22.489 2.02 L 22.536 2.074 L 22.583 2.129 L 22.629 2.184 L 22.675 2.24 L 22.72 2.297 L 22.764 2.354 L 22.807 2.411 L 22.85 2.469 L 22.892 2.528 L 22.934 2.587 L 22.975 2.646 L 23.015 2.706 L 23.054 2.767 L 23.093 2.828 L 23.131 2.89 L 23.168 2.952 L 23.205 3.014 L 23.24 3.078 L 23.275 3.141 L 23.31 3.205 L 23.343 3.269 L 23.376 3.334 L 23.408 3.4 L 23.439 3.466 L 23.47 3.532 L 23.499 3.598 L 23.528 3.665 L 23.556 3.733 L 23.584 3.801 L 23.61 3.869 L 23.636 3.938 L 23.661 4.007 L 23.685 4.076 L 23.708 4.146 L 23.73 4.217 L 23.752 4.287 L 23.772 4.358 L 23.792 4.43 L 23.811 4.501 L 23.829 4.573 L 23.846 4.646 L 23.863 4.718 L 23.878 4.791 L 23.893 4.865 L 23.906 4.938 L 23.919 5.012 L 23.931 5.087 L 23.942 5.161 L 23.952 5.236 L 23.961 5.311 L 23.969 5.387 L 23.976 5.463 L 23.982 5.539 L 23.988 5.615 L 23.992 5.691 L 23.996 5.768 L 23.998 5.845 L 24 5.923 L 24 6 L 24 18 L 24 18.077 L 23.998 18.155 L 23.996 18.232 L 23.992 18.309 L 23.988 18.385 L 23.982 18.461 L 23.976 18.537 L 23.969 18.613 L 23.961 18.689 L 23.952 18.764 L 23.942 18.839 L 23.931 18.913 L 23.919 18.988 L 23.906 19.062 L 23.893 19.135 L 23.878 19.209 L 23.863 19.282 L 23.846 19.354 L 23.829 19.427 L 23.811 19.499 L 23.792 19.57 L 23.772 19.642 L 23.752 19.713 L 23.73 19.783 L 23.708 19.854 L 23.685 19.924 L 23.661 19.993 L 23.636 20.062 L 23.61 20.131 L 23.584 20.199 L 23.556 20.267 L 23.528 20.335 L 23.499 20.402 L 23.47 20.468 L 23.439 20.534 L 23.408 20.6 L 23.376 20.666 L 23.343 20.731 L 23.31 20.795 L 23.275 20.859 L 23.24 20.922 L 23.205 20.986 L 23.168 21.048 L 23.131 21.11 L 23.093 21.172 L 23.054 21.233 L 23.015 21.294 L 22.975 21.354 L 22.934 21.413 L 22.892 21.472 L 22.85 21.531 L 22.807 21.589 L 22.764 21.646 L 22.72 21.703 L 22.675 21.76 L 22.629 21.816 L 22.583 21.871 L 22.536 21.926 L 22.489 21.98 L 22.441 22.033 L 22.392 22.086 L 22.342 22.139 L 22.292 22.191 L 22.242 22.242 L 22.191 22.292 L 22.139 22.342 L 22.086 22.392 L 22.033 22.441 L 21.98 22.489 L 21.926 22.536 L 21.871 22.583 L 21.816 22.629 L 21.76 22.675 L 21.703 22.72 L 21.646 22.764 L 21.589 22.807 L 21.531 22.85 L 21.472 22.892 L 21.413 22.934 L 21.354 22.975 L 21.294 23.015 L 21.233 23.054 L 21.172 23.093 L 21.11 23.131 L 21.048 23.168 L 20.986 23.205 L 20.922 23.24 L 20.859 23.275 L 20.795 23.31 L 20.731 23.343 L 20.666 23.376 L 20.6 23.408 L 20.534 23.439 L 20.468 23.47 L 20.402 23.499 L 20.335 23.528 L 20.267 23.556 L 20.199 23.584 L 20.131 23.61 L 20.062 23.636 L 19.993 23.661 L 19.924 23.685 L 19.854 23.708 L 19.783 23.73 L 19.713 23.752 L 19.642 23.772 L 19.57 23.792 L 19.499 23.811 L 19.427 23.829 L 19.354 23.846 L 19.282 23.863 L 19.209 23.878 L 19.135 23.893 L 19.062 23.906 L 18.988 23.919 L 18.913 23.931 L 18.839 23.942 L 18.764 23.952 L 18.689 23.961 L 18.613 23.969 L 18.537 23.976 L 18.461 23.982 L 18.385 23.988 L 18.309 23.992 L 18.232 23.996 L 18.155 23.998 L 18.077 24 L 18 24 L 6 24 Z M 6.004 22.611 L 17.996 22.611 L 18.06 22.611 L 18.119 22.61 L 18.179 22.608 L 18.238 22.605 L 18.297 22.602 L 18.356 22.598 L 18.414 22.593 L 18.473 22.587 L 18.531 22.581 L 18.588 22.574 L 18.646 22.566 L 18.703 22.558 L 18.76 22.549 L 18.817 22.539 L 18.874 22.528 L 18.93 22.517 L 18.986 22.506 L 19.042 22.493 L 19.097 22.48 L 19.152 22.466 L 19.207 22.451 L 19.262 22.436 L 19.316 22.42 L 19.371 22.404 L 19.424 22.387 L 19.478 22.369 L 19.531 22.351 L 19.584 22.332 L 19.637 22.312 L 19.689 22.292 L 19.741 22.271 L 19.793 22.249 L 19.845 22.227 L 19.896 22.204 L 19.947 22.181 L 19.997 22.157 L 20.047 22.132 L 20.097 22.107 L 20.147 22.081 L 20.196 22.055 L 20.245 22.028 L 20.293 22.001 L 20.341 21.973 L 20.389 21.944 L 20.436 21.915 L 20.483 21.885 L 20.53 21.855 L 20.576 21.824 L 20.622 21.793 L 20.667 21.761 L 20.712 21.728 L 20.757 21.695 L 20.801 21.662 L 20.845 21.628 L 20.888 21.593 L 20.932 21.558 L 20.974 21.522 L 21.016 21.486 L 21.058 21.45 L 21.099 21.413 L 21.14 21.375 L 21.18 21.337 L 21.22 21.299 L 21.26 21.26 L 21.299 21.22 L 21.337 21.18 L 21.375 21.14 L 21.413 21.099 L 21.45 21.058 L 21.486 21.016 L 21.522 20.974 L 21.558 20.932 L 21.593 20.889 L 21.628 20.845 L 21.662 20.801 L 21.695 20.757 L 21.728 20.712 L 21.761 20.667 L 21.793 20.622 L 21.824 20.576 L 21.855 20.53 L 21.885 20.483 L 21.915 20.436 L 21.944 20.389 L 21.973 20.341 L 22.001 20.293 L 22.028 20.244 L 22.055 20.196 L 22.081 20.147 L 22.107 20.097 L 22.132 20.047 L 22.157 19.997 L 22.181 19.946 L 22.204 19.896 L 22.227 19.845 L 22.249 19.793 L 22.271 19.741 L 22.292 19.689 L 22.312 19.637 L 22.332 19.584 L 22.351 19.532 L 22.369 19.478 L 22.387 19.424 L 22.404 19.371 L 22.42 19.317 L 22.436 19.262 L 22.451 19.207 L 22.466 19.152 L 22.48 19.097 L 22.493 19.042 L 22.505 18.986 L 22.517 18.93 L 22.529 18.874 L 22.539 18.817 L 22.549 18.76 L 22.558 18.703 L 22.566 18.646 L 22.574 18.588 L 22.581 18.531 L 22.587 18.473 L 22.593 18.414 L 22.598 18.356 L 22.602 18.297 L 22.605 18.238 L 22.608 18.179 L 22.61 18.12 L 22.611 18.06 L 22.611 17.996 L 22.611 6.004 L 22.611 5.94 L 22.61 5.88 L 22.608 5.821 L 22.605 5.762 L 22.602 5.703 L 22.598 5.644 L 22.593 5.586 L 22.587 5.527 L 22.581 5.469 L 22.574 5.412 L 22.566 5.354 L 22.558 5.297 L 22.549 5.24 L 22.539 5.183 L 22.529 5.126 L 22.517 5.07 L 22.505 5.014 L 22.493 4.958 L 22.48 4.903 L 22.466 4.848 L 22.451 4.793 L 22.436 4.738 L 22.42 4.683 L 22.404 4.629 L 22.387 4.576 L 22.369 4.522 L 22.351 4.468 L 22.332 4.416 L 22.312 4.363 L 22.292 4.311 L 22.271 4.259 L 22.249 4.207 L 22.227 4.155 L 22.204 4.104 L 22.181 4.053 L 22.157 4.003 L 22.132 3.953 L 22.107 3.903 L 22.081 3.853 L 22.055 3.804 L 22.028 3.755 L 22.001 3.707 L 21.973 3.659 L 21.944 3.611 L 21.915 3.564 L 21.885 3.517 L 21.855 3.47 L 21.824 3.424 L 21.793 3.378 L 21.761 3.333 L 21.728 3.288 L 21.695 3.243 L 21.662 3.199 L 21.628 3.155 L 21.593 3.111 L 21.558 3.068 L 21.522 3.026 L 21.487 2.984 L 21.45 2.942 L 21.413 2.901 L 21.375 2.86 L 21.337 2.82 L 21.299 2.78 L 21.26 2.74 L 21.22 2.701 L 21.18 2.663 L 21.14 2.625 L 21.099 2.587 L 21.058 2.55 L 21.016 2.514 L 20.974 2.478 L 20.932 2.442 L 20.888 2.407 L 20.845 2.372 L 20.801 2.338 L 20.757 2.305 L 20.712 2.272 L 20.667 2.239 L 20.622 2.207 L 20.576 2.176 L 20.53 2.145 L 20.483 2.115 L 20.436 2.085 L 20.389 2.056 L 20.341 2.027 L 20.293 1.999 L 20.245 1.972 L 20.196 1.945 L 20.147 1.919 L 20.097 1.893 L 20.047 1.868 L 19.997 1.843 L 19.947 1.819 L 19.896 1.796 L 19.845 1.773 L 19.793 1.751 L 19.741 1.729 L 19.689 1.708 L 19.637 1.688 L 19.584 1.668 L 19.531 1.649 L 19.478 1.631 L 19.424 1.613 L 19.371 1.596 L 19.316 1.58 L 19.262 1.564 L 19.207 1.549 L 19.152 1.534 L 19.097 1.52 L 19.042 1.507 L 18.986 1.494 L 18.93 1.483 L 18.874 1.471 L 18.817 1.461 L 18.76 1.451 L 18.703 1.442 L 18.646 1.434 L 18.588 1.426 L 18.531 1.419 L 18.473 1.413 L 18.414 1.407 L 18.356 1.402 L 18.297 1.398 L 18.238 1.395 L 18.179 1.392 L 18.12 1.39 L 18.06 1.389 L 17.996 1.389 L 6.004 1.389 L 5.94 1.389 L 5.88 1.39 L 5.821 1.392 L 5.762 1.395 L 5.703 1.398 L 5.644 1.402 L 5.586 1.407 L 5.527 1.413 L 5.469 1.419 L 5.412 1.426 L 5.354 1.434 L 5.297 1.442 L 5.24 1.451 L 5.183 1.461 L 5.126 1.471 L 5.07 1.483 L 5.014 1.494 L 4.958 1.507 L 4.903 1.52 L 4.848 1.534 L 4.793 1.549 L 4.738 1.564 L 4.684 1.58 L 4.629 1.596 L 4.576 1.613 L 4.522 1.631 L 4.469 1.649 L 4.416 1.668 L 4.363 1.688 L 4.311 1.708 L 4.259 1.729 L 4.207 1.751 L 4.155 1.773 L 4.104 1.796 L 4.053 1.819 L 4.003 1.843 L 3.953 1.868 L 3.903 1.893 L 3.853 1.919 L 3.804 1.945 L 3.755 1.972 L 3.707 1.999 L 3.659 2.027 L 3.611 2.056 L 3.564 2.085 L 3.517 2.115 L 3.47 2.145 L 3.424 2.176 L 3.378 2.207 L 3.333 2.239 L 3.288 2.272 L 3.243 2.305 L 3.199 2.338 L 3.155 2.372 L 3.112 2.407 L 3.068 2.442 L 3.026 2.478 L 2.984 2.514 L 2.942 2.55 L 2.901 2.587 L 2.86 2.625 L 2.82 2.663 L 2.78 2.701 L 2.74 2.74 L 2.701 2.78 L 2.663 2.82 L 2.625 2.86 L 2.587 2.901 L 2.55 2.942 L 2.513 2.984 L 2.478 3.026 L 2.442 3.068 L 2.407 3.111 L 2.372 3.155 L 2.338 3.199 L 2.305 3.243 L 2.272 3.288 L 2.239 3.333 L 2.207 3.378 L 2.176 3.424 L 2.145 3.47 L 2.115 3.517 L 2.085 3.564 L 2.056 3.611 L 2.027 3.659 L 1.999 3.707 L 1.972 3.755 L 1.945 3.804 L 1.919 3.853 L 1.893 3.903 L 1.868 3.953 L 1.843 4.003 L 1.819 4.053 L 1.796 4.104 L 1.773 4.155 L 1.751 4.207 L 1.729 4.259 L 1.708 4.311 L 1.688 4.363 L 1.668 4.416 L 1.649 4.468 L 1.631 4.522 L 1.613 4.576 L 1.596 4.629 L 1.58 4.683 L 1.564 4.738 L 1.549 4.793 L 1.534 4.848 L 1.52 4.903 L 1.507 4.958 L 1.495 5.014 L 1.483 5.07 L 1.471 5.126 L 1.461 5.183 L 1.451 5.24 L 1.442 5.297 L 1.434 5.354 L 1.426 5.412 L 1.419 5.469 L 1.413 5.527 L 1.407 5.586 L 1.402 5.644 L 1.398 5.703 L 1.395 5.762 L 1.392 5.821 L 1.39 5.88 L 1.389 5.94 L 1.389 6.004 L 1.389 17.996 L 1.389 18.06 L 1.39 18.12 L 1.392 18.179 L 1.395 18.238 L 1.398 18.297 L 1.402 18.356 L 1.407 18.414 L 1.413 18.473 L 1.419 18.531 L 1.426 18.588 L 1.434 18.646 L 1.442 18.703 L 1.451 18.76 L 1.461 18.817 L 1.471 18.874 L 1.483 18.93 L 1.495 18.986 L 1.507 19.042 L 1.52 19.097 L 1.534 19.152 L 1.549 19.207 L 1.564 19.262 L 1.58 19.317 L 1.596 19.371 L 1.613 19.424 L 1.631 19.478 L 1.649 19.532 L 1.668 19.584 L 1.688 19.637 L 1.708 19.689 L 1.729 19.741 L 1.751 19.793 L 1.773 19.845 L 1.796 19.896 L 1.819 19.946 L 1.843 19.997 L 1.868 20.047 L 1.893 20.097 L 1.919 20.147 L 1.945 20.196 L 1.972 20.244 L 1.999 20.293 L 2.027 20.341 L 2.056 20.389 L 2.085 20.436 L 2.115 20.483 L 2.145 20.53 L 2.176 20.576 L 2.207 20.622 L 2.239 20.667 L 2.272 20.712 L 2.305 20.757 L 2.338 20.801 L 2.372 20.845 L 2.407 20.889 L 2.442 20.932 L 2.478 20.974 L 2.514 21.016 L 2.55 21.058 L 2.587 21.099 L 2.625 21.14 L 2.663 21.18 L 2.701 21.22 L 2.74 21.26 L 2.78 21.299 L 2.82 21.337 L 2.86 21.375 L 2.901 21.413 L 2.942 21.45 L 2.984 21.486 L 3.026 21.522 L 3.068 21.558 L 3.112 21.593 L 3.155 21.628 L 3.199 21.662 L 3.243 21.695 L 3.288 21.728 L 3.333 21.761 L 3.378 21.793 L 3.424 21.824 L 3.47 21.855 L 3.517 21.885 L 3.564 21.915 L 3.611 21.944 L 3.659 21.973 L 3.707 22.001 L 3.755 22.028 L 3.804 22.055 L 3.853 22.081 L 3.903 22.107 L 3.953 22.132 L 4.003 22.157 L 4.053 22.181 L 4.104 22.204 L 4.155 22.227 L 4.207 22.249 L 4.259 22.271 L 4.311 22.292 L 4.363 22.312 L 4.416 22.332 L 4.469 22.351 L 4.522 22.369 L 4.576 22.387 L 4.629 22.404 L 4.684 22.42 L 4.738 22.436 L 4.793 22.451 L 4.848 22.466 L 4.903 22.48 L 4.958 22.493 L 5.014 22.506 L 5.07 22.517 L 5.126 22.528 L 5.183 22.539 L 5.24 22.549 L 5.297 22.558 L 5.354 22.566 L 5.412 22.574 L 5.469 22.581 L 5.527 22.587 L 5.586 22.593 L 5.644 22.598 L 5.703 22.602 L 5.762 22.605 L 5.821 22.608 L 5.881 22.61 L 5.94 22.611 L 6.004 22.611 Z " style="fill:rgb(128,128,128);" stroke-width="1"/>
                </g>
                <g>
                    <path d="M 12.0001 6 L 18.0001 12 L 12.0001 18 L 6.0001 12 L 12.0001 6 Z " style="fill:none;stroke-width:1.94px;stroke:rgb(252,107,8);" stroke-width="0.857143"/>
                </g>
            </g>
        </g>
    </g>
</svg>