<svg width="59.951995849609375" height="14.907999992370605" viewBox="-0.499997615814209 -0.5 59.951995849609375 14.907999992370605" version="1.1" style="fill-rule:evenodd;clip-rule:evenodd;stroke-linejoin:round;stroke-miterlimit:1.41421;" xml:space="preserve" xmlns="http://www.w3.org/2000/svg" xmlns:xlink="http://www.w3.org/1999/xlink">
  <g>
    <g id="1">
      <path d="M58.952,6.954c0,-3.838 -3.116,-6.954 -6.954,-6.954l-45.044,0c-3.838,0 -6.954,3.116 -6.954,6.954c0,3.838 3.116,6.954 6.954,6.954l45.044,0c3.838,0 6.954,-3.116 6.954,-6.954Z" style="fill:#9fd3ff;" stroke-width="1"/>
      <path d="M5.475,8.253l0.739,-0.065c0.035,0.297 0.117,0.54 0.245,0.73c0.128,0.189 0.326,0.343 0.596,0.46c0.269,0.117 0.572,0.176 0.909,0.176c0.299,0 0.563,-0.045 0.792,-0.133c0.229,-0.089 0.399,-0.211 0.511,-0.366c0.112,-0.155 0.168,-0.324 0.168,-0.507c0,-0.186 -0.054,-0.348 -0.162,-0.487c-0.108,-0.139 -0.286,-0.255 -0.533,-0.35c-0.159,-0.061 -0.511,-0.158 -1.055,-0.288c-0.544,-0.131 -0.925,-0.254 -1.143,-0.37c-0.283,-0.148 -0.494,-0.332 -0.633,-0.552c-0.138,-0.219 -0.208,-0.465 -0.208,-0.737c0,-0.299 0.085,-0.579 0.255,-0.838c0.169,-0.26 0.417,-0.458 0.743,-0.592c0.326,-0.135 0.688,-0.202 1.087,-0.202c0.439,0 0.826,0.07 1.162,0.212c0.335,0.141 0.593,0.349 0.773,0.624c0.181,0.275 0.278,0.586 0.291,0.933l-0.751,0.057c-0.041,-0.375 -0.177,-0.657 -0.41,-0.849c-0.233,-0.191 -0.577,-0.286 -1.033,-0.286c-0.474,0 -0.819,0.086 -1.036,0.26c-0.217,0.174 -0.325,0.383 -0.325,0.628c0,0.213 0.077,0.388 0.23,0.526c0.151,0.137 0.545,0.278 1.182,0.422c0.637,0.144 1.074,0.27 1.311,0.378c0.345,0.159 0.599,0.36 0.764,0.604c0.164,0.244 0.246,0.524 0.246,0.842c0,0.315 -0.09,0.612 -0.271,0.891c-0.18,0.279 -0.439,0.496 -0.777,0.651c-0.338,0.155 -0.719,0.232 -1.142,0.232c-0.536,0 -0.985,-0.078 -1.347,-0.234c-0.363,-0.157 -0.647,-0.392 -0.853,-0.705c-0.206,-0.314 -0.314,-0.669 -0.325,-1.065Z" style="fill:#fff;fill-rule:nonzero;" stroke-width="1"/>
      <path d="M13.98,10.156l0,-0.63c-0.334,0.484 -0.788,0.727 -1.362,0.727c-0.253,0 -0.489,-0.049 -0.709,-0.146c-0.219,-0.097 -0.382,-0.218 -0.489,-0.365c-0.106,-0.147 -0.181,-0.327 -0.224,-0.54c-0.029,-0.142 -0.044,-0.369 -0.044,-0.678l0,-2.659l0.727,0l0,2.38c0,0.38 0.015,0.635 0.045,0.767c0.045,0.192 0.142,0.342 0.29,0.451c0.149,0.109 0.332,0.164 0.55,0.164c0.218,0 0.423,-0.056 0.614,-0.168c0.191,-0.112 0.327,-0.264 0.406,-0.457c0.08,-0.192 0.119,-0.472 0.119,-0.838l0,-2.299l0.728,0l0,4.291l-0.651,0Z" style="fill:#fff;fill-rule:nonzero;" stroke-width="1"/>
      <path d="M15.77,11.8l0,-5.935l0.663,0l0,0.558c0.156,-0.219 0.332,-0.382 0.529,-0.491c0.197,-0.109 0.435,-0.164 0.715,-0.164c0.366,0 0.69,0.094 0.97,0.283c0.28,0.188 0.491,0.454 0.634,0.798c0.143,0.343 0.214,0.72 0.214,1.129c0,0.439 -0.078,0.834 -0.236,1.186c-0.158,0.352 -0.387,0.621 -0.687,0.808c-0.3,0.187 -0.616,0.281 -0.947,0.281c-0.243,0 -0.46,-0.051 -0.653,-0.154c-0.193,-0.102 -0.351,-0.231 -0.475,-0.388l0,2.089l-0.727,0ZM16.429,8.035c0,0.552 0.111,0.96 0.335,1.224c0.224,0.264 0.494,0.396 0.812,0.396c0.323,0 0.6,-0.137 0.83,-0.41c0.231,-0.274 0.346,-0.697 0.346,-1.271c0,-0.547 -0.113,-0.956 -0.337,-1.228c-0.225,-0.272 -0.494,-0.408 -0.807,-0.408c-0.309,0 -0.583,0.144 -0.822,0.434c-0.238,0.29 -0.357,0.71 -0.357,1.263Z" style="fill:#fff;fill-rule:nonzero;" stroke-width="1"/>
      <path d="M23.31,8.774l0.751,0.093c-0.118,0.439 -0.338,0.78 -0.659,1.022c-0.32,0.243 -0.73,0.364 -1.228,0.364c-0.627,0 -1.125,-0.193 -1.493,-0.58c-0.367,-0.386 -0.551,-0.929 -0.551,-1.626c0,-0.722 0.186,-1.282 0.557,-1.681c0.372,-0.399 0.854,-0.598 1.447,-0.598c0.573,0 1.042,0.195 1.406,0.586c0.363,0.39 0.545,0.94 0.545,1.648c0,0.043 -0.001,0.108 -0.004,0.194l-3.2,0c0.027,0.472 0.16,0.833 0.4,1.083c0.24,0.251 0.539,0.376 0.897,0.376c0.267,0 0.494,-0.07 0.683,-0.21c0.189,-0.14 0.338,-0.364 0.449,-0.671ZM20.922,7.598l2.396,0c-0.033,-0.361 -0.124,-0.631 -0.275,-0.812c-0.232,-0.28 -0.532,-0.42 -0.901,-0.42c-0.334,0 -0.615,0.112 -0.843,0.335c-0.227,0.224 -0.353,0.523 -0.377,0.897Z" style="fill:#fff;fill-rule:nonzero;" stroke-width="1"/>
      <path d="M24.966,10.156l0,-4.291l0.655,0l0,0.65c0.167,-0.304 0.321,-0.505 0.462,-0.602c0.142,-0.097 0.297,-0.145 0.467,-0.145c0.245,0 0.494,0.078 0.747,0.234l-0.25,0.675c-0.178,-0.105 -0.356,-0.157 -0.533,-0.157c-0.159,0 -0.302,0.047 -0.429,0.143c-0.126,0.096 -0.217,0.228 -0.27,0.398c-0.081,0.259 -0.122,0.541 -0.122,0.848l0,2.247l-0.727,0Z" style="fill:#fff;fill-rule:nonzero;" stroke-width="1"/>
      <path d="M30.203,10.156l0,-3.725l-0.643,0l0,-0.566l0.643,0l0,-0.457c0,-0.288 0.025,-0.502 0.076,-0.642c0.07,-0.189 0.194,-0.341 0.37,-0.459c0.176,-0.117 0.424,-0.175 0.741,-0.175c0.205,0 0.431,0.024 0.679,0.072l-0.109,0.635c-0.151,-0.027 -0.293,-0.041 -0.428,-0.041c-0.221,0 -0.377,0.047 -0.469,0.142c-0.091,0.094 -0.137,0.27 -0.137,0.529l0,0.396l0.836,0l0,0.566l-0.836,0l0,3.725l-0.723,0Z" style="fill:#fff;fill-rule:nonzero;" stroke-width="1"/>
      <path d="M35.14,10.156l0,-0.63c-0.334,0.484 -0.788,0.727 -1.362,0.727c-0.253,0 -0.489,-0.049 -0.709,-0.146c-0.219,-0.097 -0.382,-0.218 -0.489,-0.365c-0.106,-0.147 -0.181,-0.327 -0.224,-0.54c-0.03,-0.142 -0.044,-0.369 -0.044,-0.678l0,-2.659l0.727,0l0,2.38c0,0.38 0.015,0.635 0.044,0.767c0.046,0.192 0.143,0.342 0.291,0.451c0.148,0.109 0.332,0.164 0.55,0.164c0.218,0 0.423,-0.056 0.614,-0.168c0.191,-0.112 0.327,-0.264 0.406,-0.457c0.079,-0.192 0.119,-0.472 0.119,-0.838l0,-2.299l0.728,0l0,4.291l-0.651,0Z" style="fill:#fff;fill-rule:nonzero;" stroke-width="1"/>
      <path d="M36.93,10.156l0,-4.291l0.654,0l0,0.61c0.316,-0.471 0.771,-0.707 1.366,-0.707c0.259,0 0.496,0.046 0.713,0.139c0.217,0.093 0.379,0.215 0.487,0.366c0.108,0.151 0.183,0.33 0.226,0.537c0.027,0.135 0.041,0.371 0.041,0.708l0,2.638l-0.727,0l0,-2.61c0,-0.297 -0.029,-0.518 -0.085,-0.665c-0.057,-0.147 -0.157,-0.264 -0.301,-0.351c-0.144,-0.088 -0.313,-0.132 -0.507,-0.132c-0.31,0 -0.578,0.099 -0.802,0.295c-0.225,0.197 -0.338,0.57 -0.338,1.119l0,2.344l-0.727,0Z" style="fill:#fff;fill-rule:nonzero;" stroke-width="1"/>
      <path d="M41.92,8.685l-0.222,-3.139l0,-1.313l0.901,0l0,1.313l-0.21,3.139l-0.469,0ZM41.73,10.156l0,-0.828l0.836,0l0,0.828l-0.836,0Z" style="fill:#fff;fill-rule:nonzero;" stroke-width="1"/>
    </g>
    <g id="Happy Emoji">
      <circle cx="49.666" cy="6.954" r="4.164" style="fill:#ffca59;" stroke-width="1"/>
      <g id="Face">
        <path d="M47.481,6.909c-0.106,0.21 -0.161,0.434 -0.161,0.66c0,1 1.051,1.811 2.346,1.811c1.294,0 2.345,-0.811 2.345,-1.811c0,-0.226 -0.054,-0.45 -0.161,-0.66l-4.369,0Z" style="fill:#000;" stroke-width="1"/>
        <circle cx="48.036" cy="5.769" r="0.681" style="fill:#000;" stroke-width="1"/>
        <circle cx="51.295" cy="5.769" r="0.681" style="fill:#000;" stroke-width="1"/>
        <path d="M48.795,6.738c0.077,-0.098 0.118,-0.209 0.118,-0.323c0,-0.356 -0.393,-0.646 -0.877,-0.646c-0.484,0 -0.876,0.29 -0.876,0.646c0,0.114 0.04,0.225 0.117,0.323l1.518,0Z" style="fill:#ffca59;" stroke-width="1"/>
        <path d="M52.054,6.738c0.077,-0.098 0.118,-0.209 0.118,-0.323c0,-0.356 -0.393,-0.646 -0.877,-0.646c-0.484,0 -0.876,0.29 -0.876,0.646c0,0.114 0.04,0.225 0.117,0.323l1.518,0Z" style="fill:#ffca59;" stroke-width="1"/>
      </g>
    </g>
  </g>
</svg>