<svg width="241" height="181" viewBox="0.05299997329711914 0.41600000858306885 241 181" version="1.1" xmlns="http://www.w3.org/2000/svg" xmlns:xlink="http://www.w3.org/1999/xlink" xml:space="preserve" style="fill-rule:evenodd;clip-rule:evenodd;stroke-linecap:round;stroke-linejoin:round;stroke-miterlimit:1.41421;"><g id="No Levels In Category"><rect id="Level Placeholder" x="0.553" y="0.916" width="240" height="180" style="fill:#ea5f61;" stroke-width="1"/><g id="Icon"><g id="Cloud"><path d="M106.538,86.069c4.102,-4.693 10.131,-7.659 16.848,-7.659c11.632,0 21.202,8.898 22.269,20.252c0.033,0 0.066,0 0.099,0c7.611,0 13.789,6.179 13.789,13.789c0,7.549 -6.078,13.689 -13.604,13.788l0,0.001l-49.657,0c-8.123,0 -14.718,-6.595 -14.718,-14.718c0,-6.815 4.642,-12.555 10.934,-14.227c-0.005,-0.139 -0.008,-0.28 -0.008,-0.421c0,-6.169 5.008,-11.177 11.177,-11.177c0.993,0 1.955,0.129 2.871,0.372Z" style="fill:#fff;" stroke-width="1"/><g id="Face (Group)"><circle cx="110.607" cy="102.819" r="2.502" style="fill:#ea5f61;" stroke-width="1"/><circle cx="128.795" cy="102.819" r="2.502" style="fill:#ea5f61;" stroke-width="1"/><path d="M126.294,115.527c0,0 -2.387,-2.222 -6.497,-2.222c-4.11,0 -6.667,2.222 -6.667,2.222" style="fill:none;stroke-width:3px;stroke:#ea5f61;" stroke-width="1"/></g></g></g><path d="M18.684,65.292l0,-8.55l-3.194,0l0,-1.144l7.684,0l0,1.144l-3.207,0l0,8.55l-1.283,0Z" style="fill:#fff;fill-rule:nonzero;" stroke-width="1"/><path d="M24.337,65.292l0,-9.694l1.19,0l0,3.478c0.556,-0.643 1.257,-0.965 2.103,-0.965c0.52,0 0.972,0.102 1.356,0.307c0.383,0.205 0.658,0.489 0.823,0.85c0.165,0.362 0.248,0.886 0.248,1.574l0,4.45l-1.19,0l0,-4.45c0,-0.595 -0.129,-1.028 -0.387,-1.3c-0.258,-0.271 -0.623,-0.406 -1.094,-0.406c-0.353,0 -0.685,0.091 -0.996,0.274c-0.31,0.183 -0.532,0.431 -0.664,0.744c-0.132,0.313 -0.199,0.745 -0.199,1.296l0,3.842l-1.19,0Z" style="fill:#fff;fill-rule:nonzero;" stroke-width="1"/><path d="M36.676,63.03l1.23,0.153c-0.194,0.718 -0.553,1.276 -1.078,1.672c-0.525,0.397 -1.195,0.596 -2.01,0.596c-1.027,0 -1.842,-0.317 -2.443,-0.949c-0.602,-0.633 -0.903,-1.52 -0.903,-2.662c0,-1.181 0.304,-2.098 0.912,-2.75c0.609,-0.653 1.398,-0.979 2.368,-0.979c0.939,0 1.706,0.319 2.301,0.959c0.595,0.639 0.892,1.538 0.892,2.698c0,0.07 -0.002,0.176 -0.006,0.317l-5.237,0c0.044,0.771 0.262,1.362 0.655,1.772c0.392,0.41 0.881,0.615 1.467,0.615c0.437,0 0.809,-0.115 1.118,-0.344c0.309,-0.229 0.553,-0.595 0.734,-1.098ZM32.768,61.106l3.921,0c-0.053,-0.59 -0.203,-1.033 -0.45,-1.329c-0.379,-0.458 -0.87,-0.687 -1.474,-0.687c-0.547,0 -1.006,0.182 -1.379,0.548c-0.372,0.366 -0.578,0.856 -0.618,1.468Z" style="fill:#fff;fill-rule:nonzero;" stroke-width="1"/><path d="M39.387,65.292l0,-7.022l1.071,0l0,1.064c0.273,-0.498 0.526,-0.826 0.757,-0.985c0.232,-0.159 0.486,-0.238 0.764,-0.238c0.401,0 0.809,0.128 1.223,0.383l-0.41,1.105c-0.291,-0.172 -0.582,-0.258 -0.873,-0.258c-0.26,0 -0.493,0.078 -0.7,0.235c-0.208,0.156 -0.355,0.373 -0.443,0.651c-0.133,0.423 -0.199,0.886 -0.199,1.388l0,3.677l-1.19,0Z" style="fill:#fff;fill-rule:nonzero;" stroke-width="1"/><path d="M48.717,63.03l1.23,0.153c-0.194,0.718 -0.553,1.276 -1.078,1.672c-0.525,0.397 -1.195,0.596 -2.01,0.596c-1.027,0 -1.842,-0.317 -2.443,-0.949c-0.602,-0.633 -0.903,-1.52 -0.903,-2.662c0,-1.181 0.304,-2.098 0.913,-2.75c0.608,-0.653 1.397,-0.979 2.367,-0.979c0.939,0 1.706,0.319 2.301,0.959c0.595,0.639 0.893,1.538 0.893,2.698c0,0.07 -0.003,0.176 -0.007,0.317l-5.237,0c0.044,0.771 0.262,1.362 0.655,1.772c0.392,0.41 0.881,0.615 1.468,0.615c0.436,0 0.808,-0.115 1.117,-0.344c0.309,-0.229 0.553,-0.595 0.734,-1.098ZM44.809,61.106l3.921,0c-0.053,-0.59 -0.203,-1.033 -0.449,-1.329c-0.38,-0.458 -0.871,-0.687 -1.475,-0.687c-0.547,0 -1.006,0.182 -1.379,0.548c-0.372,0.366 -0.578,0.856 -0.618,1.468Z" style="fill:#fff;fill-rule:nonzero;" stroke-width="1"/><path d="M59.786,64.426c-0.441,0.374 -0.865,0.639 -1.273,0.793c-0.408,0.154 -0.845,0.232 -1.312,0.232c-0.772,0 -1.365,-0.189 -1.779,-0.566c-0.414,-0.377 -0.622,-0.858 -0.622,-1.445c0,-0.343 0.079,-0.657 0.235,-0.942c0.157,-0.284 0.362,-0.512 0.615,-0.684c0.253,-0.172 0.539,-0.302 0.856,-0.39c0.234,-0.062 0.587,-0.122 1.058,-0.179c0.961,-0.114 1.669,-0.251 2.123,-0.41c0.004,-0.163 0.006,-0.267 0.006,-0.311c0,-0.485 -0.112,-0.826 -0.337,-1.025c-0.304,-0.268 -0.756,-0.403 -1.355,-0.403c-0.56,0 -0.973,0.098 -1.24,0.294c-0.267,0.197 -0.464,0.544 -0.592,1.042l-1.164,-0.159c0.106,-0.498 0.28,-0.9 0.523,-1.207c0.242,-0.306 0.593,-0.542 1.051,-0.707c0.458,-0.165 0.99,-0.248 1.594,-0.248c0.599,0 1.086,0.07 1.461,0.211c0.375,0.142 0.65,0.319 0.826,0.533c0.177,0.214 0.3,0.484 0.371,0.81c0.039,0.203 0.059,0.568 0.059,1.097l0,1.587c0,1.107 0.026,1.807 0.076,2.1c0.051,0.293 0.151,0.574 0.301,0.843l-1.243,0c-0.123,-0.247 -0.203,-0.536 -0.238,-0.866ZM59.687,61.768c-0.432,0.176 -1.08,0.326 -1.944,0.449c-0.489,0.071 -0.836,0.15 -1.038,0.238c-0.203,0.088 -0.36,0.217 -0.47,0.387c-0.11,0.17 -0.165,0.358 -0.165,0.565c0,0.318 0.12,0.582 0.36,0.794c0.241,0.211 0.592,0.317 1.055,0.317c0.458,0 0.866,-0.1 1.223,-0.301c0.357,-0.2 0.62,-0.475 0.787,-0.823c0.128,-0.269 0.192,-0.665 0.192,-1.19l0,-0.436Z" style="fill:#fff;fill-rule:nonzero;" stroke-width="1"/><path d="M62.722,65.292l0,-7.022l1.071,0l0,1.064c0.273,-0.498 0.526,-0.826 0.757,-0.985c0.232,-0.159 0.486,-0.238 0.764,-0.238c0.401,0 0.809,0.128 1.223,0.383l-0.41,1.105c-0.291,-0.172 -0.582,-0.258 -0.873,-0.258c-0.26,0 -0.493,0.078 -0.7,0.235c-0.208,0.156 -0.355,0.373 -0.444,0.651c-0.132,0.423 -0.198,0.886 -0.198,1.388l0,3.677l-1.19,0Z" style="fill:#fff;fill-rule:nonzero;" stroke-width="1"/><path d="M72.052,63.03l1.23,0.153c-0.194,0.718 -0.553,1.276 -1.078,1.672c-0.525,0.397 -1.195,0.596 -2.01,0.596c-1.027,0 -1.842,-0.317 -2.443,-0.949c-0.602,-0.633 -0.903,-1.52 -0.903,-2.662c0,-1.181 0.304,-2.098 0.913,-2.75c0.608,-0.653 1.397,-0.979 2.367,-0.979c0.939,0 1.706,0.319 2.301,0.959c0.595,0.639 0.892,1.538 0.892,2.698c0,0.07 -0.002,0.176 -0.006,0.317l-5.237,0c0.044,0.771 0.262,1.362 0.655,1.772c0.392,0.41 0.881,0.615 1.467,0.615c0.437,0 0.809,-0.115 1.118,-0.344c0.309,-0.229 0.553,-0.595 0.734,-1.098ZM68.144,61.106l3.921,0c-0.053,-0.59 -0.203,-1.033 -0.449,-1.329c-0.38,-0.458 -0.871,-0.687 -1.475,-0.687c-0.547,0 -1.006,0.182 -1.379,0.548c-0.372,0.366 -0.578,0.856 -0.618,1.468Z" style="fill:#fff;fill-rule:nonzero;" stroke-width="1"/><path d="M78.539,65.292l0,-7.022l1.071,0l0,0.998c0.516,-0.771 1.261,-1.157 2.235,-1.157c0.423,0 0.812,0.076 1.167,0.228c0.355,0.152 0.62,0.352 0.797,0.598c0.176,0.247 0.299,0.54 0.37,0.88c0.044,0.22 0.066,0.606 0.066,1.157l0,4.318l-1.19,0l0,-4.272c0,-0.485 -0.046,-0.847 -0.139,-1.087c-0.093,-0.241 -0.257,-0.432 -0.493,-0.576c-0.235,-0.143 -0.512,-0.215 -0.829,-0.215c-0.507,0 -0.945,0.161 -1.313,0.483c-0.368,0.322 -0.552,0.932 -0.552,1.832l0,3.835l-1.19,0Z" style="fill:#fff;fill-rule:nonzero;" stroke-width="1"/><path d="M85.627,61.781c0,-1.301 0.362,-2.264 1.084,-2.89c0.604,-0.52 1.341,-0.78 2.209,-0.78c0.965,0 1.754,0.316 2.367,0.949c0.613,0.632 0.919,1.506 0.919,2.622c0,0.903 -0.135,1.614 -0.406,2.132c-0.271,0.518 -0.666,0.92 -1.184,1.207c-0.518,0.286 -1.083,0.43 -1.696,0.43c-0.983,0 -1.778,-0.316 -2.384,-0.946c-0.606,-0.63 -0.909,-1.538 -0.909,-2.724ZM86.85,61.781c0,0.899 0.197,1.572 0.589,2.02c0.392,0.447 0.886,0.671 1.481,0.671c0.591,0 1.082,-0.225 1.475,-0.675c0.392,-0.449 0.588,-1.135 0.588,-2.056c0,-0.868 -0.197,-1.526 -0.592,-1.974c-0.394,-0.447 -0.885,-0.671 -1.471,-0.671c-0.595,0 -1.089,0.223 -1.481,0.668c-0.392,0.445 -0.589,1.117 -0.589,2.017Z" style="fill:#fff;fill-rule:nonzero;" stroke-width="1"/><rect x="97.338" y="55.598" width="1.19" height="9.694" style="fill:#fff;fill-rule:nonzero;" stroke-width="1"/><path d="M105.18,63.03l1.23,0.153c-0.194,0.718 -0.554,1.276 -1.078,1.672c-0.525,0.397 -1.195,0.596 -2.01,0.596c-1.027,0 -1.842,-0.317 -2.444,-0.949c-0.601,-0.633 -0.902,-1.52 -0.902,-2.662c0,-1.181 0.304,-2.098 0.912,-2.75c0.609,-0.653 1.398,-0.979 2.368,-0.979c0.939,0 1.706,0.319 2.301,0.959c0.595,0.639 0.892,1.538 0.892,2.698c0,0.07 -0.002,0.176 -0.006,0.317l-5.237,0c0.044,0.771 0.262,1.362 0.654,1.772c0.393,0.41 0.882,0.615 1.468,0.615c0.437,0 0.809,-0.115 1.118,-0.344c0.308,-0.229 0.553,-0.595 0.734,-1.098ZM101.272,61.106l3.921,0c-0.053,-0.59 -0.203,-1.033 -0.45,-1.329c-0.379,-0.458 -0.87,-0.687 -1.474,-0.687c-0.547,0 -1.006,0.182 -1.379,0.548c-0.372,0.366 -0.578,0.856 -0.618,1.468Z" style="fill:#fff;fill-rule:nonzero;" stroke-width="1"/><path d="M109.855,65.292l-2.672,-7.022l1.257,0l1.507,4.205c0.163,0.454 0.313,0.926 0.45,1.415c0.106,-0.37 0.253,-0.815 0.443,-1.336l1.56,-4.284l1.224,0l-2.658,7.022l-1.111,0Z" style="fill:#fff;fill-rule:nonzero;" stroke-width="1"/><path d="M119.482,63.03l1.23,0.153c-0.194,0.718 -0.553,1.276 -1.078,1.672c-0.524,0.397 -1.194,0.596 -2.01,0.596c-1.027,0 -1.841,-0.317 -2.443,-0.949c-0.602,-0.633 -0.903,-1.52 -0.903,-2.662c0,-1.181 0.304,-2.098 0.913,-2.75c0.608,-0.653 1.397,-0.979 2.367,-0.979c0.939,0 1.706,0.319 2.301,0.959c0.595,0.639 0.893,1.538 0.893,2.698c0,0.07 -0.002,0.176 -0.007,0.317l-5.237,0c0.044,0.771 0.263,1.362 0.655,1.772c0.392,0.41 0.881,0.615 1.468,0.615c0.436,0 0.809,-0.115 1.117,-0.344c0.309,-0.229 0.553,-0.595 0.734,-1.098ZM115.574,61.106l3.921,0c-0.052,-0.59 -0.202,-1.033 -0.449,-1.329c-0.379,-0.458 -0.871,-0.687 -1.475,-0.687c-0.546,0 -1.006,0.182 -1.378,0.548c-0.373,0.366 -0.579,0.856 -0.619,1.468Z" style="fill:#fff;fill-rule:nonzero;" stroke-width="1"/><rect x="122.18" y="55.598" width="1.19" height="9.694" style="fill:#fff;fill-rule:nonzero;" stroke-width="1"/><path d="M124.739,63.196l1.177,-0.185c0.066,0.471 0.25,0.833 0.552,1.084c0.302,0.251 0.724,0.377 1.266,0.377c0.547,0 0.953,-0.111 1.217,-0.334c0.265,-0.223 0.397,-0.484 0.397,-0.784c0,-0.268 -0.117,-0.48 -0.351,-0.634c-0.163,-0.106 -0.568,-0.241 -1.216,-0.404c-0.873,-0.22 -1.478,-0.411 -1.815,-0.572c-0.338,-0.161 -0.593,-0.383 -0.767,-0.667c-0.175,-0.285 -0.262,-0.599 -0.262,-0.943c0,-0.313 0.072,-0.603 0.215,-0.869c0.144,-0.267 0.339,-0.488 0.586,-0.665c0.185,-0.136 0.437,-0.252 0.757,-0.347c0.319,-0.095 0.662,-0.142 1.028,-0.142c0.551,0 1.035,0.079 1.451,0.238c0.417,0.159 0.724,0.374 0.923,0.645c0.198,0.271 0.335,0.633 0.41,1.087l-1.164,0.159c-0.053,-0.361 -0.206,-0.644 -0.46,-0.846c-0.253,-0.203 -0.611,-0.304 -1.074,-0.304c-0.547,0 -0.937,0.09 -1.171,0.271c-0.233,0.18 -0.35,0.392 -0.35,0.634c0,0.155 0.048,0.294 0.145,0.417c0.097,0.128 0.249,0.234 0.457,0.317c0.119,0.044 0.469,0.146 1.051,0.305c0.842,0.224 1.429,0.408 1.762,0.552c0.333,0.143 0.594,0.351 0.784,0.625c0.189,0.273 0.284,0.612 0.284,1.018c0,0.397 -0.116,0.77 -0.347,1.121c-0.231,0.35 -0.565,0.621 -1.002,0.813c-0.436,0.192 -0.93,0.288 -1.481,0.288c-0.912,0 -1.608,-0.19 -2.086,-0.569c-0.478,-0.379 -0.784,-0.941 -0.916,-1.686Z" style="fill:#fff;fill-rule:nonzero;" stroke-width="1"/><path d="M135.755,56.967l0,-1.369l1.19,0l0,1.369l-1.19,0ZM135.755,65.292l0,-7.022l1.19,0l0,7.022l-1.19,0Z" style="fill:#fff;fill-rule:nonzero;" stroke-width="1"/><path d="M138.757,65.292l0,-7.022l1.071,0l0,0.998c0.516,-0.771 1.261,-1.157 2.235,-1.157c0.424,0 0.813,0.076 1.167,0.228c0.355,0.152 0.621,0.352 0.797,0.598c0.177,0.247 0.3,0.54 0.371,0.88c0.044,0.22 0.066,0.606 0.066,1.157l0,4.318l-1.191,0l0,-4.272c0,-0.485 -0.046,-0.847 -0.138,-1.087c-0.093,-0.241 -0.257,-0.432 -0.493,-0.576c-0.236,-0.143 -0.513,-0.215 -0.83,-0.215c-0.507,0 -0.944,0.161 -1.312,0.483c-0.369,0.322 -0.553,0.932 -0.553,1.832l0,3.835l-1.19,0Z" style="fill:#fff;fill-rule:nonzero;" stroke-width="1"/><path d="M152.65,64.227l0.172,1.052c-0.335,0.07 -0.635,0.105 -0.9,0.105c-0.432,0 -0.767,-0.068 -1.005,-0.205c-0.238,-0.136 -0.405,-0.316 -0.502,-0.538c-0.097,-0.223 -0.146,-0.691 -0.146,-1.406l0,-4.04l-0.873,0l0,-0.925l0.873,0l0,-1.739l1.184,-0.715l0,2.454l1.197,0l0,0.925l-1.197,0l0,4.107c0,0.339 0.021,0.557 0.063,0.654c0.042,0.097 0.11,0.174 0.205,0.232c0.094,0.057 0.23,0.086 0.406,0.086c0.133,0 0.307,-0.016 0.523,-0.047Z" style="fill:#fff;fill-rule:nonzero;" stroke-width="1"/><path d="M153.813,65.292l0,-9.694l1.191,0l0,3.478c0.555,-0.643 1.256,-0.965 2.102,-0.965c0.521,0 0.972,0.102 1.356,0.307c0.383,0.205 0.658,0.489 0.823,0.85c0.166,0.362 0.248,0.886 0.248,1.574l0,4.45l-1.19,0l0,-4.45c0,-0.595 -0.129,-1.028 -0.387,-1.3c-0.258,-0.271 -0.623,-0.406 -1.094,-0.406c-0.353,0 -0.685,0.091 -0.995,0.274c-0.311,0.183 -0.533,0.431 -0.665,0.744c-0.132,0.313 -0.198,0.745 -0.198,1.296l0,3.842l-1.191,0Z" style="fill:#fff;fill-rule:nonzero;" stroke-width="1"/><path d="M161.352,56.967l0,-1.369l1.19,0l0,1.369l-1.19,0ZM161.352,65.292l0,-7.022l1.19,0l0,7.022l-1.19,0Z" style="fill:#fff;fill-rule:nonzero;" stroke-width="1"/><path d="M163.877,63.196l1.177,-0.185c0.067,0.471 0.251,0.833 0.553,1.084c0.302,0.251 0.724,0.377 1.266,0.377c0.546,0 0.952,-0.111 1.217,-0.334c0.264,-0.223 0.396,-0.484 0.396,-0.784c0,-0.268 -0.117,-0.48 -0.35,-0.634c-0.163,-0.106 -0.569,-0.241 -1.217,-0.404c-0.873,-0.22 -1.478,-0.411 -1.815,-0.572c-0.337,-0.161 -0.593,-0.383 -0.767,-0.667c-0.174,-0.285 -0.261,-0.599 -0.261,-0.943c0,-0.313 0.071,-0.603 0.215,-0.869c0.143,-0.267 0.338,-0.488 0.585,-0.665c0.185,-0.136 0.437,-0.252 0.757,-0.347c0.32,-0.095 0.662,-0.142 1.028,-0.142c0.551,0 1.035,0.079 1.452,0.238c0.416,0.159 0.724,0.374 0.922,0.645c0.198,0.271 0.335,0.633 0.41,1.087l-1.164,0.159c-0.053,-0.361 -0.206,-0.644 -0.459,-0.846c-0.254,-0.203 -0.612,-0.304 -1.075,-0.304c-0.546,0 -0.937,0.09 -1.17,0.271c-0.234,0.18 -0.351,0.392 -0.351,0.634c0,0.155 0.049,0.294 0.146,0.417c0.097,0.128 0.249,0.234 0.456,0.317c0.119,0.044 0.47,0.146 1.051,0.305c0.842,0.224 1.43,0.408 1.763,0.552c0.332,0.143 0.594,0.351 0.783,0.625c0.19,0.273 0.285,0.612 0.285,1.018c0,0.397 -0.116,0.77 -0.348,1.121c-0.231,0.35 -0.565,0.621 -1.001,0.813c-0.437,0.192 -0.93,0.288 -1.482,0.288c-0.912,0 -1.607,-0.19 -2.086,-0.569c-0.478,-0.379 -0.783,-0.941 -0.916,-1.686Z" style="fill:#fff;fill-rule:nonzero;" stroke-width="1"/><path d="M179.469,62.72l1.171,0.152c-0.128,0.806 -0.455,1.438 -0.982,1.894c-0.527,0.456 -1.174,0.685 -1.941,0.685c-0.961,0 -1.733,-0.315 -2.318,-0.943c-0.584,-0.628 -0.876,-1.528 -0.876,-2.701c0,-0.758 0.126,-1.421 0.377,-1.99c0.252,-0.569 0.634,-0.995 1.147,-1.28c0.514,-0.284 1.073,-0.426 1.677,-0.426c0.762,0 1.386,0.193 1.871,0.578c0.485,0.386 0.796,0.934 0.932,1.644l-1.157,0.178c-0.11,-0.472 -0.305,-0.826 -0.585,-1.064c-0.28,-0.238 -0.618,-0.357 -1.015,-0.357c-0.6,0 -1.087,0.214 -1.461,0.644c-0.375,0.43 -0.562,1.11 -0.562,2.04c0,0.943 0.18,1.629 0.542,2.057c0.361,0.427 0.833,0.641 1.415,0.641c0.467,0 0.857,-0.143 1.17,-0.43c0.313,-0.286 0.512,-0.727 0.595,-1.322Z" style="fill:#fff;fill-rule:nonzero;" stroke-width="1"/><path d="M186.24,64.426c-0.44,0.374 -0.865,0.639 -1.272,0.793c-0.408,0.154 -0.846,0.232 -1.313,0.232c-0.771,0 -1.364,-0.189 -1.779,-0.566c-0.414,-0.377 -0.621,-0.858 -0.621,-1.445c0,-0.343 0.078,-0.657 0.234,-0.942c0.157,-0.284 0.362,-0.512 0.615,-0.684c0.254,-0.172 0.539,-0.302 0.857,-0.39c0.233,-0.062 0.586,-0.122 1.058,-0.179c0.961,-0.114 1.668,-0.251 2.122,-0.41c0.005,-0.163 0.007,-0.267 0.007,-0.311c0,-0.485 -0.113,-0.826 -0.337,-1.025c-0.305,-0.268 -0.756,-0.403 -1.356,-0.403c-0.56,0 -0.973,0.098 -1.24,0.294c-0.266,0.197 -0.464,0.544 -0.592,1.042l-1.163,-0.159c0.105,-0.498 0.28,-0.9 0.522,-1.207c0.243,-0.306 0.593,-0.542 1.051,-0.707c0.459,-0.165 0.99,-0.248 1.594,-0.248c0.6,0 1.087,0.07 1.461,0.211c0.375,0.142 0.651,0.319 0.827,0.533c0.176,0.214 0.3,0.484 0.37,0.81c0.04,0.203 0.06,0.568 0.06,1.097l0,1.587c0,1.107 0.025,1.807 0.076,2.1c0.05,0.293 0.151,0.574 0.301,0.843l-1.244,0c-0.123,-0.247 -0.202,-0.536 -0.238,-0.866ZM186.141,61.768c-0.432,0.176 -1.08,0.326 -1.944,0.449c-0.489,0.071 -0.835,0.15 -1.038,0.238c-0.203,0.088 -0.359,0.217 -0.469,0.387c-0.111,0.17 -0.166,0.358 -0.166,0.565c0,0.318 0.12,0.582 0.361,0.794c0.24,0.211 0.591,0.317 1.054,0.317c0.459,0 0.867,-0.1 1.224,-0.301c0.357,-0.2 0.619,-0.475 0.786,-0.823c0.128,-0.269 0.192,-0.665 0.192,-1.19l0,-0.436Z" style="fill:#fff;fill-rule:nonzero;" stroke-width="1"/><path d="M191.788,64.227l0.172,1.052c-0.335,0.07 -0.635,0.105 -0.899,0.105c-0.432,0 -0.767,-0.068 -1.005,-0.205c-0.238,-0.136 -0.406,-0.316 -0.503,-0.538c-0.097,-0.223 -0.145,-0.691 -0.145,-1.406l0,-4.04l-0.873,0l0,-0.925l0.873,0l0,-1.739l1.183,-0.715l0,2.454l1.197,0l0,0.925l-1.197,0l0,4.107c0,0.339 0.021,0.557 0.063,0.654c0.042,0.097 0.11,0.174 0.205,0.232c0.095,0.057 0.23,0.086 0.407,0.086c0.132,0 0.306,-0.016 0.522,-0.047Z" style="fill:#fff;fill-rule:nonzero;" stroke-width="1"/><path d="M197.759,63.03l1.23,0.153c-0.194,0.718 -0.553,1.276 -1.078,1.672c-0.524,0.397 -1.194,0.596 -2.01,0.596c-1.027,0 -1.841,-0.317 -2.443,-0.949c-0.602,-0.633 -0.903,-1.52 -0.903,-2.662c0,-1.181 0.304,-2.098 0.913,-2.75c0.608,-0.653 1.397,-0.979 2.367,-0.979c0.939,0 1.706,0.319 2.301,0.959c0.595,0.639 0.893,1.538 0.893,2.698c0,0.07 -0.003,0.176 -0.007,0.317l-5.237,0c0.044,0.771 0.262,1.362 0.655,1.772c0.392,0.41 0.881,0.615 1.468,0.615c0.436,0 0.809,-0.115 1.117,-0.344c0.309,-0.229 0.553,-0.595 0.734,-1.098ZM193.851,61.106l3.921,0c-0.053,-0.59 -0.202,-1.033 -0.449,-1.329c-0.379,-0.458 -0.871,-0.687 -1.475,-0.687c-0.546,0 -1.006,0.182 -1.379,0.548c-0.372,0.366 -0.578,0.856 -0.618,1.468Z" style="fill:#fff;fill-rule:nonzero;" stroke-width="1"/><path d="M200.265,65.874l1.157,0.172c0.049,0.357 0.183,0.617 0.404,0.78c0.295,0.22 0.698,0.331 1.21,0.331c0.551,0 0.976,-0.111 1.276,-0.331c0.3,-0.22 0.502,-0.529 0.608,-0.926c0.062,-0.242 0.091,-0.751 0.086,-1.527c-0.52,0.613 -1.168,0.919 -1.944,0.919c-0.965,0 -1.712,-0.348 -2.241,-1.045c-0.529,-0.696 -0.794,-1.532 -0.794,-2.506c0,-0.67 0.121,-1.288 0.364,-1.855c0.242,-0.566 0.594,-1.004 1.054,-1.312c0.461,-0.309 1.002,-0.463 1.624,-0.463c0.829,0 1.512,0.335 2.05,1.005l0,-0.846l1.097,0l0,6.07c0,1.093 -0.111,1.868 -0.334,2.324c-0.222,0.456 -0.575,0.817 -1.058,1.081c-0.482,0.265 -1.076,0.397 -1.782,0.397c-0.837,0 -1.514,-0.189 -2.03,-0.566c-0.515,-0.376 -0.764,-0.944 -0.747,-1.702ZM201.25,61.655c0,0.921 0.183,1.594 0.549,2.017c0.366,0.423 0.825,0.635 1.376,0.635c0.546,0 1.005,-0.211 1.375,-0.632c0.37,-0.421 0.555,-1.081 0.555,-1.98c0,-0.86 -0.19,-1.508 -0.572,-1.944c-0.381,-0.437 -0.84,-0.655 -1.378,-0.655c-0.529,0 -0.979,0.215 -1.349,0.645c-0.37,0.43 -0.556,1.068 -0.556,1.914Z" style="fill:#fff;fill-rule:nonzero;" stroke-width="1"/><path d="M207.572,61.781c0,-1.301 0.361,-2.264 1.084,-2.89c0.604,-0.52 1.34,-0.78 2.209,-0.78c0.965,0 1.754,0.316 2.367,0.949c0.613,0.632 0.919,1.506 0.919,2.622c0,0.903 -0.135,1.614 -0.407,2.132c-0.271,0.518 -0.665,0.92 -1.183,1.207c-0.518,0.286 -1.083,0.43 -1.696,0.43c-0.983,0 -1.778,-0.316 -2.384,-0.946c-0.606,-0.63 -0.909,-1.538 -0.909,-2.724ZM208.795,61.781c0,0.899 0.196,1.572 0.589,2.02c0.392,0.447 0.886,0.671 1.481,0.671c0.59,0 1.082,-0.225 1.474,-0.675c0.393,-0.449 0.589,-1.135 0.589,-2.056c0,-0.868 -0.197,-1.526 -0.592,-1.974c-0.395,-0.447 -0.885,-0.671 -1.471,-0.671c-0.595,0 -1.089,0.223 -1.481,0.668c-0.393,0.445 -0.589,1.117 -0.589,2.017Z" style="fill:#fff;fill-rule:nonzero;" stroke-width="1"/><path d="M215.533,65.292l0,-7.022l1.071,0l0,1.064c0.274,-0.498 0.526,-0.826 0.757,-0.985c0.232,-0.159 0.486,-0.238 0.764,-0.238c0.401,0 0.809,0.128 1.223,0.383l-0.41,1.105c-0.291,-0.172 -0.581,-0.258 -0.872,-0.258c-0.26,0 -0.494,0.078 -0.701,0.235c-0.207,0.156 -0.355,0.373 -0.443,0.651c-0.133,0.423 -0.199,0.886 -0.199,1.388l0,3.677l-1.19,0Z" style="fill:#fff;fill-rule:nonzero;" stroke-width="1"/><path d="M220.003,67.996l-0.132,-1.117c0.26,0.07 0.487,0.106 0.681,0.106c0.264,0 0.476,-0.044 0.635,-0.133c0.158,-0.088 0.288,-0.211 0.39,-0.37c0.075,-0.119 0.196,-0.414 0.363,-0.886c0.022,-0.066 0.058,-0.163 0.106,-0.291l-2.665,-7.035l1.283,0l1.462,4.066c0.189,0.516 0.359,1.058 0.509,1.627c0.136,-0.547 0.299,-1.08 0.489,-1.6l1.501,-4.093l1.19,0l-2.671,7.141c-0.287,0.771 -0.509,1.303 -0.668,1.593c-0.212,0.393 -0.454,0.68 -0.727,0.863c-0.274,0.183 -0.6,0.275 -0.979,0.275c-0.229,0 -0.485,-0.049 -0.767,-0.146Z" style="fill:#fff;fill-rule:nonzero;" stroke-width="1"/></g></svg>