<svg version="1.1" width="61.78042221069336" height="70.5270004272461" viewBox="-0.36442241072654724 -0.027000010013580322 61.78042221069336 70.5270004272461" xmlns="http://www.w3.org/2000/svg" xmlns:xlink="http://www.w3.org/1999/xlink">
  <!-- Exported by Scratch - http://scratch.mit.edu/ -->
  <g id="ID0.4376783035695553">
    <g id="ID0.6186204026453197">
      <g id="Current Song Display">
        <path id="ID0.10875137383118272" fill="white" d="M 54 46 C 54 32.754 43.246 22 30 22 C 16.754 22 6 32.754 6 46 C 6 59.246 16.754 70 30 70 C 43.246 70 54 59.246 54 46 Z " stroke-width="1"/>
      </g>
    </g>
  </g>
  <text id="ID0.3979722340591252" fill="#65A8E7" text-anchor="start" font-family="Sans Serif" font-size="22" transform="matrix(0.53944, 0, 0, 0.53944, 15.3789, 37.4317)" stroke-width="1" alignment-baseline="text-before-edge" xml:space="preserve"><tspan x="0" style="white-space: pre" dy="1.13em">Glow</tspan></text>
  <g id="ID0.6232209382578731">
    <g id="ID0.5911729228682816">
      <g id="ID0.07375507242977619">
        <path id="ID0.5648829601705074" fill="white" d="M 1.656 5.413 L 0.136 5.413 C 0.129 5.853 0.209 6.233 0.376 6.553 C 0.543 6.873 0.768 7.136 1.051 7.343 C 1.334 7.55 1.661 7.701 2.031 7.798 C 2.401 7.895 2.783 7.943 3.176 7.943 C 3.663 7.943 4.091 7.886 4.461 7.773 C 4.831 7.66 5.141 7.501 5.391 7.298 C 5.641 7.095 5.829 6.853 5.956 6.573 C 6.083 6.293 6.146 5.99 6.146 5.663 C 6.146 5.263 6.061 4.935 5.891 4.678 C 5.721 4.421 5.519 4.216 5.286 4.063 C 5.053 3.91 4.818 3.798 4.581 3.728 C 4.344 3.658 4.159 3.61 4.026 3.583 C 3.579 3.47 3.218 3.376 2.941 3.303 C 2.664 3.23 2.448 3.156 2.291 3.083 C 2.134 3.01 2.029 2.93 1.976 2.843 C 1.923 2.756 1.896 2.643 1.896 2.503 C 1.896 2.35 1.929 2.223 1.996 2.123 C 2.063 2.023 2.148 1.94 2.251 1.873 C 2.354 1.806 2.469 1.76 2.596 1.733 C 2.723 1.706 2.849 1.693 2.976 1.693 C 3.169 1.693 3.348 1.71 3.511 1.743 C 3.674 1.776 3.819 1.833 3.946 1.913 C 4.073 1.993 4.174 2.103 4.251 2.243 C 4.328 2.383 4.373 2.56 4.386 2.773 L 5.906 2.773 C 5.906 2.36 5.828 2.008 5.671 1.718 C 5.514 1.428 5.303 1.19 5.036 1.003 C 4.769 0.816 4.464 0.681 4.121 0.598 C 3.778 0.515 3.419 0.473 3.046 0.473 C 2.726 0.473 2.406 0.516 2.086 0.603 C 1.766 0.69 1.479 0.823 1.226 1.003 C 0.973 1.183 0.768 1.408 0.611 1.678 C 0.454 1.948 0.376 2.266 0.376 2.633 C 0.376 2.96 0.438 3.238 0.561 3.468 C 0.684 3.698 0.846 3.89 1.046 4.043 C 1.246 4.196 1.473 4.321 1.726 4.418 C 1.979 4.515 2.239 4.596 2.506 4.663 C 2.766 4.736 3.023 4.803 3.276 4.863 C 3.529 4.923 3.756 4.993 3.956 5.073 C 4.156 5.153 4.318 5.253 4.441 5.373 C 4.564 5.493 4.626 5.65 4.626 5.843 C 4.626 6.023 4.579 6.171 4.486 6.288 C 4.393 6.405 4.276 6.496 4.136 6.563 C 3.996 6.63 3.846 6.675 3.686 6.698 C 3.526 6.721 3.376 6.733 3.236 6.733 C 3.029 6.733 2.829 6.708 2.636 6.658 C 2.443 6.608 2.274 6.531 2.131 6.428 C 1.988 6.325 1.873 6.19 1.786 6.023 C 1.699 5.856 1.656 5.653 1.656 5.413 Z " stroke-width="1"/>
        <path id="ID0.3475978230126202" fill="white" d="M 10.406 4.643 L 8.096 4.643 C 8.103 4.543 8.124 4.43 8.161 4.303 C 8.198 4.176 8.261 4.056 8.351 3.943 C 8.441 3.83 8.561 3.735 8.711 3.658 C 8.861 3.581 9.049 3.543 9.276 3.543 C 9.623 3.543 9.881 3.636 10.051 3.823 C 10.221 4.01 10.339 4.283 10.406 4.643 Z M 8.096 5.543 L 11.826 5.543 C 11.853 5.143 11.819 4.76 11.726 4.393 C 11.633 4.026 11.481 3.7 11.271 3.413 C 11.061 3.126 10.793 2.898 10.466 2.728 C 10.139 2.558 9.756 2.473 9.316 2.473 C 8.923 2.473 8.564 2.543 8.241 2.683 C 7.918 2.823 7.639 3.015 7.406 3.258 C 7.173 3.501 6.993 3.79 6.866 4.123 C 6.739 4.456 6.676 4.816 6.676 5.203 C 6.676 5.603 6.738 5.97 6.861 6.303 C 6.984 6.636 7.159 6.923 7.386 7.163 C 7.613 7.403 7.889 7.588 8.216 7.718 C 8.543 7.848 8.909 7.913 9.316 7.913 C 9.903 7.913 10.403 7.78 10.816 7.513 C 11.229 7.246 11.536 6.803 11.736 6.183 L 10.486 6.183 C 10.439 6.343 10.313 6.495 10.106 6.638 C 9.899 6.781 9.653 6.853 9.366 6.853 C 8.966 6.853 8.659 6.75 8.446 6.543 C 8.233 6.336 8.116 6.003 8.096 5.543 Z " stroke-width="1"/>
        <path id="ID0.682533182669431" fill="white" d="M 12.706 0.643 L 14.126 0.643 L 14.126 7.783 L 12.706 7.783 L 12.706 0.643 Z " stroke-width="1"/>
        <path id="ID0.23128877440467477" fill="white" d="M 18.726 4.643 L 16.416 4.643 C 16.423 4.543 16.444 4.43 16.481 4.303 C 16.518 4.176 16.581 4.056 16.671 3.943 C 16.761 3.83 16.881 3.735 17.031 3.658 C 17.181 3.581 17.369 3.543 17.596 3.543 C 17.943 3.543 18.201 3.636 18.371 3.823 C 18.541 4.01 18.659 4.283 18.726 4.643 Z M 16.416 5.543 L 20.146 5.543 C 20.173 5.143 20.139 4.76 20.046 4.393 C 19.953 4.026 19.801 3.7 19.591 3.413 C 19.381 3.126 19.113 2.898 18.786 2.728 C 18.459 2.558 18.076 2.473 17.636 2.473 C 17.243 2.473 16.884 2.543 16.561 2.683 C 16.238 2.823 15.959 3.015 15.726 3.258 C 15.493 3.501 15.313 3.79 15.186 4.123 C 15.059 4.456 14.996 4.816 14.996 5.203 C 14.996 5.603 15.058 5.97 15.181 6.303 C 15.304 6.636 15.479 6.923 15.706 7.163 C 15.933 7.403 16.209 7.588 16.536 7.718 C 16.863 7.848 17.229 7.913 17.636 7.913 C 18.223 7.913 18.723 7.78 19.136 7.513 C 19.549 7.246 19.856 6.803 20.056 6.183 L 18.806 6.183 C 18.759 6.343 18.633 6.495 18.426 6.638 C 18.219 6.781 17.973 6.853 17.686 6.853 C 17.286 6.853 16.979 6.75 16.766 6.543 C 16.553 6.336 16.436 6.003 16.416 5.543 Z " stroke-width="1"/>
        <path id="ID0.5612944741733372" fill="white" d="M 24.506 4.433 L 25.896 4.433 C 25.876 4.1 25.796 3.811 25.656 3.568 C 25.516 3.325 25.334 3.121 25.111 2.958 C 24.888 2.795 24.634 2.673 24.351 2.593 C 24.068 2.513 23.773 2.473 23.466 2.473 C 23.046 2.473 22.673 2.543 22.346 2.683 C 22.019 2.823 21.743 3.018 21.516 3.268 C 21.289 3.518 21.118 3.815 21.001 4.158 C 20.884 4.501 20.826 4.873 20.826 5.273 C 20.826 5.66 20.889 6.015 21.016 6.338 C 21.143 6.661 21.319 6.94 21.546 7.173 C 21.773 7.406 22.048 7.588 22.371 7.718 C 22.694 7.848 23.049 7.913 23.436 7.913 C 24.123 7.913 24.686 7.733 25.126 7.373 C 25.566 7.013 25.833 6.49 25.926 5.803 L 24.556 5.803 C 24.509 6.123 24.394 6.378 24.211 6.568 C 24.028 6.758 23.766 6.853 23.426 6.853 C 23.206 6.853 23.019 6.803 22.866 6.703 C 22.713 6.603 22.591 6.475 22.501 6.318 C 22.411 6.161 22.346 5.986 22.306 5.793 C 22.266 5.6 22.246 5.41 22.246 5.223 C 22.246 5.03 22.266 4.835 22.306 4.638 C 22.346 4.441 22.414 4.261 22.511 4.098 C 22.608 3.935 22.733 3.801 22.886 3.698 C 23.039 3.595 23.229 3.543 23.456 3.543 C 24.063 3.543 24.413 3.84 24.506 4.433 Z " stroke-width="1"/>
        <path id="ID0.19444718258455396" fill="white" d="M 28.526 2.613 L 28.526 1.063 L 27.106 1.063 L 27.106 2.613 L 26.246 2.613 L 26.246 3.563 L 27.106 3.563 L 27.106 6.613 C 27.106 6.873 27.149 7.083 27.236 7.243 C 27.323 7.403 27.441 7.526 27.591 7.613 C 27.741 7.7 27.914 7.758 28.111 7.788 C 28.308 7.818 28.516 7.833 28.736 7.833 C 28.876 7.833 29.019 7.83 29.166 7.823 C 29.313 7.816 29.446 7.803 29.566 7.783 L 29.566 6.683 C 29.499 6.696 29.429 6.706 29.356 6.713 C 29.283 6.72 29.206 6.723 29.126 6.723 C 28.886 6.723 28.726 6.683 28.646 6.603 C 28.566 6.523 28.526 6.363 28.526 6.123 L 28.526 3.563 L 29.566 3.563 L 29.566 2.613 L 28.526 2.613 Z " stroke-width="1"/>
        <path id="ID0.6172335627488792" fill="white" d="M 33.176 0.643 L 33.176 7.783 L 34.646 7.783 L 34.646 2.773 L 34.666 2.773 L 36.416 7.783 L 37.626 7.783 L 39.376 2.723 L 39.396 2.723 L 39.396 7.783 L 40.866 7.783 L 40.866 0.643 L 38.656 0.643 L 37.076 5.553 L 37.056 5.553 L 35.386 0.643 L 33.176 0.643 Z " stroke-width="1"/>
        <path id="ID0.009651956614106894" fill="white" d="M 46.946 7.783 L 46.946 2.613 L 45.526 2.613 L 45.526 5.323 C 45.526 5.85 45.439 6.228 45.266 6.458 C 45.093 6.688 44.813 6.803 44.426 6.803 C 44.086 6.803 43.849 6.698 43.716 6.488 C 43.583 6.278 43.516 5.96 43.516 5.533 L 43.516 2.613 L 42.096 2.613 L 42.096 5.793 C 42.096 6.113 42.124 6.405 42.181 6.668 C 42.238 6.931 42.336 7.155 42.476 7.338 C 42.616 7.521 42.808 7.663 43.051 7.763 C 43.294 7.863 43.606 7.913 43.986 7.913 C 44.286 7.913 44.579 7.846 44.866 7.713 C 45.153 7.58 45.386 7.363 45.566 7.063 L 45.596 7.063 L 45.596 7.783 L 46.946 7.783 Z " stroke-width="1"/>
        <path id="ID0.005134558770805597" fill="white" d="M 49.126 6.103 L 47.776 6.103 C 47.789 6.45 47.868 6.738 48.011 6.968 C 48.154 7.198 48.338 7.383 48.561 7.523 C 48.784 7.663 49.039 7.763 49.326 7.823 C 49.613 7.883 49.906 7.913 50.206 7.913 C 50.499 7.913 50.788 7.885 51.071 7.828 C 51.354 7.771 51.606 7.673 51.826 7.533 C 52.046 7.393 52.224 7.208 52.361 6.978 C 52.498 6.748 52.566 6.463 52.566 6.123 C 52.566 5.883 52.519 5.681 52.426 5.518 C 52.333 5.355 52.209 5.218 52.056 5.108 C 51.903 4.998 51.728 4.91 51.531 4.843 C 51.334 4.776 51.133 4.72 50.926 4.673 C 50.726 4.626 50.529 4.583 50.336 4.543 C 50.143 4.503 49.971 4.458 49.821 4.408 C 49.671 4.358 49.549 4.293 49.456 4.213 C 49.363 4.133 49.316 4.03 49.316 3.903 C 49.316 3.796 49.343 3.711 49.396 3.648 C 49.449 3.585 49.514 3.536 49.591 3.503 C 49.668 3.47 49.753 3.448 49.846 3.438 C 49.939 3.428 50.026 3.423 50.106 3.423 C 50.359 3.423 50.579 3.471 50.766 3.568 C 50.953 3.665 51.056 3.85 51.076 4.123 L 52.426 4.123 C 52.399 3.803 52.318 3.538 52.181 3.328 C 52.044 3.118 51.873 2.95 51.666 2.823 C 51.459 2.696 51.224 2.606 50.961 2.553 C 50.698 2.5 50.426 2.473 50.146 2.473 C 49.866 2.473 49.593 2.498 49.326 2.548 C 49.059 2.598 48.819 2.685 48.606 2.808 C 48.393 2.931 48.221 3.1 48.091 3.313 C 47.961 3.526 47.896 3.8 47.896 4.133 C 47.896 4.36 47.943 4.551 48.036 4.708 C 48.129 4.865 48.253 4.995 48.406 5.098 C 48.559 5.201 48.734 5.285 48.931 5.348 C 49.128 5.411 49.329 5.466 49.536 5.513 C 50.043 5.62 50.438 5.726 50.721 5.833 C 51.004 5.94 51.146 6.1 51.146 6.313 C 51.146 6.44 51.116 6.545 51.056 6.628 C 50.996 6.711 50.921 6.778 50.831 6.828 C 50.741 6.878 50.641 6.915 50.531 6.938 C 50.421 6.961 50.316 6.973 50.216 6.973 C 50.076 6.973 49.941 6.956 49.811 6.923 C 49.681 6.89 49.566 6.838 49.466 6.768 C 49.366 6.698 49.284 6.608 49.221 6.498 C 49.158 6.388 49.126 6.256 49.126 6.103 Z " stroke-width="1"/>
        <path id="ID0.02016584388911724" fill="white" d="M 54.856 1.813 L 54.856 0.643 L 53.436 0.643 L 53.436 1.813 L 54.856 1.813 Z M 53.436 2.613 L 53.436 7.783 L 54.856 7.783 L 54.856 2.613 L 53.436 2.613 Z " stroke-width="1"/>
        <path id="ID0.4855922944843769" fill="white" d="M 59.496 4.433 L 60.886 4.433 C 60.866 4.1 60.786 3.811 60.646 3.568 C 60.506 3.325 60.324 3.121 60.101 2.958 C 59.878 2.795 59.624 2.673 59.341 2.593 C 59.058 2.513 58.763 2.473 58.456 2.473 C 58.036 2.473 57.663 2.543 57.336 2.683 C 57.009 2.823 56.733 3.018 56.506 3.268 C 56.279 3.518 56.108 3.815 55.991 4.158 C 55.874 4.501 55.816 4.873 55.816 5.273 C 55.816 5.66 55.879 6.015 56.006 6.338 C 56.133 6.661 56.309 6.94 56.536 7.173 C 56.763 7.406 57.038 7.588 57.361 7.718 C 57.684 7.848 58.039 7.913 58.426 7.913 C 59.113 7.913 59.676 7.733 60.116 7.373 C 60.556 7.013 60.823 6.49 60.916 5.803 L 59.546 5.803 C 59.499 6.123 59.384 6.378 59.201 6.568 C 59.018 6.758 58.756 6.853 58.416 6.853 C 58.196 6.853 58.009 6.803 57.856 6.703 C 57.703 6.603 57.581 6.475 57.491 6.318 C 57.401 6.161 57.336 5.986 57.296 5.793 C 57.256 5.6 57.236 5.41 57.236 5.223 C 57.236 5.03 57.256 4.835 57.296 4.638 C 57.336 4.441 57.404 4.261 57.501 4.098 C 57.598 3.935 57.723 3.801 57.876 3.698 C 58.029 3.595 58.219 3.543 58.446 3.543 C 59.053 3.543 59.403 3.84 59.496 4.433 Z " stroke-width="1"/>
      </g>
    </g>
  </g>
</svg>