<svg width="59.951995849609375" height="14.907999992370605" viewBox="-0.499997615814209 -0.5 59.951995849609375 14.907999992370605" version="1.1" xmlns="http://www.w3.org/2000/svg" xmlns:xlink="http://www.w3.org/1999/xlink" xml:space="preserve" style="fill-rule:evenodd;clip-rule:evenodd;stroke-linejoin:round;stroke-miterlimit:1.41421;"><g id="1"><path d="M58.952,6.954c0,-3.838 -3.116,-6.954 -6.954,-6.954l-45.044,0c-3.838,0 -6.954,3.116 -6.954,6.954c0,3.838 3.116,6.954 6.954,6.954l45.044,0c3.838,0 6.954,-3.116 6.954,-6.954Z" style="fill:#9fd3ff;" stroke-width="1"/><path d="M9.968,8.079l0.784,0.198c-0.165,0.644 -0.46,1.135 -0.887,1.473c-0.427,0.338 -0.949,0.507 -1.566,0.507c-0.638,0 -1.157,-0.13 -1.557,-0.39c-0.4,-0.26 -0.705,-0.636 -0.914,-1.129c-0.208,-0.493 -0.313,-1.023 -0.313,-1.588c0,-0.617 0.118,-1.155 0.354,-1.614c0.236,-0.46 0.571,-0.808 1.006,-1.047c0.435,-0.238 0.914,-0.357 1.436,-0.357c0.593,0 1.091,0.15 1.495,0.452c0.404,0.302 0.686,0.726 0.845,1.273l-0.772,0.182c-0.137,-0.431 -0.337,-0.745 -0.598,-0.942c-0.261,-0.196 -0.59,-0.295 -0.986,-0.295c-0.455,0 -0.836,0.109 -1.141,0.328c-0.306,0.218 -0.521,0.511 -0.645,0.878c-0.124,0.368 -0.186,0.747 -0.186,1.138c0,0.504 0.074,0.943 0.221,1.319c0.146,0.376 0.375,0.657 0.684,0.842c0.31,0.186 0.646,0.279 1.007,0.279c0.439,0 0.81,-0.126 1.115,-0.38c0.304,-0.253 0.51,-0.629 0.618,-1.127Z" style="fill:#fff;fill-rule:nonzero;" stroke-width="1"/><path d="M11.354,8.01c0,-0.794 0.221,-1.383 0.662,-1.765c0.369,-0.318 0.819,-0.477 1.35,-0.477c0.59,0 1.072,0.193 1.446,0.58c0.375,0.386 0.562,0.92 0.562,1.602c0,0.552 -0.083,0.986 -0.248,1.303c-0.166,0.316 -0.407,0.562 -0.724,0.737c-0.316,0.175 -0.662,0.263 -1.036,0.263c-0.601,0 -1.086,-0.193 -1.457,-0.578c-0.37,-0.385 -0.555,-0.94 -0.555,-1.665ZM12.101,8.01c0,0.55 0.12,0.961 0.36,1.235c0.24,0.273 0.541,0.41 0.905,0.41c0.361,0 0.661,-0.137 0.901,-0.412c0.24,-0.275 0.36,-0.694 0.36,-1.257c0,-0.53 -0.121,-0.932 -0.362,-1.206c-0.241,-0.273 -0.541,-0.41 -0.899,-0.41c-0.364,0 -0.665,0.136 -0.905,0.408c-0.24,0.272 -0.36,0.683 -0.36,1.232Z" style="fill:#fff;fill-rule:nonzero;" stroke-width="1"/><path d="M15.956,8.01c0,-0.794 0.221,-1.383 0.663,-1.765c0.369,-0.318 0.818,-0.477 1.349,-0.477c0.59,0 1.072,0.193 1.447,0.58c0.374,0.386 0.561,0.92 0.561,1.602c0,0.552 -0.083,0.986 -0.248,1.303c-0.166,0.316 -0.407,0.562 -0.724,0.737c-0.316,0.175 -0.662,0.263 -1.036,0.263c-0.601,0 -1.086,-0.193 -1.457,-0.578c-0.37,-0.385 -0.555,-0.94 -0.555,-1.665ZM16.703,8.01c0,0.55 0.12,0.961 0.36,1.235c0.24,0.273 0.541,0.41 0.905,0.41c0.361,0 0.661,-0.137 0.901,-0.412c0.24,-0.275 0.36,-0.694 0.36,-1.257c0,-0.53 -0.121,-0.932 -0.362,-1.206c-0.241,-0.273 -0.541,-0.41 -0.899,-0.41c-0.364,0 -0.665,0.136 -0.905,0.408c-0.24,0.272 -0.36,0.683 -0.36,1.232Z" style="fill:#fff;fill-rule:nonzero;" stroke-width="1"/><rect x="20.813" y="4.233" width="0.727" height="5.923" style="fill:#fff;fill-rule:nonzero;" stroke-width="1"/><path d="M23.055,8.685l-0.222,-3.139l0,-1.313l0.901,0l0,1.313l-0.21,3.139l-0.469,0ZM22.865,10.156l0,-0.828l0.836,0l0,0.828l-0.836,0Z" style="fill:#fff;fill-rule:nonzero;" stroke-width="1"/><rect x="27.491" y="4.233" width="0.784" height="5.923" style="fill:#fff;fill-rule:nonzero;" stroke-width="1"/><rect x="31.847" y="4.233" width="0.727" height="5.923" style="fill:#fff;fill-rule:nonzero;" stroke-width="1"/><path d="M33.706,5.069l0,-0.836l0.727,0l0,0.836l-0.727,0ZM33.706,10.156l0,-4.291l0.727,0l0,4.291l-0.727,0Z" style="fill:#fff;fill-rule:nonzero;" stroke-width="1"/><path d="M35.544,10.156l0,-5.923l0.727,0l0,3.377l1.722,-1.745l0.941,0l-1.64,1.592l1.806,2.699l-0.897,0l-1.419,-2.194l-0.513,0.493l0,1.701l-0.727,0Z" style="fill:#fff;fill-rule:nonzero;" stroke-width="1"/><path d="M42.615,8.774l0.751,0.093c-0.118,0.439 -0.338,0.78 -0.658,1.022c-0.321,0.243 -0.73,0.364 -1.229,0.364c-0.627,0 -1.125,-0.193 -1.492,-0.58c-0.368,-0.386 -0.552,-0.929 -0.552,-1.626c0,-0.722 0.186,-1.282 0.558,-1.681c0.371,-0.399 0.853,-0.598 1.446,-0.598c0.574,0 1.043,0.195 1.406,0.586c0.364,0.39 0.546,0.94 0.546,1.648c0,0.043 -0.002,0.108 -0.004,0.194l-3.2,0c0.026,0.472 0.16,0.833 0.4,1.083c0.239,0.251 0.538,0.376 0.897,0.376c0.266,0 0.494,-0.07 0.682,-0.21c0.189,-0.14 0.338,-0.364 0.449,-0.671ZM40.227,7.598l2.396,0c-0.032,-0.361 -0.124,-0.631 -0.275,-0.812c-0.231,-0.28 -0.532,-0.42 -0.901,-0.42c-0.334,0 -0.615,0.112 -0.842,0.335c-0.228,0.224 -0.354,0.523 -0.378,0.897Z" style="fill:#fff;fill-rule:nonzero;" stroke-width="1"/><path d="M46.583,5.069l0,-0.836l0.727,0l0,0.836l-0.727,0ZM46.583,10.156l0,-4.291l0.727,0l0,4.291l-0.727,0Z" style="fill:#fff;fill-rule:nonzero;" stroke-width="1"/><path d="M50.005,9.505l0.105,0.643c-0.205,0.043 -0.388,0.064 -0.55,0.064c-0.264,0 -0.468,-0.041 -0.614,-0.125c-0.145,-0.083 -0.248,-0.193 -0.307,-0.329c-0.059,-0.136 -0.089,-0.422 -0.089,-0.859l0,-2.468l-0.533,0l0,-0.566l0.533,0l0,-1.063l0.724,-0.436l0,1.499l0.731,0l0,0.566l-0.731,0l0,2.509c0,0.207 0.012,0.34 0.038,0.4c0.025,0.059 0.067,0.106 0.125,0.141c0.058,0.035 0.141,0.053 0.249,0.053c0.08,0 0.187,-0.01 0.319,-0.029Z" style="fill:#fff;fill-rule:nonzero;" stroke-width="1"/><path d="M51.104,8.685l-0.222,-3.139l0,-1.313l0.901,0l0,1.313l-0.21,3.139l-0.469,0ZM50.914,10.156l0,-0.828l0.836,0l0,0.828l-0.836,0Z" style="fill:#fff;fill-rule:nonzero;" stroke-width="1"/></g></svg>