<svg version="1.1" width="66.32245000050976" height="66.32145054982617" viewBox="-0.44322377615429154 0.0077762214019180265 66.32245000050976 66.32145054982617" xmlns="http://www.w3.org/2000/svg" xmlns:xlink="http://www.w3.org/1999/xlink">
  <!-- Exported by Scratch - http://scratch.mit.edu/ -->
  <path id="ID0.35128556936979294" fill="#EB7B9D" d="M 32.718 0.574 C 41.711 0.574 49.859 4.226 55.760 10.126 C 61.660 16.027 65.313 24.176 65.313 33.168 C 65.313 42.161 61.660 50.310 55.760 56.210 C 49.859 62.111 41.711 65.763 32.718 65.763 C 23.725 65.763 15.577 62.111 9.676 56.210 C 3.775 50.310 0.123 42.161 0.123 33.168 C 0.123 24.176 3.775 16.027 9.676 10.126 C 15.577 4.226 23.725 0.574 32.718 0.574 Z " stroke-width="1"/>
  <path id="ID0.9691004063934088" fill="white" d="M 42.558 29.785 L 22.587 37.518 L 22.878 38.270 L 42.849 30.537 L 42.558 29.785 Z " stroke-width="1"/>
  <path id="ID0.3694037483073771" fill="white" d="M 41.176 34.168 L 23.976 40.828 L 24.259 41.559 L 41.459 34.899 L 41.176 34.168 Z " stroke-width="1"/>
  <path id="ID0.6992688868194818" fill="#EB7B9D" stroke="none" d="M 19.9316 35.3529 L 42.714 26.6166 L 48.2598 41.0788 L 25.4774 49.8151 L 19.9316 35.3529 Z " stroke-width="1.1324475591035126"/>
</svg>