<svg version="1.1" width="24.39299964904785" height="24.39299964904785" viewBox="-0.6430000066757202 -1.0189999993890524 24.39299964904785 24.39299964904785" xmlns="http://www.w3.org/2000/svg" xmlns:xlink="http://www.w3.org/1999/xlink">
  <!-- Exported by Scratch - http://scratch.mit.edu/ -->
  <g id="Search Button">
    <path id="ID0.33694862946867943" fill="#fff" d="M 22.75 11.177 C 22.75 4.998 17.733 -0.019 11.553 -0.019 C 5.374 -0.019 0.357 4.998 0.357 11.177 C 0.357 17.357 5.374 22.374 11.553 22.374 C 17.733 22.374 22.75 17.357 22.75 11.177 Z " stroke-width="1"/>
    <g id="Magnifying Glass">
      <path id="ID0.3010591617785394" fill="none" stroke="#6FD57E" stroke-width="2" d="M 13.104 5.947 C 14.088 5.947 14.98 6.347 15.626 6.992 C 16.271 7.638 16.671 8.53 16.671 9.514 C 16.671 10.498 16.271 11.39 15.626 12.036 C 14.98 12.681 14.088 13.081 13.104 13.081 C 12.12 13.081 11.228 12.681 10.582 12.036 C 9.937 11.39 9.537 10.498 9.537 9.514 C 9.537 8.53 9.937 7.638 10.582 6.992 C 11.228 6.347 12.12 5.947 13.104 5.947 Z "/>
      <path id="ID0.7966464003548026" fill="#6FD57E" d="M 9.621 11.624 L 5.457 15.788 L 7.077 17.407 L 11.24 13.243 L 9.621 11.624 Z " stroke-width="1"/>
    </g>
  </g>
</svg>