<svg version="1.1" width="16.3439998626709" height="62.875" viewBox="0.03100001811981201 0.09399998188018799 16.3439998626709 62.875" xmlns="http://www.w3.org/2000/svg" xmlns:xlink="http://www.w3.org/1999/xlink">
  <!-- Exported by Scratch - http://scratch.mit.edu/ -->
  <g id="ID0.22915994189679623">
    <g id="layer1">
      <path id="path3213" fill="#666666" stroke="none" d="M 15.875 0.594 C 12.594 0.688 10.121 1.582 8.469 3.281 C 6.816 4.98 6 7.641 6 11.25 L 6 21.906 C 6 26.875 4.187 29.539 0.531 29.938 L 0.531 33.094 C 2.336 33.281 3.699 34.086 4.625 35.469 C 5.551 36.852 6 38.828 6 41.406 L 6 51.875 C 6 55.461 6.816 58.094 8.469 59.781 C 10.121 61.469 12.594 62.375 15.875 62.469 L 15.875 58.781 C 14.82 58.758 13.953 58.566 13.25 58.25 C 12.547 57.934 11.977 57.477 11.531 56.844 C 11.086 56.211 10.75 55.398 10.563 54.438 C 10.375 53.477 10.281 52.328 10.281 50.969 L 10.281 41.063 C 10.281 35.836 8.562 32.672 5.094 31.594 L 5.094 31.469 C 8.562 30.414 10.281 27.336 10.281 22.25 L 10.281 11.938 C 10.281 9.336 10.727 7.434 11.594 6.25 C 12.461 5.066 13.883 4.43 15.875 4.313 L 15.875 0.594 Z " stroke-width="1"/>
    </g>
  </g>
</svg>