<svg version="1.1" width="35.71900177001953" height="38.68800354003906" viewBox="0.03100001811981201 -0.3439999967813492 35.71900177001953 38.68800354003906" xmlns="http://www.w3.org/2000/svg" xmlns:xlink="http://www.w3.org/1999/xlink">
  <!-- Exported by Scratch - http://scratch.mit.edu/ -->
  <g id="ID0.43560805125162005">
    <g id="layer1">
      <path id="path3237" fill="#666666" stroke="none" d="M 18.406 0.156 C 15.687 0.156 13.234 0.602 11.031 1.469 C 8.828 2.336 6.934 3.598 5.375 5.25 C 3.816 6.902 2.625 8.914 1.781 11.281 C 0.937 13.648 0.531 16.313 0.531 19.313 C 0.531 22.078 0.922 24.602 1.719 26.875 C 2.516 29.148 3.656 31.09 5.156 32.719 C 6.656 34.348 8.473 35.609 10.594 36.5 C 12.715 37.391 15.109 37.844 17.781 37.844 C 20.5 37.844 22.937 37.383 25.094 36.469 C 27.25 35.555 29.062 34.258 30.563 32.594 C 32.062 30.93 33.223 28.965 34.031 26.656 C 34.84 24.348 35.25 21.781 35.25 18.969 C 35.25 16.016 34.867 13.383 34.094 11.063 C 33.32 8.742 32.203 6.773 30.75 5.156 C 29.297 3.539 27.523 2.293 25.438 1.438 C 23.352 0.582 21.008 0.156 18.406 0.156 Z M 18.125 4.063 C 22.133 4.063 25.219 5.34 27.375 7.906 C 29.531 10.473 30.625 14.18 30.625 19.031 C 30.625 21.398 30.332 23.523 29.781 25.375 C 29.23 27.227 28.422 28.785 27.344 30.063 C 26.266 31.34 24.953 32.301 23.406 32.969 C 21.859 33.637 20.078 33.969 18.063 33.969 C 16.094 33.969 14.312 33.629 12.719 32.938 C 11.125 32.246 9.77 31.258 8.656 29.969 C 7.543 28.68 6.672 27.148 6.063 25.344 C 5.453 23.539 5.156 21.5 5.156 19.25 C 5.156 16.859 5.453 14.731 6.063 12.844 C 6.672 10.957 7.551 9.363 8.688 8.063 C 9.824 6.762 11.187 5.773 12.781 5.094 C 14.375 4.414 16.156 4.063 18.125 4.063 Z " stroke-width="1"/>
    </g>
  </g>
</svg>