<svg width="267" height="70.4780044555664" viewBox="-0.3030052185058594 -0.023000717163085938 267 70.4780044555664" version="1.1" xmlns="http://www.w3.org/2000/svg" xmlns:xlink="http://www.w3.org/1999/xlink" xml:space="preserve" style="fill-rule:evenodd;clip-rule:evenodd;stroke-linejoin:round;stroke-miterlimit:1.41421;"><g><path d="M266.197,17.847c0,-9.587 -7.783,-17.37 -17.369,-17.37l-231.262,0c-9.586,0 -17.369,7.783 -17.369,17.37l0,34.739c0,9.586 7.783,17.369 17.369,17.369l231.262,0c9.586,0 17.369,-7.783 17.369,-17.369l0,-34.739Z" style="fill:#b3b3b3;" stroke-width="1"/><path d="M72.214,13.739l3.493,0c0.787,0 1.388,0.06 1.801,0.18c0.555,0.164 1.031,0.454 1.427,0.872c0.396,0.417 0.697,0.928 0.904,1.533c0.206,0.605 0.31,1.351 0.31,2.237c0,0.779 -0.097,1.451 -0.291,2.014c-0.237,0.689 -0.575,1.246 -1.014,1.672c-0.331,0.323 -0.779,0.575 -1.342,0.756c-0.422,0.133 -0.986,0.2 -1.692,0.2l-3.596,0l0,-9.464ZM74.125,15.34l0,6.268l1.427,0c0.534,0 0.919,-0.03 1.156,-0.09c0.309,-0.078 0.567,-0.209 0.771,-0.394c0.204,-0.185 0.371,-0.489 0.5,-0.913c0.129,-0.424 0.194,-1.002 0.194,-1.734c0,-0.731 -0.065,-1.293 -0.194,-1.685c-0.129,-0.391 -0.31,-0.697 -0.542,-0.917c-0.232,-0.219 -0.527,-0.368 -0.884,-0.445c-0.267,-0.06 -0.79,-0.09 -1.569,-0.09l-0.859,0Z" style="fill:#fff;fill-rule:nonzero;" stroke-width="1"/><path d="M85.726,21.021l1.808,0.303c-0.232,0.663 -0.599,1.168 -1.101,1.514c-0.501,0.347 -1.128,0.52 -1.882,0.52c-1.192,0 -2.074,-0.39 -2.646,-1.169c-0.452,-0.624 -0.678,-1.411 -0.678,-2.363c0,-1.136 0.297,-2.026 0.891,-2.669c0.594,-0.643 1.345,-0.965 2.253,-0.965c1.02,0 1.825,0.337 2.414,1.01c0.59,0.674 0.872,1.706 0.846,3.096l-4.545,0c0.013,0.538 0.159,0.956 0.439,1.255c0.28,0.3 0.628,0.449 1.046,0.449c0.284,0 0.523,-0.077 0.716,-0.232c0.194,-0.155 0.34,-0.405 0.439,-0.749ZM85.83,19.187c-0.013,-0.525 -0.149,-0.924 -0.407,-1.197c-0.258,-0.274 -0.572,-0.41 -0.943,-0.41c-0.395,0 -0.723,0.144 -0.981,0.432c-0.258,0.289 -0.385,0.68 -0.381,1.175l2.712,0Z" style="fill:#fff;fill-rule:nonzero;" stroke-width="1"/><path d="M88.315,16.347l1.007,0l0,-0.517c0,-0.576 0.062,-1.007 0.184,-1.291c0.123,-0.284 0.349,-0.515 0.678,-0.694c0.33,-0.179 0.746,-0.268 1.25,-0.268c0.516,0 1.022,0.078 1.517,0.233l-0.246,1.265c-0.288,-0.069 -0.566,-0.103 -0.832,-0.103c-0.263,0 -0.451,0.061 -0.565,0.184c-0.114,0.122 -0.171,0.358 -0.171,0.707l0,0.484l1.355,0l0,1.426l-1.355,0l0,5.43l-1.815,0l0,-5.43l-1.007,0l0,-1.426Z" style="fill:#fff;fill-rule:nonzero;" stroke-width="1"/><path d="M97.483,21.021l1.807,0.303c-0.232,0.663 -0.599,1.168 -1.1,1.514c-0.502,0.347 -1.129,0.52 -1.882,0.52c-1.192,0 -2.075,-0.39 -2.647,-1.169c-0.452,-0.624 -0.678,-1.411 -0.678,-2.363c0,-1.136 0.297,-2.026 0.891,-2.669c0.594,-0.643 1.345,-0.965 2.253,-0.965c1.02,0 1.825,0.337 2.414,1.01c0.59,0.674 0.872,1.706 0.846,3.096l-4.545,0c0.013,0.538 0.159,0.956 0.439,1.255c0.28,0.3 0.629,0.449 1.046,0.449c0.284,0 0.523,-0.077 0.717,-0.232c0.193,-0.155 0.34,-0.405 0.439,-0.749ZM97.586,19.187c-0.013,-0.525 -0.148,-0.924 -0.407,-1.197c-0.258,-0.274 -0.572,-0.41 -0.942,-0.41c-0.396,0 -0.723,0.144 -0.982,0.432c-0.258,0.289 -0.385,0.68 -0.38,1.175l2.711,0Z" style="fill:#fff;fill-rule:nonzero;" stroke-width="1"/><path d="M102.221,18.438l-1.646,-0.297c0.185,-0.662 0.504,-1.153 0.956,-1.471c0.451,-0.319 1.123,-0.478 2.014,-0.478c0.809,0 1.412,0.096 1.807,0.287c0.396,0.192 0.675,0.435 0.837,0.73c0.161,0.294 0.242,0.836 0.242,1.623l-0.02,2.118c0,0.602 0.029,1.047 0.087,1.333c0.059,0.286 0.167,0.593 0.326,0.92l-1.794,0c-0.048,-0.121 -0.106,-0.299 -0.175,-0.536c-0.03,-0.108 -0.051,-0.179 -0.064,-0.213c-0.31,0.301 -0.641,0.527 -0.994,0.678c-0.353,0.151 -0.73,0.226 -1.13,0.226c-0.706,0 -1.262,-0.192 -1.669,-0.575c-0.407,-0.383 -0.61,-0.867 -0.61,-1.452c0,-0.388 0.092,-0.733 0.277,-1.036c0.186,-0.304 0.445,-0.536 0.778,-0.698c0.334,-0.161 0.815,-0.302 1.443,-0.423c0.848,-0.159 1.436,-0.307 1.763,-0.445l0,-0.181c0,-0.348 -0.086,-0.597 -0.258,-0.745c-0.173,-0.149 -0.498,-0.223 -0.975,-0.223c-0.323,0 -0.575,0.063 -0.756,0.19c-0.18,0.127 -0.327,0.35 -0.439,0.668ZM104.649,19.91c-0.233,0.078 -0.601,0.17 -1.104,0.278c-0.504,0.108 -0.833,0.213 -0.988,0.316c-0.237,0.168 -0.355,0.381 -0.355,0.639c0,0.254 0.095,0.474 0.284,0.659c0.189,0.185 0.43,0.278 0.723,0.278c0.327,0 0.639,-0.108 0.936,-0.323c0.22,-0.164 0.364,-0.364 0.433,-0.601c0.047,-0.155 0.071,-0.449 0.071,-0.884l0,-0.362Z" style="fill:#fff;fill-rule:nonzero;" stroke-width="1"/><path d="M111.363,16.347l0,1.446l-1.24,0l0,2.763c0,0.56 0.012,0.886 0.036,0.978c0.024,0.093 0.077,0.169 0.161,0.229c0.084,0.061 0.186,0.091 0.307,0.091c0.168,0 0.411,-0.058 0.73,-0.175l0.154,1.408c-0.421,0.18 -0.899,0.271 -1.433,0.271c-0.327,0 -0.622,-0.055 -0.884,-0.165c-0.263,-0.11 -0.455,-0.252 -0.578,-0.426c-0.123,-0.174 -0.208,-0.41 -0.255,-0.707c-0.039,-0.211 -0.058,-0.637 -0.058,-1.278l0,-2.989l-0.833,0l0,-1.446l0.833,0l0,-1.362l1.82,-1.059l0,2.421l1.24,0Z" style="fill:#fff;fill-rule:nonzero;" stroke-width="1"/><path d="M113.978,18.438l-1.647,-0.297c0.185,-0.662 0.504,-1.153 0.956,-1.471c0.452,-0.319 1.123,-0.478 2.014,-0.478c0.809,0 1.412,0.096 1.808,0.287c0.396,0.192 0.674,0.435 0.836,0.73c0.161,0.294 0.242,0.836 0.242,1.623l-0.019,2.118c0,0.602 0.029,1.047 0.087,1.333c0.058,0.286 0.166,0.593 0.326,0.92l-1.795,0c-0.047,-0.121 -0.106,-0.299 -0.174,-0.536c-0.031,-0.108 -0.052,-0.179 -0.065,-0.213c-0.31,0.301 -0.641,0.527 -0.994,0.678c-0.353,0.151 -0.73,0.226 -1.13,0.226c-0.706,0 -1.262,-0.192 -1.669,-0.575c-0.407,-0.383 -0.61,-0.867 -0.61,-1.452c0,-0.388 0.093,-0.733 0.278,-1.036c0.185,-0.304 0.444,-0.536 0.778,-0.698c0.333,-0.161 0.814,-0.302 1.443,-0.423c0.847,-0.159 1.435,-0.307 1.762,-0.445l0,-0.181c0,-0.348 -0.086,-0.597 -0.258,-0.745c-0.172,-0.149 -0.497,-0.223 -0.975,-0.223c-0.323,0 -0.575,0.063 -0.755,0.19c-0.181,0.127 -0.327,0.35 -0.439,0.668ZM116.405,19.91c-0.232,0.078 -0.6,0.17 -1.104,0.278c-0.503,0.108 -0.833,0.213 -0.988,0.316c-0.236,0.168 -0.355,0.381 -0.355,0.639c0,0.254 0.095,0.474 0.284,0.659c0.19,0.185 0.431,0.278 0.723,0.278c0.327,0 0.64,-0.108 0.936,-0.323c0.22,-0.164 0.364,-0.364 0.433,-0.601c0.047,-0.155 0.071,-0.449 0.071,-0.884l0,-0.362Z" style="fill:#fff;fill-rule:nonzero;" stroke-width="1"/><path d="M119.898,23.203l0,-9.464l1.814,0l0,3.408c0.559,-0.637 1.222,-0.955 1.988,-0.955c0.835,0 1.526,0.302 2.073,0.907c0.546,0.605 0.819,1.473 0.819,2.605c0,1.17 -0.278,2.072 -0.836,2.705c-0.557,0.633 -1.234,0.949 -2.03,0.949c-0.392,0 -0.778,-0.098 -1.159,-0.294c-0.381,-0.196 -0.709,-0.485 -0.984,-0.868l0,1.007l-1.685,0ZM121.699,19.626c0,0.71 0.112,1.236 0.336,1.576c0.314,0.482 0.731,0.723 1.252,0.723c0.4,0 0.741,-0.171 1.023,-0.514c0.282,-0.342 0.423,-0.881 0.423,-1.617c0,-0.783 -0.142,-1.348 -0.426,-1.694c-0.284,-0.347 -0.648,-0.52 -1.091,-0.52c-0.435,0 -0.796,0.169 -1.085,0.507c-0.288,0.337 -0.432,0.851 -0.432,1.539Z" style="fill:#fff;fill-rule:nonzero;" stroke-width="1"/><rect x="128.052" y="13.739" width="1.814" height="9.464" style="fill:#fff;fill-rule:nonzero;" stroke-width="1"/><path d="M135.695,21.021l1.808,0.303c-0.232,0.663 -0.599,1.168 -1.101,1.514c-0.501,0.347 -1.128,0.52 -1.882,0.52c-1.192,0 -2.074,-0.39 -2.647,-1.169c-0.451,-0.624 -0.677,-1.411 -0.677,-2.363c0,-1.136 0.297,-2.026 0.89,-2.669c0.594,-0.643 1.345,-0.965 2.254,-0.965c1.02,0 1.824,0.337 2.414,1.01c0.59,0.674 0.872,1.706 0.846,3.096l-4.545,0c0.013,0.538 0.159,0.956 0.439,1.255c0.28,0.3 0.628,0.449 1.046,0.449c0.284,0 0.523,-0.077 0.716,-0.232c0.194,-0.155 0.34,-0.405 0.439,-0.749ZM135.799,19.187c-0.013,-0.525 -0.149,-0.924 -0.407,-1.197c-0.258,-0.274 -0.573,-0.41 -0.943,-0.41c-0.396,0 -0.723,0.144 -0.981,0.432c-0.258,0.289 -0.385,0.68 -0.381,1.175l2.712,0Z" style="fill:#fff;fill-rule:nonzero;" stroke-width="1"/><path d="M146.722,21.021l1.808,0.303c-0.233,0.663 -0.6,1.168 -1.101,1.514c-0.501,0.347 -1.129,0.52 -1.882,0.52c-1.192,0 -2.074,-0.39 -2.647,-1.169c-0.452,-0.624 -0.678,-1.411 -0.678,-2.363c0,-1.136 0.297,-2.026 0.891,-2.669c0.594,-0.643 1.345,-0.965 2.253,-0.965c1.02,0 1.825,0.337 2.415,1.01c0.589,0.674 0.871,1.706 0.846,3.096l-4.545,0c0.013,0.538 0.159,0.956 0.439,1.255c0.279,0.3 0.628,0.449 1.045,0.449c0.285,0 0.523,-0.077 0.717,-0.232c0.194,-0.155 0.34,-0.405 0.439,-0.749ZM146.825,19.187c-0.013,-0.525 -0.148,-0.924 -0.406,-1.197c-0.259,-0.274 -0.573,-0.41 -0.943,-0.41c-0.396,0 -0.723,0.144 -0.981,0.432c-0.258,0.289 -0.385,0.68 -0.381,1.175l2.711,0Z" style="fill:#fff;fill-rule:nonzero;" stroke-width="1"/><path d="M156.341,23.203l-1.814,0l0,-3.499c0,-0.74 -0.038,-1.219 -0.116,-1.437c-0.077,-0.217 -0.203,-0.386 -0.378,-0.506c-0.174,-0.121 -0.384,-0.181 -0.629,-0.181c-0.314,0 -0.596,0.086 -0.846,0.258c-0.249,0.172 -0.42,0.4 -0.513,0.684c-0.093,0.284 -0.139,0.81 -0.139,1.576l0,3.105l-1.814,0l0,-6.856l1.685,0l0,1.007c0.598,-0.775 1.352,-1.162 2.26,-1.162c0.4,0 0.766,0.072 1.097,0.216c0.332,0.144 0.582,0.328 0.752,0.552c0.17,0.224 0.289,0.478 0.355,0.762c0.067,0.284 0.1,0.691 0.1,1.22l0,4.261Z" style="fill:#fff;fill-rule:nonzero;" stroke-width="1"/><path d="M162.152,21.021l1.807,0.303c-0.232,0.663 -0.599,1.168 -1.1,1.514c-0.502,0.347 -1.129,0.52 -1.882,0.52c-1.192,0 -2.075,-0.39 -2.647,-1.169c-0.452,-0.624 -0.678,-1.411 -0.678,-2.363c0,-1.136 0.297,-2.026 0.891,-2.669c0.594,-0.643 1.345,-0.965 2.253,-0.965c1.02,0 1.825,0.337 2.415,1.01c0.589,0.674 0.871,1.706 0.845,3.096l-4.545,0c0.013,0.538 0.16,0.956 0.439,1.255c0.28,0.3 0.629,0.449 1.046,0.449c0.284,0 0.523,-0.077 0.717,-0.232c0.193,-0.155 0.34,-0.405 0.439,-0.749ZM162.255,19.187c-0.013,-0.525 -0.148,-0.924 -0.407,-1.197c-0.258,-0.274 -0.572,-0.41 -0.942,-0.41c-0.396,0 -0.723,0.144 -0.982,0.432c-0.258,0.289 -0.385,0.68 -0.38,1.175l2.711,0Z" style="fill:#fff;fill-rule:nonzero;" stroke-width="1"/><path d="M165.399,16.347l1.672,0l0,0.936c0.598,-0.728 1.311,-1.091 2.137,-1.091c0.439,0 0.82,0.09 1.143,0.271c0.323,0.181 0.587,0.454 0.794,0.82c0.301,-0.366 0.626,-0.639 0.975,-0.82c0.348,-0.181 0.721,-0.271 1.117,-0.271c0.503,0 0.929,0.102 1.278,0.306c0.348,0.205 0.609,0.505 0.781,0.901c0.125,0.293 0.187,0.766 0.187,1.42l0,4.384l-1.814,0l0,-3.919c0,-0.68 -0.062,-1.119 -0.187,-1.317c-0.168,-0.258 -0.426,-0.387 -0.775,-0.387c-0.254,0 -0.493,0.077 -0.716,0.232c-0.224,0.155 -0.386,0.382 -0.485,0.681c-0.099,0.299 -0.148,0.772 -0.148,1.417l0,3.293l-1.814,0l0,-3.757c0,-0.668 -0.033,-1.098 -0.097,-1.292c-0.065,-0.193 -0.165,-0.337 -0.3,-0.432c-0.136,-0.095 -0.32,-0.142 -0.552,-0.142c-0.28,0 -0.532,0.075 -0.756,0.226c-0.223,0.15 -0.384,0.368 -0.481,0.652c-0.096,0.284 -0.145,0.755 -0.145,1.414l0,3.331l-1.814,0l0,-6.856Z" style="fill:#fff;fill-rule:nonzero;" stroke-width="1"/><path d="M177.291,15.417l0,-1.678l1.814,0l0,1.678l-1.814,0ZM177.291,23.203l0,-6.856l1.814,0l0,6.856l-1.814,0Z" style="fill:#fff;fill-rule:nonzero;" stroke-width="1"/><path d="M184.935,21.021l1.807,0.303c-0.232,0.663 -0.599,1.168 -1.1,1.514c-0.502,0.347 -1.129,0.52 -1.882,0.52c-1.192,0 -2.075,-0.39 -2.647,-1.169c-0.452,-0.624 -0.678,-1.411 -0.678,-2.363c0,-1.136 0.297,-2.026 0.891,-2.669c0.594,-0.643 1.345,-0.965 2.253,-0.965c1.02,0 1.825,0.337 2.414,1.01c0.59,0.674 0.872,1.706 0.846,3.096l-4.545,0c0.013,0.538 0.159,0.956 0.439,1.255c0.28,0.3 0.629,0.449 1.046,0.449c0.284,0 0.523,-0.077 0.717,-0.232c0.193,-0.155 0.34,-0.405 0.439,-0.749ZM185.038,19.187c-0.013,-0.525 -0.148,-0.924 -0.407,-1.197c-0.258,-0.274 -0.572,-0.41 -0.942,-0.41c-0.396,0 -0.723,0.144 -0.982,0.432c-0.258,0.289 -0.385,0.68 -0.38,1.175l2.711,0Z" style="fill:#fff;fill-rule:nonzero;" stroke-width="1"/><path d="M187.678,21.247l1.821,-0.278c0.078,0.353 0.235,0.621 0.471,0.804c0.237,0.183 0.568,0.274 0.995,0.274c0.469,0 0.822,-0.086 1.058,-0.258c0.16,-0.12 0.239,-0.282 0.239,-0.484c0,-0.138 -0.043,-0.252 -0.129,-0.342c-0.09,-0.086 -0.293,-0.166 -0.607,-0.239c-1.463,-0.323 -2.391,-0.618 -2.782,-0.885c-0.543,-0.37 -0.814,-0.884 -0.814,-1.543c0,-0.594 0.235,-1.093 0.704,-1.497c0.469,-0.405 1.196,-0.607 2.182,-0.607c0.938,0 1.636,0.153 2.092,0.458c0.456,0.306 0.77,0.758 0.942,1.356l-1.71,0.316c-0.074,-0.267 -0.212,-0.471 -0.417,-0.613c-0.204,-0.142 -0.496,-0.213 -0.875,-0.213c-0.477,0 -0.82,0.067 -1.026,0.2c-0.138,0.095 -0.207,0.217 -0.207,0.368c0,0.129 0.061,0.239 0.181,0.329c0.164,0.121 0.728,0.291 1.695,0.51c0.966,0.22 1.641,0.489 2.024,0.807c0.378,0.323 0.568,0.773 0.568,1.35c0,0.628 -0.263,1.168 -0.788,1.62c-0.525,0.452 -1.302,0.678 -2.33,0.678c-0.934,0 -1.674,-0.19 -2.218,-0.568c-0.545,-0.379 -0.901,-0.893 -1.069,-1.543Z" style="fill:#fff;fill-rule:nonzero;" stroke-width="1"/><g><path d="M 19.864 40.6434 L 19.864 33.6984 L 17.27 33.6984 L 17.27 32.7694 L 23.511 32.7694 L 23.511 33.6984 L 20.906 33.6984 L 20.906 40.6434 L 19.864 40.6434 Z " style="fill:#fff;fill-rule:nonzero;" stroke-width="1"/><path d="M 22.877 37.7914 C 22.877 36.7344 23.171 35.9524 23.758 35.4444 C 24.249 35.0214 24.847 34.8104 25.552 34.8104 C 26.336 34.8104 26.977 35.0674 27.475 35.5814 C 27.973 36.0944 28.221 36.8044 28.221 37.7104 C 28.221 38.4444 28.111 39.0224 27.891 39.4424 C 27.671 39.8634 27.35 40.1904 26.93 40.4234 C 26.509 40.6554 26.05 40.7724 25.552 40.7724 C 24.753 40.7724 24.108 40.5164 23.616 40.0044 C 23.123 39.4924 22.877 38.7544 22.877 37.7914 Z M 23.871 37.7914 C 23.871 38.5214 24.03 39.0684 24.349 39.4324 C 24.667 39.7954 25.069 39.9774 25.552 39.9774 C 26.032 39.9774 26.431 39.7944 26.75 39.4294 C 27.068 39.0644 27.228 38.5074 27.228 37.7584 C 27.228 37.0534 27.067 36.5194 26.747 36.1554 C 26.427 35.7924 26.028 35.6104 25.552 35.6104 C 25.069 35.6104 24.667 35.7914 24.349 36.1534 C 24.03 36.5144 23.871 37.0604 23.871 37.7914 Z " style="fill:#fff;fill-rule:nonzero;" stroke-width="1"/><path d="M 29.177 41.1154 L 30.117 41.2554 C 30.157 41.5454 30.266 41.7564 30.445 41.8894 C 30.685 42.0684 31.013 42.1574 31.428 42.1574 C 31.875 42.1574 32.221 42.0684 32.465 41.8894 C 32.708 41.7104 32.873 41.4594 32.959 41.1374 C 33.009 40.9404 33.032 40.5264 33.028 39.8964 C 32.606 40.3944 32.08 40.6434 31.449 40.6434 C 30.665 40.6434 30.058 40.3604 29.629 39.7944 C 29.199 39.2284 28.984 38.5504 28.984 37.7584 C 28.984 37.2144 29.083 36.7124 29.279 36.2524 C 29.476 35.7924 29.762 35.4364 30.136 35.1864 C 30.51 34.9354 30.95 34.8104 31.455 34.8104 C 32.128 34.8104 32.683 35.0824 33.12 35.6264 L 33.12 34.9394 L 34.011 34.9394 L 34.011 39.8694 C 34.011 40.7574 33.921 41.3874 33.74 41.7574 C 33.559 42.1284 33.273 42.4214 32.881 42.6354 C 32.489 42.8504 32.006 42.9584 31.433 42.9584 C 30.753 42.9584 30.203 42.8054 29.784 42.4984 C 29.365 42.1924 29.163 41.7314 29.177 41.1154 Z M 29.978 37.6894 C 29.978 38.4374 30.126 38.9834 30.424 39.3274 C 30.721 39.6714 31.093 39.8424 31.541 39.8424 C 31.985 39.8424 32.357 39.6724 32.658 39.3304 C 32.959 38.9884 33.109 38.4514 33.109 37.7214 C 33.109 37.0234 32.954 36.4964 32.644 36.1424 C 32.335 35.7874 31.961 35.6104 31.525 35.6104 C 31.095 35.6104 30.73 35.7854 30.429 36.1344 C 30.128 36.4834 29.978 37.0014 29.978 37.6894 Z " style="fill:#fff;fill-rule:nonzero;" stroke-width="1"/><path d="M 35.295 41.1154 L 36.235 41.2554 C 36.274 41.5454 36.384 41.7564 36.563 41.8894 C 36.803 42.0684 37.13 42.1574 37.546 42.1574 C 37.993 42.1574 38.339 42.0684 38.582 41.8894 C 38.826 41.7104 38.99 41.4594 39.076 41.1374 C 39.126 40.9404 39.15 40.5264 39.146 39.8964 C 38.724 40.3944 38.197 40.6434 37.567 40.6434 C 36.783 40.6434 36.176 40.3604 35.746 39.7944 C 35.317 39.2284 35.102 38.5504 35.102 37.7584 C 35.102 37.2144 35.2 36.7124 35.397 36.2524 C 35.594 35.7924 35.88 35.4364 36.254 35.1864 C 36.628 34.9354 37.068 34.8104 37.572 34.8104 C 38.246 34.8104 38.801 35.0824 39.237 35.6264 L 39.237 34.9394 L 40.129 34.9394 L 40.129 39.8694 C 40.129 40.7574 40.039 41.3874 39.858 41.7574 C 39.677 42.1284 39.391 42.4214 38.998 42.6354 C 38.606 42.8504 38.124 42.9584 37.551 42.9584 C 36.871 42.9584 36.321 42.8054 35.902 42.4984 C 35.483 42.1924 35.281 41.7314 35.295 41.1154 Z M 36.095 37.6894 C 36.095 38.4374 36.244 38.9834 36.541 39.3274 C 36.838 39.6714 37.211 39.8424 37.658 39.8424 C 38.102 39.8424 38.475 39.6724 38.776 39.3304 C 39.076 38.9884 39.227 38.4514 39.227 37.7214 C 39.227 37.0234 39.072 36.4964 38.762 36.1424 C 38.452 35.7874 38.079 35.6104 37.642 35.6104 C 37.213 35.6104 36.847 35.7854 36.547 36.1344 C 36.246 36.4834 36.095 37.0014 36.095 37.6894 Z " style="fill:#fff;fill-rule:nonzero;" stroke-width="1"/><rect x="206.162" y="71.062" width="0.967" height="7.874" style="fill:#fff;fill-rule:nonzero;" stroke-width="1" transform="matrix(1,0,0,1,-164.593,-38.2926)"/><path d="M 47.939 38.8064 L 48.938 38.9294 C 48.78 39.5134 48.488 39.9664 48.062 40.2884 C 47.636 40.6114 47.092 40.7724 46.429 40.7724 C 45.595 40.7724 44.934 40.5154 44.445 40.0014 C 43.956 39.4874 43.712 38.7664 43.712 37.8394 C 43.712 36.8794 43.959 36.1354 44.453 35.6054 C 44.947 35.0754 45.588 34.8104 46.376 34.8104 C 47.138 34.8104 47.761 35.0694 48.245 35.5894 C 48.728 36.1084 48.97 36.8384 48.97 37.7804 C 48.97 37.8374 48.968 37.9234 48.965 38.0384 L 44.711 38.0384 C 44.746 38.6644 44.924 39.1444 45.242 39.4774 C 45.561 39.8104 45.959 39.9774 46.435 39.9774 C 46.789 39.9774 47.092 39.8844 47.342 39.6974 C 47.593 39.5114 47.792 39.2144 47.939 38.8064 Z M 44.764 37.2434 L 47.949 37.2434 C 47.906 36.7634 47.785 36.4034 47.584 36.1634 C 47.276 35.7914 46.877 35.6054 46.386 35.6054 C 45.942 35.6054 45.569 35.7534 45.267 36.0504 C 44.964 36.3484 44.797 36.7454 44.764 37.2434 Z " style="fill:#fff;fill-rule:nonzero;" stroke-width="1"/><path d="M 49.765 38.9404 L 50.721 38.7904 C 50.775 39.1734 50.924 39.4674 51.169 39.6714 C 51.415 39.8754 51.757 39.9774 52.198 39.9774 C 52.642 39.9774 52.971 39.8864 53.186 39.7064 C 53.401 39.5254 53.508 39.3134 53.508 39.0694 C 53.508 38.8514 53.414 38.6794 53.224 38.5534 C 53.091 38.4674 52.762 38.3584 52.236 38.2264 C 51.527 38.0474 51.035 37.8924 50.761 37.7614 C 50.487 37.6304 50.28 37.4504 50.138 37.2194 C 49.997 36.9884 49.926 36.7334 49.926 36.4534 C 49.926 36.1994 49.984 35.9644 50.101 35.7474 C 50.217 35.5304 50.375 35.3504 50.576 35.2074 C 50.726 35.0964 50.931 35.0024 51.191 34.9254 C 51.45 34.8484 51.729 34.8104 52.026 34.8104 C 52.474 34.8104 52.867 34.8744 53.205 35.0034 C 53.543 35.1324 53.793 35.3074 53.954 35.5274 C 54.115 35.7474 54.226 36.0424 54.287 36.4104 L 53.342 36.5394 C 53.299 36.2464 53.175 36.0164 52.969 35.8524 C 52.763 35.6874 52.472 35.6054 52.096 35.6054 C 51.652 35.6054 51.335 35.6784 51.145 35.8254 C 50.955 35.9724 50.861 36.1444 50.861 36.3414 C 50.861 36.4664 50.9 36.5794 50.979 36.6794 C 51.057 36.7834 51.181 36.8694 51.349 36.9374 C 51.446 36.9734 51.731 37.0554 52.203 37.1844 C 52.887 37.3664 53.364 37.5164 53.635 37.6324 C 53.905 37.7494 54.117 37.9184 54.271 38.1404 C 54.425 38.3624 54.502 38.6384 54.502 38.9674 C 54.502 39.2894 54.408 39.5934 54.22 39.8774 C 54.032 40.1624 53.761 40.3824 53.406 40.5384 C 53.052 40.6944 52.651 40.7724 52.203 40.7724 C 51.462 40.7724 50.897 40.6184 50.509 40.3104 C 50.12 40.0024 49.872 39.5454 49.765 38.9404 Z " style="fill:#fff;fill-rule:nonzero;" stroke-width="1"/><path d="M 59.76 40.6434 L 58.015 34.9394 L 59.014 34.9394 L 59.922 38.2314 L 60.26 39.4564 C 60.274 39.3954 60.373 39.0034 60.555 38.2794 L 61.463 34.9394 L 62.457 34.9394 L 63.311 38.2474 L 63.595 39.3384 L 63.923 38.2374 L 64.901 34.9394 L 65.841 34.9394 L 64.057 40.6434 L 63.053 40.6434 L 62.145 37.2274 L 61.925 36.2554 L 60.77 40.6434 L 59.76 40.6434 Z " style="fill:#fff;fill-rule:nonzero;" stroke-width="1"/><path d="M 66.652 40.6434 L 66.652 32.7694 L 67.618 32.7694 L 67.618 35.5944 C 68.07 35.0714 68.639 34.8104 69.326 34.8104 C 69.749 34.8104 70.116 34.8934 70.427 35.0604 C 70.739 35.2264 70.962 35.4564 71.096 35.7504 C 71.23 36.0434 71.298 36.4694 71.298 37.0284 L 71.298 40.6434 L 70.331 40.6434 L 70.331 37.0284 C 70.331 36.5454 70.226 36.1934 70.017 35.9734 C 69.807 35.7524 69.511 35.6424 69.128 35.6424 C 68.841 35.6424 68.572 35.7174 68.319 35.8654 C 68.067 36.0144 67.887 36.2154 67.779 36.4694 C 67.672 36.7244 67.618 37.0754 67.618 37.5224 L 67.618 40.6434 L 66.652 40.6434 Z " style="fill:#fff;fill-rule:nonzero;" stroke-width="1"/><path d="M 76.674 38.8064 L 77.673 38.9294 C 77.515 39.5134 77.224 39.9664 76.798 40.2884 C 76.371 40.6114 75.827 40.7724 75.165 40.7724 C 74.33 40.7724 73.669 40.5154 73.18 40.0014 C 72.691 39.4874 72.447 38.7664 72.447 37.8394 C 72.447 36.8794 72.694 36.1354 73.188 35.6054 C 73.682 35.0754 74.323 34.8104 75.111 34.8104 C 75.874 34.8104 76.497 35.0694 76.98 35.5894 C 77.464 36.1084 77.705 36.8384 77.705 37.7804 C 77.705 37.8374 77.703 37.9234 77.7 38.0384 L 73.446 38.0384 C 73.482 38.6644 73.659 39.1444 73.978 39.4774 C 74.296 39.8104 74.694 39.9774 75.17 39.9774 C 75.525 39.9774 75.827 39.8844 76.078 39.6974 C 76.328 39.5114 76.527 39.2144 76.674 38.8064 Z M 73.5 37.2434 L 76.685 37.2434 C 76.642 36.7634 76.52 36.4034 76.32 36.1634 C 76.012 35.7914 75.612 35.6054 75.122 35.6054 C 74.678 35.6054 74.304 35.7534 74.002 36.0504 C 73.699 36.3484 73.532 36.7454 73.5 37.2434 Z " style="fill:#fff;fill-rule:nonzero;" stroke-width="1"/><path d="M 80.998 39.7784 L 81.137 40.6324 C 80.865 40.6894 80.622 40.7184 80.407 40.7184 C 80.056 40.7184 79.784 40.6624 79.591 40.5514 C 79.397 40.4404 79.261 40.2954 79.182 40.1144 C 79.104 39.9334 79.064 39.5524 79.064 38.9724 L 79.064 35.6914 L 78.355 35.6914 L 78.355 34.9394 L 79.064 34.9394 L 79.064 33.5264 L 80.026 32.9464 L 80.026 34.9394 L 80.998 34.9394 L 80.998 35.6914 L 80.026 35.6914 L 80.026 39.0264 C 80.026 39.3024 80.043 39.4794 80.077 39.5584 C 80.111 39.6374 80.166 39.6994 80.243 39.7464 C 80.32 39.7924 80.43 39.8164 80.573 39.8164 C 80.681 39.8164 80.822 39.8034 80.998 39.7784 Z " style="fill:#fff;fill-rule:nonzero;" stroke-width="1"/><path d="M 81.943 40.6434 L 81.943 32.7694 L 82.91 32.7694 L 82.91 35.5944 C 83.361 35.0714 83.93 34.8104 84.618 34.8104 C 85.04 34.8104 85.407 34.8934 85.719 35.0604 C 86.03 35.2264 86.253 35.4564 86.388 35.7504 C 86.522 36.0434 86.589 36.4694 86.589 37.0284 L 86.589 40.6434 L 85.622 40.6434 L 85.622 37.0284 C 85.622 36.5454 85.518 36.1934 85.308 35.9734 C 85.099 35.7524 84.802 35.6424 84.419 35.6424 C 84.133 35.6424 83.863 35.7174 83.611 35.8654 C 83.358 36.0144 83.178 36.2154 83.071 36.4694 C 82.964 36.7244 82.91 37.0754 82.91 37.5224 L 82.91 40.6434 L 81.943 40.6434 Z " style="fill:#fff;fill-rule:nonzero;" stroke-width="1"/><path d="M 91.966 38.8064 L 92.965 38.9294 C 92.807 39.5134 92.515 39.9664 92.089 40.2884 C 91.663 40.6114 91.119 40.7724 90.456 40.7724 C 89.622 40.7724 88.96 40.5154 88.472 40.0014 C 87.983 39.4874 87.738 38.7664 87.738 37.8394 C 87.738 36.8794 87.986 36.1354 88.48 35.6054 C 88.974 35.0754 89.615 34.8104 90.403 34.8104 C 91.165 34.8104 91.788 35.0694 92.272 35.5894 C 92.755 36.1084 92.997 36.8384 92.997 37.7804 C 92.997 37.8374 92.995 37.9234 92.991 38.0384 L 88.737 38.0384 C 88.773 38.6644 88.951 39.1444 89.269 39.4774 C 89.588 39.8104 89.985 39.9774 90.462 39.9774 C 90.816 39.9774 91.119 39.8844 91.369 39.6974 C 91.62 39.5114 91.819 39.2144 91.966 38.8064 Z M 88.791 37.2434 L 91.976 37.2434 C 91.933 36.7634 91.812 36.4034 91.611 36.1634 C 91.303 35.7914 90.904 35.6054 90.413 35.6054 C 89.969 35.6054 89.596 35.7534 89.293 36.0504 C 88.991 36.3484 88.823 36.7454 88.791 37.2434 Z " style="fill:#fff;fill-rule:nonzero;" stroke-width="1"/><path d="M 94.168 40.6434 L 94.168 34.9394 L 95.038 34.9394 L 95.038 35.8034 C 95.26 35.3994 95.465 35.1324 95.653 35.0034 C 95.841 34.8744 96.048 34.8104 96.273 34.8104 C 96.599 34.8104 96.93 34.9144 97.267 35.1214 L 96.934 36.0184 C 96.697 35.8794 96.461 35.8094 96.225 35.8094 C 96.014 35.8094 95.824 35.8724 95.655 35.9994 C 95.487 36.1274 95.367 36.3034 95.296 36.5294 C 95.188 36.8724 95.134 37.2484 95.134 37.6564 L 95.134 40.6434 L 94.168 40.6434 Z " style="fill:#fff;fill-rule:nonzero;" stroke-width="1"/><path d="M 104.802 38.8064 L 105.801 38.9294 C 105.644 39.5134 105.352 39.9664 104.926 40.2884 C 104.5 40.6114 103.956 40.7724 103.293 40.7724 C 102.459 40.7724 101.797 40.5154 101.309 40.0014 C 100.82 39.4874 100.575 38.7664 100.575 37.8394 C 100.575 36.8794 100.822 36.1354 101.317 35.6054 C 101.811 35.0754 102.452 34.8104 103.239 34.8104 C 104.002 34.8104 104.625 35.0694 105.109 35.5894 C 105.592 36.1084 105.834 36.8384 105.834 37.7804 C 105.834 37.8374 105.832 37.9234 105.828 38.0384 L 101.574 38.0384 C 101.61 38.6644 101.787 39.1444 102.106 39.4774 C 102.425 39.8104 102.822 39.9774 103.299 39.9774 C 103.653 39.9774 103.956 39.8844 104.206 39.6974 C 104.457 39.5114 104.656 39.2144 104.802 38.8064 Z M 101.628 37.2434 L 104.813 37.2434 C 104.77 36.7634 104.648 36.4034 104.448 36.1634 C 104.14 35.7914 103.741 35.6054 103.25 35.6054 C 102.806 35.6054 102.433 35.7534 102.13 36.0504 C 101.828 36.3484 101.66 36.7454 101.628 37.2434 Z " style="fill:#fff;fill-rule:nonzero;" stroke-width="1"/><path d="M 107.015 40.6434 L 107.015 34.9394 L 107.885 34.9394 L 107.885 35.7504 C 108.304 35.1234 108.91 34.8104 109.701 34.8104 C 110.045 34.8104 110.361 34.8724 110.649 34.9954 C 110.937 35.1194 111.153 35.2814 111.296 35.4814 C 111.439 35.6824 111.54 35.9204 111.597 36.1964 C 111.633 36.3754 111.651 36.6884 111.651 37.1354 L 111.651 40.6434 L 110.684 40.6434 L 110.684 37.1734 C 110.684 36.7794 110.646 36.4854 110.571 36.2904 C 110.496 36.0944 110.362 35.9394 110.171 35.8224 C 109.979 35.7064 109.755 35.6484 109.497 35.6484 C 109.085 35.6484 108.73 35.7784 108.431 36.0404 C 108.132 36.3014 107.982 36.7974 107.982 37.5284 L 107.982 40.6434 L 107.015 40.6434 Z " style="fill:#fff;fill-rule:nonzero;" stroke-width="1"/><path d="M 117.038 38.8064 L 118.037 38.9294 C 117.879 39.5134 117.587 39.9664 117.161 40.2884 C 116.735 40.6114 116.191 40.7724 115.528 40.7724 C 114.694 40.7724 114.033 40.5154 113.544 40.0014 C 113.055 39.4874 112.811 38.7664 112.811 37.8394 C 112.811 36.8794 113.058 36.1354 113.552 35.6054 C 114.046 35.0754 114.687 34.8104 115.475 34.8104 C 116.237 34.8104 116.861 35.0694 117.344 35.5894 C 117.827 36.1084 118.069 36.8384 118.069 37.7804 C 118.069 37.8374 118.067 37.9234 118.064 38.0384 L 113.81 38.0384 C 113.846 38.6644 114.023 39.1444 114.341 39.4774 C 114.66 39.8104 115.058 39.9774 115.534 39.9774 C 115.888 39.9774 116.191 39.8844 116.442 39.6974 C 116.692 39.5114 116.891 39.2144 117.038 38.8064 Z M 113.863 37.2434 L 117.049 37.2434 C 117.006 36.7634 116.884 36.4034 116.683 36.1634 C 116.375 35.7914 115.976 35.6054 115.486 35.6054 C 115.042 35.6054 114.668 35.7534 114.366 36.0504 C 114.063 36.3484 113.896 36.7454 113.863 37.2434 Z " style="fill:#fff;fill-rule:nonzero;" stroke-width="1"/><path d="M 119.251 40.6434 L 119.251 34.9394 L 120.115 34.9394 L 120.115 35.7394 C 120.294 35.4604 120.533 35.2354 120.83 35.0654 C 121.127 34.8954 121.465 34.8104 121.845 34.8104 C 122.267 34.8104 122.614 34.8974 122.884 35.0734 C 123.155 35.2484 123.345 35.4944 123.456 35.8094 C 123.907 35.1434 124.495 34.8104 125.218 34.8104 C 125.784 34.8104 126.219 34.9664 126.523 35.2804 C 126.827 35.5934 126.98 36.0764 126.98 36.7274 L 126.98 40.6434 L 126.018 40.6434 L 126.018 37.0504 C 126.018 36.6634 125.987 36.3844 125.924 36.2144 C 125.862 36.0444 125.748 35.9074 125.583 35.8034 C 125.418 35.7004 125.225 35.6484 125.003 35.6484 C 124.602 35.6484 124.269 35.7814 124.004 36.0484 C 123.739 36.3154 123.607 36.7424 123.607 37.3294 L 123.607 40.6434 L 122.64 40.6434 L 122.64 36.9374 C 122.64 36.5074 122.561 36.1854 122.403 35.9704 C 122.246 35.7554 121.988 35.6484 121.63 35.6484 C 121.358 35.6484 121.106 35.7194 120.875 35.8634 C 120.644 36.0064 120.477 36.2154 120.373 36.4914 C 120.269 36.7674 120.217 37.1644 120.217 37.6834 L 120.217 40.6434 L 119.251 40.6434 Z " style="fill:#fff;fill-rule:nonzero;" stroke-width="1"/><path d="M 128.419 33.8814 L 128.419 32.7694 L 129.386 32.7694 L 129.386 33.8814 L 128.419 33.8814 Z M 128.419 40.6434 L 128.419 34.9394 L 129.386 34.9394 L 129.386 40.6434 L 128.419 40.6434 Z " style="fill:#fff;fill-rule:nonzero;" stroke-width="1"/><path d="M 134.762 38.8064 L 135.761 38.9294 C 135.604 39.5134 135.312 39.9664 134.886 40.2884 C 134.46 40.6114 133.916 40.7724 133.253 40.7724 C 132.419 40.7724 131.757 40.5154 131.268 40.0014 C 130.78 39.4874 130.535 38.7664 130.535 37.8394 C 130.535 36.8794 130.782 36.1354 131.277 35.6054 C 131.771 35.0754 132.412 34.8104 133.199 34.8104 C 133.962 34.8104 134.585 35.0694 135.069 35.5894 C 135.552 36.1084 135.794 36.8384 135.794 37.7804 C 135.794 37.8374 135.792 37.9234 135.788 38.0384 L 131.534 38.0384 C 131.57 38.6644 131.747 39.1444 132.066 39.4774 C 132.385 39.8104 132.782 39.9774 133.258 39.9774 C 133.613 39.9774 133.916 39.8844 134.166 39.6974 C 134.417 39.5114 134.616 39.2144 134.762 38.8064 Z M 131.588 37.2434 L 134.773 37.2434 C 134.73 36.7634 134.608 36.4034 134.408 36.1634 C 134.1 35.7914 133.701 35.6054 133.21 35.6054 C 132.766 35.6054 132.393 35.7534 132.09 36.0504 C 131.788 36.3484 131.62 36.7454 131.588 37.2434 Z " style="fill:#fff;fill-rule:nonzero;" stroke-width="1"/><path d="M 136.589 38.9404 L 137.545 38.7904 C 137.598 39.1734 137.748 39.4674 137.993 39.6714 C 138.238 39.8754 138.581 39.9774 139.022 39.9774 C 139.466 39.9774 139.795 39.8864 140.01 39.7064 C 140.225 39.5254 140.332 39.3134 140.332 39.0694 C 140.332 38.8514 140.237 38.6794 140.048 38.5534 C 139.915 38.4674 139.586 38.3584 139.059 38.2264 C 138.35 38.0474 137.859 37.8924 137.585 37.7614 C 137.311 37.6304 137.103 37.4504 136.962 37.2194 C 136.82 36.9884 136.75 36.7334 136.75 36.4534 C 136.75 36.1994 136.808 35.9644 136.924 35.7474 C 137.041 35.5304 137.199 35.3504 137.4 35.2074 C 137.55 35.0964 137.755 35.0024 138.015 34.9254 C 138.274 34.8484 138.553 34.8104 138.85 34.8104 C 139.297 34.8104 139.69 34.8744 140.029 35.0034 C 140.367 35.1324 140.617 35.3074 140.778 35.5274 C 140.939 35.7474 141.05 36.0424 141.111 36.4104 L 140.166 36.5394 C 140.123 36.2464 139.998 36.0164 139.792 35.8524 C 139.587 35.6874 139.296 35.6054 138.92 35.6054 C 138.476 35.6054 138.159 35.6784 137.969 35.8254 C 137.779 35.9724 137.684 36.1444 137.684 36.3414 C 137.684 36.4664 137.724 36.5794 137.802 36.6794 C 137.881 36.7834 138.005 36.8694 138.173 36.9374 C 138.27 36.9734 138.554 37.0554 139.027 37.1844 C 139.711 37.3664 140.188 37.5164 140.458 37.6324 C 140.729 37.7494 140.941 37.9184 141.095 38.1404 C 141.249 38.3624 141.326 38.6384 141.326 38.9674 C 141.326 39.2894 141.232 39.5934 141.044 39.8774 C 140.856 40.1624 140.585 40.3824 140.23 40.5384 C 139.876 40.6944 139.475 40.7724 139.027 40.7724 C 138.286 40.7724 137.721 40.6184 137.332 40.3104 C 136.944 40.0024 136.696 39.5454 136.589 38.9404 Z " style="fill:#fff;fill-rule:nonzero;" stroke-width="1"/><path d="M 149.254 39.9394 C 148.896 40.2444 148.551 40.4584 148.22 40.5844 C 147.888 40.7094 147.533 40.7724 147.153 40.7724 C 146.527 40.7724 146.045 40.6194 145.709 40.3124 C 145.372 40.0064 145.204 39.6154 145.204 39.1394 C 145.204 38.8604 145.267 38.6044 145.394 38.3734 C 145.522 38.1434 145.688 37.9574 145.894 37.8184 C 146.1 37.6784 146.332 37.5724 146.59 37.5014 C 146.779 37.4514 147.066 37.4024 147.449 37.3564 C 148.23 37.2634 148.804 37.1524 149.173 37.0234 C 149.177 36.8904 149.178 36.8064 149.178 36.7704 C 149.178 36.3764 149.087 36.0994 148.904 35.9384 C 148.657 35.7194 148.29 35.6104 147.803 35.6104 C 147.349 35.6104 147.013 35.6904 146.796 35.8494 C 146.58 36.0084 146.419 36.2904 146.316 36.6954 L 145.37 36.5664 C 145.456 36.1614 145.598 35.8354 145.795 35.5864 C 145.992 35.3374 146.276 35.1454 146.649 35.0114 C 147.021 34.8774 147.452 34.8104 147.943 34.8104 C 148.43 34.8104 148.826 34.8674 149.13 34.9824 C 149.434 35.0964 149.658 35.2404 149.801 35.4144 C 149.945 35.5884 150.045 35.8074 150.102 36.0724 C 150.134 36.2374 150.151 36.5344 150.151 36.9644 L 150.151 38.2534 C 150.151 39.1514 150.171 39.7204 150.212 39.9584 C 150.254 40.1964 150.335 40.4244 150.457 40.6434 L 149.447 40.6434 C 149.347 40.4424 149.282 40.2084 149.254 39.9394 Z M 149.173 37.7804 C 148.822 37.9234 148.296 38.0454 147.594 38.1454 C 147.196 38.2034 146.915 38.2674 146.751 38.3394 C 146.586 38.4104 146.459 38.5154 146.369 38.6534 C 146.28 38.7914 146.235 38.9444 146.235 39.1124 C 146.235 39.3704 146.333 39.5854 146.528 39.7574 C 146.723 39.9284 147.008 40.0144 147.384 40.0144 C 147.757 40.0144 148.088 39.9334 148.378 39.7704 C 148.668 39.6074 148.881 39.3844 149.017 39.1014 C 149.121 38.8834 149.173 38.5614 149.173 38.1344 L 149.173 37.7804 Z " style="fill:#fff;fill-rule:nonzero;" stroke-width="1"/><path d="M 151.638 40.6434 L 151.638 34.9394 L 152.508 34.9394 L 152.508 35.8034 C 152.73 35.3994 152.935 35.1324 153.123 35.0034 C 153.311 34.8744 153.518 34.8104 153.744 34.8104 C 154.07 34.8104 154.401 34.9144 154.737 35.1214 L 154.404 36.0184 C 154.168 35.8794 153.932 35.8094 153.695 35.8094 C 153.484 35.8094 153.294 35.8724 153.126 35.9994 C 152.958 36.1274 152.838 36.3034 152.766 36.5294 C 152.659 36.8724 152.605 37.2484 152.605 37.6564 L 152.605 40.6434 L 151.638 40.6434 Z " style="fill:#fff;fill-rule:nonzero;" stroke-width="1"/><path d="M 159.217 38.8064 L 160.216 38.9294 C 160.058 39.5134 159.767 39.9664 159.341 40.2884 C 158.914 40.6114 158.37 40.7724 157.708 40.7724 C 156.873 40.7724 156.212 40.5154 155.723 40.0014 C 155.234 39.4874 154.99 38.7664 154.99 37.8394 C 154.99 36.8794 155.237 36.1354 155.731 35.6054 C 156.225 35.0754 156.866 34.8104 157.654 34.8104 C 158.417 34.8104 159.04 35.0694 159.523 35.5894 C 160.007 36.1084 160.248 36.8384 160.248 37.7804 C 160.248 37.8374 160.246 37.9234 160.243 38.0384 L 155.989 38.0384 C 156.025 38.6644 156.202 39.1444 156.521 39.4774 C 156.839 39.8104 157.237 39.9774 157.713 39.9774 C 158.068 39.9774 158.37 39.8844 158.621 39.6974 C 158.871 39.5114 159.07 39.2144 159.217 38.8064 Z M 156.043 37.2434 L 159.228 37.2434 C 159.185 36.7634 159.063 36.4034 158.862 36.1634 C 158.555 35.7914 158.155 35.6054 157.665 35.6054 C 157.221 35.6054 156.847 35.7534 156.545 36.0504 C 156.242 36.3484 156.075 36.7454 156.043 37.2434 Z " style="fill:#fff;fill-rule:nonzero;" stroke-width="1"/><path d="M 168.187 40.6434 L 168.187 39.9234 C 167.825 40.4894 167.293 40.7724 166.591 40.7724 C 166.137 40.7724 165.719 40.6464 165.337 40.3964 C 164.956 40.1454 164.661 39.7954 164.451 39.3464 C 164.242 38.8964 164.137 38.3804 164.137 37.7964 C 164.137 37.2274 164.232 36.7104 164.422 36.2474 C 164.611 35.7834 164.896 35.4274 165.276 35.1804 C 165.655 34.9334 166.079 34.8104 166.549 34.8104 C 166.892 34.8104 167.198 34.8824 167.467 35.0274 C 167.736 35.1724 167.954 35.3614 168.122 35.5944 L 168.122 32.7694 L 169.084 32.7694 L 169.084 40.6434 L 168.187 40.6434 Z M 165.131 37.7964 C 165.131 38.5274 165.285 39.0734 165.592 39.4344 C 165.9 39.7964 166.264 39.9774 166.683 39.9774 C 167.105 39.9774 167.464 39.8044 167.76 39.4584 C 168.055 39.1134 168.203 38.5864 168.203 37.8774 C 168.203 37.0964 168.052 36.5234 167.752 36.1584 C 167.451 35.7934 167.08 35.6104 166.64 35.6104 C 166.21 35.6104 165.851 35.7864 165.563 36.1364 C 165.275 36.4874 165.131 37.0414 165.131 37.7964 Z " style="fill:#fff;fill-rule:nonzero;" stroke-width="1"/><path d="M 174.508 38.8064 L 175.507 38.9294 C 175.35 39.5134 175.058 39.9664 174.632 40.2884 C 174.206 40.6114 173.662 40.7724 172.999 40.7724 C 172.165 40.7724 171.503 40.5154 171.015 40.0014 C 170.526 39.4874 170.281 38.7664 170.281 37.8394 C 170.281 36.8794 170.528 36.1354 171.023 35.6054 C 171.517 35.0754 172.158 34.8104 172.945 34.8104 C 173.708 34.8104 174.331 35.0694 174.815 35.5894 C 175.298 36.1084 175.54 36.8384 175.54 37.7804 C 175.54 37.8374 175.538 37.9234 175.534 38.0384 L 171.28 38.0384 C 171.316 38.6644 171.494 39.1444 171.812 39.4774 C 172.131 39.8104 172.528 39.9774 173.005 39.9774 C 173.359 39.9774 173.662 39.8844 173.912 39.6974 C 174.163 39.5114 174.362 39.2144 174.508 38.8064 Z M 171.334 37.2434 L 174.519 37.2434 C 174.476 36.7634 174.355 36.4034 174.154 36.1634 C 173.846 35.7914 173.447 35.6054 172.956 35.6054 C 172.512 35.6054 172.139 35.7534 171.836 36.0504 C 171.534 36.3484 171.366 36.7454 171.334 37.2434 Z " style="fill:#fff;fill-rule:nonzero;" stroke-width="1"/><path d="M 176.952 40.6434 L 176.952 35.6914 L 176.098 35.6914 L 176.098 34.9394 L 176.952 34.9394 L 176.952 34.3324 C 176.952 33.9494 176.986 33.6644 177.054 33.4784 C 177.147 33.2274 177.311 33.0244 177.546 32.8684 C 177.78 32.7124 178.109 32.6344 178.531 32.6344 C 178.804 32.6344 179.104 32.6674 179.434 32.7314 L 179.289 33.5744 C 179.088 33.5394 178.898 33.5214 178.719 33.5214 C 178.426 33.5214 178.218 33.5834 178.096 33.7094 C 177.975 33.8344 177.914 34.0694 177.914 34.4124 L 177.914 34.9394 L 179.026 34.9394 L 179.026 35.6914 L 177.914 35.6914 L 177.914 40.6434 L 176.952 40.6434 Z " style="fill:#fff;fill-rule:nonzero;" stroke-width="1"/><path d="M 183.682 38.8064 L 184.681 38.9294 C 184.524 39.5134 184.232 39.9664 183.806 40.2884 C 183.38 40.6114 182.835 40.7724 182.173 40.7724 C 181.339 40.7724 180.677 40.5154 180.188 40.0014 C 179.7 39.4874 179.455 38.7664 179.455 37.8394 C 179.455 36.8794 179.702 36.1354 180.196 35.6054 C 180.691 35.0754 181.332 34.8104 182.119 34.8104 C 182.882 34.8104 183.505 35.0694 183.988 35.5894 C 184.472 36.1084 184.714 36.8384 184.714 37.7804 C 184.714 37.8374 184.712 37.9234 184.708 38.0384 L 180.454 38.0384 C 180.49 38.6644 180.667 39.1444 180.986 39.4774 C 181.305 39.8104 181.702 39.9774 182.178 39.9774 C 182.533 39.9774 182.835 39.8844 183.086 39.6974 C 183.337 39.5114 183.535 39.2144 183.682 38.8064 Z M 180.508 37.2434 L 183.693 37.2434 C 183.65 36.7634 183.528 36.4034 183.328 36.1634 C 183.02 35.7914 182.621 35.6054 182.13 35.6054 C 181.686 35.6054 181.313 35.7534 181.01 36.0504 C 180.708 36.3484 180.54 36.7454 180.508 37.2434 Z " style="fill:#fff;fill-rule:nonzero;" stroke-width="1"/><path d="M 189.617 39.9394 C 189.259 40.2444 188.915 40.4584 188.583 40.5844 C 188.252 40.7094 187.897 40.7724 187.517 40.7724 C 186.891 40.7724 186.409 40.6194 186.072 40.3124 C 185.736 40.0064 185.568 39.6154 185.568 39.1394 C 185.568 38.8604 185.631 38.6044 185.758 38.3734 C 185.885 38.1434 186.052 37.9574 186.258 37.8184 C 186.464 37.6784 186.695 37.5724 186.953 37.5014 C 187.143 37.4514 187.43 37.4024 187.813 37.3564 C 188.593 37.2634 189.168 37.1524 189.537 37.0234 C 189.54 36.8904 189.542 36.8064 189.542 36.7704 C 189.542 36.3764 189.451 36.0994 189.268 35.9384 C 189.021 35.7194 188.654 35.6104 188.167 35.6104 C 187.712 35.6104 187.377 35.6904 187.16 35.8494 C 186.943 36.0084 186.783 36.2904 186.679 36.6954 L 185.734 36.5664 C 185.82 36.1614 185.961 35.8354 186.158 35.5864 C 186.355 35.3374 186.64 35.1454 187.012 35.0114 C 187.385 34.8774 187.816 34.8104 188.307 34.8104 C 188.794 34.8104 189.189 34.8674 189.494 34.9824 C 189.798 35.0964 190.022 35.2404 190.165 35.4144 C 190.308 35.5884 190.409 35.8074 190.466 36.0724 C 190.498 36.2374 190.514 36.5344 190.514 36.9644 L 190.514 38.2534 C 190.514 39.1514 190.535 39.7204 190.576 39.9584 C 190.617 40.1964 190.699 40.4244 190.82 40.6434 L 189.811 40.6434 C 189.71 40.4424 189.646 40.2084 189.617 39.9394 Z M 189.537 37.7804 C 189.186 37.9234 188.66 38.0454 187.958 38.1454 C 187.56 38.2034 187.279 38.2674 187.114 38.3394 C 186.95 38.4104 186.823 38.5154 186.733 38.6534 C 186.644 38.7914 186.599 38.9444 186.599 39.1124 C 186.599 39.3704 186.696 39.5854 186.892 39.7574 C 187.087 39.9284 187.372 40.0144 187.748 40.0144 C 188.121 40.0144 188.452 39.9334 188.742 39.7704 C 189.032 39.6074 189.245 39.3844 189.381 39.1014 C 189.485 38.8834 189.537 38.5614 189.537 38.1344 L 189.537 37.7804 Z " style="fill:#fff;fill-rule:nonzero;" stroke-width="1"/><path d="M 194.124 39.7784 L 194.263 40.6324 C 193.991 40.6894 193.748 40.7184 193.533 40.7184 C 193.182 40.7184 192.91 40.6624 192.716 40.5514 C 192.523 40.4404 192.387 40.2954 192.308 40.1144 C 192.23 39.9334 192.19 39.5524 192.19 38.9724 L 192.19 35.6914 L 191.481 35.6914 L 191.481 34.9394 L 192.19 34.9394 L 192.19 33.5264 L 193.152 32.9464 L 193.152 34.9394 L 194.124 34.9394 L 194.124 35.6914 L 193.152 35.6914 L 193.152 39.0264 C 193.152 39.3024 193.169 39.4794 193.203 39.5584 C 193.237 39.6374 193.292 39.6994 193.369 39.7464 C 193.446 39.7924 193.556 39.8164 193.699 39.8164 C 193.807 39.8164 193.948 39.8034 194.124 39.7784 Z " style="fill:#fff;fill-rule:nonzero;" stroke-width="1"/><path d="M 198.791 39.9394 C 198.433 40.2444 198.088 40.4584 197.757 40.5844 C 197.426 40.7094 197.071 40.7724 196.691 40.7724 C 196.064 40.7724 195.583 40.6194 195.246 40.3124 C 194.91 40.0064 194.741 39.6154 194.741 39.1394 C 194.741 38.8604 194.805 38.6044 194.932 38.3734 C 195.059 38.1434 195.226 37.9574 195.432 37.8184 C 195.637 37.6784 195.869 37.5724 196.127 37.5014 C 196.317 37.4514 196.603 37.4024 196.987 37.3564 C 197.767 37.2634 198.342 37.1524 198.711 37.0234 C 198.714 36.8904 198.716 36.8064 198.716 36.7704 C 198.716 36.3764 198.625 36.0994 198.442 35.9384 C 198.195 35.7194 197.828 35.6104 197.341 35.6104 C 196.886 35.6104 196.551 35.6904 196.334 35.8494 C 196.117 36.0084 195.957 36.2904 195.853 36.6954 L 194.908 36.5664 C 194.994 36.1614 195.135 35.8354 195.332 35.5864 C 195.529 35.3374 195.814 35.1454 196.186 35.0114 C 196.559 34.8774 196.99 34.8104 197.481 34.8104 C 197.968 34.8104 198.363 34.8674 198.668 34.9824 C 198.972 35.0964 199.196 35.2404 199.339 35.4144 C 199.482 35.5884 199.583 35.8074 199.64 36.0724 C 199.672 36.2374 199.688 36.5344 199.688 36.9644 L 199.688 38.2534 C 199.688 39.1514 199.709 39.7204 199.75 39.9584 C 199.791 40.1964 199.873 40.4244 199.994 40.6434 L 198.985 40.6434 C 198.884 40.4424 198.82 40.2084 198.791 39.9394 Z M 198.711 37.7804 C 198.36 37.9234 197.833 38.0454 197.132 38.1454 C 196.734 38.2034 196.453 38.2674 196.288 38.3394 C 196.124 38.4104 195.996 38.5154 195.907 38.6534 C 195.817 38.7914 195.773 38.9444 195.773 39.1124 C 195.773 39.3704 195.87 39.5854 196.065 39.7574 C 196.261 39.9284 196.546 40.0144 196.922 40.0144 C 197.294 40.0144 197.626 39.9334 197.916 39.7704 C 198.206 39.6074 198.419 39.3844 198.555 39.1014 C 198.659 38.8834 198.711 38.5614 198.711 38.1344 L 198.711 37.7804 Z " style="fill:#fff;fill-rule:nonzero;" stroke-width="1"/><path d="M 202.078 40.6434 L 201.181 40.6434 L 201.181 32.7694 L 202.148 32.7694 L 202.148 35.5784 C 202.556 35.0664 203.077 34.8104 203.711 34.8104 C 204.062 34.8104 204.394 34.8804 204.707 35.0224 C 205.021 35.1634 205.279 35.3624 205.481 35.6184 C 205.683 35.8744 205.842 36.1834 205.956 36.5454 C 206.071 36.9064 206.128 37.2934 206.128 37.7054 C 206.128 38.6824 205.886 39.4384 205.403 39.9714 C 204.92 40.5054 204.34 40.7724 203.663 40.7724 C 202.99 40.7724 202.461 40.4914 202.078 39.9284 L 202.078 40.6434 Z M 202.068 37.7484 C 202.068 38.4324 202.161 38.9264 202.347 39.2304 C 202.651 39.7284 203.063 39.9774 203.582 39.9774 C 204.005 39.9774 204.37 39.7934 204.678 39.4264 C 204.986 39.0594 205.14 38.5124 205.14 37.7854 C 205.14 37.0414 204.992 36.4914 204.697 36.1364 C 204.401 35.7824 204.044 35.6054 203.625 35.6054 C 203.203 35.6054 202.837 35.7884 202.529 36.1554 C 202.222 36.5224 202.068 37.0534 202.068 37.7484 Z " style="fill:#fff;fill-rule:nonzero;" stroke-width="1"/><rect x="371.876" y="71.062" width="0.967" height="7.874" style="fill:#fff;fill-rule:nonzero;" stroke-width="1" transform="matrix(1,0,0,1,-164.593,-38.2926)"/><path d="M 213.653 38.8064 L 214.652 38.9294 C 214.494 39.5134 214.203 39.9664 213.777 40.2884 C 213.35 40.6114 212.806 40.7724 212.144 40.7724 C 211.309 40.7724 210.648 40.5154 210.159 40.0014 C 209.67 39.4874 209.426 38.7664 209.426 37.8394 C 209.426 36.8794 209.673 36.1354 210.167 35.6054 C 210.661 35.0754 211.302 34.8104 212.09 34.8104 C 212.853 34.8104 213.476 35.0694 213.959 35.5894 C 214.443 36.1084 214.684 36.8384 214.684 37.7804 C 214.684 37.8374 214.682 37.9234 214.679 38.0384 L 210.425 38.0384 C 210.461 38.6644 210.638 39.1444 210.957 39.4774 C 211.275 39.8104 211.673 39.9774 212.149 39.9774 C 212.504 39.9774 212.806 39.8844 213.057 39.6974 C 213.307 39.5114 213.506 39.2144 213.653 38.8064 Z M 210.479 37.2434 L 213.664 37.2434 C 213.621 36.7634 213.499 36.4034 213.299 36.1634 C 212.991 35.7914 212.591 35.6054 212.101 35.6054 C 211.657 35.6054 211.283 35.7534 210.981 36.0504 C 210.678 36.3484 210.511 36.7454 210.479 37.2434 Z " style="fill:#fff;fill-rule:nonzero;" stroke-width="1"/><path d="M 218.562 37.7914 C 218.562 36.7344 218.856 35.9524 219.443 35.4444 C 219.934 35.0214 220.532 34.8104 221.237 34.8104 C 222.021 34.8104 222.662 35.0674 223.16 35.5814 C 223.658 36.0944 223.906 36.8044 223.906 37.7104 C 223.906 38.4444 223.796 39.0224 223.576 39.4424 C 223.356 39.8634 223.035 40.1904 222.615 40.4234 C 222.194 40.6554 221.735 40.7724 221.237 40.7724 C 220.438 40.7724 219.793 40.5164 219.301 40.0044 C 218.808 39.4924 218.562 38.7544 218.562 37.7914 Z M 219.556 37.7914 C 219.556 38.5214 219.715 39.0684 220.034 39.4324 C 220.353 39.7954 220.754 39.9774 221.237 39.9774 C 221.717 39.9774 222.116 39.7944 222.435 39.4294 C 222.753 39.0644 222.913 38.5074 222.913 37.7584 C 222.913 37.0534 222.753 36.5194 222.432 36.1554 C 222.112 35.7924 221.713 35.6104 221.237 35.6104 C 220.754 35.6104 220.353 35.7914 220.034 36.1534 C 219.715 36.5144 219.556 37.0604 219.556 37.7914 Z " style="fill:#fff;fill-rule:nonzero;" stroke-width="1"/><path d="M 225.029 40.6434 L 225.029 34.9394 L 225.899 34.9394 L 225.899 35.8034 C 226.121 35.3994 226.326 35.1324 226.514 35.0034 C 226.702 34.8744 226.909 34.8104 227.134 34.8104 C 227.46 34.8104 227.792 34.9144 228.128 35.1214 L 227.795 36.0184 C 227.559 35.8794 227.322 35.8094 227.086 35.8094 C 226.875 35.8094 226.685 35.8724 226.517 35.9994 C 226.348 36.1274 226.229 36.3034 226.157 36.5294 C 226.049 36.8724 225.996 37.2484 225.996 37.6564 L 225.996 40.6434 L 225.029 40.6434 Z " style="fill:#fff;fill-rule:nonzero;" stroke-width="1"/><path d="M 231.759 40.6434 L 231.759 34.9394 L 232.629 34.9394 L 232.629 35.7504 C 233.048 35.1234 233.653 34.8104 234.445 34.8104 C 234.788 34.8104 235.104 34.8724 235.393 34.9954 C 235.681 35.1194 235.896 35.2814 236.04 35.4814 C 236.183 35.6824 236.283 35.9204 236.341 36.1964 C 236.376 36.3754 236.394 36.6884 236.394 37.1354 L 236.394 40.6434 L 235.427 40.6434 L 235.427 37.1734 C 235.427 36.7794 235.39 36.4854 235.315 36.2904 C 235.239 36.0944 235.106 35.9394 234.914 35.8224 C 234.723 35.7064 234.498 35.6484 234.24 35.6484 C 233.829 35.6484 233.473 35.7784 233.174 36.0404 C 232.875 36.3014 232.726 36.7974 232.726 37.5284 L 232.726 40.6434 L 231.759 40.6434 Z " style="fill:#fff;fill-rule:nonzero;" stroke-width="1"/><path d="M 237.517 37.7914 C 237.517 36.7344 237.81 35.9524 238.398 35.4444 C 238.888 35.0214 239.486 34.8104 240.192 34.8104 C 240.976 34.8104 241.617 35.0674 242.114 35.5814 C 242.612 36.0944 242.861 36.8044 242.861 37.7104 C 242.861 38.4444 242.751 39.0224 242.531 39.4424 C 242.31 39.8634 241.99 40.1904 241.569 40.4234 C 241.149 40.6554 240.689 40.7724 240.192 40.7724 C 239.393 40.7724 238.748 40.5164 238.255 40.0044 C 237.763 39.4924 237.517 38.7544 237.517 37.7914 Z M 238.51 37.7914 C 238.51 38.5214 238.67 39.0684 238.988 39.4324 C 239.307 39.7954 239.708 39.9774 240.192 39.9774 C 240.671 39.9774 241.071 39.7944 241.389 39.4294 C 241.708 39.0644 241.867 38.5074 241.867 37.7584 C 241.867 37.0534 241.707 36.5194 241.387 36.1554 C 241.066 35.7924 240.668 35.6104 240.192 35.6104 C 239.708 35.6104 239.307 35.7914 238.988 36.1534 C 238.67 36.5144 238.51 37.0604 238.51 37.7914 Z " style="fill:#fff;fill-rule:nonzero;" stroke-width="1"/><path d="M 246.105 39.7784 L 246.245 40.6324 C 245.973 40.6894 245.729 40.7184 245.514 40.7184 C 245.163 40.7184 244.891 40.6624 244.698 40.5514 C 244.505 40.4404 244.369 40.2954 244.29 40.1144 C 244.211 39.9334 244.172 39.5524 244.172 38.9724 L 244.172 35.6914 L 243.463 35.6914 L 243.463 34.9394 L 244.172 34.9394 L 244.172 33.5264 L 245.133 32.9464 L 245.133 34.9394 L 246.105 34.9394 L 246.105 35.6914 L 245.133 35.6914 L 245.133 39.0264 C 245.133 39.3024 245.15 39.4794 245.184 39.5584 C 245.218 39.6374 245.274 39.6994 245.351 39.7464 C 245.428 39.7924 245.538 39.8164 245.681 39.8164 C 245.788 39.8164 245.93 39.8034 246.105 39.7784 Z " style="fill:#fff;fill-rule:nonzero;" stroke-width="1"/><rect x="411.917" y="77.835" width="1.101" height="1.101" style="fill:#fff;fill-rule:nonzero;" stroke-width="1" transform="matrix(1,0,0,1,-164.593,-38.2926)"/><path d="M 10.808 52.0034 L 10.808 45.0584 L 8.214 45.0584 L 8.214 44.1294 L 14.455 44.1294 L 14.455 45.0584 L 11.85 45.0584 L 11.85 52.0034 L 10.808 52.0034 Z " style="fill:#fff;fill-rule:nonzero;" stroke-width="1"/><path d="M 13.821 49.1514 C 13.821 48.0944 14.115 47.3124 14.702 46.8034 C 15.193 46.3814 15.791 46.1704 16.496 46.1704 C 17.28 46.1704 17.921 46.4274 18.419 46.9404 C 18.917 47.4544 19.166 48.1644 19.166 49.0704 C 19.166 49.8044 19.056 50.3814 18.835 50.8024 C 18.615 51.2234 18.295 51.5504 17.874 51.7824 C 17.453 52.0154 16.994 52.1324 16.496 52.1324 C 15.698 52.1324 15.052 51.8764 14.56 51.3634 C 14.068 50.8514 13.821 50.1144 13.821 49.1514 Z M 14.815 49.1514 C 14.815 49.8814 14.974 50.4284 15.293 50.7914 C 15.612 51.1554 16.013 51.3374 16.496 51.3374 C 16.976 51.3374 17.375 51.1544 17.694 50.7894 C 18.013 50.4244 18.172 49.8674 18.172 49.1184 C 18.172 48.4134 18.012 47.8794 17.691 47.5154 C 17.371 47.1524 16.973 46.9704 16.496 46.9704 C 16.013 46.9704 15.612 47.1514 15.293 47.5124 C 14.974 47.8744 14.815 48.4204 14.815 49.1514 Z " style="fill:#fff;fill-rule:nonzero;" stroke-width="1"/><path d="M 23.361 52.0034 L 23.361 44.1294 L 24.327 44.1294 L 24.327 48.6194 L 26.615 46.2994 L 27.867 46.2994 L 25.686 48.4154 L 28.087 52.0034 L 26.895 52.0034 L 25.009 49.0864 L 24.327 49.7414 L 24.327 52.0034 L 23.361 52.0034 Z " style="fill:#fff;fill-rule:nonzero;" stroke-width="1"/><path d="M 28.861 45.2404 L 28.861 44.1294 L 29.827 44.1294 L 29.827 45.2404 L 28.861 45.2404 Z M 28.861 52.0034 L 28.861 46.2994 L 29.827 46.2994 L 29.827 52.0034 L 28.861 52.0034 Z " style="fill:#fff;fill-rule:nonzero;" stroke-width="1"/><rect x="195.871" y="82.422" width="0.967" height="7.874" style="fill:#fff;fill-rule:nonzero;" stroke-width="1" transform="matrix(1,0,0,1,-164.593,-38.2926)"/><rect x="198.314" y="82.422" width="0.967" height="7.874" style="fill:#fff;fill-rule:nonzero;" stroke-width="1" transform="matrix(1,0,0,1,-164.593,-38.2926)"/><path d="M 42.965 51.2994 C 42.607 51.6034 42.262 51.8184 41.931 51.9444 C 41.6 52.0694 41.244 52.1324 40.865 52.1324 C 40.238 52.1324 39.757 51.9784 39.42 51.6724 C 39.084 51.3664 38.915 50.9754 38.915 50.4994 C 38.915 50.2194 38.979 49.9644 39.106 49.7334 C 39.233 49.5024 39.4 49.3174 39.605 49.1774 C 39.811 49.0384 40.043 48.9324 40.301 48.8614 C 40.491 48.8104 40.777 48.7624 41.16 48.7164 C 41.941 48.6224 42.516 48.5114 42.884 48.3834 C 42.888 48.2504 42.89 48.1664 42.89 48.1304 C 42.89 47.7364 42.799 47.4594 42.616 47.2984 C 42.369 47.0794 42.002 46.9704 41.515 46.9704 C 41.06 46.9704 40.724 47.0504 40.508 47.2094 C 40.291 47.3684 40.131 47.6504 40.027 48.0554 L 39.082 47.9264 C 39.168 47.5214 39.309 47.1954 39.506 46.9464 C 39.703 46.6974 39.988 46.5054 40.36 46.3714 C 40.732 46.2374 41.164 46.1704 41.654 46.1704 C 42.141 46.1704 42.537 46.2274 42.841 46.3424 C 43.146 46.4564 43.37 46.6004 43.513 46.7744 C 43.656 46.9484 43.756 47.1674 43.814 47.4324 C 43.846 47.5974 43.862 47.8944 43.862 48.3234 L 43.862 49.6134 C 43.862 50.5114 43.883 51.0804 43.924 51.3184 C 43.965 51.5564 44.046 51.7844 44.168 52.0034 L 43.158 52.0034 C 43.058 51.8024 42.994 51.5684 42.965 51.2994 Z M 42.884 49.1404 C 42.534 49.2834 42.007 49.4054 41.305 49.5054 C 40.908 49.5624 40.627 49.6274 40.462 49.6984 C 40.297 49.7704 40.17 49.8754 40.081 50.0134 C 39.991 50.1514 39.946 50.3044 39.946 50.4724 C 39.946 50.7304 40.044 50.9454 40.239 51.1164 C 40.434 51.2884 40.72 51.3744 41.096 51.3744 C 41.468 51.3744 41.799 51.2934 42.09 51.1304 C 42.38 50.9674 42.593 50.7444 42.729 50.4614 C 42.833 50.2434 42.884 49.9204 42.884 49.4944 L 42.884 49.1404 Z " style="fill:#fff;fill-rule:nonzero;" stroke-width="1"/><path d="M 52.117 52.0034 L 52.117 51.2834 C 51.756 51.8494 51.224 52.1324 50.522 52.1324 C 50.067 52.1324 49.649 52.0064 49.268 51.7564 C 48.887 51.5054 48.591 51.1554 48.382 50.7064 C 48.172 50.2564 48.068 49.7404 48.068 49.1564 C 48.068 48.5874 48.162 48.0704 48.352 47.6064 C 48.542 47.1434 48.827 46.7874 49.206 46.5404 C 49.586 46.2934 50.01 46.1704 50.479 46.1704 C 50.823 46.1704 51.129 46.2424 51.398 46.3874 C 51.666 46.5324 51.885 46.7214 52.053 46.9544 L 52.053 44.1294 L 53.014 44.1294 L 53.014 52.0034 L 52.117 52.0034 Z M 49.061 49.1564 C 49.061 49.8864 49.215 50.4324 49.523 50.7944 C 49.831 51.1564 50.195 51.3374 50.613 51.3374 C 51.036 51.3374 51.395 51.1644 51.69 50.8184 C 51.986 50.4734 52.133 49.9464 52.133 49.2374 C 52.133 48.4564 51.983 47.8834 51.682 47.5184 C 51.382 47.1534 51.011 46.9704 50.57 46.9704 C 50.141 46.9704 49.782 47.1454 49.494 47.4964 C 49.205 47.8474 49.061 48.4004 49.061 49.1564 Z " style="fill:#fff;fill-rule:nonzero;" stroke-width="1"/><path d="M 58.439 50.1664 L 59.438 50.2894 C 59.281 50.8734 58.989 51.3264 58.563 51.6484 C 58.137 51.9704 57.592 52.1324 56.93 52.1324 C 56.096 52.1324 55.434 51.8754 54.945 51.3614 C 54.456 50.8474 54.212 50.1264 54.212 49.1994 C 54.212 48.2394 54.459 47.4954 54.953 46.9654 C 55.447 46.4354 56.088 46.1704 56.876 46.1704 C 57.639 46.1704 58.262 46.4294 58.745 46.9484 C 59.229 47.4684 59.47 48.1984 59.47 49.1404 C 59.47 49.1974 59.469 49.2834 59.465 49.3984 L 55.211 49.3984 C 55.247 50.0244 55.424 50.5044 55.743 50.8374 C 56.062 51.1704 56.459 51.3374 56.935 51.3374 C 57.29 51.3374 57.592 51.2444 57.843 51.0574 C 58.094 50.8714 58.292 50.5744 58.439 50.1664 Z M 55.265 48.6034 L 58.45 48.6034 C 58.407 48.1234 58.285 47.7634 58.085 47.5234 C 57.777 47.1514 57.377 46.9654 56.887 46.9654 C 56.443 46.9654 56.07 47.1134 55.767 47.4104 C 55.464 47.7084 55.297 48.1054 55.265 48.6034 Z " style="fill:#fff;fill-rule:nonzero;" stroke-width="1"/><path d="M 60.883 52.0034 L 60.883 47.0504 L 60.029 47.0504 L 60.029 46.2994 L 60.883 46.2994 L 60.883 45.6924 C 60.883 45.3084 60.917 45.0244 60.985 44.8384 C 61.078 44.5874 61.242 44.3844 61.476 44.2284 C 61.711 44.0724 62.04 43.9944 62.462 43.9944 C 62.734 43.9944 63.035 44.0274 63.364 44.0914 L 63.219 44.9344 C 63.019 44.8984 62.829 44.8814 62.65 44.8814 C 62.356 44.8814 62.149 44.9434 62.027 45.0694 C 61.905 45.1944 61.844 45.4284 61.844 45.7724 L 61.844 46.2994 L 62.956 46.2994 L 62.956 47.0504 L 61.844 47.0504 L 61.844 52.0034 L 60.883 52.0034 Z " style="fill:#fff;fill-rule:nonzero;" stroke-width="1"/><path d="M 67.613 50.1664 L 68.612 50.2894 C 68.454 50.8734 68.163 51.3264 67.737 51.6484 C 67.31 51.9704 66.766 52.1324 66.104 52.1324 C 65.269 52.1324 64.608 51.8754 64.119 51.3614 C 63.63 50.8474 63.386 50.1264 63.386 49.1994 C 63.386 48.2394 63.633 47.4954 64.127 46.9654 C 64.621 46.4354 65.262 46.1704 66.05 46.1704 C 66.813 46.1704 67.436 46.4294 67.919 46.9484 C 68.403 47.4684 68.644 48.1984 68.644 49.1404 C 68.644 49.1974 68.642 49.2834 68.639 49.3984 L 64.385 49.3984 C 64.421 50.0244 64.598 50.5044 64.917 50.8374 C 65.235 51.1704 65.633 51.3374 66.109 51.3374 C 66.464 51.3374 66.766 51.2444 67.017 51.0574 C 67.267 50.8714 67.466 50.5744 67.613 50.1664 Z M 64.439 48.6034 L 67.624 48.6034 C 67.581 48.1234 67.459 47.7634 67.258 47.5234 C 66.951 47.1514 66.551 46.9654 66.061 46.9654 C 65.617 46.9654 65.243 47.1134 64.941 47.4104 C 64.638 47.7084 64.471 48.1054 64.439 48.6034 Z " style="fill:#fff;fill-rule:nonzero;" stroke-width="1"/><path d="M 73.548 51.2994 C 73.19 51.6034 72.845 51.8184 72.514 51.9444 C 72.183 52.0694 71.827 52.1324 71.448 52.1324 C 70.821 52.1324 70.34 51.9784 70.003 51.6724 C 69.667 51.3664 69.498 50.9754 69.498 50.4994 C 69.498 50.2194 69.562 49.9644 69.689 49.7334 C 69.816 49.5024 69.983 49.3174 70.188 49.1774 C 70.394 49.0384 70.626 48.9324 70.884 48.8614 C 71.074 48.8104 71.36 48.7624 71.743 48.7164 C 72.524 48.6224 73.099 48.5114 73.467 48.3834 C 73.471 48.2504 73.473 48.1664 73.473 48.1304 C 73.473 47.7364 73.382 47.4594 73.199 47.2984 C 72.952 47.0794 72.585 46.9704 72.098 46.9704 C 71.643 46.9704 71.307 47.0504 71.091 47.2094 C 70.874 47.3684 70.714 47.6504 70.61 48.0554 L 69.665 47.9264 C 69.751 47.5214 69.892 47.1954 70.089 46.9464 C 70.286 46.6974 70.571 46.5054 70.943 46.3714 C 71.315 46.2374 71.747 46.1704 72.237 46.1704 C 72.724 46.1704 73.12 46.2274 73.424 46.3424 C 73.729 46.4564 73.953 46.6004 74.096 46.7744 C 74.239 46.9484 74.339 47.1674 74.397 47.4324 C 74.429 47.5974 74.445 47.8944 74.445 48.3234 L 74.445 49.6134 C 74.445 50.5114 74.466 51.0804 74.507 51.3184 C 74.548 51.5564 74.629 51.7844 74.751 52.0034 L 73.741 52.0034 C 73.641 51.8024 73.577 51.5684 73.548 51.2994 Z M 73.467 49.1404 C 73.117 49.2834 72.59 49.4054 71.888 49.5054 C 71.491 49.5624 71.21 49.6274 71.045 49.6984 C 70.88 49.7704 70.753 49.8754 70.664 50.0134 C 70.574 50.1514 70.529 50.3044 70.529 50.4724 C 70.529 50.7304 70.627 50.9454 70.822 51.1164 C 71.017 51.2884 71.303 51.3744 71.679 51.3744 C 72.051 51.3744 72.382 51.2934 72.673 51.1304 C 72.963 50.9674 73.176 50.7444 73.312 50.4614 C 73.416 50.2434 73.467 49.9204 73.467 49.4944 L 73.467 49.1404 Z " style="fill:#fff;fill-rule:nonzero;" stroke-width="1"/><path d="M 78.054 51.1384 L 78.194 51.9924 C 77.922 52.0494 77.678 52.0784 77.464 52.0784 C 77.113 52.0784 76.841 52.0224 76.647 51.9114 C 76.454 51.8004 76.318 51.6544 76.239 51.4744 C 76.16 51.2934 76.121 50.9124 76.121 50.3324 L 76.121 47.0504 L 75.412 47.0504 L 75.412 46.2994 L 76.121 46.2994 L 76.121 44.8864 L 77.082 44.3064 L 77.082 46.2994 L 78.054 46.2994 L 78.054 47.0504 L 77.082 47.0504 L 77.082 50.3864 C 77.082 50.6624 77.099 50.8394 77.133 50.9184 C 77.167 50.9964 77.223 51.0594 77.3 51.1064 C 77.377 51.1524 77.487 51.1754 77.63 51.1754 C 77.737 51.1754 77.879 51.1634 78.054 51.1384 Z " style="fill:#fff;fill-rule:nonzero;" stroke-width="1"/><path d="M 82.722 51.2994 C 82.364 51.6034 82.019 51.8184 81.688 51.9444 C 81.357 52.0694 81.001 52.1324 80.622 52.1324 C 79.995 52.1324 79.514 51.9784 79.177 51.6724 C 78.84 51.3664 78.672 50.9754 78.672 50.4994 C 78.672 50.2194 78.736 49.9644 78.863 49.7334 C 78.99 49.5024 79.156 49.3174 79.362 49.1774 C 79.568 49.0384 79.8 48.9324 80.058 48.8614 C 80.248 48.8104 80.534 48.7624 80.917 48.7164 C 81.698 48.6224 82.272 48.5114 82.641 48.3834 C 82.645 48.2504 82.647 48.1664 82.647 48.1304 C 82.647 47.7364 82.555 47.4594 82.373 47.2984 C 82.126 47.0794 81.759 46.9704 81.272 46.9704 C 80.817 46.9704 80.481 47.0504 80.265 47.2094 C 80.048 47.3684 79.888 47.6504 79.784 48.0554 L 78.839 47.9264 C 78.924 47.5214 79.066 47.1954 79.263 46.9464 C 79.46 46.6974 79.744 46.5054 80.117 46.3714 C 80.489 46.2374 80.921 46.1704 81.411 46.1704 C 81.898 46.1704 82.294 46.2274 82.598 46.3424 C 82.903 46.4564 83.126 46.6004 83.27 46.7744 C 83.413 46.9484 83.513 47.1674 83.57 47.4324 C 83.603 47.5974 83.619 47.8944 83.619 48.3234 L 83.619 49.6134 C 83.619 50.5114 83.639 51.0804 83.681 51.3184 C 83.722 51.5564 83.803 51.7844 83.925 52.0034 L 82.915 52.0034 C 82.815 51.8024 82.75 51.5684 82.722 51.2994 Z M 82.641 49.1404 C 82.29 49.2834 81.764 49.4054 81.062 49.5054 C 80.665 49.5624 80.384 49.6274 80.219 49.6984 C 80.054 49.7704 79.927 49.8754 79.838 50.0134 C 79.748 50.1514 79.703 50.3044 79.703 50.4724 C 79.703 50.7304 79.801 50.9454 79.996 51.1164 C 80.191 51.2884 80.477 51.3744 80.853 51.3744 C 81.225 51.3744 81.556 51.2934 81.846 51.1304 C 82.136 50.9674 82.349 50.7444 82.486 50.4614 C 82.589 50.2434 82.641 49.9204 82.641 49.4944 L 82.641 49.1404 Z " style="fill:#fff;fill-rule:nonzero;" stroke-width="1"/><path d="M 86.009 52.0034 L 85.112 52.0034 L 85.112 44.1294 L 86.079 44.1294 L 86.079 46.9384 C 86.487 46.4264 87.008 46.1704 87.642 46.1704 C 87.993 46.1704 88.325 46.2404 88.638 46.3824 C 88.951 46.5234 89.209 46.7224 89.412 46.9784 C 89.614 47.2344 89.772 47.5434 89.887 47.9044 C 90.001 48.2664 90.059 48.6534 90.059 49.0654 C 90.059 50.0424 89.817 50.7984 89.334 51.3314 C 88.85 51.8654 88.27 52.1324 87.593 52.1324 C 86.92 52.1324 86.392 51.8504 86.009 51.2884 L 86.009 52.0034 Z M 85.998 49.1084 C 85.998 49.7924 86.091 50.2864 86.278 50.5904 C 86.582 51.0884 86.994 51.3374 87.513 51.3374 C 87.935 51.3374 88.301 51.1534 88.609 50.7864 C 88.917 50.4194 89.07 49.8724 89.07 49.1454 C 89.07 48.4004 88.923 47.8514 88.627 47.4964 C 88.332 47.1424 87.975 46.9654 87.556 46.9654 C 87.133 46.9654 86.768 47.1484 86.46 47.5154 C 86.152 47.8824 85.998 48.4134 85.998 49.1084 Z " style="fill:#fff;fill-rule:nonzero;" stroke-width="1"/><rect x="255.807" y="82.422" width="0.967" height="7.874" style="fill:#fff;fill-rule:nonzero;" stroke-width="1" transform="matrix(1,0,0,1,-164.593,-38.2926)"/><path d="M 97.584 50.1664 L 98.583 50.2894 C 98.425 50.8734 98.133 51.3264 97.707 51.6484 C 97.281 51.9704 96.737 52.1324 96.074 52.1324 C 95.24 52.1324 94.579 51.8754 94.09 51.3614 C 93.601 50.8474 93.357 50.1264 93.357 49.1994 C 93.357 48.2394 93.604 47.4954 94.098 46.9654 C 94.592 46.4354 95.233 46.1704 96.021 46.1704 C 96.783 46.1704 97.406 46.4294 97.89 46.9484 C 98.373 47.4684 98.615 48.1984 98.615 49.1404 C 98.615 49.1974 98.613 49.2834 98.61 49.3984 L 94.356 49.3984 C 94.391 50.0244 94.569 50.5044 94.887 50.8374 C 95.206 51.1704 95.604 51.3374 96.08 51.3374 C 96.434 51.3374 96.737 51.2444 96.987 51.0574 C 97.238 50.8714 97.437 50.5744 97.584 50.1664 Z M 94.409 48.6034 L 97.594 48.6034 C 97.551 48.1234 97.43 47.7634 97.229 47.5234 C 96.921 47.1514 96.522 46.9654 96.031 46.9654 C 95.587 46.9654 95.214 47.1134 94.912 47.4104 C 94.609 47.7084 94.442 48.1054 94.409 48.6034 Z " style="fill:#fff;fill-rule:nonzero;" stroke-width="1"/><path d="M 106.757 50.1664 L 107.757 50.2894 C 107.599 50.8734 107.307 51.3264 106.881 51.6484 C 106.455 51.9704 105.911 52.1324 105.248 52.1324 C 104.414 52.1324 103.752 51.8754 103.264 51.3614 C 102.775 50.8474 102.53 50.1264 102.53 49.1994 C 102.53 48.2394 102.778 47.4954 103.272 46.9654 C 103.766 46.4354 104.407 46.1704 105.195 46.1704 C 105.957 46.1704 106.58 46.4294 107.064 46.9484 C 107.547 47.4684 107.789 48.1984 107.789 49.1404 C 107.789 49.1974 107.787 49.2834 107.783 49.3984 L 103.529 49.3984 C 103.565 50.0244 103.743 50.5044 104.061 50.8374 C 104.38 51.1704 104.777 51.3374 105.254 51.3374 C 105.608 51.3374 105.911 51.2444 106.161 51.0574 C 106.412 50.8714 106.611 50.5744 106.757 50.1664 Z M 103.583 48.6034 L 106.768 48.6034 C 106.725 48.1234 106.604 47.7634 106.403 47.5234 C 106.095 47.1514 105.696 46.9654 105.205 46.9654 C 104.761 46.9654 104.388 47.1134 104.085 47.4104 C 103.783 47.7084 103.615 48.1054 103.583 48.6034 Z " style="fill:#fff;fill-rule:nonzero;" stroke-width="1"/><path d="M 108.97 52.0034 L 108.97 46.2994 L 109.841 46.2994 L 109.841 47.1104 C 110.259 46.4834 110.865 46.1704 111.656 46.1704 C 112 46.1704 112.316 46.2314 112.604 46.3554 C 112.892 46.4784 113.108 46.6404 113.251 46.8414 C 113.394 47.0424 113.495 47.2804 113.552 47.5554 C 113.588 47.7344 113.606 48.0484 113.606 48.4954 L 113.606 52.0034 L 112.639 52.0034 L 112.639 48.5334 C 112.639 48.1394 112.601 47.8454 112.526 47.6494 C 112.451 47.4544 112.317 47.2984 112.126 47.1824 C 111.934 47.0664 111.71 47.0084 111.452 47.0084 C 111.04 47.0084 110.685 47.1384 110.386 47.4004 C 110.087 47.6614 109.937 48.1574 109.937 48.8874 L 109.937 52.0034 L 108.97 52.0034 Z " style="fill:#fff;fill-rule:nonzero;" stroke-width="1"/><path d="M 118.993 50.1664 L 119.992 50.2894 C 119.834 50.8734 119.542 51.3264 119.116 51.6484 C 118.69 51.9704 118.146 52.1324 117.484 52.1324 C 116.649 52.1324 115.988 51.8754 115.499 51.3614 C 115.01 50.8474 114.766 50.1264 114.766 49.1994 C 114.766 48.2394 115.013 47.4954 115.507 46.9654 C 116.001 46.4354 116.642 46.1704 117.43 46.1704 C 118.193 46.1704 118.816 46.4294 119.299 46.9484 C 119.782 47.4684 120.024 48.1984 120.024 49.1404 C 120.024 49.1974 120.022 49.2834 120.019 49.3984 L 115.765 49.3984 C 115.801 50.0244 115.978 50.5044 116.297 50.8374 C 116.615 51.1704 117.013 51.3374 117.489 51.3374 C 117.843 51.3374 118.146 51.2444 118.397 51.0574 C 118.647 50.8714 118.846 50.5744 118.993 50.1664 Z M 115.819 48.6034 L 119.004 48.6034 C 118.961 48.1234 118.839 47.7634 118.638 47.5234 C 118.33 47.1514 117.931 46.9654 117.441 46.9654 C 116.997 46.9654 116.623 47.1134 116.321 47.4104 C 116.018 47.7084 115.851 48.1054 115.819 48.6034 Z " style="fill:#fff;fill-rule:nonzero;" stroke-width="1"/><path d="M 121.206 52.0034 L 121.206 46.2994 L 122.07 46.2994 L 122.07 47.0994 C 122.25 46.8204 122.488 46.5954 122.785 46.4254 C 123.082 46.2554 123.42 46.1704 123.8 46.1704 C 124.223 46.1704 124.569 46.2574 124.839 46.4334 C 125.11 46.6084 125.3 46.8544 125.411 47.1694 C 125.862 46.5034 126.45 46.1704 127.173 46.1704 C 127.739 46.1704 128.174 46.3264 128.478 46.6404 C 128.783 46.9534 128.935 47.4354 128.935 48.0874 L 128.935 52.0034 L 127.973 52.0034 L 127.973 48.4094 C 127.973 48.0234 127.942 47.7444 127.879 47.5744 C 127.817 47.4044 127.703 47.2674 127.538 47.1634 C 127.374 47.0594 127.18 47.0084 126.958 47.0084 C 126.557 47.0084 126.224 47.1414 125.959 47.4084 C 125.694 47.6744 125.562 48.1014 125.562 48.6894 L 125.562 52.0034 L 124.595 52.0034 L 124.595 48.2974 C 124.595 47.8674 124.516 47.5454 124.359 47.3304 C 124.201 47.1154 123.943 47.0084 123.585 47.0084 C 123.313 47.0084 123.061 47.0794 122.83 47.2224 C 122.6 47.3664 122.432 47.5754 122.328 47.8514 C 122.224 48.1264 122.173 48.5244 122.173 49.0434 L 122.173 52.0034 L 121.206 52.0034 Z " style="fill:#fff;fill-rule:nonzero;" stroke-width="1"/><path d="M 130.326 54.1994 L 130.218 53.2924 C 130.43 53.3494 130.614 53.3784 130.772 53.3784 C 130.987 53.3784 131.158 53.3424 131.287 53.2704 C 131.416 53.1994 131.522 53.0984 131.604 52.9694 C 131.665 52.8734 131.764 52.6334 131.9 52.2504 C 131.917 52.1964 131.946 52.1174 131.986 52.0134 L 129.821 46.2994 L 130.863 46.2994 L 132.05 49.6024 C 132.204 50.0214 132.342 50.4614 132.464 50.9234 C 132.575 50.4794 132.707 50.0464 132.861 49.6234 L 134.08 46.2994 L 135.047 46.2994 L 132.877 52.0994 C 132.644 52.7264 132.464 53.1574 132.335 53.3944 C 132.163 53.7124 131.966 53.9464 131.744 54.0954 C 131.522 54.2434 131.257 54.3184 130.949 54.3184 C 130.763 54.3184 130.555 54.2784 130.326 54.1994 Z " style="fill:#fff;fill-rule:nonzero;" stroke-width="1"/><path d="M 135.305 52.0034 L 135.305 50.9024 L 136.406 50.9024 L 136.406 52.0034 C 136.406 52.4074 136.334 52.7344 136.191 52.9834 C 136.048 53.2324 135.82 53.4244 135.509 53.5604 L 135.24 53.1474 C 135.445 53.0574 135.595 52.9264 135.692 52.7524 C 135.788 52.5784 135.842 52.3284 135.853 52.0034 L 135.305 52.0034 Z " style="fill:#fff;fill-rule:nonzero;" stroke-width="1"/><path d="M 140.778 50.3004 L 141.734 50.1504 C 141.788 50.5334 141.937 50.8264 142.183 51.0304 C 142.428 51.2354 142.771 51.3374 143.211 51.3374 C 143.655 51.3374 143.985 51.2464 144.199 51.0654 C 144.414 50.8854 144.522 50.6724 144.522 50.4294 C 144.522 50.2104 144.427 50.0394 144.237 49.9134 C 144.105 49.8274 143.775 49.7184 143.249 49.5864 C 142.54 49.4074 142.048 49.2524 141.774 49.1214 C 141.5 48.9904 141.293 48.8104 141.151 48.5794 C 141.01 48.3484 140.939 48.0924 140.939 47.8134 C 140.939 47.5594 140.997 47.3244 141.114 47.1074 C 141.23 46.8904 141.389 46.7104 141.589 46.5674 C 141.739 46.4564 141.944 46.3624 142.204 46.2854 C 142.464 46.2084 142.742 46.1704 143.039 46.1704 C 143.487 46.1704 143.88 46.2344 144.218 46.3634 C 144.557 46.4924 144.806 46.6664 144.967 46.8874 C 145.129 47.1074 145.24 47.4014 145.3 47.7704 L 144.355 47.8994 C 144.312 47.6064 144.188 47.3764 143.982 47.2124 C 143.776 47.0474 143.485 46.9654 143.109 46.9654 C 142.665 46.9654 142.348 47.0384 142.158 47.1854 C 141.969 47.3324 141.874 47.5034 141.874 47.7004 C 141.874 47.8264 141.913 47.9394 141.992 48.0394 C 142.071 48.1434 142.194 48.2294 142.362 48.2974 C 142.459 48.3324 142.744 48.4154 143.216 48.5444 C 143.9 48.7264 144.378 48.8764 144.648 48.9924 C 144.918 49.1094 145.13 49.2784 145.284 49.5004 C 145.438 49.7224 145.515 49.9974 145.515 50.3274 C 145.515 50.6494 145.421 50.9534 145.233 51.2374 C 145.045 51.5224 144.774 51.7424 144.42 51.8984 C 144.065 52.0544 143.664 52.1324 143.216 52.1324 C 142.475 52.1324 141.91 51.9784 141.522 51.6704 C 141.133 51.3624 140.885 50.9054 140.778 50.3004 Z " style="fill:#fff;fill-rule:nonzero;" stroke-width="1"/><path d="M 146.67 45.2404 L 146.67 44.1294 L 147.637 44.1294 L 147.637 45.2404 L 146.67 45.2404 Z M 146.67 52.0034 L 146.67 46.2994 L 147.637 46.2994 L 147.637 52.0034 L 146.67 52.0034 Z " style="fill:#fff;fill-rule:nonzero;" stroke-width="1"/><path d="M 149.109 52.0034 L 149.109 46.2994 L 149.973 46.2994 L 149.973 47.0994 C 150.152 46.8204 150.39 46.5954 150.688 46.4254 C 150.985 46.2554 151.323 46.1704 151.703 46.1704 C 152.125 46.1704 152.472 46.2574 152.742 46.4334 C 153.012 46.6084 153.203 46.8544 153.314 47.1694 C 153.765 46.5034 154.353 46.1704 155.076 46.1704 C 155.642 46.1704 156.077 46.3264 156.381 46.6404 C 156.685 46.9534 156.838 47.4354 156.838 48.0874 L 156.838 52.0034 L 155.876 52.0034 L 155.876 48.4094 C 155.876 48.0234 155.845 47.7444 155.782 47.5744 C 155.719 47.4044 155.606 47.2674 155.441 47.1634 C 155.276 47.0594 155.083 47.0084 154.861 47.0084 C 154.46 47.0084 154.127 47.1414 153.862 47.4084 C 153.597 47.6744 153.465 48.1014 153.465 48.6894 L 153.465 52.0034 L 152.498 52.0034 L 152.498 48.2974 C 152.498 47.8674 152.419 47.5454 152.261 47.3304 C 152.104 47.1154 151.846 47.0084 151.488 47.0084 C 151.216 47.0084 150.964 47.0794 150.733 47.2224 C 150.502 47.3664 150.335 47.5754 150.231 47.8514 C 150.127 48.1264 150.075 48.5244 150.075 49.0434 L 150.075 52.0034 L 149.109 52.0034 Z " style="fill:#fff;fill-rule:nonzero;" stroke-width="1"/><path d="M 158.272 54.1894 L 158.272 46.2994 L 159.153 46.2994 L 159.153 47.0404 C 159.36 46.7504 159.595 46.5324 159.856 46.3874 C 160.118 46.2424 160.434 46.1704 160.807 46.1704 C 161.294 46.1704 161.723 46.2954 162.096 46.5464 C 162.468 46.7964 162.749 47.1504 162.939 47.6064 C 163.129 48.0634 163.224 48.5634 163.224 49.1084 C 163.224 49.6914 163.119 50.2174 162.91 50.6844 C 162.7 51.1514 162.396 51.5094 161.997 51.7584 C 161.597 52.0074 161.177 52.1324 160.737 52.1324 C 160.415 52.1324 160.126 52.0644 159.87 51.9274 C 159.614 51.7914 159.403 51.6204 159.238 51.4124 L 159.238 54.1894 L 158.272 54.1894 Z M 159.147 49.1834 C 159.147 49.9174 159.296 50.4594 159.593 50.8104 C 159.89 51.1614 160.25 51.3374 160.673 51.3374 C 161.102 51.3374 161.47 51.1554 161.776 50.7914 C 162.082 50.4284 162.236 49.8654 162.236 49.1024 C 162.236 48.3754 162.086 47.8314 161.787 47.4694 C 161.488 47.1084 161.131 46.9274 160.716 46.9274 C 160.304 46.9274 159.939 47.1194 159.622 47.5044 C 159.306 47.8894 159.147 48.4494 159.147 49.1834 Z " style="fill:#fff;fill-rule:nonzero;" stroke-width="1"/><rect x="328.961" y="82.422" width="0.967" height="7.874" style="fill:#fff;fill-rule:nonzero;" stroke-width="1" transform="matrix(1,0,0,1,-164.593,-38.2926)"/><path d="M 166.79 54.1994 L 166.683 53.2924 C 166.894 53.3494 167.078 53.3784 167.236 53.3784 C 167.451 53.3784 167.623 53.3424 167.752 53.2704 C 167.881 53.1994 167.986 53.0984 168.069 52.9694 C 168.129 52.8734 168.228 52.6334 168.364 52.2504 C 168.382 52.1964 168.41 52.1174 168.45 52.0134 L 166.285 46.2994 L 167.327 46.2994 L 168.514 49.6024 C 168.668 50.0214 168.806 50.4614 168.928 50.9234 C 169.039 50.4794 169.171 50.0464 169.325 49.6234 L 170.545 46.2994 L 171.511 46.2994 L 169.341 52.0994 C 169.109 52.7264 168.928 53.1574 168.799 53.3944 C 168.627 53.7124 168.43 53.9464 168.208 54.0954 C 167.986 54.2434 167.721 54.3184 167.413 54.3184 C 167.227 54.3184 167.019 54.2784 166.79 54.1994 Z " style="fill:#fff;fill-rule:nonzero;" stroke-width="1"/><path d="M 175.384 45.2514 L 175.384 44.1294 L 176.351 44.1294 L 176.351 45.2514 L 175.384 45.2514 Z M 174.159 54.2164 L 174.342 53.3944 C 174.535 53.4444 174.688 53.4694 174.799 53.4694 C 174.995 53.4694 175.142 53.4044 175.239 53.2734 C 175.336 53.1424 175.384 52.8154 175.384 52.2934 L 175.384 46.2994 L 176.351 46.2994 L 176.351 52.3144 C 176.351 53.0164 176.259 53.5054 176.077 53.7804 C 175.844 54.1394 175.457 54.3184 174.917 54.3184 C 174.655 54.3184 174.403 54.2844 174.159 54.2164 Z " style="fill:#fff;fill-rule:nonzero;" stroke-width="1"/><path d="M 181.571 52.0034 L 181.571 51.1654 C 181.127 51.8094 180.524 52.1324 179.761 52.1324 C 179.425 52.1324 179.111 52.0674 178.819 51.9384 C 178.527 51.8094 178.31 51.6474 178.169 51.4524 C 178.027 51.2574 177.928 51.0184 177.871 50.7354 C 177.831 50.5454 177.812 50.2454 177.812 49.8334 L 177.812 46.2994 L 178.778 46.2994 L 178.778 49.4624 C 178.778 49.9674 178.798 50.3074 178.838 50.4834 C 178.898 50.7374 179.027 50.9364 179.224 51.0814 C 179.421 51.2274 179.665 51.2994 179.955 51.2994 C 180.245 51.2994 180.517 51.2254 180.771 51.0764 C 181.025 50.9284 181.205 50.7254 181.311 50.4694 C 181.417 50.2134 181.469 49.8424 181.469 49.3554 L 181.469 46.2994 L 182.436 46.2994 L 182.436 52.0034 L 181.571 52.0034 Z " style="fill:#fff;fill-rule:nonzero;" stroke-width="1"/><path d="M 183.951 52.0034 L 183.951 46.2994 L 184.816 46.2994 L 184.816 47.0994 C 184.995 46.8204 185.233 46.5954 185.53 46.4254 C 185.827 46.2554 186.166 46.1704 186.545 46.1704 C 186.968 46.1704 187.314 46.2574 187.584 46.4334 C 187.855 46.6084 188.045 46.8544 188.156 47.1694 C 188.608 46.5034 189.195 46.1704 189.918 46.1704 C 190.484 46.1704 190.919 46.3264 191.223 46.6404 C 191.528 46.9534 191.68 47.4354 191.68 48.0874 L 191.68 52.0034 L 190.718 52.0034 L 190.718 48.4094 C 190.718 48.0234 190.687 47.7444 190.624 47.5744 C 190.562 47.4044 190.448 47.2674 190.283 47.1634 C 190.119 47.0594 189.925 47.0084 189.703 47.0084 C 189.302 47.0084 188.969 47.1414 188.704 47.4084 C 188.439 47.6744 188.307 48.1014 188.307 48.6894 L 188.307 52.0034 L 187.34 52.0034 L 187.34 48.2974 C 187.34 47.8674 187.261 47.5454 187.104 47.3304 C 186.946 47.1154 186.688 47.0084 186.33 47.0084 C 186.058 47.0084 185.807 47.0794 185.576 47.2224 C 185.345 47.3664 185.177 47.5754 185.073 47.8514 C 184.97 48.1264 184.918 48.5244 184.918 49.0434 L 184.918 52.0034 L 183.951 52.0034 Z " style="fill:#fff;fill-rule:nonzero;" stroke-width="1"/><path d="M 193.114 54.1894 L 193.114 46.2994 L 193.995 46.2994 L 193.995 47.0404 C 194.202 46.7504 194.437 46.5324 194.698 46.3874 C 194.96 46.2424 195.277 46.1704 195.649 46.1704 C 196.136 46.1704 196.566 46.2954 196.938 46.5464 C 197.311 46.7964 197.592 47.1504 197.781 47.6064 C 197.971 48.0634 198.066 48.5634 198.066 49.1084 C 198.066 49.6914 197.961 50.2174 197.752 50.6844 C 197.542 51.1514 197.238 51.5094 196.839 51.7584 C 196.44 52.0074 196.02 52.1324 195.579 52.1324 C 195.257 52.1324 194.968 52.0644 194.712 51.9274 C 194.456 51.7914 194.245 51.6204 194.081 51.4124 L 194.081 54.1894 L 193.114 54.1894 Z M 193.989 49.1834 C 193.989 49.9174 194.138 50.4594 194.435 50.8104 C 194.732 51.1614 195.092 51.3374 195.515 51.3374 C 195.945 51.3374 196.312 51.1554 196.619 50.7914 C 196.925 50.4284 197.078 49.8654 197.078 49.1024 C 197.078 48.3754 196.928 47.8314 196.629 47.4694 C 196.33 47.1084 195.973 46.9274 195.558 46.9274 C 195.146 46.9274 194.782 47.1194 194.465 47.5044 C 194.148 47.8894 193.989 48.4494 193.989 49.1834 Z " style="fill:#fff;fill-rule:nonzero;" stroke-width="1"/><path d="M 201.928 49.1514 C 201.928 48.0944 202.222 47.3124 202.809 46.8034 C 203.299 46.3814 203.897 46.1704 204.603 46.1704 C 205.387 46.1704 206.028 46.4274 206.526 46.9404 C 207.023 47.4544 207.272 48.1644 207.272 49.0704 C 207.272 49.8044 207.162 50.3814 206.942 50.8024 C 206.722 51.2234 206.401 51.5504 205.98 51.7824 C 205.56 52.0154 205.1 52.1324 204.603 52.1324 C 203.804 52.1324 203.159 51.8764 202.666 51.3634 C 202.174 50.8514 201.928 50.1144 201.928 49.1514 Z M 202.922 49.1514 C 202.922 49.8814 203.081 50.4284 203.4 50.7914 C 203.718 51.1554 204.119 51.3374 204.603 51.3374 C 205.083 51.3374 205.482 51.1544 205.8 50.7894 C 206.119 50.4244 206.278 49.8674 206.278 49.1184 C 206.278 48.4134 206.118 47.8794 205.798 47.5154 C 205.477 47.1524 205.079 46.9704 204.603 46.9704 C 204.119 46.9704 203.718 47.1514 203.4 47.5124 C 203.081 47.8744 202.922 48.4204 202.922 49.1514 Z " style="fill:#fff;fill-rule:nonzero;" stroke-width="1"/><path d="M 208.405 52.0034 L 208.405 46.2994 L 209.276 46.2994 L 209.276 47.1104 C 209.695 46.4834 210.3 46.1704 211.091 46.1704 C 211.435 46.1704 211.751 46.2314 212.039 46.3554 C 212.327 46.4784 212.543 46.6404 212.686 46.8414 C 212.829 47.0424 212.93 47.2804 212.987 47.5554 C 213.023 47.7344 213.041 48.0484 213.041 48.4954 L 213.041 52.0034 L 212.074 52.0034 L 212.074 48.5334 C 212.074 48.1394 212.036 47.8454 211.961 47.6494 C 211.886 47.4544 211.753 47.2984 211.561 47.1824 C 211.369 47.0664 211.145 47.0084 210.887 47.0084 C 210.475 47.0084 210.12 47.1384 209.821 47.4004 C 209.522 47.6614 209.372 48.1574 209.372 48.8874 L 209.372 52.0034 L 208.405 52.0034 Z " style="fill:#fff;fill-rule:nonzero;" stroke-width="1"/><path d="M 217.585 45.2404 L 217.585 44.1294 L 218.551 44.1294 L 218.551 45.2404 L 217.585 45.2404 Z M 217.585 52.0034 L 217.585 46.2994 L 218.551 46.2994 L 218.551 52.0034 L 217.585 52.0034 Z " style="fill:#fff;fill-rule:nonzero;" stroke-width="1"/><path d="M 222.134 51.1384 L 222.274 51.9924 C 222.001 52.0494 221.758 52.0784 221.543 52.0784 C 221.192 52.0784 220.92 52.0224 220.727 51.9114 C 220.533 51.8004 220.397 51.6544 220.319 51.4744 C 220.24 51.2934 220.2 50.9124 220.2 50.3324 L 220.2 47.0504 L 219.491 47.0504 L 219.491 46.2994 L 220.2 46.2994 L 220.2 44.8864 L 221.162 44.3064 L 221.162 46.2994 L 222.134 46.2994 L 222.134 47.0504 L 221.162 47.0504 L 221.162 50.3864 C 221.162 50.6624 221.179 50.8394 221.213 50.9184 C 221.247 50.9964 221.302 51.0594 221.379 51.1064 C 221.456 51.1524 221.566 51.1754 221.71 51.1754 C 221.817 51.1754 221.959 51.1634 222.134 51.1384 Z " style="fill:#fff;fill-rule:nonzero;" stroke-width="1"/><path d="M 222.693 50.3004 L 223.649 50.1504 C 223.702 50.5334 223.852 50.8264 224.097 51.0304 C 224.342 51.2354 224.685 51.3374 225.126 51.3374 C 225.57 51.3374 225.899 51.2464 226.114 51.0654 C 226.329 50.8854 226.436 50.6724 226.436 50.4294 C 226.436 50.2104 226.341 50.0394 226.152 49.9134 C 226.019 49.8274 225.69 49.7184 225.163 49.5864 C 224.454 49.4074 223.963 49.2524 223.689 49.1214 C 223.415 48.9904 223.207 48.8104 223.066 48.5794 C 222.924 48.3484 222.854 48.0924 222.854 47.8134 C 222.854 47.5594 222.912 47.3244 223.028 47.1074 C 223.145 46.8904 223.303 46.7104 223.504 46.5674 C 223.654 46.4564 223.859 46.3624 224.119 46.2854 C 224.378 46.2084 224.657 46.1704 224.954 46.1704 C 225.401 46.1704 225.794 46.2344 226.133 46.3634 C 226.471 46.4924 226.721 46.6664 226.882 46.8874 C 227.043 47.1074 227.154 47.4014 227.215 47.7704 L 226.27 47.8994 C 226.227 47.6064 226.102 47.3764 225.896 47.2124 C 225.691 47.0474 225.4 46.9654 225.024 46.9654 C 224.58 46.9654 224.263 47.0384 224.073 47.1854 C 223.883 47.3324 223.788 47.5034 223.788 47.7004 C 223.788 47.8264 223.828 47.9394 223.906 48.0394 C 223.985 48.1434 224.109 48.2294 224.277 48.2974 C 224.374 48.3324 224.658 48.4154 225.131 48.5444 C 225.815 48.7264 226.292 48.8764 226.562 48.9924 C 226.833 49.1094 227.045 49.2784 227.199 49.5004 C 227.353 49.7224 227.43 49.9974 227.43 50.3274 C 227.43 50.6494 227.336 50.9534 227.148 51.2374 C 226.96 51.5224 226.689 51.7424 226.334 51.8984 C 225.98 52.0544 225.579 52.1324 225.131 52.1324 C 224.39 52.1324 223.825 51.9784 223.436 51.6704 C 223.048 51.3624 222.8 50.9054 222.693 50.3004 Z " style="fill:#fff;fill-rule:nonzero;" stroke-width="1"/><path d="M 231.635 52.0034 L 231.635 44.1294 L 232.602 44.1294 L 232.602 46.9544 C 233.053 46.4314 233.623 46.1704 234.31 46.1704 C 234.733 46.1704 235.1 46.2534 235.411 46.4194 C 235.723 46.5864 235.946 46.8164 236.08 47.1104 C 236.214 47.4034 236.281 47.8294 236.281 48.3884 L 236.281 52.0034 L 235.315 52.0034 L 235.315 48.3884 C 235.315 47.9044 235.21 47.5534 235 47.3324 C 234.791 47.1124 234.495 47.0024 234.112 47.0024 C 233.825 47.0024 233.556 47.0764 233.303 47.2254 C 233.051 47.3744 232.871 47.5754 232.763 47.8294 C 232.656 48.0844 232.602 48.4344 232.602 48.8824 L 232.602 52.0034 L 231.635 52.0034 Z " style="fill:#fff;fill-rule:nonzero;" stroke-width="1"/><path d="M 241.658 50.1664 L 242.657 50.2894 C 242.499 50.8734 242.208 51.3264 241.781 51.6484 C 241.355 51.9704 240.811 52.1324 240.149 52.1324 C 239.314 52.1324 238.653 51.8754 238.164 51.3614 C 237.675 50.8474 237.431 50.1264 237.431 49.1994 C 237.431 48.2394 237.678 47.4954 238.172 46.9654 C 238.666 46.4354 239.307 46.1704 240.095 46.1704 C 240.858 46.1704 241.481 46.4294 241.964 46.9484 C 242.447 47.4684 242.689 48.1984 242.689 49.1404 C 242.689 49.1974 242.687 49.2834 242.684 49.3984 L 238.43 49.3984 C 238.466 50.0244 238.643 50.5044 238.962 50.8374 C 239.28 51.1704 239.678 51.3374 240.154 51.3374 C 240.508 51.3374 240.811 51.2444 241.062 51.0574 C 241.312 50.8714 241.511 50.5744 241.658 50.1664 Z M 238.484 48.6034 L 241.669 48.6034 C 241.626 48.1234 241.504 47.7634 241.303 47.5234 C 240.995 47.1514 240.596 46.9654 240.106 46.9654 C 239.662 46.9654 239.288 47.1134 238.986 47.4104 C 238.683 47.7084 238.516 48.1054 238.484 48.6034 Z " style="fill:#fff;fill-rule:nonzero;" stroke-width="1"/><path d="M 247.593 51.2994 C 247.235 51.6034 246.89 51.8184 246.559 51.9444 C 246.228 52.0694 245.872 52.1324 245.493 52.1324 C 244.866 52.1324 244.385 51.9784 244.048 51.6724 C 243.711 51.3664 243.543 50.9754 243.543 50.4994 C 243.543 50.2194 243.607 49.9644 243.734 49.7334 C 243.861 49.5024 244.027 49.3174 244.233 49.1774 C 244.439 49.0384 244.671 48.9324 244.929 48.8614 C 245.119 48.8104 245.405 48.7624 245.788 48.7164 C 246.569 48.6224 247.144 48.5114 247.512 48.3834 C 247.516 48.2504 247.518 48.1664 247.518 48.1304 C 247.518 47.7364 247.426 47.4594 247.244 47.2984 C 246.997 47.0794 246.63 46.9704 246.143 46.9704 C 245.688 46.9704 245.352 47.0504 245.136 47.2094 C 244.919 47.3684 244.759 47.6504 244.655 48.0554 L 243.71 47.9264 C 243.796 47.5214 243.937 47.1954 244.134 46.9464 C 244.331 46.6974 244.616 46.5054 244.988 46.3714 C 245.36 46.2374 245.792 46.1704 246.282 46.1704 C 246.769 46.1704 247.165 46.2274 247.469 46.3424 C 247.774 46.4564 247.998 46.6004 248.141 46.7744 C 248.284 46.9484 248.384 47.1674 248.442 47.4324 C 248.474 47.5974 248.49 47.8944 248.49 48.3234 L 248.49 49.6134 C 248.49 50.5114 248.511 51.0804 248.552 51.3184 C 248.593 51.5564 248.674 51.7844 248.796 52.0034 L 247.786 52.0034 C 247.686 51.8024 247.622 51.5684 247.593 51.2994 Z M 247.512 49.1404 C 247.161 49.2834 246.635 49.4054 245.933 49.5054 C 245.536 49.5624 245.255 49.6274 245.09 49.6984 C 244.925 49.7704 244.798 49.8754 244.709 50.0134 C 244.619 50.1514 244.574 50.3044 244.574 50.4724 C 244.574 50.7304 244.672 50.9454 244.867 51.1164 C 245.062 51.2884 245.348 51.3744 245.724 51.3744 C 246.096 51.3744 246.427 51.2934 246.717 51.1304 C 247.007 50.9674 247.221 50.7444 247.357 50.4614 C 247.46 50.2434 247.512 49.9204 247.512 49.4944 L 247.512 49.1404 Z " style="fill:#fff;fill-rule:nonzero;" stroke-width="1"/><path d="M 253.689 52.0034 L 253.689 51.2834 C 253.327 51.8494 252.796 52.1324 252.094 52.1324 C 251.639 52.1324 251.221 52.0064 250.84 51.7564 C 250.458 51.5054 250.163 51.1554 249.954 50.7064 C 249.744 50.2564 249.639 49.7404 249.639 49.1564 C 249.639 48.5874 249.734 48.0704 249.924 47.6064 C 250.114 47.1434 250.398 46.7874 250.778 46.5404 C 251.158 46.2934 251.582 46.1704 252.051 46.1704 C 252.395 46.1704 252.701 46.2424 252.969 46.3874 C 253.238 46.5324 253.456 46.7214 253.625 46.9544 L 253.625 44.1294 L 254.586 44.1294 L 254.586 52.0034 L 253.689 52.0034 Z M 250.633 49.1564 C 250.633 49.8864 250.787 50.4324 251.095 50.7944 C 251.403 51.1564 251.766 51.3374 252.185 51.3374 C 252.608 51.3374 252.967 51.1644 253.262 50.8184 C 253.558 50.4734 253.705 49.9464 253.705 49.2374 C 253.705 48.4564 253.555 47.8834 253.254 47.5184 C 252.953 47.1534 252.583 46.9704 252.142 46.9704 C 251.713 46.9704 251.354 47.1454 251.065 47.4964 C 250.777 47.8474 250.633 48.4004 250.633 49.1564 Z " style="fill:#fff;fill-rule:nonzero;" stroke-width="1"/><rect x="420.973" y="89.195" width="1.101" height="1.101" style="fill:#fff;fill-rule:nonzero;" stroke-width="1" transform="matrix(1,0,0,1,-164.593,-38.2926)"/></g></g></svg>