<svg version="1.1" width="29.562000274658203" height="53.09400177001953" viewBox="0.31300002336502075 0.25 29.562000274658203 53.09400177001953" xmlns="http://www.w3.org/2000/svg" xmlns:xlink="http://www.w3.org/1999/xlink">
  <!-- Exported by Scratch - http://scratch.mit.edu/ -->
  <g id="ID0.42904101498425007">
    <g id="layer1">
      <path id="path3404" fill="#666666" stroke="none" d="M 17.344 0.75 C 15.094 0.75 12.98 1.047 11 1.656 C 9.02 2.266 7.289 3.145 5.813 4.281 C 4.336 5.418 3.148 6.789 2.281 8.406 C 1.414 10.023 1 11.867 1 13.906 C 1 15.523 1.23 16.953 1.688 18.219 C 2.145 19.484 2.84 20.66 3.813 21.75 C 4.785 22.84 6.059 23.895 7.594 24.938 C 9.129 25.98 10.969 27.109 13.125 28.281 C 15.07 29.359 16.758 30.301 18.188 31.156 C 19.617 32.012 20.812 32.883 21.75 33.75 C 22.687 34.617 23.367 35.566 23.813 36.563 C 24.258 37.559 24.469 38.727 24.469 40.063 C 24.469 42.828 23.523 44.93 21.625 46.406 C 19.727 47.883 16.883 48.625 13.063 48.625 C 12.078 48.625 11.047 48.551 9.969 48.375 C 8.891 48.199 7.816 47.934 6.75 47.594 C 5.684 47.254 4.645 46.816 3.625 46.313 C 2.605 45.809 1.656 45.258 0.813 44.625 L 0.813 50.094 C 1.445 50.492 2.293 50.879 3.313 51.219 C 4.332 51.559 5.375 51.848 6.5 52.094 C 7.625 52.34 8.742 52.527 9.844 52.656 C 10.945 52.786 11.891 52.844 12.688 52.844 C 15.125 52.844 17.367 52.563 19.406 52 C 21.445 51.438 23.211 50.602 24.688 49.5 C 26.164 48.398 27.305 47.019 28.125 45.344 C 28.945 43.668 29.375 41.734 29.375 39.531 C 29.375 37.938 29.109 36.488 28.594 35.188 C 28.078 33.887 27.293 32.66 26.25 31.5 C 25.207 30.34 23.914 29.223 22.344 28.156 C 20.773 27.09 18.922 26 16.813 24.875 C 14.797 23.797 13.082 22.832 11.688 22 C 10.293 21.168 9.168 20.313 8.313 19.469 C 7.457 18.625 6.855 17.73 6.469 16.781 C 6.082 15.832 5.875 14.719 5.875 13.406 C 5.875 12.023 6.176 10.793 6.75 9.75 C 7.324 8.707 8.098 7.859 9.094 7.156 C 10.09 6.453 11.27 5.895 12.594 5.531 C 13.918 5.168 15.312 5 16.813 5 C 20.82 5 24.305 5.852 27.281 7.563 L 27.281 2.406 C 24.609 1.305 21.305 0.75 17.344 0.75 Z " stroke-width="1"/>
    </g>
  </g>
</svg>