<svg version="1.1" width="27.531002044677734" height="38.71983337402344" viewBox="0.06299793720245361 -0.3439999967813492 27.531002044677734 38.71983337402344" xmlns="http://www.w3.org/2000/svg" xmlns:xlink="http://www.w3.org/1999/xlink">
  <!-- Exported by Scratch - http://scratch.mit.edu/ -->
  <g id="ID0.4002894442528486">
    <g id="layer1">
      <path id="path3040" fill="#666666" stroke="none" d="M 18.938 0.156 C 16.008 0.156 13.398 0.688 11.125 1.719 C 8.852 2.75 6.945 4.137 5.375 5.906 C 3.805 7.676 2.602 9.746 1.781 12.125 C 0.961 14.504 0.562 17.055 0.563 19.75 C 0.562 22.352 0.945 24.754 1.719 26.969 C 2.492 29.184 3.609 31.09 5.063 32.719 C 6.516 34.348 8.25 35.617 10.313 36.531 C 12.375 37.445 14.703 37.898 17.281 37.875 C 21.078 37.828 24.328 36.992 27 35.375 L 27 30.969 C 24.281 32.984 21.219 33.969 17.844 33.969 C 15.687 33.969 13.812 33.578 12.219 32.781 C 10.625 31.984 9.324 30.91 8.281 29.563 C 7.238 28.215 6.441 26.664 5.938 24.906 C 5.434 23.148 5.187 21.297 5.188 19.375 C 5.187 17.289 5.496 15.332 6.094 13.469 C 6.691 11.605 7.551 9.957 8.688 8.563 C 9.824 7.168 11.242 6.09 12.906 5.281 C 14.57 4.473 16.461 4.063 18.594 4.063 C 21.641 4.063 24.469 4.922 27.094 6.656 L 27.094 1.875 C 24.633 0.727 21.914 0.156 18.938 0.156 Z " stroke-width="1"/>
    </g>
  </g>
</svg>