<svg version="1.1" width="59.08077533857559" height="27.25467403547501" viewBox="-0.5653368788850496 0.38346310547721785 59.08077533857559 27.25467403547501" xmlns="http://www.w3.org/2000/svg" xmlns:xlink="http://www.w3.org/1999/xlink">
  <!-- Exported by Scratch - http://scratch.mit.edu/ -->
  <g id="ID0.03796483017504215">
    <path id="ID0.5629956251941621" fill="#65A8E7" d="M 13.0001 0.9989 C 9.4132 0.9989 6.1632 2.456 3.8102 4.809 C 1.4572 7.162 0.0001 10.412 0.0001 13.9989 C 0.0001 17.5858 1.4572 20.8358 3.8102 23.1888 C 6.1632 25.5418 9.4132 26.9989 13.0001 26.9989 C 16.587 26.9989 19.837 25.5418 22.19 23.1888 C 24.543 20.8358 26 17.5858 26 13.9989 C 26 10.412 24.543 7.162 22.19 4.809 C 19.837 2.456 16.587 0.9989 13.0001 0.9989 Z " stroke-width="1.0833300352096558"/>
  </g>
  <g id="ID0.03796483017504215">
    <path id="ID0.5629956251941621" fill="rgb(80,133,199)" d="M 29.0001 0.9989 C 25.4132 0.9989 22.1632 2.456 19.8102 4.809 C 17.4572 7.162 16.0001 10.412 16.0001 13.9989 C 16.0001 17.5858 17.4572 20.8358 19.8102 23.1888 C 22.1632 25.5418 25.4132 26.9989 29.0001 26.9989 C 32.587 26.9989 35.837 25.5418 38.19 23.1888 C 40.543 20.8358 42 17.5858 42 13.9989 C 42 10.412 40.543 7.162 38.19 4.809 C 35.837 2.456 32.587 0.9989 29.0001 0.9989 Z " stroke-width="1.0833300352096558"/>
  </g>
  <g id="ID0.03796483017504215">
    <path id="ID0.5629956251941621" fill="#65A8E7" d="M 44.9501 0.9489 C 41.3632 0.9489 38.1132 2.406 35.7602 4.759 C 33.4072 7.112 31.9501 10.362 31.9501 13.9489 C 31.9501 17.5358 33.4072 20.7858 35.7602 23.1388 C 38.1132 25.4918 41.3632 26.9489 44.9501 26.9489 C 48.537 26.9489 51.787 25.4918 54.14 23.1388 C 56.493 20.7858 57.95 17.5358 57.95 13.9489 C 57.95 10.362 56.493 7.112 54.14 4.759 C 51.787 2.406 48.537 0.9489 44.9501 0.9489 Z " stroke-width="1.0833300352096558"/>
  </g>
  <path id="ID0.4496537633240223" fill="#65A8E7" stroke="none" d="M 13.0762 0.9729 L 45.3705 0.9729 L 45.3705 27.0727 L 13.0762 27.0727 L 13.0762 0.9729 Z " stroke-width="1.1308737577650467"/>
<defs/></svg>