<svg version="1.1" width="75.35761930946941" height="27.631520295187187" viewBox="-0.6037600159865383 0.19503997562112774 75.35761930946941 27.631520295187187" xmlns="http://www.w3.org/2000/svg" xmlns:xlink="http://www.w3.org/1999/xlink">
  <!-- Exported by Scratch - http://scratch.mit.edu/ -->
  <g id="ID0.03796483017504215">
    <path id="ID0.5629956251941621" fill="#65A8E7" d="M 13.1501 0.9989 C 9.5632 0.9989 6.3132 2.456 3.9602 4.809 C 1.6072 7.162 0.1501 10.412 0.1501 13.9989 C 0.1501 17.5858 1.6072 20.8358 3.9602 23.1888 C 6.3132 25.5418 9.5632 26.9989 13.1501 26.9989 C 16.737 26.9989 19.987 25.5418 22.34 23.1888 C 24.693 20.8358 26.15 17.5858 26.15 13.9989 C 26.15 10.412 24.693 7.162 22.34 4.809 C 19.987 2.456 16.737 0.9989 13.1501 0.9989 Z " stroke-width="1.0833300352096558"/>
  </g>
  <g id="ID0.03796483017504215">
    <path id="ID0.5629956251941621" fill="rgb(80,133,199)" d="M 37.0001 0.9989 C 33.4132 0.9989 30.1632 2.456 27.8102 4.809 C 25.4572 7.162 24.0001 10.412 24.0001 13.9989 C 24.0001 17.5858 25.4572 20.8358 27.8102 23.1888 C 30.1632 25.5418 33.4132 26.9989 37.0001 26.9989 C 40.587 26.9989 43.837 25.5418 46.19 23.1888 C 48.543 20.8358 50 17.5858 50 13.9989 C 50 10.412 48.543 7.162 46.19 4.809 C 43.837 2.456 40.587 0.9989 37.0001 0.9989 Z " stroke-width="1.0833300352096558"/>
  </g>
  <g id="ID0.03796483017504215">
    <path id="ID0.5629956251941621" fill="#65A8E7" d="M 61.0001 0.9489 C 57.4132 0.9489 54.1632 2.406 51.8102 4.759 C 49.4572 7.112 48.0001 10.362 48.0001 13.9489 C 48.0001 17.5358 49.4572 20.7858 51.8102 23.1388 C 54.1632 25.4918 57.4132 26.9489 61.0001 26.9489 C 64.587 26.9489 67.837 25.4918 70.19 23.1388 C 72.543 20.7858 74 17.5358 74 13.9489 C 74 10.362 72.543 7.112 70.19 4.759 C 67.837 2.406 64.587 0.9489 61.0001 0.9489 Z " stroke-width="1.0833300352096558"/>
  </g>
  <path id="ID0.4496537633240223" fill="#65A8E7" stroke="none" d="M 13.2824 0.9729 L 60.9372 0.9729 L 60.9372 27.0727 L 13.2824 27.0727 L 13.2824 0.9729 Z " stroke-width="1.507720017477227"/>
<defs/></svg>