<svg width="108.7020034790039" height="14.907999992370605" viewBox="-0.499997615814209 -0.5 108.7020034790039 14.907999992370605" version="1.1" xmlns="http://www.w3.org/2000/svg" xmlns:xlink="http://www.w3.org/1999/xlink" xml:space="preserve" style="fill-rule:evenodd;clip-rule:evenodd;stroke-linejoin:round;stroke-miterlimit:1.41421;"><g id="1"><path d="M107.702,6.954c0,-3.838 -3.116,-6.954 -6.954,-6.954l-93.794,0c-3.838,0 -6.954,3.116 -6.954,6.954c0,3.838 3.116,6.954 6.954,6.954l93.794,0c3.838,0 6.954,-3.116 6.954,-6.954Z" style="fill:#9fd3ff;" stroke-width="1"/><path d="M5.758,10.156l0,-5.923l4.283,0l0,0.699l-3.499,0l0,1.814l3.276,0l0,0.695l-3.276,0l0,2.016l3.636,0l0,0.699l-4.42,0Z" style="fill:#fff;fill-rule:nonzero;" stroke-width="1"/><path d="M10.683,10.156l1.568,-2.23l-1.451,-2.061l0.909,0l0.659,1.006c0.124,0.191 0.224,0.352 0.299,0.481c0.118,-0.178 0.228,-0.336 0.327,-0.473l0.723,-1.014l0.869,0l-1.483,2.02l1.596,2.271l-0.893,0l-0.88,-1.333l-0.235,-0.36l-1.127,1.693l-0.881,0Z" style="fill:#fff;fill-rule:nonzero;" stroke-width="1"/><path d="M18.105,8.584l0.716,0.093c-0.079,0.493 -0.279,0.879 -0.6,1.158c-0.322,0.279 -0.718,0.418 -1.186,0.418c-0.588,0 -1.06,-0.192 -1.416,-0.576c-0.357,-0.384 -0.536,-0.934 -0.536,-1.65c0,-0.464 0.077,-0.869 0.23,-1.217c0.154,-0.347 0.388,-0.608 0.701,-0.781c0.314,-0.174 0.656,-0.261 1.025,-0.261c0.466,0 0.847,0.118 1.143,0.354c0.296,0.235 0.486,0.57 0.57,1.004l-0.707,0.109c-0.068,-0.289 -0.187,-0.505 -0.358,-0.651c-0.171,-0.145 -0.378,-0.218 -0.62,-0.218c-0.366,0 -0.664,0.131 -0.893,0.394c-0.229,0.263 -0.343,0.678 -0.343,1.246c0,0.577 0.11,0.996 0.331,1.257c0.221,0.261 0.509,0.392 0.865,0.392c0.285,0 0.524,-0.088 0.715,-0.263c0.191,-0.175 0.312,-0.444 0.363,-0.808Z" style="fill:#fff;fill-rule:nonzero;" stroke-width="1"/><path d="M22.38,8.774l0.752,0.093c-0.119,0.439 -0.338,0.78 -0.659,1.022c-0.32,0.243 -0.73,0.364 -1.228,0.364c-0.628,0 -1.125,-0.193 -1.493,-0.58c-0.368,-0.386 -0.552,-0.929 -0.552,-1.626c0,-0.722 0.186,-1.282 0.558,-1.681c0.372,-0.399 0.854,-0.598 1.446,-0.598c0.574,0 1.043,0.195 1.407,0.586c0.363,0.39 0.545,0.94 0.545,1.648c0,0.043 -0.001,0.108 -0.004,0.194l-3.2,0c0.027,0.472 0.16,0.833 0.4,1.083c0.24,0.251 0.539,0.376 0.897,0.376c0.267,0 0.494,-0.07 0.683,-0.21c0.188,-0.14 0.338,-0.364 0.448,-0.671ZM19.992,7.598l2.396,0c-0.032,-0.361 -0.124,-0.631 -0.274,-0.812c-0.232,-0.28 -0.532,-0.42 -0.901,-0.42c-0.334,0 -0.615,0.112 -0.843,0.335c-0.228,0.224 -0.353,0.523 -0.378,0.897Z" style="fill:#fff;fill-rule:nonzero;" stroke-width="1"/><rect x="24.029" y="4.233" width="0.727" height="5.923" style="fill:#fff;fill-rule:nonzero;" stroke-width="1"/><rect x="25.867" y="4.233" width="0.727" height="5.923" style="fill:#fff;fill-rule:nonzero;" stroke-width="1"/><path d="M30.659,8.774l0.752,0.093c-0.119,0.439 -0.338,0.78 -0.659,1.022c-0.32,0.243 -0.73,0.364 -1.228,0.364c-0.628,0 -1.126,-0.193 -1.493,-0.58c-0.368,-0.386 -0.552,-0.929 -0.552,-1.626c0,-0.722 0.186,-1.282 0.558,-1.681c0.372,-0.399 0.854,-0.598 1.446,-0.598c0.574,0 1.043,0.195 1.406,0.586c0.364,0.39 0.546,0.94 0.546,1.648c0,0.043 -0.001,0.108 -0.004,0.194l-3.2,0c0.027,0.472 0.16,0.833 0.4,1.083c0.24,0.251 0.539,0.376 0.897,0.376c0.266,0 0.494,-0.07 0.683,-0.21c0.188,-0.14 0.338,-0.364 0.448,-0.671ZM28.271,7.598l2.396,0c-0.032,-0.361 -0.124,-0.631 -0.275,-0.812c-0.231,-0.28 -0.532,-0.42 -0.901,-0.42c-0.334,0 -0.614,0.112 -0.842,0.335c-0.228,0.224 -0.354,0.523 -0.378,0.897Z" style="fill:#fff;fill-rule:nonzero;" stroke-width="1"/><path d="M32.324,10.156l0,-4.291l0.654,0l0,0.61c0.316,-0.471 0.771,-0.707 1.366,-0.707c0.259,0 0.496,0.046 0.713,0.139c0.217,0.093 0.379,0.215 0.487,0.366c0.108,0.151 0.183,0.33 0.226,0.537c0.027,0.135 0.041,0.371 0.041,0.708l0,2.638l-0.728,0l0,-2.61c0,-0.297 -0.028,-0.518 -0.084,-0.665c-0.057,-0.147 -0.157,-0.264 -0.301,-0.351c-0.145,-0.088 -0.314,-0.132 -0.508,-0.132c-0.309,0 -0.577,0.099 -0.802,0.295c-0.224,0.197 -0.337,0.57 -0.337,1.119l0,2.344l-0.727,0Z" style="fill:#fff;fill-rule:nonzero;" stroke-width="1"/><path d="M38.514,9.505l0.105,0.643c-0.205,0.043 -0.388,0.064 -0.55,0.064c-0.264,0 -0.468,-0.041 -0.614,-0.125c-0.145,-0.083 -0.248,-0.193 -0.307,-0.329c-0.059,-0.136 -0.089,-0.422 -0.089,-0.859l0,-2.468l-0.533,0l0,-0.566l0.533,0l0,-1.063l0.723,-0.436l0,1.499l0.732,0l0,0.566l-0.732,0l0,2.509c0,0.207 0.013,0.34 0.039,0.4c0.025,0.059 0.067,0.106 0.125,0.141c0.058,0.035 0.141,0.053 0.249,0.053c0.08,0 0.187,-0.01 0.319,-0.029Z" style="fill:#fff;fill-rule:nonzero;" stroke-width="1"/><rect x="41.508" y="4.233" width="0.727" height="5.923" style="fill:#fff;fill-rule:nonzero;" stroke-width="1"/><path d="M46.3,8.774l0.751,0.093c-0.118,0.439 -0.338,0.78 -0.658,1.022c-0.321,0.243 -0.73,0.364 -1.229,0.364c-0.627,0 -1.125,-0.193 -1.493,-0.58c-0.367,-0.386 -0.551,-0.929 -0.551,-1.626c0,-0.722 0.186,-1.282 0.557,-1.681c0.372,-0.399 0.854,-0.598 1.447,-0.598c0.574,0 1.042,0.195 1.406,0.586c0.364,0.39 0.546,0.94 0.546,1.648c0,0.043 -0.002,0.108 -0.005,0.194l-3.2,0c0.027,0.472 0.161,0.833 0.4,1.083c0.24,0.251 0.539,0.376 0.897,0.376c0.267,0 0.495,-0.07 0.683,-0.21c0.189,-0.14 0.338,-0.364 0.449,-0.671ZM43.912,7.598l2.396,0c-0.033,-0.361 -0.124,-0.631 -0.275,-0.812c-0.232,-0.28 -0.532,-0.42 -0.901,-0.42c-0.334,0 -0.615,0.112 -0.842,0.335c-0.228,0.224 -0.354,0.523 -0.378,0.897Z" style="fill:#fff;fill-rule:nonzero;" stroke-width="1"/><path d="M49.156,10.156l-1.632,-4.291l0.768,0l0.921,2.57c0.1,0.277 0.191,0.565 0.275,0.864c0.064,-0.226 0.155,-0.498 0.27,-0.816l0.954,-2.618l0.747,0l-1.624,4.291l-0.679,0Z" style="fill:#fff;fill-rule:nonzero;" stroke-width="1"/><path d="M55.039,8.774l0.752,0.093c-0.119,0.439 -0.338,0.78 -0.659,1.022c-0.32,0.243 -0.73,0.364 -1.228,0.364c-0.628,0 -1.125,-0.193 -1.493,-0.58c-0.368,-0.386 -0.552,-0.929 -0.552,-1.626c0,-0.722 0.186,-1.282 0.558,-1.681c0.372,-0.399 0.854,-0.598 1.446,-0.598c0.574,0 1.043,0.195 1.407,0.586c0.363,0.39 0.545,0.94 0.545,1.648c0,0.043 -0.001,0.108 -0.004,0.194l-3.2,0c0.027,0.472 0.16,0.833 0.4,1.083c0.24,0.251 0.539,0.376 0.897,0.376c0.267,0 0.494,-0.07 0.683,-0.21c0.188,-0.14 0.338,-0.364 0.448,-0.671ZM52.651,7.598l2.396,0c-0.032,-0.361 -0.124,-0.631 -0.274,-0.812c-0.232,-0.28 -0.532,-0.42 -0.901,-0.42c-0.334,0 -0.615,0.112 -0.843,0.335c-0.227,0.224 -0.353,0.523 -0.378,0.897Z" style="fill:#fff;fill-rule:nonzero;" stroke-width="1"/><rect x="56.688" y="4.233" width="0.727" height="5.923" style="fill:#fff;fill-rule:nonzero;" stroke-width="1"/><rect x="58.748" y="9.328" width="0.828" height="0.828" style="fill:#fff;fill-rule:nonzero;" stroke-width="1"/><path d="M63.201,10.156l0,-5.923l0.784,0l0,2.937l2.941,-2.937l1.063,0l-2.485,2.4l2.594,3.523l-1.034,0l-2.109,-2.998l-0.97,0.945l0,2.053l-0.784,0Z" style="fill:#fff;fill-rule:nonzero;" stroke-width="1"/><path d="M71.597,8.774l0.752,0.093c-0.119,0.439 -0.338,0.78 -0.659,1.022c-0.321,0.243 -0.73,0.364 -1.228,0.364c-0.628,0 -1.126,-0.193 -1.493,-0.58c-0.368,-0.386 -0.552,-0.929 -0.552,-1.626c0,-0.722 0.186,-1.282 0.558,-1.681c0.372,-0.399 0.854,-0.598 1.446,-0.598c0.574,0 1.043,0.195 1.406,0.586c0.364,0.39 0.546,0.94 0.546,1.648c0,0.043 -0.002,0.108 -0.004,0.194l-3.2,0c0.027,0.472 0.16,0.833 0.4,1.083c0.239,0.251 0.538,0.376 0.897,0.376c0.266,0 0.494,-0.07 0.683,-0.21c0.188,-0.14 0.338,-0.364 0.448,-0.671ZM69.209,7.598l2.396,0c-0.032,-0.361 -0.124,-0.631 -0.275,-0.812c-0.231,-0.28 -0.532,-0.42 -0.901,-0.42c-0.334,0 -0.614,0.112 -0.842,0.335c-0.228,0.224 -0.354,0.523 -0.378,0.897Z" style="fill:#fff;fill-rule:nonzero;" stroke-width="1"/><path d="M76.199,8.774l0.752,0.093c-0.119,0.439 -0.338,0.78 -0.659,1.022c-0.32,0.243 -0.73,0.364 -1.228,0.364c-0.628,0 -1.126,-0.193 -1.493,-0.58c-0.368,-0.386 -0.552,-0.929 -0.552,-1.626c0,-0.722 0.186,-1.282 0.558,-1.681c0.372,-0.399 0.854,-0.598 1.446,-0.598c0.574,0 1.043,0.195 1.406,0.586c0.364,0.39 0.546,0.94 0.546,1.648c0,0.043 -0.001,0.108 -0.004,0.194l-3.2,0c0.027,0.472 0.16,0.833 0.4,1.083c0.24,0.251 0.539,0.376 0.897,0.376c0.266,0 0.494,-0.07 0.683,-0.21c0.188,-0.14 0.338,-0.364 0.448,-0.671ZM73.811,7.598l2.396,0c-0.032,-0.361 -0.124,-0.631 -0.275,-0.812c-0.231,-0.28 -0.532,-0.42 -0.901,-0.42c-0.334,0 -0.614,0.112 -0.842,0.335c-0.228,0.224 -0.354,0.523 -0.378,0.897Z" style="fill:#fff;fill-rule:nonzero;" stroke-width="1"/><path d="M77.864,11.8l0,-5.935l0.662,0l0,0.558c0.157,-0.219 0.333,-0.382 0.53,-0.491c0.196,-0.109 0.435,-0.164 0.715,-0.164c0.366,0 0.689,0.094 0.97,0.283c0.28,0.188 0.491,0.454 0.634,0.798c0.143,0.343 0.214,0.72 0.214,1.129c0,0.439 -0.079,0.834 -0.236,1.186c-0.158,0.352 -0.387,0.621 -0.687,0.808c-0.3,0.187 -0.616,0.281 -0.948,0.281c-0.242,0 -0.46,-0.051 -0.652,-0.154c-0.193,-0.102 -0.351,-0.231 -0.475,-0.388l0,2.089l-0.727,0ZM78.522,8.035c0,0.552 0.112,0.96 0.336,1.224c0.223,0.264 0.494,0.396 0.812,0.396c0.323,0 0.6,-0.137 0.83,-0.41c0.231,-0.274 0.346,-0.697 0.346,-1.271c0,-0.547 -0.113,-0.956 -0.338,-1.228c-0.225,-0.272 -0.493,-0.408 -0.806,-0.408c-0.31,0 -0.584,0.144 -0.822,0.434c-0.238,0.29 -0.358,0.71 -0.358,1.263Z" style="fill:#fff;fill-rule:nonzero;" stroke-width="1"/><path d="M84.769,5.069l0,-0.836l0.727,0l0,0.836l-0.727,0ZM84.769,10.156l0,-4.291l0.727,0l0,4.291l-0.727,0Z" style="fill:#fff;fill-rule:nonzero;" stroke-width="1"/><path d="M88.191,9.505l0.105,0.643c-0.204,0.043 -0.388,0.064 -0.549,0.064c-0.264,0 -0.469,-0.041 -0.614,-0.125c-0.146,-0.083 -0.248,-0.193 -0.307,-0.329c-0.06,-0.136 -0.089,-0.422 -0.089,-0.859l0,-2.468l-0.534,0l0,-0.566l0.534,0l0,-1.063l0.723,-0.436l0,1.499l0.731,0l0,0.566l-0.731,0l0,2.509c0,0.207 0.013,0.34 0.038,0.4c0.026,0.059 0.068,0.106 0.126,0.141c0.057,0.035 0.14,0.053 0.248,0.053c0.081,0 0.187,-0.01 0.319,-0.029Z" style="fill:#fff;fill-rule:nonzero;" stroke-width="1"/><path d="M94.014,10.156l0,-0.63c-0.334,0.484 -0.788,0.727 -1.362,0.727c-0.253,0 -0.49,-0.049 -0.709,-0.146c-0.22,-0.097 -0.383,-0.218 -0.489,-0.365c-0.107,-0.147 -0.181,-0.327 -0.224,-0.54c-0.03,-0.142 -0.045,-0.369 -0.045,-0.678l0,-2.659l0.727,0l0,2.38c0,0.38 0.015,0.635 0.045,0.767c0.046,0.192 0.143,0.342 0.291,0.451c0.148,0.109 0.331,0.164 0.549,0.164c0.219,0 0.423,-0.056 0.614,-0.168c0.192,-0.112 0.327,-0.264 0.407,-0.457c0.079,-0.192 0.119,-0.472 0.119,-0.838l0,-2.299l0.727,0l0,4.291l-0.65,0Z" style="fill:#fff;fill-rule:nonzero;" stroke-width="1"/><path d="M95.803,11.8l0,-5.935l0.663,0l0,0.558c0.156,-0.219 0.333,-0.382 0.529,-0.491c0.197,-0.109 0.435,-0.164 0.716,-0.164c0.366,0 0.689,0.094 0.969,0.283c0.28,0.188 0.492,0.454 0.635,0.798c0.142,0.343 0.214,0.72 0.214,1.129c0,0.439 -0.079,0.834 -0.237,1.186c-0.157,0.352 -0.386,0.621 -0.686,0.808c-0.301,0.187 -0.617,0.281 -0.948,0.281c-0.242,0 -0.46,-0.051 -0.653,-0.154c-0.192,-0.102 -0.35,-0.231 -0.474,-0.388l0,2.089l-0.728,0ZM96.462,8.035c0,0.552 0.112,0.96 0.335,1.224c0.224,0.264 0.495,0.396 0.813,0.396c0.323,0 0.6,-0.137 0.83,-0.41c0.23,-0.274 0.345,-0.697 0.345,-1.271c0,-0.547 -0.112,-0.956 -0.337,-1.228c-0.225,-0.272 -0.494,-0.408 -0.806,-0.408c-0.31,0 -0.584,0.144 -0.822,0.434c-0.239,0.29 -0.358,0.71 -0.358,1.263Z" style="fill:#fff;fill-rule:nonzero;" stroke-width="1"/><path d="M100.793,8.685l-0.222,-3.139l0,-1.313l0.901,0l0,1.313l-0.21,3.139l-0.469,0ZM100.604,10.156l0,-0.828l0.836,0l0,0.828l-0.836,0Z" style="fill:#fff;fill-rule:nonzero;" stroke-width="1"/></g></svg>