<svg width="94.4520034790039" height="14.907999992370605" viewBox="-0.499997615814209 -0.5 94.4520034790039 14.907999992370605" version="1.1" xmlns="http://www.w3.org/2000/svg" xmlns:xlink="http://www.w3.org/1999/xlink" xml:space="preserve" style="fill-rule:evenodd;clip-rule:evenodd;stroke-linejoin:round;stroke-miterlimit:1.41421;"><g id="1"><path d="M93.452,6.954c0,-3.838 -3.116,-6.954 -6.954,-6.954l-79.544,0c-3.838,0 -6.954,3.116 -6.954,6.954c0,3.838 3.116,6.954 6.954,6.954l79.544,0c3.838,0 6.954,-3.116 6.954,-6.954Z" style="fill:#9fd3ff;" stroke-width="1"/><path d="M7.249,10.156l0,-5.224l-1.952,0l0,-0.699l4.695,0l0,0.699l-1.959,0l0,5.224l-0.784,0Z" style="fill:#fff;fill-rule:nonzero;" stroke-width="1"/><path d="M10.703,10.156l0,-5.923l0.728,0l0,2.125c0.339,-0.393 0.767,-0.59 1.284,-0.59c0.318,0 0.594,0.063 0.829,0.188c0.234,0.125 0.402,0.298 0.503,0.519c0.101,0.221 0.151,0.541 0.151,0.962l0,2.719l-0.727,0l0,-2.719c0,-0.364 -0.079,-0.629 -0.236,-0.794c-0.158,-0.166 -0.381,-0.249 -0.669,-0.249c-0.216,0 -0.418,0.056 -0.608,0.168c-0.19,0.112 -0.325,0.263 -0.406,0.454c-0.081,0.192 -0.121,0.456 -0.121,0.792l0,2.348l-0.728,0Z" style="fill:#fff;fill-rule:nonzero;" stroke-width="1"/><path d="M15.309,5.069l0,-0.836l0.728,0l0,0.836l-0.728,0ZM15.309,10.156l0,-4.291l0.728,0l0,4.291l-0.728,0Z" style="fill:#fff;fill-rule:nonzero;" stroke-width="1"/><path d="M16.853,8.875l0.719,-0.113c0.04,0.288 0.153,0.509 0.337,0.663c0.185,0.153 0.443,0.23 0.774,0.23c0.334,0 0.582,-0.068 0.744,-0.204c0.161,-0.136 0.242,-0.296 0.242,-0.479c0,-0.164 -0.071,-0.294 -0.214,-0.388c-0.1,-0.064 -0.348,-0.147 -0.744,-0.246c-0.533,-0.135 -0.903,-0.251 -1.109,-0.35c-0.206,-0.098 -0.362,-0.234 -0.468,-0.408c-0.107,-0.174 -0.16,-0.366 -0.16,-0.576c0,-0.191 0.044,-0.368 0.131,-0.531c0.088,-0.163 0.207,-0.298 0.358,-0.406c0.113,-0.084 0.267,-0.154 0.463,-0.212c0.195,-0.058 0.404,-0.087 0.628,-0.087c0.337,0 0.632,0.048 0.887,0.145c0.254,0.097 0.442,0.229 0.563,0.394c0.122,0.166 0.205,0.388 0.251,0.665l-0.711,0.097c-0.033,-0.221 -0.126,-0.393 -0.281,-0.517c-0.155,-0.124 -0.374,-0.186 -0.657,-0.186c-0.334,0 -0.572,0.055 -0.715,0.166c-0.142,0.11 -0.214,0.239 -0.214,0.388c0,0.094 0.03,0.179 0.089,0.254c0.059,0.078 0.152,0.143 0.279,0.194c0.073,0.027 0.287,0.089 0.642,0.186c0.515,0.137 0.874,0.25 1.077,0.337c0.203,0.088 0.363,0.215 0.479,0.382c0.116,0.167 0.174,0.374 0.174,0.622c0,0.243 -0.071,0.471 -0.213,0.685c-0.141,0.214 -0.345,0.38 -0.612,0.497c-0.266,0.117 -0.568,0.176 -0.905,0.176c-0.557,0 -0.982,-0.116 -1.275,-0.348c-0.292,-0.231 -0.478,-0.575 -0.559,-1.03Z" style="fill:#fff;fill-rule:nonzero;" stroke-width="1"/><rect x="23.564" y="4.233" width="0.727" height="5.923" style="fill:#fff;fill-rule:nonzero;" stroke-width="1"/><path d="M28.356,8.774l0.752,0.093c-0.119,0.439 -0.338,0.78 -0.659,1.022c-0.321,0.243 -0.73,0.364 -1.228,0.364c-0.628,0 -1.126,-0.193 -1.493,-0.58c-0.368,-0.386 -0.552,-0.929 -0.552,-1.626c0,-0.722 0.186,-1.282 0.558,-1.681c0.372,-0.399 0.854,-0.598 1.446,-0.598c0.574,0 1.043,0.195 1.406,0.586c0.364,0.39 0.546,0.94 0.546,1.648c0,0.043 -0.002,0.108 -0.004,0.194l-3.2,0c0.027,0.472 0.16,0.833 0.4,1.083c0.239,0.251 0.538,0.376 0.897,0.376c0.266,0 0.494,-0.07 0.683,-0.21c0.188,-0.14 0.338,-0.364 0.448,-0.671ZM25.968,7.598l2.396,0c-0.032,-0.361 -0.124,-0.631 -0.275,-0.812c-0.231,-0.28 -0.532,-0.42 -0.901,-0.42c-0.334,0 -0.614,0.112 -0.842,0.335c-0.228,0.224 -0.354,0.523 -0.378,0.897Z" style="fill:#fff;fill-rule:nonzero;" stroke-width="1"/><path d="M31.213,10.156l-1.633,-4.291l0.768,0l0.921,2.57c0.1,0.277 0.191,0.565 0.275,0.864c0.065,-0.226 0.155,-0.498 0.271,-0.816l0.953,-2.618l0.748,0l-1.625,4.291l-0.678,0Z" style="fill:#fff;fill-rule:nonzero;" stroke-width="1"/><path d="M37.096,8.774l0.751,0.093c-0.118,0.439 -0.338,0.78 -0.658,1.022c-0.321,0.243 -0.73,0.364 -1.229,0.364c-0.627,0 -1.125,-0.193 -1.493,-0.58c-0.367,-0.386 -0.551,-0.929 -0.551,-1.626c0,-0.722 0.186,-1.282 0.557,-1.681c0.372,-0.399 0.854,-0.598 1.447,-0.598c0.574,0 1.042,0.195 1.406,0.586c0.364,0.39 0.545,0.94 0.545,1.648c0,0.043 -0.001,0.108 -0.004,0.194l-3.2,0c0.027,0.472 0.161,0.833 0.4,1.083c0.24,0.251 0.539,0.376 0.897,0.376c0.267,0 0.495,-0.07 0.683,-0.21c0.189,-0.14 0.338,-0.364 0.449,-0.671ZM34.708,7.598l2.396,0c-0.033,-0.361 -0.124,-0.631 -0.275,-0.812c-0.232,-0.28 -0.532,-0.42 -0.901,-0.42c-0.334,0 -0.615,0.112 -0.843,0.335c-0.227,0.224 -0.353,0.523 -0.377,0.897Z" style="fill:#fff;fill-rule:nonzero;" stroke-width="1"/><rect x="38.744" y="4.233" width="0.727" height="5.923" style="fill:#fff;fill-rule:nonzero;" stroke-width="1"/><path d="M42.902,5.069l0,-0.836l0.727,0l0,0.836l-0.727,0ZM42.902,10.156l0,-4.291l0.727,0l0,4.291l-0.727,0Z" style="fill:#fff;fill-rule:nonzero;" stroke-width="1"/><path d="M44.445,8.875l0.719,-0.113c0.041,0.288 0.153,0.509 0.338,0.663c0.184,0.153 0.442,0.23 0.773,0.23c0.335,0 0.582,-0.068 0.744,-0.204c0.162,-0.136 0.242,-0.296 0.242,-0.479c0,-0.164 -0.071,-0.294 -0.214,-0.388c-0.099,-0.064 -0.347,-0.147 -0.743,-0.246c-0.534,-0.135 -0.903,-0.251 -1.109,-0.35c-0.206,-0.098 -0.363,-0.234 -0.469,-0.408c-0.106,-0.174 -0.16,-0.366 -0.16,-0.576c0,-0.191 0.044,-0.368 0.132,-0.531c0.087,-0.163 0.206,-0.298 0.357,-0.406c0.113,-0.084 0.268,-0.154 0.463,-0.212c0.195,-0.058 0.405,-0.087 0.628,-0.087c0.337,0 0.633,0.048 0.887,0.145c0.255,0.097 0.443,0.229 0.564,0.394c0.121,0.166 0.204,0.388 0.25,0.665l-0.711,0.097c-0.032,-0.221 -0.126,-0.393 -0.281,-0.517c-0.155,-0.124 -0.373,-0.186 -0.656,-0.186c-0.334,0 -0.573,0.055 -0.715,0.166c-0.143,0.11 -0.215,0.239 -0.215,0.388c0,0.094 0.03,0.179 0.089,0.254c0.06,0.078 0.153,0.143 0.279,0.194c0.073,0.027 0.287,0.089 0.643,0.186c0.514,0.137 0.873,0.25 1.076,0.337c0.204,0.088 0.363,0.215 0.479,0.382c0.116,0.167 0.174,0.374 0.174,0.622c0,0.243 -0.071,0.471 -0.212,0.685c-0.142,0.214 -0.346,0.38 -0.612,0.497c-0.267,0.117 -0.569,0.176 -0.905,0.176c-0.558,0 -0.983,-0.116 -1.275,-0.348c-0.292,-0.231 -0.479,-0.575 -0.56,-1.03Z" style="fill:#fff;fill-rule:nonzero;" stroke-width="1"/><path d="M52.364,10.156l-1.632,-4.291l0.768,0l0.921,2.57c0.1,0.277 0.191,0.565 0.275,0.864c0.064,-0.226 0.155,-0.498 0.27,-0.816l0.954,-2.618l0.748,0l-1.625,4.291l-0.679,0Z" style="fill:#fff;fill-rule:nonzero;" stroke-width="1"/><path d="M58.247,8.774l0.752,0.093c-0.119,0.439 -0.338,0.78 -0.659,1.022c-0.32,0.243 -0.73,0.364 -1.228,0.364c-0.628,0 -1.125,-0.193 -1.493,-0.58c-0.368,-0.386 -0.551,-0.929 -0.551,-1.626c0,-0.722 0.185,-1.282 0.557,-1.681c0.372,-0.399 0.854,-0.598 1.447,-0.598c0.573,0 1.042,0.195 1.406,0.586c0.363,0.39 0.545,0.94 0.545,1.648c0,0.043 -0.001,0.108 -0.004,0.194l-3.2,0c0.027,0.472 0.16,0.833 0.4,1.083c0.24,0.251 0.539,0.376 0.897,0.376c0.267,0 0.494,-0.07 0.683,-0.21c0.188,-0.14 0.338,-0.364 0.448,-0.671ZM55.859,7.598l2.396,0c-0.032,-0.361 -0.123,-0.631 -0.274,-0.812c-0.232,-0.28 -0.532,-0.42 -0.901,-0.42c-0.334,0 -0.615,0.112 -0.843,0.335c-0.227,0.224 -0.353,0.523 -0.378,0.897Z" style="fill:#fff;fill-rule:nonzero;" stroke-width="1"/><path d="M59.904,10.156l0,-4.291l0.655,0l0,0.65c0.167,-0.304 0.321,-0.505 0.462,-0.602c0.142,-0.097 0.297,-0.145 0.467,-0.145c0.245,0 0.494,0.078 0.747,0.234l-0.25,0.675c-0.178,-0.105 -0.356,-0.157 -0.534,-0.157c-0.158,0 -0.301,0.047 -0.428,0.143c-0.126,0.096 -0.217,0.228 -0.271,0.398c-0.08,0.259 -0.121,0.541 -0.121,0.848l0,2.247l-0.727,0Z" style="fill:#fff;fill-rule:nonzero;" stroke-width="1"/><path d="M62.635,11.808l-0.08,-0.682c0.158,0.043 0.297,0.064 0.416,0.064c0.161,0 0.291,-0.027 0.388,-0.081c0.097,-0.053 0.176,-0.129 0.238,-0.226c0.046,-0.073 0.12,-0.253 0.222,-0.541c0.014,-0.041 0.035,-0.1 0.065,-0.178l-1.628,-4.299l0.783,0l0.893,2.485c0.116,0.315 0.22,0.646 0.311,0.994c0.084,-0.334 0.184,-0.66 0.299,-0.978l0.918,-2.501l0.727,0l-1.632,4.364c-0.176,0.471 -0.312,0.796 -0.409,0.973c-0.129,0.24 -0.277,0.416 -0.444,0.528c-0.167,0.111 -0.366,0.167 -0.598,0.167c-0.14,0 -0.296,-0.029 -0.469,-0.089Z" style="fill:#fff;fill-rule:nonzero;" stroke-width="1"/><path d="M69.104,10.156l0,-5.923l0.727,0l0,2.125c0.34,-0.393 0.768,-0.59 1.285,-0.59c0.318,0 0.594,0.063 0.829,0.188c0.234,0.125 0.402,0.298 0.503,0.519c0.101,0.221 0.151,0.541 0.151,0.962l0,2.719l-0.727,0l0,-2.719c0,-0.364 -0.079,-0.629 -0.237,-0.794c-0.157,-0.166 -0.38,-0.249 -0.668,-0.249c-0.216,0 -0.418,0.056 -0.608,0.168c-0.19,0.112 -0.326,0.263 -0.406,0.454c-0.081,0.192 -0.122,0.456 -0.122,0.792l0,2.348l-0.727,0Z" style="fill:#fff;fill-rule:nonzero;" stroke-width="1"/><path d="M76.506,9.627c-0.269,0.229 -0.528,0.39 -0.778,0.484c-0.249,0.095 -0.516,0.142 -0.802,0.142c-0.471,0 -0.833,-0.115 -1.086,-0.346c-0.254,-0.23 -0.38,-0.524 -0.38,-0.882c0,-0.211 0.048,-0.402 0.143,-0.576c0.096,-0.174 0.221,-0.313 0.376,-0.418c0.155,-0.105 0.329,-0.185 0.523,-0.239c0.143,-0.037 0.358,-0.074 0.647,-0.109c0.587,-0.07 1.019,-0.153 1.297,-0.25c0.002,-0.1 0.004,-0.163 0.004,-0.19c0,-0.297 -0.069,-0.505 -0.206,-0.627c-0.186,-0.164 -0.462,-0.246 -0.829,-0.246c-0.342,0 -0.594,0.06 -0.757,0.18c-0.163,0.12 -0.284,0.332 -0.362,0.636l-0.711,-0.097c0.065,-0.304 0.171,-0.55 0.319,-0.737c0.148,-0.187 0.362,-0.331 0.643,-0.432c0.28,-0.102 0.604,-0.152 0.973,-0.152c0.367,0 0.664,0.043 0.893,0.129c0.229,0.086 0.398,0.195 0.505,0.326c0.108,0.13 0.184,0.295 0.227,0.495c0.024,0.123 0.036,0.347 0.036,0.67l0,0.97c0,0.676 0.015,1.104 0.046,1.283c0.031,0.179 0.093,0.351 0.184,0.515l-0.759,0c-0.076,-0.151 -0.124,-0.327 -0.146,-0.529ZM76.446,8.002c-0.264,0.108 -0.66,0.2 -1.188,0.275c-0.299,0.043 -0.511,0.092 -0.635,0.146c-0.124,0.053 -0.219,0.132 -0.287,0.236c-0.067,0.104 -0.101,0.219 -0.101,0.345c0,0.194 0.074,0.356 0.221,0.485c0.146,0.13 0.361,0.194 0.644,0.194c0.28,0 0.529,-0.061 0.748,-0.184c0.218,-0.122 0.378,-0.29 0.48,-0.503c0.079,-0.164 0.118,-0.406 0.118,-0.727l0,-0.267Z" style="fill:#fff;fill-rule:nonzero;" stroke-width="1"/><path d="M78.3,10.156l0,-4.291l0.655,0l0,0.65c0.167,-0.304 0.321,-0.505 0.462,-0.602c0.142,-0.097 0.297,-0.145 0.467,-0.145c0.245,0 0.494,0.078 0.748,0.234l-0.251,0.675c-0.178,-0.105 -0.356,-0.157 -0.533,-0.157c-0.159,0 -0.302,0.047 -0.429,0.143c-0.126,0.096 -0.216,0.228 -0.27,0.398c-0.081,0.259 -0.122,0.541 -0.122,0.848l0,2.247l-0.727,0Z" style="fill:#fff;fill-rule:nonzero;" stroke-width="1"/><path d="M83.848,10.156l0,-0.541c-0.272,0.425 -0.672,0.638 -1.2,0.638c-0.342,0 -0.657,-0.094 -0.944,-0.283c-0.287,-0.188 -0.509,-0.452 -0.666,-0.79c-0.158,-0.338 -0.237,-0.726 -0.237,-1.166c0,-0.428 0.072,-0.816 0.214,-1.165c0.143,-0.349 0.357,-0.616 0.643,-0.802c0.285,-0.186 0.605,-0.279 0.957,-0.279c0.259,0 0.489,0.055 0.691,0.164c0.202,0.109 0.367,0.251 0.493,0.426l0,-2.125l0.723,0l0,5.923l-0.674,0ZM81.549,8.014c0,0.55 0.116,0.961 0.347,1.233c0.232,0.272 0.505,0.408 0.82,0.408c0.318,0 0.588,-0.13 0.811,-0.39c0.222,-0.26 0.333,-0.657 0.333,-1.19c0,-0.587 -0.113,-1.018 -0.34,-1.293c-0.226,-0.275 -0.505,-0.412 -0.836,-0.412c-0.323,0 -0.593,0.132 -0.81,0.396c-0.217,0.264 -0.325,0.68 -0.325,1.248Z" style="fill:#fff;fill-rule:nonzero;" stroke-width="1"/><rect x="85.872" y="9.328" width="0.828" height="0.828" style="fill:#fff;fill-rule:nonzero;" stroke-width="1"/></g></svg>