<svg version="1.1" width="42.93323314189911" height="27.207130312919617" viewBox="-0.4915650188922882 0.40723496675491333 42.93323314189911 27.207130312919617" xmlns="http://www.w3.org/2000/svg" xmlns:xlink="http://www.w3.org/1999/xlink">
  <!-- Exported by Scratch - http://scratch.mit.edu/ -->
  <g id="ID0.03796483017504215">
    <path id="ID0.5629956251941621" fill="#65A8E7" d="M 13.0501 0.9989 C 9.4632 0.9989 6.2132 2.456 3.8602 4.809 C 1.5072 7.162 0.0501 10.412 0.0501 13.9989 C 0.0501 17.5858 1.5072 20.8358 3.8602 23.1888 C 6.2132 25.5418 9.4632 26.9989 13.0501 26.9989 C 16.637 26.9989 19.887 25.5418 22.24 23.1888 C 24.593 20.8358 26.05 17.5858 26.05 13.9989 C 26.05 10.412 24.593 7.162 22.24 4.809 C 19.887 2.456 16.637 0.9989 13.0501 0.9989 Z " stroke-width="1.0833300352096558"/>
  </g>
  <g id="ID0.03796483017504215">
    <path id="ID0.5629956251941621" fill="#65A8E7" d="M 21.0001 0.9989 C 17.4132 0.9989 14.1632 2.456 11.8102 4.809 C 9.4572 7.162 8.0001 10.412 8.0001 13.9989 C 8.0001 17.5858 9.4572 20.8358 11.8102 23.1888 C 14.1632 25.5418 17.4132 26.9989 21.0001 26.9989 C 24.587 26.9989 27.837 25.5418 30.19 23.1888 C 32.543 20.8358 34 17.5858 34 13.9989 C 34 10.412 32.543 7.162 30.19 4.809 C 27.837 2.456 24.587 0.9989 21.0001 0.9989 Z " stroke-width="1.0833300352096558"/>
  </g>
  <g id="ID0.03796483017504215">
    <path id="ID0.5629956251941621" fill="#65A8E7" d="M 28.9001 0.9489 C 25.3132 0.9489 22.0632 2.406 19.7102 4.759 C 17.3572 7.112 15.9001 10.362 15.9001 13.9489 C 15.9001 17.5358 17.3572 20.7858 19.7102 23.1388 C 22.0632 25.4918 25.3132 26.9489 28.9001 26.9489 C 32.487 26.9489 35.737 25.4918 38.09 23.1388 C 40.443 20.7858 41.9 17.5358 41.9 13.9489 C 41.9 10.362 40.443 7.112 38.09 4.759 C 35.737 2.406 32.487 0.9489 28.9001 0.9489 Z " stroke-width="1.0833300352096558"/>
  </g>
  <path id="ID0.4496537633240223" fill="#65A8E7" stroke="none" d="M 12.9915 0.9729 L 29.1254 0.9729 L 29.1254 27.0727 L 12.9915 27.0727 L 12.9915 0.9729 Z " stroke-width="0.8032440502929763"/>
</svg>