<svg width="64.61399841308594" height="14.907999992370605" viewBox="-0.5000014305114746 -0.5 64.61399841308594 14.907999992370605" version="1.1" xmlns="http://www.w3.org/2000/svg" xmlns:xlink="http://www.w3.org/1999/xlink" xml:space="preserve" style="fill-rule:evenodd;clip-rule:evenodd;stroke-linejoin:round;stroke-miterlimit:1.41421;"><g id="1"><path d="M63.614,6.954c0,-3.838 -3.116,-6.954 -6.954,-6.954l-49.706,0c-3.838,0 -6.954,3.116 -6.954,6.954c0,3.838 3.116,6.954 6.954,6.954l49.706,0c3.838,0 6.954,-3.116 6.954,-6.954Z" style="fill:#9fd3ff;" stroke-width="1"/><path d="M5.515,10.511l0.707,0.106c0.03,0.218 0.112,0.377 0.247,0.476c0.18,0.135 0.427,0.202 0.739,0.202c0.337,0 0.597,-0.067 0.78,-0.202c0.183,-0.134 0.307,-0.323 0.372,-0.565c0.038,-0.148 0.055,-0.46 0.052,-0.934c-0.317,0.375 -0.713,0.562 -1.188,0.562c-0.589,0 -1.046,-0.213 -1.369,-0.638c-0.323,-0.426 -0.485,-0.937 -0.485,-1.532c0,-0.409 0.074,-0.787 0.222,-1.133c0.148,-0.346 0.363,-0.614 0.645,-0.802c0.281,-0.189 0.612,-0.283 0.991,-0.283c0.507,0 0.924,0.205 1.253,0.614l0,-0.517l0.671,0l0,3.709c0,0.668 -0.068,1.142 -0.204,1.42c-0.136,0.279 -0.352,0.499 -0.647,0.661c-0.295,0.162 -0.658,0.242 -1.089,0.242c-0.511,0 -0.925,-0.115 -1.24,-0.345c-0.315,-0.23 -0.467,-0.577 -0.457,-1.041ZM6.117,7.934c0,0.563 0.112,0.973 0.336,1.232c0.223,0.259 0.503,0.388 0.84,0.388c0.334,0 0.614,-0.129 0.841,-0.386c0.226,-0.257 0.339,-0.661 0.339,-1.21c0,-0.525 -0.117,-0.921 -0.35,-1.188c-0.233,-0.267 -0.513,-0.4 -0.842,-0.4c-0.323,0 -0.598,0.131 -0.824,0.394c-0.226,0.263 -0.34,0.653 -0.34,1.17Z" style="fill:#fff;fill-rule:nonzero;" stroke-width="1"/><path d="M10.243,10.156l0,-4.291l0.654,0l0,0.65c0.167,-0.304 0.321,-0.505 0.463,-0.602c0.141,-0.097 0.297,-0.145 0.467,-0.145c0.245,0 0.494,0.078 0.747,0.234l-0.25,0.675c-0.178,-0.105 -0.356,-0.157 -0.534,-0.157c-0.159,0 -0.302,0.047 -0.428,0.143c-0.127,0.096 -0.217,0.228 -0.271,0.398c-0.081,0.259 -0.121,0.541 -0.121,0.848l0,2.247l-0.727,0Z" style="fill:#fff;fill-rule:nonzero;" stroke-width="1"/><path d="M13.924,6.944c-0.302,-0.111 -0.526,-0.268 -0.671,-0.473c-0.146,-0.205 -0.218,-0.45 -0.218,-0.735c0,-0.431 0.155,-0.794 0.464,-1.087c0.31,-0.294 0.722,-0.441 1.237,-0.441c0.517,0 0.933,0.151 1.248,0.451c0.315,0.3 0.473,0.666 0.473,1.097c0,0.275 -0.072,0.514 -0.216,0.717c-0.144,0.203 -0.363,0.36 -0.657,0.471c0.364,0.118 0.641,0.31 0.83,0.574c0.19,0.263 0.285,0.579 0.285,0.945c0,0.506 -0.179,0.932 -0.537,1.277c-0.358,0.345 -0.83,0.517 -1.414,0.517c-0.585,0 -1.056,-0.173 -1.414,-0.519c-0.359,-0.346 -0.538,-0.778 -0.538,-1.295c0,-0.385 0.098,-0.708 0.293,-0.968c0.195,-0.26 0.474,-0.437 0.835,-0.531ZM13.778,5.711c0,0.281 0.09,0.51 0.271,0.687c0.18,0.178 0.415,0.267 0.703,0.267c0.28,0 0.51,-0.088 0.689,-0.265c0.179,-0.176 0.268,-0.392 0.268,-0.648c0,-0.267 -0.092,-0.491 -0.276,-0.673c-0.185,-0.182 -0.414,-0.273 -0.689,-0.273c-0.278,0 -0.508,0.089 -0.691,0.267c-0.183,0.178 -0.275,0.391 -0.275,0.638ZM13.544,8.447c0,0.207 0.049,0.408 0.147,0.602c0.099,0.194 0.245,0.344 0.439,0.45c0.194,0.107 0.402,0.16 0.626,0.16c0.347,0 0.634,-0.112 0.86,-0.335c0.227,-0.224 0.34,-0.508 0.34,-0.853c0,-0.35 -0.117,-0.64 -0.35,-0.869c-0.233,-0.229 -0.524,-0.343 -0.874,-0.343c-0.342,0 -0.626,0.113 -0.851,0.339c-0.225,0.227 -0.337,0.509 -0.337,0.849Z" style="fill:#fff;fill-rule:nonzero;" stroke-width="1"/><path d="M19.907,10.156l0,-4.291l0.651,0l0,0.602c0.135,-0.21 0.314,-0.379 0.537,-0.507c0.224,-0.128 0.478,-0.192 0.764,-0.192c0.318,0 0.578,0.066 0.782,0.198c0.203,0.132 0.347,0.316 0.43,0.554c0.34,-0.501 0.781,-0.752 1.325,-0.752c0.426,0 0.753,0.118 0.982,0.354c0.229,0.235 0.344,0.598 0.344,1.088l0,2.946l-0.724,0l0,-2.703c0,-0.291 -0.023,-0.5 -0.07,-0.628c-0.047,-0.128 -0.133,-0.231 -0.257,-0.31c-0.124,-0.078 -0.269,-0.117 -0.436,-0.117c-0.302,0 -0.552,0.101 -0.752,0.301c-0.199,0.201 -0.299,0.522 -0.299,0.964l0,2.493l-0.727,0l0,-2.788c0,-0.323 -0.059,-0.566 -0.178,-0.727c-0.118,-0.162 -0.312,-0.243 -0.582,-0.243c-0.204,0 -0.394,0.054 -0.567,0.162c-0.174,0.108 -0.3,0.265 -0.378,0.473c-0.078,0.207 -0.117,0.506 -0.117,0.897l0,2.226l-0.728,0Z" style="fill:#fff;fill-rule:nonzero;" stroke-width="1"/><path d="M27.718,6.944c-0.302,-0.111 -0.526,-0.268 -0.671,-0.473c-0.146,-0.205 -0.218,-0.45 -0.218,-0.735c0,-0.431 0.155,-0.794 0.464,-1.087c0.31,-0.294 0.722,-0.441 1.237,-0.441c0.517,0 0.933,0.151 1.248,0.451c0.315,0.3 0.473,0.666 0.473,1.097c0,0.275 -0.072,0.514 -0.216,0.717c-0.144,0.203 -0.363,0.36 -0.657,0.471c0.364,0.118 0.641,0.31 0.831,0.574c0.19,0.263 0.284,0.579 0.284,0.945c0,0.506 -0.179,0.932 -0.537,1.277c-0.358,0.345 -0.83,0.517 -1.414,0.517c-0.585,0 -1.056,-0.173 -1.414,-0.519c-0.358,-0.346 -0.538,-0.778 -0.538,-1.295c0,-0.385 0.098,-0.708 0.293,-0.968c0.196,-0.26 0.474,-0.437 0.835,-0.531ZM27.572,5.711c0,0.281 0.09,0.51 0.271,0.687c0.18,0.178 0.415,0.267 0.703,0.267c0.28,0 0.51,-0.088 0.689,-0.265c0.179,-0.176 0.269,-0.392 0.269,-0.648c0,-0.267 -0.093,-0.491 -0.277,-0.673c-0.185,-0.182 -0.414,-0.273 -0.689,-0.273c-0.278,0 -0.508,0.089 -0.691,0.267c-0.183,0.178 -0.275,0.391 -0.275,0.638ZM27.338,8.447c0,0.207 0.049,0.408 0.147,0.602c0.099,0.194 0.245,0.344 0.439,0.45c0.194,0.107 0.402,0.16 0.626,0.16c0.347,0 0.634,-0.112 0.861,-0.335c0.226,-0.224 0.339,-0.508 0.339,-0.853c0,-0.35 -0.116,-0.64 -0.349,-0.869c-0.233,-0.229 -0.525,-0.343 -0.875,-0.343c-0.342,0 -0.626,0.113 -0.851,0.339c-0.225,0.227 -0.337,0.509 -0.337,0.849Z" style="fill:#fff;fill-rule:nonzero;" stroke-width="1"/><rect x="33.928" y="4.233" width="0.784" height="5.923" style="fill:#fff;fill-rule:nonzero;" stroke-width="1"/><path d="M38.292,10.156l0,-4.291l0.654,0l0,0.65c0.167,-0.304 0.321,-0.505 0.463,-0.602c0.141,-0.097 0.297,-0.145 0.466,-0.145c0.246,0 0.495,0.078 0.748,0.234l-0.251,0.675c-0.177,-0.105 -0.355,-0.157 -0.533,-0.157c-0.159,0 -0.302,0.047 -0.428,0.143c-0.127,0.096 -0.217,0.228 -0.271,0.398c-0.081,0.259 -0.121,0.541 -0.121,0.848l0,2.247l-0.727,0Z" style="fill:#fff;fill-rule:nonzero;" stroke-width="1"/><path d="M41.972,6.944c-0.301,-0.111 -0.525,-0.268 -0.67,-0.473c-0.146,-0.205 -0.218,-0.45 -0.218,-0.735c0,-0.431 0.154,-0.794 0.464,-1.087c0.31,-0.294 0.722,-0.441 1.237,-0.441c0.517,0 0.933,0.151 1.248,0.451c0.315,0.3 0.473,0.666 0.473,1.097c0,0.275 -0.072,0.514 -0.216,0.717c-0.144,0.203 -0.363,0.36 -0.657,0.471c0.364,0.118 0.64,0.31 0.83,0.574c0.19,0.263 0.285,0.579 0.285,0.945c0,0.506 -0.179,0.932 -0.537,1.277c-0.358,0.345 -0.83,0.517 -1.414,0.517c-0.585,0 -1.056,-0.173 -1.414,-0.519c-0.359,-0.346 -0.538,-0.778 -0.538,-1.295c0,-0.385 0.098,-0.708 0.293,-0.968c0.195,-0.26 0.473,-0.437 0.834,-0.531ZM41.827,5.711c0,0.281 0.09,0.51 0.271,0.687c0.18,0.178 0.414,0.267 0.703,0.267c0.28,0 0.509,-0.088 0.689,-0.265c0.179,-0.176 0.268,-0.392 0.268,-0.648c0,-0.267 -0.092,-0.491 -0.276,-0.673c-0.185,-0.182 -0.415,-0.273 -0.689,-0.273c-0.278,0 -0.508,0.089 -0.691,0.267c-0.183,0.178 -0.275,0.391 -0.275,0.638ZM41.593,8.447c0,0.207 0.049,0.408 0.147,0.602c0.098,0.194 0.245,0.344 0.438,0.45c0.194,0.107 0.403,0.16 0.627,0.16c0.347,0 0.634,-0.112 0.86,-0.335c0.227,-0.224 0.34,-0.508 0.34,-0.853c0,-0.35 -0.117,-0.64 -0.35,-0.869c-0.233,-0.229 -0.524,-0.343 -0.875,-0.343c-0.342,0 -0.625,0.113 -0.85,0.339c-0.225,0.227 -0.337,0.509 -0.337,0.849Z" style="fill:#fff;fill-rule:nonzero;" stroke-width="1"/><path d="M48.874,6.944c-0.302,-0.111 -0.526,-0.268 -0.671,-0.473c-0.146,-0.205 -0.218,-0.45 -0.218,-0.735c0,-0.431 0.154,-0.794 0.464,-1.087c0.31,-0.294 0.722,-0.441 1.237,-0.441c0.517,0 0.933,0.151 1.248,0.451c0.315,0.3 0.473,0.666 0.473,1.097c0,0.275 -0.072,0.514 -0.216,0.717c-0.144,0.203 -0.363,0.36 -0.657,0.471c0.364,0.118 0.641,0.31 0.83,0.574c0.19,0.263 0.285,0.579 0.285,0.945c0,0.506 -0.179,0.932 -0.537,1.277c-0.358,0.345 -0.83,0.517 -1.414,0.517c-0.585,0 -1.056,-0.173 -1.414,-0.519c-0.359,-0.346 -0.538,-0.778 -0.538,-1.295c0,-0.385 0.098,-0.708 0.293,-0.968c0.195,-0.26 0.474,-0.437 0.835,-0.531ZM48.728,5.711c0,0.281 0.09,0.51 0.271,0.687c0.18,0.178 0.415,0.267 0.703,0.267c0.28,0 0.51,-0.088 0.689,-0.265c0.179,-0.176 0.268,-0.392 0.268,-0.648c0,-0.267 -0.092,-0.491 -0.276,-0.673c-0.185,-0.182 -0.415,-0.273 -0.689,-0.273c-0.278,0 -0.508,0.089 -0.691,0.267c-0.183,0.178 -0.275,0.391 -0.275,0.638ZM48.494,8.447c0,0.207 0.049,0.408 0.147,0.602c0.099,0.194 0.245,0.344 0.439,0.45c0.194,0.107 0.402,0.16 0.626,0.16c0.347,0 0.634,-0.112 0.86,-0.335c0.227,-0.224 0.34,-0.508 0.34,-0.853c0,-0.35 -0.117,-0.64 -0.35,-0.869c-0.233,-0.229 -0.524,-0.343 -0.874,-0.343c-0.342,0 -0.626,0.113 -0.851,0.339c-0.225,0.227 -0.337,0.509 -0.337,0.849Z" style="fill:#fff;fill-rule:nonzero;" stroke-width="1"/><path d="M52.013,10.257l1.717,-6.125l0.582,0l-1.713,6.125l-0.586,0Z" style="fill:#fff;fill-rule:nonzero;" stroke-width="1"/><path d="M55.775,6.944c-0.302,-0.111 -0.526,-0.268 -0.671,-0.473c-0.146,-0.205 -0.218,-0.45 -0.218,-0.735c0,-0.431 0.155,-0.794 0.464,-1.087c0.31,-0.294 0.722,-0.441 1.237,-0.441c0.517,0 0.933,0.151 1.248,0.451c0.315,0.3 0.473,0.666 0.473,1.097c0,0.275 -0.072,0.514 -0.216,0.717c-0.144,0.203 -0.363,0.36 -0.657,0.471c0.364,0.118 0.641,0.31 0.831,0.574c0.189,0.263 0.284,0.579 0.284,0.945c0,0.506 -0.179,0.932 -0.537,1.277c-0.358,0.345 -0.83,0.517 -1.414,0.517c-0.585,0 -1.056,-0.173 -1.414,-0.519c-0.359,-0.346 -0.538,-0.778 -0.538,-1.295c0,-0.385 0.098,-0.708 0.293,-0.968c0.196,-0.26 0.474,-0.437 0.835,-0.531ZM55.629,5.711c0,0.281 0.09,0.51 0.271,0.687c0.18,0.178 0.415,0.267 0.703,0.267c0.28,0 0.51,-0.088 0.689,-0.265c0.179,-0.176 0.268,-0.392 0.268,-0.648c0,-0.267 -0.092,-0.491 -0.276,-0.673c-0.185,-0.182 -0.414,-0.273 -0.689,-0.273c-0.278,0 -0.508,0.089 -0.691,0.267c-0.183,0.178 -0.275,0.391 -0.275,0.638ZM55.395,8.447c0,0.207 0.049,0.408 0.147,0.602c0.099,0.194 0.245,0.344 0.439,0.45c0.194,0.107 0.402,0.16 0.626,0.16c0.347,0 0.634,-0.112 0.861,-0.335c0.226,-0.224 0.339,-0.508 0.339,-0.853c0,-0.35 -0.117,-0.64 -0.35,-0.869c-0.233,-0.229 -0.524,-0.343 -0.874,-0.343c-0.342,0 -0.626,0.113 -0.851,0.339c-0.225,0.227 -0.337,0.509 -0.337,0.849Z" style="fill:#fff;fill-rule:nonzero;" stroke-width="1"/></g></svg>