<svg version="1.1" width="28.593002319335938" height="38.68800354003906" viewBox="0.18799740076065063 -0.3439999967813492 28.593002319335938 38.68800354003906" xmlns="http://www.w3.org/2000/svg" xmlns:xlink="http://www.w3.org/1999/xlink">
  <!-- Exported by Scratch - http://scratch.mit.edu/ -->
  <g id="ID0.18129129661247134">
    <g id="layer1">
      <path id="path3000" fill="#666666" stroke="none" d="M 16.125 0.156 C 15.07 0.156 13.988 0.23 12.875 0.406 C 11.762 0.582 10.68 0.84 9.625 1.156 C 8.57 1.473 7.574 1.848 6.625 2.281 C 5.676 2.715 4.812 3.211 4.063 3.75 L 4.063 8.656 C 7.648 5.586 11.555 4.063 15.75 4.063 C 21.117 4.063 23.781 7.523 23.781 14.438 L 12.875 16 C 8.797 16.586 5.734 17.848 3.719 19.781 C 1.703 21.715 0.687 24.336 0.688 27.594 C 0.687 29.117 0.973 30.484 1.5 31.75 C 2.027 33.016 2.777 34.098 3.75 35 C 4.723 35.902 5.887 36.602 7.281 37.094 C 8.676 37.586 10.234 37.844 11.969 37.844 C 14.523 37.844 16.816 37.203 18.844 35.938 C 20.871 34.672 22.484 32.891 23.656 30.594 L 23.781 30.594 L 23.781 37 L 28.281 37 L 28.281 13.594 C 28.281 9.141 27.27 5.781 25.219 3.531 C 23.168 1.281 20.133 0.156 16.125 0.156 Z M 23.781 18.219 L 23.781 21.781 C 23.781 23.539 23.52 25.156 22.969 26.656 C 22.418 28.156 21.66 29.453 20.688 30.531 C 19.715 31.609 18.555 32.453 17.219 33.063 C 15.883 33.672 14.406 33.969 12.813 33.969 C 11.641 33.969 10.613 33.828 9.688 33.5 C 8.762 33.172 7.957 32.691 7.313 32.094 C 6.668 31.496 6.184 30.789 5.844 29.969 C 5.504 29.148 5.344 28.273 5.344 27.313 C 5.344 26.023 5.523 24.91 5.875 24.031 C 6.227 23.152 6.75 22.441 7.5 21.844 C 8.25 21.246 9.227 20.758 10.375 20.406 C 11.523 20.055 12.883 19.766 14.5 19.531 L 23.781 18.219 Z " stroke-width="1"/>
    </g>
  </g>
</svg>