<svg width="115.61400604248047" height="14.907999992370605" viewBox="-0.5000052452087402 -0.5 115.61400604248047 14.907999992370605" version="1.1" xmlns="http://www.w3.org/2000/svg" xmlns:xlink="http://www.w3.org/1999/xlink" xml:space="preserve" style="fill-rule:evenodd;clip-rule:evenodd;stroke-linejoin:round;stroke-miterlimit:1.41421;"><g id="1"><path d="M114.614,6.954c0,-3.838 -3.116,-6.954 -6.954,-6.954l-100.706,0c-3.838,0 -6.954,3.116 -6.954,6.954c0,3.838 3.116,6.954 6.954,6.954l100.706,0c3.838,0 6.954,-3.116 6.954,-6.954Z" style="fill:#9fd3ff;" stroke-width="1"/><path d="M5.734,10.156l0,-5.923l0.804,0l3.111,4.65l0,-4.65l0.751,0l0,5.923l-0.804,0l-3.111,-4.655l0,4.655l-0.751,0Z" style="fill:#fff;fill-rule:nonzero;" stroke-width="1"/><path d="M11.629,5.069l0,-0.836l0.727,0l0,0.836l-0.727,0ZM11.629,10.156l0,-4.291l0.727,0l0,4.291l-0.727,0Z" style="fill:#fff;fill-rule:nonzero;" stroke-width="1"/><path d="M16.263,8.584l0.715,0.093c-0.078,0.493 -0.278,0.879 -0.6,1.158c-0.322,0.279 -0.717,0.418 -1.186,0.418c-0.587,0 -1.059,-0.192 -1.416,-0.576c-0.357,-0.384 -0.535,-0.934 -0.535,-1.65c0,-0.464 0.076,-0.869 0.23,-1.217c0.154,-0.347 0.387,-0.608 0.701,-0.781c0.314,-0.174 0.655,-0.261 1.024,-0.261c0.466,0 0.847,0.118 1.144,0.354c0.296,0.235 0.486,0.57 0.569,1.004l-0.707,0.109c-0.067,-0.289 -0.186,-0.505 -0.357,-0.651c-0.171,-0.145 -0.378,-0.218 -0.62,-0.218c-0.367,0 -0.664,0.131 -0.893,0.394c-0.229,0.263 -0.344,0.678 -0.344,1.246c0,0.577 0.111,0.996 0.332,1.257c0.22,0.261 0.509,0.392 0.864,0.392c0.286,0 0.524,-0.088 0.715,-0.263c0.192,-0.175 0.313,-0.444 0.364,-0.808Z" style="fill:#fff;fill-rule:nonzero;" stroke-width="1"/><path d="M20.538,8.774l0.751,0.093c-0.118,0.439 -0.338,0.78 -0.658,1.022c-0.321,0.243 -0.73,0.364 -1.229,0.364c-0.627,0 -1.125,-0.193 -1.493,-0.58c-0.367,-0.386 -0.551,-0.929 -0.551,-1.626c0,-0.722 0.186,-1.282 0.558,-1.681c0.371,-0.399 0.853,-0.598 1.446,-0.598c0.574,0 1.042,0.195 1.406,0.586c0.364,0.39 0.546,0.94 0.546,1.648c0,0.043 -0.002,0.108 -0.005,0.194l-3.2,0c0.027,0.472 0.161,0.833 0.4,1.083c0.24,0.251 0.539,0.376 0.897,0.376c0.267,0 0.495,-0.07 0.683,-0.21c0.189,-0.14 0.338,-0.364 0.449,-0.671ZM18.15,7.598l2.396,0c-0.032,-0.361 -0.124,-0.631 -0.275,-0.812c-0.232,-0.28 -0.532,-0.42 -0.901,-0.42c-0.334,0 -0.615,0.112 -0.842,0.335c-0.228,0.224 -0.354,0.523 -0.378,0.897Z" style="fill:#fff;fill-rule:nonzero;" stroke-width="1"/><path d="M22.392,10.156l0,-0.828l0.829,0l0,0.828c0,0.304 -0.054,0.55 -0.162,0.737c-0.108,0.188 -0.279,0.332 -0.513,0.435l-0.202,-0.311c0.153,-0.068 0.267,-0.167 0.339,-0.297c0.073,-0.131 0.113,-0.319 0.121,-0.564l-0.412,0Z" style="fill:#fff;fill-rule:nonzero;" stroke-width="1"/><path d="M27.471,10.156l-0.675,0l0,-5.923l0.728,0l0,2.113c0.307,-0.385 0.699,-0.578 1.175,-0.578c0.264,0 0.514,0.053 0.75,0.16c0.236,0.106 0.43,0.255 0.582,0.448c0.152,0.193 0.271,0.425 0.357,0.697c0.087,0.272 0.13,0.563 0.13,0.873c0,0.735 -0.182,1.304 -0.546,1.705c-0.363,0.401 -0.8,0.602 -1.309,0.602c-0.506,0 -0.904,-0.212 -1.192,-0.634l0,0.537ZM27.463,7.978c0,0.515 0.07,0.886 0.21,1.115c0.229,0.375 0.539,0.562 0.93,0.562c0.317,0 0.592,-0.138 0.824,-0.414c0.231,-0.276 0.347,-0.688 0.347,-1.235c0,-0.56 -0.111,-0.973 -0.333,-1.24c-0.222,-0.267 -0.491,-0.4 -0.806,-0.4c-0.318,0 -0.593,0.138 -0.824,0.414c-0.232,0.276 -0.348,0.676 -0.348,1.198Z" style="fill:#fff;fill-rule:nonzero;" stroke-width="1"/><path d="M34.215,10.156l0,-0.63c-0.334,0.484 -0.788,0.727 -1.362,0.727c-0.253,0 -0.489,-0.049 -0.709,-0.146c-0.22,-0.097 -0.383,-0.218 -0.489,-0.365c-0.106,-0.147 -0.181,-0.327 -0.224,-0.54c-0.03,-0.142 -0.045,-0.369 -0.045,-0.678l0,-2.659l0.728,0l0,2.38c0,0.38 0.015,0.635 0.044,0.767c0.046,0.192 0.143,0.342 0.291,0.451c0.148,0.109 0.331,0.164 0.55,0.164c0.218,0 0.422,-0.056 0.614,-0.168c0.191,-0.112 0.326,-0.264 0.406,-0.457c0.079,-0.192 0.119,-0.472 0.119,-0.838l0,-2.299l0.727,0l0,4.291l-0.65,0Z" style="fill:#fff;fill-rule:nonzero;" stroke-width="1"/><path d="M37.593,9.505l0.105,0.643c-0.205,0.043 -0.388,0.064 -0.55,0.064c-0.264,0 -0.469,-0.041 -0.614,-0.125c-0.146,-0.083 -0.248,-0.193 -0.307,-0.329c-0.059,-0.136 -0.089,-0.422 -0.089,-0.859l0,-2.468l-0.533,0l0,-0.566l0.533,0l0,-1.063l0.723,-0.436l0,1.499l0.732,0l0,0.566l-0.732,0l0,2.509c0,0.207 0.013,0.34 0.039,0.4c0.025,0.059 0.067,0.106 0.125,0.141c0.058,0.035 0.141,0.053 0.248,0.053c0.081,0 0.188,-0.01 0.32,-0.029Z" style="fill:#fff;fill-rule:nonzero;" stroke-width="1"/><path d="M43.403,8.584l0.715,0.093c-0.078,0.493 -0.278,0.879 -0.6,1.158c-0.322,0.279 -0.717,0.418 -1.186,0.418c-0.587,0 -1.059,-0.192 -1.416,-0.576c-0.357,-0.384 -0.536,-0.934 -0.536,-1.65c0,-0.464 0.077,-0.869 0.231,-1.217c0.153,-0.347 0.387,-0.608 0.701,-0.781c0.314,-0.174 0.655,-0.261 1.024,-0.261c0.466,0 0.847,0.118 1.143,0.354c0.297,0.235 0.487,0.57 0.57,1.004l-0.707,0.109c-0.067,-0.289 -0.186,-0.505 -0.357,-0.651c-0.172,-0.145 -0.378,-0.218 -0.621,-0.218c-0.366,0 -0.664,0.131 -0.893,0.394c-0.229,0.263 -0.343,0.678 -0.343,1.246c0,0.577 0.11,0.996 0.331,1.257c0.221,0.261 0.509,0.392 0.865,0.392c0.285,0 0.524,-0.088 0.715,-0.263c0.191,-0.175 0.313,-0.444 0.364,-0.808Z" style="fill:#fff;fill-rule:nonzero;" stroke-width="1"/><path d="M44.469,8.01c0,-0.794 0.221,-1.383 0.663,-1.765c0.369,-0.318 0.819,-0.477 1.35,-0.477c0.589,0 1.072,0.193 1.446,0.58c0.374,0.386 0.562,0.92 0.562,1.602c0,0.552 -0.083,0.986 -0.249,1.303c-0.165,0.316 -0.407,0.562 -0.723,0.737c-0.317,0.175 -0.662,0.263 -1.036,0.263c-0.601,0 -1.087,-0.193 -1.457,-0.578c-0.37,-0.385 -0.556,-0.94 -0.556,-1.665ZM45.217,8.01c0,0.55 0.12,0.961 0.359,1.235c0.24,0.273 0.542,0.41 0.906,0.41c0.361,0 0.661,-0.137 0.901,-0.412c0.239,-0.275 0.359,-0.694 0.359,-1.257c0,-0.53 -0.12,-0.932 -0.361,-1.206c-0.242,-0.273 -0.541,-0.41 -0.899,-0.41c-0.364,0 -0.666,0.136 -0.906,0.408c-0.239,0.272 -0.359,0.683 -0.359,1.232Z" style="fill:#fff;fill-rule:nonzero;" stroke-width="1"/><path d="M52.154,10.156l0,-0.63c-0.334,0.484 -0.788,0.727 -1.361,0.727c-0.253,0 -0.49,-0.049 -0.709,-0.146c-0.22,-0.097 -0.383,-0.218 -0.489,-0.365c-0.107,-0.147 -0.181,-0.327 -0.225,-0.54c-0.029,-0.142 -0.044,-0.369 -0.044,-0.678l0,-2.659l0.727,0l0,2.38c0,0.38 0.015,0.635 0.045,0.767c0.046,0.192 0.143,0.342 0.291,0.451c0.148,0.109 0.331,0.164 0.549,0.164c0.218,0 0.423,-0.056 0.614,-0.168c0.192,-0.112 0.327,-0.264 0.406,-0.457c0.08,-0.192 0.12,-0.472 0.12,-0.838l0,-2.299l0.727,0l0,4.291l-0.651,0Z" style="fill:#fff;fill-rule:nonzero;" stroke-width="1"/><rect x="53.928" y="4.233" width="0.727" height="5.923" style="fill:#fff;fill-rule:nonzero;" stroke-width="1"/><path d="M58.567,10.156l0,-0.541c-0.272,0.425 -0.672,0.638 -1.2,0.638c-0.343,0 -0.657,-0.094 -0.944,-0.283c-0.287,-0.188 -0.509,-0.452 -0.667,-0.79c-0.157,-0.338 -0.236,-0.726 -0.236,-1.166c0,-0.428 0.071,-0.816 0.214,-1.165c0.143,-0.349 0.357,-0.616 0.643,-0.802c0.285,-0.186 0.604,-0.279 0.957,-0.279c0.259,0 0.489,0.055 0.691,0.164c0.202,0.109 0.366,0.251 0.493,0.426l0,-2.125l0.723,0l0,5.923l-0.674,0ZM56.268,8.014c0,0.55 0.115,0.961 0.347,1.233c0.232,0.272 0.505,0.408 0.82,0.408c0.318,0 0.588,-0.13 0.81,-0.39c0.223,-0.26 0.334,-0.657 0.334,-1.19c0,-0.587 -0.113,-1.018 -0.34,-1.293c-0.226,-0.275 -0.505,-0.412 -0.836,-0.412c-0.323,0 -0.593,0.132 -0.81,0.396c-0.217,0.264 -0.325,0.68 -0.325,1.248Z" style="fill:#fff;fill-rule:nonzero;" stroke-width="1"/><path d="M63.355,10.156l-0.675,0l0,-5.923l0.727,0l0,2.113c0.307,-0.385 0.699,-0.578 1.176,-0.578c0.264,0 0.514,0.053 0.749,0.16c0.236,0.106 0.43,0.255 0.582,0.448c0.152,0.193 0.272,0.425 0.358,0.697c0.086,0.272 0.129,0.563 0.129,0.873c0,0.735 -0.182,1.304 -0.545,1.705c-0.364,0.401 -0.8,0.602 -1.31,0.602c-0.506,0 -0.903,-0.212 -1.191,-0.634l0,0.537ZM63.346,7.978c0,0.515 0.07,0.886 0.211,1.115c0.228,0.375 0.538,0.562 0.929,0.562c0.318,0 0.592,-0.138 0.824,-0.414c0.232,-0.276 0.348,-0.688 0.348,-1.235c0,-0.56 -0.112,-0.973 -0.334,-1.24c-0.222,-0.267 -0.491,-0.4 -0.806,-0.4c-0.318,0 -0.592,0.138 -0.824,0.414c-0.232,0.276 -0.348,0.676 -0.348,1.198Z" style="fill:#fff;fill-rule:nonzero;" stroke-width="1"/><path d="M70.223,8.774l0.752,0.093c-0.119,0.439 -0.338,0.78 -0.659,1.022c-0.32,0.243 -0.73,0.364 -1.228,0.364c-0.628,0 -1.125,-0.193 -1.493,-0.58c-0.368,-0.386 -0.552,-0.929 -0.552,-1.626c0,-0.722 0.186,-1.282 0.558,-1.681c0.372,-0.399 0.854,-0.598 1.447,-0.598c0.573,0 1.042,0.195 1.406,0.586c0.363,0.39 0.545,0.94 0.545,1.648c0,0.043 -0.001,0.108 -0.004,0.194l-3.2,0c0.027,0.472 0.16,0.833 0.4,1.083c0.24,0.251 0.539,0.376 0.897,0.376c0.267,0 0.494,-0.07 0.683,-0.21c0.188,-0.14 0.338,-0.364 0.448,-0.671ZM67.835,7.598l2.396,0c-0.032,-0.361 -0.124,-0.631 -0.274,-0.812c-0.232,-0.28 -0.532,-0.42 -0.901,-0.42c-0.334,0 -0.615,0.112 -0.843,0.335c-0.227,0.224 -0.353,0.523 -0.378,0.897Z" style="fill:#fff;fill-rule:nonzero;" stroke-width="1"/><path d="M74.191,5.069l0,-0.836l0.727,0l0,0.836l-0.727,0ZM74.191,10.156l0,-4.291l0.727,0l0,4.291l-0.727,0Z" style="fill:#fff;fill-rule:nonzero;" stroke-width="1"/><path d="M76.025,10.156l0,-4.291l0.651,0l0,0.602c0.135,-0.21 0.314,-0.379 0.537,-0.507c0.224,-0.128 0.478,-0.192 0.764,-0.192c0.318,0 0.578,0.066 0.782,0.198c0.203,0.132 0.347,0.316 0.43,0.554c0.339,-0.501 0.781,-0.752 1.325,-0.752c0.426,0 0.753,0.118 0.982,0.354c0.229,0.235 0.344,0.598 0.344,1.088l0,2.946l-0.724,0l0,-2.703c0,-0.291 -0.023,-0.5 -0.07,-0.628c-0.047,-0.128 -0.133,-0.231 -0.257,-0.31c-0.124,-0.078 -0.269,-0.117 -0.436,-0.117c-0.302,0 -0.552,0.101 -0.752,0.301c-0.199,0.201 -0.299,0.522 -0.299,0.964l0,2.493l-0.727,0l0,-2.788c0,-0.323 -0.059,-0.566 -0.178,-0.727c-0.118,-0.162 -0.312,-0.243 -0.582,-0.243c-0.204,0 -0.394,0.054 -0.567,0.162c-0.174,0.108 -0.3,0.265 -0.378,0.473c-0.078,0.207 -0.117,0.506 -0.117,0.897l0,2.226l-0.728,0Z" style="fill:#fff;fill-rule:nonzero;" stroke-width="1"/><path d="M82.918,11.8l0,-5.935l0.663,0l0,0.558c0.156,-0.219 0.333,-0.382 0.529,-0.491c0.197,-0.109 0.435,-0.164 0.716,-0.164c0.366,0 0.689,0.094 0.969,0.283c0.28,0.188 0.492,0.454 0.635,0.798c0.142,0.343 0.214,0.72 0.214,1.129c0,0.439 -0.079,0.834 -0.237,1.186c-0.157,0.352 -0.386,0.621 -0.687,0.808c-0.3,0.187 -0.616,0.281 -0.947,0.281c-0.242,0 -0.46,-0.051 -0.653,-0.154c-0.192,-0.102 -0.35,-0.231 -0.474,-0.388l0,2.089l-0.728,0ZM83.577,8.035c0,0.552 0.112,0.96 0.335,1.224c0.224,0.264 0.495,0.396 0.813,0.396c0.323,0 0.6,-0.137 0.83,-0.41c0.23,-0.274 0.345,-0.697 0.345,-1.271c0,-0.547 -0.112,-0.956 -0.337,-1.228c-0.225,-0.272 -0.494,-0.408 -0.806,-0.408c-0.31,0 -0.584,0.144 -0.822,0.434c-0.239,0.29 -0.358,0.71 -0.358,1.263Z" style="fill:#fff;fill-rule:nonzero;" stroke-width="1"/><path d="M87.512,10.156l0,-4.291l0.655,0l0,0.65c0.167,-0.304 0.321,-0.505 0.463,-0.602c0.141,-0.097 0.297,-0.145 0.466,-0.145c0.245,0 0.495,0.078 0.748,0.234l-0.251,0.675c-0.178,-0.105 -0.355,-0.157 -0.533,-0.157c-0.159,0 -0.302,0.047 -0.428,0.143c-0.127,0.096 -0.217,0.228 -0.271,0.398c-0.081,0.259 -0.121,0.541 -0.121,0.848l0,2.247l-0.728,0Z" style="fill:#fff;fill-rule:nonzero;" stroke-width="1"/><path d="M90.005,8.01c0,-0.794 0.221,-1.383 0.663,-1.765c0.369,-0.318 0.819,-0.477 1.35,-0.477c0.589,0 1.072,0.193 1.446,0.58c0.374,0.386 0.562,0.92 0.562,1.602c0,0.552 -0.083,0.986 -0.249,1.303c-0.166,0.316 -0.407,0.562 -0.723,0.737c-0.317,0.175 -0.662,0.263 -1.036,0.263c-0.601,0 -1.087,-0.193 -1.457,-0.578c-0.37,-0.385 -0.556,-0.94 -0.556,-1.665ZM90.753,8.01c0,0.55 0.12,0.961 0.359,1.235c0.24,0.273 0.542,0.41 0.906,0.41c0.36,0 0.661,-0.137 0.901,-0.412c0.239,-0.275 0.359,-0.694 0.359,-1.257c0,-0.53 -0.12,-0.932 -0.361,-1.206c-0.242,-0.273 -0.541,-0.41 -0.899,-0.41c-0.364,0 -0.666,0.136 -0.906,0.408c-0.239,0.272 -0.359,0.683 -0.359,1.232Z" style="fill:#fff;fill-rule:nonzero;" stroke-width="1"/><path d="M96.07,10.156l-1.632,-4.291l0.767,0l0.922,2.57c0.099,0.277 0.191,0.565 0.274,0.864c0.065,-0.226 0.155,-0.498 0.271,-0.816l0.954,-2.618l0.747,0l-1.624,4.291l-0.679,0Z" style="fill:#fff;fill-rule:nonzero;" stroke-width="1"/><path d="M101.953,8.774l0.752,0.093c-0.119,0.439 -0.339,0.78 -0.659,1.022c-0.321,0.243 -0.73,0.364 -1.228,0.364c-0.628,0 -1.126,-0.193 -1.493,-0.58c-0.368,-0.386 -0.552,-0.929 -0.552,-1.626c0,-0.722 0.186,-1.282 0.558,-1.681c0.371,-0.399 0.854,-0.598 1.446,-0.598c0.574,0 1.043,0.195 1.406,0.586c0.364,0.39 0.546,0.94 0.546,1.648c0,0.043 -0.002,0.108 -0.004,0.194l-3.2,0c0.027,0.472 0.16,0.833 0.4,1.083c0.239,0.251 0.538,0.376 0.897,0.376c0.266,0 0.494,-0.07 0.683,-0.21c0.188,-0.14 0.338,-0.364 0.448,-0.671ZM99.565,7.598l2.396,0c-0.032,-0.361 -0.124,-0.631 -0.275,-0.812c-0.231,-0.28 -0.532,-0.42 -0.901,-0.42c-0.334,0 -0.614,0.112 -0.842,0.335c-0.228,0.224 -0.354,0.523 -0.378,0.897Z" style="fill:#fff;fill-rule:nonzero;" stroke-width="1"/><path d="M106.402,10.156l0,-0.541c-0.272,0.425 -0.672,0.638 -1.2,0.638c-0.343,0 -0.657,-0.094 -0.944,-0.283c-0.287,-0.188 -0.509,-0.452 -0.667,-0.79c-0.157,-0.338 -0.236,-0.726 -0.236,-1.166c0,-0.428 0.071,-0.816 0.214,-1.165c0.143,-0.349 0.357,-0.616 0.643,-0.802c0.285,-0.186 0.604,-0.279 0.957,-0.279c0.259,0 0.489,0.055 0.691,0.164c0.202,0.109 0.366,0.251 0.493,0.426l0,-2.125l0.723,0l0,5.923l-0.674,0ZM104.103,8.014c0,0.55 0.115,0.961 0.347,1.233c0.232,0.272 0.505,0.408 0.82,0.408c0.318,0 0.588,-0.13 0.81,-0.39c0.223,-0.26 0.334,-0.657 0.334,-1.19c0,-0.587 -0.113,-1.018 -0.34,-1.293c-0.226,-0.275 -0.505,-0.412 -0.836,-0.412c-0.323,0 -0.593,0.132 -0.81,0.396c-0.217,0.264 -0.325,0.68 -0.325,1.248Z" style="fill:#fff;fill-rule:nonzero;" stroke-width="1"/><rect x="108.426" y="9.328" width="0.828" height="0.828" style="fill:#fff;fill-rule:nonzero;" stroke-width="1"/></g></svg>