<svg version="1.1" width="23.39299964904785" height="23.39299964904785" viewBox="-0.14300000667572021 -0.5189999993890524 23.39299964904785 23.39299964904785" xmlns="http://www.w3.org/2000/svg" xmlns:xlink="http://www.w3.org/1999/xlink">
  <!-- Exported by Scratch - http://scratch.mit.edu/ -->
  <g id="Top Loved Button">
    <path id="ID0.2176539395004511" fill="#fff" d="M 22.75 11.177 C 22.75 4.998 17.733 -0.019 11.553 -0.019 C 5.374 -0.019 0.357 4.998 0.357 11.177 C 0.357 17.357 5.374 22.374 11.553 22.374 C 17.733 22.374 22.75 17.357 22.75 11.177 Z " stroke-width="1"/>
    <path id="ID0.03196453908458352" fill="#6FD57E" d="M 11.553 7.966 C 12.861 5.741 15.478 5.741 16.787 6.854 C 18.095 7.966 18.095 10.191 16.787 12.416 C 15.871 14.084 11.553 17.953 11.553 17.953 C 11.553 17.953 7.235 14.084 6.32 12.416 C 5.011 10.191 5.011 7.966 6.32 6.854 C 7.628 5.741 10.245 5.741 11.553 7.966 Z " stroke-width="1"/>
  </g>
</svg>