<svg version="1.1" width="50.21900177001953" height="51.40599822998047" viewBox="0.281000018119812 0.09399998188018799 50.21900177001953 51.40599822998047" xmlns="http://www.w3.org/2000/svg" xmlns:xlink="http://www.w3.org/1999/xlink">
  <!-- Exported by Scratch - http://scratch.mit.edu/ -->
  <g id="ID0.2528106924146414">
    <g id="layer1">
      <path id="path3281" fill="#666666" stroke="none" d="M 0.781 0.594 L 0.781 51 L 5.344 51 L 5.344 15.813 C 5.344 14.125 5.348 12.602 5.313 11.219 C 5.277 9.836 5.219 8.578 5.125 7.5 L 5.25 7.5 C 5.789 9.633 6.328 11.297 6.844 12.469 L 24.438 51 L 26.438 51 L 44.031 12.219 C 44.266 11.727 44.512 11.086 44.781 10.313 C 45.051 9.539 45.359 8.648 45.688 7.594 L 45.813 7.594 C 45.531 11.555 45.406 14.406 45.406 16.188 L 45.406 51 L 50 51 L 50 0.594 L 44.781 0.594 L 27.5 38.531 C 27.102 39.422 26.769 40.258 26.5 41.031 C 26.23 41.805 25.922 42.656 25.594 43.594 L 25.406 43.594 C 25.125 42.656 24.809 41.769 24.469 40.938 C 24.129 40.106 23.789 39.297 23.438 38.5 L 6.313 0.594 L 0.781 0.594 Z " stroke-width="1"/>
    </g>
  </g>
</svg>