<svg width="481.46467" height="361.46467" viewBox="-0.732335 -0.732335 481.46467 361.46467" version="1.1" style="fill-rule:evenodd;clip-rule:evenodd;stroke-linecap:round;stroke-linejoin:round;stroke-miterlimit:1.41421;" xml:space="preserve" xmlns="http://www.w3.org/2000/svg" xmlns:xlink="http://www.w3.org/1999/xlink">
  <g>
    <rect x="0" y="0" width="480" height="360" style="fill:#ea5f61;" stroke-width="1"/>
    <g id="Icon">
      <g id="Cloud">
        <path d="M220.234,126.063c5.785,-6.619 14.288,-10.803 23.76,-10.803c16.406,0 29.903,12.549 31.409,28.564c0.046,-0.001 0.093,-0.001 0.139,-0.001c10.734,0 19.448,8.714 19.448,19.448c0,10.646 -8.573,19.306 -19.187,19.445l0,0.002l-70.035,0c-11.457,0 -20.758,-9.301 -20.758,-20.758c0,-9.612 6.547,-17.707 15.421,-20.064c-0.007,-0.197 -0.011,-0.395 -0.011,-0.594c0,-8.701 7.064,-15.765 15.765,-15.765c1.399,0 2.756,0.183 4.049,0.526Z" style="fill:#fff;" stroke-width="1"/>
        <g id="Face (Group)">
          <circle cx="225.971" cy="149.686" r="3.528" style="fill:#ea5f61;" stroke-width="1"/>
          <circle cx="251.624" cy="149.686" r="3.528" style="fill:#ea5f61;" stroke-width="1"/>
          <path d="M248.096,167.609c0,0 -3.366,-3.134 -9.163,-3.134c-5.797,0 -9.402,3.134 -9.402,3.134" style="fill:none;stroke-width:3px;stroke:#ea5f61;" stroke-width="1"/>
        </g>
      </g>
    </g>
    <g>
      <path d="M 64.3441 201.707 C 64.3441 200.4254 64.5345 199.3503 64.9183 198.4803 C 65.2039 197.8403 65.595 197.2646 66.09 196.7549 C 66.5851 196.2467 67.127 195.8688 67.7158 195.6227 C 68.4994 195.2903 69.4046 195.1248 70.4284 195.1248 C 72.2812 195.1248 73.7649 195.7004 74.878 196.8501 C 75.9912 197.9999 76.5478 199.5993 76.5478 201.6469 C 76.5478 203.6784 75.9956 205.2676 74.8912 206.4144 C 73.7869 207.5613 72.3105 208.1354 70.4621 208.1354 C 68.5917 208.1354 67.1036 207.5642 65.9992 206.4232 C 64.8948 205.2822 64.3441 203.7092 64.3441 201.707 Z M 66.9615 201.622 C 66.9615 203.0457 67.2896 204.1266 67.9472 204.8619 C 68.6063 205.5971 69.4412 205.9633 70.4533 205.9633 C 71.4668 205.9633 72.2973 205.5986 72.9476 204.8692 C 73.5964 204.1398 73.9216 203.0457 73.9216 201.5869 C 73.9216 200.1456 73.6052 199.0691 72.9725 198.3602 C 72.3398 197.6513 71.5005 197.2969 70.4533 197.2969 C 69.4075 197.2969 68.5624 197.6557 67.9223 198.3734 C 67.2808 199.0911 66.9615 200.1735 66.9615 201.622 Z " style="fill:#fff;fill-rule:nonzero;" stroke-width="1.46467"/>
      <path d="M 77.9538 203.2346 C 77.9538 202.4335 78.1516 201.6586 78.547 200.9087 C 78.941 200.1603 79.5005 199.5876 80.2241 199.1921 C 80.9476 198.7981 81.7561 198.6004 82.6496 198.6004 C 84.0278 198.6004 85.1571 199.0486 86.0388 199.9435 C 86.9206 200.8384 87.36 201.9706 87.36 203.3386 C 87.36 204.7169 86.9162 205.8593 86.0256 206.766 C 85.1366 207.6726 84.0161 208.1266 82.6657 208.1266 C 81.8308 208.1266 81.034 207.9377 80.2753 207.5598 C 79.5181 207.1834 78.941 206.6297 78.547 205.9003 C 78.1516 205.1709 77.9538 204.2819 77.9538 203.2346 Z M 80.4262 203.3635 C 80.4262 204.2672 80.64 204.96 81.0692 205.4404 C 81.4983 205.9208 82.0286 206.161 82.6569 206.161 C 83.2867 206.161 83.814 205.9208 84.2402 205.4404 C 84.6664 204.96 84.8803 204.2614 84.8803 203.3459 C 84.8803 202.454 84.6664 201.767 84.2402 201.2866 C 83.814 200.8062 83.2867 200.566 82.6569 200.566 C 82.0286 200.566 81.4983 200.8062 81.0692 201.2866 C 80.64 201.767 80.4262 202.4598 80.4262 203.3635 Z " style="fill:#fff;fill-rule:nonzero;" stroke-width="1.46467"/>
      <path d="M 89.1805 198.8069 L 91.4288 198.8069 L 91.4288 200.1456 C 91.7203 199.6872 92.1143 199.3152 92.6123 199.0296 C 93.1102 198.744 93.6624 198.6004 94.2688 198.6004 C 95.3278 198.6004 96.2256 199.0149 96.9638 199.8454 C 97.702 200.6744 98.0711 201.83 98.0711 203.3123 C 98.0711 204.8341 97.6991 206.0175 96.955 206.8612 C 96.211 207.7048 95.3102 208.1266 94.2512 208.1266 C 93.7488 208.1266 93.2919 208.027 92.8832 207.8264 C 92.4746 207.6257 92.044 207.283 91.5914 206.7967 L 91.5914 211.3885 L 89.1805 211.3885 L 89.1805 198.8069 Z M 91.565 203.2097 C 91.565 204.2335 91.7686 204.9893 92.1743 205.4785 C 92.5815 205.9677 93.0766 206.2123 93.6595 206.2123 C 94.2205 206.2123 94.6862 205.9882 95.0583 205.5386 C 95.4303 205.0904 95.6163 204.3536 95.6163 203.3298 C 95.6163 202.3734 95.4244 201.6645 95.0421 201.2017 C 94.6584 200.7374 94.1839 200.506 93.617 200.506 C 93.0282 200.506 92.539 200.733 92.1494 201.1885 C 91.7598 201.6425 91.565 202.3163 91.565 203.2097 Z " style="fill:#fff;fill-rule:nonzero;" stroke-width="1.46467"/>
      <path d="M 99.1344 205.3203 L 101.5555 204.9512 C 101.6581 205.4199 101.8675 205.7773 102.1824 206.0204 C 102.4959 206.2636 102.9367 206.3851 103.5035 206.3851 C 104.1275 206.3851 104.5962 206.2694 104.9111 206.0409 C 105.122 205.8813 105.2289 205.666 105.2289 205.398 C 105.2289 205.2149 105.1718 205.0625 105.0561 204.9424 C 104.936 204.8282 104.668 204.7227 104.2505 204.6246 C 102.304 204.1955 101.0722 203.8044 100.5508 203.4499 C 99.8302 202.9578 99.4698 202.2738 99.4698 201.3979 C 99.4698 200.6085 99.7818 199.945 100.4058 199.4075 C 101.0283 198.8699 101.9964 198.6004 103.3058 198.6004 C 104.5537 198.6004 105.4794 198.804 106.0872 199.2097 C 106.6936 199.6169 107.111 200.2174 107.3395 201.0127 L 105.0649 201.4331 C 104.9682 201.0786 104.7837 200.8062 104.5112 200.6173 C 104.2403 200.4283 103.8521 200.3346 103.3483 200.3346 C 102.7141 200.3346 102.2586 200.4225 101.9847 200.5997 C 101.8016 200.7257 101.7093 200.8897 101.7093 201.0889 C 101.7093 201.2617 101.7899 201.4067 101.9495 201.5268 C 102.1678 201.6879 102.9177 201.9135 104.2022 202.205 C 105.4867 202.4964 106.3846 202.8538 106.8928 203.2786 C 107.3966 203.7063 107.6486 204.3053 107.6486 205.0713 C 107.6486 205.9062 107.3 206.6253 106.6013 207.2259 C 105.9041 207.8264 104.8701 208.1266 103.5035 208.1266 C 102.2615 208.1266 101.2787 207.8747 100.5552 207.3709 C 99.8316 206.8685 99.3585 206.1845 99.1344 205.3203 Z " style="fill:#fff;fill-rule:nonzero;" stroke-width="1.46467"/>
      <path d="M 110.7039 204.6773 L 110.077 198.2914 L 110.077 195.3401 L 112.6856 195.3401 L 112.6856 198.2914 L 112.0689 204.6773 L 110.7039 204.6773 Z M 110.1795 207.9201 L 110.1795 205.5093 L 112.5918 205.5093 L 112.5918 207.9201 L 110.1795 207.9201 Z " style="fill:#fff;fill-rule:nonzero;" stroke-width="1.46467"/>
      <path d="M 123.4992 207.9201 L 123.4992 202.6253 L 118.8914 195.3401 L 121.869 195.3401 L 124.8291 200.317 L 127.7307 195.3401 L 130.6571 195.3401 L 126.0316 202.6429 L 126.0316 207.9201 L 123.4992 207.9201 Z " style="fill:#fff;fill-rule:nonzero;" stroke-width="1.46467"/>
      <path d="M 130.039 203.2346 C 130.039 202.4335 130.2367 201.6586 130.6307 200.9087 C 131.0262 200.1603 131.5857 199.5876 132.3092 199.1921 C 133.0328 198.7981 133.8413 198.6004 134.7332 198.6004 C 136.113 198.6004 137.2422 199.0486 138.124 199.9435 C 139.0042 200.8384 139.4451 201.9706 139.4451 203.3386 C 139.4451 204.7169 138.9998 205.8593 138.1108 206.766 C 137.2202 207.6726 136.1012 208.1266 134.7508 208.1266 C 133.916 208.1266 133.1192 207.9377 132.3605 207.5598 C 131.6018 207.1834 131.0262 206.6297 130.6307 205.9003 C 130.2367 205.1709 130.039 204.2819 130.039 203.2346 Z M 132.5113 203.3635 C 132.5113 204.2672 132.7252 204.96 133.1543 205.4404 C 133.5835 205.9208 134.1122 206.161 134.742 206.161 C 135.3718 206.161 135.8991 205.9208 136.3253 205.4404 C 136.7516 204.96 136.9654 204.2614 136.9654 203.3459 C 136.9654 202.454 136.7516 201.767 136.3253 201.2866 C 135.8991 200.8062 135.3718 200.566 134.742 200.566 C 134.1122 200.566 133.5835 200.8062 133.1543 201.2866 C 132.7252 201.767 132.5113 202.4598 132.5113 203.3635 Z " style="fill:#fff;fill-rule:nonzero;" stroke-width="1.46467"/>
      <path d="M 147.3323 207.9201 L 147.3323 206.5565 C 146.9999 207.0428 146.5634 207.4265 146.0229 207.7063 C 145.4825 207.986 144.9112 208.1266 144.3107 208.1266 C 143.6985 208.1266 143.1492 207.9919 142.663 207.7238 C 142.1767 207.4543 141.8252 207.0765 141.6069 206.5902 C 141.3902 206.1039 141.2818 205.4316 141.2818 204.5733 L 141.2818 198.8069 L 143.6926 198.8069 L 143.6926 202.9944 C 143.6926 204.276 143.738 205.0611 143.8259 205.3511 C 143.9153 205.6396 144.0764 205.8681 144.3107 206.0365 C 144.5451 206.2064 144.8424 206.2899 145.2042 206.2899 C 145.6157 206.2899 145.9848 206.1772 146.31 205.9516 C 146.6366 205.7246 146.8592 205.4448 146.9793 205.1094 C 147.0994 204.7755 147.1595 203.9553 147.1595 202.6517 L 147.1595 198.8069 L 149.5718 198.8069 L 149.5718 207.9201 L 147.3323 207.9201 Z " style="fill:#fff;fill-rule:nonzero;" stroke-width="1.46467"/>
      <path d="M 158.7553 201.5869 L 156.5656 201.1929 C 156.8117 200.3112 157.235 199.6594 157.8369 199.2361 C 158.4375 198.8128 159.3294 198.6004 160.5144 198.6004 C 161.5894 198.6004 162.3906 198.7278 162.9164 198.9827 C 163.4437 199.2376 163.8143 199.5598 164.0281 199.9523 C 164.2434 200.3448 164.3503 201.064 164.3503 202.1112 L 164.324 204.9263 C 164.324 205.726 164.3635 206.3178 164.4397 206.6971 C 164.5173 207.0779 164.6623 207.4866 164.8732 207.9201 L 162.4873 207.9201 C 162.4243 207.7605 162.3481 207.5232 162.2559 207.2083 C 162.2163 207.0647 162.187 206.971 162.1709 206.9256 C 161.7579 207.3255 161.3185 207.6257 160.8483 207.8264 C 160.3796 208.027 159.8787 208.1266 159.347 208.1266 C 158.4082 208.1266 157.6685 207.8718 157.128 207.3635 C 156.5876 206.8538 156.3166 206.2094 156.3166 205.4316 C 156.3166 204.9175 156.4396 204.4576 156.6857 204.0548 C 156.9318 203.6506 157.2774 203.3416 157.7198 203.1277 C 158.1636 202.9124 158.8036 202.7264 159.6385 202.5653 C 160.7663 202.3544 161.547 202.1566 161.982 201.9736 L 161.982 201.7333 C 161.982 201.269 161.8677 200.9395 161.6378 200.7418 C 161.4093 200.544 160.9772 200.4459 160.3415 200.4459 C 159.9138 200.4459 159.5784 200.5309 159.3382 200.6993 C 159.098 200.8677 158.9032 201.1636 158.7553 201.5869 Z M 161.982 203.5437 C 161.6729 203.6462 161.1837 203.7692 160.5144 203.9128 C 159.845 204.0563 159.4071 204.1955 159.2006 204.3331 C 158.8856 204.5572 158.7289 204.8399 158.7289 205.1826 C 158.7289 205.521 158.8549 205.8125 159.1068 206.0585 C 159.3587 206.3046 159.678 206.4276 160.0676 206.4276 C 160.5026 206.4276 160.9171 206.2841 161.3126 205.9985 C 161.6041 205.7802 161.7959 205.5151 161.8868 205.2002 C 161.9497 204.9937 161.982 204.6026 161.982 204.0241 L 161.982 203.5437 Z " style="fill:#fff;fill-rule:nonzero;" stroke-width="1.46467"/>
      <path d="M 169.0358 207.9201 L 166.625 207.9201 L 166.625 198.8069 L 168.8644 198.8069 L 168.8644 200.1032 C 169.2482 199.4909 169.5924 199.0867 169.8985 198.8919 C 170.2046 198.6986 170.5517 198.6004 170.9413 198.6004 C 171.4906 198.6004 172.0193 198.7527 172.529 199.0559 L 171.7821 201.1577 C 171.3764 200.8956 170.9985 200.7637 170.6499 200.7637 C 170.3115 200.7637 170.0259 200.856 169.7916 201.042 C 169.5572 201.228 169.3727 201.5649 169.2379 202.0512 C 169.1032 202.5375 169.0358 203.5554 169.0358 205.1065 L 169.0358 207.9201 Z " style="fill:#fff;fill-rule:nonzero;" stroke-width="1.46467"/>
      <path d="M 178.8447 205.0201 L 181.2482 205.4229 C 180.9392 206.3046 180.4514 206.9754 179.785 207.4353 C 179.1186 207.8967 178.2837 208.1266 177.2834 208.1266 C 175.6986 208.1266 174.5254 207.6096 173.7652 206.5741 C 173.1633 205.7436 172.863 204.6964 172.863 203.4324 C 172.863 201.9223 173.2585 200.7388 174.0479 199.8835 C 174.8374 199.0281 175.8363 198.6004 177.0432 198.6004 C 178.3994 198.6004 179.4687 199.0486 180.2523 199.9435 C 181.0359 200.8384 181.4108 202.2108 181.3771 204.0592 L 175.3354 204.0592 C 175.3529 204.774 175.5463 205.3306 175.9183 205.7275 C 176.2903 206.1259 176.7546 206.3251 177.3083 206.3251 C 177.6862 206.3251 178.004 206.2211 178.2618 206.016 C 178.5195 205.8095 178.7129 205.477 178.8447 205.0201 Z M 178.9824 202.5829 C 178.9648 201.8842 178.7847 201.354 178.4419 200.9908 C 178.0992 200.6275 177.6803 200.4459 177.1882 200.4459 C 176.6623 200.4459 176.2273 200.6378 175.8846 201.0201 C 175.5404 201.4038 175.372 201.9252 175.3778 202.5829 L 178.9824 202.5829 Z " style="fill:#fff;fill-rule:nonzero;" stroke-width="1.46467"/>
      <path d="M 196.5159 207.9201 L 194.1036 207.9201 L 194.1036 203.2698 C 194.1036 202.2855 194.0524 201.6484 193.9498 201.3599 C 193.8459 201.0713 193.6789 200.8458 193.4475 200.6861 C 193.216 200.5265 192.9363 200.4459 192.6111 200.4459 C 192.1937 200.4459 191.8188 200.5601 191.4863 200.7886 C 191.1553 201.0186 190.9268 201.3218 190.8037 201.6982 C 190.6807 202.0761 190.6192 202.7747 190.6192 203.7927 L 190.6192 207.9201 L 188.2083 207.9201 L 188.2083 198.8069 L 190.4478 198.8069 L 190.4478 200.1456 C 191.2431 199.116 192.245 198.6004 193.4519 198.6004 C 193.9835 198.6004 194.4698 198.6971 194.9107 198.8875 C 195.3515 199.0794 195.684 199.324 195.911 199.6213 C 196.1366 199.9201 196.2933 200.257 196.3827 200.6348 C 196.4705 201.0127 196.5159 201.5532 196.5159 202.2562 L 196.5159 207.9201 Z " style="fill:#fff;fill-rule:nonzero;" stroke-width="1.46467"/>
      <path d="M 198.4039 203.2346 C 198.4039 202.4335 198.6016 201.6586 198.9956 200.9087 C 199.3911 200.1603 199.9491 199.5876 200.6741 199.1921 C 201.3977 198.7981 202.2062 198.6004 203.0982 198.6004 C 204.4764 198.6004 205.6072 199.0486 206.4874 199.9435 C 207.3692 200.8384 207.81 201.9706 207.81 203.3386 C 207.81 204.7169 207.3648 205.8593 206.4757 206.766 C 205.5852 207.6726 204.4647 208.1266 203.1158 208.1266 C 202.2794 208.1266 201.4826 207.9377 200.7254 207.5598 C 199.9667 207.1834 199.3911 206.6297 198.9956 205.9003 C 198.6016 205.1709 198.4039 204.2819 198.4039 203.2346 Z M 200.8748 203.3635 C 200.8748 204.2672 201.0901 204.96 201.5193 205.4404 C 201.9484 205.9208 202.4772 206.161 203.107 206.161 C 203.7353 206.161 204.2641 205.9208 204.6903 205.4404 C 205.1165 204.96 205.3289 204.2614 205.3289 203.3459 C 205.3289 202.454 205.1165 201.767 204.6903 201.2866 C 204.2641 200.8062 203.7353 200.566 203.107 200.566 C 202.4772 200.566 201.9484 200.8062 201.5193 201.2866 C 201.0901 201.767 200.8748 202.4598 200.8748 203.3635 Z " style="fill:#fff;fill-rule:nonzero;" stroke-width="1.46467"/>
      <path d="M 213.8767 198.8069 L 213.8767 200.7286 L 212.2289 200.7286 L 212.2289 204.402 C 212.2289 205.146 212.245 205.5796 212.2758 205.7026 C 212.308 205.8256 212.3798 205.9267 212.4911 206.0073 C 212.6024 206.0863 212.7386 206.1274 212.8983 206.1274 C 213.1224 206.1274 213.4446 206.0497 213.8679 205.8959 L 214.0744 207.7663 C 213.5134 208.0065 212.8792 208.1266 212.1689 208.1266 C 211.7339 208.1266 211.3428 208.0534 210.9942 207.9084 C 210.6442 207.7619 210.3878 207.573 210.2253 207.3416 C 210.0627 207.1102 209.9499 206.7967 209.8869 206.4013 C 209.8357 206.1215 209.8093 205.5547 209.8093 204.7022 L 209.8093 200.7286 L 208.702 200.7286 L 208.702 198.8069 L 209.8093 198.8069 L 209.8093 196.9951 L 212.2289 195.5891 L 212.2289 198.8069 L 213.8767 198.8069 Z " style="fill:#fff;fill-rule:nonzero;" stroke-width="1.46467"/>
      <path d="M 228.3813 201.5019 L 226.0042 201.9311 C 225.9236 201.4551 225.742 201.0977 225.4578 200.8575 C 225.1751 200.6173 224.8075 200.4972 224.3564 200.4972 C 223.7544 200.4972 223.2755 200.7051 222.9181 201.1197 C 222.5607 201.5342 222.382 202.2284 222.382 203.2009 C 222.382 204.2819 222.5636 205.0464 222.9269 205.4917 C 223.2901 205.9384 223.7779 206.161 224.3901 206.161 C 224.8485 206.161 225.222 206.0307 225.515 205.7714 C 225.8064 205.5107 226.0115 205.0625 226.1316 204.4283 L 228.5014 204.8311 C 228.2553 205.9179 227.7823 206.7396 227.0851 207.2947 C 226.3864 207.8498 225.452 208.1266 224.2788 208.1266 C 222.9459 208.1266 221.8826 207.7063 221.0902 206.8656 C 220.2978 206.0248 219.9023 204.8604 219.9023 203.3723 C 219.9023 201.8681 220.2993 200.6964 221.0946 199.8586 C 221.8899 199.0193 222.965 198.6004 224.3212 198.6004 C 225.4315 198.6004 226.3132 198.8392 226.9694 199.3166 C 227.6241 199.7956 228.0942 200.5235 228.3813 201.5019 Z " style="fill:#fff;fill-rule:nonzero;" stroke-width="1.46467"/>
      <path d="M 229.6512 203.2346 C 229.6512 202.4335 229.8489 201.6586 230.2429 200.9087 C 230.6384 200.1603 231.1964 199.5876 231.9214 199.1921 C 232.645 198.7981 233.4535 198.6004 234.3454 198.6004 C 235.7237 198.6004 236.8544 199.0486 237.7347 199.9435 C 238.6164 200.8384 239.0573 201.9706 239.0573 203.3386 C 239.0573 204.7169 238.612 205.8593 237.723 206.766 C 236.8325 207.6726 235.712 208.1266 234.363 208.1266 C 233.5267 208.1266 232.7299 207.9377 231.9727 207.5598 C 231.214 207.1834 230.6384 206.6297 230.2429 205.9003 C 229.8489 205.1709 229.6512 204.2819 229.6512 203.2346 Z M 232.1221 203.3635 C 232.1221 204.2672 232.3374 204.96 232.7665 205.4404 C 233.1957 205.9208 233.7244 206.161 234.3542 206.161 C 234.9826 206.161 235.5113 205.9208 235.9375 205.4404 C 236.3638 204.96 236.5761 204.2614 236.5761 203.3459 C 236.5761 202.454 236.3638 201.767 235.9375 201.2866 C 235.5113 200.8062 234.9826 200.566 234.3542 200.566 C 233.7244 200.566 233.1957 200.8062 232.7665 201.2866 C 232.3374 201.767 232.1221 202.4598 232.1221 203.3635 Z " style="fill:#fff;fill-rule:nonzero;" stroke-width="1.46467"/>
      <path d="M 249.2353 207.9201 L 246.823 207.9201 L 246.823 203.2698 C 246.823 202.2855 246.7717 201.6484 246.6692 201.3599 C 246.5667 201.0713 246.3982 200.8458 246.1668 200.6861 C 245.9354 200.5265 245.6571 200.4459 245.3305 200.4459 C 244.913 200.4459 244.5381 200.5601 244.2056 200.7886 C 243.8746 201.0186 243.6461 201.3218 243.5231 201.6982 C 243.4 202.0761 243.34 202.7747 243.34 203.7927 L 243.34 207.9201 L 240.9277 207.9201 L 240.9277 198.8069 L 243.1672 198.8069 L 243.1672 200.1456 C 243.9625 199.116 244.9643 198.6004 246.1712 198.6004 C 246.7029 198.6004 247.1891 198.6971 247.63 198.8875 C 248.0709 199.0794 248.4048 199.324 248.6304 199.6213 C 248.8559 199.9201 249.0141 200.257 249.102 200.6348 C 249.1913 201.0127 249.2353 201.5532 249.2353 202.2562 L 249.2353 207.9201 Z " style="fill:#fff;fill-rule:nonzero;" stroke-width="1.46467"/>
      <path d="M 259.9713 207.9201 L 257.559 207.9201 L 257.559 203.2698 C 257.559 202.2855 257.5077 201.6484 257.4052 201.3599 C 257.3027 201.0713 257.1342 200.8458 256.9028 200.6861 C 256.6714 200.5265 256.3931 200.4459 256.0665 200.4459 C 255.6491 200.4459 255.2741 200.5601 254.9416 200.7886 C 254.6106 201.0186 254.3836 201.3218 254.2606 201.6982 C 254.1375 202.0761 254.076 202.7747 254.076 203.7927 L 254.076 207.9201 L 251.6637 207.9201 L 251.6637 198.8069 L 253.9032 198.8069 L 253.9032 200.1456 C 254.6985 199.116 255.7003 198.6004 256.9072 198.6004 C 257.4389 198.6004 257.9252 198.6971 258.366 198.8875 C 258.8069 199.0794 259.1408 199.324 259.3664 199.6213 C 259.592 199.9201 259.7501 200.257 259.838 200.6348 C 259.9274 201.0127 259.9713 201.5532 259.9713 202.2562 L 259.9713 207.9201 Z " style="fill:#fff;fill-rule:nonzero;" stroke-width="1.46467"/>
      <path d="M 267.6945 205.0201 L 270.098 205.4229 C 269.789 206.3046 269.3013 206.9754 268.6348 207.4353 C 267.9684 207.8967 267.135 208.1266 266.1332 208.1266 C 264.5484 208.1266 263.3752 207.6096 262.615 206.5741 C 262.0145 205.7436 261.7128 204.6964 261.7128 203.4324 C 261.7128 201.9223 262.1083 200.7388 262.8977 199.8835 C 263.6872 199.0281 264.6861 198.6004 265.893 198.6004 C 267.2493 198.6004 268.3185 199.0486 269.1021 199.9435 C 269.8871 200.8384 270.2606 202.2108 270.2269 204.0592 L 264.1852 204.0592 C 264.2027 204.774 264.3961 205.3306 264.7681 205.7275 C 265.1401 206.1259 265.6044 206.3251 266.1595 206.3251 C 266.536 206.3251 266.8538 206.2211 267.1116 206.016 C 267.3694 205.8095 267.5642 205.477 267.6945 205.0201 Z M 267.8322 202.5829 C 267.8146 201.8842 267.6345 201.354 267.2917 200.9908 C 266.949 200.6275 266.5301 200.4459 266.0394 200.4459 C 265.5122 200.4459 265.0772 200.6378 264.7344 201.0201 C 264.3917 201.4038 264.2218 201.9252 264.2276 202.5829 L 267.8322 202.5829 Z " style="fill:#fff;fill-rule:nonzero;" stroke-width="1.46467"/>
      <path d="M 280.1398 201.5019 L 277.7612 201.9311 C 277.6821 201.4551 277.5005 201.0977 277.2163 200.8575 C 276.9337 200.6173 276.566 200.4972 276.1134 200.4972 C 275.5129 200.4972 275.034 200.7051 274.6766 201.1197 C 274.3192 201.5342 274.1405 202.2284 274.1405 203.2009 C 274.1405 204.2819 274.3221 205.0464 274.6854 205.4917 C 275.0486 205.9384 275.5364 206.161 276.1486 206.161 C 276.6056 206.161 276.9805 206.0307 277.272 205.7714 C 277.5649 205.5107 277.77 205.0625 277.8901 204.4283 L 280.2599 204.8311 C 280.0139 205.9179 279.5408 206.7396 278.8436 207.2947 C 278.1449 207.8498 277.2105 208.1266 276.0373 208.1266 C 274.7044 208.1266 273.6411 207.7063 272.8487 206.8656 C 272.0563 206.0248 271.6594 204.8604 271.6594 203.3723 C 271.6594 201.8681 272.0578 200.6964 272.8531 199.8586 C 273.6484 199.0193 274.7235 198.6004 276.0798 198.6004 C 277.19 198.6004 278.0717 198.8392 278.7279 199.3166 C 279.3826 199.7956 279.8527 200.5235 280.1398 201.5019 Z " style="fill:#fff;fill-rule:nonzero;" stroke-width="1.46467"/>
      <path d="M 286.1464 198.8069 L 286.1464 200.7286 L 284.4987 200.7286 L 284.4987 204.402 C 284.4987 205.146 284.5148 205.5796 284.5455 205.7026 C 284.5778 205.8256 284.6495 205.9267 284.7609 206.0073 C 284.8722 206.0863 285.0084 206.1274 285.168 206.1274 C 285.3907 206.1274 285.7144 206.0497 286.1376 205.8959 L 286.3442 207.7663 C 285.7832 208.0065 285.1475 208.1266 284.4386 208.1266 C 284.0036 208.1266 283.6126 208.0534 283.2625 207.9084 C 282.9139 207.7619 282.6576 207.573 282.495 207.3416 C 282.3324 207.1102 282.2182 206.7967 282.1552 206.4013 C 282.1039 206.1215 282.079 205.5547 282.079 204.7022 L 282.079 200.7286 L 280.9718 200.7286 L 280.9718 198.8069 L 282.079 198.8069 L 282.079 196.9951 L 284.4987 195.5891 L 284.4987 198.8069 L 286.1464 198.8069 Z " style="fill:#fff;fill-rule:nonzero;" stroke-width="1.46467"/>
      <path d="M 293.0978 205.0201 L 295.5013 205.4229 C 295.1922 206.3046 294.7045 206.9754 294.0381 207.4353 C 293.3716 207.8967 292.5368 208.1266 291.5364 208.1266 C 289.9516 208.1266 288.7784 207.6096 288.0168 206.5741 C 287.4163 205.7436 287.116 204.6964 287.116 203.4324 C 287.116 201.9223 287.5115 200.7388 288.301 199.8835 C 289.0904 199.0281 290.0879 198.6004 291.2962 198.6004 C 292.651 198.6004 293.7217 199.0486 294.5053 199.9435 C 295.2889 200.8384 295.6639 202.2108 295.6302 204.0592 L 289.5884 204.0592 C 289.6045 204.774 289.7993 205.3306 290.1713 205.7275 C 290.5434 206.1259 291.0062 206.3251 291.5613 206.3251 C 291.9392 206.3251 292.257 206.2211 292.5148 206.016 C 292.7726 205.8095 292.9659 205.477 293.0978 205.0201 Z M 293.2354 202.5829 C 293.2179 201.8842 293.0377 201.354 292.695 200.9908 C 292.3508 200.6275 291.9333 200.4459 291.4412 200.4459 C 290.9154 200.4459 290.4804 200.6378 290.1377 201.0201 C 289.7935 201.4038 289.625 201.9252 289.6309 202.5829 L 293.2354 202.5829 Z " style="fill:#fff;fill-rule:nonzero;" stroke-width="1.46467"/>
      <path d="M 305.9546 207.9201 L 303.7137 207.9201 L 303.7137 206.5814 C 303.3417 207.1028 302.9023 207.4895 302.3969 207.7444 C 301.8902 207.9992 301.379 208.1266 300.8649 208.1266 C 299.8177 208.1266 298.9213 207.7048 298.1743 206.8612 C 297.4273 206.0175 297.0538 204.8399 297.0538 203.3298 C 297.0538 201.7846 297.4171 200.6099 298.1435 199.8058 C 298.8715 199.0032 299.7898 198.6004 300.8986 198.6004 C 301.918 198.6004 302.7983 199.0237 303.5423 199.8703 L 303.5423 195.3401 L 305.9546 195.3401 L 305.9546 207.9201 Z M 299.5174 203.1658 C 299.5174 204.1383 299.6522 204.8428 299.9202 205.2778 C 300.3098 205.9062 300.8532 206.2211 301.5518 206.2211 C 302.1069 206.2211 302.5786 205.9853 302.9667 205.5137 C 303.3563 205.042 303.5511 204.3361 303.5511 203.3987 C 303.5511 202.3514 303.3622 201.5971 302.9843 201.1372 C 302.6064 200.6759 302.1231 200.4459 301.5343 200.4459 C 300.9616 200.4459 300.4826 200.6729 300.0959 201.1284 C 299.7107 201.5825 299.5174 202.2621 299.5174 203.1658 Z " style="fill:#fff;fill-rule:nonzero;" stroke-width="1.46467"/>
      <path d="M 317.3937 198.8069 L 317.3937 200.7286 L 315.7459 200.7286 L 315.7459 204.402 C 315.7459 205.146 315.7621 205.5796 315.7928 205.7026 C 315.825 205.8256 315.8968 205.9267 316.0081 206.0073 C 316.1194 206.0863 316.2557 206.1274 316.4153 206.1274 C 316.6379 206.1274 316.9616 206.0497 317.3849 205.8959 L 317.5914 207.7663 C 317.0305 208.0065 316.3948 208.1266 315.6859 208.1266 C 315.2509 208.1266 314.8598 208.0534 314.5098 207.9084 C 314.1612 207.7619 313.9049 207.573 313.7423 207.3416 C 313.5797 207.1102 313.4655 206.7967 313.4025 206.4013 C 313.3512 206.1215 313.3263 205.5547 313.3263 204.7022 L 313.3263 200.7286 L 312.219 200.7286 L 312.219 198.8069 L 313.3263 198.8069 L 313.3263 196.9951 L 315.7459 195.5891 L 315.7459 198.8069 L 317.3937 198.8069 Z " style="fill:#fff;fill-rule:nonzero;" stroke-width="1.46467"/>
      <path d="M 318.5098 203.2346 C 318.5098 202.4335 318.7075 201.6586 319.1015 200.9087 C 319.497 200.1603 320.055 199.5876 320.78 199.1921 C 321.5036 198.7981 322.3106 198.6004 323.204 198.6004 C 324.5823 198.6004 325.713 199.0486 326.5933 199.9435 C 327.475 200.8384 327.9159 201.9706 327.9159 203.3386 C 327.9159 204.7169 327.4706 205.8593 326.5816 206.766 C 325.6911 207.6726 324.5706 208.1266 323.2216 208.1266 C 322.3853 208.1266 321.5885 207.9377 320.8313 207.5598 C 320.0726 207.1834 319.497 206.6297 319.1015 205.9003 C 318.7075 205.1709 318.5098 204.2819 318.5098 203.2346 Z M 320.9807 203.3635 C 320.9807 204.2672 321.196 204.96 321.6251 205.4404 C 322.0543 205.9208 322.583 206.161 323.2128 206.161 C 323.8412 206.161 324.3699 205.9208 324.7961 205.4404 C 325.2224 204.96 325.4347 204.2614 325.4347 203.3459 C 325.4347 202.454 325.2224 201.767 324.7961 201.2866 C 324.3699 200.8062 323.8412 200.566 323.2128 200.566 C 322.583 200.566 322.0543 200.8062 321.6251 201.2866 C 321.196 201.767 320.9807 202.4598 320.9807 203.3635 Z " style="fill:#fff;fill-rule:nonzero;" stroke-width="1.46467"/>
      <path d="M 338.8658 198.8069 L 338.8658 200.7286 L 337.218 200.7286 L 337.218 204.402 C 337.218 205.146 337.2341 205.5796 337.2649 205.7026 C 337.2971 205.8256 337.3689 205.9267 337.4802 206.0073 C 337.5915 206.0863 337.7277 206.1274 337.8874 206.1274 C 338.1115 206.1274 338.4337 206.0497 338.857 205.8959 L 339.0635 207.7663 C 338.5025 208.0065 337.8683 208.1266 337.158 208.1266 C 336.7229 208.1266 336.3319 208.0534 335.9818 207.9084 C 335.6332 207.7619 335.3769 207.573 335.2143 207.3416 C 335.0518 207.1102 334.939 206.7967 334.876 206.4013 C 334.8233 206.1215 334.7984 205.5547 334.7984 204.7022 L 334.7984 200.7286 L 333.6911 200.7286 L 333.6911 198.8069 L 334.7984 198.8069 L 334.7984 196.9951 L 337.218 195.5891 L 337.218 198.8069 L 338.8658 198.8069 Z " style="fill:#fff;fill-rule:nonzero;" stroke-width="1.46467"/>
      <path d="M 342.9419 195.3401 L 342.9419 199.9655 C 343.7211 199.0559 344.6497 198.6004 345.7321 198.6004 C 346.2872 198.6004 346.7867 198.7029 347.2334 198.9095 C 347.6801 199.116 348.0156 199.3782 348.2426 199.6989 C 348.4681 200.0197 348.6219 200.3741 348.7054 200.7637 C 348.7889 201.1519 348.8299 201.7553 348.8299 202.5741 L 348.8299 207.9201 L 346.4176 207.9201 L 346.4176 203.1057 C 346.4176 202.1508 346.3722 201.5444 346.2814 201.2866 C 346.1891 201.0288 346.028 200.8253 345.7966 200.6729 C 345.5637 200.5221 345.2737 200.4459 344.9251 200.4459 C 344.5238 200.4459 344.1664 200.5426 343.853 200.7374 C 343.5381 200.9322 343.3066 201.2251 343.1616 201.6176 C 343.0152 202.0087 342.9419 202.5887 342.9419 203.3547 L 342.9419 207.9201 L 340.5311 207.9201 L 340.5311 195.3401 L 342.9419 195.3401 Z " style="fill:#fff;fill-rule:nonzero;" stroke-width="1.46467"/>
      <path d="M 356.5531 205.0201 L 358.9566 205.4229 C 358.6476 206.3046 358.1599 206.9754 357.4934 207.4353 C 356.827 207.8967 355.9936 208.1266 354.9918 208.1266 C 353.407 208.1266 352.2338 207.6096 351.4736 206.5741 C 350.8717 205.7436 350.5714 204.6964 350.5714 203.4324 C 350.5714 201.9223 350.9669 200.7388 351.7563 199.8835 C 352.5458 199.0281 353.5447 198.6004 354.7516 198.6004 C 356.1079 198.6004 357.1771 199.0486 357.9607 199.9435 C 358.7443 200.8384 359.1192 202.2108 359.0855 204.0592 L 353.0438 204.0592 C 353.0613 204.774 353.2547 205.3306 353.6267 205.7275 C 353.9987 206.1259 354.463 206.3251 355.0181 206.3251 C 355.3946 206.3251 355.7124 206.2211 355.9702 206.016 C 356.228 205.8095 356.4228 205.477 356.5531 205.0201 Z M 356.6908 202.5829 C 356.6732 201.8842 356.4931 201.354 356.1503 200.9908 C 355.8076 200.6275 355.3887 200.4459 354.898 200.4459 C 354.3708 200.4459 353.9358 200.6378 353.593 201.0201 C 353.2503 201.4038 353.0804 201.9252 353.0862 202.5829 L 356.6908 202.5829 Z " style="fill:#fff;fill-rule:nonzero;" stroke-width="1.46467"/>
      <path d="M 373.8802 201.5019 L 371.503 201.9311 C 371.4239 201.4551 371.2423 201.0977 370.9581 200.8575 C 370.6755 200.6173 370.3078 200.4972 369.8552 200.4972 C 369.2547 200.4972 368.7758 200.7051 368.4184 201.1197 C 368.061 201.5342 367.8823 202.2284 367.8823 203.2009 C 367.8823 204.2819 368.064 205.0464 368.4272 205.4917 C 368.7904 205.9384 369.2782 206.161 369.8904 206.161 C 370.3474 206.161 370.7223 206.0307 371.0138 205.7714 C 371.3067 205.5107 371.5118 205.0625 371.6319 204.4283 L 374.0003 204.8311 C 373.7557 205.9179 373.2826 206.7396 372.5854 207.2947 C 371.8867 207.8498 370.9508 208.1266 369.7791 208.1266 C 368.4462 208.1266 367.3829 207.7063 366.5905 206.8656 C 365.7981 206.0248 365.4012 204.8604 365.4012 203.3723 C 365.4012 201.8681 365.7996 200.6964 366.5949 199.8586 C 367.3902 199.0193 368.4653 198.6004 369.8216 198.6004 C 370.9318 198.6004 371.8135 198.8392 372.4697 199.3166 C 373.1244 199.7956 373.5946 200.5235 373.8802 201.5019 Z " style="fill:#fff;fill-rule:nonzero;" stroke-width="1.46467"/>
      <rect x="383.271" y="233.157" width="1.646" height="8.59" style="fill:#fff;fill-rule:nonzero;" stroke-width="1" transform="matrix(1.46467,0,0,1.46467,-185.656,-146.158)"/>
      <path d="M 380.0347 203.2346 C 380.0347 202.4335 380.231 201.6586 380.6264 200.9087 C 381.0204 200.1603 381.5799 199.5876 382.3035 199.1921 C 383.0285 198.7981 383.8355 198.6004 384.729 198.6004 C 386.1072 198.6004 387.238 199.0486 388.1182 199.9435 C 389 200.8384 389.4408 201.9706 389.4408 203.3386 C 389.4408 204.7169 388.9956 205.8593 388.105 206.766 C 387.216 207.6726 386.0955 208.1266 384.7451 208.1266 C 383.9102 208.1266 383.1134 207.9377 382.3562 207.5598 C 381.5975 207.1834 381.0204 206.6297 380.6264 205.9003 C 380.231 205.1709 380.0347 204.2819 380.0347 203.2346 Z M 382.5056 203.3635 C 382.5056 204.2672 382.7209 204.96 383.1501 205.4404 C 383.5792 205.9208 384.108 206.161 384.7378 206.161 C 385.3661 206.161 385.8949 205.9208 386.3211 205.4404 C 386.7473 204.96 386.9597 204.2614 386.9597 203.3459 C 386.9597 202.454 386.7473 201.767 386.3211 201.2866 C 385.8949 200.8062 385.3661 200.566 384.7378 200.566 C 384.108 200.566 383.5792 200.8062 383.1501 201.2866 C 382.7209 201.767 382.5056 202.4598 382.5056 203.3635 Z " style="fill:#fff;fill-rule:nonzero;" stroke-width="1.46467"/>
      <path d="M 397.3266 207.9201 L 397.3266 206.5565 C 396.9956 207.0428 396.5591 207.4265 396.0186 207.7063 C 395.4782 207.986 394.907 208.1266 394.3065 208.1266 C 393.6942 208.1266 393.145 207.9919 392.6587 207.7238 C 392.1724 207.4543 391.8209 207.0765 391.6027 206.5902 C 391.3859 206.1039 391.276 205.4316 391.276 204.5733 L 391.276 198.8069 L 393.6884 198.8069 L 393.6884 202.9944 C 393.6884 204.276 393.7323 205.0611 393.8216 205.3511 C 393.9095 205.6396 394.0721 205.8681 394.3065 206.0365 C 394.5408 206.2064 394.8381 206.2899 395.1984 206.2899 C 395.61 206.2899 395.9791 206.1772 396.3057 205.9516 C 396.6323 205.7246 396.855 205.4448 396.9751 205.1094 C 397.0952 204.7755 397.1552 203.9553 397.1552 202.6517 L 397.1552 198.8069 L 399.5675 198.8069 L 399.5675 207.9201 L 397.3266 207.9201 Z " style="fill:#fff;fill-rule:nonzero;" stroke-width="1.46467"/>
      <path d="M 410.4237 207.9201 L 408.1827 207.9201 L 408.1827 206.5814 C 407.8107 207.1028 407.3728 207.4895 406.866 207.7444 C 406.3592 207.9992 405.8495 208.1266 405.334 208.1266 C 404.2867 208.1266 403.3903 207.7048 402.6434 206.8612 C 401.8964 206.0175 401.5243 204.8399 401.5243 203.3298 C 401.5243 201.7846 401.8876 200.6099 402.6141 199.8058 C 403.3405 199.0032 404.2589 198.6004 405.3691 198.6004 C 406.387 198.6004 407.2673 199.0237 408.0114 199.8703 L 408.0114 195.3401 L 410.4237 195.3401 L 410.4237 207.9201 Z M 403.9865 203.1658 C 403.9865 204.1383 404.1212 204.8428 404.3907 205.2778 C 404.7788 205.9062 405.3222 206.2211 406.0209 206.2211 C 406.576 206.2211 407.0476 205.9853 407.4372 205.5137 C 407.8254 205.042 408.0202 204.3361 408.0202 203.3987 C 408.0202 202.3514 407.8312 201.5971 407.4533 201.1372 C 407.0769 200.6759 406.5921 200.4459 406.0033 200.4459 C 405.4306 200.4459 404.9517 200.6729 404.5665 201.1284 C 404.1798 201.5825 403.9865 202.2621 403.9865 203.1658 Z " style="fill:#fff;fill-rule:nonzero;" stroke-width="1.46467"/>
      <rect x="408.595" y="240.1" width="1.646" height="1.646" style="fill:#fff;fill-rule:nonzero;" stroke-width="1" transform="matrix(1.46467,0,0,1.46467,-185.656,-146.158)"/>
      <path d="M 82.3244 241.5621 L 82.3244 230.8246 L 87.0861 230.8246 C 88.0425 230.8246 88.7704 230.9213 89.2684 231.1146 C 89.7664 231.308 90.1633 231.6478 90.4621 232.137 C 90.7595 232.6247 90.9088 233.1637 90.9088 233.7554 C 90.9088 234.5171 90.6628 235.1586 90.1692 235.6815 C 89.6756 236.2044 88.914 236.5354 87.8843 236.6774 C 88.2593 236.8576 88.5449 237.0363 88.7411 237.212 C 89.1556 237.5929 89.5482 238.0689 89.9202 238.6401 L 91.7877 241.5621 L 90.0008 241.5621 L 88.58 239.3285 C 88.1641 238.684 87.8228 238.1904 87.5548 237.8492 C 87.2853 237.5079 87.045 237.2677 86.8327 237.1315 C 86.6203 236.9953 86.405 236.9001 86.1838 236.8459 C 86.0227 236.8122 85.7591 236.7946 85.3929 236.7946 L 83.7451 236.7946 L 83.7451 241.5621 L 82.3244 241.5621 Z M 83.7451 235.5643 L 86.8004 235.5643 C 87.4493 235.5643 87.9575 235.4969 88.3237 235.3622 C 88.6899 235.2289 88.9682 235.0136 89.1586 234.7177 C 89.349 234.4233 89.4442 234.1011 89.4442 233.7554 C 89.4442 233.2472 89.2596 232.8298 88.8905 232.5031 C 88.5229 232.175 87.94 232.0125 87.1446 232.0125 L 83.7451 232.0125 L 83.7451 235.5643 Z " style="fill:#fff;fill-rule:nonzero;" stroke-width="1.46467"/>
      <path d="M 98.2908 239.0575 L 99.6544 239.226 C 99.4391 240.0228 99.0407 240.6394 98.4592 241.0788 C 97.8792 241.5182 97.1366 241.7379 96.2329 241.7379 C 95.0963 241.7379 94.1941 241.3878 93.5277 240.6877 C 92.8613 239.9861 92.5273 239.0033 92.5273 237.7393 C 92.5273 236.4314 92.8642 235.4149 93.5379 234.6928 C 94.2117 233.9693 95.0861 233.609 96.1597 233.609 C 97.1996 233.609 98.0491 233.9619 98.7097 234.6708 C 99.3688 235.3783 99.6983 236.3743 99.6983 237.6588 C 99.6983 237.7364 99.6954 237.8536 99.691 238.0103 L 93.8895 238.0103 C 93.9378 238.8642 94.1795 239.5189 94.6145 239.973 C 95.0495 240.427 95.5914 240.654 96.2402 240.654 C 96.7236 240.654 97.1366 240.5281 97.4779 240.2732 C 97.8206 240.0198 98.0916 239.6141 98.2908 239.0575 Z M 93.9627 236.9264 L 98.3054 236.9264 C 98.2468 236.2717 98.0813 235.7811 97.8074 235.4544 C 97.3885 234.9462 96.8437 234.6928 96.1743 234.6928 C 95.5694 234.6928 95.0597 234.8949 94.6482 235.3007 C 94.2351 235.7049 94.0066 236.2483 93.9627 236.9264 Z " style="fill:#fff;fill-rule:nonzero;" stroke-width="1.46467"/>
      <rect x="195.905" y="257.384" width="0.9" height="7.331" style="fill:#fff;fill-rule:nonzero;" stroke-width="1" transform="matrix(1.46467,0,0,1.46467,-185.656,-146.158)"/>
      <path d="M 104.1509 237.6734 C 104.1509 236.2336 104.5508 235.1659 105.352 234.4731 C 106.0213 233.896 106.8371 233.609 107.798 233.609 C 108.8672 233.609 109.7416 233.959 110.4197 234.6591 C 111.0993 235.3607 111.4391 236.3289 111.4391 237.5636 C 111.4391 238.5639 111.2883 239.3519 110.988 239.9261 C 110.6878 240.4988 110.2513 240.9455 109.6771 241.2619 C 109.103 241.5797 108.4776 241.7379 107.798 241.7379 C 106.7097 241.7379 105.8294 241.3893 105.1586 240.6906 C 104.4863 239.992 104.1509 238.9872 104.1509 237.6734 Z M 105.5057 237.6734 C 105.5057 238.6694 105.7225 239.4149 106.1575 239.9114 C 106.5925 240.4065 107.1389 240.654 107.798 240.654 C 108.4527 240.654 108.9975 240.405 109.4311 239.907 C 109.8661 239.4091 110.0828 238.6504 110.0828 237.6295 C 110.0828 236.6672 109.8646 235.9393 109.4281 235.4427 C 108.9917 234.9477 108.4483 234.7001 107.798 234.7001 C 107.1389 234.7001 106.5925 234.9462 106.1575 235.4398 C 105.7225 235.9319 105.5057 236.6774 105.5057 237.6734 Z " style="fill:#fff;fill-rule:nonzero;" stroke-width="1.46467"/>
      <path d="M 118.0594 240.6028 C 117.5717 241.0187 117.1015 241.3117 116.6504 241.4816 C 116.1978 241.6529 115.713 241.7379 115.196 241.7379 C 114.3406 241.7379 113.6845 241.5299 113.226 241.1125 C 112.7661 240.695 112.5376 240.1619 112.5376 239.5116 C 112.5376 239.1308 112.624 238.7836 112.7969 238.4687 C 112.9712 238.1538 113.1982 237.9004 113.4779 237.71 C 113.7592 237.5196 114.0755 237.3761 114.4271 237.278 C 114.6863 237.2091 115.0759 237.1432 115.5988 237.0802 C 116.6636 236.9528 117.4472 236.8019 117.9496 236.6262 C 117.954 236.446 117.9569 236.3303 117.9569 236.282 C 117.9569 235.7444 117.8324 235.3666 117.5834 235.1469 C 117.2465 234.8481 116.7456 234.7001 116.0821 234.7001 C 115.4626 234.7001 115.0041 234.8085 114.7083 235.0253 C 114.4139 235.2435 114.1942 235.6273 114.0536 236.1795 L 112.7647 236.0037 C 112.8818 235.4515 113.0737 235.0063 113.3432 234.6665 C 113.6112 234.3281 113.9994 234.0659 114.5076 233.8829 C 115.0159 233.6998 115.6032 233.609 116.2725 233.609 C 116.936 233.609 117.4765 233.6866 117.891 233.8433 C 118.3055 233.9986 118.6116 234.1963 118.8064 234.4321 C 119.0027 234.6694 119.1389 234.9682 119.2165 235.3299 C 119.2605 235.554 119.2824 235.9598 119.2824 236.5456 L 119.2824 238.3032 C 119.2824 239.5292 119.3103 240.304 119.3674 240.6291 C 119.423 240.9528 119.5344 241.2648 119.6999 241.5621 L 118.3231 241.5621 C 118.1869 241.2897 118.099 240.9689 118.0594 240.6028 Z M 117.9496 237.6588 C 117.4706 237.8536 116.753 238.0205 115.7965 238.1568 C 115.2546 238.2344 114.8708 238.3223 114.6468 238.4204 C 114.4212 238.5185 114.2484 238.6606 114.1268 238.8496 C 114.0038 239.037 113.9437 239.245 113.9437 239.475 C 113.9437 239.8265 114.077 240.1194 114.3421 240.3538 C 114.6087 240.5881 114.9983 240.7053 115.5109 240.7053 C 116.0192 240.7053 116.4703 240.594 116.8657 240.3728 C 117.2612 240.1502 117.5512 239.8455 117.7372 239.4603 C 117.8793 239.163 117.9496 238.7236 117.9496 238.1421 L 117.9496 237.6588 Z " style="fill:#fff;fill-rule:nonzero;" stroke-width="1.46467"/>
      <path d="M 126.3729 241.5621 L 126.3729 240.5808 C 125.8793 241.3527 125.1543 241.7379 124.1979 241.7379 C 123.5768 241.7379 123.0071 241.568 122.4871 241.2252 C 121.9672 240.884 121.5644 240.4065 121.2788 239.7943 C 120.9932 239.1806 120.8496 238.4761 120.8496 237.6807 C 120.8496 236.9045 120.98 236.2 121.2378 235.5672 C 121.497 234.936 121.8852 234.4511 122.4022 234.1143 C 122.9207 233.7774 123.4992 233.609 124.1393 233.609 C 124.608 233.609 125.0254 233.7071 125.3916 233.9048 C 125.7577 234.1026 126.0551 234.3603 126.285 234.6782 L 126.285 230.8246 L 127.5959 230.8246 L 127.5959 241.5621 L 126.3729 241.5621 Z M 122.2045 237.6807 C 122.2045 238.6767 122.4154 239.4208 122.8357 239.9144 C 123.2546 240.408 123.7511 240.654 124.3224 240.654 C 124.898 240.654 125.3872 240.4182 125.79 239.9481 C 126.1927 239.4764 126.3949 238.7573 126.3949 237.7906 C 126.3949 236.7258 126.1898 235.9451 125.7797 235.4471 C 125.3696 234.9491 124.8643 234.7001 124.2638 234.7001 C 123.6779 234.7001 123.1872 234.9389 122.7947 235.4178 C 122.4022 235.8953 122.2045 236.6511 122.2045 237.6807 Z " style="fill:#fff;fill-rule:nonzero;" stroke-width="1.46467"/>
      <path d="M 133.8354 244.5442 L 133.8354 233.7847 L 135.0379 233.7847 L 135.0379 234.7953 C 135.3206 234.3999 135.6399 234.1026 135.9972 233.9048 C 136.3532 233.7071 136.7852 233.609 137.2935 233.609 C 137.957 233.609 138.5428 233.7789 139.0511 234.1216 C 139.5593 234.4629 139.9416 234.9447 140.2009 235.5672 C 140.4601 236.1897 140.589 236.8722 140.589 237.6148 C 140.589 238.4101 140.4455 239.1278 140.1598 239.765 C 139.8742 240.4021 139.4597 240.8898 138.9149 241.2296 C 138.3715 241.568 137.7988 241.7379 137.1983 241.7379 C 136.7589 241.7379 136.3634 241.6456 136.0148 241.4596 C 135.6662 241.275 135.3792 241.0407 135.1551 240.7566 L 135.1551 244.5442 L 133.8354 244.5442 Z M 135.0306 237.7174 C 135.0306 238.7177 135.2327 239.4574 135.6384 239.9363 C 136.0427 240.4153 136.5333 240.654 137.1104 240.654 C 137.6963 240.654 138.1972 240.4065 138.6146 239.9114 C 139.032 239.4149 139.2415 238.6474 139.2415 237.6075 C 139.2415 236.6159 139.0379 235.8733 138.6293 235.3812 C 138.2221 234.8876 137.7343 234.6416 137.169 234.6416 C 136.6066 234.6416 136.11 234.9037 135.678 235.4281 C 135.2459 235.9539 135.0306 236.717 135.0306 237.7174 Z " style="fill:#fff;fill-rule:nonzero;" stroke-width="1.46467"/>
      <path d="M 147.2547 240.6028 C 146.7655 241.0187 146.2953 241.3117 145.8442 241.4816 C 145.3931 241.6529 144.9083 241.7379 144.3898 241.7379 C 143.5359 241.7379 142.8797 241.5299 142.4198 241.1125 C 141.9614 240.695 141.7314 240.1619 141.7314 239.5116 C 141.7314 239.1308 141.8178 238.7836 141.9921 238.4687 C 142.165 238.1538 142.392 237.9004 142.6732 237.71 C 142.953 237.5196 143.2693 237.3761 143.6209 237.278 C 143.8801 237.2091 144.2712 237.1432 144.7926 237.0802 C 145.8574 236.9528 146.641 236.8019 147.1449 236.6262 C 147.1492 236.446 147.1522 236.3303 147.1522 236.282 C 147.1522 235.7444 147.0277 235.3666 146.7772 235.1469 C 146.4403 234.8481 145.9409 234.7001 145.2759 234.7001 C 144.6564 234.7001 144.1979 234.8085 143.9035 235.0253 C 143.6077 235.2435 143.3894 235.6273 143.2474 236.1795 L 141.9585 236.0037 C 142.0756 235.4515 142.269 235.0063 142.537 234.6665 C 142.8065 234.3281 143.1946 234.0659 143.7014 233.8829 C 144.2097 233.6998 144.7985 233.609 145.4663 233.609 C 146.1313 233.609 146.6703 233.6866 147.0863 233.8433 C 147.5008 233.9986 147.8054 234.1963 148.0017 234.4321 C 148.1965 234.6694 148.3327 234.9682 148.4118 235.3299 C 148.4557 235.554 148.4777 235.9598 148.4777 236.5456 L 148.4777 238.3032 C 148.4777 239.5292 148.5055 240.304 148.5612 240.6291 C 148.6168 240.9528 148.7282 241.2648 148.8951 241.5621 L 147.5183 241.5621 C 147.3807 241.2897 147.2928 240.9689 147.2547 240.6028 Z M 147.1449 237.6588 C 146.6659 237.8536 145.9482 238.0205 144.9903 238.1568 C 144.4484 238.2344 144.0661 238.3223 143.8406 238.4204 C 143.6165 238.5185 143.4436 238.6606 143.3206 238.8496 C 143.199 239.037 143.1375 239.245 143.1375 239.475 C 143.1375 239.8265 143.2708 240.1194 143.5374 240.3538 C 143.8025 240.5881 144.1921 240.7053 144.7047 240.7053 C 145.213 240.7053 145.6641 240.594 146.0595 240.3728 C 146.455 240.1502 146.7465 239.8455 146.9325 239.4603 C 147.0731 239.163 147.1449 238.7236 147.1449 238.1421 L 147.1449 237.6588 Z " style="fill:#fff;fill-rule:nonzero;" stroke-width="1.46467"/>
      <path d="M 150.2792 242.2066 L 151.5608 242.397 C 151.615 242.7924 151.763 243.081 152.0076 243.2611 C 152.3342 243.5057 152.7809 243.6273 153.3477 243.6273 C 153.9585 243.6273 154.4287 243.5057 154.7611 243.2611 C 155.0936 243.018 155.3177 242.6753 155.4349 242.2359 C 155.5037 241.9678 155.5359 241.4039 155.5301 240.5442 C 154.9545 241.2238 154.2368 241.5621 153.377 241.5621 C 152.3078 241.5621 151.4803 241.1769 150.8944 240.405 C 150.3085 239.6331 150.0156 238.7089 150.0156 237.6295 C 150.0156 236.8869 150.1489 236.2029 150.4184 235.5745 C 150.6864 234.9477 151.076 234.4629 151.5857 234.1216 C 152.0969 233.7789 152.696 233.609 153.3843 233.609 C 154.3027 233.609 155.0599 233.9795 155.6546 234.7221 L 155.6546 233.7847 L 156.8703 233.7847 L 156.8703 240.5076 C 156.8703 241.7188 156.7472 242.5771 156.5012 243.0824 C 156.2536 243.5878 155.864 243.9861 155.3294 244.2805 C 154.7948 244.5735 154.1357 244.7199 153.3551 244.7199 C 152.4279 244.7199 151.678 244.5105 151.1068 244.0931 C 150.5356 243.6756 150.2587 243.0473 150.2792 242.2066 Z M 151.3704 237.5343 C 151.3704 238.5552 151.5726 239.2992 151.9783 239.7679 C 152.384 240.2366 152.8908 240.4709 153.5015 240.4709 C 154.1064 240.4709 154.6147 240.2381 155.0248 239.7723 C 155.4349 239.3051 155.6399 238.5742 155.6399 237.5782 C 155.6399 236.6262 155.429 235.9085 155.0072 235.4252 C 154.5839 234.9418 154.0757 234.7001 153.4796 234.7001 C 152.8937 234.7001 152.3957 234.9374 151.9856 235.4134 C 151.5755 235.8895 151.3704 236.5969 151.3704 237.5343 Z " style="fill:#fff;fill-rule:nonzero;" stroke-width="1.46467"/>
      <path d="M 164.1878 239.0575 L 165.5499 239.226 C 165.3346 240.0228 164.9377 240.6394 164.3562 241.0788 C 163.7747 241.5182 163.0336 241.7379 162.1299 241.7379 C 160.9918 241.7379 160.0896 241.3878 159.4232 240.6877 C 158.7568 239.9861 158.4228 239.0033 158.4228 237.7393 C 158.4228 236.4314 158.7597 235.4149 159.4349 234.6928 C 160.1086 233.9693 160.9816 233.609 162.0567 233.609 C 163.0966 233.609 163.9461 233.9619 164.6052 234.6708 C 165.2643 235.3783 165.5938 236.3743 165.5938 237.6588 C 165.5938 237.7364 165.5909 237.8536 165.5865 238.0103 L 159.7864 238.0103 C 159.8348 238.8642 160.0764 239.5189 160.5114 239.973 C 160.945 240.427 161.4869 240.654 162.1372 240.654 C 162.6206 240.654 163.0336 240.5281 163.3749 240.2732 C 163.7161 240.0198 163.9871 239.6141 164.1878 239.0575 Z M 159.8597 236.9264 L 164.2024 236.9264 C 164.1438 236.2717 163.9783 235.7811 163.7044 235.4544 C 163.2841 234.9462 162.7392 234.6928 162.0713 234.6928 C 161.4649 234.6928 160.9567 234.8949 160.5437 235.3007 C 160.1306 235.7049 159.9036 236.2483 159.8597 236.9264 Z " style="fill:#fff;fill-rule:nonzero;" stroke-width="1.46467"/>
      <path d="M 170.8813 237.6734 C 170.8813 236.2336 171.2826 235.1659 172.0838 234.4731 C 172.7517 233.896 173.5675 233.609 174.5298 233.609 C 175.599 233.609 176.4734 233.959 177.1515 234.6591 C 177.8297 235.3607 178.1695 236.3289 178.1695 237.5636 C 178.1695 238.5639 178.0201 239.3519 177.7198 239.9261 C 177.4196 240.4988 176.9816 240.9455 176.4075 241.2619 C 175.8348 241.5797 175.2079 241.7379 174.5298 241.7379 C 173.4401 241.7379 172.5598 241.3893 171.889 240.6906 C 171.2182 239.992 170.8813 238.9872 170.8813 237.6734 Z M 172.2376 237.6734 C 172.2376 238.6694 172.4544 239.4149 172.8894 239.9114 C 173.3229 240.4065 173.8707 240.654 174.5298 240.654 C 175.1845 240.654 175.7279 240.405 176.1629 239.907 C 176.5979 239.4091 176.8147 238.6504 176.8147 237.6295 C 176.8147 236.6672 176.5964 235.9393 176.1585 235.4427 C 175.722 234.9477 175.1786 234.7001 174.5298 234.7001 C 173.8707 234.7001 173.3229 234.9462 172.8894 235.4398 C 172.4544 235.9319 172.2376 236.6774 172.2376 237.6734 Z " style="fill:#fff;fill-rule:nonzero;" stroke-width="1.46467"/>
      <path d="M 179.7001 241.5621 L 179.7001 233.7847 L 180.8865 233.7847 L 180.8865 234.9638 C 181.1896 234.4116 181.4694 234.0484 181.7257 233.8726 C 181.982 233.6968 182.2632 233.609 182.5708 233.609 C 183.0161 233.609 183.4672 233.7496 183.9271 234.0337 L 183.4731 235.2567 C 183.1508 235.0663 182.8271 234.9711 182.5049 234.9711 C 182.2178 234.9711 181.9586 235.0575 181.7286 235.2304 C 181.5002 235.4046 181.3361 235.6449 181.238 235.9524 C 181.0915 236.4211 181.0183 236.9338 181.0183 237.4903 L 181.0183 241.5621 L 179.7001 241.5621 Z " style="fill:#fff;fill-rule:nonzero;" stroke-width="1.46467"/>
      <path d="M 193.9528 238.7133 L 195.2505 238.8818 C 195.1084 239.7752 194.7452 240.4753 194.1622 240.9806 C 193.5793 241.486 192.8616 241.7379 192.0121 241.7379 C 190.9473 241.7379 190.0919 241.3908 189.446 240.695 C 188.7986 239.9993 188.4749 239.0019 188.4749 237.7027 C 188.4749 236.8635 188.6141 236.1282 188.8923 235.4984 C 189.1706 234.8686 189.5939 234.3955 190.1637 234.0806 C 190.732 233.7657 191.3515 233.609 192.0194 233.609 C 192.8645 233.609 193.5559 233.8213 194.0919 234.249 C 194.6295 234.6767 194.9737 235.2831 195.1245 236.0696 L 193.8429 236.2673 C 193.7214 235.7444 193.5061 235.3519 193.1955 235.0883 C 192.885 234.8246 192.5101 234.6928 192.0707 234.6928 C 191.4072 234.6928 190.8667 234.9301 190.4522 235.4061 C 190.0377 235.8821 189.8297 236.6364 189.8297 237.6661 C 189.8297 238.7104 190.0304 239.4706 190.4302 239.9437 C 190.8301 240.4182 191.353 240.654 191.9974 240.654 C 192.5159 240.654 192.948 240.4958 193.2937 240.178 C 193.6408 239.8602 193.8605 239.3724 193.9528 238.7133 Z " style="fill:#fff;fill-rule:nonzero;" stroke-width="1.46467"/>
      <path d="M 195.8876 237.6734 C 195.8876 236.2336 196.2875 235.1659 197.0886 234.4731 C 197.7565 233.896 198.5723 233.609 199.5346 233.609 C 200.6038 233.609 201.4783 233.959 202.1564 234.6591 C 202.8345 235.3607 203.1743 236.3289 203.1743 237.5636 C 203.1743 238.5639 203.0249 239.3519 202.7247 239.9261 C 202.4244 240.4988 201.9865 240.9455 201.4138 241.2619 C 200.8397 241.5797 200.2128 241.7379 199.5346 241.7379 C 198.4449 241.7379 197.5661 241.3893 196.8938 240.6906 C 196.223 239.992 195.8876 238.9872 195.8876 237.6734 Z M 197.2424 237.6734 C 197.2424 238.6694 197.4592 239.4149 197.8942 239.9114 C 198.3277 240.4065 198.8755 240.654 199.5346 240.654 C 200.1893 240.654 200.7327 240.405 201.1677 239.907 C 201.6027 239.4091 201.8195 238.6504 201.8195 237.6295 C 201.8195 236.6672 201.6013 235.9393 201.1633 235.4427 C 200.7269 234.9477 200.1835 234.7001 199.5346 234.7001 C 198.8755 234.7001 198.3277 234.9462 197.8942 235.4398 C 197.4592 235.9319 197.2424 236.6774 197.2424 237.6734 Z " style="fill:#fff;fill-rule:nonzero;" stroke-width="1.46467"/>
      <path d="M 204.7196 241.5621 L 204.7196 233.7847 L 205.9059 233.7847 L 205.9059 234.8905 C 206.4772 234.0352 207.3032 233.609 208.3827 233.609 C 208.8514 233.609 209.282 233.6924 209.6745 233.8609 C 210.0685 234.0293 210.3615 234.2505 210.5577 234.5244 C 210.7525 234.7968 210.8888 235.122 210.9678 235.4984 C 211.0162 235.7415 211.0411 236.1692 211.0411 236.78 L 211.0411 241.5621 L 209.7229 241.5621 L 209.7229 236.8312 C 209.7229 236.2937 209.6716 235.8924 209.5691 235.6258 C 209.4666 235.3607 209.2849 235.1483 209.0228 234.9887 C 208.7621 234.8305 208.4559 234.7514 208.1044 234.7514 C 207.542 234.7514 207.0572 234.9286 206.65 235.286 C 206.2428 235.6419 206.0378 236.3186 206.0378 237.3146 L 206.0378 241.5621 L 204.7196 241.5621 Z " style="fill:#fff;fill-rule:nonzero;" stroke-width="1.46467"/>
      <path d="M 215.9404 240.3831 L 216.1308 241.5475 C 215.7602 241.6266 215.4278 241.6646 215.1348 241.6646 C 214.6559 241.6646 214.2853 241.5899 214.0217 241.4376 C 213.758 241.2868 213.572 241.0876 213.4651 240.8415 C 213.3582 240.594 213.304 240.0755 213.304 239.2846 L 213.304 234.81 L 212.3373 234.81 L 212.3373 233.7847 L 213.304 233.7847 L 213.304 231.8572 L 214.6149 231.0663 L 214.6149 233.7847 L 215.9404 233.7847 L 215.9404 234.81 L 214.6149 234.81 L 214.6149 239.3578 C 214.6149 239.7342 214.6383 239.9759 214.6852 240.0828 C 214.7306 240.1912 214.8067 240.2761 214.9122 240.3391 C 215.0162 240.4036 215.1671 240.4343 215.3619 240.4343 C 215.5083 240.4343 215.7017 240.4182 215.9404 240.3831 Z " style="fill:#fff;fill-rule:nonzero;" stroke-width="1.46467"/>
      <path d="M 217.2366 232.342 L 217.2366 230.8246 L 218.5548 230.8246 L 218.5548 232.342 L 217.2366 232.342 Z M 217.2366 241.5621 L 217.2366 233.7847 L 218.5548 233.7847 L 218.5548 241.5621 L 217.2366 241.5621 Z " style="fill:#fff;fill-rule:nonzero;" stroke-width="1.46467"/>
      <path d="M 220.5629 241.5621 L 220.5629 233.7847 L 221.7493 233.7847 L 221.7493 234.8905 C 222.3205 234.0352 223.1451 233.609 224.2246 233.609 C 224.6933 233.609 225.1239 233.6924 225.5179 233.8609 C 225.9104 234.0293 226.2048 234.2505 226.3996 234.5244 C 226.5944 234.7968 226.7321 235.122 226.8097 235.4984 C 226.8581 235.7415 226.883 236.1692 226.883 236.78 L 226.883 241.5621 L 225.5647 241.5621 L 225.5647 236.8312 C 225.5647 236.2937 225.5135 235.8924 225.411 235.6258 C 225.3084 235.3607 225.1268 235.1483 224.8646 234.9887 C 224.6039 234.8305 224.2978 234.7514 223.9463 234.7514 C 223.3853 234.7514 222.9005 234.9286 222.4919 235.286 C 222.0847 235.6419 221.8811 236.3186 221.8811 237.3146 L 221.8811 241.5621 L 220.5629 241.5621 Z " style="fill:#fff;fill-rule:nonzero;" stroke-width="1.46467"/>
      <path d="M 234.0027 241.5621 L 234.0027 240.4197 C 233.3963 241.2985 232.5747 241.7379 231.5347 241.7379 C 231.0748 241.7379 230.6472 241.65 230.2488 241.4742 C 229.8504 241.2985 229.556 241.0773 229.3626 240.8122 C 229.1693 240.5456 229.0346 240.2205 228.9555 239.8338 C 228.9027 239.5746 228.8749 239.1645 228.8749 238.6035 L 228.8749 233.7847 L 230.1931 233.7847 L 230.1931 238.0982 C 230.1931 238.7866 230.2209 239.2509 230.2737 239.4896 C 230.3571 239.8367 230.5329 240.1092 230.8009 240.3069 C 231.0704 240.5046 231.4015 240.6028 231.7984 240.6028 C 232.1938 240.6028 232.5644 240.5017 232.9115 240.2996 C 233.2572 240.096 233.5033 239.8206 233.6468 239.472 C 233.7918 239.122 233.8636 238.6152 233.8636 237.9517 L 233.8636 233.7847 L 235.1818 233.7847 L 235.1818 241.5621 L 234.0027 241.5621 Z " style="fill:#fff;fill-rule:nonzero;" stroke-width="1.46467"/>
      <path d="M 242.571 239.0575 L 243.9346 239.226 C 243.7193 240.0228 243.3209 240.6394 242.7395 241.0788 C 242.1595 241.5182 241.4169 241.7379 240.5132 241.7379 C 239.3751 241.7379 238.4744 241.3878 237.8079 240.6877 C 237.14 239.9861 236.8076 239.0033 236.8076 237.7393 C 236.8076 236.4314 237.1444 235.4149 237.8182 234.6928 C 238.4919 233.9693 239.3663 233.609 240.4399 233.609 C 241.4799 233.609 242.3294 233.9619 242.9885 234.6708 C 243.649 235.3783 243.9786 236.3743 243.9786 237.6588 C 243.9786 237.7364 243.9757 237.8536 243.9713 238.0103 L 238.1697 238.0103 C 238.218 238.8642 238.4597 239.5189 238.8947 239.973 C 239.3297 240.427 239.8716 240.654 240.5205 240.654 C 241.0038 240.654 241.4169 240.5281 241.7581 240.2732 C 242.1009 240.0198 242.3718 239.6141 242.571 239.0575 Z M 238.2429 236.9264 L 242.5857 236.9264 C 242.5271 236.2717 242.3616 235.7811 242.0877 235.4544 C 241.6688 234.9462 241.1239 234.6928 240.4546 234.6928 C 239.8497 234.6928 239.34 234.8949 238.9284 235.3007 C 238.5154 235.7049 238.2869 236.2483 238.2429 236.9264 Z " style="fill:#fff;fill-rule:nonzero;" stroke-width="1.46467"/>
      <path d="M 251.1921 241.5621 L 248.812 233.7847 L 250.1741 233.7847 L 251.4118 238.2739 L 251.8732 239.9437 C 251.8937 239.8602 252.0269 239.3256 252.2759 238.3398 L 253.5136 233.7847 L 254.8684 233.7847 L 256.0343 238.2959 L 256.4224 239.7825 L 256.8691 238.2813 L 258.202 233.7847 L 259.4836 233.7847 L 257.0522 241.5621 L 255.6828 241.5621 L 254.4436 236.9045 L 254.1434 235.5789 L 252.5689 241.5621 L 251.1921 241.5621 Z " style="fill:#fff;fill-rule:nonzero;" stroke-width="1.46467"/>
      <path d="M 260.5967 232.342 L 260.5967 230.8246 L 261.9149 230.8246 L 261.9149 232.342 L 260.5967 232.342 Z M 260.5967 241.5621 L 260.5967 233.7847 L 261.9149 233.7847 L 261.9149 241.5621 L 260.5967 241.5621 Z " style="fill:#fff;fill-rule:nonzero;" stroke-width="1.46467"/>
      <path d="M 266.7996 240.3831 L 266.99 241.5475 C 266.6194 241.6266 266.287 241.6646 265.994 241.6646 C 265.5166 241.6646 265.1445 241.5899 264.8809 241.4376 C 264.6172 241.2868 264.4327 241.0876 264.3243 240.8415 C 264.2174 240.594 264.1632 240.0755 264.1632 239.2846 L 264.1632 234.81 L 263.1965 234.81 L 263.1965 233.7847 L 264.1632 233.7847 L 264.1632 231.8572 L 265.4741 231.0663 L 265.4741 233.7847 L 266.7996 233.7847 L 266.7996 234.81 L 265.4741 234.81 L 265.4741 239.3578 C 265.4741 239.7342 265.4975 239.9759 265.5444 240.0828 C 265.5898 240.1912 265.6659 240.2761 265.7714 240.3391 C 265.8769 240.4036 266.0263 240.4343 266.2211 240.4343 C 266.3675 240.4343 266.5609 240.4182 266.7996 240.3831 Z " style="fill:#fff;fill-rule:nonzero;" stroke-width="1.46467"/>
      <path d="M 268.09 241.5621 L 268.09 230.8246 L 269.4082 230.8246 L 269.4082 234.6782 C 270.0233 233.9649 270.7996 233.609 271.737 233.609 C 272.3126 233.609 272.8135 233.7217 273.2383 233.9488 C 273.663 234.1758 273.9677 234.4892 274.1508 234.8905 C 274.3339 235.2904 274.4247 235.8719 274.4247 236.6335 L 274.4247 241.5621 L 273.1065 241.5621 L 273.1065 236.6335 C 273.1065 235.9744 272.9629 235.494 272.6773 235.1937 C 272.3917 234.8935 271.9889 234.7441 271.466 234.7441 C 271.075 234.7441 270.7073 234.8451 270.3631 235.0473 C 270.0189 235.2509 269.7743 235.5247 269.6279 235.8719 C 269.4814 236.219 269.4082 236.6965 269.4082 237.3073 L 269.4082 241.5621 L 268.09 241.5621 Z " style="fill:#fff;fill-rule:nonzero;" stroke-width="1.46467"/>
      <path d="M 275.9406 237.6734 C 275.9406 236.2336 276.3419 235.1659 277.1416 234.4731 C 277.811 233.896 278.6268 233.609 279.5876 233.609 C 280.6583 233.609 281.5313 233.959 282.2109 234.6591 C 282.889 235.3607 283.2288 236.3289 283.2288 237.5636 C 283.2288 238.5639 283.0779 239.3519 282.7777 239.9261 C 282.4774 240.4988 282.041 240.9455 281.4668 241.2619 C 280.8927 241.5797 280.2672 241.7379 279.5876 241.7379 C 278.4994 241.7379 277.6191 241.3893 276.9483 240.6906 C 276.276 239.992 275.9406 238.9872 275.9406 237.6734 Z M 277.2954 237.6734 C 277.2954 238.6694 277.5137 239.4149 277.9472 239.9114 C 278.3822 240.4065 278.9285 240.654 279.5876 240.654 C 280.2423 240.654 280.7872 240.405 281.2222 239.907 C 281.6558 239.4091 281.874 238.6504 281.874 237.6295 C 281.874 236.6672 281.6543 235.9393 281.2178 235.4427 C 280.7813 234.9477 280.238 234.7001 279.5876 234.7001 C 278.9285 234.7001 278.3822 234.9462 277.9472 235.4398 C 277.5137 235.9319 277.2954 236.6774 277.2954 237.6734 Z " style="fill:#fff;fill-rule:nonzero;" stroke-width="1.46467"/>
      <path d="M 289.8711 241.5621 L 289.8711 240.4197 C 289.2662 241.2985 288.443 241.7379 287.4031 241.7379 C 286.9447 241.7379 286.5155 241.65 286.1186 241.4742 C 285.7202 241.2985 285.4243 241.0773 285.231 240.8122 C 285.0391 240.5456 284.9029 240.2205 284.8253 239.8338 C 284.7711 239.5746 284.7447 239.1645 284.7447 238.6035 L 284.7447 233.7847 L 286.0629 233.7847 L 286.0629 238.0982 C 286.0629 238.7866 286.0893 239.2509 286.1435 239.4896 C 286.227 239.8367 286.4027 240.1092 286.6708 240.3069 C 286.9388 240.5046 287.2713 240.6028 287.6668 240.6028 C 288.0622 240.6028 288.4342 240.5017 288.7799 240.2996 C 289.127 240.096 289.3716 239.8206 289.5166 239.472 C 289.6602 239.122 289.7319 238.6152 289.7319 237.9517 L 289.7319 233.7847 L 291.0501 233.7847 L 291.0501 241.5621 L 289.8711 241.5621 Z " style="fill:#fff;fill-rule:nonzero;" stroke-width="1.46467"/>
      <path d="M 295.9949 240.3831 L 296.1853 241.5475 C 295.8133 241.6266 295.4822 241.6646 295.1893 241.6646 C 294.7104 241.6646 294.3398 241.5899 294.0762 241.4376 C 293.8125 241.2868 293.6265 241.0876 293.5196 240.8415 C 293.4112 240.594 293.3585 240.0755 293.3585 239.2846 L 293.3585 234.81 L 292.3918 234.81 L 292.3918 233.7847 L 293.3585 233.7847 L 293.3585 231.8572 L 294.6693 231.0663 L 294.6693 233.7847 L 295.9949 233.7847 L 295.9949 234.81 L 294.6693 234.81 L 294.6693 239.3578 C 294.6693 239.7342 294.6928 239.9759 294.7382 240.0828 C 294.7851 240.1912 294.8612 240.2761 294.9652 240.3391 C 295.0707 240.4036 295.2201 240.4343 295.4163 240.4343 C 295.5628 240.4343 295.7547 240.4182 295.9949 240.3831 Z " style="fill:#fff;fill-rule:nonzero;" stroke-width="1.46467"/>
      <path d="M 306.5273 238.7133 L 307.8235 238.8818 C 307.6815 239.7752 307.3197 240.4753 306.7353 240.9806 C 306.1524 241.486 305.4361 241.7379 304.5866 241.7379 C 303.5218 241.7379 302.6664 241.3908 302.0191 240.695 C 301.3717 239.9993 301.048 239.0019 301.048 237.7027 C 301.048 236.8635 301.1871 236.1282 301.4654 235.4984 C 301.7437 234.8686 302.1685 234.3955 302.7367 234.0806 C 303.305 233.7657 303.9246 233.609 304.5939 233.609 C 305.4376 233.609 306.1289 233.8213 306.6665 234.249 C 307.2025 234.6767 307.5467 235.2831 307.699 236.0696 L 306.4175 236.2673 C 306.2944 235.7444 306.0791 235.3519 305.7686 235.0883 C 305.4581 234.8246 305.0846 234.6928 304.6452 234.6928 C 303.9803 234.6928 303.4413 234.9301 303.0253 235.4061 C 302.6108 235.8821 302.4028 236.6364 302.4028 237.6661 C 302.4028 238.7104 302.6035 239.4706 303.0033 239.9437 C 303.4046 240.4182 303.9261 240.654 304.572 240.654 C 305.089 240.654 305.5211 240.4958 305.8682 240.178 C 306.2139 239.8602 306.4336 239.3724 306.5273 238.7133 Z " style="fill:#fff;fill-rule:nonzero;" stroke-width="1.46467"/>
      <rect x="337.672" y="257.384" width="0.9" height="7.331" style="fill:#fff;fill-rule:nonzero;" stroke-width="1" transform="matrix(1.46467,0,0,1.46467,-185.656,-146.158)"/>
      <path d="M 311.7928 237.6734 C 311.7928 236.2336 312.1941 235.1659 312.9938 234.4731 C 313.6632 233.896 314.479 233.609 315.4398 233.609 C 316.5105 233.609 317.3834 233.959 318.0631 234.6591 C 318.7412 235.3607 319.081 236.3289 319.081 237.5636 C 319.081 238.5639 318.9301 239.3519 318.6299 239.9261 C 318.3296 240.4988 317.8932 240.9455 317.319 241.2619 C 316.7449 241.5797 316.1194 241.7379 315.4398 241.7379 C 314.3516 241.7379 313.4713 241.3893 312.8005 240.6906 C 312.1282 239.992 311.7928 238.9872 311.7928 237.6734 Z M 313.1476 237.6734 C 313.1476 238.6694 313.3659 239.4149 313.7994 239.9114 C 314.2344 240.4065 314.7807 240.654 315.4398 240.654 C 316.0945 240.654 316.6394 240.405 317.0744 239.907 C 317.5079 239.4091 317.7262 238.6504 317.7262 237.6295 C 317.7262 236.6672 317.5065 235.9393 317.07 235.4427 C 316.6335 234.9477 316.0901 234.7001 315.4398 234.7001 C 314.7807 234.7001 314.2344 234.9462 313.7994 235.4398 C 313.3659 235.9319 313.1476 236.6774 313.1476 237.6734 Z " style="fill:#fff;fill-rule:nonzero;" stroke-width="1.46467"/>
      <path d="M 325.7233 241.5621 L 325.7233 240.4197 C 325.1184 241.2985 324.2952 241.7379 323.2553 241.7379 C 322.7969 241.7379 322.3677 241.65 321.9693 241.4742 C 321.5724 241.2985 321.2765 241.0773 321.0832 240.8122 C 320.8913 240.5456 320.7551 240.2205 320.6775 239.8338 C 320.6233 239.5746 320.5969 239.1645 320.5969 238.6035 L 320.5969 233.7847 L 321.9151 233.7847 L 321.9151 238.0982 C 321.9151 238.7866 321.9415 239.2509 321.9957 239.4896 C 322.0792 239.8367 322.2549 240.1092 322.523 240.3069 C 322.791 240.5046 323.1235 240.6028 323.5189 240.6028 C 323.9144 240.6028 324.2864 240.5017 324.6321 240.2996 C 324.9792 240.096 325.2238 239.8206 325.3688 239.472 C 325.5124 239.122 325.5841 238.6152 325.5841 237.9517 L 325.5841 233.7847 L 326.9023 233.7847 L 326.9023 241.5621 L 325.7233 241.5621 Z " style="fill:#fff;fill-rule:nonzero;" stroke-width="1.46467"/>
      <path d="M 334.0148 241.5621 L 334.0148 240.5808 C 333.5212 241.3527 332.7962 241.7379 331.8397 241.7379 C 331.2187 241.7379 330.649 241.568 330.129 241.2252 C 329.609 240.884 329.2063 240.4065 328.9207 239.7943 C 328.635 239.1806 328.493 238.4761 328.493 237.6807 C 328.493 236.9045 328.6219 236.2 328.8811 235.5672 C 329.1389 234.936 329.527 234.4511 330.0455 234.1143 C 330.5625 233.7774 331.1411 233.609 331.7812 233.609 C 332.2498 233.609 332.6673 233.7071 333.0334 233.9048 C 333.3996 234.1026 333.6969 234.3603 333.9269 234.6782 L 333.9269 230.8246 L 335.2378 230.8246 L 335.2378 241.5621 L 334.0148 241.5621 Z M 329.8478 237.6807 C 329.8478 238.6767 330.0572 239.4208 330.4776 239.9144 C 330.8965 240.408 331.393 240.654 331.9642 240.654 C 332.5399 240.654 333.0291 240.4182 333.4318 239.9481 C 333.8346 239.4764 334.0367 238.7573 334.0367 237.7906 C 334.0367 236.7258 333.8317 235.9451 333.4216 235.4471 C 333.0115 234.9491 332.5062 234.7001 331.9056 234.7001 C 331.3198 234.7001 330.8306 234.9389 330.4366 235.4178 C 330.0441 235.8953 329.8478 236.6511 329.8478 237.6807 Z " style="fill:#fff;fill-rule:nonzero;" stroke-width="1.46467"/>
      <path d="M 341.7936 241.5621 L 341.7936 234.81 L 340.6292 234.81 L 340.6292 233.7847 L 341.7936 233.7847 L 341.7936 232.9572 C 341.7936 232.4343 341.839 232.0462 341.9328 231.7913 C 342.0587 231.45 342.2828 231.1732 342.6021 230.9608 C 342.9229 230.7485 343.3696 230.6415 343.9467 230.6415 C 344.3173 230.6415 344.7274 230.6855 345.177 230.7734 L 344.9793 231.9231 C 344.7054 231.8748 344.4476 231.8499 344.203 231.8499 C 343.8017 231.8499 343.519 231.9363 343.3535 232.1077 C 343.1865 232.2776 343.1045 232.5983 343.1045 233.067 L 343.1045 233.7847 L 344.6205 233.7847 L 344.6205 234.81 L 343.1045 234.81 L 343.1045 241.5621 L 341.7936 241.5621 Z " style="fill:#fff;fill-rule:nonzero;" stroke-width="1.46467"/>
      <path d="M 350.9698 239.0575 L 352.3334 239.226 C 352.1181 240.0228 351.7197 240.6394 351.1382 241.0788 C 350.5582 241.5182 349.8156 241.7379 348.9119 241.7379 C 347.7739 241.7379 346.8731 241.3878 346.2052 240.6877 C 345.5388 239.9861 345.2063 239.0033 345.2063 237.7393 C 345.2063 236.4314 345.5432 235.4149 346.2169 234.6928 C 346.8907 233.9693 347.7651 233.609 348.8387 233.609 C 349.8786 233.609 350.7281 233.9619 351.3872 234.6708 C 352.0463 235.3783 352.3773 236.3743 352.3773 237.6588 C 352.3773 237.7364 352.3744 237.8536 352.37 238.0103 L 346.5685 238.0103 C 346.6168 238.8642 346.8585 239.5189 347.2935 239.973 C 347.7285 240.427 348.2704 240.654 348.9193 240.654 C 349.4026 240.654 349.8156 240.5281 350.1569 240.2732 C 350.4996 240.0198 350.7706 239.6141 350.9698 239.0575 Z M 346.6417 236.9264 L 350.9844 236.9264 C 350.9259 236.2717 350.7603 235.7811 350.4865 235.4544 C 350.0676 234.9462 349.5227 234.6928 348.8533 234.6928 C 348.2484 234.6928 347.7387 234.8949 347.3272 235.3007 C 346.9141 235.7049 346.6856 236.2483 346.6417 236.9264 Z " style="fill:#fff;fill-rule:nonzero;" stroke-width="1.46467"/>
      <path d="M 359.0636 240.6028 C 358.5758 241.0187 358.1057 241.3117 357.6531 241.4816 C 357.202 241.6529 356.7172 241.7379 356.2001 241.7379 C 355.3448 241.7379 354.6886 241.5299 354.2302 241.1125 C 353.7702 240.695 353.5418 240.1619 353.5418 239.5116 C 353.5418 239.1308 353.6282 238.7836 353.801 238.4687 C 353.9738 238.1538 354.2009 237.9004 354.4821 237.71 C 354.7633 237.5196 355.0797 237.3761 355.4312 237.278 C 355.689 237.2091 356.08 237.1432 356.6029 237.0802 C 357.6677 236.9528 358.4513 236.8019 358.9537 236.6262 C 358.9581 236.446 358.961 236.3303 358.961 236.282 C 358.961 235.7444 358.8365 235.3666 358.5875 235.1469 C 358.2507 234.8481 357.7498 234.7001 357.0863 234.7001 C 356.4667 234.7001 356.0083 234.8085 355.7124 235.0253 C 355.418 235.2435 355.1983 235.6273 355.0577 236.1795 L 353.7688 236.0037 C 353.886 235.4515 354.0778 235.0063 354.3473 234.6665 C 354.6154 234.3281 355.0035 234.0659 355.5117 233.8829 C 356.0185 233.6998 356.6073 233.609 357.2767 233.609 C 357.9402 233.609 358.4806 233.6866 358.8951 233.8433 C 359.3096 233.9986 359.6157 234.1963 359.8105 234.4321 C 360.0053 234.6694 360.143 234.9682 360.2207 235.3299 C 360.2646 235.554 360.2866 235.9598 360.2866 236.5456 L 360.2866 238.3032 C 360.2866 239.5292 360.3144 240.304 360.3715 240.6291 C 360.4272 240.9528 360.5385 241.2648 360.704 241.5621 L 359.3272 241.5621 C 359.191 241.2897 359.1031 240.9689 359.0636 240.6028 Z M 358.9537 237.6588 C 358.4748 237.8536 357.7571 238.0205 356.8006 238.1568 C 356.2587 238.2344 355.875 238.3223 355.6509 238.4204 C 355.4253 238.5185 355.2525 238.6606 355.1309 238.8496 C 355.0079 239.037 354.9478 239.245 354.9478 239.475 C 354.9478 239.8265 355.0811 240.1194 355.3462 240.3538 C 355.6128 240.5881 356.0024 240.7053 356.515 240.7053 C 357.0233 240.7053 357.4744 240.594 357.8699 240.3728 C 358.2653 240.1502 358.5553 239.8455 358.7413 239.4603 C 358.8834 239.163 358.9537 238.7236 358.9537 238.1421 L 358.9537 237.6588 Z " style="fill:#fff;fill-rule:nonzero;" stroke-width="1.46467"/>
      <path d="M 365.2093 240.3831 L 365.3997 241.5475 C 365.0277 241.6266 364.6967 241.6646 364.4037 241.6646 C 363.9248 241.6646 363.5528 241.5899 363.2891 241.4376 C 363.0255 241.2868 362.8409 241.0876 362.7326 240.8415 C 362.6256 240.594 362.5714 240.0755 362.5714 239.2846 L 362.5714 234.81 L 361.6048 234.81 L 361.6048 233.7847 L 362.5714 233.7847 L 362.5714 231.8572 L 363.8823 231.0663 L 363.8823 233.7847 L 365.2093 233.7847 L 365.2093 234.81 L 363.8823 234.81 L 363.8823 239.3578 C 363.8823 239.7342 363.9058 239.9759 363.9526 240.0828 C 363.9995 240.1912 364.0742 240.2761 364.1797 240.3391 C 364.2851 240.4036 364.4345 240.4343 364.6308 240.4343 C 364.7772 240.4343 364.9691 240.4182 365.2093 240.3831 Z " style="fill:#fff;fill-rule:nonzero;" stroke-width="1.46467"/>
      <path d="M 371.5953 241.5621 L 371.5953 240.4197 C 370.9904 241.2985 370.1672 241.7379 369.1273 241.7379 C 368.6689 241.7379 368.2397 241.65 367.8413 241.4742 C 367.4444 241.2985 367.1485 241.0773 366.9552 240.8122 C 366.7633 240.5456 366.6271 240.2205 366.5495 239.8338 C 366.4953 239.5746 366.4689 239.1645 366.4689 238.6035 L 366.4689 233.7847 L 367.7871 233.7847 L 367.7871 238.0982 C 367.7871 238.7866 367.8135 239.2509 367.8677 239.4896 C 367.9497 239.8367 368.1255 240.1092 368.395 240.3069 C 368.663 240.5046 368.9955 240.6028 369.3909 240.6028 C 369.7864 240.6028 370.157 240.5017 370.5041 240.2996 C 370.8512 240.096 371.0958 239.8206 371.2408 239.472 C 371.3844 239.122 371.4561 238.6152 371.4561 237.9517 L 371.4561 233.7847 L 372.7743 233.7847 L 372.7743 241.5621 L 371.5953 241.5621 Z " style="fill:#fff;fill-rule:nonzero;" stroke-width="1.46467"/>
      <path d="M 374.8249 241.5621 L 374.8249 233.7847 L 376.0113 233.7847 L 376.0113 234.9638 C 376.3144 234.4116 376.5942 234.0484 376.8505 233.8726 C 377.1068 233.6968 377.3895 233.609 377.6971 233.609 C 378.1409 233.609 378.592 233.7496 379.0519 234.0337 L 378.5979 235.2567 C 378.2756 235.0663 377.9534 234.9711 377.6312 234.9711 C 377.3426 234.9711 377.0834 235.0575 376.8549 235.2304 C 376.625 235.4046 376.4609 235.6449 376.3628 235.9524 C 376.2163 236.4211 376.1431 236.9338 376.1431 237.4903 L 376.1431 241.5621 L 374.8249 241.5621 Z " style="fill:#fff;fill-rule:nonzero;" stroke-width="1.46467"/>
      <path d="M 385.1596 239.0575 L 386.5217 239.226 C 386.3079 240.0228 385.9095 240.6394 385.328 241.0788 C 384.748 241.5182 384.0054 241.7379 383.1017 241.7379 C 381.9637 241.7379 381.0614 241.3878 380.395 240.6877 C 379.7286 239.9861 379.3961 239.0033 379.3961 237.7393 C 379.3961 236.4314 379.733 235.4149 380.4067 234.6928 C 381.0805 233.9693 381.9549 233.609 383.0285 233.609 C 384.0684 233.609 384.9179 233.9619 385.577 234.6708 C 386.2361 235.3783 386.5657 236.3743 386.5657 237.6588 C 386.5657 237.7364 386.5642 237.8536 386.5583 238.0103 L 380.7583 238.0103 C 380.8066 238.8642 381.0483 239.5189 381.4833 239.973 C 381.9183 240.427 382.4602 240.654 383.109 240.654 C 383.5924 240.654 384.0054 240.5281 384.3467 240.2732 C 384.6894 240.0198 384.9604 239.6141 385.1596 239.0575 Z M 380.8315 236.9264 L 385.1742 236.9264 C 385.1156 236.2717 384.9501 235.7811 384.6762 235.4544 C 384.2559 234.9462 383.7125 234.6928 383.0431 234.6928 C 382.4382 234.6928 381.9285 234.8949 381.5155 235.3007 C 381.1039 235.7049 380.8754 236.2483 380.8315 236.9264 Z " style="fill:#fff;fill-rule:nonzero;" stroke-width="1.46467"/>
      <path d="M 387.6495 239.2406 L 388.9545 239.0356 C 389.0278 239.5585 389.2314 239.9583 389.5653 240.2366 C 389.8993 240.5149 390.368 240.654 390.9685 240.654 C 391.5734 240.654 392.023 240.531 392.316 240.2849 C 392.6089 240.0374 392.7554 239.7489 392.7554 239.4164 C 392.7554 239.119 392.6265 238.8847 392.3672 238.7133 C 392.1856 238.5962 391.7374 238.4468 391.0197 238.2666 C 390.053 238.022 389.3822 237.8111 389.0087 237.6324 C 388.6352 237.4552 388.3526 237.2077 388.1592 236.8928 C 387.9659 236.5778 387.8692 236.2307 387.8692 235.8499 C 387.8692 235.5028 387.9498 235.182 388.108 234.8862 C 388.2662 234.5918 388.4829 234.3457 388.7568 234.1509 C 388.9619 233.9986 389.2402 233.8711 389.5946 233.7657 C 389.9491 233.6602 390.3284 233.609 390.7341 233.609 C 391.3434 233.609 391.8795 233.6968 392.3409 233.8726 C 392.8022 234.0484 393.1435 234.2856 393.3632 234.5859 C 393.5829 234.8862 393.7338 235.2875 393.8173 235.7913 L 392.5283 235.9671 C 392.4698 235.5658 392.2999 235.2538 392.0186 235.0297 C 391.7389 234.8041 391.342 234.6928 390.8293 234.6928 C 390.223 234.6928 389.7909 234.7924 389.5331 234.9931 C 389.2738 235.1923 389.145 235.4266 389.145 235.6961 C 389.145 235.866 389.1977 236.0213 389.3061 236.1575 C 389.413 236.2996 389.5814 236.4167 389.8114 236.509 C 389.9432 236.5573 390.3313 236.6701 390.9758 236.8459 C 391.9073 237.0949 392.5591 237.2985 392.9267 237.4566 C 393.2958 237.6163 393.5858 237.8463 393.7953 238.1494 C 394.0047 238.4526 394.1102 238.8276 394.1102 239.2772 C 394.1102 239.7166 393.9813 240.1311 393.725 240.5193 C 393.4687 240.9074 393.0996 241.2077 392.6162 241.42 C 392.1329 241.6324 391.5851 241.7379 390.9758 241.7379 C 389.9652 241.7379 389.1948 241.5284 388.6645 241.1081 C 388.1343 240.6892 387.796 240.0667 387.6495 239.2406 Z " style="fill:#fff;fill-rule:nonzero;" stroke-width="1.46467"/>
      <rect x="397.159" y="263.69" width="1.025" height="1.025" style="fill:#fff;fill-rule:nonzero;" stroke-width="1" transform="matrix(1.46467,0,0,1.46467,-185.656,-146.158)"/>
    </g>
  </g>
</svg>