<svg version="1.1" width="33.25" height="55.125" viewBox="0.03100001811981201 0.218999981880188 33.25 55.125" xmlns="http://www.w3.org/2000/svg" xmlns:xlink="http://www.w3.org/1999/xlink">
  <!-- Exported by Scratch - http://scratch.mit.edu/ -->
  <g id="ID0.5921623618341982">
    <g id="layer1">
      <path id="path3060" fill="#666666" stroke="none" d="M 28.281 0.719 L 28.281 23.375 L 28.156 23.375 C 25.906 19.227 22.18 17.156 17 17.156 C 14.516 17.156 12.277 17.645 10.25 18.594 C 8.223 19.543 6.473 20.871 5.031 22.594 C 3.59 24.316 2.473 26.379 1.688 28.781 C 0.902 31.184 0.531 33.844 0.531 36.75 C 0.531 39.563 0.879 42.086 1.594 44.313 C 2.309 46.539 3.312 48.43 4.625 50 C 5.937 51.57 7.535 52.762 9.375 53.594 C 11.215 54.426 13.25 54.844 15.5 54.844 C 18.312 54.844 20.816 54.223 23.031 52.969 C 25.246 51.715 26.961 49.961 28.156 47.688 L 28.281 47.688 L 28.281 54 L 32.781 54 L 32.781 0.719 L 28.281 0.719 Z M 17.313 21.063 C 18.93 21.063 20.434 21.352 21.781 21.938 C 23.129 22.523 24.289 23.336 25.25 24.344 C 26.211 25.352 26.961 26.516 27.5 27.875 C 28.039 29.234 28.281 30.711 28.281 32.281 L 28.281 38.281 C 28.281 40.039 28.02 41.703 27.469 43.25 C 26.918 44.797 26.145 46.133 25.125 47.281 C 24.105 48.43 22.84 49.344 21.375 50 C 19.91 50.656 18.266 50.969 16.438 50.969 C 14.75 50.969 13.227 50.656 11.844 50 C 10.461 49.344 9.277 48.398 8.281 47.156 C 7.285 45.914 6.508 44.367 5.969 42.563 C 5.43 40.758 5.156 38.742 5.156 36.469 C 5.156 34.055 5.465 31.898 6.063 30 C 6.66 28.102 7.496 26.48 8.563 25.156 C 9.629 23.832 10.906 22.828 12.406 22.125 C 13.906 21.422 15.531 21.063 17.313 21.063 Z " stroke-width="1"/>
    </g>
  </g>
</svg>