<svg version="1.1" width="61.37900161743164" height="19.381999969482422" viewBox="-0.04800000786781311 0.11299997568130493 61.37900161743164 19.381999969482422" xmlns="http://www.w3.org/2000/svg" xmlns:xlink="http://www.w3.org/1999/xlink">
  <!-- Exported by Scratch - http://scratch.mit.edu/ -->
  <path id="ID0.21885209809988737" fill="#b3b3b3" d="M 0.452 0.613 L 60.831 0.613 L 60.831 18.995 L 0.452 18.995 L 0.452 0.613 Z " stroke-width="1"/>
  <path id="ID0.3019680501893163" fill="#fff" d="M 6.609 14.079 L 6.609 5.489 L 9.568 5.489 C 10.236 5.489 10.746 5.53 11.097 5.612 C 11.59 5.725 12.009 5.931 12.357 6.227 C 12.81 6.61 13.149 7.099 13.374 7.695 C 13.598 8.291 13.711 8.972 13.711 9.737 C 13.711 10.389 13.634 10.968 13.482 11.472 C 13.33 11.975 13.134 12.392 12.896 12.723 C 12.658 13.053 12.397 13.312 12.114 13.502 C 11.831 13.691 11.489 13.835 11.089 13.932 C 10.688 14.03 10.228 14.079 9.709 14.079 L 6.609 14.079 Z M 7.746 13.065 L 9.58 13.065 C 10.146 13.065 10.591 13.013 10.913 12.907 C 11.235 12.802 11.492 12.653 11.683 12.462 C 11.953 12.192 12.163 11.83 12.313 11.375 C 12.464 10.92 12.539 10.368 12.539 9.72 C 12.539 8.821 12.391 8.131 12.096 7.648 C 11.801 7.166 11.443 6.843 11.021 6.679 C 10.716 6.561 10.226 6.503 9.55 6.503 L 7.746 6.503 L 7.746 13.065 Z " stroke-width="1"/>
  <path id="ID0.7504236376844347" fill="#fff" d="M 19.4 12.075 L 20.49 12.21 C 20.318 12.847 20 13.341 19.535 13.692 C 19.07 14.044 18.476 14.22 17.754 14.22 C 16.843 14.22 16.122 13.939 15.589 13.379 C 15.055 12.818 14.789 12.032 14.789 11.02 C 14.789 9.973 15.058 9.161 15.597 8.583 C 16.136 8.005 16.836 7.716 17.695 7.716 C 18.527 7.716 19.207 7.999 19.734 8.565 C 20.261 9.132 20.525 9.929 20.525 10.956 C 20.525 11.018 20.523 11.112 20.519 11.237 L 15.879 11.237 C 15.918 11.921 16.111 12.444 16.459 12.807 C 16.806 13.171 17.24 13.352 17.759 13.352 C 18.146 13.352 18.476 13.251 18.75 13.048 C 19.023 12.845 19.24 12.52 19.4 12.075 Z M 15.937 10.37 L 19.412 10.37 C 19.365 9.847 19.232 9.454 19.013 9.192 C 18.677 8.786 18.242 8.583 17.707 8.583 C 17.222 8.583 16.815 8.745 16.485 9.069 C 16.155 9.393 15.972 9.827 15.937 10.37 Z " stroke-width="1"/>
  <path id="ID0.6139410645700991" fill="#fff" d="M 21.791 5.489 L 22.846 5.489 L 22.846 14.079 L 21.791 14.079 L 21.791 5.489 Z " stroke-width="1"/>
  <path id="ID0.70353614538908" fill="#fff" d="M 28.74 12.075 L 29.83 12.21 C 29.658 12.847 29.34 13.341 28.875 13.692 C 28.41 14.044 27.816 14.22 27.093 14.22 C 26.183 14.22 25.462 13.939 24.928 13.379 C 24.395 12.818 24.129 12.032 24.129 11.02 C 24.129 9.973 24.398 9.161 24.937 8.583 C 25.476 8.005 26.175 7.716 27.035 7.716 C 27.867 7.716 28.547 7.999 29.074 8.565 C 29.601 9.132 29.865 9.929 29.865 10.956 C 29.865 11.018 29.863 11.112 29.859 11.237 L 25.218 11.237 C 25.258 11.921 25.451 12.444 25.799 12.807 C 26.146 13.171 26.58 13.352 27.099 13.352 C 27.486 13.352 27.816 13.251 28.09 13.048 C 28.363 12.845 28.58 12.52 28.74 12.075 Z M 25.277 10.37 L 28.752 10.37 C 28.705 9.847 28.572 9.454 28.353 9.192 C 28.017 8.786 27.582 8.583 27.047 8.583 C 26.562 8.583 26.155 8.745 25.825 9.069 C 25.495 9.393 25.312 9.827 25.277 10.37 Z " stroke-width="1"/>
  <path id="ID0.1729326588101685" fill="#fff" d="M 33.457 13.136 L 33.609 14.067 C 33.312 14.13 33.047 14.161 32.812 14.161 C 32.429 14.161 32.133 14.1 31.922 13.979 C 31.711 13.858 31.562 13.699 31.476 13.502 C 31.39 13.305 31.347 12.889 31.347 12.257 L 31.347 8.677 L 30.574 8.677 L 30.574 7.856 L 31.347 7.856 L 31.347 6.315 L 32.396 5.682 L 32.396 7.856 L 33.457 7.856 L 33.457 8.677 L 32.396 8.677 L 32.396 12.315 C 32.396 12.616 32.415 12.809 32.452 12.895 C 32.489 12.981 32.549 13.05 32.633 13.1 C 32.717 13.151 32.838 13.177 32.994 13.177 C 33.111 13.177 33.265 13.163 33.457 13.136 Z " stroke-width="1"/>
  <path id="ID0.8691123872995377" fill="#fff" d="M 38.748 12.075 L 39.838 12.21 C 39.666 12.847 39.347 13.341 38.883 13.692 C 38.418 14.044 37.824 14.22 37.101 14.22 C 36.191 14.22 35.469 13.939 34.936 13.379 C 34.403 12.818 34.136 12.032 34.136 11.02 C 34.136 9.973 34.406 9.161 34.945 8.583 C 35.484 8.005 36.183 7.716 37.043 7.716 C 37.875 7.716 38.554 7.999 39.082 8.565 C 39.609 9.132 39.873 9.929 39.873 10.956 C 39.873 11.018 39.871 11.112 39.867 11.237 L 35.226 11.237 C 35.265 11.921 35.459 12.444 35.806 12.807 C 36.154 13.171 36.588 13.352 37.107 13.352 C 37.494 13.352 37.824 13.251 38.097 13.048 C 38.371 12.845 38.588 12.52 38.748 12.075 Z M 35.285 10.37 L 38.759 10.37 C 38.713 9.847 38.58 9.454 38.361 9.192 C 38.025 8.786 37.59 8.583 37.054 8.583 C 36.57 8.583 36.163 8.745 35.833 9.069 C 35.503 9.393 35.32 9.827 35.285 10.37 Z " stroke-width="1"/>
</svg>