<svg version="1.1" width="26.382146363555616" height="26.382146363555616" viewBox="-0.1891233350332705 -0.5641233350332705 26.382146363555616 26.382146363555616" xmlns="http://www.w3.org/2000/svg" xmlns:xlink="http://www.w3.org/1999/xlink">
  <!-- Exported by Scratch - http://scratch.mit.edu/ -->
  <g id="ID0.43583501782268286">
    <g id="Import Button">
      <g id="ID0.34550251672044396">
        <path id="ID0.34250478586182" fill="white" d="M 13.0019 0.251 C 16.4167 0.251 19.5106 1.6381 21.7507 3.8781 C 23.9907 6.1182 25.3779 9.2122 25.3779 12.6269 C 25.3779 16.0417 23.9907 19.1356 21.7507 21.3757 C 19.5106 23.6157 16.4167 25.0029 13.0019 25.0029 C 9.5872 25.0029 6.4932 23.6157 4.2531 21.3757 C 2.0131 19.1356 0.626 16.0417 0.626 12.6269 C 0.626 9.2122 2.0131 6.1182 4.2531 3.8781 C 6.4932 1.6381 9.5872 0.251 13.0019 0.251 Z " stroke-width="1.0313301086425781"/>
      </g>
      <g id="ID0.2806255049072206">
        <path id="ID0.36815641541033983" fill="white" stroke="#65A8E7" stroke-width="1.6071397066116333" d="M 17.857 12.6709 C 17.857 10.0103 15.6962 7.8495 13.0356 7.8495 C 10.375 7.8495 8.2142 10.0103 8.2142 12.6709 C 8.2142 15.3315 10.375 17.4923 13.0356 17.4923 C 15.6962 17.4923 17.857 15.3315 17.857 12.6709 Z "/>
      </g>
      <g id="ID0.6572859580628574">
        <path id="ID0.3015272398479283" fill="white" d="M 6.3678 5.9695 L 19.6344 5.9695 L 19.6344 13.8465 L 6.3678 13.8465 L 6.3678 5.9695 Z " stroke-width="1.6302466443173345"/>
      </g>
      <g id="ID0.23064333340153098">
        <path id="ID0.5340106915682554" fill="white" stroke="#65A8E7" stroke-width="1.3896100945770742" stroke-linecap="square" stroke-linejoin="miter" d="M 12.9681 13.4804 L 11.1255 11.6378 L 12.9681 13.4804 L 14.8107 11.6378 L 12.9681 13.4804 Z "/>
      </g>
      <g id="ID0.4287469550035894">
        <path id="ID0.6730629252269864" fill="none" stroke="#65A8E7" stroke-width="1.5207533836364746" stroke-linecap="butt" d="M 13.0018 7.2759 L 13.0018 13.0031 "/>
      </g>
    </g>
  </g>
</svg>