<svg width="102.11400604248047" height="14.907999992370605" viewBox="-0.5000052452087402 -0.5 102.11400604248047 14.907999992370605" version="1.1" style="fill-rule:evenodd;clip-rule:evenodd;stroke-linecap:round;stroke-miterlimit:1.41421;" xml:space="preserve" xmlns="http://www.w3.org/2000/svg" xmlns:xlink="http://www.w3.org/1999/xlink">
  <g>
    <g id="1">
      <path d="M101.114,6.954c0,-3.838 -3.116,-6.954 -6.954,-6.954l-87.206,0c-3.838,0 -6.954,3.116 -6.954,6.954c0,3.838 3.116,6.954 6.954,6.954l87.206,0c3.838,0 6.954,-3.116 6.954,-6.954Z" style="fill:#9fd3ff;" stroke-width="1"/>
      <path d="M6.776,10.156l-1.572,-5.923l0.804,0l0.901,3.882c0.097,0.407 0.181,0.811 0.251,1.213c0.151,-0.633 0.24,-0.998 0.266,-1.095l1.128,-4l0.945,0l0.849,2.998c0.213,0.743 0.366,1.442 0.46,2.097c0.076,-0.375 0.174,-0.804 0.295,-1.289l0.93,-3.806l0.787,0l-1.624,5.923l-0.755,0l-1.249,-4.513c-0.105,-0.377 -0.167,-0.609 -0.186,-0.695c-0.062,0.272 -0.12,0.503 -0.173,0.695l-1.257,4.513l-0.8,0Z" style="fill:#fff;fill-rule:nonzero;" stroke-width="1"/>
      <path d="M15.952,9.627c-0.27,0.229 -0.529,0.39 -0.778,0.484c-0.249,0.095 -0.516,0.142 -0.802,0.142c-0.471,0 -0.834,-0.115 -1.087,-0.346c-0.253,-0.23 -0.38,-0.524 -0.38,-0.882c0,-0.211 0.048,-0.402 0.144,-0.576c0.095,-0.174 0.221,-0.313 0.376,-0.418c0.154,-0.105 0.329,-0.185 0.523,-0.239c0.143,-0.037 0.358,-0.074 0.646,-0.109c0.587,-0.07 1.02,-0.153 1.297,-0.25c0.003,-0.1 0.004,-0.163 0.004,-0.19c0,-0.297 -0.068,-0.505 -0.206,-0.627c-0.186,-0.164 -0.462,-0.246 -0.828,-0.246c-0.342,0 -0.595,0.06 -0.758,0.18c-0.163,0.12 -0.283,0.332 -0.361,0.636l-0.711,-0.097c0.064,-0.304 0.171,-0.55 0.319,-0.737c0.148,-0.187 0.362,-0.331 0.642,-0.432c0.28,-0.102 0.605,-0.152 0.974,-0.152c0.366,0 0.664,0.043 0.893,0.129c0.229,0.086 0.397,0.195 0.505,0.326c0.108,0.13 0.183,0.295 0.226,0.495c0.024,0.123 0.037,0.347 0.037,0.67l0,0.97c0,0.676 0.015,1.104 0.046,1.283c0.031,0.179 0.092,0.351 0.184,0.515l-0.76,0c-0.075,-0.151 -0.124,-0.327 -0.145,-0.529ZM15.891,8.002c-0.264,0.108 -0.66,0.2 -1.188,0.275c-0.299,0.043 -0.51,0.092 -0.634,0.146c-0.124,0.053 -0.22,0.132 -0.287,0.236c-0.067,0.104 -0.101,0.219 -0.101,0.345c0,0.194 0.074,0.356 0.22,0.485c0.147,0.13 0.362,0.194 0.645,0.194c0.28,0 0.529,-0.061 0.747,-0.184c0.218,-0.122 0.379,-0.29 0.481,-0.503c0.078,-0.164 0.117,-0.406 0.117,-0.727l0,-0.267Z" style="fill:#fff;fill-rule:nonzero;" stroke-width="1"/>
      <path d="M17.722,11.808l-0.081,-0.682c0.159,0.043 0.297,0.064 0.416,0.064c0.162,0 0.291,-0.027 0.388,-0.081c0.097,-0.053 0.176,-0.129 0.238,-0.226c0.046,-0.073 0.12,-0.253 0.222,-0.541c0.014,-0.041 0.035,-0.1 0.065,-0.178l-1.628,-4.299l0.784,0l0.893,2.485c0.115,0.315 0.219,0.646 0.311,0.994c0.083,-0.334 0.183,-0.66 0.299,-0.978l0.917,-2.501l0.727,0l-1.632,4.364c-0.175,0.471 -0.311,0.796 -0.408,0.973c-0.13,0.24 -0.278,0.416 -0.445,0.528c-0.167,0.111 -0.366,0.167 -0.598,0.167c-0.14,0 -0.296,-0.029 -0.468,-0.089Z" style="fill:#fff;fill-rule:nonzero;" stroke-width="1"/>
      <path d="M25.778,9.505l0.105,0.643c-0.204,0.043 -0.388,0.064 -0.549,0.064c-0.264,0 -0.469,-0.041 -0.614,-0.125c-0.146,-0.083 -0.248,-0.193 -0.307,-0.329c-0.06,-0.136 -0.089,-0.422 -0.089,-0.859l0,-2.468l-0.534,0l0,-0.566l0.534,0l0,-1.063l0.723,-0.436l0,1.499l0.731,0l0,0.566l-0.731,0l0,2.509c0,0.207 0.013,0.34 0.038,0.4c0.026,0.059 0.068,0.106 0.126,0.141c0.057,0.035 0.14,0.053 0.248,0.053c0.081,0 0.187,-0.01 0.319,-0.029Z" style="fill:#fff;fill-rule:nonzero;" stroke-width="1"/>
      <path d="M26.219,8.01c0,-0.794 0.221,-1.383 0.662,-1.765c0.369,-0.318 0.819,-0.477 1.35,-0.477c0.59,0 1.072,0.193 1.446,0.58c0.375,0.386 0.562,0.92 0.562,1.602c0,0.552 -0.083,0.986 -0.249,1.303c-0.165,0.316 -0.406,0.562 -0.723,0.737c-0.316,0.175 -0.662,0.263 -1.036,0.263c-0.601,0 -1.086,-0.193 -1.457,-0.578c-0.37,-0.385 -0.555,-0.94 -0.555,-1.665ZM26.966,8.01c0,0.55 0.12,0.961 0.36,1.235c0.239,0.273 0.541,0.41 0.905,0.41c0.361,0 0.661,-0.137 0.901,-0.412c0.24,-0.275 0.359,-0.694 0.359,-1.257c0,-0.53 -0.12,-0.932 -0.361,-1.206c-0.241,-0.273 -0.541,-0.41 -0.899,-0.41c-0.364,0 -0.666,0.136 -0.905,0.408c-0.24,0.272 -0.36,0.683 -0.36,1.232Z" style="fill:#fff;fill-rule:nonzero;" stroke-width="1"/>
      <path d="M30.821,8.01c0,-0.794 0.221,-1.383 0.662,-1.765c0.369,-0.318 0.819,-0.477 1.35,-0.477c0.59,0 1.072,0.193 1.446,0.58c0.375,0.386 0.562,0.92 0.562,1.602c0,0.552 -0.083,0.986 -0.248,1.303c-0.166,0.316 -0.407,0.562 -0.724,0.737c-0.316,0.175 -0.662,0.263 -1.036,0.263c-0.601,0 -1.086,-0.193 -1.457,-0.578c-0.37,-0.385 -0.555,-0.94 -0.555,-1.665ZM31.568,8.01c0,0.55 0.12,0.961 0.36,1.235c0.24,0.273 0.541,0.41 0.905,0.41c0.361,0 0.661,-0.137 0.901,-0.412c0.24,-0.275 0.36,-0.694 0.36,-1.257c0,-0.53 -0.121,-0.932 -0.362,-1.206c-0.241,-0.273 -0.541,-0.41 -0.899,-0.41c-0.364,0 -0.665,0.136 -0.905,0.408c-0.24,0.272 -0.36,0.683 -0.36,1.232Z" style="fill:#fff;fill-rule:nonzero;" stroke-width="1"/>
      <path d="M37.993,10.156l0,-5.923l0.727,0l0,2.125c0.339,-0.393 0.768,-0.59 1.285,-0.59c0.318,0 0.594,0.063 0.828,0.188c0.234,0.125 0.402,0.298 0.503,0.519c0.101,0.221 0.152,0.541 0.152,0.962l0,2.719l-0.728,0l0,-2.719c0,-0.364 -0.079,-0.629 -0.236,-0.794c-0.158,-0.166 -0.381,-0.249 -0.669,-0.249c-0.215,0 -0.418,0.056 -0.608,0.168c-0.19,0.112 -0.325,0.263 -0.406,0.454c-0.081,0.192 -0.121,0.456 -0.121,0.792l0,2.348l-0.727,0Z" style="fill:#fff;fill-rule:nonzero;" stroke-width="1"/>
      <path d="M45.395,9.627c-0.27,0.229 -0.529,0.39 -0.778,0.484c-0.249,0.095 -0.517,0.142 -0.802,0.142c-0.472,0 -0.834,-0.115 -1.087,-0.346c-0.253,-0.23 -0.38,-0.524 -0.38,-0.882c0,-0.211 0.048,-0.402 0.144,-0.576c0.095,-0.174 0.22,-0.313 0.375,-0.418c0.155,-0.105 0.33,-0.185 0.524,-0.239c0.142,-0.037 0.358,-0.074 0.646,-0.109c0.587,-0.07 1.02,-0.153 1.297,-0.25c0.003,-0.1 0.004,-0.163 0.004,-0.19c0,-0.297 -0.069,-0.505 -0.206,-0.627c-0.186,-0.164 -0.462,-0.246 -0.828,-0.246c-0.342,0 -0.595,0.06 -0.758,0.18c-0.163,0.12 -0.283,0.332 -0.361,0.636l-0.712,-0.097c0.065,-0.304 0.171,-0.55 0.32,-0.737c0.148,-0.187 0.362,-0.331 0.642,-0.432c0.28,-0.102 0.605,-0.152 0.974,-0.152c0.366,0 0.664,0.043 0.893,0.129c0.229,0.086 0.397,0.195 0.505,0.326c0.108,0.13 0.183,0.295 0.226,0.495c0.024,0.123 0.036,0.347 0.036,0.67l0,0.97c0,0.676 0.016,1.104 0.047,1.283c0.031,0.179 0.092,0.351 0.184,0.515l-0.76,0c-0.075,-0.151 -0.124,-0.327 -0.145,-0.529ZM45.334,8.002c-0.264,0.108 -0.66,0.2 -1.188,0.275c-0.299,0.043 -0.51,0.092 -0.634,0.146c-0.124,0.053 -0.22,0.132 -0.287,0.236c-0.067,0.104 -0.101,0.219 -0.101,0.345c0,0.194 0.073,0.356 0.22,0.485c0.147,0.13 0.362,0.194 0.645,0.194c0.28,0 0.529,-0.061 0.747,-0.184c0.218,-0.122 0.379,-0.29 0.481,-0.503c0.078,-0.164 0.117,-0.406 0.117,-0.727l0,-0.267Z" style="fill:#fff;fill-rule:nonzero;" stroke-width="1"/>
      <path d="M47.189,10.156l0,-4.291l0.654,0l0,0.65c0.167,-0.304 0.321,-0.505 0.463,-0.602c0.141,-0.097 0.297,-0.145 0.466,-0.145c0.246,0 0.495,0.078 0.748,0.234l-0.251,0.675c-0.177,-0.105 -0.355,-0.157 -0.533,-0.157c-0.159,0 -0.302,0.047 -0.428,0.143c-0.127,0.096 -0.217,0.228 -0.271,0.398c-0.081,0.259 -0.121,0.541 -0.121,0.848l0,2.247l-0.727,0Z" style="fill:#fff;fill-rule:nonzero;" stroke-width="1"/>
      <path d="M52.736,10.156l0,-0.541c-0.272,0.425 -0.672,0.638 -1.2,0.638c-0.342,0 -0.656,-0.094 -0.943,-0.283c-0.287,-0.188 -0.509,-0.452 -0.667,-0.79c-0.158,-0.338 -0.236,-0.726 -0.236,-1.166c0,-0.428 0.071,-0.816 0.214,-1.165c0.143,-0.349 0.357,-0.616 0.642,-0.802c0.286,-0.186 0.605,-0.279 0.958,-0.279c0.258,0 0.489,0.055 0.691,0.164c0.202,0.109 0.366,0.251 0.493,0.426l0,-2.125l0.723,0l0,5.923l-0.675,0ZM50.437,8.014c0,0.55 0.116,0.961 0.348,1.233c0.231,0.272 0.505,0.408 0.82,0.408c0.318,0 0.588,-0.13 0.81,-0.39c0.222,-0.26 0.333,-0.657 0.333,-1.19c0,-0.587 -0.113,-1.018 -0.339,-1.293c-0.226,-0.275 -0.505,-0.412 -0.836,-0.412c-0.324,0 -0.594,0.132 -0.811,0.396c-0.216,0.264 -0.325,0.68 -0.325,1.248Z" style="fill:#fff;fill-rule:nonzero;" stroke-width="1"/>
      <path d="M57.027,10.156l0,-3.725l-0.642,0l0,-0.566l0.642,0l0,-0.457c0,-0.288 0.026,-0.502 0.077,-0.642c0.07,-0.189 0.193,-0.341 0.37,-0.459c0.176,-0.117 0.423,-0.175 0.741,-0.175c0.205,0 0.431,0.024 0.679,0.072l-0.109,0.635c-0.151,-0.027 -0.294,-0.041 -0.429,-0.041c-0.22,0 -0.377,0.047 -0.468,0.142c-0.092,0.094 -0.138,0.27 -0.138,0.529l0,0.396l0.837,0l0,0.566l-0.837,0l0,3.725l-0.723,0Z" style="fill:#fff;fill-rule:nonzero;" stroke-width="1"/>
      <path d="M58.882,8.01c0,-0.794 0.221,-1.383 0.662,-1.765c0.369,-0.318 0.819,-0.477 1.35,-0.477c0.59,0 1.072,0.193 1.446,0.58c0.375,0.386 0.562,0.92 0.562,1.602c0,0.552 -0.083,0.986 -0.249,1.303c-0.165,0.316 -0.406,0.562 -0.723,0.737c-0.316,0.175 -0.662,0.263 -1.036,0.263c-0.601,0 -1.086,-0.193 -1.457,-0.578c-0.37,-0.385 -0.555,-0.94 -0.555,-1.665ZM59.629,8.01c0,0.55 0.12,0.961 0.36,1.235c0.24,0.273 0.541,0.41 0.905,0.41c0.361,0 0.661,-0.137 0.901,-0.412c0.24,-0.275 0.36,-0.694 0.36,-1.257c0,-0.53 -0.121,-0.932 -0.362,-1.206c-0.241,-0.273 -0.541,-0.41 -0.899,-0.41c-0.364,0 -0.665,0.136 -0.905,0.408c-0.24,0.272 -0.36,0.683 -0.36,1.232Z" style="fill:#fff;fill-rule:nonzero;" stroke-width="1"/>
      <path d="M63.746,10.156l0,-4.291l0.655,0l0,0.65c0.167,-0.304 0.321,-0.505 0.463,-0.602c0.141,-0.097 0.297,-0.145 0.466,-0.145c0.245,0 0.495,0.078 0.748,0.234l-0.251,0.675c-0.178,-0.105 -0.355,-0.157 -0.533,-0.157c-0.159,0 -0.302,0.047 -0.428,0.143c-0.127,0.096 -0.217,0.228 -0.271,0.398c-0.081,0.259 -0.121,0.541 -0.121,0.848l0,2.247l-0.728,0Z" style="fill:#fff;fill-rule:nonzero;" stroke-width="1"/>
      <path d="M68.809,10.156l0,-4.291l0.651,0l0,0.602c0.134,-0.21 0.313,-0.379 0.537,-0.507c0.224,-0.128 0.478,-0.192 0.764,-0.192c0.318,0 0.578,0.066 0.782,0.198c0.203,0.132 0.346,0.316 0.43,0.554c0.339,-0.501 0.781,-0.752 1.325,-0.752c0.426,0 0.753,0.118 0.982,0.354c0.229,0.235 0.343,0.598 0.343,1.088l0,2.946l-0.723,0l0,-2.703c0,-0.291 -0.023,-0.5 -0.071,-0.628c-0.047,-0.128 -0.132,-0.231 -0.256,-0.31c-0.124,-0.078 -0.27,-0.117 -0.437,-0.117c-0.301,0 -0.552,0.101 -0.751,0.301c-0.199,0.201 -0.299,0.522 -0.299,0.964l0,2.493l-0.727,0l0,-2.788c0,-0.323 -0.06,-0.566 -0.178,-0.727c-0.119,-0.162 -0.313,-0.243 -0.582,-0.243c-0.205,0 -0.394,0.054 -0.568,0.162c-0.173,0.108 -0.299,0.265 -0.377,0.473c-0.079,0.207 -0.118,0.506 -0.118,0.897l0,2.226l-0.727,0Z" style="fill:#fff;fill-rule:nonzero;" stroke-width="1"/>
      <path d="M78.64,8.774l0.751,0.093c-0.118,0.439 -0.338,0.78 -0.658,1.022c-0.321,0.243 -0.73,0.364 -1.229,0.364c-0.627,0 -1.125,-0.193 -1.493,-0.58c-0.367,-0.386 -0.551,-0.929 -0.551,-1.626c0,-0.722 0.186,-1.282 0.557,-1.681c0.372,-0.399 0.854,-0.598 1.447,-0.598c0.574,0 1.042,0.195 1.406,0.586c0.364,0.39 0.545,0.94 0.545,1.648c0,0.043 -0.001,0.108 -0.004,0.194l-3.2,0c0.027,0.472 0.161,0.833 0.4,1.083c0.24,0.251 0.539,0.376 0.897,0.376c0.267,0 0.495,-0.07 0.683,-0.21c0.189,-0.14 0.338,-0.364 0.449,-0.671ZM76.252,7.598l2.396,0c-0.033,-0.361 -0.124,-0.631 -0.275,-0.812c-0.232,-0.28 -0.532,-0.42 -0.901,-0.42c-0.334,0 -0.615,0.112 -0.843,0.335c-0.227,0.224 -0.353,0.523 -0.377,0.897Z" style="fill:#fff;fill-rule:nonzero;" stroke-width="1"/>
      <rect x="80.51" y="9.328" width="0.828" height="0.828" style="fill:#fff;fill-rule:nonzero;" stroke-width="1"/>
      <rect x="82.809" y="9.328" width="0.828" height="0.828" style="fill:#fff;fill-rule:nonzero;" stroke-width="1"/>
      <rect x="85.108" y="9.328" width="0.828" height="0.828" style="fill:#fff;fill-rule:nonzero;" stroke-width="1"/>
    </g>
    <g id="Concerned emoji">
      <circle cx="92.592" cy="6.954" r="4.164" style="fill:#ffca59;" stroke-width="1"/>
      <g id="Face">
        <ellipse cx="90.963" cy="6.927" rx="0.681" ry="0.402" style="fill:#000;" stroke-width="1"/>
        <ellipse cx="94.222" cy="6.927" rx="0.681" ry="0.402" style="fill:#000;" stroke-width="1"/>
        <path d="M90.203,7.181c-0.076,0.077 -0.117,0.164 -0.117,0.253c0,0.279 0.393,0.506 0.877,0.506c0.483,0 0.876,-0.227 0.876,-0.506c0,-0.089 -0.04,-0.176 -0.117,-0.253l-1.519,0Z" style="fill:#ffca59;" stroke-width="1"/>
        <path d="M93.462,7.181c-0.076,0.077 -0.117,0.164 -0.117,0.253c0,0.279 0.393,0.506 0.877,0.506c0.483,0 0.876,-0.227 0.876,-0.506c0,-0.089 -0.04,-0.176 -0.117,-0.253l-1.519,0Z" style="fill:#ffca59;" stroke-width="1"/>
      </g>
      <path d="M95.017,4.46c0,0 -0.476,0.705 -0.476,1.007c0,0.262 0.213,0.476 0.476,0.476c0.262,0 0.476,-0.214 0.476,-0.476c0,-0.302 -0.476,-1.007 -0.476,-1.007Z" style="fill:#65a8e7;" stroke-width="1"/>
      <path d="M93.881,4.141c0,0 -0.34,0.504 -0.34,0.72c0,0.188 0.152,0.34 0.34,0.34c0.188,0 0.341,-0.152 0.341,-0.34c0,-0.216 -0.341,-0.72 -0.341,-0.72Z" style="fill:#65a8e7;" stroke-width="1"/>
      <path d="M90.963,8.131l3.259,0" style="fill:none;stroke-width:0.5px;stroke:#000;" stroke-width="1"/>
    </g>
  </g>
</svg>