<svg version="1.1" width="112.97999572753906" height="70.45799255371094" viewBox="-1.4900000002235174 -1.2290000021457672 112.97999572753906 70.45799255371094" xmlns="http://www.w3.org/2000/svg" xmlns:xlink="http://www.w3.org/1999/xlink">
  <!-- Exported by Scratch - http://scratch.mit.edu/ -->
  <g id="Cloud">
    <path id="ID0.10257419291883707" fill="#E75310" d="M 35.234 11.074 C 41.019 4.455 49.522 0.271 58.994 0.271 C 75.400 0.271 88.897 12.820 90.403 28.835 C 90.449 28.834 90.496 28.834 90.542 28.834 C 101.276 28.834 109.990 37.548 109.990 48.282 C 109.990 58.928 101.417 67.588 90.803 67.727 L 90.803 67.729 L 20.768 67.729 C 9.311 67.729 0.010 58.428 0.010 46.971 C 0.010 37.359 6.557 29.264 15.431 26.907 C 15.424 26.710 15.420 26.512 15.420 26.313 C 15.420 17.612 22.484 10.548 31.185 10.548 C 32.584 10.548 33.941 10.731 35.234 11.074 Z " stroke-width="1"/>
    <g id="Face (Group)">
      <path id="ID0.5064337574876845" fill="#FFFFFF" d="M 40.971 31.169 C 41.944 31.169 42.826 31.564 43.465 32.203 C 44.104 32.842 44.499 33.724 44.499 34.697 C 44.499 35.670 44.104 36.552 43.465 37.191 C 42.826 37.830 41.944 38.225 40.971 38.225 C 39.998 38.225 39.116 37.830 38.477 37.191 C 37.838 36.552 37.443 35.670 37.443 34.697 C 37.443 33.724 37.838 32.842 38.477 32.203 C 39.116 31.564 39.998 31.169 40.971 31.169 Z " stroke-width="1"/>
      <path id="ID0.39806610252708197" fill="#FFFFFF" d="M 66.624 31.169 C 67.597 31.169 68.479 31.564 69.118 32.203 C 69.757 32.842 70.152 33.724 70.152 34.697 C 70.152 35.670 69.757 36.552 69.118 37.191 C 68.479 37.830 67.597 38.225 66.624 38.225 C 65.651 38.225 64.769 37.830 64.130 37.191 C 63.491 36.552 63.096 35.670 63.096 34.697 C 63.096 33.724 63.491 32.842 64.130 32.203 C 64.769 31.564 65.651 31.169 66.624 31.169 Z " stroke-width="1"/>
      <path id="ID0.7170575591735542" fill="none" stroke="#FFFFFF" stroke-width="3" d="M 44.531 49.486 C 44.531 49.486 47.897 52.620 53.694 52.620 C 59.491 52.620 63.096 49.486 63.096 49.486 "/>
    </g>
  </g>
</svg>