<svg version="1.1" width="33.68699645996094" height="53.90599822998047" viewBox="0.343999981880188 -0.5 33.68699645996094 53.90599822998047" xmlns="http://www.w3.org/2000/svg" xmlns:xlink="http://www.w3.org/1999/xlink">
  <!-- Exported by Scratch - http://scratch.mit.edu/ -->
  <g id="ID0.05811418918892741">
    <g id="layer1">
      <path id="path3387" fill="#666666" stroke="none" d="M 0.844 0 L 14.688 35.813 L 11.563 43.219 C 10.766 45.094 9.84 46.48 8.75 47.406 C 7.66 48.332 6.383 48.813 4.906 48.813 C 4.367 48.813 3.809 48.75 3.281 48.656 C 2.754 48.563 2.234 48.438 1.719 48.25 L 1.719 52.469 C 2.609 52.773 3.711 52.906 5 52.906 C 7.602 52.906 9.797 52.074 11.625 50.375 C 13.453 48.676 15.094 46.047 16.5 42.531 L 33.531 0 L 28.813 0 L 17.875 28.656 C 17.687 29.148 17.543 29.59 17.438 30 C 17.332 30.41 17.211 30.82 17.094 31.219 L 16.906 31.219 C 16.789 30.75 16.66 30.262 16.531 29.781 C 16.402 29.301 16.297 28.875 16.156 28.5 L 5.844 0 L 0.844 0 Z " stroke-width="1"/>
    </g>
  </g>
</svg>