<svg version="1.1" width="21.540061950683594" height="21.540061950683594" viewBox="-2.6872811540961266 -2.7315811552107334 21.540061950683594 21.540061950683594" xmlns="http://www.w3.org/2000/svg" xmlns:xlink="http://www.w3.org/1999/xlink">
  <!-- Exported by Scratch - http://scratch.mit.edu/ -->
  <g id="Cat">
    <path id="Body" fill="#c3c3c3" d="M 16.077 4.0414 C 16.077 1.8374 14.2838 0.0442 12.0798 0.0442 L 4.0856 0.0442 C 1.8816 0.0442 0.0885 1.8374 0.0885 4.0414 L 0.0885 12.0356 C 0.0885 14.2451 1.8816 16.0327 4.0856 16.0327 L 12.0798 16.0327 C 14.2838 16.0327 16.077 14.2451 16.077 12.0356 L 16.077 4.0414 Z " stroke-width="5.551562309265137"/>
    <path id="ID0.5558646051213145" fill="#cfcfcf" d="M 8.1715 0.3385 C 10.2978 0.3385 12.2186 1.199 13.6121 2.598 C 15.0111 3.9914 15.8716 5.9122 15.8716 8.0385 C 15.8716 10.1647 15.0111 12.0856 13.6121 13.479 C 12.2186 14.878 10.2978 15.7385 8.1715 15.7385 C 6.0453 15.7385 4.1245 14.878 2.731 13.479 C 1.332 12.0856 0.4715 10.1647 0.4715 8.0385 C 0.4715 5.9122 1.332 3.9914 2.731 2.598 C 4.1245 1.199 6.0453 0.3385 8.1715 0.3385 Z " stroke-width="5.551562309265137"/>
    <g id="Cat1">
      <path id="ID0.2995657925494015" fill="none" stroke="#39393e" stroke-width="0.5551562309265137" d="M 8.1715 11.164 C 8.1715 11.164 8.1882 12.3576 9.3707 12.3631 C 10.5587 12.3687 10.5698 11.164 10.5698 11.164 "/>
      <path id="ID0.09025097172707319" fill="none" stroke="#39393e" stroke-width="0.5551562309265137" d="M 8.166 11.164 C 8.166 11.164 8.1493 12.3576 6.9669 12.3631 C 5.7844 12.3687 5.7733 11.164 5.7733 11.164 "/>
      <path id="ID0.2698584240861237" fill="#fff" d="M 5.5845 5.6957 C 6.0453 5.6957 6.4617 5.8845 6.767 6.1843 C 7.0668 6.4896 7.2555 6.906 7.2555 7.3667 C 7.2555 7.8275 7.0668 8.2439 6.767 8.5492 C 6.4617 8.849 6.0453 9.0378 5.5845 9.0378 C 5.1237 9.0378 4.7074 8.849 4.402 8.5492 C 4.1022 8.2439 3.9135 7.8275 3.9135 7.3667 C 3.9135 6.906 4.1022 6.4896 4.402 6.1843 C 4.7074 5.8845 5.1237 5.6957 5.5845 5.6957 Z " stroke-width="5.551562309265137"/>
      <path id="ID0.5734958248212934" fill="#fff" d="M 10.5809 5.6957 C 11.0417 5.6957 11.4581 5.8845 11.7634 6.1843 C 12.0632 6.4896 12.2519 6.906 12.2519 7.3667 C 12.2519 7.8275 12.0632 8.2439 11.7634 8.5492 C 11.4581 8.849 11.0417 9.0378 10.5809 9.0378 C 10.1201 9.0378 9.7038 8.849 9.3984 8.5492 C 9.0987 8.2439 8.9099 7.8275 8.9099 7.3667 C 8.9099 6.906 9.0987 6.4896 9.3984 6.1843 C 9.7038 5.8845 10.1201 5.6957 10.5809 5.6957 Z " stroke-width="5.551562309265137"/>
      <path id="ID0.2547289617359638" fill="#000" d="M 5.5845 6.2897 C 5.8843 6.2897 6.1508 6.4119 6.3451 6.6062 C 6.5394 6.8005 6.6615 7.067 6.6615 7.3667 C 6.6615 7.6665 6.5394 7.933 6.3451 8.1273 C 6.1508 8.3216 5.8843 8.4437 5.5845 8.4437 C 5.2847 8.4437 5.0183 8.3216 4.8239 8.1273 C 4.6296 7.933 4.5075 7.6665 4.5075 7.3667 C 4.5075 7.067 4.6296 6.8005 4.8239 6.6062 C 5.0183 6.4119 5.2847 6.2897 5.5845 6.2897 Z " stroke-width="5.551562309265137"/>
      <path id="ID0.49566113762557507" fill="#000" d="M 10.5809 6.2897 C 10.8807 6.2897 11.1472 6.4119 11.3415 6.6062 C 11.5358 6.8005 11.6579 7.067 11.6579 7.3667 C 11.6579 7.6665 11.5358 7.933 11.3415 8.1273 C 11.1472 8.3216 10.8807 8.4437 10.5809 8.4437 C 10.2811 8.4437 10.0147 8.3216 9.8204 8.1273 C 9.626 7.933 9.5039 7.6665 9.5039 7.3667 C 9.5039 7.067 9.626 6.8005 9.8204 6.6062 C 10.0147 6.4119 10.2811 6.2897 10.5809 6.2897 Z " stroke-width="5.551562309265137"/>
      <path id="ID0.02249221783131361" fill="#cfcfcf" d="M 7.3166 9.7872 C 7.4887 9.6373 7.5831 9.4652 7.5831 9.2876 C 7.5831 8.738 6.6893 8.2883 5.5845 8.2883 C 4.4798 8.2883 3.5859 8.738 3.5859 9.2876 C 3.5859 9.4652 3.6803 9.6373 3.8524 9.7872 L 7.3166 9.7872 Z " stroke-width="5.551562309265137"/>
      <path id="ID0.13288332056254148" fill="#cfcfcf" d="M 12.313 9.7872 C 12.4851 9.6373 12.5795 9.4652 12.5795 9.2876 C 12.5795 8.738 11.6857 8.2883 10.5809 8.2883 C 9.4762 8.2883 8.5824 8.738 8.5824 9.2876 C 8.5824 9.4652 8.6767 9.6373 8.8488 9.7872 L 12.313 9.7872 Z " stroke-width="5.551562309265137"/>
      <path id="ID0.6373752998188138" fill="#000" d="M 8.1715 11.164 C 7.8384 11.164 7.0057 10.3313 7.1723 10.1647 C 7.3388 9.9982 9.0043 9.9982 9.1708 10.1647 C 9.3374 10.3313 8.5046 11.164 8.1715 11.164 Z " stroke-width="5.551562309265137"/>
      <path id="ID0.5910126538947225" fill="#cacaca" d="M 5.8121 6.745 C 5.8732 6.745 5.9343 6.7727 5.9731 6.8116 C 6.012 6.8504 6.0397 6.9115 6.0397 6.9726 C 6.0397 7.0336 6.012 7.0947 5.9731 7.1336 C 5.9343 7.1724 5.8732 7.2002 5.8121 7.2002 C 5.7511 7.2002 5.69 7.1724 5.6511 7.1336 C 5.6123 7.0947 5.5845 7.0336 5.5845 6.9726 C 5.5845 6.9115 5.6123 6.8504 5.6511 6.8116 C 5.69 6.7727 5.7511 6.745 5.8121 6.745 Z " stroke-width="5.551562309265137"/>
      <path id="ID0.04346789559349418" fill="#cacaca" d="M 5.2348 7.2057 C 5.318 7.2057 5.3958 7.2391 5.4568 7.2946 C 5.5123 7.3556 5.5457 7.4334 5.5457 7.5166 C 5.5457 7.5999 5.5123 7.6776 5.4568 7.7387 C 5.3958 7.7942 5.318 7.8275 5.2348 7.8275 C 5.1515 7.8275 5.0738 7.7942 5.0127 7.7387 C 4.9572 7.6776 4.9239 7.5999 4.9239 7.5166 C 4.9239 7.4334 4.9572 7.3556 5.0127 7.2946 C 5.0738 7.2391 5.1515 7.2057 5.2348 7.2057 Z " stroke-width="5.551562309265137"/>
      <path id="ID0.7401463147252798" fill="#cacaca" d="M 10.2312 7.2057 C 10.3144 7.2057 10.3922 7.2391 10.4532 7.2946 C 10.5087 7.3556 10.5421 7.4334 10.5421 7.5166 C 10.5421 7.5999 10.5087 7.6776 10.4532 7.7387 C 10.3922 7.7942 10.3144 7.8275 10.2312 7.8275 C 10.1479 7.8275 10.0702 7.7942 10.0091 7.7387 C 9.9536 7.6776 9.9203 7.5999 9.9203 7.5166 C 9.9203 7.4334 9.9536 7.3556 10.0091 7.2946 C 10.0702 7.2391 10.1479 7.2057 10.2312 7.2057 Z " stroke-width="5.551562309265137"/>
      <path id="ID0.2764342022128403" fill="#cacaca" d="M 10.8085 6.745 C 10.8696 6.745 10.9307 6.7727 10.9695 6.8116 C 11.0084 6.8504 11.0361 6.9115 11.0361 6.9726 C 11.0361 7.0336 11.0084 7.0947 10.9695 7.1336 C 10.9307 7.1724 10.8696 7.2002 10.8085 7.2002 C 10.7475 7.2002 10.6864 7.1724 10.6475 7.1336 C 10.6087 7.0947 10.5809 7.0336 10.5809 6.9726 C 10.5809 6.9115 10.6087 6.8504 10.6475 6.8116 C 10.6864 6.7727 10.7475 6.745 10.8085 6.745 Z " stroke-width="5.551562309265137"/>
      <path id="ID0.789449876639992" fill="#808080" d="M 12.7349 2.4869 C 13.1513 2.4869 13.4455 4.5854 13.34 5.0073 C 13.229 5.4292 12.0798 5.0073 12.0798 5.0073 C 12.0798 5.0073 10.7086 5.4292 10.8196 5.0073 C 10.9251 4.5854 12.313 2.4869 12.7349 2.4869 Z " stroke-width="5.551562309265137"/>
      <path id="ID0.5468046548776329" fill="#dda6c7" d="M 12.5517 3.253 C 12.7793 3.253 12.9403 4.38 12.8793 4.6021 C 12.8237 4.8297 12.202 4.6021 12.202 4.6021 C 12.202 4.6021 11.4692 4.8297 11.5302 4.6021 C 11.5858 4.38 12.3297 3.253 12.5517 3.253 Z " stroke-width="5.551562309265137"/>
      <path id="ID0.9901867713779211" fill="#808080" d="M 3.6137 2.4869 C 3.1918 2.4869 2.8976 4.5854 3.003 5.0073 C 3.1141 5.4292 4.2688 5.0073 4.2688 5.0073 C 4.2688 5.0073 5.6345 5.4292 5.529 5.0073 C 5.418 4.5854 4.0301 2.4869 3.6137 2.4869 Z " stroke-width="5.551562309265137"/>
      <path id="ID0.7702642884105444" fill="#dda6c7" d="M 3.7914 3.253 C 3.5637 3.253 3.4083 4.38 3.4638 4.6021 C 3.5249 4.8297 4.1411 4.6021 4.1411 4.6021 C 4.1411 4.6021 4.8739 4.8297 4.8184 4.6021 C 4.7573 4.38 4.0134 3.253 3.7914 3.253 Z " stroke-width="5.551562309265137"/>
      <path id="ID0.6801743237301707" fill="none" stroke="#555" stroke-width="0.27757811546325684" stroke-linejoin="miter" d="M 5.5845 9.7872 L 3.5859 9.7872 "/>
      <path id="ID0.2228782009333372" fill="none" stroke="#555" stroke-width="0.27757811546325684" stroke-linejoin="miter" d="M 10.5809 9.7872 L 12.5795 9.7872 "/>
      <path id="ID0.25511022796854377" fill="none" stroke="#555" stroke-width="0.27757811546325684" stroke-linejoin="miter" d="M 5.7788 10.2869 L 4.0467 11.2861 "/>
      <path id="ID0.8973520388826728" fill="none" stroke="#555" stroke-width="0.27757811546325684" stroke-linejoin="miter" d="M 10.3866 10.2869 L 12.1187 11.2861 "/>
    </g>
  </g>
</svg>