<svg width="25.9714523771598" height="25.971482894737925" viewBox="0.014196563800471185 0.011664558490412591 25.9714523771598 25.971482894737925" version="1.1" xmlns="http://www.w3.org/2000/svg" xmlns:xlink="http://www.w3.org/1999/xlink" xml:space="preserve" style="fill-rule:evenodd;clip-rule:evenodd;stroke-linejoin:round;stroke-miterlimit:1.41421;">
    <g>
        <g>
            <g id="Music Toggle">
                <g>
                    <circle cx="24" cy="336" r="12" style="fill:white;" stroke-width="1" transform="matrix(1.0313301599999998,0,0,1.0313301599999998,-11.75200000000001,-333.52951)"/>
                </g>
                <g id="Note">
                    <g>
                        <path d="M 9.8888 8.0247 L 9.8888 15.3824 C 9.5252 15.1729 9.1062 15.0435 8.6563 15.0435 C 7.2945 15.0435 6.3424 16.4436 7.1916 17.5084 C 8.3156 18.9171 11.1212 18.8703 11.1212 17.5084 L 11.1212 10.4896 L 17.6193 9.4895 L 17.6193 7.0246 L 9.8888 8.0247 Z " style="fill:rgb(101,168,231);fill-rule:nonzero;" stroke-width="0.616226619644048"/>
                    </g>
                    <g>
                        <path d="M 16.371 8.8808 L 16.387 14.2981 C 16.0234 14.0886 15.6044 13.9591 15.1545 13.9591 C 13.7927 13.9591 12.8727 15.3346 13.6898 16.4241 C 14.8631 17.9887 17.6195 17.7859 17.6195 16.4241 L 17.6195 8.8808 L 16.371 8.8808 Z " style="fill:rgb(101,168,231);fill-rule:nonzero;" stroke-width="0.616226619644048"/>
                    </g>
                </g>
                <g>
                    <path d="M 7.0251 7.0237 L 18.9738 18.9723 " style="fill:none;stroke-width:1.14px;stroke:rgb(234,95,97);" stroke-width="1.2195297697379248"/>
                </g>
            </g>
        </g>
    </g>
</svg>