<svg version="1.1" width="372.8760070800781" height="76.10299682617188" viewBox="0.2929999828338623 0.3410000205039978 372.8760070800781 76.10299682617188" xmlns="http://www.w3.org/2000/svg" xmlns:xlink="http://www.w3.org/1999/xlink">
  <!-- Exported by Scratch - http://scratch.mit.edu/ -->
  <path id="ID0.4894436136819422" fill="#fff" d="M 1.909 30.357 L 1.909 21.052 L 5.419 21.052 C 6.037 21.052 6.509 21.081 6.834 21.14 C 7.291 21.217 7.674 21.362 7.983 21.575 C 8.292 21.789 8.541 22.088 8.729 22.473 C 8.917 22.859 9.012 23.282 9.012 23.743 C 9.012 24.534 8.76 25.204 8.256 25.752 C 7.753 26.3 6.843 26.574 5.527 26.574 L 3.14 26.574 L 3.14 30.357 L 1.909 30.357 Z M 3.14 25.476 L 5.546 25.476 C 6.341 25.476 6.906 25.328 7.241 25.032 C 7.575 24.735 7.742 24.318 7.742 23.781 C 7.742 23.392 7.644 23.058 7.447 22.781 C 7.25 22.504 6.991 22.321 6.669 22.232 C 6.462 22.177 6.079 22.15 5.52 22.15 L 3.14 22.15 L 3.14 25.476 Z " stroke-width="1"/>
  <path id="ID0.4279614291153848" fill="#fff" d="M 14.832 29.526 C 14.409 29.885 14.002 30.139 13.61 30.287 C 13.219 30.436 12.799 30.51 12.35 30.51 C 11.61 30.51 11.041 30.329 10.643 29.967 C 10.245 29.605 10.046 29.143 10.046 28.58 C 10.046 28.25 10.121 27.948 10.272 27.675 C 10.422 27.402 10.619 27.183 10.862 27.018 C 11.105 26.853 11.379 26.728 11.684 26.644 C 11.908 26.585 12.247 26.527 12.7 26.472 C 13.622 26.362 14.301 26.231 14.737 26.079 C 14.741 25.922 14.744 25.823 14.744 25.781 C 14.744 25.315 14.636 24.987 14.42 24.797 C 14.128 24.539 13.694 24.409 13.119 24.409 C 12.581 24.409 12.184 24.504 11.928 24.692 C 11.672 24.88 11.483 25.213 11.36 25.692 L 10.243 25.539 C 10.345 25.061 10.512 24.675 10.745 24.381 C 10.977 24.087 11.314 23.86 11.754 23.702 C 12.194 23.543 12.704 23.464 13.284 23.464 C 13.859 23.464 14.327 23.531 14.686 23.667 C 15.046 23.802 15.311 23.973 15.48 24.178 C 15.649 24.383 15.768 24.642 15.835 24.955 C 15.873 25.15 15.892 25.501 15.892 26.009 L 15.892 27.533 C 15.892 28.595 15.917 29.266 15.965 29.548 C 16.014 29.829 16.11 30.099 16.254 30.357 L 15.061 30.357 C 14.942 30.12 14.866 29.843 14.832 29.526 Z M 14.737 26.974 C 14.322 27.143 13.7 27.287 12.871 27.406 C 12.401 27.473 12.069 27.549 11.874 27.634 C 11.68 27.719 11.53 27.842 11.424 28.005 C 11.318 28.168 11.265 28.349 11.265 28.548 C 11.265 28.853 11.38 29.107 11.611 29.31 C 11.842 29.513 12.179 29.615 12.623 29.615 C 13.064 29.615 13.455 29.518 13.798 29.326 C 14.141 29.133 14.392 28.87 14.553 28.535 C 14.676 28.277 14.737 27.896 14.737 27.393 L 14.737 26.974 Z " stroke-width="1"/>
  <path id="ID0.9081174051389098" fill="#fff" d="M 17.206 28.345 L 18.336 28.167 C 18.4 28.62 18.576 28.967 18.866 29.208 C 19.156 29.45 19.561 29.57 20.082 29.57 C 20.607 29.57 20.996 29.463 21.25 29.25 C 21.504 29.036 21.631 28.785 21.631 28.497 C 21.631 28.239 21.519 28.036 21.294 27.888 C 21.138 27.786 20.748 27.657 20.126 27.501 C 19.288 27.289 18.708 27.106 18.384 26.952 C 18.06 26.797 17.815 26.584 17.648 26.311 C 17.48 26.038 17.397 25.736 17.397 25.406 C 17.397 25.106 17.466 24.827 17.603 24.571 C 17.741 24.315 17.928 24.103 18.165 23.933 C 18.343 23.802 18.585 23.691 18.892 23.6 C 19.199 23.509 19.528 23.464 19.879 23.464 C 20.408 23.464 20.872 23.54 21.272 23.692 C 21.672 23.845 21.967 24.051 22.158 24.311 C 22.348 24.571 22.479 24.919 22.551 25.355 L 21.434 25.508 C 21.383 25.161 21.236 24.89 20.993 24.695 C 20.749 24.5 20.406 24.403 19.961 24.403 C 19.437 24.403 19.062 24.49 18.838 24.663 C 18.613 24.837 18.501 25.04 18.501 25.273 C 18.501 25.421 18.548 25.554 18.641 25.673 C 18.734 25.795 18.88 25.897 19.079 25.977 C 19.193 26.02 19.53 26.117 20.088 26.269 C 20.897 26.485 21.46 26.662 21.78 26.799 C 22.099 26.937 22.35 27.137 22.532 27.399 C 22.714 27.662 22.805 27.987 22.805 28.377 C 22.805 28.758 22.694 29.116 22.472 29.453 C 22.25 29.789 21.929 30.049 21.51 30.233 C 21.091 30.418 20.617 30.51 20.088 30.51 C 19.212 30.51 18.545 30.328 18.086 29.964 C 17.626 29.6 17.333 29.06 17.206 28.345 Z " stroke-width="1"/>
  <path id="ID0.39790808130055666" fill="#fff" d="M 26.658 29.335 L 26.823 30.345 C 26.502 30.412 26.214 30.446 25.96 30.446 C 25.545 30.446 25.224 30.38 24.995 30.249 C 24.766 30.118 24.606 29.946 24.513 29.732 C 24.419 29.518 24.373 29.069 24.373 28.383 L 24.373 24.505 L 23.535 24.505 L 23.535 23.616 L 24.373 23.616 L 24.373 21.947 L 25.509 21.261 L 25.509 23.616 L 26.658 23.616 L 26.658 24.505 L 25.509 24.505 L 25.509 28.447 C 25.509 28.772 25.529 28.982 25.569 29.075 C 25.61 29.168 25.675 29.242 25.766 29.297 C 25.857 29.352 25.987 29.38 26.157 29.38 C 26.284 29.38 26.451 29.365 26.658 29.335 Z " stroke-width="1"/>
  <path id="ID0.9994236556813121" fill="#fff" d="M 32.39 28.186 L 33.571 28.332 C 33.384 29.022 33.04 29.557 32.536 29.938 C 32.032 30.319 31.389 30.51 30.606 30.51 C 29.62 30.51 28.839 30.206 28.261 29.599 C 27.683 28.991 27.394 28.14 27.394 27.044 C 27.394 25.91 27.686 25.029 28.27 24.403 C 28.854 23.777 29.612 23.464 30.543 23.464 C 31.444 23.464 32.181 23.77 32.752 24.384 C 33.323 24.998 33.609 25.861 33.609 26.974 C 33.609 27.042 33.607 27.143 33.602 27.279 L 28.575 27.279 C 28.617 28.019 28.827 28.586 29.204 28.98 C 29.58 29.373 30.05 29.57 30.613 29.57 C 31.032 29.57 31.389 29.46 31.685 29.24 C 31.982 29.02 32.217 28.669 32.39 28.186 Z M 28.639 26.339 L 32.403 26.339 C 32.352 25.772 32.208 25.347 31.971 25.063 C 31.607 24.623 31.135 24.403 30.556 24.403 C 30.031 24.403 29.59 24.579 29.232 24.93 C 28.874 25.281 28.677 25.751 28.639 26.339 Z " stroke-width="1"/>
  <path id="ID0.8976518292911351" fill="#fff" d="M 43.016 29.526 C 42.593 29.885 42.186 30.139 41.794 30.287 C 41.403 30.436 40.983 30.51 40.534 30.51 C 39.794 30.51 39.224 30.329 38.827 29.967 C 38.429 29.605 38.23 29.143 38.23 28.58 C 38.23 28.25 38.305 27.948 38.455 27.675 C 38.605 27.402 38.802 27.183 39.046 27.018 C 39.289 26.853 39.563 26.728 39.868 26.644 C 40.092 26.585 40.43 26.527 40.883 26.472 C 41.806 26.362 42.485 26.231 42.921 26.079 C 42.925 25.922 42.927 25.823 42.927 25.781 C 42.927 25.315 42.819 24.987 42.603 24.797 C 42.311 24.539 41.878 24.409 41.302 24.409 C 40.765 24.409 40.368 24.504 40.112 24.692 C 39.856 24.88 39.667 25.213 39.544 25.692 L 38.427 25.539 C 38.528 25.061 38.695 24.675 38.928 24.381 C 39.161 24.087 39.497 23.86 39.937 23.702 C 40.377 23.543 40.887 23.464 41.467 23.464 C 42.043 23.464 42.51 23.531 42.87 23.667 C 43.23 23.802 43.494 23.973 43.663 24.178 C 43.833 24.383 43.951 24.642 44.019 24.955 C 44.057 25.15 44.076 25.501 44.076 26.009 L 44.076 27.533 C 44.076 28.595 44.1 29.266 44.149 29.548 C 44.198 29.829 44.294 30.099 44.438 30.357 L 43.245 30.357 C 43.126 30.12 43.05 29.843 43.016 29.526 Z M 42.921 26.974 C 42.506 27.143 41.884 27.287 41.055 27.406 C 40.585 27.473 40.253 27.549 40.058 27.634 C 39.863 27.719 39.713 27.842 39.607 28.005 C 39.502 28.168 39.449 28.349 39.449 28.548 C 39.449 28.853 39.564 29.107 39.795 29.31 C 40.025 29.513 40.363 29.615 40.807 29.615 C 41.247 29.615 41.639 29.518 41.981 29.326 C 42.324 29.133 42.576 28.87 42.737 28.535 C 42.859 28.277 42.921 27.896 42.921 27.393 L 42.921 26.974 Z " stroke-width="1"/>
  <path id="ID0.4883523597382009" fill="#fff" d="M 49.433 21.052 L 50.576 21.052 L 50.576 30.358 L 49.433 30.358 L 49.433 21.052 Z " stroke-width="1"/>
  <path id="ID0.7919696192257106" fill="#fff" d="M 56.962 28.186 L 58.142 28.332 C 57.956 29.022 57.611 29.557 57.108 29.938 C 56.604 30.319 55.961 30.51 55.178 30.51 C 54.192 30.51 53.41 30.206 52.833 29.599 C 52.255 28.991 51.966 28.14 51.966 27.044 C 51.966 25.91 52.258 25.029 52.842 24.403 C 53.426 23.777 54.184 23.464 55.115 23.464 C 56.016 23.464 56.752 23.77 57.324 24.384 C 57.895 24.998 58.181 25.861 58.181 26.974 C 58.181 27.042 58.178 27.143 58.174 27.279 L 53.147 27.279 C 53.189 28.019 53.399 28.586 53.775 28.98 C 54.152 29.373 54.622 29.57 55.184 29.57 C 55.603 29.57 55.961 29.46 56.257 29.24 C 56.553 29.02 56.788 28.669 56.962 28.186 Z M 53.21 26.339 L 56.975 26.339 C 56.924 25.772 56.78 25.347 56.543 25.063 C 56.179 24.623 55.707 24.403 55.127 24.403 C 54.603 24.403 54.161 24.579 53.804 24.93 C 53.446 25.281 53.248 25.751 53.21 26.339 Z " stroke-width="1"/>
  <path id="ID0.061925283167511225" fill="#fff" d="M 61.45 30.357 L 58.885 23.616 L 60.091 23.616 L 61.538 27.653 C 61.695 28.089 61.839 28.542 61.97 29.012 C 62.072 28.656 62.213 28.229 62.395 27.729 L 63.893 23.616 L 65.068 23.616 L 62.516 30.357 L 61.45 30.357 Z " stroke-width="1"/>
  <path id="ID0.5798181393183768" fill="#fff" d="M 70.692 28.186 L 71.872 28.332 C 71.686 29.022 71.341 29.557 70.838 29.938 C 70.334 30.319 69.691 30.51 68.908 30.51 C 67.922 30.51 67.14 30.206 66.563 29.599 C 65.985 28.991 65.696 28.14 65.696 27.044 C 65.696 25.91 65.988 25.029 66.572 24.403 C 67.156 23.777 67.914 23.464 68.845 23.464 C 69.746 23.464 70.482 23.77 71.054 24.384 C 71.625 24.998 71.911 25.861 71.911 26.974 C 71.911 27.042 71.908 27.143 71.904 27.279 L 66.877 27.279 C 66.919 28.019 67.129 28.586 67.505 28.98 C 67.882 29.373 68.352 29.57 68.914 29.57 C 69.333 29.57 69.691 29.46 69.987 29.24 C 70.283 29.02 70.518 28.669 70.692 28.186 Z M 66.94 26.339 L 70.704 26.339 C 70.654 25.772 70.51 25.347 70.273 25.063 C 69.909 24.623 69.437 24.403 68.857 24.403 C 68.333 24.403 67.891 24.579 67.534 24.93 C 67.176 25.281 66.978 25.751 66.94 26.339 Z " stroke-width="1"/>
  <path id="ID0.5589291164651513" fill="#fff" d="M 73.282 21.052 L 74.425 21.052 L 74.425 30.358 L 73.282 30.358 L 73.282 21.052 Z " stroke-width="1"/>
  <path id="ID0.12675806507468224" fill="#fff" d="M 84.206 27.888 L 85.329 28.034 C 85.207 28.808 84.893 29.415 84.387 29.853 C 83.881 30.291 83.26 30.51 82.524 30.51 C 81.601 30.51 80.86 30.208 80.299 29.605 C 79.738 29.002 79.458 28.138 79.458 27.012 C 79.458 26.284 79.579 25.647 79.82 25.101 C 80.061 24.555 80.428 24.146 80.921 23.873 C 81.414 23.6 81.95 23.464 82.53 23.464 C 83.262 23.464 83.861 23.649 84.327 24.019 C 84.792 24.389 85.09 24.915 85.222 25.596 L 84.111 25.768 C 84.005 25.315 83.818 24.974 83.549 24.746 C 83.28 24.517 82.955 24.403 82.575 24.403 C 81.999 24.403 81.531 24.609 81.172 25.022 C 80.812 25.435 80.632 26.087 80.632 26.98 C 80.632 27.886 80.806 28.544 81.153 28.954 C 81.5 29.365 81.953 29.57 82.511 29.57 C 82.96 29.57 83.334 29.433 83.635 29.158 C 83.935 28.882 84.126 28.459 84.206 27.888 Z " stroke-width="1"/>
  <path id="ID0.6037653349339962" fill="#fff" d="M 85.882 26.987 C 85.882 25.738 86.229 24.814 86.923 24.213 C 87.502 23.713 88.209 23.464 89.043 23.464 C 89.97 23.464 90.727 23.767 91.315 24.375 C 91.904 24.982 92.198 25.821 92.198 26.891 C 92.198 27.759 92.068 28.441 91.807 28.939 C 91.547 29.436 91.168 29.822 90.671 30.097 C 90.174 30.372 89.631 30.51 89.043 30.51 C 88.099 30.51 87.336 30.207 86.755 29.602 C 86.173 28.997 85.882 28.125 85.882 26.987 Z M 87.056 26.987 C 87.056 27.85 87.244 28.496 87.621 28.926 C 87.998 29.355 88.472 29.57 89.043 29.57 C 89.61 29.57 90.082 29.354 90.458 28.923 C 90.835 28.491 91.023 27.833 91.023 26.949 C 91.023 26.115 90.834 25.483 90.455 25.054 C 90.076 24.624 89.606 24.409 89.043 24.409 C 88.472 24.409 87.998 24.623 87.621 25.051 C 87.244 25.478 87.056 26.123 87.056 26.987 Z " stroke-width="1"/>
  <path id="ID0.4241746454499662" fill="#fff" d="M 97.911 30.357 L 97.911 29.507 C 97.483 30.175 96.855 30.51 96.025 30.51 C 95.488 30.51 94.994 30.361 94.543 30.065 C 94.092 29.769 93.743 29.355 93.496 28.824 C 93.248 28.293 93.124 27.683 93.124 26.993 C 93.124 26.32 93.237 25.71 93.461 25.162 C 93.685 24.614 94.022 24.194 94.47 23.902 C 94.919 23.61 95.42 23.464 95.975 23.464 C 96.381 23.464 96.743 23.549 97.06 23.721 C 97.377 23.892 97.635 24.115 97.834 24.39 L 97.834 21.052 L 98.971 21.052 L 98.971 30.357 L 97.911 30.357 Z M 94.299 26.993 C 94.299 27.856 94.481 28.502 94.845 28.929 C 95.209 29.356 95.638 29.57 96.133 29.57 C 96.633 29.57 97.057 29.366 97.406 28.958 C 97.755 28.549 97.93 27.926 97.93 27.088 C 97.93 26.166 97.752 25.489 97.396 25.057 C 97.041 24.625 96.603 24.409 96.082 24.409 C 95.575 24.409 95.15 24.617 94.81 25.032 C 94.469 25.446 94.299 26.1 94.299 26.993 Z " stroke-width="1"/>
  <path id="ID0.8388251373544335" fill="#fff" d="M 105.382 28.186 L 106.562 28.332 C 106.376 29.022 106.031 29.557 105.528 29.938 C 105.024 30.319 104.381 30.51 103.598 30.51 C 102.612 30.51 101.83 30.206 101.253 29.599 C 100.675 28.991 100.386 28.14 100.386 27.044 C 100.386 25.91 100.678 25.029 101.262 24.403 C 101.846 23.777 102.604 23.464 103.535 23.464 C 104.436 23.464 105.172 23.77 105.744 24.384 C 106.315 24.998 106.6 25.861 106.6 26.974 C 106.6 27.042 106.598 27.143 106.594 27.279 L 101.567 27.279 C 101.609 28.019 101.819 28.586 102.195 28.98 C 102.572 29.373 103.042 29.57 103.604 29.57 C 104.023 29.57 104.381 29.46 104.677 29.24 C 104.973 29.02 105.208 28.669 105.382 28.186 Z M 101.63 26.339 L 105.394 26.339 C 105.344 25.772 105.2 25.347 104.963 25.063 C 104.599 24.623 104.127 24.403 103.547 24.403 C 103.023 24.403 102.581 24.579 102.224 24.93 C 101.866 25.281 101.668 25.751 101.63 26.339 Z " stroke-width="1"/>
  <path id="ID0.8488972936756909" fill="#fff" d="M 111.615 22.366 L 111.615 21.052 L 112.758 21.052 L 112.758 22.366 L 111.615 22.366 Z M 111.615 30.357 L 111.615 23.616 L 112.758 23.616 L 112.758 30.357 L 111.615 30.357 Z " stroke-width="1"/>
  <path id="ID0.21414268296211958" fill="#fff" d="M 114.497 30.357 L 114.497 23.616 L 115.525 23.616 L 115.525 24.575 C 116.02 23.834 116.736 23.464 117.671 23.464 C 118.077 23.464 118.45 23.537 118.791 23.683 C 119.132 23.829 119.387 24.02 119.556 24.257 C 119.725 24.494 119.844 24.776 119.912 25.101 C 119.954 25.313 119.975 25.683 119.975 26.212 L 119.975 30.357 L 118.832 30.357 L 118.832 26.257 C 118.832 25.791 118.788 25.443 118.699 25.212 C 118.61 24.982 118.453 24.798 118.226 24.66 C 118 24.523 117.734 24.454 117.43 24.454 C 116.943 24.454 116.523 24.608 116.17 24.917 C 115.816 25.226 115.64 25.812 115.64 26.676 L 115.64 30.357 L 114.497 30.357 Z " stroke-width="1"/>
  <path id="ID0.10840688040480018" fill="#fff" d="M 127.833 29.335 L 127.998 30.345 C 127.677 30.412 127.389 30.446 127.135 30.446 C 126.72 30.446 126.399 30.38 126.17 30.249 C 125.942 30.118 125.781 29.946 125.688 29.732 C 125.595 29.518 125.548 29.069 125.548 28.383 L 125.548 24.505 L 124.71 24.505 L 124.71 23.616 L 125.548 23.616 L 125.548 21.947 L 126.684 21.261 L 126.684 23.616 L 127.833 23.616 L 127.833 24.505 L 126.684 24.505 L 126.684 28.447 C 126.684 28.772 126.705 28.982 126.745 29.075 C 126.785 29.168 126.851 29.242 126.942 29.297 C 127.033 29.352 127.163 29.38 127.332 29.38 C 127.459 29.38 127.626 29.365 127.833 29.335 Z " stroke-width="1"/>
  <path id="ID0.9594609490595758" fill="#fff" d="M 128.951 30.357 L 128.951 21.052 L 130.093 21.052 L 130.093 24.39 C 130.626 23.773 131.299 23.464 132.112 23.464 C 132.611 23.464 133.045 23.562 133.413 23.759 C 133.781 23.956 134.045 24.227 134.203 24.575 C 134.362 24.922 134.441 25.425 134.441 26.085 L 134.441 30.357 L 133.299 30.357 L 133.299 26.085 C 133.299 25.514 133.175 25.098 132.927 24.838 C 132.68 24.578 132.33 24.448 131.877 24.448 C 131.538 24.448 131.22 24.535 130.922 24.711 C 130.623 24.887 130.411 25.125 130.284 25.425 C 130.157 25.726 130.093 26.14 130.093 26.669 L 130.093 30.357 L 128.951 30.357 Z " stroke-width="1"/>
  <path id="ID0.3439840944483876" fill="#fff" d="M 140.795 28.186 L 141.976 28.332 C 141.79 29.022 141.445 29.557 140.941 29.938 C 140.438 30.319 139.794 30.51 139.012 30.51 C 138.026 30.51 137.244 30.206 136.666 29.599 C 136.089 28.991 135.8 28.14 135.8 27.044 C 135.8 25.91 136.092 25.029 136.676 24.403 C 137.26 23.777 138.017 23.464 138.948 23.464 C 139.85 23.464 140.586 23.77 141.157 24.384 C 141.728 24.998 142.014 25.861 142.014 26.974 C 142.014 27.042 142.012 27.143 142.008 27.279 L 136.98 27.279 C 137.023 28.019 137.232 28.586 137.609 28.98 C 137.985 29.373 138.455 29.57 139.018 29.57 C 139.437 29.57 139.794 29.46 140.091 29.24 C 140.387 29.02 140.622 28.669 140.795 28.186 Z M 137.044 26.339 L 140.808 26.339 C 140.757 25.772 140.613 25.347 140.376 25.063 C 140.012 24.623 139.541 24.403 138.961 24.403 C 138.436 24.403 137.995 24.579 137.637 24.93 C 137.28 25.281 137.082 25.751 137.044 26.339 Z " stroke-width="1"/>
  <path id="ID0.6360137052834034" fill="#fff" d="M 151.396 30.357 L 151.396 29.507 C 150.968 30.175 150.34 30.51 149.511 30.51 C 148.973 30.51 148.479 30.361 148.028 30.065 C 147.578 29.769 147.229 29.355 146.981 28.824 C 146.734 28.293 146.61 27.683 146.61 26.993 C 146.61 26.32 146.722 25.71 146.946 25.162 C 147.17 24.614 147.507 24.194 147.955 23.902 C 148.404 23.61 148.905 23.464 149.46 23.464 C 149.866 23.464 150.228 23.549 150.545 23.721 C 150.863 23.892 151.121 24.115 151.32 24.39 L 151.32 21.052 L 152.456 21.052 L 152.456 30.357 L 151.396 30.357 Z M 147.784 26.993 C 147.784 27.856 147.966 28.502 148.33 28.929 C 148.694 29.356 149.123 29.57 149.619 29.57 C 150.118 29.57 150.542 29.366 150.891 28.958 C 151.24 28.549 151.415 27.926 151.415 27.088 C 151.415 26.166 151.237 25.489 150.882 25.057 C 150.526 24.625 150.088 24.409 149.568 24.409 C 149.06 24.409 148.636 24.617 148.295 25.032 C 147.954 25.446 147.784 26.1 147.784 26.993 Z " stroke-width="1"/>
  <path id="ID0.36670423904433846" fill="#fff" d="M 154.259 22.366 L 154.259 21.052 L 155.401 21.052 L 155.401 22.366 L 154.259 22.366 Z M 154.259 30.357 L 154.259 23.616 L 155.401 23.616 L 155.401 30.357 L 154.259 30.357 Z " stroke-width="1"/>
  <path id="ID0.14642060128971934" fill="#fff" d="M 161.539 29.526 C 161.116 29.885 160.709 30.139 160.318 30.287 C 159.926 30.436 159.506 30.51 159.058 30.51 C 158.317 30.51 157.748 30.329 157.35 29.967 C 156.952 29.605 156.753 29.143 156.753 28.58 C 156.753 28.25 156.828 27.948 156.979 27.675 C 157.129 27.402 157.326 27.183 157.569 27.018 C 157.812 26.853 158.086 26.728 158.391 26.644 C 158.615 26.585 158.954 26.527 159.407 26.472 C 160.329 26.362 161.008 26.231 161.444 26.079 C 161.448 25.922 161.451 25.823 161.451 25.781 C 161.451 25.315 161.343 24.987 161.127 24.797 C 160.835 24.539 160.401 24.409 159.826 24.409 C 159.288 24.409 158.891 24.504 158.635 24.692 C 158.379 24.88 158.19 25.213 158.067 25.692 L 156.95 25.539 C 157.052 25.061 157.219 24.675 157.452 24.381 C 157.684 24.087 158.021 23.86 158.461 23.702 C 158.901 23.543 159.411 23.464 159.991 23.464 C 160.566 23.464 161.034 23.531 161.393 23.667 C 161.753 23.802 162.018 23.973 162.187 24.178 C 162.356 24.383 162.475 24.642 162.542 24.955 C 162.58 25.15 162.6 25.501 162.6 26.009 L 162.6 27.533 C 162.6 28.595 162.624 29.266 162.672 29.548 C 162.721 29.829 162.817 30.099 162.961 30.357 L 161.768 30.357 C 161.649 30.12 161.573 29.843 161.539 29.526 Z M 161.444 26.974 C 161.03 27.143 160.407 27.287 159.578 27.406 C 159.108 27.473 158.776 27.549 158.581 27.634 C 158.387 27.719 158.237 27.842 158.131 28.005 C 158.025 28.168 157.972 28.349 157.972 28.548 C 157.972 28.853 158.087 29.107 158.318 29.31 C 158.549 29.513 158.886 29.615 159.33 29.615 C 159.771 29.615 160.162 29.518 160.505 29.326 C 160.848 29.133 161.099 28.87 161.26 28.535 C 161.383 28.277 161.444 27.896 161.444 27.393 L 161.444 26.974 Z " stroke-width="1"/>
  <path id="ID0.21493169572204351" fill="#fff" d="M 164.345 21.052 L 165.488 21.052 L 165.488 30.358 L 164.345 30.358 L 164.345 21.052 Z " stroke-width="1"/>
  <path id="ID0.22015009261667728" fill="#fff" d="M 166.833 26.987 C 166.833 25.738 167.18 24.814 167.874 24.213 C 168.454 23.713 169.161 23.464 169.995 23.464 C 170.921 23.464 171.679 23.767 172.267 24.375 C 172.855 24.982 173.149 25.821 173.149 26.891 C 173.149 27.759 173.019 28.441 172.759 28.939 C 172.499 29.436 172.12 29.822 171.623 30.097 C 171.125 30.372 170.583 30.51 169.995 30.51 C 169.051 30.51 168.288 30.207 167.706 29.602 C 167.124 28.997 166.833 28.125 166.833 26.987 Z M 168.008 26.987 C 168.008 27.85 168.196 28.496 168.573 28.926 C 168.949 29.355 169.423 29.57 169.995 29.57 C 170.562 29.57 171.033 29.354 171.41 28.923 C 171.787 28.491 171.975 27.833 171.975 26.949 C 171.975 26.115 171.786 25.483 171.407 25.054 C 171.028 24.624 170.557 24.409 169.995 24.409 C 169.423 24.409 168.949 24.623 168.573 25.051 C 168.196 25.478 168.008 26.123 168.008 26.987 Z " stroke-width="1"/>
  <path id="ID0.24374923994764686" fill="#fff" d="M 174.279 30.916 L 175.39 31.081 C 175.437 31.424 175.566 31.673 175.777 31.83 C 176.061 32.041 176.448 32.147 176.939 32.147 C 177.468 32.147 177.876 32.041 178.164 31.83 C 178.452 31.618 178.646 31.322 178.748 30.941 C 178.807 30.708 178.835 30.22 178.83 29.475 C 178.331 30.063 177.709 30.357 176.964 30.357 C 176.037 30.357 175.32 30.023 174.812 29.354 C 174.305 28.686 174.051 27.884 174.051 26.949 C 174.051 26.305 174.167 25.712 174.4 25.168 C 174.633 24.624 174.97 24.204 175.412 23.908 C 175.854 23.612 176.374 23.464 176.971 23.464 C 177.766 23.464 178.422 23.785 178.938 24.429 L 178.938 23.616 L 179.992 23.616 L 179.992 29.443 C 179.992 30.493 179.885 31.236 179.672 31.674 C 179.458 32.112 179.119 32.458 178.656 32.712 C 178.193 32.966 177.622 33.093 176.945 33.093 C 176.141 33.093 175.492 32.912 174.996 32.55 C 174.501 32.189 174.262 31.644 174.279 30.916 Z M 175.225 26.866 C 175.225 27.75 175.401 28.396 175.752 28.802 C 176.103 29.208 176.543 29.411 177.072 29.411 C 177.597 29.411 178.037 29.209 178.392 28.805 C 178.748 28.401 178.926 27.767 178.926 26.904 C 178.926 26.079 178.743 25.457 178.377 25.038 C 178.011 24.619 177.569 24.409 177.053 24.409 C 176.545 24.409 176.114 24.616 175.758 25.028 C 175.403 25.441 175.225 26.054 175.225 26.866 Z " stroke-width="1"/>
  <path id="ID0.31636489648371935" fill="#fff" d="M 186.137 30.357 L 186.137 29.367 C 185.612 30.129 184.899 30.51 183.997 30.51 C 183.6 30.51 183.228 30.433 182.883 30.281 C 182.539 30.129 182.283 29.937 182.115 29.707 C 181.948 29.476 181.831 29.193 181.763 28.859 C 181.717 28.635 181.693 28.279 181.693 27.793 L 181.693 23.616 L 182.836 23.616 L 182.836 27.355 C 182.836 27.951 182.859 28.353 182.906 28.561 C 182.978 28.861 183.13 29.097 183.363 29.269 C 183.595 29.44 183.883 29.526 184.226 29.526 C 184.569 29.526 184.89 29.438 185.191 29.262 C 185.491 29.087 185.704 28.848 185.829 28.545 C 185.954 28.242 186.016 27.803 186.016 27.228 L 186.016 23.616 L 187.159 23.616 L 187.159 30.357 L 186.137 30.357 Z " stroke-width="1"/>
  <path id="ID0.8161462331190705" fill="#fff" d="M 193.563 28.186 L 194.744 28.332 C 194.558 29.022 194.213 29.557 193.709 29.938 C 193.206 30.319 192.563 30.51 191.78 30.51 C 190.794 30.51 190.012 30.206 189.434 29.599 C 188.857 28.991 188.568 28.14 188.568 27.044 C 188.568 25.91 188.86 25.029 189.444 24.403 C 190.028 23.777 190.785 23.464 191.716 23.464 C 192.618 23.464 193.354 23.77 193.925 24.384 C 194.496 24.998 194.782 25.861 194.782 26.974 C 194.782 27.042 194.78 27.143 194.776 27.279 L 189.748 27.279 C 189.791 28.019 190 28.586 190.377 28.98 C 190.753 29.373 191.223 29.57 191.786 29.57 C 192.205 29.57 192.563 29.46 192.859 29.24 C 193.155 29.02 193.39 28.669 193.563 28.186 Z M 189.812 26.339 L 193.576 26.339 C 193.525 25.772 193.381 25.347 193.144 25.063 C 192.78 24.623 192.309 24.403 191.729 24.403 C 191.204 24.403 190.763 24.579 190.405 24.93 C 190.048 25.281 189.85 25.751 189.812 26.339 Z " stroke-width="1"/>
  <path id="ID0.49964390555396676" fill="#fff" d="M 200.844 30.357 L 199.784 30.357 L 199.784 21.052 L 200.927 21.052 L 200.927 24.371 C 201.409 23.766 202.025 23.464 202.774 23.464 C 203.189 23.464 203.581 23.547 203.951 23.714 C 204.322 23.882 204.626 24.116 204.865 24.419 C 205.104 24.722 205.292 25.087 205.427 25.514 C 205.563 25.941 205.63 26.398 205.63 26.885 C 205.63 28.04 205.345 28.933 204.773 29.564 C 204.202 30.194 203.516 30.51 202.717 30.51 C 201.921 30.51 201.297 30.177 200.844 29.513 L 200.844 30.357 Z M 200.831 26.936 C 200.831 27.744 200.941 28.328 201.162 28.688 C 201.521 29.276 202.008 29.57 202.621 29.57 C 203.121 29.57 203.552 29.353 203.916 28.919 C 204.28 28.486 204.462 27.839 204.462 26.98 C 204.462 26.1 204.288 25.45 203.939 25.032 C 203.589 24.613 203.167 24.403 202.672 24.403 C 202.173 24.403 201.741 24.62 201.377 25.054 C 201.013 25.488 200.831 26.115 200.831 26.936 Z " stroke-width="1"/>
  <path id="ID0.3833153061568737" fill="#fff" d="M 206.595 26.987 C 206.595 25.738 206.942 24.814 207.636 24.213 C 208.216 23.713 208.923 23.464 209.756 23.464 C 210.683 23.464 211.44 23.767 212.029 24.375 C 212.617 24.982 212.911 25.821 212.911 26.891 C 212.911 27.759 212.781 28.441 212.521 28.939 C 212.26 29.436 211.882 29.822 211.384 30.097 C 210.887 30.372 210.344 30.51 209.756 30.51 C 208.813 30.51 208.05 30.207 207.468 29.602 C 206.886 28.997 206.595 28.125 206.595 26.987 Z M 207.769 26.987 C 207.769 27.85 207.958 28.496 208.334 28.926 C 208.711 29.355 209.185 29.57 209.756 29.57 C 210.323 29.57 210.795 29.354 211.172 28.923 C 211.548 28.491 211.737 27.833 211.737 26.949 C 211.737 26.115 211.547 25.483 211.169 25.054 C 210.79 24.624 210.319 24.409 209.756 24.409 C 209.185 24.409 208.711 24.623 208.334 25.051 C 207.958 25.478 207.769 26.123 207.769 26.987 Z " stroke-width="1"/>
  <path id="ID0.07361082313582301" fill="#fff" d="M 213.489 30.357 L 215.952 26.853 L 213.673 23.616 L 215.101 23.616 L 216.136 25.197 C 216.33 25.497 216.487 25.749 216.605 25.952 C 216.792 25.673 216.963 25.425 217.12 25.209 L 218.256 23.616 L 219.62 23.616 L 217.291 26.79 L 219.798 30.357 L 218.395 30.357 L 217.012 28.262 L 216.643 27.698 L 214.872 30.357 L 213.489 30.357 Z " stroke-width="1"/>
  <path id="ID0.8054271978326142" fill="#fff" d="M 225.416 30.357 L 224.356 30.357 L 224.356 21.052 L 225.498 21.052 L 225.498 24.371 C 225.981 23.766 226.597 23.464 227.346 23.464 C 227.76 23.464 228.153 23.547 228.523 23.714 C 228.893 23.882 229.198 24.116 229.437 24.419 C 229.676 24.722 229.863 25.087 229.999 25.514 C 230.134 25.941 230.202 26.398 230.202 26.885 C 230.202 28.04 229.916 28.933 229.345 29.564 C 228.774 30.194 228.088 30.51 227.288 30.51 C 226.493 30.51 225.869 30.177 225.416 29.513 L 225.416 30.357 Z M 225.403 26.936 C 225.403 27.744 225.513 28.328 225.733 28.688 C 226.093 29.276 226.58 29.57 227.193 29.57 C 227.693 29.57 228.124 29.353 228.488 28.919 C 228.852 28.486 229.034 27.839 229.034 26.98 C 229.034 26.1 228.86 25.45 228.51 25.032 C 228.161 24.613 227.739 24.403 227.244 24.403 C 226.745 24.403 226.313 24.62 225.949 25.054 C 225.585 25.488 225.403 26.115 225.403 26.936 Z " stroke-width="1"/>
  <path id="ID0.7982948026619852" fill="#fff" d="M 236.207 28.186 L 237.388 28.332 C 237.201 29.022 236.856 29.557 236.353 29.938 C 235.849 30.319 235.206 30.51 234.423 30.51 C 233.437 30.51 232.655 30.206 232.078 29.599 C 231.5 28.991 231.211 28.14 231.211 27.044 C 231.211 25.91 231.503 25.029 232.087 24.403 C 232.671 23.777 233.429 23.464 234.36 23.464 C 235.261 23.464 235.997 23.77 236.569 24.384 C 237.14 24.998 237.426 25.861 237.426 26.974 C 237.426 27.042 237.424 27.143 237.419 27.279 L 232.392 27.279 C 232.434 28.019 232.644 28.586 233.02 28.98 C 233.397 29.373 233.867 29.57 234.43 29.57 C 234.849 29.57 235.206 29.46 235.502 29.24 C 235.799 29.02 236.033 28.669 236.207 28.186 Z M 232.455 26.339 L 236.22 26.339 C 236.169 25.772 236.025 25.347 235.788 25.063 C 235.424 24.623 234.952 24.403 234.372 24.403 C 233.848 24.403 233.407 24.579 233.049 24.93 C 232.691 25.281 232.494 25.751 232.455 26.339 Z " stroke-width="1"/>
  <path id="ID0.31707788025960326" fill="#fff" d="M 238.797 21.052 L 239.94 21.052 L 239.94 30.358 L 238.797 30.358 L 238.797 21.052 Z " stroke-width="1"/>
  <path id="ID0.02767787454649806" fill="#fff" d="M 241.285 26.987 C 241.285 25.738 241.632 24.814 242.326 24.213 C 242.906 23.713 243.613 23.464 244.446 23.464 C 245.373 23.464 246.13 23.767 246.719 24.375 C 247.307 24.982 247.601 25.821 247.601 26.891 C 247.601 27.759 247.471 28.441 247.211 28.939 C 246.95 29.436 246.572 29.822 246.074 30.097 C 245.577 30.372 245.034 30.51 244.446 30.51 C 243.502 30.51 242.74 30.207 242.158 29.602 C 241.576 28.997 241.285 28.125 241.285 26.987 Z M 242.459 26.987 C 242.459 27.85 242.648 28.496 243.024 28.926 C 243.401 29.355 243.875 29.57 244.446 29.57 C 245.013 29.57 245.485 29.354 245.862 28.923 C 246.238 28.491 246.427 27.833 246.427 26.949 C 246.427 26.115 246.237 25.483 245.859 25.054 C 245.48 24.624 245.009 24.409 244.446 24.409 C 243.875 24.409 243.401 24.623 243.024 25.051 C 242.648 25.478 242.459 26.123 242.459 26.987 Z " stroke-width="1"/>
  <path id="ID0.11052476009353995" fill="#fff" d="M 250.184 30.357 L 248.121 23.616 L 249.302 23.616 L 250.375 27.507 L 250.775 28.954 C 250.792 28.882 250.908 28.419 251.124 27.564 L 252.197 23.616 L 253.371 23.616 L 254.38 27.526 L 254.717 28.815 L 255.104 27.513 L 256.259 23.616 L 257.37 23.616 L 255.263 30.357 L 254.076 30.357 L 253.003 26.32 L 252.743 25.171 L 251.378 30.357 L 250.184 30.357 Z " stroke-width="1"/>
  <path id="ID0.059360592160373926" fill="#fff" d="M 257.935 29.056 L 259.236 29.056 L 259.236 30.357 L 257.935 30.357 L 257.935 29.056 Z " stroke-width="1"/>
  <path id="ID0.17155133141204715" fill="#fff" d="M 1.858 43.783 L 1.858 34.477 L 3.089 34.477 L 3.089 42.684 L 7.672 42.684 L 7.672 43.783 L 1.858 43.783 Z " stroke-width="1"/>
  <path id="ID0.002908852882683277" fill="#fff" d="M 13.607 41.612 L 14.788 41.758 C 14.602 42.447 14.257 42.983 13.753 43.364 C 13.25 43.744 12.606 43.935 11.824 43.935 C 10.838 43.935 10.056 43.631 9.478 43.024 C 8.901 42.417 8.612 41.565 8.612 40.469 C 8.612 39.335 8.904 38.455 9.488 37.828 C 10.072 37.202 10.829 36.889 11.76 36.889 C 12.662 36.889 13.398 37.196 13.969 37.809 C 14.54 38.423 14.826 39.286 14.826 40.399 C 14.826 40.467 14.824 40.568 14.82 40.704 L 9.792 40.704 C 9.835 41.444 10.044 42.012 10.421 42.405 C 10.797 42.799 11.267 42.995 11.83 42.995 C 12.249 42.995 12.606 42.885 12.903 42.665 C 13.199 42.445 13.434 42.094 13.607 41.612 Z M 9.856 39.764 L 13.62 39.764 C 13.569 39.197 13.425 38.772 13.188 38.489 C 12.824 38.048 12.353 37.828 11.773 37.828 C 11.248 37.828 10.807 38.004 10.449 38.355 C 10.092 38.707 9.894 39.176 9.856 39.764 Z " stroke-width="1"/>
  <path id="ID0.3965604561381042" fill="#fff" d="M 18.095 43.783 L 15.531 37.041 L 16.737 37.041 L 18.184 41.078 C 18.341 41.514 18.484 41.967 18.616 42.437 C 18.717 42.081 18.859 41.654 19.041 41.155 L 20.539 37.041 L 21.713 37.041 L 19.162 43.783 L 18.095 43.783 Z " stroke-width="1"/>
  <path id="ID0.5260650324635208" fill="#fff" d="M 27.337 41.612 L 28.518 41.758 C 28.332 42.447 27.987 42.983 27.483 43.364 C 26.98 43.744 26.336 43.935 25.554 43.935 C 24.568 43.935 23.786 43.631 23.208 43.024 C 22.631 42.417 22.342 41.565 22.342 40.469 C 22.342 39.335 22.634 38.455 23.218 37.828 C 23.802 37.202 24.559 36.889 25.49 36.889 C 26.391 36.889 27.128 37.196 27.699 37.809 C 28.27 38.423 28.556 39.286 28.556 40.399 C 28.556 40.467 28.554 40.568 28.55 40.704 L 23.522 40.704 C 23.565 41.444 23.774 42.012 24.151 42.405 C 24.527 42.799 24.997 42.995 25.56 42.995 C 25.979 42.995 26.336 42.885 26.633 42.665 C 26.929 42.445 27.164 42.094 27.337 41.612 Z M 23.586 39.764 L 27.35 39.764 C 27.299 39.197 27.155 38.772 26.918 38.489 C 26.554 38.048 26.083 37.828 25.503 37.828 C 24.978 37.828 24.537 38.004 24.179 38.355 C 23.822 38.707 23.624 39.176 23.586 39.764 Z " stroke-width="1"/>
  <path id="ID0.5552318724803627" fill="#fff" d="M 29.927 34.477 L 31.07 34.477 L 31.07 43.783 L 29.927 43.783 L 29.927 34.477 Z " stroke-width="1"/>
  <path id="ID0.2037390130572021" fill="#fff" d="M 40.851 41.313 L 41.975 41.459 C 41.852 42.234 41.538 42.84 41.032 43.278 C 40.527 43.716 39.906 43.935 39.169 43.935 C 38.247 43.935 37.505 43.633 36.944 43.03 C 36.384 42.427 36.103 41.563 36.103 40.437 C 36.103 39.709 36.224 39.073 36.465 38.527 C 36.706 37.981 37.074 37.571 37.567 37.298 C 38.06 37.025 38.596 36.889 39.176 36.889 C 39.908 36.889 40.507 37.074 40.972 37.444 C 41.438 37.815 41.736 38.34 41.867 39.022 L 40.756 39.193 C 40.65 38.74 40.463 38.4 40.194 38.171 C 39.926 37.943 39.601 37.828 39.22 37.828 C 38.645 37.828 38.177 38.035 37.817 38.447 C 37.458 38.86 37.278 39.513 37.278 40.406 C 37.278 41.311 37.451 41.969 37.798 42.38 C 38.145 42.79 38.598 42.995 39.157 42.995 C 39.605 42.995 39.98 42.858 40.28 42.583 C 40.581 42.308 40.771 41.885 40.851 41.313 Z " stroke-width="1"/>
  <path id="ID0.0993711487390101" fill="#fff" d="M 42.527 40.412 C 42.527 39.164 42.874 38.239 43.568 37.638 C 44.148 37.139 44.855 36.889 45.688 36.889 C 46.615 36.889 47.373 37.193 47.961 37.8 C 48.549 38.407 48.843 39.246 48.843 40.317 C 48.843 41.184 48.713 41.867 48.453 42.364 C 48.193 42.861 47.814 43.247 47.317 43.522 C 46.819 43.797 46.277 43.935 45.688 43.935 C 44.745 43.935 43.982 43.632 43.4 43.027 C 42.818 42.422 42.527 41.55 42.527 40.412 Z M 43.702 40.412 C 43.702 41.275 43.89 41.922 44.266 42.351 C 44.643 42.781 45.117 42.995 45.688 42.995 C 46.255 42.995 46.727 42.78 47.104 42.348 C 47.481 41.916 47.669 41.258 47.669 40.374 C 47.669 39.54 47.479 38.909 47.101 38.479 C 46.722 38.05 46.251 37.835 45.688 37.835 C 45.117 37.835 44.643 38.048 44.266 38.476 C 43.89 38.903 43.702 39.549 43.702 40.412 Z " stroke-width="1"/>
  <path id="ID0.16033150535076857" fill="#fff" d="M 54.556 43.783 L 54.556 42.932 C 54.129 43.601 53.5 43.935 52.671 43.935 C 52.133 43.935 51.639 43.787 51.189 43.491 C 50.738 43.194 50.389 42.781 50.141 42.25 C 49.894 41.718 49.77 41.108 49.77 40.418 C 49.77 39.745 49.882 39.135 50.106 38.587 C 50.331 38.039 50.667 37.619 51.116 37.327 C 51.564 37.035 52.066 36.889 52.62 36.889 C 53.026 36.889 53.388 36.975 53.705 37.146 C 54.023 37.317 54.281 37.541 54.48 37.816 L 54.48 34.477 L 55.616 34.477 L 55.616 43.783 L 54.556 43.783 Z M 50.944 40.418 C 50.944 41.282 51.126 41.927 51.49 42.354 C 51.854 42.782 52.284 42.995 52.779 42.995 C 53.278 42.995 53.702 42.791 54.051 42.383 C 54.401 41.974 54.575 41.351 54.575 40.513 C 54.575 39.591 54.397 38.914 54.042 38.482 C 53.686 38.051 53.248 37.835 52.728 37.835 C 52.22 37.835 51.796 38.042 51.455 38.457 C 51.115 38.872 50.944 39.525 50.944 40.418 Z " stroke-width="1"/>
  <path id="ID0.11392051260918379" fill="#fff" d="M 62.027 41.612 L 63.208 41.758 C 63.022 42.447 62.677 42.983 62.173 43.364 C 61.67 43.744 61.026 43.935 60.244 43.935 C 59.258 43.935 58.476 43.631 57.898 43.024 C 57.32 42.417 57.032 41.565 57.032 40.469 C 57.032 39.335 57.324 38.455 57.908 37.828 C 58.492 37.202 59.249 36.889 60.18 36.889 C 61.081 36.889 61.818 37.196 62.389 37.809 C 62.96 38.423 63.246 39.286 63.246 40.399 C 63.246 40.467 63.244 40.568 63.24 40.704 L 58.212 40.704 C 58.255 41.444 58.464 42.012 58.841 42.405 C 59.217 42.799 59.687 42.995 60.25 42.995 C 60.669 42.995 61.026 42.885 61.323 42.665 C 61.619 42.445 61.854 42.094 62.027 41.612 Z M 58.276 39.764 L 62.04 39.764 C 61.989 39.197 61.845 38.772 61.608 38.489 C 61.244 38.048 60.773 37.828 60.193 37.828 C 59.668 37.828 59.227 38.004 58.869 38.355 C 58.512 38.707 58.314 39.176 58.276 39.764 Z " stroke-width="1"/>
  <path id="ID0.7309838836081326" fill="#fff" d="M 64.185 41.77 L 65.315 41.593 C 65.379 42.045 65.555 42.392 65.845 42.634 C 66.135 42.875 66.54 42.995 67.061 42.995 C 67.586 42.995 67.975 42.889 68.229 42.675 C 68.483 42.461 68.61 42.21 68.61 41.923 C 68.61 41.665 68.498 41.461 68.273 41.313 C 68.117 41.212 67.727 41.083 67.105 40.926 C 66.267 40.714 65.687 40.531 65.363 40.377 C 65.039 40.223 64.794 40.009 64.627 39.736 C 64.459 39.463 64.376 39.161 64.376 38.831 C 64.376 38.531 64.445 38.253 64.582 37.997 C 64.72 37.741 64.907 37.528 65.144 37.359 C 65.322 37.227 65.564 37.116 65.871 37.025 C 66.178 36.934 66.507 36.889 66.858 36.889 C 67.387 36.889 67.851 36.965 68.251 37.117 C 68.651 37.27 68.946 37.476 69.137 37.736 C 69.327 37.997 69.458 38.345 69.53 38.781 L 68.413 38.933 C 68.362 38.586 68.215 38.315 67.972 38.12 C 67.728 37.926 67.385 37.828 66.94 37.828 C 66.416 37.828 66.041 37.915 65.817 38.089 C 65.593 38.262 65.48 38.465 65.48 38.698 C 65.48 38.846 65.527 38.979 65.62 39.098 C 65.713 39.221 65.859 39.322 66.058 39.403 C 66.172 39.445 66.509 39.542 67.067 39.695 C 67.876 39.91 68.439 40.087 68.759 40.225 C 69.078 40.362 69.329 40.562 69.511 40.825 C 69.693 41.087 69.784 41.413 69.784 41.802 C 69.784 42.183 69.673 42.542 69.451 42.878 C 69.229 43.214 68.908 43.475 68.489 43.659 C 68.07 43.843 67.596 43.935 67.067 43.935 C 66.191 43.935 65.524 43.753 65.065 43.389 C 64.605 43.025 64.312 42.485 64.185 41.77 Z " stroke-width="1"/>
  <path id="ID0.9500153358094394" fill="#fff" d="M 79.153 42.951 C 78.73 43.311 78.323 43.565 77.931 43.713 C 77.54 43.861 77.12 43.935 76.671 43.935 C 75.931 43.935 75.362 43.754 74.964 43.392 C 74.566 43.03 74.367 42.568 74.367 42.005 C 74.367 41.675 74.442 41.374 74.592 41.101 C 74.743 40.828 74.939 40.609 75.183 40.444 C 75.426 40.279 75.7 40.154 76.005 40.069 C 76.229 40.01 76.568 39.953 77.02 39.898 C 77.943 39.788 78.622 39.657 79.058 39.504 C 79.062 39.348 79.064 39.248 79.064 39.206 C 79.064 38.74 78.956 38.412 78.741 38.222 C 78.449 37.964 78.015 37.835 77.439 37.835 C 76.902 37.835 76.505 37.929 76.249 38.117 C 75.993 38.306 75.804 38.639 75.681 39.117 L 74.564 38.965 C 74.665 38.486 74.833 38.1 75.065 37.806 C 75.298 37.512 75.634 37.286 76.075 37.127 C 76.515 36.968 77.025 36.889 77.604 36.889 C 78.18 36.889 78.648 36.957 79.007 37.092 C 79.367 37.227 79.631 37.398 79.801 37.603 C 79.97 37.808 80.088 38.068 80.156 38.381 C 80.194 38.575 80.213 38.927 80.213 39.434 L 80.213 40.958 C 80.213 42.02 80.238 42.692 80.286 42.973 C 80.335 43.255 80.431 43.524 80.575 43.783 L 79.382 43.783 C 79.263 43.546 79.187 43.268 79.153 42.951 Z M 79.058 40.399 C 78.643 40.568 78.021 40.712 77.192 40.831 C 76.722 40.899 76.39 40.975 76.195 41.059 C 76.001 41.144 75.85 41.268 75.745 41.431 C 75.639 41.594 75.586 41.775 75.586 41.973 C 75.586 42.278 75.701 42.532 75.932 42.735 C 76.162 42.938 76.5 43.04 76.944 43.04 C 77.384 43.04 77.776 42.944 78.119 42.751 C 78.461 42.558 78.713 42.295 78.874 41.961 C 78.997 41.703 79.058 41.322 79.058 40.818 L 79.058 40.399 Z " stroke-width="1"/>
  <path id="ID0.7946752347052097" fill="#fff" d="M 81.972 43.783 L 81.972 37.041 L 83 37.041 L 83 38.063 C 83.262 37.585 83.505 37.27 83.727 37.117 C 83.949 36.965 84.193 36.889 84.46 36.889 C 84.845 36.889 85.236 37.012 85.634 37.257 L 85.241 38.317 C 84.961 38.152 84.682 38.07 84.403 38.07 C 84.153 38.07 83.929 38.145 83.73 38.295 C 83.531 38.445 83.389 38.654 83.305 38.92 C 83.178 39.326 83.114 39.771 83.114 40.253 L 83.114 43.783 L 81.972 43.783 Z " stroke-width="1"/>
  <path id="ID0.8976863753050566" fill="#fff" d="M 90.928 41.612 L 92.109 41.758 C 91.923 42.447 91.578 42.983 91.074 43.364 C 90.571 43.744 89.927 43.935 89.144 43.935 C 88.158 43.935 87.377 43.631 86.799 43.024 C 86.221 42.417 85.933 41.565 85.933 40.469 C 85.933 39.335 86.225 38.455 86.808 37.828 C 87.392 37.202 88.15 36.889 89.081 36.889 C 89.982 36.889 90.719 37.196 91.29 37.809 C 91.861 38.423 92.147 39.286 92.147 40.399 C 92.147 40.467 92.145 40.568 92.141 40.704 L 87.113 40.704 C 87.155 41.444 87.365 42.012 87.742 42.405 C 88.118 42.799 88.588 42.995 89.151 42.995 C 89.57 42.995 89.927 42.885 90.224 42.665 C 90.52 42.445 90.755 42.094 90.928 41.612 Z M 87.177 39.764 L 90.941 39.764 C 90.89 39.197 90.746 38.772 90.509 38.489 C 90.145 38.048 89.673 37.828 89.094 37.828 C 88.569 37.828 88.128 38.004 87.77 38.355 C 87.413 38.707 87.215 39.176 87.177 39.764 Z " stroke-width="1"/>
  <path id="ID0.32681597443297505" fill="#fff" d="M 97.428 43.783 L 97.428 37.93 L 96.419 37.93 L 96.419 37.041 L 97.428 37.041 L 97.428 36.324 C 97.428 35.871 97.468 35.535 97.549 35.315 C 97.659 35.019 97.852 34.778 98.13 34.594 C 98.407 34.41 98.795 34.318 99.294 34.318 C 99.616 34.318 99.971 34.356 100.361 34.432 L 100.189 35.429 C 99.952 35.387 99.728 35.366 99.516 35.366 C 99.169 35.366 98.924 35.44 98.78 35.588 C 98.636 35.736 98.564 36.013 98.564 36.419 L 98.564 37.041 L 99.878 37.041 L 99.878 37.93 L 98.564 37.93 L 98.564 43.783 L 97.428 43.783 Z " stroke-width="1"/>
  <path id="ID0.6125239292159677" fill="#fff" d="M 100.342 40.412 C 100.342 39.164 100.689 38.239 101.383 37.638 C 101.962 37.139 102.669 36.889 103.503 36.889 C 104.43 36.889 105.187 37.193 105.775 37.8 C 106.363 38.407 106.658 39.246 106.658 40.317 C 106.658 41.184 106.527 41.867 106.267 42.364 C 106.007 42.861 105.628 43.247 105.131 43.522 C 104.634 43.797 104.091 43.935 103.503 43.935 C 102.559 43.935 101.796 43.632 101.214 43.027 C 100.633 42.422 100.342 41.55 100.342 40.412 Z M 101.516 40.412 C 101.516 41.275 101.704 41.922 102.081 42.351 C 102.458 42.781 102.932 42.995 103.503 42.995 C 104.07 42.995 104.542 42.78 104.918 42.348 C 105.295 41.916 105.483 41.258 105.483 40.374 C 105.483 39.54 105.294 38.909 104.915 38.479 C 104.536 38.05 104.066 37.835 103.503 37.835 C 102.932 37.835 102.458 38.048 102.081 38.476 C 101.704 38.903 101.516 39.549 101.516 40.412 Z " stroke-width="1"/>
  <path id="ID0.7295896993018687" fill="#fff" d="M 112.415 43.783 L 112.415 42.792 C 111.89 43.554 111.177 43.935 110.276 43.935 C 109.878 43.935 109.507 43.859 109.162 43.706 C 108.817 43.554 108.561 43.363 108.394 43.132 C 108.227 42.901 108.109 42.619 108.041 42.284 C 107.995 42.06 107.972 41.705 107.972 41.218 L 107.972 37.041 L 109.114 37.041 L 109.114 40.78 C 109.114 41.377 109.137 41.779 109.184 41.986 C 109.256 42.287 109.408 42.523 109.641 42.694 C 109.874 42.865 110.162 42.951 110.504 42.951 C 110.847 42.951 111.169 42.863 111.469 42.688 C 111.77 42.512 111.982 42.273 112.107 41.97 C 112.232 41.668 112.294 41.229 112.294 40.653 L 112.294 37.041 L 113.437 37.041 L 113.437 43.783 L 112.415 43.783 Z " stroke-width="1"/>
  <path id="ID0.04676097584888339" fill="#fff" d="M 115.227 43.783 L 115.227 37.041 L 116.255 37.041 L 116.255 38 C 116.75 37.259 117.466 36.889 118.401 36.889 C 118.807 36.889 119.18 36.962 119.521 37.108 C 119.862 37.254 120.117 37.445 120.286 37.682 C 120.455 37.919 120.574 38.201 120.641 38.527 C 120.684 38.738 120.705 39.109 120.705 39.637 L 120.705 43.783 L 119.562 43.783 L 119.562 39.682 C 119.562 39.216 119.518 38.868 119.429 38.638 C 119.34 38.407 119.183 38.223 118.956 38.085 C 118.73 37.948 118.464 37.879 118.16 37.879 C 117.673 37.879 117.253 38.034 116.9 38.343 C 116.546 38.651 116.37 39.238 116.37 40.101 L 116.37 43.783 L 115.227 43.783 Z " stroke-width="1"/>
  <path id="ID0.09843121794983745" fill="#fff" d="M 126.83 43.783 L 126.83 42.932 C 126.403 43.601 125.775 43.935 124.945 43.935 C 124.408 43.935 123.914 43.787 123.463 43.491 C 123.012 43.194 122.663 42.781 122.416 42.25 C 122.168 41.718 122.044 41.108 122.044 40.418 C 122.044 39.745 122.156 39.135 122.381 38.587 C 122.605 38.039 122.941 37.619 123.39 37.327 C 123.839 37.035 124.34 36.889 124.894 36.889 C 125.301 36.889 125.662 36.975 125.98 37.146 C 126.297 37.317 126.555 37.541 126.754 37.816 L 126.754 34.477 L 127.891 34.477 L 127.891 43.783 L 126.83 43.783 Z M 123.219 40.418 C 123.219 41.282 123.401 41.927 123.765 42.354 C 124.128 42.782 124.558 42.995 125.053 42.995 C 125.552 42.995 125.977 42.791 126.326 42.383 C 126.675 41.974 126.85 41.351 126.85 40.513 C 126.85 39.591 126.672 38.914 126.316 38.482 C 125.961 38.051 125.523 37.835 125.002 37.835 C 124.495 37.835 124.07 38.042 123.73 38.457 C 123.389 38.872 123.219 39.525 123.219 40.418 Z " stroke-width="1"/>
  <path id="ID0.47346225241199136" fill="#fff" d="M 133.305 35.791 L 133.305 34.477 L 134.448 34.477 L 134.448 35.791 L 133.305 35.791 Z M 133.305 43.783 L 133.305 37.041 L 134.448 37.041 L 134.448 43.783 L 133.305 43.783 Z " stroke-width="1"/>
  <path id="ID0.697025059722364" fill="#fff" d="M 136.187 43.783 L 136.187 37.041 L 137.215 37.041 L 137.215 38 C 137.71 37.259 138.426 36.889 139.361 36.889 C 139.767 36.889 140.14 36.962 140.481 37.108 C 140.822 37.254 141.077 37.445 141.246 37.682 C 141.415 37.919 141.534 38.201 141.601 38.527 C 141.644 38.738 141.665 39.109 141.665 39.637 L 141.665 43.783 L 140.522 43.783 L 140.522 39.682 C 140.522 39.216 140.478 38.868 140.389 38.638 C 140.3 38.407 140.143 38.223 139.916 38.085 C 139.69 37.948 139.424 37.879 139.12 37.879 C 138.633 37.879 138.213 38.034 137.86 38.343 C 137.506 38.651 137.329 39.238 137.329 40.101 L 137.329 43.783 L 136.187 43.783 Z " stroke-width="1"/>
  <path id="ID0.1886167754419148" fill="#fff" d="M 149.523 42.761 L 149.688 43.77 C 149.367 43.838 149.079 43.871 148.825 43.871 C 148.41 43.871 148.089 43.806 147.86 43.675 C 147.632 43.543 147.471 43.371 147.378 43.157 C 147.285 42.944 147.238 42.494 147.238 41.808 L 147.238 37.93 L 146.4 37.93 L 146.4 37.041 L 147.238 37.041 L 147.238 35.372 L 148.374 34.686 L 148.374 37.041 L 149.523 37.041 L 149.523 37.93 L 148.374 37.93 L 148.374 41.872 C 148.374 42.198 148.395 42.407 148.435 42.5 C 148.475 42.593 148.541 42.667 148.631 42.722 C 148.722 42.777 148.853 42.805 149.022 42.805 C 149.149 42.805 149.316 42.79 149.523 42.761 Z " stroke-width="1"/>
  <path id="ID0.03539809538051486" fill="#fff" d="M 150.641 43.783 L 150.641 34.477 L 151.783 34.477 L 151.783 37.816 C 152.316 37.198 152.989 36.889 153.802 36.889 C 154.301 36.889 154.735 36.987 155.103 37.184 C 155.471 37.381 155.735 37.653 155.893 38 C 156.052 38.347 156.131 38.85 156.131 39.511 L 156.131 43.783 L 154.989 43.783 L 154.989 39.511 C 154.989 38.939 154.865 38.523 154.617 38.263 C 154.37 38.003 154.02 37.873 153.567 37.873 C 153.228 37.873 152.91 37.961 152.611 38.136 C 152.313 38.312 152.1 38.55 151.974 38.85 C 151.847 39.151 151.783 39.566 151.783 40.095 L 151.783 43.783 L 150.641 43.783 Z " stroke-width="1"/>
  <path id="ID0.7668153829872608" fill="#fff" d="M 162.485 41.612 L 163.666 41.758 C 163.48 42.447 163.135 42.983 162.631 43.364 C 162.128 43.744 161.484 43.935 160.702 43.935 C 159.716 43.935 158.934 43.631 158.356 43.024 C 157.778 42.417 157.49 41.565 157.49 40.469 C 157.49 39.335 157.782 38.455 158.366 37.828 C 158.95 37.202 159.707 36.889 160.638 36.889 C 161.539 36.889 162.276 37.196 162.847 37.809 C 163.418 38.423 163.704 39.286 163.704 40.399 C 163.704 40.467 163.702 40.568 163.698 40.704 L 158.67 40.704 C 158.713 41.444 158.922 42.012 159.299 42.405 C 159.675 42.799 160.145 42.995 160.708 42.995 C 161.127 42.995 161.484 42.885 161.781 42.665 C 162.077 42.445 162.312 42.094 162.485 41.612 Z M 158.734 39.764 L 162.498 39.764 C 162.447 39.197 162.303 38.772 162.066 38.489 C 161.702 38.048 161.231 37.828 160.651 37.828 C 160.126 37.828 159.685 38.004 159.327 38.355 C 158.97 38.707 158.772 39.176 158.734 39.764 Z " stroke-width="1"/>
  <path id="ID0.10075368732213974" fill="#fff" d="M 168.985 43.783 L 168.985 37.93 L 167.976 37.93 L 167.976 37.041 L 168.985 37.041 L 168.985 36.324 C 168.985 35.871 169.025 35.535 169.106 35.315 C 169.216 35.019 169.409 34.778 169.687 34.594 C 169.964 34.41 170.352 34.318 170.851 34.318 C 171.173 34.318 171.529 34.356 171.918 34.432 L 171.746 35.429 C 171.509 35.387 171.285 35.366 171.074 35.366 C 170.727 35.366 170.481 35.44 170.337 35.588 C 170.193 35.736 170.121 36.013 170.121 36.419 L 170.121 37.041 L 171.435 37.041 L 171.435 37.93 L 170.121 37.93 L 170.121 43.783 L 168.985 43.783 Z " stroke-width="1"/>
  <path id="ID0.5349267292767763" fill="#fff" d="M 171.899 40.412 C 171.899 39.164 172.246 38.239 172.94 37.638 C 173.52 37.139 174.226 36.889 175.06 36.889 C 175.987 36.889 176.744 37.193 177.332 37.8 C 177.921 38.407 178.215 39.246 178.215 40.317 C 178.215 41.184 178.085 41.867 177.824 42.364 C 177.564 42.861 177.185 43.247 176.688 43.522 C 176.191 43.797 175.648 43.935 175.06 43.935 C 174.116 43.935 173.353 43.632 172.772 43.027 C 172.19 42.422 171.899 41.55 171.899 40.412 Z M 173.073 40.412 C 173.073 41.275 173.261 41.922 173.638 42.351 C 174.015 42.781 174.489 42.995 175.06 42.995 C 175.627 42.995 176.099 42.78 176.475 42.348 C 176.852 41.916 177.04 41.258 177.04 40.374 C 177.04 39.54 176.851 38.909 176.472 38.479 C 176.094 38.05 175.623 37.835 175.06 37.835 C 174.489 37.835 174.015 38.048 173.638 38.476 C 173.261 38.903 173.073 39.549 173.073 40.412 Z " stroke-width="1"/>
  <path id="ID0.8181628119200468" fill="#fff" d="M 179.541 43.783 L 179.541 37.041 L 180.57 37.041 L 180.57 38.063 C 180.832 37.585 181.074 37.27 181.297 37.117 C 181.519 36.965 181.763 36.889 182.03 36.889 C 182.415 36.889 182.806 37.012 183.204 37.257 L 182.81 38.317 C 182.531 38.152 182.252 38.07 181.973 38.07 C 181.723 38.07 181.499 38.145 181.3 38.295 C 181.101 38.445 180.959 38.654 180.874 38.92 C 180.747 39.326 180.684 39.771 180.684 40.253 L 180.684 43.783 L 179.541 43.783 Z " stroke-width="1"/>
  <path id="ID0.05930921947583556" fill="#fff" d="M 188.301 43.783 L 188.301 42.792 C 187.776 43.554 187.063 43.935 186.162 43.935 C 185.764 43.935 185.393 43.859 185.048 43.706 C 184.703 43.554 184.447 43.363 184.28 43.132 C 184.113 42.901 183.995 42.619 183.928 42.284 C 183.881 42.06 183.858 41.705 183.858 41.218 L 183.858 37.041 L 185 37.041 L 185 40.78 C 185 41.377 185.024 41.779 185.07 41.986 C 185.142 42.287 185.294 42.523 185.527 42.694 C 185.76 42.865 186.048 42.951 186.391 42.951 C 186.733 42.951 187.055 42.863 187.355 42.688 C 187.656 42.512 187.868 42.273 187.993 41.97 C 188.118 41.668 188.181 41.229 188.181 40.653 L 188.181 37.041 L 189.323 37.041 L 189.323 43.783 L 188.301 43.783 Z " stroke-width="1"/>
  <path id="ID0.07201883289963007" fill="#fff" d="M 191.113 43.783 L 191.113 37.041 L 192.135 37.041 L 192.135 37.987 C 192.347 37.657 192.628 37.391 192.979 37.19 C 193.331 36.989 193.731 36.889 194.179 36.889 C 194.678 36.889 195.088 36.993 195.407 37.2 C 195.727 37.407 195.952 37.697 196.083 38.07 C 196.617 37.283 197.311 36.889 198.165 36.889 C 198.834 36.889 199.348 37.074 199.708 37.444 C 200.068 37.815 200.247 38.385 200.247 39.155 L 200.247 43.783 L 199.111 43.783 L 199.111 39.536 C 199.111 39.079 199.074 38.75 199 38.549 C 198.926 38.348 198.792 38.186 198.597 38.063 C 198.402 37.941 198.174 37.879 197.912 37.879 C 197.438 37.879 197.044 38.037 196.731 38.352 C 196.418 38.667 196.261 39.172 196.261 39.866 L 196.261 43.783 L 195.119 43.783 L 195.119 39.403 C 195.119 38.895 195.025 38.514 194.839 38.26 C 194.653 38.006 194.348 37.879 193.925 37.879 C 193.604 37.879 193.306 37.964 193.033 38.133 C 192.76 38.302 192.563 38.55 192.44 38.876 C 192.317 39.202 192.256 39.671 192.256 40.285 L 192.256 43.783 L 191.113 43.783 Z " stroke-width="1"/>
  <path id="ID0.6764444010332227" fill="#fff" d="M 205.554 43.783 L 205.554 37.041 L 206.576 37.041 L 206.576 37.987 C 206.788 37.657 207.069 37.391 207.42 37.19 C 207.772 36.989 208.171 36.889 208.62 36.889 C 209.119 36.889 209.529 36.993 209.848 37.2 C 210.168 37.407 210.393 37.697 210.524 38.07 C 211.058 37.283 211.752 36.889 212.606 36.889 C 213.275 36.889 213.789 37.074 214.149 37.444 C 214.509 37.815 214.688 38.385 214.688 39.155 L 214.688 43.783 L 213.552 43.783 L 213.552 39.536 C 213.552 39.079 213.515 38.75 213.441 38.549 C 213.367 38.348 213.233 38.186 213.038 38.063 C 212.843 37.941 212.615 37.879 212.352 37.879 C 211.878 37.879 211.485 38.037 211.172 38.352 C 210.859 38.667 210.702 39.172 210.702 39.866 L 210.702 43.783 L 209.559 43.783 L 209.559 39.403 C 209.559 38.895 209.466 38.514 209.28 38.26 C 209.094 38.006 208.789 37.879 208.366 37.879 C 208.044 37.879 207.747 37.964 207.474 38.133 C 207.201 38.302 207.003 38.55 206.881 38.876 C 206.758 39.202 206.697 39.671 206.697 40.285 L 206.697 43.783 L 205.554 43.783 Z " stroke-width="1"/>
  <path id="ID0.010457450989633799" fill="#fff" d="M 220.998 41.612 L 222.179 41.758 C 221.992 42.447 221.648 42.983 221.144 43.364 C 220.64 43.744 219.997 43.935 219.214 43.935 C 218.228 43.935 217.446 43.631 216.869 43.024 C 216.291 42.417 216.002 41.565 216.002 40.469 C 216.002 39.335 216.294 38.455 216.878 37.828 C 217.462 37.202 218.22 36.889 219.151 36.889 C 220.052 36.889 220.788 37.196 221.36 37.809 C 221.931 38.423 222.217 39.286 222.217 40.399 C 222.217 40.467 222.215 40.568 222.21 40.704 L 217.183 40.704 C 217.225 41.444 217.435 42.012 217.811 42.405 C 218.188 42.799 218.658 42.995 219.221 42.995 C 219.64 42.995 219.997 42.885 220.293 42.665 C 220.59 42.445 220.824 42.094 220.998 41.612 Z M 217.246 39.764 L 221.011 39.764 C 220.96 39.197 220.816 38.772 220.579 38.489 C 220.215 38.048 219.743 37.828 219.163 37.828 C 218.639 37.828 218.198 38.004 217.84 38.355 C 217.482 38.707 217.285 39.176 217.246 39.764 Z " stroke-width="1"/>
  <path id="ID0.30488727800548077" fill="#fff" d="M 223.613 43.783 L 223.613 37.041 L 224.641 37.041 L 224.641 38 C 225.137 37.259 225.852 36.889 226.787 36.889 C 227.193 36.889 227.567 36.962 227.907 37.108 C 228.248 37.254 228.503 37.445 228.672 37.682 C 228.842 37.919 228.96 38.201 229.028 38.527 C 229.07 38.738 229.091 39.109 229.091 39.637 L 229.091 43.783 L 227.949 43.783 L 227.949 39.682 C 227.949 39.216 227.904 38.868 227.815 38.638 C 227.726 38.407 227.569 38.223 227.342 38.085 C 227.116 37.948 226.85 37.879 226.546 37.879 C 226.059 37.879 225.639 38.034 225.286 38.343 C 224.932 38.651 224.756 39.238 224.756 40.101 L 224.756 43.783 L 223.613 43.783 Z " stroke-width="1"/>
  <path id="ID0.9791126251220703" fill="#fff" d="M 230.386 41.77 L 231.516 41.593 C 231.579 42.045 231.756 42.392 232.046 42.634 C 232.336 42.875 232.741 42.995 233.262 42.995 C 233.786 42.995 234.176 42.889 234.43 42.675 C 234.683 42.461 234.81 42.21 234.81 41.923 C 234.81 41.665 234.698 41.461 234.474 41.313 C 234.317 41.212 233.928 41.083 233.306 40.926 C 232.468 40.714 231.887 40.531 231.564 40.377 C 231.24 40.223 230.994 40.009 230.827 39.736 C 230.66 39.463 230.577 39.161 230.577 38.831 C 230.577 38.531 230.645 38.253 230.783 37.997 C 230.92 37.741 231.108 37.528 231.345 37.359 C 231.522 37.227 231.765 37.116 232.071 37.025 C 232.378 36.934 232.707 36.889 233.058 36.889 C 233.587 36.889 234.052 36.965 234.452 37.117 C 234.852 37.27 235.147 37.476 235.337 37.736 C 235.528 37.997 235.659 38.345 235.731 38.781 L 234.614 38.933 C 234.563 38.586 234.416 38.315 234.172 38.12 C 233.929 37.926 233.585 37.828 233.141 37.828 C 232.616 37.828 232.242 37.915 232.017 38.089 C 231.793 38.262 231.681 38.465 231.681 38.698 C 231.681 38.846 231.728 38.979 231.821 39.098 C 231.914 39.221 232.06 39.322 232.259 39.403 C 232.373 39.445 232.709 39.542 233.268 39.695 C 234.076 39.91 234.64 40.087 234.96 40.225 C 235.279 40.362 235.53 40.562 235.712 40.825 C 235.894 41.087 235.985 41.413 235.985 41.802 C 235.985 42.183 235.874 42.542 235.652 42.878 C 235.429 43.214 235.109 43.475 234.69 43.659 C 234.271 43.843 233.797 43.935 233.268 43.935 C 232.392 43.935 231.724 43.753 231.265 43.389 C 230.806 43.025 230.513 42.485 230.386 41.77 Z " stroke-width="1"/>
  <path id="ID0.029043172020465136" fill="#fff" d="M 237.35 35.791 L 237.35 34.477 L 238.492 34.477 L 238.492 35.791 L 237.35 35.791 Z M 237.35 43.783 L 237.35 37.041 L 238.492 37.041 L 238.492 43.783 L 237.35 43.783 Z " stroke-width="1"/>
  <path id="ID0.14911416359245777" fill="#fff" d="M 239.806 40.412 C 239.806 39.164 240.153 38.239 240.847 37.638 C 241.427 37.139 242.134 36.889 242.967 36.889 C 243.894 36.889 244.651 37.193 245.24 37.8 C 245.828 38.407 246.122 39.246 246.122 40.317 C 246.122 41.184 245.992 41.867 245.732 42.364 C 245.471 42.861 245.093 43.247 244.595 43.522 C 244.098 43.797 243.555 43.935 242.967 43.935 C 242.023 43.935 241.261 43.632 240.679 43.027 C 240.097 42.422 239.806 41.55 239.806 40.412 Z M 240.98 40.412 C 240.98 41.275 241.169 41.922 241.545 42.351 C 241.922 42.781 242.396 42.995 242.967 42.995 C 243.534 42.995 244.006 42.78 244.383 42.348 C 244.759 41.916 244.948 41.258 244.948 40.374 C 244.948 39.54 244.758 38.909 244.38 38.479 C 244.001 38.05 243.53 37.835 242.967 37.835 C 242.396 37.835 241.922 38.048 241.545 38.476 C 241.169 38.903 240.98 39.549 240.98 40.412 Z " stroke-width="1"/>
  <path id="ID0.4851902611553669" fill="#fff" d="M 247.461 43.783 L 247.461 37.041 L 248.49 37.041 L 248.49 38 C 248.985 37.259 249.7 36.889 250.635 36.889 C 251.041 36.889 251.415 36.962 251.756 37.108 C 252.096 37.254 252.351 37.445 252.52 37.682 C 252.69 37.919 252.808 38.201 252.876 38.527 C 252.918 38.738 252.939 39.109 252.939 39.637 L 252.939 43.783 L 251.797 43.783 L 251.797 39.682 C 251.797 39.216 251.752 38.868 251.663 38.638 C 251.575 38.407 251.417 38.223 251.191 38.085 C 250.964 37.948 250.699 37.879 250.394 37.879 C 249.907 37.879 249.487 38.034 249.134 38.343 C 248.781 38.651 248.604 39.238 248.604 40.101 L 248.604 43.783 L 247.461 43.783 Z " stroke-width="1"/>
  <path id="ID0.6029188283719122" fill="#fff" d="M 259.306 41.612 L 260.487 41.758 C 260.301 42.447 259.956 42.983 259.452 43.364 C 258.948 43.744 258.305 43.935 257.522 43.935 C 256.536 43.935 255.755 43.631 255.177 43.024 C 254.599 42.417 254.31 41.565 254.31 40.469 C 254.31 39.335 254.602 38.455 255.186 37.828 C 255.77 37.202 256.528 36.889 257.459 36.889 C 258.36 36.889 259.097 37.196 259.668 37.809 C 260.239 38.423 260.525 39.286 260.525 40.399 C 260.525 40.467 260.523 40.568 260.518 40.704 L 255.491 40.704 C 255.533 41.444 255.743 42.012 256.12 42.405 C 256.496 42.799 256.966 42.995 257.529 42.995 C 257.948 42.995 258.305 42.885 258.601 42.665 C 258.898 42.445 259.133 42.094 259.306 41.612 Z M 255.555 39.764 L 259.319 39.764 C 259.268 39.197 259.124 38.772 258.887 38.489 C 258.523 38.048 258.051 37.828 257.472 37.828 C 256.947 37.828 256.506 38.004 256.148 38.355 C 255.791 38.707 255.593 39.176 255.555 39.764 Z " stroke-width="1"/>
  <path id="ID0.5913544581271708" fill="#fff" d="M 266.295 43.783 L 266.295 42.932 C 265.867 43.601 265.239 43.935 264.41 43.935 C 263.872 43.935 263.378 43.787 262.927 43.491 C 262.477 43.194 262.128 42.781 261.88 42.25 C 261.632 41.718 261.509 41.108 261.509 40.418 C 261.509 39.745 261.621 39.135 261.845 38.587 C 262.069 38.039 262.406 37.619 262.854 37.327 C 263.303 37.035 263.804 36.889 264.359 36.889 C 264.765 36.889 265.127 36.975 265.444 37.146 C 265.762 37.317 266.02 37.541 266.219 37.816 L 266.219 34.477 L 267.355 34.477 L 267.355 43.783 L 266.295 43.783 Z M 262.683 40.418 C 262.683 41.282 262.865 41.927 263.229 42.354 C 263.593 42.782 264.022 42.995 264.517 42.995 C 265.017 42.995 265.441 42.791 265.79 42.383 C 266.139 41.974 266.314 41.351 266.314 40.513 C 266.314 39.591 266.136 38.914 265.781 38.482 C 265.425 38.051 264.987 37.835 264.467 37.835 C 263.959 37.835 263.535 38.042 263.194 38.457 C 262.853 38.872 262.683 39.525 262.683 40.418 Z " stroke-width="1"/>
  <path id="ID0.006736133713275194" fill="#fff" d="M 272.769 35.791 L 272.769 34.477 L 273.912 34.477 L 273.912 35.791 L 272.769 35.791 Z M 272.769 43.783 L 272.769 37.041 L 273.912 37.041 L 273.912 43.783 L 272.769 43.783 Z " stroke-width="1"/>
  <path id="ID0.01884369971230626" fill="#fff" d="M 275.651 43.783 L 275.651 37.041 L 276.68 37.041 L 276.68 38 C 277.175 37.259 277.89 36.889 278.825 36.889 C 279.231 36.889 279.605 36.962 279.945 37.108 C 280.286 37.254 280.541 37.445 280.71 37.682 C 280.88 37.919 280.998 38.201 281.066 38.527 C 281.108 38.738 281.129 39.109 281.129 39.637 L 281.129 43.783 L 279.987 43.783 L 279.987 39.682 C 279.987 39.216 279.942 38.868 279.853 38.638 C 279.765 38.407 279.607 38.223 279.381 38.085 C 279.154 37.948 278.889 37.879 278.584 37.879 C 278.097 37.879 277.677 38.034 277.324 38.343 C 276.971 38.651 276.794 39.238 276.794 40.101 L 276.794 43.783 L 275.651 43.783 Z " stroke-width="1"/>
  <path id="ID0.9551710532978177" fill="#fff" d="M 288.988 42.761 L 289.153 43.77 C 288.831 43.838 288.543 43.871 288.289 43.871 C 287.875 43.871 287.553 43.806 287.325 43.675 C 287.096 43.543 286.935 43.371 286.842 43.157 C 286.749 42.944 286.703 42.494 286.703 41.808 L 286.703 37.93 L 285.865 37.93 L 285.865 37.041 L 286.703 37.041 L 286.703 35.372 L 287.839 34.686 L 287.839 37.041 L 288.988 37.041 L 288.988 37.93 L 287.839 37.93 L 287.839 41.872 C 287.839 42.198 287.859 42.407 287.899 42.5 C 287.939 42.593 288.005 42.667 288.096 42.722 C 288.187 42.777 288.317 42.805 288.486 42.805 C 288.613 42.805 288.78 42.79 288.988 42.761 Z " stroke-width="1"/>
  <path id="ID0.8588317083194852" fill="#fff" d="M 290.105 43.783 L 290.105 34.477 L 291.247 34.477 L 291.247 37.816 C 291.781 37.198 292.454 36.889 293.266 36.889 C 293.765 36.889 294.199 36.987 294.567 37.184 C 294.935 37.381 295.199 37.653 295.358 38 C 295.516 38.347 295.596 38.85 295.596 39.511 L 295.596 43.783 L 294.453 43.783 L 294.453 39.511 C 294.453 38.939 294.329 38.523 294.082 38.263 C 293.834 38.003 293.484 37.873 293.031 37.873 C 292.693 37.873 292.374 37.961 292.076 38.136 C 291.777 38.312 291.565 38.55 291.438 38.85 C 291.311 39.151 291.247 39.566 291.247 40.095 L 291.247 43.783 L 290.105 43.783 Z " stroke-width="1"/>
  <path id="ID0.0064029935747385025" fill="#fff" d="M 301.95 41.612 L 303.13 41.758 C 302.944 42.447 302.599 42.983 302.096 43.364 C 301.592 43.744 300.949 43.935 300.166 43.935 C 299.18 43.935 298.398 43.631 297.82 43.024 C 297.243 42.417 296.954 41.565 296.954 40.469 C 296.954 39.335 297.246 38.455 297.83 37.828 C 298.414 37.202 299.171 36.889 300.102 36.889 C 301.004 36.889 301.74 37.196 302.311 37.809 C 302.883 38.423 303.168 39.286 303.168 40.399 C 303.168 40.467 303.166 40.568 303.162 40.704 L 298.135 40.704 C 298.177 41.444 298.386 42.012 298.763 42.405 C 299.14 42.799 299.609 42.995 300.172 42.995 C 300.591 42.995 300.949 42.885 301.245 42.665 C 301.541 42.445 301.776 42.094 301.95 41.612 Z M 298.198 39.764 L 301.962 39.764 C 301.912 39.197 301.768 38.772 301.531 38.489 C 301.167 38.048 300.695 37.828 300.115 37.828 C 299.59 37.828 299.149 38.004 298.792 38.355 C 298.434 38.707 298.236 39.176 298.198 39.764 Z " stroke-width="1"/>
  <path id="ID0.7977958885021508" fill="#fff" d="M 312.55 43.783 L 312.55 42.932 C 312.123 43.601 311.494 43.935 310.665 43.935 C 310.127 43.935 309.633 43.787 309.183 43.491 C 308.732 43.194 308.383 42.781 308.135 42.25 C 307.888 41.718 307.764 41.108 307.764 40.418 C 307.764 39.745 307.876 39.135 308.1 38.587 C 308.325 38.039 308.661 37.619 309.11 37.327 C 309.558 37.035 310.06 36.889 310.614 36.889 C 311.02 36.889 311.382 36.975 311.7 37.146 C 312.017 37.317 312.275 37.541 312.474 37.816 L 312.474 34.477 L 313.61 34.477 L 313.61 43.783 L 312.55 43.783 Z M 308.938 40.418 C 308.938 41.282 309.12 41.927 309.484 42.354 C 309.848 42.782 310.278 42.995 310.773 42.995 C 311.272 42.995 311.696 42.791 312.046 42.383 C 312.395 41.974 312.569 41.351 312.569 40.513 C 312.569 39.591 312.391 38.914 312.036 38.482 C 311.681 38.051 311.243 37.835 310.722 37.835 C 310.214 37.835 309.79 38.042 309.449 38.457 C 309.109 38.872 308.938 39.525 308.938 40.418 Z " stroke-width="1"/>
  <path id="ID0.30770215997472405" fill="#fff" d="M 320.021 41.612 L 321.202 41.758 C 321.016 42.447 320.671 42.983 320.167 43.364 C 319.664 43.744 319.021 43.935 318.238 43.935 C 317.252 43.935 316.47 43.631 315.892 43.024 C 315.315 42.417 315.026 41.565 315.026 40.469 C 315.026 39.335 315.318 38.455 315.902 37.828 C 316.486 37.202 317.243 36.889 318.174 36.889 C 319.076 36.889 319.812 37.196 320.383 37.809 C 320.954 38.423 321.24 39.286 321.24 40.399 C 321.24 40.467 321.238 40.568 321.234 40.704 L 316.206 40.704 C 316.249 41.444 316.458 42.012 316.835 42.405 C 317.211 42.799 317.681 42.995 318.244 42.995 C 318.663 42.995 319.021 42.885 319.317 42.665 C 319.613 42.445 319.848 42.094 320.021 41.612 Z M 316.27 39.764 L 320.034 39.764 C 319.983 39.197 319.839 38.772 319.602 38.489 C 319.238 38.048 318.767 37.828 318.187 37.828 C 317.662 37.828 317.221 38.004 316.863 38.355 C 316.506 38.707 316.308 39.176 316.27 39.764 Z " stroke-width="1"/>
  <path id="ID0.4544545356184244" fill="#fff" d="M 322.18 41.77 L 323.309 41.593 C 323.373 42.045 323.55 42.392 323.839 42.634 C 324.129 42.875 324.535 42.995 325.055 42.995 C 325.58 42.995 325.969 42.889 326.223 42.675 C 326.477 42.461 326.604 42.21 326.604 41.923 C 326.604 41.665 326.492 41.461 326.267 41.313 C 326.111 41.212 325.722 41.083 325.1 40.926 C 324.262 40.714 323.681 40.531 323.357 40.377 C 323.033 40.223 322.788 40.009 322.621 39.736 C 322.454 39.463 322.37 39.161 322.37 38.831 C 322.37 38.531 322.439 38.253 322.576 37.997 C 322.714 37.741 322.901 37.528 323.138 37.359 C 323.316 37.227 323.558 37.116 323.865 37.025 C 324.172 36.934 324.501 36.889 324.852 36.889 C 325.381 36.889 325.845 36.965 326.245 37.117 C 326.645 37.27 326.94 37.476 327.131 37.736 C 327.321 37.997 327.452 38.345 327.524 38.781 L 326.407 38.933 C 326.356 38.586 326.209 38.315 325.966 38.12 C 325.723 37.926 325.379 37.828 324.934 37.828 C 324.41 37.828 324.035 37.915 323.811 38.089 C 323.587 38.262 323.475 38.465 323.475 38.698 C 323.475 38.846 323.521 38.979 323.614 39.098 C 323.707 39.221 323.853 39.322 324.052 39.403 C 324.166 39.445 324.503 39.542 325.061 39.695 C 325.87 39.91 326.434 40.087 326.753 40.225 C 327.073 40.362 327.323 40.562 327.505 40.825 C 327.687 41.087 327.778 41.413 327.778 41.802 C 327.778 42.183 327.667 42.542 327.445 42.878 C 327.223 43.214 326.902 43.475 326.483 43.659 C 326.064 43.843 325.59 43.935 325.061 43.935 C 324.185 43.935 323.518 43.753 323.059 43.389 C 322.6 43.025 322.307 42.485 322.18 41.77 Z " stroke-width="1"/>
  <path id="ID0.881724311504513" fill="#fff" d="M 333.536 41.313 L 334.659 41.459 C 334.536 42.234 334.222 42.84 333.716 43.278 C 333.211 43.716 332.59 43.935 331.853 43.935 C 330.931 43.935 330.189 43.633 329.629 43.03 C 329.068 42.427 328.787 41.563 328.787 40.437 C 328.787 39.709 328.908 39.073 329.149 38.527 C 329.391 37.981 329.758 37.571 330.251 37.298 C 330.744 37.025 331.28 36.889 331.86 36.889 C 332.592 36.889 333.191 37.074 333.656 37.444 C 334.122 37.815 334.42 38.34 334.551 39.022 L 333.44 39.193 C 333.335 38.74 333.147 38.4 332.879 38.171 C 332.61 37.943 332.285 37.828 331.904 37.828 C 331.329 37.828 330.861 38.035 330.501 38.447 C 330.142 38.86 329.962 39.513 329.962 40.406 C 329.962 41.311 330.135 41.969 330.482 42.38 C 330.829 42.79 331.282 42.995 331.841 42.995 C 332.289 42.995 332.664 42.858 332.964 42.583 C 333.265 42.308 333.455 41.885 333.536 41.313 Z " stroke-width="1"/>
  <path id="ID0.9575645229779184" fill="#fff" d="M 335.624 43.783 L 335.624 37.041 L 336.652 37.041 L 336.652 38.063 C 336.915 37.585 337.157 37.27 337.379 37.117 C 337.601 36.965 337.846 36.889 338.112 36.889 C 338.497 36.889 338.889 37.012 339.287 37.257 L 338.893 38.317 C 338.614 38.152 338.334 38.07 338.055 38.07 C 337.805 38.07 337.581 38.145 337.382 38.295 C 337.183 38.445 337.042 38.654 336.957 38.92 C 336.83 39.326 336.766 39.771 336.766 40.253 L 336.766 43.783 L 335.624 43.783 Z " stroke-width="1"/>
  <path id="ID0.6544209974817932" fill="#fff" d="M 339.972 35.791 L 339.972 34.477 L 341.115 34.477 L 341.115 35.791 L 339.972 35.791 Z M 339.972 43.783 L 339.972 37.041 L 341.115 37.041 L 341.115 43.783 L 339.972 43.783 Z " stroke-width="1"/>
  <path id="ID0.5315568223595619" fill="#fff" d="M 342.854 46.366 L 342.854 37.041 L 343.895 37.041 L 343.895 37.917 C 344.14 37.575 344.418 37.317 344.726 37.146 C 345.035 36.975 345.41 36.889 345.85 36.889 C 346.426 36.889 346.933 37.037 347.373 37.333 C 347.814 37.63 348.146 38.047 348.37 38.587 C 348.594 39.127 348.706 39.718 348.706 40.361 C 348.706 41.051 348.583 41.672 348.335 42.224 C 348.088 42.776 347.728 43.2 347.256 43.494 C 346.784 43.788 346.288 43.935 345.767 43.935 C 345.387 43.935 345.045 43.854 344.742 43.694 C 344.44 43.533 344.191 43.33 343.996 43.084 L 343.996 46.366 L 342.854 46.366 Z M 343.889 40.45 C 343.889 41.318 344.064 41.959 344.415 42.373 C 344.767 42.788 345.192 42.995 345.691 42.995 C 346.199 42.995 346.634 42.781 346.996 42.351 C 347.358 41.922 347.538 41.256 347.538 40.355 C 347.538 39.496 347.362 38.852 347.008 38.425 C 346.655 37.998 346.233 37.784 345.742 37.784 C 345.255 37.784 344.825 38.011 344.45 38.466 C 344.076 38.921 343.889 39.582 343.889 40.45 Z " stroke-width="1"/>
  <path id="ID0.5930828093551099" fill="#fff" d="M 352.579 42.761 L 352.744 43.77 C 352.422 43.838 352.134 43.871 351.88 43.871 C 351.466 43.871 351.144 43.806 350.915 43.675 C 350.687 43.543 350.526 43.371 350.433 43.157 C 350.34 42.944 350.293 42.494 350.293 41.808 L 350.293 37.93 L 349.455 37.93 L 349.455 37.041 L 350.293 37.041 L 350.293 35.372 L 351.43 34.686 L 351.43 37.041 L 352.579 37.041 L 352.579 37.93 L 351.43 37.93 L 351.43 41.872 C 351.43 42.198 351.45 42.407 351.49 42.5 C 351.53 42.593 351.596 42.667 351.687 42.722 C 351.778 42.777 351.908 42.805 352.077 42.805 C 352.204 42.805 352.371 42.79 352.579 42.761 Z " stroke-width="1"/>
  <path id="ID0.7274860069155693" fill="#fff" d="M 353.702 35.791 L 353.702 34.477 L 354.845 34.477 L 354.845 35.791 L 353.702 35.791 Z M 353.702 43.783 L 353.702 37.041 L 354.845 37.041 L 354.845 43.783 L 353.702 43.783 Z " stroke-width="1"/>
  <path id="ID0.1791380913928151" fill="#fff" d="M 356.159 40.412 C 356.159 39.164 356.506 38.239 357.2 37.638 C 357.779 37.139 358.486 36.889 359.32 36.889 C 360.246 36.889 361.004 37.193 361.592 37.8 C 362.18 38.407 362.475 39.246 362.475 40.317 C 362.475 41.184 362.344 41.867 362.084 42.364 C 361.824 42.861 361.445 43.247 360.948 43.522 C 360.451 43.797 359.908 43.935 359.32 43.935 C 358.376 43.935 357.613 43.632 357.031 43.027 C 356.45 42.422 356.159 41.55 356.159 40.412 Z M 357.333 40.412 C 357.333 41.275 357.521 41.922 357.898 42.351 C 358.274 42.781 358.748 42.995 359.32 42.995 C 359.887 42.995 360.359 42.78 360.735 42.348 C 361.112 41.916 361.3 41.258 361.3 40.374 C 361.3 39.54 361.111 38.909 360.732 38.479 C 360.353 38.05 359.883 37.835 359.32 37.835 C 358.748 37.835 358.274 38.048 357.898 38.476 C 357.521 38.903 357.333 39.549 357.333 40.412 Z " stroke-width="1"/>
  <path id="ID0.6358354045078158" fill="#fff" d="M 363.814 43.783 L 363.814 37.041 L 364.842 37.041 L 364.842 38 C 365.337 37.259 366.052 36.889 366.988 36.889 C 367.394 36.889 367.767 36.962 368.108 37.108 C 368.449 37.254 368.704 37.445 368.873 37.682 C 369.042 37.919 369.161 38.201 369.228 38.527 C 369.271 38.738 369.292 39.109 369.292 39.637 L 369.292 43.783 L 368.149 43.783 L 368.149 39.682 C 368.149 39.216 368.105 38.868 368.016 38.638 C 367.927 38.407 367.77 38.223 367.543 38.085 C 367.317 37.948 367.051 37.879 366.746 37.879 C 366.26 37.879 365.84 38.034 365.486 38.343 C 365.133 38.651 364.956 39.238 364.956 40.101 L 364.956 43.783 L 363.814 43.783 Z " stroke-width="1"/>
  <path id="ID0.9622846399433911" fill="#fff" d="M 371.368 42.481 L 372.669 42.481 L 372.669 43.782 L 371.368 43.782 L 371.368 42.481 Z " stroke-width="1"/>
  <path id="ID0.0750247216783464" fill="#fff" d="M 2.118 63.902 L 3.349 63.902 L 3.349 73.208 L 2.118 73.208 L 2.118 63.902 Z " stroke-width="1"/>
  <path id="ID0.6201918199658394" fill="#fff" d="M 5.374 73.208 L 5.374 66.467 L 6.403 66.467 L 6.403 67.425 C 6.898 66.685 7.613 66.314 8.548 66.314 C 8.954 66.314 9.328 66.387 9.669 66.533 C 10.009 66.679 10.264 66.871 10.433 67.108 C 10.603 67.345 10.721 67.626 10.789 67.952 C 10.831 68.164 10.852 68.534 10.852 69.063 L 10.852 73.208 L 9.71 73.208 L 9.71 69.107 C 9.71 68.642 9.665 68.294 9.577 68.063 C 9.488 67.832 9.33 67.648 9.104 67.511 C 8.877 67.373 8.612 67.304 8.307 67.304 C 7.82 67.304 7.4 67.459 7.047 67.768 C 6.694 68.077 6.517 68.663 6.517 69.526 L 6.517 73.208 L 5.374 73.208 Z " stroke-width="1"/>
  <path id="ID0.5010458813048899" fill="#fff" d="M 12.604 75.791 L 12.604 66.467 L 13.645 66.467 L 13.645 67.343 C 13.891 67 14.168 66.743 14.477 66.571 C 14.786 66.4 15.16 66.314 15.6 66.314 C 16.176 66.314 16.684 66.462 17.124 66.759 C 17.564 67.055 17.896 67.473 18.12 68.012 C 18.345 68.552 18.457 69.143 18.457 69.786 C 18.457 70.476 18.333 71.097 18.086 71.649 C 17.838 72.202 17.478 72.625 17.006 72.919 C 16.535 73.213 16.038 73.36 15.518 73.36 C 15.137 73.36 14.795 73.28 14.493 73.119 C 14.19 72.958 13.942 72.755 13.747 72.51 L 13.747 75.791 L 12.604 75.791 Z M 13.639 69.875 C 13.639 70.743 13.815 71.384 14.166 71.799 C 14.517 72.213 14.942 72.421 15.442 72.421 C 15.95 72.421 16.384 72.206 16.746 71.776 C 17.108 71.347 17.289 70.681 17.289 69.78 C 17.289 68.921 17.112 68.278 16.759 67.85 C 16.406 67.423 15.983 67.209 15.493 67.209 C 15.006 67.209 14.575 67.437 14.201 67.892 C 13.826 68.347 13.639 69.008 13.639 69.875 Z " stroke-width="1"/>
  <path id="ID0.0579385943710804" fill="#fff" d="M 24.252 73.208 L 24.252 72.218 C 23.728 72.979 23.015 73.36 22.113 73.36 C 21.715 73.36 21.344 73.284 20.999 73.132 C 20.654 72.979 20.398 72.788 20.231 72.557 C 20.064 72.327 19.947 72.044 19.879 71.71 C 19.832 71.485 19.809 71.13 19.809 70.643 L 19.809 66.467 L 20.952 66.467 L 20.952 70.205 C 20.952 70.802 20.975 71.204 21.021 71.411 C 21.093 71.712 21.246 71.948 21.478 72.119 C 21.711 72.291 21.999 72.376 22.342 72.376 C 22.684 72.376 23.006 72.288 23.307 72.113 C 23.607 71.937 23.82 71.698 23.944 71.396 C 24.069 71.093 24.132 70.654 24.132 70.078 L 24.132 66.467 L 25.274 66.467 L 25.274 73.208 L 24.252 73.208 Z " stroke-width="1"/>
  <path id="ID0.08517235750332475" fill="#fff" d="M 29.559 72.186 L 29.724 73.195 C 29.402 73.263 29.115 73.297 28.861 73.297 C 28.446 73.297 28.124 73.231 27.896 73.1 C 27.667 72.969 27.507 72.796 27.413 72.583 C 27.32 72.369 27.274 71.919 27.274 71.234 L 27.274 67.355 L 26.436 67.355 L 26.436 66.467 L 27.274 66.467 L 27.274 64.797 L 28.41 64.112 L 28.41 66.467 L 29.559 66.467 L 29.559 67.355 L 28.41 67.355 L 28.41 71.297 C 28.41 71.623 28.43 71.832 28.47 71.926 C 28.511 72.019 28.576 72.093 28.667 72.148 C 28.758 72.203 28.888 72.23 29.058 72.23 C 29.184 72.23 29.352 72.215 29.559 72.186 Z " stroke-width="1"/>
  <path id="ID0.8612864739261568" fill="#fff" d="M 34.288 73.208 L 34.288 66.467 L 35.316 66.467 L 35.316 67.425 C 35.811 66.685 36.527 66.314 37.462 66.314 C 37.868 66.314 38.242 66.387 38.582 66.533 C 38.923 66.679 39.178 66.871 39.347 67.108 C 39.516 67.345 39.635 67.626 39.703 67.952 C 39.745 68.164 39.766 68.534 39.766 69.063 L 39.766 73.208 L 38.623 73.208 L 38.623 69.107 C 38.623 68.642 38.579 68.294 38.49 68.063 C 38.401 67.832 38.244 67.648 38.017 67.511 C 37.791 67.373 37.525 67.304 37.221 67.304 C 36.734 67.304 36.314 67.459 35.961 67.768 C 35.607 68.077 35.431 68.663 35.431 69.526 L 35.431 73.208 L 34.288 73.208 Z " stroke-width="1"/>
  <path id="ID0.7078733500093222" fill="#fff" d="M 41.093 69.837 C 41.093 68.589 41.44 67.664 42.134 67.063 C 42.713 66.564 43.42 66.314 44.254 66.314 C 45.181 66.314 45.938 66.618 46.526 67.225 C 47.114 67.832 47.409 68.671 47.409 69.742 C 47.409 70.609 47.278 71.292 47.018 71.789 C 46.758 72.286 46.379 72.672 45.882 72.948 C 45.385 73.223 44.842 73.36 44.254 73.36 C 43.31 73.36 42.547 73.058 41.965 72.452 C 41.384 71.847 41.093 70.976 41.093 69.837 Z M 42.267 69.837 C 42.267 70.7 42.455 71.347 42.832 71.776 C 43.209 72.206 43.683 72.421 44.254 72.421 C 44.821 72.421 45.293 72.205 45.669 71.773 C 46.046 71.342 46.234 70.684 46.234 69.799 C 46.234 68.965 46.045 68.334 45.666 67.904 C 45.287 67.475 44.817 67.26 44.254 67.26 C 43.683 67.26 43.209 67.474 42.832 67.901 C 42.455 68.329 42.267 68.974 42.267 69.837 Z " stroke-width="1"/>
  <path id="ID0.6890621529892087" fill="#fff" d="M 51.243 72.186 L 51.408 73.195 C 51.086 73.263 50.798 73.297 50.544 73.297 C 50.13 73.297 49.808 73.231 49.579 73.1 C 49.351 72.969 49.19 72.796 49.097 72.583 C 49.004 72.369 48.957 71.919 48.957 71.234 L 48.957 67.355 L 48.12 67.355 L 48.12 66.467 L 48.957 66.467 L 48.957 64.797 L 50.094 64.112 L 50.094 66.467 L 51.243 66.467 L 51.243 67.355 L 50.094 67.355 L 50.094 71.297 C 50.094 71.623 50.114 71.832 50.154 71.926 C 50.194 72.019 50.26 72.093 50.351 72.148 C 50.442 72.203 50.572 72.23 50.741 72.23 C 50.868 72.23 51.035 72.215 51.243 72.186 Z " stroke-width="1"/>
  <path id="ID0.25645330734550953" fill="#fff" d="M 52.36 73.208 L 52.36 63.902 L 53.502 63.902 L 53.502 67.241 C 54.036 66.623 54.708 66.314 55.521 66.314 C 56.02 66.314 56.454 66.413 56.822 66.609 C 57.19 66.806 57.454 67.078 57.612 67.425 C 57.771 67.772 57.85 68.276 57.85 68.936 L 57.85 73.208 L 56.708 73.208 L 56.708 68.936 C 56.708 68.365 56.584 67.949 56.337 67.689 C 56.089 67.428 55.739 67.298 55.286 67.298 C 54.947 67.298 54.629 67.386 54.331 67.562 C 54.032 67.737 53.82 67.975 53.693 68.276 C 53.566 68.576 53.502 68.991 53.502 69.52 L 53.502 73.208 L 52.36 73.208 Z " stroke-width="1"/>
  <path id="ID0.992853248026222" fill="#fff" d="M 59.596 65.216 L 59.596 63.902 L 60.739 63.902 L 60.739 65.216 L 59.596 65.216 Z M 59.596 73.208 L 59.596 66.467 L 60.739 66.467 L 60.739 73.208 L 59.596 73.208 Z " stroke-width="1"/>
  <path id="ID0.08684254623949528" fill="#fff" d="M 62.478 73.208 L 62.478 66.467 L 63.506 66.467 L 63.506 67.425 C 64.001 66.685 64.717 66.314 65.652 66.314 C 66.058 66.314 66.431 66.387 66.772 66.533 C 67.113 66.679 67.368 66.871 67.537 67.108 C 67.706 67.345 67.825 67.626 67.892 67.952 C 67.935 68.164 67.956 68.534 67.956 69.063 L 67.956 73.208 L 66.813 73.208 L 66.813 69.107 C 66.813 68.642 66.769 68.294 66.68 68.063 C 66.591 67.832 66.434 67.648 66.207 67.511 C 65.981 67.373 65.715 67.304 65.411 67.304 C 64.924 67.304 64.504 67.459 64.151 67.768 C 63.797 68.077 63.62 68.663 63.62 69.526 L 63.62 73.208 L 62.478 73.208 Z " stroke-width="1"/>
  <path id="ID0.2759679085575044" fill="#fff" d="M 69.498 73.766 L 70.609 73.931 C 70.656 74.274 70.785 74.524 70.996 74.68 C 71.28 74.892 71.667 74.998 72.158 74.998 C 72.687 74.998 73.095 74.892 73.383 74.68 C 73.671 74.469 73.866 74.173 73.967 73.792 C 74.026 73.559 74.054 73.07 74.05 72.325 C 73.55 72.914 72.928 73.208 72.183 73.208 C 71.257 73.208 70.539 72.873 70.032 72.205 C 69.524 71.536 69.27 70.734 69.27 69.799 C 69.27 69.156 69.386 68.562 69.619 68.019 C 69.852 67.475 70.189 67.055 70.631 66.759 C 71.074 66.462 71.593 66.314 72.19 66.314 C 72.985 66.314 73.641 66.636 74.158 67.279 L 74.158 66.467 L 75.211 66.467 L 75.211 72.294 C 75.211 73.343 75.104 74.087 74.891 74.525 C 74.677 74.963 74.339 75.309 73.875 75.563 C 73.412 75.817 72.842 75.944 72.164 75.944 C 71.36 75.944 70.711 75.763 70.216 75.401 C 69.721 75.039 69.481 74.494 69.498 73.766 Z M 70.444 69.717 C 70.444 70.601 70.62 71.246 70.971 71.653 C 71.322 72.059 71.762 72.262 72.291 72.262 C 72.816 72.262 73.256 72.06 73.612 71.656 C 73.967 71.252 74.145 70.618 74.145 69.755 C 74.145 68.929 73.962 68.307 73.596 67.888 C 73.23 67.47 72.789 67.26 72.272 67.26 C 71.765 67.26 71.333 67.466 70.977 67.879 C 70.622 68.292 70.444 68.904 70.444 69.717 Z " stroke-width="1"/>
  <path id="ID0.4371967865154147" fill="#fff" d="M 83.044 72.186 L 83.209 73.195 C 82.888 73.263 82.6 73.297 82.346 73.297 C 81.931 73.297 81.61 73.231 81.381 73.1 C 81.153 72.969 80.992 72.796 80.899 72.583 C 80.806 72.369 80.759 71.919 80.759 71.234 L 80.759 67.355 L 79.921 67.355 L 79.921 66.467 L 80.759 66.467 L 80.759 64.797 L 81.895 64.112 L 81.895 66.467 L 83.044 66.467 L 83.044 67.355 L 81.895 67.355 L 81.895 71.297 C 81.895 71.623 81.916 71.832 81.956 71.926 C 81.996 72.019 82.061 72.093 82.152 72.148 C 82.243 72.203 82.374 72.23 82.543 72.23 C 82.67 72.23 82.837 72.215 83.044 72.186 Z " stroke-width="1"/>
  <path id="ID0.7205972922965884" fill="#fff" d="M 83.736 69.837 C 83.736 68.589 84.083 67.664 84.777 67.063 C 85.357 66.564 86.064 66.314 86.897 66.314 C 87.824 66.314 88.582 66.618 89.17 67.225 C 89.758 67.832 90.052 68.671 90.052 69.742 C 90.052 70.609 89.922 71.292 89.662 71.789 C 89.402 72.286 89.023 72.672 88.526 72.948 C 88.028 73.223 87.486 73.36 86.897 73.36 C 85.954 73.36 85.191 73.058 84.609 72.452 C 84.027 71.847 83.736 70.976 83.736 69.837 Z M 84.911 69.837 C 84.911 70.7 85.099 71.347 85.475 71.776 C 85.852 72.206 86.326 72.421 86.897 72.421 C 87.464 72.421 87.936 72.205 88.313 71.773 C 88.69 71.342 88.878 70.684 88.878 69.799 C 88.878 68.965 88.688 68.334 88.31 67.904 C 87.931 67.475 87.46 67.26 86.897 67.26 C 86.326 67.26 85.852 67.474 85.475 67.901 C 85.099 68.329 84.911 68.974 84.911 69.837 Z " stroke-width="1"/>
  <path id="ID0.2617909936234355" fill="#fff" d="M 99.377 73.208 L 99.377 72.357 C 98.949 73.026 98.321 73.36 97.492 73.36 C 96.954 73.36 96.46 73.212 96.009 72.916 C 95.559 72.62 95.21 72.206 94.962 71.675 C 94.714 71.144 94.591 70.533 94.591 69.844 C 94.591 69.171 94.703 68.56 94.927 68.012 C 95.151 67.464 95.488 67.044 95.936 66.752 C 96.385 66.46 96.886 66.314 97.441 66.314 C 97.847 66.314 98.209 66.4 98.526 66.571 C 98.844 66.743 99.102 66.966 99.301 67.241 L 99.301 63.902 L 100.437 63.902 L 100.437 73.208 L 99.377 73.208 Z M 95.765 69.844 C 95.765 70.707 95.947 71.352 96.311 71.78 C 96.675 72.207 97.104 72.421 97.6 72.421 C 98.099 72.421 98.523 72.217 98.872 71.808 C 99.221 71.4 99.396 70.777 99.396 69.939 C 99.396 69.016 99.218 68.339 98.863 67.908 C 98.507 67.476 98.069 67.26 97.549 67.26 C 97.041 67.26 96.617 67.467 96.276 67.882 C 95.935 68.297 95.765 68.951 95.765 69.844 Z " stroke-width="1"/>
  <path id="ID0.25150427455082536" fill="#fff" d="M 102.24 65.216 L 102.24 63.902 L 103.382 63.902 L 103.382 65.216 L 102.24 65.216 Z M 102.24 73.208 L 102.24 66.467 L 103.382 66.467 L 103.382 73.208 L 102.24 73.208 Z " stroke-width="1"/>
  <path id="ID0.8149038134142756" fill="#fff" d="M 104.664 71.196 L 105.794 71.018 C 105.858 71.471 106.034 71.818 106.324 72.059 C 106.614 72.3 107.019 72.421 107.54 72.421 C 108.065 72.421 108.454 72.314 108.708 72.1 C 108.962 71.886 109.089 71.636 109.089 71.348 C 109.089 71.09 108.977 70.887 108.752 70.739 C 108.596 70.637 108.206 70.508 107.584 70.351 C 106.746 70.14 106.166 69.957 105.842 69.802 C 105.518 69.648 105.273 69.434 105.106 69.161 C 104.938 68.888 104.855 68.587 104.855 68.257 C 104.855 67.956 104.924 67.678 105.061 67.422 C 105.199 67.166 105.386 66.953 105.623 66.784 C 105.801 66.653 106.043 66.542 106.35 66.451 C 106.657 66.36 106.986 66.314 107.337 66.314 C 107.866 66.314 108.33 66.39 108.73 66.543 C 109.13 66.695 109.425 66.901 109.616 67.162 C 109.806 67.422 109.937 67.77 110.009 68.206 L 108.892 68.358 C 108.841 68.011 108.694 67.74 108.451 67.546 C 108.207 67.351 107.864 67.254 107.419 67.254 C 106.895 67.254 106.52 67.34 106.296 67.514 C 106.072 67.687 105.959 67.891 105.959 68.123 C 105.959 68.271 106.006 68.405 106.099 68.523 C 106.192 68.646 106.338 68.748 106.537 68.828 C 106.651 68.87 106.988 68.968 107.546 69.12 C 108.355 69.336 108.918 69.512 109.238 69.65 C 109.557 69.787 109.808 69.987 109.99 70.25 C 110.172 70.512 110.263 70.838 110.263 71.227 C 110.263 71.608 110.152 71.967 109.93 72.303 C 109.708 72.64 109.387 72.9 108.968 73.084 C 108.549 73.268 108.075 73.36 107.546 73.36 C 106.67 73.36 106.003 73.178 105.544 72.814 C 105.084 72.45 104.791 71.911 104.664 71.196 Z " stroke-width="1"/>
  <path id="ID0.8539823405444622" fill="#fff" d="M 111.621 73.208 L 111.621 66.467 L 112.643 66.467 L 112.643 67.412 C 112.855 67.082 113.136 66.817 113.488 66.616 C 113.839 66.415 114.239 66.314 114.687 66.314 C 115.187 66.314 115.596 66.418 115.916 66.625 C 116.235 66.833 116.461 67.123 116.592 67.495 C 117.125 66.708 117.819 66.314 118.674 66.314 C 119.342 66.314 119.856 66.499 120.216 66.87 C 120.576 67.24 120.756 67.81 120.756 68.58 L 120.756 73.208 L 119.62 73.208 L 119.62 68.961 C 119.62 68.504 119.582 68.175 119.508 67.974 C 119.434 67.773 119.3 67.611 119.105 67.489 C 118.911 67.366 118.682 67.304 118.42 67.304 C 117.946 67.304 117.552 67.462 117.239 67.777 C 116.926 68.093 116.769 68.597 116.769 69.291 L 116.769 73.208 L 115.627 73.208 L 115.627 68.828 C 115.627 68.32 115.534 67.939 115.348 67.685 C 115.161 67.431 114.857 67.304 114.433 67.304 C 114.112 67.304 113.815 67.389 113.542 67.558 C 113.269 67.728 113.071 67.975 112.948 68.301 C 112.825 68.627 112.764 69.097 112.764 69.71 L 112.764 73.208 L 111.621 73.208 Z " stroke-width="1"/>
  <path id="ID0.7881787735968828" fill="#fff" d="M 122.457 65.216 L 122.457 63.902 L 123.6 63.902 L 123.6 65.216 L 122.457 65.216 Z M 122.457 73.208 L 122.457 66.467 L 123.6 66.467 L 123.6 73.208 L 122.457 73.208 Z " stroke-width="1"/>
  <path id="ID0.24526730552315712" fill="#fff" d="M 124.882 71.196 L 126.012 71.018 C 126.075 71.471 126.252 71.818 126.542 72.059 C 126.832 72.3 127.237 72.421 127.757 72.421 C 128.282 72.421 128.671 72.314 128.925 72.1 C 129.179 71.886 129.306 71.636 129.306 71.348 C 129.306 71.09 129.194 70.887 128.97 70.739 C 128.813 70.637 128.424 70.508 127.802 70.351 C 126.964 70.14 126.383 69.957 126.059 69.802 C 125.735 69.648 125.49 69.434 125.323 69.161 C 125.156 68.888 125.072 68.587 125.072 68.257 C 125.072 67.956 125.141 67.678 125.278 67.422 C 125.416 67.166 125.603 66.953 125.84 66.784 C 126.018 66.653 126.26 66.542 126.567 66.451 C 126.874 66.36 127.203 66.314 127.554 66.314 C 128.083 66.314 128.547 66.39 128.947 66.543 C 129.347 66.695 129.642 66.901 129.833 67.162 C 130.023 67.422 130.155 67.77 130.226 68.206 L 129.109 68.358 C 129.058 68.011 128.911 67.74 128.668 67.546 C 128.425 67.351 128.081 67.254 127.637 67.254 C 127.112 67.254 126.737 67.34 126.513 67.514 C 126.289 67.687 126.177 67.891 126.177 68.123 C 126.177 68.271 126.223 68.405 126.316 68.523 C 126.409 68.646 126.555 68.748 126.754 68.828 C 126.869 68.87 127.205 68.968 127.764 69.12 C 128.572 69.336 129.136 69.512 129.455 69.65 C 129.775 69.787 130.025 69.987 130.207 70.25 C 130.389 70.512 130.48 70.838 130.48 71.227 C 130.48 71.608 130.369 71.967 130.147 72.303 C 129.925 72.64 129.604 72.9 129.185 73.084 C 128.766 73.268 128.293 73.36 127.764 73.36 C 126.888 73.36 126.22 73.178 125.761 72.814 C 125.302 72.45 125.009 71.911 124.882 71.196 Z " stroke-width="1"/>
  <path id="ID0.33684211783111095" fill="#fff" d="M 131.382 71.196 L 132.512 71.018 C 132.575 71.471 132.752 71.818 133.042 72.059 C 133.332 72.3 133.737 72.421 134.257 72.421 C 134.782 72.421 135.171 72.314 135.425 72.1 C 135.679 71.886 135.806 71.636 135.806 71.348 C 135.806 71.09 135.694 70.887 135.47 70.739 C 135.313 70.637 134.924 70.508 134.302 70.351 C 133.464 70.14 132.883 69.957 132.559 69.802 C 132.235 69.648 131.99 69.434 131.823 69.161 C 131.656 68.888 131.572 68.587 131.572 68.257 C 131.572 67.956 131.641 67.678 131.778 67.422 C 131.916 67.166 132.103 66.953 132.34 66.784 C 132.518 66.653 132.76 66.542 133.067 66.451 C 133.374 66.36 133.703 66.314 134.054 66.314 C 134.583 66.314 135.047 66.39 135.447 66.543 C 135.847 66.695 136.142 66.901 136.333 67.162 C 136.523 67.422 136.655 67.77 136.726 68.206 L 135.609 68.358 C 135.558 68.011 135.411 67.74 135.168 67.546 C 134.925 67.351 134.581 67.254 134.137 67.254 C 133.612 67.254 133.237 67.34 133.013 67.514 C 132.789 67.687 132.677 67.891 132.677 68.123 C 132.677 68.271 132.723 68.405 132.816 68.523 C 132.909 68.646 133.055 68.748 133.254 68.828 C 133.369 68.87 133.705 68.968 134.264 69.12 C 135.072 69.336 135.636 69.512 135.955 69.65 C 136.275 69.787 136.525 69.987 136.707 70.25 C 136.889 70.512 136.98 70.838 136.98 71.227 C 136.98 71.608 136.869 71.967 136.647 72.303 C 136.425 72.64 136.104 72.9 135.685 73.084 C 135.266 73.268 134.793 73.36 134.264 73.36 C 133.388 73.36 132.72 73.178 132.261 72.814 C 131.802 72.45 131.509 71.911 131.382 71.196 Z " stroke-width="1"/>
  <path id="ID0.06507871253415942" fill="#fff" d="M 138.662 71.907 L 139.963 71.907 L 139.963 73.208 L 138.662 73.208 L 138.662 71.907 Z " stroke-width="1"/>
  <path id="ID0.5925578908063471" fill="#fff" d="M 0.793 0.841 L 2.961 0.841 L 2.961 11.578 L 0.793 11.578 L 0.793 0.841 Z " stroke-width="1"/>
  <path id="ID0.2744648791849613" fill="#fff" d="M 4.858 3.800 L 6.755 3.800 L 6.755 4.862 C 7.433 4.037 8.241 3.624 9.179 3.624 C 9.677 3.624 10.109 3.727 10.475 3.932 C 10.841 4.137 11.142 4.447 11.376 4.862 C 11.718 4.447 12.087 4.137 12.482 3.932 C 12.878 3.727 13.300 3.624 13.749 3.624 C 14.320 3.624 14.804 3.740 15.199 3.972 C 15.595 4.204 15.890 4.545 16.086 4.994 C 16.227 5.326 16.298 5.863 16.298 6.605 L 16.298 11.578 L 14.240 11.578 L 14.240 7.133 C 14.240 6.361 14.169 5.863 14.028 5.639 C 13.837 5.346 13.544 5.199 13.149 5.199 C 12.861 5.199 12.590 5.287 12.336 5.463 C 12.082 5.639 11.899 5.896 11.786 6.235 C 11.674 6.575 11.618 7.111 11.618 7.843 L 11.618 11.578 L 9.560 11.578 L 9.560 7.316 C 9.560 6.559 9.523 6.071 9.450 5.851 C 9.377 5.631 9.263 5.468 9.109 5.360 C 8.955 5.253 8.747 5.199 8.483 5.199 C 8.166 5.199 7.880 5.285 7.626 5.455 C 7.372 5.626 7.190 5.873 7.080 6.195 C 6.971 6.517 6.916 7.052 6.916 7.799 L 6.916 11.578 L 4.858 11.578 L 4.858 3.800 Z " stroke-width="1"/>
  <path id="ID0.45933433808386326" fill="#fff" d="M 18.290 3.800 L 20.209 3.800 L 20.209 4.943 C 20.458 4.552 20.795 4.235 21.220 3.991 C 21.645 3.746 22.116 3.624 22.633 3.624 C 23.537 3.624 24.303 3.978 24.933 4.686 C 25.563 5.394 25.878 6.381 25.878 7.645 C 25.878 8.944 25.561 9.954 24.926 10.674 C 24.291 11.394 23.522 11.754 22.619 11.754 C 22.189 11.754 21.800 11.669 21.451 11.498 C 21.101 11.327 20.734 11.034 20.348 10.619 L 20.348 14.537 L 18.290 14.537 L 18.290 3.800 Z M 20.326 7.557 C 20.326 8.431 20.500 9.077 20.846 9.495 C 21.193 9.912 21.615 10.121 22.113 10.121 C 22.592 10.121 22.990 9.929 23.307 9.546 C 23.625 9.163 23.783 8.534 23.783 7.660 C 23.783 6.845 23.620 6.239 23.293 5.844 C 22.965 5.448 22.560 5.250 22.077 5.250 C 21.574 5.250 21.156 5.444 20.824 5.833 C 20.492 6.221 20.326 6.796 20.326 7.557 Z " stroke-width="1"/>
  <path id="ID0.00692538358271122" fill="#fff" d="M 27.035 7.579 C 27.035 6.896 27.204 6.234 27.541 5.595 C 27.878 4.955 28.355 4.467 28.973 4.130 C 29.590 3.793 30.280 3.624 31.042 3.624 C 32.218 3.624 33.183 4.006 33.935 4.771 C 34.687 5.535 35.063 6.500 35.063 7.667 C 35.063 8.844 34.683 9.819 33.924 10.593 C 33.164 11.367 32.209 11.754 31.056 11.754 C 30.343 11.754 29.663 11.593 29.017 11.271 C 28.370 10.949 27.878 10.476 27.541 9.854 C 27.204 9.231 27.035 8.473 27.035 7.579 Z M 29.145 7.689 C 29.145 8.461 29.328 9.052 29.694 9.462 C 30.060 9.872 30.512 10.077 31.049 10.077 C 31.586 10.077 32.037 9.872 32.400 9.462 C 32.764 9.052 32.946 8.456 32.946 7.675 C 32.946 6.913 32.764 6.327 32.400 5.917 C 32.037 5.507 31.586 5.302 31.049 5.302 C 30.512 5.302 30.060 5.507 29.694 5.917 C 29.328 6.327 29.145 6.918 29.145 7.689 Z " stroke-width="1"/>
  <path id="ID0.931506359949708" fill="#fff" d="M 38.644 11.578 L 36.586 11.578 L 36.586 3.800 L 38.498 3.800 L 38.498 4.906 C 38.825 4.384 39.119 4.039 39.380 3.873 C 39.642 3.707 39.938 3.624 40.270 3.624 C 40.739 3.624 41.191 3.754 41.625 4.013 L 40.988 5.807 C 40.641 5.582 40.319 5.470 40.021 5.470 C 39.733 5.470 39.489 5.549 39.289 5.708 C 39.089 5.867 38.931 6.154 38.816 6.569 C 38.702 6.984 38.644 7.853 38.644 9.176 L 38.644 11.578 Z " stroke-width="1"/>
  <path id="ID0.8940065274946392" fill="#fff" d="M 46.078 3.800 L 46.078 5.441 L 44.672 5.441 L 44.672 8.576 C 44.672 9.210 44.685 9.580 44.712 9.685 C 44.739 9.790 44.800 9.877 44.895 9.945 C 44.991 10.014 45.107 10.048 45.243 10.048 C 45.434 10.048 45.710 9.982 46.071 9.850 L 46.247 11.447 C 45.768 11.652 45.226 11.754 44.621 11.754 C 44.250 11.754 43.915 11.692 43.617 11.567 C 43.319 11.443 43.101 11.282 42.962 11.084 C 42.823 10.886 42.726 10.619 42.673 10.282 C 42.629 10.043 42.607 9.559 42.607 8.832 L 42.607 5.441 L 41.662 5.441 L 41.662 3.800 L 42.607 3.800 L 42.607 2.255 L 44.672 1.054 L 44.672 3.800 L 46.078 3.800 Z " stroke-width="1"/>
  <path id="ID0.9469534712843597" fill="#fff" d="M 51.747 11.578 L 51.747 0.929 L 53.915 0.929 L 53.915 9.769 L 59.306 9.769 L 59.306 11.578 L 51.747 11.578 Z " stroke-width="1"/>
  <path id="ID0.9702286343090236" fill="#fff" d="M 65.341 9.103 L 67.392 9.447 C 67.128 10.199 66.712 10.772 66.143 11.165 C 65.574 11.558 64.862 11.754 64.008 11.754 C 62.655 11.754 61.654 11.312 61.005 10.429 C 60.492 9.721 60.236 8.827 60.236 7.748 C 60.236 6.459 60.573 5.449 61.247 4.719 C 61.921 3.989 62.773 3.624 63.803 3.624 C 64.960 3.624 65.873 4.006 66.542 4.771 C 67.211 5.535 67.531 6.705 67.502 8.283 L 62.345 8.283 C 62.360 8.893 62.526 9.368 62.843 9.707 C 63.161 10.046 63.556 10.216 64.030 10.216 C 64.352 10.216 64.623 10.128 64.843 9.952 C 65.063 9.777 65.229 9.494 65.341 9.103 Z M 65.458 7.023 C 65.444 6.427 65.290 5.974 64.997 5.664 C 64.704 5.354 64.347 5.199 63.927 5.199 C 63.478 5.199 63.107 5.363 62.814 5.690 C 62.521 6.017 62.377 6.461 62.382 7.023 L 65.458 7.023 Z " stroke-width="1"/>
  <path id="ID0.45433173002675176" fill="#fff" d="M 71.318 11.578 L 68.183 3.800 L 70.343 3.800 L 71.808 7.770 L 72.233 9.096 C 72.345 8.759 72.416 8.536 72.445 8.429 C 72.514 8.209 72.587 7.990 72.665 7.770 L 74.145 3.800 L 76.261 3.800 L 73.171 11.578 L 71.318 11.578 Z " stroke-width="1"/>
  <path id="ID0.9875577948987484" fill="#fff" d="M 82.026 9.103 L 84.076 9.447 C 83.813 10.199 83.396 10.772 82.828 11.165 C 82.259 11.558 81.547 11.754 80.693 11.754 C 79.340 11.754 78.339 11.312 77.690 10.429 C 77.177 9.721 76.921 8.827 76.921 7.748 C 76.921 6.459 77.257 5.449 77.931 4.719 C 78.605 3.989 79.457 3.624 80.487 3.624 C 81.645 3.624 82.558 4.006 83.227 4.771 C 83.896 5.535 84.215 6.705 84.186 8.283 L 79.030 8.283 C 79.045 8.893 79.211 9.368 79.528 9.707 C 79.845 10.046 80.241 10.216 80.715 10.216 C 81.037 10.216 81.308 10.128 81.528 9.952 C 81.747 9.777 81.913 9.494 82.026 9.103 Z M 82.143 7.023 C 82.128 6.427 81.974 5.974 81.681 5.664 C 81.388 5.354 81.032 5.199 80.612 5.199 C 80.163 5.199 79.792 5.363 79.499 5.690 C 79.206 6.017 79.062 6.461 79.067 7.023 L 82.143 7.023 Z " stroke-width="1"/>
  <path id="ID0.1491516982205212" fill="#fff" d="M 85.863 0.841 L 87.921 0.841 L 87.921 11.578 L 85.863 11.578 L 85.863 0.841 Z " stroke-width="1"/>
</svg>