<svg version="1.1" width="7.468999862670898" height="52.503997802734375" viewBox="-0.43400000035762787 0.03299999237060547 7.468999862670898 52.503997802734375" xmlns="http://www.w3.org/2000/svg" xmlns:xlink="http://www.w3.org/1999/xlink">
  <!-- Exported by Scratch - http://scratch.mit.edu/ -->
  <g id="ID0.9023682861588895">
    <g id="layer1">
      <g id="text2985">
        <path id="path3141" fill="#666666" stroke="none" d="M 3.266 6.931 C 2.398 6.931 1.648 6.627 1.016 6.017 C 0.383 5.408 0.066 4.634 0.066 3.697 C 0.066 2.783 0.383 2.027 1.016 1.429 C 1.648 0.832 2.398 0.533 3.266 0.533 C 3.711 0.533 4.133 0.609 4.531 0.761 C 4.93 0.914 5.275 1.131 5.568 1.412 C 5.861 1.693 6.096 2.027 6.271 2.414 C 6.447 2.8 6.535 3.228 6.535 3.697 C 6.535 4.142 6.453 4.564 6.289 4.963 C 6.125 5.361 5.891 5.707 5.586 6 C 5.281 6.293 4.936 6.521 4.549 6.685 C 4.162 6.849 3.734 6.931 3.266 6.931 Z M 1.051 52.037 L 1.051 16.037 L 5.551 16.037 L 5.551 52.037 Z " stroke-width="1"/>
      </g>
    </g>
  </g>
</svg>