<svg version="1.1" width="24.496999740600586" height="24.498001098632812" viewBox="-0.15000000596046448 0.37599998712539673 24.496999740600586 24.498001098632812" xmlns="http://www.w3.org/2000/svg" xmlns:xlink="http://www.w3.org/1999/xlink">
  <!-- Exported by Scratch - http://scratch.mit.edu/ -->
  <g id="Featured Button">
    <path id="ID0.46057304460555315" fill="#fff" d="M 23.847 12.625 C 23.847 6.141 18.583 0.876 12.099 0.876 C 5.614 0.876 0.350 6.141 0.350 12.625 C 0.350 19.109 5.614 24.374 12.099 24.374 C 18.583 24.374 23.847 19.109 23.847 12.625 Z " stroke-width="1"/>
    <path id="ID0.44193837186321616" fill="#fff" d="M 23.847 12.625 C 23.847 6.141 18.583 0.876 12.099 0.876 C 5.614 0.876 0.350 6.141 0.350 12.625 C 0.350 19.109 5.614 24.374 12.099 24.374 C 18.583 24.374 23.847 19.109 23.847 12.625 Z " stroke-width="1"/>
    <path id="ID0.6618950571864843" fill="#6FD57E" d="M 12.099 4.989 L 13.912 10.571 L 19.781 10.571 L 15.033 14.020 L 16.846 19.601 L 12.099 16.152 L 7.351 19.601 L 9.164 14.020 L 4.417 10.571 L 10.285 10.571 L 12.099 4.989 Z " stroke-width="1"/>
  </g>
</svg>