<svg version="1.1" width="17.25871765613556" height="17.258715748786926" viewBox="-0.5905581116676331 -0.6404581665992737 17.25871765613556 17.258715748786926" xmlns="http://www.w3.org/2000/svg" xmlns:xlink="http://www.w3.org/1999/xlink">
  <defs>
    <linearGradient id="grad_1" x1="0" y1="0" x2="1" y2="0" gradientUnits="userSpaceOnUse">
      <stop offset="0" stop-color="rgb(47,140,0)" stop-opacity="1"/>
      <stop offset="1" stop-color="rgb(193,255,75)" stop-opacity="1"/>
    </linearGradient>
    <linearGradient id="grad_2" x1="0" y1="0" x2="1" y2="0" gradientUnits="userSpaceOnUse">
      <stop offset="0" stop-color="rgb(172,238,64)" stop-opacity="1"/>
      <stop offset="1" stop-color="rgb(48,123,0)" stop-opacity="1"/>
    </linearGradient>
    <linearGradient id="grad_3" x1="0" y1="0" x2="1" y2="0" gradientUnits="userSpaceOnUse">
      <stop offset="0" stop-color="rgb(172,238,64)" stop-opacity="1"/>
      <stop offset="1" stop-color="rgb(48,123,0)" stop-opacity="1"/>
    </linearGradient>
    <linearGradient id="grad_4" x1="0" y1="0" x2="1" y2="0" gradientUnits="userSpaceOnUse">
      <stop offset="0" stop-color="rgb(172,238,64)" stop-opacity="1"/>
      <stop offset="1" stop-color="rgb(48,123,0)" stop-opacity="1"/>
    </linearGradient>
  <linearGradient id="grad_1-0.0010193669004365802,-0.6666659712791443,0.6666659712791443,-0.0010193669004365802,-31.9,48.05" x1="-31.9" y1="48.05" x2="-31.901" y2="47.3833" gradientUnits="userSpaceOnUse">
      <stop offset="0" stop-color="rgb(47,140,0)" stop-opacity="1"/>
      <stop offset="1" stop-color="rgb(193,255,75)" stop-opacity="1"/>
    </linearGradient><linearGradient id="grad_2-.003035241635036545,0.8225504892234241,-0.8225504892234241,0.003035241635036545,133.55083390437068,-85.34944756887852" x1="133.5508" y1="-85.3494" x2="133.5539" y2="-84.5269" gradientUnits="userSpaceOnUse">
      <stop offset="0" stop-color="rgb(172,238,64)" stop-opacity="1"/>
      <stop offset="1" stop-color="rgb(48,123,0)" stop-opacity="1"/>
    </linearGradient><linearGradient id="grad_3-0.02927474975229738,0.8220349580909208,-0.8220349580909208,-0.02927474975229738,133.18545748367904,-77.55763675682246" x1="133.1855" y1="-77.5576" x2="133.1562" y2="-76.7356" gradientUnits="userSpaceOnUse">
      <stop offset="0" stop-color="rgb(172,238,64)" stop-opacity="1"/>
      <stop offset="1" stop-color="rgb(48,123,0)" stop-opacity="1"/>
    </linearGradient><linearGradient id="grad_4-.0367035626449245e-17,0.8225560784339905,-0.8225560784339905,5.0367035626449245e-17,137.5,-82.00000000000001" x1="137.5" y1="-82" x2="137.5" y2="-81.1774" gradientUnits="userSpaceOnUse">
      <stop offset="0" stop-color="rgb(172,238,64)" stop-opacity="1"/>
      <stop offset="1" stop-color="rgb(48,123,0)" stop-opacity="1"/>
    </linearGradient></defs>
  <!-- Exported by Scratch - http://scratch.mit.edu/ -->
  <path id="ID0.09279828937724233" fill="url(#grad_1-0.0010193669004365802,-0.6666659712791443,0.6666659712791443,-0.0010193669004365802,-31.9,48.05)" d="M 4.0266 -0.005 C 1.8192 -0.0016 0.0293 1.7938 0.0327 4.0011 L 0.0449 12.0011 C 0.0483 14.2084 1.8437 15.9984 4.051 15.995 L 12.051 15.9828 C 14.2584 15.9794 16.0483 14.184 16.0449 11.9766 L 16.0327 3.9767 C 16.0293 1.7693 14.2339 -0.0206 12.0266 -0.0172 L 4.0266 -0.005 Z " stroke-width="0.66666675061116"/>
  <g id="ID0.13340457528829575">
    <path id="ID0.4263037801720202" fill="rgb(173,57,59)" d="M 5.4297 10.0516 C 5.4297 11.429 6.5453 12.5446 7.9227 12.5446 C 9.3001 12.5446 10.4157 11.429 10.4157 10.0516 L 5.4297 10.0516 Z " stroke-width="1.2465068101882935"/>
  </g>
  <g id="ID0.1560447346419096">
    <path id="ID0.23210712987929583" fill="white" d="M 8.0089 1.9349 L 9.9158 3.3202 L 9.1874 5.5615 L 6.8303 5.5615 L 6.1019 3.3202 L 8.0089 1.9349 Z " stroke-width="0.8509200811386108"/>
  </g>
  <g id="ID0.07138498267158866">
    <path id="ID0.3316433117724955" fill="url(#grad_2-.003035241635036545,0.8225504892234241,-0.8225504892234241,0.003035241635036545,133.55083390437068,-85.34944756887852)" d="M 8.8756 3.9473 C 8.8765 4.1809 8.7827 4.3934 8.6294 4.547 C 8.477 4.7014 8.2651 4.7968 8.0315 4.7976 C 7.7979 4.7985 7.5854 4.7047 7.4318 4.5514 C 7.2774 4.399 7.1821 4.1871 7.1812 3.9535 C 7.1803 3.7199 7.2741 3.5074 7.4274 3.3538 C 7.5798 3.1994 7.7917 3.104 8.0253 3.1032 C 8.2589 3.1023 8.4715 3.1961 8.625 3.3494 C 8.7794 3.5018 8.8748 3.7137 8.8756 3.9473 Z " stroke-width="0.8225560892811368"/>
  </g>
  <g id="ID0.4439081330783665">
    <path id="ID0.04506157338619232" fill="white" d="M 4.2589 4.7849 L 6.1658 6.1702 L 5.4374 8.4115 L 3.0803 8.4115 L 2.3519 6.1702 L 4.2589 4.7849 Z " stroke-width="0.8509200811386108"/>
  </g>
  <g id="ID0.8434461993165314">
    <path id="ID0.7918605566956103" fill="url(#grad_3-0.02927474975229738,0.8220349580909208,-0.8220349580909208,-0.02927474975229738,133.18545748367904,-77.55763675682246)" d="M 5.0991 6.7733 C 5.0908 7.0067 4.9887 7.2154 4.8296 7.3629 C 4.6712 7.5111 4.4557 7.5981 4.2223 7.5898 C 3.9888 7.5815 3.7801 7.4794 3.6327 7.3202 C 3.4844 7.1619 3.3974 6.9464 3.4057 6.7129 C 3.4141 6.4795 3.5161 6.2708 3.6753 6.1233 C 3.8337 5.9751 4.0491 5.8881 4.2826 5.8964 C 4.516 5.9047 4.7248 6.0068 4.8722 6.166 C 5.0205 6.3243 5.1074 6.5398 5.0991 6.7733 Z " stroke-width="0.8225560669623692"/>
  </g>
  <g id="ID0.8644762979820371">
    <path id="ID0.5748073603026569" fill="white" d="M 11.6089 4.7849 L 13.5158 6.1702 L 12.7874 8.4115 L 10.4303 8.4115 L 9.7019 6.1702 L 11.6089 4.7849 Z " stroke-width="0.8509200811386108"/>
  </g>
  <g id="ID0.7493397258222103">
    <path id="ID0.21628376375883818" fill="url(#grad_4-.0367035626449245e-17,0.8225560784339905,-0.8225560784339905,5.0367035626449245e-17,137.5,-82.00000000000001)" d="M 12.4962 6.8361 C 12.4962 7.0697 12.4016 7.2819 12.2477 7.4349 C 12.0947 7.5887 11.8825 7.6833 11.6489 7.6833 C 11.4153 7.6833 11.2031 7.5887 11.0501 7.4349 C 10.8963 7.2819 10.8017 7.0697 10.8017 6.8361 C 10.8017 6.6025 10.8963 6.3902 11.0501 6.2372 C 11.2031 6.0834 11.4153 5.9888 11.6489 5.9888 C 11.8825 5.9888 12.0947 6.0834 12.2477 6.2372 C 12.4016 6.3902 12.4962 6.6025 12.4962 6.8361 Z " stroke-width="0.8225560784339905"/>
  </g>
</svg>