<svg version="1.1" width="80.06800079345703" height="17.00200080871582" viewBox="0.1769999861717224 0.014999985694885254 80.06800079345703 17.00200080871582" xmlns="http://www.w3.org/2000/svg" xmlns:xlink="http://www.w3.org/1999/xlink">
  <!-- Exported by Scratch - http://scratch.mit.edu/ -->
  <g id="ID0.9531865259632468">
    <path id="ID0.4847413180395961" fill="#6FD57E" d="M 4.803 13.04 L 4.803 1.993 L 0.677 1.993 L 0.677 0.515 L 10.604 0.515 L 10.604 1.993 L 6.461 1.993 L 6.461 13.04 L 4.803 13.04 Z " stroke-width="1"/>
    <path id="ID0.9745347374118865" fill="#6FD57E" d="M 9.596 8.503 C 9.596 6.823 10.063 5.579 10.997 4.77 C 11.778 4.098 12.729 3.762 13.851 3.762 C 15.098 3.762 16.118 4.171 16.909 4.988 C 17.701 5.805 18.097 6.934 18.097 8.375 C 18.097 9.543 17.922 10.461 17.571 11.13 C 17.221 11.8 16.711 12.319 16.042 12.69 C 15.373 13.06 14.642 13.245 13.851 13.245 C 12.581 13.245 11.554 12.838 10.771 12.023 C 9.988 11.209 9.596 10.036 9.596 8.503 Z M 11.177 8.503 C 11.177 9.665 11.43 10.535 11.937 11.113 C 12.444 11.691 13.082 11.981 13.851 11.981 C 14.614 11.981 15.249 11.69 15.756 11.109 C 16.263 10.528 16.516 9.643 16.516 8.452 C 16.516 7.33 16.261 6.48 15.752 5.902 C 15.242 5.324 14.608 5.035 13.851 5.035 C 13.082 5.035 12.444 5.322 11.937 5.898 C 11.43 6.473 11.177 7.342 11.177 8.503 Z " stroke-width="1"/>
    <path id="ID0.12983770621940494" fill="#6FD57E" d="M 19.899 16.517 L 19.899 3.967 L 21.301 3.967 L 21.301 5.146 C 21.631 4.685 22.004 4.339 22.42 4.108 C 22.835 3.877 23.34 3.762 23.932 3.762 C 24.706 3.762 25.39 3.961 25.982 4.36 C 26.575 4.759 27.022 5.321 27.324 6.047 C 27.625 6.773 27.776 7.569 27.776 8.435 C 27.776 9.363 27.61 10.199 27.277 10.943 C 26.943 11.686 26.459 12.255 25.824 12.651 C 25.189 13.047 24.521 13.245 23.821 13.245 C 23.308 13.245 22.848 13.137 22.441 12.92 C 22.034 12.704 21.699 12.43 21.437 12.1 L 21.437 16.517 L 19.899 16.517 Z M 21.292 8.555 C 21.292 9.722 21.528 10.585 22.001 11.143 C 22.474 11.701 23.046 11.981 23.718 11.981 C 24.402 11.981 24.987 11.691 25.474 11.113 C 25.961 10.535 26.204 9.64 26.204 8.427 C 26.204 7.27 25.967 6.405 25.491 5.829 C 25.015 5.254 24.447 4.967 23.787 4.967 C 23.132 4.967 22.552 5.273 22.048 5.885 C 21.544 6.497 21.292 7.387 21.292 8.555 Z " stroke-width="1"/>
    <path id="ID0.6858243411406875" fill="#6FD57E" d="M 34.62 13.04 L 34.62 0.515 L 36.277 0.515 L 36.277 11.562 L 42.445 11.562 L 42.445 13.04 L 34.62 13.04 Z " stroke-width="1"/>
    <path id="ID0.22682325122877955" fill="#6FD57E" d="M 43.65 8.503 C 43.65 6.823 44.117 5.579 45.051 4.77 C 45.831 4.098 46.782 3.762 47.904 3.762 C 49.152 3.762 50.171 4.171 50.963 4.988 C 51.754 5.805 52.15 6.934 52.15 8.375 C 52.15 9.543 51.975 10.461 51.625 11.13 C 51.275 11.8 50.765 12.319 50.096 12.69 C 49.426 13.06 48.696 13.245 47.904 13.245 C 46.634 13.245 45.608 12.838 44.824 12.023 C 44.041 11.209 43.65 10.036 43.65 8.503 Z M 45.23 8.503 C 45.23 9.665 45.484 10.535 45.991 11.113 C 46.498 11.691 47.135 11.981 47.904 11.981 C 48.668 11.981 49.303 11.69 49.809 11.109 C 50.316 10.528 50.57 9.643 50.57 8.452 C 50.57 7.33 50.315 6.48 49.805 5.902 C 49.295 5.324 48.662 5.035 47.904 5.035 C 47.135 5.035 46.498 5.322 45.991 5.898 C 45.484 6.473 45.23 7.342 45.23 8.503 Z " stroke-width="1"/>
    <path id="ID0.9140808782540262" fill="#6FD57E" d="M 56.473 13.04 L 53.022 3.967 L 54.645 3.967 L 56.593 9.4 C 56.804 9.987 56.997 10.597 57.174 11.229 C 57.31 10.75 57.501 10.175 57.746 9.503 L 59.762 3.967 L 61.343 3.967 L 57.908 13.04 L 56.473 13.04 Z " stroke-width="1"/>
    <path id="ID0.1873147119767964" fill="#6FD57E" d="M 68.912 10.118 L 70.501 10.315 C 70.251 11.243 69.787 11.963 69.109 12.476 C 68.431 12.989 67.565 13.245 66.512 13.245 C 65.185 13.245 64.132 12.836 63.355 12.019 C 62.577 11.202 62.189 10.055 62.189 8.58 C 62.189 7.054 62.582 5.869 63.368 5.026 C 64.154 4.183 65.173 3.762 66.426 3.762 C 67.639 3.762 68.63 4.175 69.399 5.001 C 70.168 5.827 70.553 6.988 70.553 8.486 C 70.553 8.577 70.55 8.714 70.544 8.896 L 63.778 8.896 C 63.835 9.893 64.117 10.656 64.624 11.186 C 65.13 11.716 65.763 11.981 66.52 11.981 C 67.084 11.981 67.565 11.832 67.964 11.536 C 68.363 11.24 68.679 10.767 68.912 10.118 Z M 63.863 7.632 L 68.929 7.632 C 68.861 6.869 68.667 6.296 68.348 5.915 C 67.859 5.322 67.224 5.026 66.443 5.026 C 65.737 5.026 65.143 5.263 64.662 5.735 C 64.181 6.208 63.914 6.84 63.863 7.632 Z " stroke-width="1"/>
    <path id="ID0.7261360301636159" fill="#6FD57E" d="M 78.318 13.04 L 78.318 11.895 C 77.743 12.795 76.897 13.245 75.781 13.245 C 75.058 13.245 74.393 13.046 73.786 12.647 C 73.18 12.248 72.71 11.691 72.377 10.977 C 72.043 10.262 71.877 9.44 71.877 8.512 C 71.877 7.606 72.028 6.785 72.33 6.047 C 72.631 5.31 73.084 4.744 73.688 4.351 C 74.292 3.958 74.967 3.762 75.713 3.762 C 76.259 3.762 76.746 3.877 77.174 4.108 C 77.601 4.339 77.948 4.639 78.216 5.009 L 78.216 0.515 L 79.745 0.515 L 79.745 13.04 L 78.318 13.04 Z M 73.457 8.512 C 73.457 9.674 73.702 10.542 74.192 11.118 C 74.682 11.693 75.26 11.981 75.926 11.981 C 76.598 11.981 77.169 11.706 77.639 11.156 C 78.109 10.606 78.344 9.768 78.344 8.64 C 78.344 7.398 78.105 6.487 77.626 5.906 C 77.148 5.325 76.558 5.035 75.858 5.035 C 75.174 5.035 74.603 5.314 74.145 5.872 C 73.687 6.43 73.457 7.31 73.457 8.512 Z " stroke-width="1"/>
  </g>
</svg>