<svg version="1.1" width="40.40700149536133" height="51.40599822998047" viewBox="0.281000018119812 0.09399998188018799 40.40700149536133 51.40599822998047" xmlns="http://www.w3.org/2000/svg" xmlns:xlink="http://www.w3.org/1999/xlink">
  <!-- Exported by Scratch - http://scratch.mit.edu/ -->
  <g id="ID0.43707694159820676">
    <g id="layer1">
      <path id="path3092" fill="#666666" stroke="none" d="M 0.781 0.594 L 0.781 51 L 13.406 51 C 17.555 51 21.289 50.387 24.594 49.156 C 27.898 47.926 30.711 46.168 33.031 43.906 C 35.352 41.645 37.113 38.938 38.344 35.75 C 39.574 32.563 40.187 29.016 40.188 25.125 C 40.187 17.039 38 10.918 33.594 6.781 C 29.187 2.645 22.656 0.594 14.031 0.594 L 0.781 0.594 Z M 5.469 4.875 L 13.719 4.875 C 28.086 4.875 35.281 11.688 35.281 25.281 C 35.281 28.75 34.777 31.797 33.781 34.469 C 32.785 37.141 31.336 39.402 29.438 41.219 C 27.539 43.035 25.23 44.406 22.5 45.344 C 19.77 46.281 16.656 46.75 13.188 46.75 L 5.469 46.75 L 5.469 4.875 Z " stroke-width="1"/>
    </g>
  </g>
</svg>