<svg version="1.1" width="50.75" height="37.84400177001953" viewBox="-0.43699999898672104 -0.3439999967813492 50.75 37.84400177001953" xmlns="http://www.w3.org/2000/svg" xmlns:xlink="http://www.w3.org/1999/xlink">
  <!-- Exported by Scratch - http://scratch.mit.edu/ -->
  <g id="ID0.5947025371715426">
    <g id="layer1">
      <path id="path3211" fill="#666666" stroke="none" d="M 15.75 0.156 C 10.898 0.156 7.219 2.391 4.688 6.844 L 4.563 6.844 L 4.563 1 L 0.063 1 L 0.063 37 L 4.563 37 L 4.563 16.375 C 4.562 14.547 4.801 12.855 5.281 11.344 C 5.762 9.832 6.426 8.547 7.281 7.469 C 8.137 6.391 9.133 5.566 10.281 4.969 C 11.43 4.371 12.664 4.063 14 4.063 C 19.789 4.063 22.687 7.828 22.688 15.375 L 22.688 37 L 27.188 37 L 27.188 16.188 C 27.187 14.477 27.434 12.883 27.938 11.406 C 28.441 9.93 29.152 8.652 30.031 7.563 C 30.91 6.473 31.922 5.621 33.094 5 C 34.266 4.379 35.5 4.063 36.813 4.063 C 38.289 4.063 39.559 4.266 40.625 4.688 C 41.691 5.109 42.59 5.781 43.281 6.719 C 43.973 7.656 44.484 8.887 44.813 10.375 C 45.141 11.863 45.312 13.688 45.313 15.844 L 45.313 37 L 49.813 37 L 49.813 14.781 C 49.812 5.031 45.836 0.156 37.938 0.156 C 35.383 0.156 33.09 0.82 31.063 2.156 C 29.035 3.492 27.391 5.445 26.125 8 C 25.797 6.852 25.332 5.805 24.688 4.844 C 24.043 3.883 23.266 3.035 22.375 2.344 C 21.484 1.652 20.469 1.137 19.344 0.75 C 18.219 0.363 17.016 0.156 15.75 0.156 Z " stroke-width="1"/>
    </g>
  </g>
</svg>