<svg width="130.05704748448213" height="19.1046472769626" viewBox="-0.5283237422461177 0.35957628579695966 130.05704748448213 19.1046472769626" version="1.1" xmlns="http://www.w3.org/2000/svg" xmlns:xlink="http://www.w3.org/1999/xlink" xml:space="preserve" style="fill-rule:evenodd;clip-rule:evenodd;stroke-linejoin:round;stroke-miterlimit:1.41421;">
    <g>
        <g id="Dismiss Button">
            <g>
                <path d="M 129.0002 5.3995 C 129.0002 2.9093 126.9782 0.8881 124.4882 0.8881 L 4.5122 0.8881 C 2.0222 0.8881 0.0002 2.9093 0.0002 5.3995 L 0.0002 14.4233 C 0.0002 16.9134 2.0222 18.9357 4.5122 18.9357 L 124.4882 18.9357 C 126.9782 18.9357 129.0002 16.9134 129.0002 14.4233 L 129.0002 5.3995 Z " style="fill:white;" stroke-width="1.0570474844821305"/>
            </g>
            <g>
                <path d="M 39.4112 14.3038 L 39.4112 3.5668 L 43.1102 3.5668 C 43.9442 3.5668 44.5822 3.6178 45.0212 3.7208 C 45.6361 3.8618 46.1612 4.1188 46.5962 4.4898 C 47.1621 4.9678 47.5862 5.5798 47.8672 6.3248 C 48.1472 7.0688 48.2882 7.9198 48.2882 8.8768 C 48.2882 9.6918 48.1932 10.4148 48.0022 11.0448 C 47.8122 11.6748 47.5682 12.1958 47.2702 12.6088 C 46.9721 13.0208 46.6462 13.3458 46.2921 13.5828 C 45.9382 13.8198 45.5111 13.9988 45.0102 14.1208 C 44.5102 14.2428 43.9352 14.3038 43.2851 14.3038 L 39.4112 14.3038 Z M 40.8322 13.0368 L 43.1241 13.0368 C 43.8322 13.0368 44.3881 12.9708 44.7901 12.8388 C 45.1932 12.7078 45.5142 12.5218 45.7542 12.2828 C 46.0901 11.9458 46.3532 11.4928 46.5412 10.9238 C 46.7292 10.3548 46.8231 9.6658 46.8231 8.8548 C 46.8231 7.7318 46.6392 6.8688 46.2702 6.2658 C 45.9012 5.6628 45.4531 5.2588 44.9262 5.0538 C 44.5452 4.9068 43.9322 4.8338 43.0881 4.8338 L 40.8322 4.8338 L 40.8322 13.0368 Z " style="fill:rgb(52,221,120);fill-rule:nonzero;" stroke-width="1"/>
                <path d="M 50.0822 5.0828 L 50.0822 3.5668 L 51.4012 3.5668 L 51.4012 5.0828 L 50.0822 5.0828 Z M 50.0822 14.3038 L 50.0822 6.5258 L 51.4012 6.5258 L 51.4012 14.3038 L 50.0822 14.3038 Z " style="fill:rgb(52,221,120);fill-rule:nonzero;" stroke-width="1"/>
                <path d="M 52.8802 11.9828 L 54.1841 11.7768 C 54.2572 12.2998 54.4612 12.6998 54.7952 12.9788 C 55.1302 13.2568 55.5971 13.3958 56.1981 13.3958 C 56.8032 13.3958 57.2532 13.2728 57.5462 13.0258 C 57.8392 12.7798 57.9852 12.4898 57.9852 12.1578 C 57.9852 11.8598 57.8562 11.6258 57.5971 11.4548 C 57.4162 11.3378 56.9672 11.1888 56.2491 11.0078 C 55.2822 10.7638 54.6121 10.5528 54.2391 10.3748 C 53.8652 10.1968 53.5822 9.9498 53.3892 9.6348 C 53.1961 9.3198 53.1001 8.9718 53.1001 8.5908 C 53.1001 8.2448 53.1791 7.9238 53.3381 7.6278 C 53.4962 7.3328 53.7131 7.0868 53.9862 6.8918 C 54.1911 6.7408 54.4712 6.6128 54.8252 6.5078 C 55.1791 6.4028 55.5582 6.3498 55.9642 6.3498 C 56.5742 6.3498 57.1102 6.4378 57.5711 6.6138 C 58.0332 6.7898 58.3732 7.0278 58.5932 7.3278 C 58.8132 7.6278 58.9642 8.0298 59.0471 8.5328 L 57.7582 8.7088 C 57.6992 8.3078 57.5301 7.9958 57.2491 7.7708 C 56.9682 7.5458 56.5711 7.4338 56.0591 7.4338 C 55.4531 7.4338 55.0212 7.5338 54.7622 7.7338 C 54.5042 7.9348 54.3741 8.1688 54.3741 8.4378 C 54.3741 8.6078 54.4282 8.7618 54.5351 8.8988 C 54.6431 9.0408 54.8111 9.1578 55.0412 9.2508 C 55.1732 9.2988 55.5611 9.4118 56.2052 9.5868 C 57.1381 9.8368 57.7882 10.0398 58.1572 10.1988 C 58.5262 10.3578 58.8152 10.5878 59.0251 10.8908 C 59.2352 11.1938 59.3401 11.5698 59.3401 12.0188 C 59.3401 12.4588 59.2122 12.8718 58.9552 13.2608 C 58.6992 13.6488 58.3292 13.9488 57.8462 14.1608 C 57.3621 14.3738 56.8161 14.4798 56.2052 14.4798 C 55.1942 14.4798 54.4241 14.2698 53.8942 13.8498 C 53.3652 13.4298 53.0272 12.8078 52.8802 11.9828 Z " style="fill:rgb(52,221,120);fill-rule:nonzero;" stroke-width="1"/>
                <path d="M 60.9072 14.3038 L 60.9072 6.5258 L 62.0872 6.5258 L 62.0872 7.6168 C 62.3312 7.2358 62.6551 6.9298 63.0611 6.6978 C 63.4662 6.4658 63.9271 6.3498 64.4452 6.3498 C 65.0212 6.3498 65.4941 6.4698 65.8621 6.7088 C 66.2312 6.9478 66.4912 7.2828 66.6422 7.7118 C 67.2572 6.8038 68.0582 6.3498 69.0452 6.3498 C 69.8161 6.3498 70.4092 6.5638 70.8242 6.9908 C 71.2391 7.4178 71.4472 8.0758 71.4472 8.9648 L 71.4472 14.3038 L 70.1361 14.3038 L 70.1361 9.4038 C 70.1361 8.8768 70.0932 8.4968 70.0082 8.2648 C 69.9221 8.0338 69.7672 7.8468 69.5432 7.7048 C 69.3182 7.5638 69.0541 7.4928 68.7522 7.4928 C 68.2052 7.4928 67.7511 7.6748 67.3892 8.0378 C 67.0281 8.4018 66.8471 8.9838 66.8471 9.7848 L 66.8471 14.3038 L 65.5292 14.3038 L 65.5292 9.2508 C 65.5292 8.6648 65.4221 8.2248 65.2072 7.9318 C 64.9922 7.6388 64.6402 7.4928 64.1522 7.4928 C 63.7812 7.4928 63.4382 7.5898 63.1232 7.7858 C 62.8082 7.9808 62.5802 8.2668 62.4382 8.6428 C 62.2971 9.0188 62.2262 9.5608 62.2262 10.2688 L 62.2262 14.3038 L 60.9072 14.3038 Z " style="fill:rgb(52,221,120);fill-rule:nonzero;" stroke-width="1"/>
                <path d="M 73.4101 5.0828 L 73.4101 3.5668 L 74.7282 3.5668 L 74.7282 5.0828 L 73.4101 5.0828 Z M 73.4101 14.3038 L 73.4101 6.5258 L 74.7282 6.5258 L 74.7282 14.3038 L 73.4101 14.3038 Z " style="fill:rgb(52,221,120);fill-rule:nonzero;" stroke-width="1"/>
                <path d="M 76.2081 11.9828 L 77.5111 11.7768 C 77.5851 12.2998 77.7882 12.6998 78.1232 12.9788 C 78.4572 13.2568 78.9252 13.3958 79.5262 13.3958 C 80.1311 13.3958 80.5802 13.2728 80.8732 13.0258 C 81.1662 12.7798 81.3132 12.4898 81.3132 12.1578 C 81.3132 11.8598 81.1832 11.6258 80.9241 11.4548 C 80.7441 11.3378 80.2952 11.1888 79.5772 11.0078 C 78.6102 10.7638 77.9402 10.5528 77.5661 10.3748 C 77.1932 10.1968 76.9101 9.9498 76.7172 9.6348 C 76.5242 9.3198 76.4271 8.9718 76.4271 8.5908 C 76.4271 8.2448 76.5072 7.9238 76.6651 7.6278 C 76.8242 7.3328 77.0401 7.0868 77.3141 6.8918 C 77.5192 6.7408 77.7982 6.6128 78.1522 6.5078 C 78.5061 6.4028 78.8861 6.3498 79.2912 6.3498 C 79.9022 6.3498 80.4372 6.4378 80.8992 6.6138 C 81.3602 6.7898 81.7011 7.0278 81.9212 7.3278 C 82.1402 7.6278 82.2921 8.0298 82.3752 8.5328 L 81.0862 8.7088 C 81.0272 8.3078 80.8571 7.9958 80.5772 7.7708 C 80.2962 7.5458 79.8992 7.4338 79.3861 7.4338 C 78.7812 7.4338 78.3492 7.5338 78.0901 7.7338 C 77.8312 7.9348 77.7022 8.1688 77.7022 8.4378 C 77.7022 8.6078 77.7561 8.7618 77.8632 8.8988 C 77.9701 9.0408 78.1392 9.1578 78.3682 9.2508 C 78.5002 9.2988 78.8881 9.4118 79.5332 9.5868 C 80.4651 9.8368 81.1162 10.0398 81.4852 10.1988 C 81.8532 10.3578 82.1431 10.5878 82.3532 10.8908 C 82.5632 11.1938 82.6682 11.5698 82.6682 12.0188 C 82.6682 12.4588 82.5392 12.8718 82.2832 13.2608 C 82.0272 13.6488 81.6572 13.9488 81.1732 14.1608 C 80.6902 14.3738 80.1431 14.4798 79.5332 14.4798 C 78.5222 14.4798 77.7522 14.2698 77.2221 13.8498 C 76.6922 13.4298 76.3542 12.8078 76.2081 11.9828 Z " style="fill:rgb(52,221,120);fill-rule:nonzero;" stroke-width="1"/>
                <path d="M 83.7081 11.9828 L 85.0111 11.7768 C 85.0851 12.2998 85.2882 12.6998 85.6232 12.9788 C 85.9572 13.2568 86.4252 13.3958 87.0262 13.3958 C 87.6311 13.3958 88.0802 13.2728 88.3732 13.0258 C 88.6662 12.7798 88.8132 12.4898 88.8132 12.1578 C 88.8132 11.8598 88.6832 11.6258 88.4241 11.4548 C 88.2441 11.3378 87.7952 11.1888 87.0772 11.0078 C 86.1102 10.7638 85.4402 10.5528 85.0661 10.3748 C 84.6932 10.1968 84.4101 9.9498 84.2172 9.6348 C 84.0242 9.3198 83.9271 8.9718 83.9271 8.5908 C 83.9271 8.2448 84.0072 7.9238 84.1651 7.6278 C 84.3242 7.3328 84.5401 7.0868 84.8141 6.8918 C 85.0192 6.7408 85.2982 6.6128 85.6522 6.5078 C 86.0061 6.4028 86.3861 6.3498 86.7912 6.3498 C 87.4022 6.3498 87.9372 6.4378 88.3992 6.6138 C 88.8602 6.7898 89.2011 7.0278 89.4212 7.3278 C 89.6402 7.6278 89.7921 8.0298 89.8752 8.5328 L 88.5862 8.7088 C 88.5272 8.3078 88.3571 7.9958 88.0772 7.7708 C 87.7962 7.5458 87.3992 7.4338 86.8861 7.4338 C 86.2812 7.4338 85.8492 7.5338 85.5901 7.7338 C 85.3312 7.9348 85.2022 8.1688 85.2022 8.4378 C 85.2022 8.6078 85.2561 8.7618 85.3632 8.8988 C 85.4701 9.0408 85.6392 9.1578 85.8682 9.2508 C 86.0002 9.2988 86.3881 9.4118 87.0332 9.5868 C 87.9651 9.8368 88.6162 10.0398 88.9852 10.1988 C 89.3532 10.3578 89.6431 10.5878 89.8532 10.8908 C 90.0632 11.1938 90.1682 11.5698 90.1682 12.0188 C 90.1682 12.4588 90.0392 12.8718 89.7832 13.2608 C 89.5272 13.6488 89.1572 13.9488 88.6732 14.1608 C 88.1902 14.3738 87.6431 14.4798 87.0332 14.4798 C 86.0222 14.4798 85.2522 14.2698 84.7221 13.8498 C 84.1922 13.4298 83.8542 12.8078 83.7081 11.9828 Z " style="fill:rgb(52,221,120);fill-rule:nonzero;" stroke-width="1"/>
            </g>
        </g>
    </g>
</svg>