<svg version="1.1" width="17.311555127371488" height="17.311555127371488" viewBox="-0.5778778692429943 -0.6278780599778576 17.311555127371488 17.311555127371488" xmlns="http://www.w3.org/2000/svg" xmlns:xlink="http://www.w3.org/1999/xlink">
  <defs>
    <linearGradient id="grad_1" x1="0" y1="0" x2="1" y2="0" gradientUnits="userSpaceOnUse">
      <stop offset="0" stop-color="black" stop-opacity="1"/>
      <stop offset="1" stop-color="rgb(102,102,102)" stop-opacity="1"/>
    </linearGradient>
  <linearGradient id="grad_1-0.00036771464510820806,-0.6666666269302368,0.6666666269302368,-0.00036771464510820806,-31.9,48.05" x1="-31.9" y1="48.05" x2="-31.9004" y2="47.3833" gradientUnits="userSpaceOnUse">
      <stop offset="0" stop-color="black" stop-opacity="1"/>
      <stop offset="1" stop-color="rgb(102,102,102)" stop-opacity="1"/>
    </linearGradient></defs>
  <!-- Exported by Scratch - http://scratch.mit.edu/ -->
  <path id="ID0.3319560303352773" fill="url(#grad_1-0.00036771464510820806,-0.6666666269302368,0.6666666269302368,-0.00036771464510820806,-31.9,48.05)" d="M 4.0735 0.0301 C 1.8662 0.0314 0.0745 1.825 0.0757 4.0324 L 0.0801 12.0324 C 0.0814 14.2397 1.875 16.0314 4.0823 16.0301 L 12.0823 16.0257 C 14.2897 16.0245 16.0814 14.2309 16.0801 12.0235 L 16.0757 4.0235 C 16.0745 1.8162 14.2809 0.0245 12.0735 0.0257 L 4.0735 0.0301 Z " stroke-width="0.6666667283407803"/>
  <g id="ID0.38408642867580056">
    <g id="ID0.5874459752812982">
      <path id="ID0.2608350315131247" fill="rgb(255,242,223)" d="M 5.2758 10.3164 C 5.1026 10.165 4.9643 9.9732 4.875 9.7635 L 4.9865 9.4158 L 5.5881 10.2388 L 5.6254 10.5398 L 5.2758 10.3164 Z " stroke-width="0.31777778987305333"/>
    </g>
    <g id="ID0.6205020952038467">
      <path id="ID0.9444440230727196" fill="rgb(255,242,223)" d="M 6.3149 10.7495 C 6.0294 10.7344 5.7641 10.6454 5.5469 10.4742 L 5.4803 10.068 L 5.8865 9.4158 L 6.7513 10.298 L 6.3149 10.7495 Z " stroke-width="0.31777778987305333"/>
    </g>
    <g id="ID0.28883267007768154">
      <path id="ID0.8640939770266414" fill="rgb(255,242,223)" d="M 6.3051 10.7596 L 6.3081 10.7502 L 6.4011 10.7596 L 6.3051 10.7596 Z " stroke-width="0.31777778987305333"/>
    </g>
    <g id="ID0.9802554361522198">
      <path id="ID0.40221387799829245" fill="rgb(255,242,223)" d="M 6.4011 10.7508 L 6.3081 10.7357 L 6.7365 8.5918 L 7.1683 10.7508 L 6.4011 10.7508 Z " stroke-width="0.34888435197920886"/>
    </g>
    <g id="ID0.8136854697950184">
      <path id="ID0.7464452814310789" fill="rgb(255,242,223)" d="M 8.8314 10.765 L 6.2847 10.765 L 7.5365 7.5044 L 8.8314 10.765 Z " stroke-width="0.4063037649828288"/>
    </g>
    <g id="ID0.9154303334653378">
      <path id="ID0.3803776572458446" fill="rgb(255,242,223)" d="M 9.6387 10.765 L 7.1402 10.765 L 8.3865 7.5044 L 9.6387 10.765 Z " stroke-width="0.4063037649828288"/>
    </g>
    <g id="ID0.6547901020385325">
      <path id="ID0.32147524040192366" fill="rgb(255,242,223)" d="M 9.6223 10.7596 L 9.7153 10.7502 L 9.7183 10.7596 L 9.6223 10.7596 Z " stroke-width="0.31777778987305333"/>
    </g>
    <g id="ID0.3793789246119559">
      <path id="ID0.7461401913315058" fill="rgb(255,242,223)" d="M 8.8551 10.7508 L 9.2865 8.5918 L 9.9476 10.2283 L 9.7153 10.7357 L 9.6223 10.7508 L 8.8551 10.7508 Z " stroke-width="0.34888435197920886"/>
    </g>
    <g id="ID0.4468927481211722">
      <path id="ID0.3159110536798835" fill="rgb(255,242,223)" d="M 9.6477 10.7583 L 10.1365 9.4158 L 10.5088 10.0243 L 10.5624 10.3661 L 10.4765 10.4742 C 10.2656 10.6433 9.9411 10.7667 9.6477 10.7583 Z " stroke-width="0.31777778987305333"/>
    </g>
    <g id="ID0.41341255558654666">
      <path id="ID0.9331443766131997" fill="rgb(255,242,223)" d="M 10.6972 10.3164 L 10.4331 10.4975 L 10.3946 10.1114 L 10.9865 9.4158 L 11.0984 9.7635 C 11.0083 9.9761 10.8746 10.1656 10.6972 10.3164 Z " stroke-width="0.31777778987305333"/>
    </g>
  </g>
  <g id="ID0.0005273409187793732">
    <path id="ID0.07638936629518867" fill="rgb(255,242,223)" d="M 5.2963 6.1183 L 5.7247 6.1973 L 6.005 7.7473 L 4.3161 7.618 C 4.3161 7.618 3.6742 7.4659 3.5305 7.3 C 3.24 6.9648 2.5807 5.6093 2.5807 5.6093 L 3.7759 5.8324 L 3.8282 5.8427 C 3.5886 6.02 3.4477 6.2979 3.4477 6.6079 C 3.4477 7.1582 3.895 7.6054 4.4453 7.6054 C 4.9972 7.6054 5.4444 7.1582 5.4444 6.6079 C 5.4444 6.4272 5.3951 6.2568 5.2963 6.1183 Z " stroke-width="1.3071548740755883"/>
  </g>
  <g id="ID0.7316608051769435">
    <path id="ID0.16451621986925602" fill="rgb(255,102,51)" d="M 5.3054 6.1168 C 5.4036 6.2561 5.4518 6.4258 5.4518 6.6071 C 5.4518 7.1573 5.0044 7.6048 4.4542 7.6048 C 3.9031 7.6048 3.4556 7.1573 3.4556 6.6071 C 3.4556 6.2972 3.5976 6.0203 3.8361 5.8417 L 5.116 6.0819 L 5.3054 6.1168 Z " stroke-width="0.8931823372840881"/>
  </g>
  <g id="ID0.027137644588947296">
    <path id="ID0.6429489399306476" fill="rgb(255,242,223)" d="M 11.1037 6.1183 L 10.6753 6.1973 L 10.395 7.7473 L 12.0839 7.618 C 12.0839 7.618 12.7258 7.4659 12.8695 7.3 C 13.16 6.9648 13.8193 5.6093 13.8193 5.6093 L 12.6241 5.8324 L 12.5718 5.8427 C 12.8114 6.02 12.9523 6.2979 12.9523 6.6079 C 12.9523 7.1582 12.505 7.6054 11.9547 7.6054 C 11.4028 7.6054 10.9556 7.1582 10.9556 6.6079 C 10.9556 6.4272 11.0049 6.2568 11.1037 6.1183 Z " stroke-width="1.3071548740755883"/>
  </g>
  <g id="ID0.9936461267061532">
    <path id="ID0.4778071320615709" fill="rgb(255,102,51)" d="M 11.1446 6.1168 C 11.0464 6.2561 10.9982 6.4258 10.9982 6.6071 C 10.9982 7.1573 11.4456 7.6048 11.9958 7.6048 C 12.5469 7.6048 12.9944 7.1573 12.9944 6.6071 C 12.9944 6.2972 12.8524 6.0203 12.6139 5.8417 L 11.334 6.0819 L 11.1446 6.1168 Z " stroke-width="0.8931823372840881"/>
  </g>
</svg>