<svg version="1.1" width="17.301782250404358" height="17.30178415775299" viewBox="0.3170580267906189 -0.5816424489021301 17.301782250404358 17.30178415775299" xmlns="http://www.w3.org/2000/svg" xmlns:xlink="http://www.w3.org/1999/xlink">
  <defs>
    <linearGradient id="grad_1" x1="0" y1="0" x2="1" y2="0" gradientUnits="userSpaceOnUse">
      <stop offset="0" stop-color="rgb(180,180,180)" stop-opacity="1"/>
      <stop offset="1" stop-color="rgb(241,241,241)" stop-opacity="1"/>
    </linearGradient>
    <linearGradient id="grad_2" x1="0" y1="0" x2="1" y2="0" gradientUnits="userSpaceOnUse">
      <stop offset="0" stop-color="rgb(188,210,255)" stop-opacity="1"/>
      <stop offset="1" stop-color="rgb(97,154,199)" stop-opacity="1"/>
    </linearGradient>
    <linearGradient id="grad_3" x1="0" y1="0" x2="1" y2="0" gradientUnits="userSpaceOnUse">
      <stop offset="0" stop-color="rgb(213,233,255)" stop-opacity="1"/>
      <stop offset="1" stop-color="white" stop-opacity="1"/>
    </linearGradient>
    <linearGradient id="grad_4" x1="0" y1="0" x2="1" y2="0" gradientUnits="userSpaceOnUse">
      <stop offset="0" stop-color="rgb(85,85,85)" stop-opacity="1"/>
      <stop offset="1" stop-color="rgb(120,120,120)" stop-opacity="1"/>
    </linearGradient>
  <linearGradient id="grad_1-0.00385668664239347,-0.6666558384895325,0.6666558384895325,-0.00385668664239347,-30.8,48.3" x1="-30.8" y1="48.3" x2="-30.8039" y2="47.6333" gradientUnits="userSpaceOnUse">
      <stop offset="0" stop-color="rgb(180,180,180)" stop-opacity="1"/>
      <stop offset="1" stop-color="rgb(241,241,241)" stop-opacity="1"/>
    </linearGradient><linearGradient id="grad_2-.25,0,0,1.25,-186,-185.05" x1="-186" y1="-185.05" x2="-184.75" y2="-185.05" gradientUnits="userSpaceOnUse">
      <stop offset="0" stop-color="rgb(188,210,255)" stop-opacity="1"/>
      <stop offset="1" stop-color="rgb(97,154,199)" stop-opacity="1"/>
    </linearGradient><linearGradient id="grad_3-.14290499687194824,0.03829120099544525,-0.0802232027053833,0.29939699172973633,-2.45,-47" x1="-2.45" y1="-47" x2="-2.3071" y2="-46.9617" gradientUnits="userSpaceOnUse">
      <stop offset="0" stop-color="rgb(213,233,255)" stop-opacity="1"/>
      <stop offset="1" stop-color="white" stop-opacity="1"/>
    </linearGradient><linearGradient id="grad_4-,0,5.551119755337213e-17,1.3329800367355347,-147,-202.6" x1="-147" y1="-202.6" x2="-146" y2="-202.6" gradientUnits="userSpaceOnUse">
      <stop offset="0" stop-color="rgb(85,85,85)" stop-opacity="1"/>
      <stop offset="1" stop-color="rgb(120,120,120)" stop-opacity="1"/>
    </linearGradient></defs>
  <!-- Exported by Scratch - http://scratch.mit.edu/ -->
  <path id="ID0.595699321012944" fill="url(#grad_1-0.00385668664239347,-0.6666558384895325,0.6666558384895325,-0.00385668664239347,-30.8,48.3)" d="M 4.9217 0.0925 C 2.7144 0.1053 0.9322 1.9083 0.9449 4.1156 L 0.9912 12.1155 C 1.004 14.3228 2.807 16.105 5.0143 16.0923 L 13.0142 16.046 C 15.2215 16.0332 17.0037 14.2302 16.991 12.0229 L 16.9447 4.023 C 16.9319 1.8157 15.1289 0.0335 12.9216 0.0462 L 4.9217 0.0925 Z " stroke-width="0.6666669941012824"/>
  <path id="ID0.4380460446700454" fill="url(#grad_2-.25,0,0,1.25,-186,-185.05)" stroke="rgb(155,154,152)" stroke-width="0.55" d="M 9 2.8662 C 11.76 2.8662 14 3.44 14 6.2 C 14 8.96 11.76 11.2 9 11.2 C 6.24 11.2 4 8.96 4 6.2 C 4 3.44 6.24 2.8662 9 2.8662 Z "/>
  <g id="ID0.5034918882884085">
    <path id="ID0.6670026746578515" fill="url(#grad_3-.14290499687194824,0.03829120099544525,-0.0802232027053833,0.29939699172973633,-2.45,-47)" d="M 8.4389 3.8606 C 8.7544 3.9452 7.5208 4.1633 7.024 4.3418 C 6.6688 4.4694 5.4254 5.2067 5.7321 4.667 C 6.4895 3.3338 8.1235 3.7761 8.4389 3.8606 Z " stroke-width="0.24286042814108139"/>
  </g>
  <g id="ID0.6429578261449933">
    <path id="ID0.9971634978428483" fill="url(#grad_4-,0,5.551119755337213e-17,1.3329800367355347,-147,-202.6)" d="M 12 13.0109 C 12 12.4577 11.552 12.0098 10.999 12.0098 L 7.001 12.0098 C 6.448 12.0098 6 12.4577 6 13.0109 L 6 16.0127 L 12 16.0127 L 12 13.0109 Z " stroke-width="1.1783114567752169"/>
  </g>
  <g id="ID0.835504281334579">
    <path id="ID0.8839288190938532" fill="rgb(227,52,45)" d="M 7.1547 12.571 C 7.3129 12.571 7.456 12.6351 7.559 12.7393 C 7.6632 12.8422 7.7272 12.9854 7.7272 13.1436 C 7.7272 13.3018 7.6632 13.4449 7.559 13.5478 C 7.456 13.6521 7.3129 13.7161 7.1547 13.7161 C 6.9965 13.7161 6.8534 13.6521 6.7504 13.5478 C 6.6462 13.4449 6.5822 13.3018 6.5822 13.1436 C 6.5822 12.9854 6.6462 12.8422 6.7504 12.7393 C 6.8534 12.6351 6.9965 12.571 7.1547 12.571 Z " stroke-width="1.2555500268936157"/>
  </g>
  <g id="ID0.4363782461732626">
    <path id="ID0.25457875709980726" fill="rgb(66,204,77)" d="M 7.1547 14.421 C 7.3129 14.421 7.456 14.4851 7.559 14.5893 C 7.6632 14.6922 7.7272 14.8354 7.7272 14.9936 C 7.7272 15.1518 7.6632 15.2949 7.559 15.3978 C 7.456 15.5021 7.3129 15.5661 7.1547 15.5661 C 6.9965 15.5661 6.8534 15.5021 6.7504 15.3978 C 6.6462 15.2949 6.5822 15.1518 6.5822 14.9936 C 6.5822 14.8354 6.6462 14.6922 6.7504 14.5893 C 6.8534 14.4851 6.9965 14.421 7.1547 14.421 Z " stroke-width="1.2555500268936157"/>
  </g>
  <g id="ID0.5520256659947336">
    <path id="ID0.4149672337807715" fill="rgb(192,221,255)" d="M 6 6.056 C 6.275 6.056 6.524 6.168 6.705 6.348 C 6.885 6.529 6.997 6.778 6.997 7.053 C 6.997 7.328 6.885 7.577 6.705 7.758 C 6.524 7.938 6.275 8.05 6 8.05 C 5.725 8.05 5.476 7.938 5.295 7.758 C 5.115 7.577 5.003 7.328 5.003 7.053 C 5.003 6.778 5.115 6.529 5.295 6.348 C 5.476 6.168 5.725 6.056 6 6.056 Z " stroke-width="1"/>
  </g>
  <g id="ID0.30853218818083405">
    <path id="ID0.9392184377647936" fill="rgb(192,221,255)" d="M 12 6.056 C 12.275 6.056 12.524 6.168 12.705 6.348 C 12.885 6.529 12.997 6.778 12.997 7.053 C 12.997 7.328 12.885 7.577 12.705 7.758 C 12.524 7.938 12.275 8.05 12 8.05 C 11.725 8.05 11.476 7.938 11.295 7.758 C 11.115 7.577 11.003 7.328 11.003 7.053 C 11.003 6.778 11.115 6.529 11.295 6.348 C 11.476 6.168 11.725 6.056 12 6.056 Z " stroke-width="1"/>
  </g>
  <g id="ID0.9075174834579229">
    <path id="ID0.7577509959228337" fill="rgb(93,126,163)" d="M 6.0499 6.5561 C 6.187 6.5561 6.3111 6.6119 6.4013 6.7017 C 6.491 6.7919 6.5468 6.916 6.5468 7.053 C 6.5468 7.1901 6.491 7.3142 6.4013 7.4044 C 6.3111 7.4941 6.187 7.5499 6.0499 7.5499 C 5.9129 7.5499 5.7888 7.4941 5.6986 7.4044 C 5.6088 7.3142 5.553 7.1901 5.553 7.053 C 5.553 6.916 5.6088 6.7919 5.6986 6.7017 C 5.7888 6.6119 5.9129 6.5561 6.0499 6.5561 Z " stroke-width="0.49839699268341064"/>
  </g>
  <g id="ID0.22312244912609458">
    <path id="ID0.3259006063453853" fill="rgb(93,126,163)" d="M 12.0499 6.5561 C 12.187 6.5561 12.3111 6.6119 12.4013 6.7017 C 12.491 6.7919 12.5468 6.916 12.5468 7.053 C 12.5468 7.1901 12.491 7.3142 12.4013 7.4044 C 12.3111 7.4941 12.187 7.5499 12.0499 7.5499 C 11.9129 7.5499 11.7888 7.4941 11.6986 7.4044 C 11.6088 7.3142 11.553 7.1901 11.553 7.053 C 11.553 6.916 11.6088 6.7919 11.6986 6.7017 C 11.7888 6.6119 11.9129 6.5561 12.0499 6.5561 Z " stroke-width="0.49839699268341064"/>
  </g>
</svg>