<svg version="1.1" width="17.452168107032776" height="17.452169060707092" viewBox="-0.6760845296084881 -0.7260845303535461 17.452168107032776 17.452169060707092" xmlns="http://www.w3.org/2000/svg" xmlns:xlink="http://www.w3.org/1999/xlink">
  <defs>
    <linearGradient id="grad_1" y2="1" x2="0">
      <stop offset="0" stop-color="#FBAE3D" stop-opacity="1"/>
      <stop offset="1" stop-color="#FC5C62" stop-opacity="1"/>
    </linearGradient>
  <linearGradient id="grad_1-.6666667461395264,0,0,0.6666667461395264,-31.95,-32" y2="16" x2="0.05" x1="0.05" y1="0" gradientUnits="userSpaceOnUse">
      <stop offset="0" stop-color="#FBAE3D" stop-opacity="1"/>
      <stop offset="1" stop-color="#FC5C62" stop-opacity="1"/>
    </linearGradient></defs>
  <!-- Exported by Scratch - http://scratch.mit.edu/ -->
  <g id="ID0.2751877489499748">
    <g id="Character">
      <g id="Body">
        <path id="ID0.6091688312590122" fill="url(#grad_1-.6666667461395264,0,0,0.6666667461395264,-31.95,-32)" d="M 16.05 4 C 16.05 1.7927 14.2573 0 12.05 0 L 4.05 0 C 1.8427 0 0.05 1.7927 0.05 4 L 0.05 12 C 0.05 14.2073 1.8427 16 4.05 16 L 12.05 16 C 14.2573 16 16.05 14.2073 16.05 12 L 16.05 4 Z " stroke-width="0.6666667461395264"/>
      </g>
      <g id="ID0.25335128838196397">
        <path id="ID0.6677163732238114" fill="white" d="M 4.8976 4.0735 L 6.9698 5.578 L 6.1784 8.0147 L 3.6167 8.0147 L 2.8253 5.578 L 4.8976 4.0735 Z " stroke-width="1.4521690607070923"/>
      </g>
      <g id="ID0.8451543520204723">
        <path id="ID0.10611363360658288" fill="white" d="M 11.1476 4.0735 L 13.2198 5.578 L 12.4284 8.0147 L 9.8667 8.0147 L 9.0753 5.578 L 11.1476 4.0735 Z " stroke-width="1.4521690607070923"/>
      </g>
      <g id="ID0.9251815932802856">
        <path id="ID0.25414440827444196" fill="rgb(200,154,96)" d="M 4.9107 5.3325 C 5.1798 5.3325 5.4236 5.4417 5.601 5.6182 C 5.7775 5.7956 5.8867 6.0394 5.8867 6.3085 C 5.8867 6.5776 5.7775 6.8214 5.601 6.9988 C 5.4236 7.1753 5.1798 7.2845 4.9107 7.2845 C 4.6416 7.2845 4.3978 7.1753 4.2204 6.9988 C 4.0439 6.8214 3.9347 6.5776 3.9347 6.3085 C 3.9347 6.0394 4.0439 5.7956 4.2204 5.6182 C 4.3978 5.4417 4.6416 5.3325 4.9107 5.3325 Z " stroke-width="0.8737574219703674"/>
      </g>
      <g id="ID0.7226682743057609">
        <path id="ID0.06391810206696391" fill="rgb(200,154,96)" d="M 11.1458 5.3094 C 11.4209 5.3094 11.6701 5.4211 11.8515 5.6015 C 12.0319 5.7828 12.1435 6.032 12.1435 6.3071 C 12.1435 6.5822 12.0319 6.8314 11.8515 7.0127 C 11.6701 7.1932 11.4209 7.3048 11.1458 7.3048 C 10.8707 7.3048 10.6215 7.1932 10.4402 7.0127 C 10.2598 6.8314 10.1482 6.5822 10.1482 6.3071 C 10.1482 6.032 10.2598 5.7828 10.4402 5.6015 C 10.6215 5.4211 10.8707 5.3094 11.1458 5.3094 Z " stroke-width="0.8931823372840881"/>
      </g>
    </g>
  </g>
</svg>