<svg width="110.9520034790039" height="14.907999992370605" viewBox="-0.499997615814209 -0.5 110.9520034790039 14.907999992370605" version="1.1" xmlns="http://www.w3.org/2000/svg" xmlns:xlink="http://www.w3.org/1999/xlink" xml:space="preserve" style="fill-rule:evenodd;clip-rule:evenodd;stroke-linejoin:round;stroke-miterlimit:1.41421;"><g id="1"><path d="M109.952,6.954c0,-3.838 -3.116,-6.954 -6.954,-6.954l-96.044,0c-3.838,0 -6.954,3.116 -6.954,6.954c0,3.838 3.116,6.954 6.954,6.954l96.044,0c3.838,0 6.954,-3.116 6.954,-6.954Z" style="fill:#9fd3ff;" stroke-width="1"/><path d="M6.776,10.156l-1.572,-5.923l0.804,0l0.901,3.882c0.097,0.407 0.181,0.811 0.251,1.213c0.151,-0.633 0.24,-0.998 0.266,-1.095l1.128,-4l0.945,0l0.849,2.998c0.213,0.743 0.366,1.442 0.46,2.097c0.076,-0.375 0.174,-0.804 0.295,-1.289l0.93,-3.806l0.787,0l-1.624,5.923l-0.755,0l-1.249,-4.513c-0.105,-0.377 -0.167,-0.609 -0.186,-0.695c-0.062,0.272 -0.12,0.503 -0.173,0.695l-1.257,4.513l-0.8,0Z" style="fill:#fff;fill-rule:nonzero;" stroke-width="1"/><path d="M13.039,8.01c0,-0.794 0.221,-1.383 0.662,-1.765c0.369,-0.318 0.819,-0.477 1.35,-0.477c0.59,0 1.072,0.193 1.446,0.58c0.375,0.386 0.562,0.92 0.562,1.602c0,0.552 -0.083,0.986 -0.249,1.303c-0.165,0.316 -0.406,0.562 -0.723,0.737c-0.316,0.175 -0.662,0.263 -1.036,0.263c-0.601,0 -1.086,-0.193 -1.457,-0.578c-0.37,-0.385 -0.555,-0.94 -0.555,-1.665ZM13.786,8.01c0,0.55 0.12,0.961 0.36,1.235c0.239,0.273 0.541,0.41 0.905,0.41c0.361,0 0.661,-0.137 0.901,-0.412c0.24,-0.275 0.359,-0.694 0.359,-1.257c0,-0.53 -0.12,-0.932 -0.361,-1.206c-0.241,-0.273 -0.541,-0.41 -0.899,-0.41c-0.364,0 -0.666,0.136 -0.905,0.408c-0.24,0.272 -0.36,0.683 -0.36,1.232Z" style="fill:#fff;fill-rule:nonzero;" stroke-width="1"/><path d="M18.703,10.156l-1.313,-4.291l0.752,0l0.683,2.477l0.254,0.921c0.011,-0.046 0.085,-0.341 0.222,-0.885l0.683,-2.513l0.748,0l0.642,2.489l0.214,0.82l0.247,-0.828l0.735,-2.481l0.707,0l-1.341,4.291l-0.756,0l-0.683,-2.57l-0.165,-0.731l-0.869,3.301l-0.76,0Z" style="fill:#fff;fill-rule:nonzero;" stroke-width="1"/><path d="M23.621,10.156l0,-0.828l0.828,0l0,0.828c0,0.304 -0.054,0.55 -0.162,0.737c-0.107,0.188 -0.278,0.332 -0.513,0.435l-0.202,-0.311c0.154,-0.068 0.267,-0.167 0.34,-0.297c0.072,-0.131 0.113,-0.319 0.121,-0.564l-0.412,0Z" style="fill:#fff;fill-rule:nonzero;" stroke-width="1"/><path d="M28.029,10.156l0,-4.291l0.654,0l0,0.61c0.315,-0.471 0.771,-0.707 1.366,-0.707c0.259,0 0.496,0.046 0.713,0.139c0.217,0.093 0.379,0.215 0.487,0.366c0.108,0.151 0.183,0.33 0.226,0.537c0.027,0.135 0.041,0.371 0.041,0.708l0,2.638l-0.728,0l0,-2.61c0,-0.297 -0.028,-0.518 -0.084,-0.665c-0.057,-0.147 -0.157,-0.264 -0.301,-0.351c-0.145,-0.088 -0.314,-0.132 -0.508,-0.132c-0.309,0 -0.577,0.099 -0.802,0.295c-0.224,0.197 -0.337,0.57 -0.337,1.119l0,2.344l-0.727,0Z" style="fill:#fff;fill-rule:nonzero;" stroke-width="1"/><path d="M32.635,5.069l0,-0.836l0.727,0l0,0.836l-0.727,0ZM32.635,10.156l0,-4.291l0.727,0l0,4.291l-0.727,0Z" style="fill:#fff;fill-rule:nonzero;" stroke-width="1"/><path d="M37.269,8.584l0.715,0.093c-0.078,0.493 -0.278,0.879 -0.6,1.158c-0.321,0.279 -0.717,0.418 -1.185,0.418c-0.588,0 -1.06,-0.192 -1.417,-0.576c-0.356,-0.384 -0.535,-0.934 -0.535,-1.65c0,-0.464 0.077,-0.869 0.23,-1.217c0.154,-0.347 0.388,-0.608 0.701,-0.781c0.314,-0.174 0.656,-0.261 1.025,-0.261c0.466,0 0.847,0.118 1.143,0.354c0.296,0.235 0.486,0.57 0.57,1.004l-0.707,0.109c-0.068,-0.289 -0.187,-0.505 -0.358,-0.651c-0.171,-0.145 -0.378,-0.218 -0.62,-0.218c-0.366,0 -0.664,0.131 -0.893,0.394c-0.229,0.263 -0.343,0.678 -0.343,1.246c0,0.577 0.11,0.996 0.331,1.257c0.221,0.261 0.509,0.392 0.865,0.392c0.285,0 0.523,-0.088 0.715,-0.263c0.191,-0.175 0.312,-0.444 0.363,-0.808Z" style="fill:#fff;fill-rule:nonzero;" stroke-width="1"/><path d="M41.544,8.774l0.752,0.093c-0.119,0.439 -0.338,0.78 -0.659,1.022c-0.32,0.243 -0.73,0.364 -1.228,0.364c-0.628,0 -1.126,-0.193 -1.493,-0.58c-0.368,-0.386 -0.552,-0.929 -0.552,-1.626c0,-0.722 0.186,-1.282 0.558,-1.681c0.372,-0.399 0.854,-0.598 1.446,-0.598c0.574,0 1.043,0.195 1.406,0.586c0.364,0.39 0.546,0.94 0.546,1.648c0,0.043 -0.001,0.108 -0.004,0.194l-3.2,0c0.027,0.472 0.16,0.833 0.4,1.083c0.24,0.251 0.539,0.376 0.897,0.376c0.266,0 0.494,-0.07 0.683,-0.21c0.188,-0.14 0.338,-0.364 0.448,-0.671ZM39.156,7.598l2.396,0c-0.032,-0.361 -0.124,-0.631 -0.275,-0.812c-0.231,-0.28 -0.532,-0.42 -0.901,-0.42c-0.334,0 -0.614,0.112 -0.842,0.335c-0.228,0.224 -0.354,0.523 -0.378,0.897Z" style="fill:#fff;fill-rule:nonzero;" stroke-width="1"/><rect x="45.492" y="4.233" width="0.727" height="5.923" style="fill:#fff;fill-rule:nonzero;" stroke-width="1"/><path d="M50.284,8.774l0.751,0.093c-0.118,0.439 -0.338,0.78 -0.658,1.022c-0.321,0.243 -0.73,0.364 -1.229,0.364c-0.627,0 -1.125,-0.193 -1.493,-0.58c-0.367,-0.386 -0.551,-0.929 -0.551,-1.626c0,-0.722 0.186,-1.282 0.557,-1.681c0.372,-0.399 0.854,-0.598 1.447,-0.598c0.574,0 1.042,0.195 1.406,0.586c0.364,0.39 0.545,0.94 0.545,1.648c0,0.043 -0.001,0.108 -0.004,0.194l-3.2,0c0.027,0.472 0.161,0.833 0.4,1.083c0.24,0.251 0.539,0.376 0.897,0.376c0.267,0 0.495,-0.07 0.683,-0.21c0.189,-0.14 0.338,-0.364 0.449,-0.671ZM47.896,7.598l2.396,0c-0.033,-0.361 -0.124,-0.631 -0.275,-0.812c-0.232,-0.28 -0.532,-0.42 -0.901,-0.42c-0.334,0 -0.615,0.112 -0.842,0.335c-0.228,0.224 -0.354,0.523 -0.378,0.897Z" style="fill:#fff;fill-rule:nonzero;" stroke-width="1"/><path d="M53.14,10.156l-1.632,-4.291l0.768,0l0.921,2.57c0.099,0.277 0.191,0.565 0.275,0.864c0.064,-0.226 0.154,-0.498 0.27,-0.816l0.954,-2.618l0.747,0l-1.624,4.291l-0.679,0Z" style="fill:#fff;fill-rule:nonzero;" stroke-width="1"/><path d="M59.023,8.774l0.752,0.093c-0.119,0.439 -0.338,0.78 -0.659,1.022c-0.32,0.243 -0.73,0.364 -1.228,0.364c-0.628,0 -1.125,-0.193 -1.493,-0.58c-0.368,-0.386 -0.552,-0.929 -0.552,-1.626c0,-0.722 0.186,-1.282 0.558,-1.681c0.372,-0.399 0.854,-0.598 1.446,-0.598c0.574,0 1.043,0.195 1.406,0.586c0.364,0.39 0.546,0.94 0.546,1.648c0,0.043 -0.001,0.108 -0.004,0.194l-3.2,0c0.027,0.472 0.16,0.833 0.4,1.083c0.24,0.251 0.539,0.376 0.897,0.376c0.266,0 0.494,-0.07 0.683,-0.21c0.188,-0.14 0.338,-0.364 0.448,-0.671ZM56.635,7.598l2.396,0c-0.032,-0.361 -0.124,-0.631 -0.275,-0.812c-0.231,-0.28 -0.532,-0.42 -0.901,-0.42c-0.334,0 -0.614,0.112 -0.842,0.335c-0.228,0.224 -0.354,0.523 -0.378,0.897Z" style="fill:#fff;fill-rule:nonzero;" stroke-width="1"/><rect x="60.672" y="4.233" width="0.727" height="5.923" style="fill:#fff;fill-rule:nonzero;" stroke-width="1"/><path d="M62.914,8.685l-0.222,-3.139l0,-1.313l0.901,0l0,1.313l-0.21,3.139l-0.469,0ZM62.724,10.156l0,-0.828l0.837,0l0,0.828l-0.837,0Z" style="fill:#fff;fill-rule:nonzero;" stroke-width="1"/><path d="M69.989,7.833l0,-0.695l2.509,-0.004l0,2.198c-0.385,0.307 -0.782,0.538 -1.192,0.693c-0.409,0.155 -0.83,0.232 -1.26,0.232c-0.582,0 -1.111,-0.125 -1.586,-0.374c-0.476,-0.249 -0.835,-0.609 -1.077,-1.081c-0.243,-0.471 -0.364,-0.998 -0.364,-1.579c0,-0.577 0.121,-1.115 0.362,-1.615c0.241,-0.499 0.588,-0.87 1.04,-1.113c0.453,-0.242 0.974,-0.363 1.564,-0.363c0.428,0 0.815,0.069 1.162,0.208c0.346,0.138 0.617,0.332 0.814,0.579c0.196,0.248 0.346,0.572 0.448,0.97l-0.707,0.194c-0.089,-0.302 -0.199,-0.539 -0.331,-0.711c-0.132,-0.172 -0.321,-0.31 -0.566,-0.414c-0.245,-0.104 -0.517,-0.156 -0.816,-0.156c-0.358,0 -0.668,0.055 -0.929,0.164c-0.262,0.109 -0.472,0.252 -0.633,0.43c-0.16,0.178 -0.285,0.373 -0.373,0.586c-0.151,0.366 -0.227,0.764 -0.227,1.192c0,0.528 0.091,0.97 0.273,1.325c0.182,0.356 0.447,0.62 0.794,0.792c0.347,0.173 0.716,0.259 1.107,0.259c0.339,0 0.671,-0.065 0.994,-0.196c0.323,-0.131 0.568,-0.27 0.735,-0.418l0,-1.103l-1.741,0Z" style="fill:#fff;fill-rule:nonzero;" stroke-width="1"/><path d="M73.29,8.01c0,-0.794 0.221,-1.383 0.663,-1.765c0.369,-0.318 0.819,-0.477 1.349,-0.477c0.59,0 1.072,0.193 1.447,0.58c0.374,0.386 0.561,0.92 0.561,1.602c0,0.552 -0.083,0.986 -0.248,1.303c-0.166,0.316 -0.407,0.562 -0.723,0.737c-0.317,0.175 -0.662,0.263 -1.037,0.263c-0.601,0 -1.086,-0.193 -1.456,-0.578c-0.371,-0.385 -0.556,-0.94 -0.556,-1.665ZM74.037,8.01c0,0.55 0.12,0.961 0.36,1.235c0.24,0.273 0.542,0.41 0.905,0.41c0.361,0 0.661,-0.137 0.901,-0.412c0.24,-0.275 0.36,-0.694 0.36,-1.257c0,-0.53 -0.121,-0.932 -0.362,-1.206c-0.241,-0.273 -0.541,-0.41 -0.899,-0.41c-0.363,0 -0.665,0.136 -0.905,0.408c-0.24,0.272 -0.36,0.683 -0.36,1.232Z" style="fill:#fff;fill-rule:nonzero;" stroke-width="1"/><path d="M77.892,8.01c0,-0.794 0.221,-1.383 0.663,-1.765c0.369,-0.318 0.819,-0.477 1.349,-0.477c0.59,0 1.072,0.193 1.447,0.58c0.374,0.386 0.561,0.92 0.561,1.602c0,0.552 -0.082,0.986 -0.248,1.303c-0.166,0.316 -0.407,0.562 -0.723,0.737c-0.317,0.175 -0.662,0.263 -1.037,0.263c-0.6,0 -1.086,-0.193 -1.456,-0.578c-0.371,-0.385 -0.556,-0.94 -0.556,-1.665ZM78.64,8.01c0,0.55 0.119,0.961 0.359,1.235c0.24,0.273 0.542,0.41 0.905,0.41c0.361,0 0.662,-0.137 0.901,-0.412c0.24,-0.275 0.36,-0.694 0.36,-1.257c0,-0.53 -0.121,-0.932 -0.362,-1.206c-0.241,-0.273 -0.541,-0.41 -0.899,-0.41c-0.363,0 -0.665,0.136 -0.905,0.408c-0.24,0.272 -0.359,0.683 -0.359,1.232Z" style="fill:#fff;fill-rule:nonzero;" stroke-width="1"/><path d="M85.549,10.156l0,-0.541c-0.272,0.425 -0.672,0.638 -1.2,0.638c-0.342,0 -0.657,-0.094 -0.944,-0.283c-0.287,-0.188 -0.509,-0.452 -0.666,-0.79c-0.158,-0.338 -0.237,-0.726 -0.237,-1.166c0,-0.428 0.072,-0.816 0.214,-1.165c0.143,-0.349 0.357,-0.616 0.643,-0.802c0.285,-0.186 0.605,-0.279 0.957,-0.279c0.259,0 0.489,0.055 0.691,0.164c0.202,0.109 0.367,0.251 0.493,0.426l0,-2.125l0.724,0l0,5.923l-0.675,0ZM83.25,8.014c0,0.55 0.116,0.961 0.347,1.233c0.232,0.272 0.505,0.408 0.82,0.408c0.318,0 0.588,-0.13 0.811,-0.39c0.222,-0.26 0.333,-0.657 0.333,-1.19c0,-0.587 -0.113,-1.018 -0.34,-1.293c-0.226,-0.275 -0.505,-0.412 -0.836,-0.412c-0.323,0 -0.593,0.132 -0.81,0.396c-0.217,0.264 -0.325,0.68 -0.325,1.248Z" style="fill:#fff;fill-rule:nonzero;" stroke-width="1"/><path d="M89.359,8.475l0.707,-0.097c0.019,0.453 0.104,0.762 0.255,0.929c0.15,0.167 0.359,0.251 0.626,0.251c0.196,0 0.366,-0.045 0.509,-0.135c0.143,-0.091 0.241,-0.213 0.295,-0.368c0.054,-0.155 0.081,-0.402 0.081,-0.742l0,-4.08l0.784,0l0,4.036c0,0.496 -0.06,0.88 -0.18,1.152c-0.12,0.272 -0.31,0.479 -0.57,0.622c-0.26,0.143 -0.565,0.214 -0.915,0.214c-0.52,0 -0.918,-0.15 -1.194,-0.449c-0.276,-0.299 -0.409,-0.743 -0.398,-1.333Z" style="fill:#fff;fill-rule:nonzero;" stroke-width="1"/><path d="M93.533,8.01c0,-0.794 0.221,-1.383 0.662,-1.765c0.369,-0.318 0.819,-0.477 1.35,-0.477c0.59,0 1.072,0.193 1.446,0.58c0.375,0.386 0.562,0.92 0.562,1.602c0,0.552 -0.083,0.986 -0.249,1.303c-0.165,0.316 -0.406,0.562 -0.723,0.737c-0.316,0.175 -0.662,0.263 -1.036,0.263c-0.601,0 -1.086,-0.193 -1.457,-0.578c-0.37,-0.385 -0.555,-0.94 -0.555,-1.665ZM94.28,8.01c0,0.55 0.12,0.961 0.36,1.235c0.24,0.273 0.541,0.41 0.905,0.41c0.361,0 0.661,-0.137 0.901,-0.412c0.24,-0.275 0.359,-0.694 0.359,-1.257c0,-0.53 -0.12,-0.932 -0.361,-1.206c-0.241,-0.273 -0.541,-0.41 -0.899,-0.41c-0.364,0 -0.665,0.136 -0.905,0.408c-0.24,0.272 -0.36,0.683 -0.36,1.232Z" style="fill:#fff;fill-rule:nonzero;" stroke-width="1"/><path d="M99.076,10.156l-0.675,0l0,-5.923l0.728,0l0,2.113c0.307,-0.385 0.699,-0.578 1.176,-0.578c0.263,0 0.513,0.053 0.749,0.16c0.236,0.106 0.43,0.255 0.582,0.448c0.152,0.193 0.271,0.425 0.357,0.697c0.087,0.272 0.13,0.563 0.13,0.873c0,0.735 -0.182,1.304 -0.546,1.705c-0.363,0.401 -0.8,0.602 -1.309,0.602c-0.506,0 -0.904,-0.212 -1.192,-0.634l0,0.537ZM99.068,7.978c0,0.515 0.07,0.886 0.21,1.115c0.229,0.375 0.539,0.562 0.93,0.562c0.317,0 0.592,-0.138 0.824,-0.414c0.231,-0.276 0.347,-0.688 0.347,-1.235c0,-0.56 -0.111,-0.973 -0.333,-1.24c-0.222,-0.267 -0.491,-0.4 -0.806,-0.4c-0.318,0 -0.593,0.138 -0.824,0.414c-0.232,0.276 -0.348,0.676 -0.348,1.198Z" style="fill:#fff;fill-rule:nonzero;" stroke-width="1"/><path d="M103.395,8.685l-0.222,-3.139l0,-1.313l0.901,0l0,1.313l-0.21,3.139l-0.469,0ZM103.206,10.156l0,-0.828l0.836,0l0,0.828l-0.836,0Z" style="fill:#fff;fill-rule:nonzero;" stroke-width="1"/></g></svg>