<svg width="25.9714523771598" height="25.971482894737925" viewBox="-0.009803604046208503 -0.4820793379939624 25.9714523771598 25.971482894737925" version="1.1" xmlns="http://www.w3.org/2000/svg" xmlns:xlink="http://www.w3.org/1999/xlink" xml:space="preserve" style="fill-rule:evenodd;clip-rule:evenodd;stroke-linejoin:round;stroke-miterlimit:1.41421;">
    <g>
        <g>
            <g id="SFX Toggle">
                <g>
                    <circle cx="24" cy="336" r="12" style="fill:white;" stroke-width="1" transform="matrix(1.0313301599999998,0,0,1.0313301599999998,-11.77600000000001,-334.02324000000004)"/>
                </g>
                <g>
                    <path d="M 6.748 13.707 L 5.532 13.707 C 5.527 14.059 5.591 14.363 5.724 14.619 C 5.857 14.875 6.037 15.085 6.264 15.251 C 6.491 15.416 6.752 15.537 7.048 15.615 C 7.344 15.692 7.649 15.731 7.964 15.731 C 8.353 15.731 8.696 15.685 8.992 15.595 C 9.288 15.504 9.536 15.377 9.736 15.215 C 9.936 15.052 10.087 14.859 10.188 14.635 C 10.289 14.411 10.34 14.168 10.34 13.907 C 10.34 13.587 10.272 13.324 10.136 13.119 C 10 12.913 9.839 12.749 9.652 12.627 C 9.465 12.504 9.277 12.415 9.088 12.359 C 8.899 12.303 8.751 12.264 8.644 12.243 C 8.287 12.152 7.997 12.077 7.776 12.019 C 7.555 11.96 7.381 11.901 7.256 11.843 C 7.131 11.784 7.047 11.72 7.004 11.651 C 6.961 11.581 6.94 11.491 6.94 11.379 C 6.94 11.256 6.967 11.155 7.02 11.075 C 7.073 10.995 7.141 10.928 7.224 10.875 C 7.307 10.821 7.399 10.784 7.5 10.763 C 7.601 10.741 7.703 10.731 7.804 10.731 C 7.959 10.731 8.101 10.744 8.232 10.771 C 8.363 10.797 8.479 10.843 8.58 10.907 C 8.681 10.971 8.763 11.059 8.824 11.171 C 8.885 11.283 8.921 11.424 8.932 11.595 L 10.148 11.595 C 10.148 11.264 10.085 10.983 9.96 10.751 C 9.835 10.519 9.665 10.328 9.452 10.179 C 9.239 10.029 8.995 9.921 8.72 9.855 C 8.445 9.788 8.159 9.755 7.86 9.755 C 7.604 9.755 7.348 9.789 7.092 9.859 C 6.836 9.928 6.607 10.035 6.404 10.179 C 6.201 10.323 6.037 10.503 5.912 10.719 C 5.787 10.935 5.724 11.189 5.724 11.483 C 5.724 11.744 5.773 11.967 5.872 12.151 C 5.971 12.335 6.1 12.488 6.26 12.611 C 6.42 12.733 6.601 12.833 6.804 12.911 C 7.007 12.988 7.215 13.053 7.428 13.107 C 7.636 13.165 7.841 13.219 8.044 13.267 C 8.247 13.315 8.428 13.371 8.588 13.435 C 8.748 13.499 8.877 13.579 8.976 13.675 C 9.075 13.771 9.124 13.896 9.124 14.051 C 9.124 14.195 9.087 14.313 9.012 14.407 C 8.937 14.5 8.844 14.573 8.732 14.627 C 8.62 14.68 8.5 14.716 8.372 14.735 C 8.244 14.753 8.124 14.763 8.012 14.763 C 7.847 14.763 7.687 14.743 7.532 14.703 C 7.377 14.663 7.243 14.601 7.128 14.519 C 7.013 14.436 6.921 14.328 6.852 14.195 C 6.783 14.061 6.748 13.899 6.748 13.707 Z " style="fill:rgb(101,168,231);fill-rule:nonzero;" stroke-width="0.9999998399999999"/>
                    <path d="M 11.084 9.891 L 11.084 15.603 L 12.34 15.603 L 12.34 13.243 L 14.732 13.243 L 14.732 12.267 L 12.34 12.267 L 12.34 10.947 L 15.1 10.947 L 15.1 9.891 L 11.084 9.891 Z " style="fill:rgb(101,168,231);fill-rule:nonzero;" stroke-width="0.9999998399999999"/>
                    <path d="M 17.228 12.611 L 15.236 15.603 L 16.644 15.603 L 17.916 13.627 L 19.164 15.603 L 20.66 15.603 L 18.668 12.619 L 20.5 9.891 L 19.124 9.891 L 17.964 11.715 L 16.844 9.891 L 15.388 9.891 L 17.228 12.611 Z " style="fill:rgb(101,168,231);fill-rule:nonzero;" stroke-width="0.9999998399999999"/>
                </g>
                <g>
                    <path d="M 7.0011 6.5299 L 18.9498 18.4786 " style="fill:none;stroke-width:1.14px;stroke:rgb(234,95,97);" stroke-width="1.2195297697379248"/>
                </g>
            </g>
        </g>
    </g>
</svg>