<svg version="1.1" width="21.76147239594384" height="21.761470488595208" viewBox="-2.686337317967038 -1.9144357104536103 21.76147239594384 21.761470488595208" xmlns="http://www.w3.org/2000/svg" xmlns:xlink="http://www.w3.org/1999/xlink">
  <defs>
    <linearGradient id="grad_1" x1="0" y1="0" x2="1" y2="0" gradientUnits="userSpaceOnUse">
      <stop offset="0" stop-color="#6a1774" stop-opacity="1"/>
      <stop offset="1" stop-color="#22c2f8" stop-opacity="1"/>
    </linearGradient>
  <linearGradient id="grad_1-0.013938883319497108,-5.603431224822998,5.603431224822998,-0.013938883319497108,-0.15,17.65" x1="-0.15" y1="17.65" x2="-0.1639" y2="12.0466" gradientUnits="userSpaceOnUse">
      <stop offset="0" stop-color="#6a1774" stop-opacity="1"/>
      <stop offset="1" stop-color="#22c2f8" stop-opacity="1"/>
    </linearGradient></defs>
  <!-- Exported by Scratch - http://scratch.mit.edu/ -->
  <path id="Body" fill="url(#grad_1-0.013938883319497108,-5.603431224822998,5.603431224822998,-0.013938883319497108,-0.15,17.65)" d="M 4.1398 0.9074 C 1.9153 0.9129 0.1099 2.7273 0.1154 4.9519 L 0.1355 13.0208 C 0.141 15.2454 1.9554 17.0508 4.18 17.0453 L 12.2489 17.0252 C 14.4791 17.0196 16.2789 15.2052 16.2734 12.9807 L 16.2533 4.9117 C 16.2477 2.6872 14.4389 0.8818 12.2088 0.8873 L 4.1398 0.9074 Z " stroke-width="5.603448561715326"/>
  <g id="Eye">
    <path id="ID0.9914133893325925" fill="#f7b9ff" d="M 8.1129 4.1922 C 9.0039 4.1922 9.8052 4.5509 10.3879 5.1392 C 10.9763 5.722 11.3349 6.5233 11.3349 7.4142 C 11.3349 8.3052 10.9763 9.1065 10.3879 9.6892 C 9.8052 10.2776 9.0039 10.6362 8.1129 10.6362 C 7.222 10.6362 6.4207 10.2776 5.8379 9.6892 C 5.2496 9.1065 4.8909 8.3052 4.8909 7.4142 C 4.8909 6.5233 5.2496 5.722 5.8379 5.1392 C 6.4207 4.5509 7.222 4.1922 8.1129 4.1922 Z " stroke-width="5.603448390960693"/>
    <path id="ID0.8990974593907595" fill="#411546" d="M 8.1129 5.4306 C 8.6621 5.4306 9.1552 5.6547 9.5138 6.0134 C 9.8724 6.372 10.0966 6.8651 10.0966 7.4142 C 10.0966 7.9634 9.8724 8.4565 9.5138 8.8151 C 9.1552 9.1737 8.6621 9.3978 8.1129 9.3978 C 7.5638 9.3978 7.0707 9.1737 6.7121 8.8151 C 6.3534 8.4565 6.1293 7.9634 6.1293 7.4142 C 6.1293 6.8651 6.3534 6.372 6.7121 6.0134 C 7.0707 5.6547 7.5638 5.4306 8.1129 5.4306 Z " stroke-width="5.603448390960693"/>
    <path id="ID0.19468732457607985" fill="#fbdbff" d="M 7.6254 7.1453 C 7.8328 7.1453 8.0177 7.2293 8.1578 7.3638 C 8.2922 7.5039 8.3763 7.6888 8.3763 7.8961 C 8.3763 8.1034 8.2922 8.2884 8.1578 8.4284 C 8.0177 8.5629 7.8328 8.647 7.6254 8.647 C 7.4181 8.647 7.2332 8.5629 7.0931 8.4284 C 6.9586 8.2884 6.8746 8.1034 6.8746 7.8961 C 6.8746 7.6888 6.9586 7.5039 7.0931 7.3638 C 7.2332 7.2293 7.4181 7.1453 7.6254 7.1453 Z " stroke-width="5.603448390960693"/>
    <path id="ID0.4667150932364166" fill="#fbdbff" d="M 8.8638 6.1703 C 8.9983 6.1703 9.1216 6.2263 9.2112 6.3103 C 9.2953 6.4 9.3513 6.5233 9.3513 6.6578 C 9.3513 6.7922 9.2953 6.9155 9.2112 7.0052 C 9.1216 7.0892 8.9983 7.1453 8.8638 7.1453 C 8.7293 7.1453 8.606 7.0892 8.5164 7.0052 C 8.4323 6.9155 8.3763 6.7922 8.3763 6.6578 C 8.3763 6.5233 8.4323 6.4 8.5164 6.3103 C 8.606 6.2263 8.7293 6.1703 8.8638 6.1703 Z " stroke-width="5.603448390960693"/>
  </g>
  <g id="Mouth">
    <path id="ID0.07814082689583302" fill="#e9787a" d="M 8.1129 10.9836 L 8.5276 11.8129 L 9.4297 11.3534 L 9.2 12.2388 L 10.2478 12.3228 L 9.4578 12.9224 L 10.2478 13.522 L 9.2 13.606 L 9.4297 14.4914 L 8.5276 14.0319 L 8.1129 14.8612 L 7.6983 14.0319 L 6.7905 14.4914 L 7.0203 13.606 L 5.978 13.522 L 6.7681 12.9224 L 5.978 12.3228 L 7.0203 12.2388 L 6.7905 11.3534 L 7.6983 11.8129 L 8.1129 10.9836 Z " stroke-width="5.603448390960693"/>
    <g id="Teeth">
      <path id="ID0.7298485459759831" fill="#fff" d="M 9.2112 12.2332 L 10.2591 12.3172 L 9.4353 11.3422 L 9.2112 12.2332 Z M 7.0203 13.6116 L 6.7905 14.5026 L 5.9724 13.5276 L 7.0203 13.6116 Z " stroke-width="5.603448390960693"/>
      <path id="ID0.08998646633699536" fill="#fff" d="M 7.6927 14.0375 L 6.7905 14.497 L 8.1129 14.8724 L 7.6927 14.0375 Z M 8.5332 11.8073 L 8.1185 10.9724 L 9.4409 11.3478 L 8.5332 11.8073 Z " stroke-width="5.603448390960693"/>
      <path id="ID0.2077032714150846" fill="#fff" d="M 8.5332 14.0375 L 8.1129 14.8724 L 9.4353 14.497 L 8.5332 14.0375 Z M 7.6983 11.8073 L 6.7905 11.3422 L 8.1129 10.9724 L 7.6983 11.8073 Z " stroke-width="5.603448390960693"/>
      <path id="ID0.34244462940841913" fill="#fff" d="M 9.469 12.9224 L 10.2591 13.522 L 10.2591 12.3228 L 9.469 12.9224 Z M 6.7569 12.9224 L 5.9724 13.522 L 5.9724 12.3228 L 6.7569 12.9224 Z " stroke-width="5.603448390960693"/>
      <path id="ID0.6406315793283284" fill="#fff" d="M 9.2112 13.6116 L 9.4409 14.497 L 10.2591 13.522 L 9.2112 13.6116 Z M 7.0147 12.2332 L 5.9724 12.3228 L 6.7905 11.3478 L 7.0147 12.2332 Z " stroke-width="5.603448390960693"/>
    </g>
  </g>
</svg>