<svg version="1.1" width="21.44498872756958" height="21.44498872756958" viewBox="-2.6730945110321045 -2.727794885635376 21.44498872756958 21.44498872756958" xmlns="http://www.w3.org/2000/svg" xmlns:xlink="http://www.w3.org/1999/xlink">
  <defs>
    <linearGradient id="grad_1" x1="0" y1="0" x2="1" y2="0" gradientUnits="userSpaceOnUse">
      <stop offset="0" stop-color="#068f53" stop-opacity="1"/>
      <stop offset="0.54" stop-color="#66d8cd" stop-opacity="1"/>
      <stop offset="1" stop-color="#8df6ff" stop-opacity="1"/>
    </linearGradient>
  <linearGradient id="grad_1-0.010476413182914257,-5.523164749145508,5.523164749145508,-0.010476413182914257,-0.65,16.55" x1="-0.65" y1="16.55" x2="-0.6605" y2="11.0268" gradientUnits="userSpaceOnUse">
      <stop offset="0" stop-color="#068f53" stop-opacity="1"/>
      <stop offset="0.54" stop-color="#66d8cd" stop-opacity="1"/>
      <stop offset="1" stop-color="#8df6ff" stop-opacity="1"/>
    </linearGradient></defs>
  <!-- Exported by Scratch - http://scratch.mit.edu/ -->
  <path id="Body" fill="url(#grad_1-0.010476413182914257,-5.523164749145508,5.523164749145508,-0.010476413182914257,-0.65,16.55)" d="M 4.0576 0.0488 C 1.8649 0.053 0.0843 1.8404 0.0885 4.0331 L 0.1035 11.9864 C 0.1077 14.1791 1.8951 15.9597 4.0878 15.9556 L 12.0411 15.9405 C 14.2393 15.9363 16.0144 14.1489 16.0103 11.9562 L 15.9952 4.0029 C 15.991 1.8102 14.2092 0.0296 12.011 0.0338 L 4.0576 0.0488 Z " stroke-width="5.523174685037287"/>
  <path id="ID0.7607892439700663" fill="#fff" d="M 8.0388 4.0171 C 8.2542 4.0171 8.4531 4.1055 8.5911 4.2491 C 8.7347 4.3871 8.8231 4.586 8.8231 4.8014 C 8.8231 5.0168 8.7347 5.2156 8.5911 5.3537 C 8.4531 5.4973 8.2542 5.5857 8.0388 5.5857 C 7.8234 5.5857 7.6246 5.4973 7.4865 5.3537 C 7.3429 5.2156 7.2545 5.0168 7.2545 4.8014 C 7.2545 4.586 7.3429 4.3871 7.4865 4.2491 C 7.6246 4.1055 7.8234 4.0171 8.0388 4.0171 Z " stroke-width="5.52317476272583"/>
  <path id="ID0.3241391386836767" fill="#fff" d="M 8.0388 6.0165 C 8.188 6.0165 8.326 6.0772 8.4255 6.1766 C 8.5249 6.2761 8.5856 6.4141 8.5856 6.5633 C 8.5856 6.7124 8.5249 6.8505 8.4255 6.9499 C 8.326 7.0493 8.188 7.1101 8.0388 7.1101 C 7.8897 7.1101 7.7516 7.0493 7.6522 6.9499 C 7.5528 6.8505 7.492 6.7124 7.492 6.5633 C 7.492 6.4141 7.5528 6.2761 7.6522 6.1766 C 7.7516 6.0772 7.8897 6.0165 8.0388 6.0165 Z " stroke-width="5.52317476272583"/>
  <path id="ID0.8674011253751814" fill="#fff" d="M 8.0388 7.4525 C 8.1382 7.4525 8.2321 7.4967 8.2984 7.563 C 8.3647 7.6292 8.4089 7.7231 8.4089 7.8226 C 8.4089 7.922 8.3647 8.0159 8.2984 8.0821 C 8.2321 8.1484 8.1382 8.1926 8.0388 8.1926 C 7.9394 8.1926 7.8455 8.1484 7.7792 8.0821 C 7.713 8.0159 7.6688 7.922 7.6688 7.8226 C 7.6688 7.7231 7.713 7.6292 7.7792 7.563 C 7.8455 7.4967 7.9394 7.4525 8.0388 7.4525 Z " stroke-width="5.52317476272583"/>
  <g id="Eyes">
    <path id="ID0.22589937690645456" fill="#fff" d="M 14.9538 6.5633 C 14.2745 5.5746 13.1975 4.5915 11.6234 4.5915 C 10.5353 4.5915 9.6516 5.4752 9.6516 6.5633 C 9.6516 7.6513 10.5353 8.535 11.6234 8.535 C 13.1975 8.535 13.2858 6.1711 14.9538 6.5633 Z " stroke-width="5.52317476272583"/>
    <path id="ID0.19739550026133657" fill="#fff" d="M 1.1238 6.5633 C 1.8032 5.5746 2.8802 4.5915 4.4543 4.5915 C 5.5424 4.5915 6.4261 5.4752 6.4261 6.5633 C 6.4261 7.6513 5.5424 8.535 4.4543 8.535 C 2.8802 8.535 2.7863 6.1711 1.1238 6.5633 Z " stroke-width="5.52317476272583"/>
    <path id="ID0.06658731354400516" fill="#084e52" d="M 4.3935 5.4697 C 4.6973 5.4697 4.9679 5.5912 5.1668 5.79 C 5.3656 5.9889 5.4871 6.2595 5.4871 6.5633 C 5.4871 6.867 5.3656 7.1377 5.1668 7.3365 C 4.9679 7.5353 4.6973 7.6569 4.3935 7.6569 C 4.0898 7.6569 3.8191 7.5353 3.6203 7.3365 C 3.4215 7.1377 3.2999 6.867 3.2999 6.5633 C 3.2999 6.2595 3.4215 5.9889 3.6203 5.79 C 3.8191 5.5912 4.0898 5.4697 4.3935 5.4697 Z " stroke-width="5.52317476272583"/>
    <path id="ID0.7600076687522233" fill="#769496" d="M 3.9627 5.7017 C 4.0842 5.7017 4.1892 5.7514 4.2665 5.8287 C 4.3438 5.906 4.3935 6.0109 4.3935 6.1325 C 4.3935 6.254 4.3438 6.3589 4.2665 6.4362 C 4.1892 6.5136 4.0842 6.5633 3.9627 6.5633 C 3.8412 6.5633 3.7363 6.5136 3.659 6.4362 C 3.5816 6.3589 3.5319 6.254 3.5319 6.1325 C 3.5319 6.0109 3.5816 5.906 3.659 5.8287 C 3.7363 5.7514 3.8412 5.7017 3.9627 5.7017 Z " stroke-width="5.52317476272583"/>
    <path id="ID0.002398910466581583" fill="#9ab9ba" d="M 4.8243 6.254 C 4.9072 6.254 4.9845 6.2871 5.0453 6.3423 C 5.1005 6.4031 5.1336 6.4804 5.1336 6.5633 C 5.1336 6.6461 5.1005 6.7234 5.0453 6.7842 C 4.9845 6.8394 4.9072 6.8726 4.8243 6.8726 C 4.7415 6.8726 4.6642 6.8394 4.6034 6.7842 C 4.5482 6.7234 4.515 6.6461 4.515 6.5633 C 4.515 6.4804 4.5482 6.4031 4.6034 6.3423 C 4.6642 6.2871 4.7415 6.254 4.8243 6.254 Z " stroke-width="5.52317476272583"/>
    <path id="ID0.02794200787320733" fill="#084e52" d="M 11.5681 5.4697 C 11.8719 5.4697 12.1425 5.5912 12.3414 5.79 C 12.5402 5.9889 12.6617 6.2595 12.6617 6.5633 C 12.6617 6.867 12.5402 7.1377 12.3414 7.3365 C 12.1425 7.5353 11.8719 7.6569 11.5681 7.6569 C 11.2644 7.6569 10.9937 7.5353 10.7949 7.3365 C 10.5961 7.1377 10.4745 6.867 10.4745 6.5633 C 10.4745 6.2595 10.5961 5.9889 10.7949 5.79 C 10.9937 5.5912 11.2644 5.4697 11.5681 5.4697 Z " stroke-width="5.52317476272583"/>
    <path id="ID0.8420716924592853" fill="#769496" d="M 11.1318 5.7017 C 11.2533 5.7017 11.3583 5.7514 11.4356 5.8287 C 11.5129 5.906 11.5626 6.0109 11.5626 6.1325 C 11.5626 6.254 11.5129 6.3589 11.4356 6.4362 C 11.3583 6.5136 11.2533 6.5633 11.1318 6.5633 C 11.0103 6.5633 10.9054 6.5136 10.828 6.4362 C 10.7507 6.3589 10.701 6.254 10.701 6.1325 C 10.701 6.0109 10.7507 5.906 10.828 5.8287 C 10.9054 5.7514 11.0103 5.7017 11.1318 5.7017 Z " stroke-width="5.52317476272583"/>
    <path id="ID0.775954375974834" fill="#9ab9ba" d="M 11.9989 6.254 C 12.0818 6.254 12.1591 6.2871 12.2199 6.3423 C 12.2751 6.4031 12.3082 6.4804 12.3082 6.5633 C 12.3082 6.6461 12.2751 6.7234 12.2199 6.7842 C 12.1591 6.8394 12.0818 6.8726 11.9989 6.8726 C 11.9161 6.8726 11.8388 6.8394 11.778 6.7842 C 11.7228 6.7234 11.6896 6.6461 11.6896 6.5633 C 11.6896 6.4804 11.7228 6.4031 11.778 6.3423 C 11.8388 6.2871 11.9161 6.254 11.9989 6.254 Z " stroke-width="5.52317476272583"/>
  </g>
</svg>