<svg version="1.1" width="33.21799850463867" height="54.40700149536133" viewBox="-0.43699999898672104 -0.3439999967813492 33.21799850463867 54.40700149536133" xmlns="http://www.w3.org/2000/svg" xmlns:xlink="http://www.w3.org/1999/xlink">
  <!-- Exported by Scratch - http://scratch.mit.edu/ -->
  <g id="ID0.02753199404105544">
    <g id="layer1">
      <path id="path3250" fill="#666666" stroke="none" d="M 17.625 0.156 C 14.812 0.156 12.301 0.832 10.063 2.156 C 7.824 3.481 6.023 5.398 4.688 7.906 L 4.563 7.906 L 4.563 1 L 0.063 1 L 0.063 53.563 L 4.563 53.563 L 4.563 31.188 L 4.688 31.188 C 7.195 35.617 11 37.844 16.063 37.844 C 18.57 37.844 20.809 37.348 22.813 36.375 C 24.816 35.402 26.531 34.039 27.938 32.281 C 29.344 30.523 30.406 28.418 31.156 25.969 C 31.906 23.52 32.281 20.82 32.281 17.844 C 32.281 15.125 31.949 12.68 31.281 10.5 C 30.613 8.32 29.66 6.461 28.406 4.938 C 27.152 3.414 25.629 2.238 23.813 1.406 C 21.996 0.574 19.922 0.156 17.625 0.156 Z M 16.719 4.063 C 18.383 4.063 19.871 4.367 21.219 5 C 22.566 5.633 23.738 6.555 24.688 7.75 C 25.637 8.945 26.359 10.395 26.875 12.094 C 27.391 13.793 27.656 15.703 27.656 17.813 C 27.656 20.273 27.363 22.508 26.813 24.5 C 26.262 26.492 25.488 28.188 24.469 29.594 C 23.449 31 22.203 32.082 20.75 32.844 C 19.297 33.605 17.68 33.969 15.875 33.969 C 14.187 33.969 12.645 33.664 11.25 33.031 C 9.855 32.398 8.672 31.527 7.688 30.438 C 6.703 29.348 5.926 28.098 5.375 26.656 C 4.824 25.215 4.562 23.672 4.563 22.031 L 4.563 17.25 C 4.562 15.445 4.844 13.731 5.406 12.125 C 5.969 10.52 6.758 9.133 7.813 7.938 C 8.867 6.742 10.156 5.785 11.656 5.094 C 13.156 4.402 14.844 4.063 16.719 4.063 Z " stroke-width="1"/>
    </g>
  </g>
</svg>