<svg version="1.1" width="30.5" height="51.40599822998047" viewBox="0.281000018119812 0.09399998188018799 30.5 51.40599822998047" xmlns="http://www.w3.org/2000/svg" xmlns:xlink="http://www.w3.org/1999/xlink">
  <!-- Exported by Scratch - http://scratch.mit.edu/ -->
  <g id="ID0.3187064486555755">
    <g id="layer1">
      <path id="path3344" fill="#666666" stroke="none" d="M 0.781 0.594 L 0.781 51 L 5.469 51 L 5.469 31.375 L 12.438 31.375 C 15.227 31.375 17.703 30.965 19.906 30.156 C 22.109 29.348 23.996 28.223 25.531 26.781 C 27.066 25.34 28.242 23.637 29.063 21.656 C 29.883 19.676 30.281 17.531 30.281 15.188 C 30.281 12.867 29.914 10.805 29.188 9 C 28.461 7.195 27.406 5.649 26 4.406 C 24.594 3.164 22.852 2.219 20.813 1.563 C 18.773 0.906 16.461 0.594 13.813 0.594 L 0.781 0.594 Z M 5.469 4.875 L 12.938 4.875 C 21.234 4.875 25.406 8.43 25.406 15.531 C 25.406 19.211 24.281 22.047 22.031 24.063 C 19.781 26.078 16.492 27.094 12.156 27.094 L 5.469 27.094 L 5.469 4.875 Z " stroke-width="1"/>
    </g>
  </g>
</svg>