<svg version="1.1" width="34.93323314189911" height="27.183130145072937" viewBox="-0.4915650188922882 0.4312349557876587 34.93323314189911 27.183130145072937" xmlns="http://www.w3.org/2000/svg" xmlns:xlink="http://www.w3.org/1999/xlink">
  <!-- Exported by Scratch - http://scratch.mit.edu/ -->
  <g id="ID0.03796483017504215">
    <path id="ID0.5629956251941621" fill="#65A8E7" d="M 13.0501 0.9989 C 9.4632 0.9989 6.2132 2.456 3.8602 4.809 C 1.5072 7.162 0.0501 10.412 0.0501 13.9989 C 0.0501 17.5858 1.5072 20.8358 3.8602 23.1888 C 6.2132 25.5418 9.4632 26.9989 13.0501 26.9989 C 16.637 26.9989 19.887 25.5418 22.24 23.1888 C 24.593 20.8358 26.05 17.5858 26.05 13.9989 C 26.05 10.412 24.593 7.162 22.24 4.809 C 19.887 2.456 16.637 0.9989 13.0501 0.9989 Z " stroke-width="1.0833300352096558"/>
  </g>
  <g id="ID0.03796483017504215">
    <path id="ID0.5629956251941621" fill="#65A8E7" d="M 17.0001 0.9989 C 13.4132 0.9989 10.1632 2.456 7.8102 4.809 C 5.4572 7.162 4.0001 10.412 4.0001 13.9989 C 4.0001 17.5858 5.4572 20.8358 7.8102 23.1888 C 10.1632 25.5418 13.4132 26.9989 17.0001 26.9989 C 20.587 26.9989 23.837 25.5418 26.19 23.1888 C 28.543 20.8358 30 17.5858 30 13.9989 C 30 10.412 28.543 7.162 26.19 4.809 C 23.837 2.456 20.587 0.9989 17.0001 0.9989 Z " stroke-width="1.0833300352096558"/>
  </g>
  <g id="ID0.03796483017504215">
    <path id="ID0.5629956251941621" fill="#65A8E7" d="M 20.9001 0.9989 C 17.3132 0.9989 14.0632 2.456 11.7102 4.809 C 9.3572 7.162 7.9001 10.412 7.9001 13.9989 C 7.9001 17.5858 9.3572 20.8358 11.7102 23.1888 C 14.0632 25.5418 17.3132 26.9989 20.9001 26.9989 C 24.487 26.9989 27.737 25.5418 30.09 23.1888 C 32.443 20.8358 33.9 17.5858 33.9 13.9989 C 33.9 10.412 32.443 7.162 30.09 4.809 C 27.737 2.456 24.487 0.9989 20.9001 0.9989 Z " stroke-width="1.0833300352096558"/>
  </g>
  <path id="ID0.4496537633240223" fill="#65A8E7" stroke="none" d="M 13.1577 0.9729 L 20.9577 0.9729 L 20.9577 27.0727 L 13.1577 27.0727 L 13.1577 0.9729 Z " stroke-width="0.69548329499915"/>
</svg>