<svg version="1.1" width="64.63100051879883" height="13.729999542236328" viewBox="-0.2580000013113022 0.4649999737739563 64.63100051879883 13.729999542236328" xmlns="http://www.w3.org/2000/svg" xmlns:xlink="http://www.w3.org/1999/xlink">
  <!-- Exported by Scratch - http://scratch.mit.edu/ -->
  <g id="ID0.0806298591196537">
    <path id="ID0.1468451707623899" fill="#6FD57E" d="M 0.242 13.49 L 0.242 0.965 L 5.796 0.965 C 6.912 0.965 7.761 1.078 8.341 1.303 C 8.922 1.528 9.387 1.925 9.734 2.495 C 10.081 3.064 10.255 3.694 10.255 4.383 C 10.255 5.271 9.968 6.02 9.392 6.63 C 8.817 7.239 7.929 7.626 6.727 7.792 C 7.165 8.002 7.499 8.21 7.726 8.415 C 8.21 8.859 8.669 9.415 9.102 10.081 L 11.28 13.49 L 9.196 13.49 L 7.538 10.884 C 7.054 10.132 6.656 9.557 6.342 9.158 C 6.029 8.76 5.749 8.481 5.501 8.321 C 5.253 8.162 5.001 8.051 4.745 7.988 C 4.557 7.948 4.249 7.928 3.822 7.928 L 1.9 7.928 L 1.9 13.49 L 0.242 13.49 Z M 1.9 6.493 L 5.462 6.493 C 6.22 6.493 6.812 6.415 7.239 6.258 C 7.667 6.101 7.991 5.851 8.213 5.506 C 8.435 5.162 8.547 4.787 8.547 4.383 C 8.547 3.79 8.331 3.303 7.901 2.922 C 7.471 2.54 6.792 2.349 5.864 2.349 L 1.9 2.349 L 1.9 6.493 Z " stroke-width="1"/>
    <path id="ID0.5016395752318203" fill="#6FD57E" d="M 18.576 12.371 C 18.007 12.855 17.459 13.197 16.932 13.396 C 16.405 13.595 15.84 13.695 15.236 13.695 C 14.239 13.695 13.473 13.451 12.938 12.964 C 12.402 12.478 12.135 11.855 12.135 11.098 C 12.135 10.654 12.236 10.248 12.438 9.88 C 12.64 9.513 12.905 9.218 13.232 8.996 C 13.56 8.774 13.929 8.606 14.339 8.492 C 14.641 8.412 15.096 8.335 15.706 8.261 C 16.947 8.113 17.862 7.937 18.448 7.732 C 18.454 7.521 18.457 7.387 18.457 7.33 C 18.457 6.704 18.311 6.262 18.021 6.006 C 17.628 5.659 17.044 5.485 16.27 5.485 C 15.546 5.485 15.012 5.612 14.668 5.865 C 14.323 6.118 14.068 6.567 13.903 7.211 L 12.4 7.006 C 12.536 6.362 12.761 5.842 13.074 5.446 C 13.388 5.051 13.84 4.746 14.433 4.532 C 15.025 4.319 15.711 4.212 16.492 4.212 C 17.266 4.212 17.896 4.303 18.38 4.485 C 18.864 4.668 19.22 4.897 19.448 5.173 C 19.676 5.449 19.835 5.798 19.926 6.22 C 19.977 6.482 20.003 6.954 20.003 7.638 L 20.003 9.688 C 20.003 11.118 20.036 12.022 20.101 12.401 C 20.167 12.779 20.296 13.142 20.49 13.49 L 18.884 13.49 C 18.724 13.171 18.622 12.798 18.576 12.371 Z M 18.448 8.936 C 17.89 9.164 17.053 9.358 15.936 9.517 C 15.304 9.608 14.857 9.711 14.595 9.825 C 14.333 9.939 14.131 10.105 13.989 10.325 C 13.846 10.544 13.775 10.787 13.775 11.055 C 13.775 11.465 13.93 11.807 14.241 12.08 C 14.551 12.354 15.005 12.49 15.603 12.49 C 16.196 12.49 16.722 12.361 17.184 12.102 C 17.645 11.842 17.984 11.488 18.2 11.038 C 18.366 10.691 18.448 10.178 18.448 9.5 L 18.448 8.936 Z " stroke-width="1"/>
    <path id="ID0.7139586922712624" fill="#6FD57E" d="M 22.387 13.49 L 22.387 4.417 L 23.771 4.417 L 23.771 5.707 C 24.437 4.71 25.4 4.212 26.658 4.212 C 27.205 4.212 27.708 4.31 28.166 4.507 C 28.625 4.703 28.968 4.961 29.196 5.28 C 29.423 5.599 29.583 5.978 29.674 6.416 C 29.731 6.701 29.759 7.199 29.759 7.911 L 29.759 13.49 L 28.222 13.49 L 28.222 7.971 C 28.222 7.344 28.162 6.876 28.042 6.566 C 27.923 6.255 27.711 6.007 27.406 5.822 C 27.101 5.637 26.744 5.545 26.334 5.545 C 25.679 5.545 25.113 5.753 24.638 6.168 C 24.162 6.584 23.924 7.373 23.924 8.535 L 23.924 13.49 L 22.387 13.49 Z " stroke-width="1"/>
    <path id="ID0.13027416681870818" fill="#6FD57E" d="M 38.004 13.49 L 38.004 12.345 C 37.428 13.245 36.583 13.695 35.466 13.695 C 34.743 13.695 34.078 13.496 33.472 13.097 C 32.865 12.698 32.395 12.141 32.062 11.427 C 31.729 10.712 31.562 9.89 31.562 8.962 C 31.562 8.056 31.713 7.235 32.015 6.497 C 32.317 5.76 32.77 5.194 33.373 4.801 C 33.977 4.408 34.652 4.212 35.398 4.212 C 35.945 4.212 36.432 4.327 36.859 4.558 C 37.286 4.789 37.634 5.089 37.901 5.459 L 37.901 0.965 L 39.43 0.965 L 39.43 13.49 L 38.004 13.49 Z M 33.143 8.962 C 33.143 10.124 33.388 10.992 33.877 11.568 C 34.367 12.143 34.945 12.431 35.612 12.431 C 36.284 12.431 36.855 12.156 37.325 11.606 C 37.794 11.056 38.029 10.218 38.029 9.09 C 38.029 7.848 37.79 6.937 37.312 6.356 C 36.833 5.775 36.244 5.485 35.543 5.485 C 34.86 5.485 34.289 5.764 33.83 6.322 C 33.372 6.88 33.143 7.76 33.143 8.962 Z " stroke-width="1"/>
    <path id="ID0.3584450539201498" fill="#6FD57E" d="M 41.276 8.953 C 41.276 7.273 41.743 6.029 42.677 5.22 C 43.457 4.548 44.408 4.212 45.53 4.212 C 46.778 4.212 47.797 4.621 48.589 5.438 C 49.381 6.255 49.776 7.384 49.776 8.825 C 49.776 9.993 49.601 10.911 49.251 11.58 C 48.901 12.25 48.391 12.769 47.722 13.14 C 47.053 13.51 46.322 13.695 45.53 13.695 C 44.26 13.695 43.234 13.288 42.451 12.473 C 41.667 11.659 41.276 10.486 41.276 8.953 Z M 42.856 8.953 C 42.856 10.115 43.11 10.985 43.617 11.563 C 44.124 12.141 44.761 12.431 45.53 12.431 C 46.294 12.431 46.929 12.14 47.436 11.559 C 47.942 10.978 48.196 10.093 48.196 8.902 C 48.196 7.78 47.941 6.93 47.431 6.352 C 46.922 5.774 46.288 5.485 45.53 5.485 C 44.761 5.485 44.124 5.772 43.617 6.348 C 43.11 6.923 42.856 7.792 42.856 8.953 Z " stroke-width="1"/>
    <path id="ID0.62386484304443" fill="#6FD57E" d="M 51.579 13.49 L 51.579 4.417 L 52.954 4.417 L 52.954 5.69 C 53.239 5.246 53.618 4.888 54.091 4.618 C 54.563 4.347 55.102 4.212 55.705 4.212 C 56.378 4.212 56.929 4.351 57.359 4.631 C 57.789 4.91 58.092 5.3 58.268 5.801 C 58.986 4.742 59.92 4.212 61.071 4.212 C 61.971 4.212 62.663 4.461 63.147 4.959 C 63.631 5.458 63.873 6.225 63.873 7.262 L 63.873 13.49 L 62.344 13.49 L 62.344 7.774 C 62.344 7.159 62.294 6.717 62.194 6.446 C 62.094 6.175 61.914 5.958 61.652 5.792 C 61.39 5.627 61.082 5.545 60.729 5.545 C 60.091 5.545 59.561 5.757 59.14 6.181 C 58.718 6.605 58.508 7.285 58.508 8.219 L 58.508 13.49 L 56.97 13.49 L 56.97 7.595 C 56.97 6.912 56.845 6.399 56.594 6.057 C 56.343 5.716 55.933 5.545 55.364 5.545 C 54.931 5.545 54.531 5.659 54.163 5.886 C 53.796 6.114 53.53 6.447 53.365 6.886 C 53.199 7.325 53.117 7.957 53.117 8.783 L 53.117 13.49 L 51.579 13.49 Z " stroke-width="1"/>
  </g>
</svg>