<svg width="23.393997192382812" height="23.393999099731445" viewBox="0.30300045013427734 -0.1439990997314453 23.393997192382812 23.393999099731445" version="1.1" xmlns="http://www.w3.org/2000/svg" xmlns:xlink="http://www.w3.org/1999/xlink" xml:space="preserve" style="fill-rule:evenodd;clip-rule:evenodd;stroke-linejoin:round;stroke-miterlimit:1.41421;"><g id="HOME Button"><circle cx="12" cy="11.553" r="11.197" style="fill:#fff;" stroke-width="1"/><path d="M9.639,16.933l0,-3.622l2.415,0l0,3.622l3.019,0l0,-4.83l1.812,0l-6.038,-5.433l-6.038,5.433l1.812,0l0,4.83l3.018,0Z" style="fill:#eb7b9d;fill-rule:nonzero;" stroke-width="1"/><path d="M17.601,6.665c-0.672,-0.619 -1.512,-0.928 -2.358,-0.951l-0.072,-1.754l-2.102,2.283l2.284,2.101l-0.073,-1.763c0.623,0.03 1.24,0.261 1.737,0.718c0.899,0.826 1.123,2.115 0.645,3.17l0.783,0.355c0.626,-1.387 0.336,-3.074 -0.844,-4.159Z" style="fill:#eb7b9d;fill-rule:nonzero;" stroke-width="1"/></g></svg>