<svg width="22.429000854492188" height="22.381999969482422" viewBox="-0.16899999976158142 -0.47599999979138374 22.429000854492188 22.381999969482422" version="1.1" xmlns="http://www.w3.org/2000/svg" xmlns:xlink="http://www.w3.org/1999/xlink" xml:space="preserve" style="fill-rule:evenodd;clip-rule:evenodd;stroke-linecap:square;stroke-miterlimit:1.41421;"><g id="Best Time Button"><rect id="Best Time Button1" x="0.331" y="0.024" width="21.429" height="21.382" style="fill:#ffca59;fill-opacity:0.75;" stroke-width="1"/><g id="Timer"><ellipse cx="11.045" cy="11.548" rx="5.428" ry="5.463" style="fill:none;stroke-width:1px;stroke:#d0aa57;" stroke-width="1"/><path d="M12.523,4.335c0,-0.21 -0.17,-0.38 -0.379,-0.38l-2.139,0c-0.21,0 -0.38,0.17 -0.38,0.38l0,0.487c0,0.21 0.17,0.38 0.38,0.38l2.139,0c0.209,0 0.379,-0.17 0.379,-0.38l0,-0.487Z" style="fill:#d0aa57;" stroke-width="1"/><path d="M16.154,7.382c0.1,-0.101 0.1,-0.264 0,-0.365l-0.362,-0.364c-0.1,-0.101 -0.262,-0.101 -0.362,0l-0.363,0.364c-0.1,0.101 -0.1,0.264 0,0.365l0.363,0.365c0.1,0.1 0.262,0.1 0.362,0l0.362,-0.365Z" style="fill:#d0aa57;stroke-width:1px;stroke:#d0aa57;" stroke-width="1"/><path d="M11.838,4.931c0,-0.212 -0.172,-0.384 -0.385,-0.384l-0.816,0c-0.213,0 -0.385,0.172 -0.385,0.384l0,0.769c0,0.213 0.172,0.385 0.385,0.385l0.816,0c0.213,0 0.385,-0.172 0.385,-0.385l0,-0.769Z" style="fill:#d0aa57;" stroke-width="1"/><ellipse cx="11.139" cy="11.643" rx="0.508" ry="0.512" style="fill:#d0aa57;" stroke-width="1"/><path d="M8.604,9.091l2.749,2.337l-0.427,0.43l-2.322,-2.767Z" style="fill:#d0aa57;stroke-width:0.5px;stroke-linecap:round;stroke-linejoin:round;stroke:#d0aa57;" stroke-width="1"/></g></g></svg>