<svg width="16.999999171325683" height="17.000000125" viewBox="-0.4999000625025263 -0.5000000625000001 16.999999171325683 17.000000125" version="1.1" xmlns="http://www.w3.org/2000/svg" xmlns:xlink="http://www.w3.org/1999/xlink" xml:space="preserve" style="fill-rule:evenodd;clip-rule:evenodd;stroke-linecap:square;stroke-miterlimit:1.41421;">
    <g>
        <g>
            <g id="Enemy">
                <g id="Basic Block">
                    <path d="M 16.0001 4 C 16.0001 1.7927 14.2074 0 12.0001 0 L 4.0001 0 C 1.7927 0 0.0001 1.7927 0.0001 4 L 0.0001 12 C 0.0001 14.2073 1.7927 16 4.0001 16 L 12.0001 16 C 14.2074 16 16.0001 14.2073 16.0001 12 L 16.0001 4 Z " style="fill:url(#_Linear1);" stroke-width="0.6666667500000001"/>
                    <path d="M 4.0001 16 L 3.8967 15.9987 L 3.7941 15.9947 L 3.6927 15.988 L 3.5914 15.9793 L 3.4907 15.968 L 3.3914 15.954 L 3.2921 15.9373 L 3.1941 15.9187 L 3.0974 15.8973 L 3.0007 15.874 L 2.9054 15.848 L 2.8114 15.82 L 2.7174 15.79 L 2.6254 15.7573 L 2.5341 15.7227 L 2.4434 15.6853 L 2.3547 15.6467 L 2.2667 15.6053 L 2.1794 15.562 L 2.0941 15.5167 L 2.0094 15.47 L 1.9267 15.4207 L 1.8447 15.3693 L 1.7641 15.3167 L 1.6854 15.2613 L 1.6074 15.2047 L 1.5314 15.1467 L 1.4561 15.086 L 1.3827 15.024 L 1.3114 14.9607 L 1.2407 14.8947 L 1.1721 14.828 L 1.1054 14.7593 L 1.0394 14.6887 L 0.9761 14.6173 L 0.9141 14.544 L 0.8534 14.4687 L 0.7954 14.3927 L 0.7387 14.3147 L 0.6834 14.236 L 0.6307 14.1553 L 0.5794 14.0733 L 0.5301 13.9907 L 0.4834 13.906 L 0.4381 13.8207 L 0.3947 13.7333 L 0.3534 13.6453 L 0.3147 13.5567 L 0.2774 13.466 L 0.2427 13.3747 L 0.2101 13.2827 L 0.1801 13.1887 L 0.1521 13.0947 L 0.1261 12.9993 L 0.1027 12.9027 L 0.0814 12.806 L 0.0627 12.708 L 0.0461 12.6087 L 0.0321 12.5093 L 0.0207 12.4087 L 0.0121 12.3073 L 0.0054 12.206 L 0.0014 12.1033 L 0.0001 12 L 0.0001 4 L 0.0014 3.8967 L 0.0054 3.794 L 0.0121 3.6927 L 0.0207 3.5913 L 0.0321 3.4907 L 0.0461 3.3913 L 0.0627 3.292 L 0.0814 3.194 L 0.1027 3.0973 L 0.1261 3.0007 L 0.1521 2.9053 L 0.1801 2.8113 L 0.2101 2.7173 L 0.2427 2.6253 L 0.2774 2.534 L 0.3147 2.4433 L 0.3534 2.3547 L 0.3947 2.2667 L 0.4381 2.1793 L 0.4834 2.094 L 0.5301 2.0093 L 0.5794 1.9267 L 0.6307 1.8447 L 0.6834 1.764 L 0.7387 1.6853 L 0.7954 1.6073 L 0.8534 1.5313 L 0.9141 1.456 L 0.9761 1.3827 L 1.0394 1.3113 L 1.1054 1.2407 L 1.1721 1.172 L 1.2407 1.1053 L 1.3114 1.0393 L 1.3827 0.976 L 1.4561 0.914 L 1.5314 0.8533 L 1.6074 0.7953 L 1.6854 0.7387 L 1.7641 0.6833 L 1.8447 0.6307 L 1.9267 0.5793 L 2.0094 0.53 L 2.0941 0.4833 L 2.1794 0.438 L 2.2667 0.3947 L 2.3547 0.3533 L 2.4434 0.3147 L 2.5341 0.2773 L 2.6254 0.2427 L 2.7174 0.21 L 2.8114 0.18 L 2.9054 0.152 L 3.0007 0.126 L 3.0974 0.1027 L 3.1941 0.0813 L 3.2921 0.0627 L 3.3914 0.046 L 3.4907 0.032 L 3.5914 0.0207 L 3.6927 0.012 L 3.7941 0.0053 L 3.8967 0.0013 L 4.0001 0 L 12.0001 0 L 12.1034 0.0013 L 12.2061 0.0053 L 12.3074 0.012 L 12.4087 0.0207 L 12.5094 0.032 L 12.6087 0.046 L 12.7081 0.0627 L 12.8061 0.0813 L 12.9027 0.1027 L 12.9994 0.126 L 13.0947 0.152 L 13.1887 0.18 L 13.2827 0.21 L 13.3747 0.2427 L 13.4661 0.2773 L 13.5567 0.3147 L 13.6454 0.3533 L 13.7334 0.3947 L 13.8207 0.438 L 13.9061 0.4833 L 13.9907 0.53 L 14.0734 0.5793 L 14.1554 0.6307 L 14.2361 0.6833 L 14.3147 0.7387 L 14.3927 0.7953 L 14.4687 0.8533 L 14.5441 0.914 L 14.6174 0.976 L 14.6887 1.0393 L 14.7594 1.1053 L 14.8281 1.172 L 14.8947 1.2407 L 14.9607 1.3113 L 15.0241 1.3827 L 15.0861 1.456 L 15.1467 1.5313 L 15.2047 1.6073 L 15.2614 1.6853 L 15.3167 1.764 L 15.3694 1.8447 L 15.4207 1.9267 L 15.4701 2.0093 L 15.5167 2.094 L 15.5621 2.1793 L 15.6054 2.2667 L 15.6467 2.3547 L 15.6854 2.4433 L 15.7227 2.534 L 15.7574 2.6253 L 15.7901 2.7173 L 15.8201 2.8113 L 15.8481 2.9053 L 15.8741 3.0007 L 15.8974 3.0973 L 15.9187 3.194 L 15.9374 3.292 L 15.9541 3.3913 L 15.9681 3.4907 L 15.9794 3.5913 L 15.9881 3.6927 L 15.9947 3.794 L 15.9987 3.8967 L 16.0001 4 L 16.0001 12 L 15.9987 12.1033 L 15.9947 12.206 L 15.9881 12.3073 L 15.9794 12.4087 L 15.9681 12.5093 L 15.9541 12.6087 L 15.9374 12.708 L 15.9187 12.806 L 15.8974 12.9027 L 15.8741 12.9993 L 15.8481 13.0947 L 15.8201 13.1887 L 15.7901 13.2827 L 15.7574 13.3747 L 15.7227 13.466 L 15.6854 13.5567 L 15.6467 13.6453 L 15.6054 13.7333 L 15.5621 13.8207 L 15.5167 13.906 L 15.4701 13.9907 L 15.4207 14.0733 L 15.3694 14.1553 L 15.3167 14.236 L 15.2614 14.3147 L 15.2047 14.3927 L 15.1467 14.4687 L 15.0861 14.544 L 15.0241 14.6173 L 14.9607 14.6887 L 14.8947 14.7593 L 14.8281 14.828 L 14.7594 14.8947 L 14.6887 14.9607 L 14.6174 15.024 L 14.5441 15.086 L 14.4687 15.1467 L 14.3927 15.2047 L 14.3147 15.2613 L 14.2361 15.3167 L 14.1554 15.3693 L 14.0734 15.4207 L 13.9907 15.47 L 13.9061 15.5167 L 13.8207 15.562 L 13.7334 15.6053 L 13.6454 15.6467 L 13.5567 15.6853 L 13.4661 15.7227 L 13.3747 15.7573 L 13.2827 15.79 L 13.1887 15.82 L 13.0947 15.848 L 12.9994 15.874 L 12.9027 15.8973 L 12.8061 15.9187 L 12.7081 15.9373 L 12.6087 15.954 L 12.5094 15.968 L 12.4087 15.9793 L 12.3074 15.988 L 12.2061 15.9947 L 12.1034 15.9987 L 12.0001 16 L 4.0001 16 Z M 4.0087 14.6113 L 11.9914 14.6113 L 12.0681 14.61 L 12.1354 14.6073 L 12.2021 14.6033 L 12.2681 14.5973 L 12.3341 14.59 L 12.3987 14.5807 L 12.4634 14.57 L 12.5267 14.558 L 12.5901 14.544 L 12.6527 14.5287 L 12.7147 14.512 L 12.7761 14.494 L 12.8367 14.474 L 12.8967 14.4527 L 12.9561 14.4307 L 13.0147 14.4067 L 13.0727 14.3807 L 13.1301 14.354 L 13.1867 14.326 L 13.2427 14.2967 L 13.2981 14.266 L 13.3521 14.2333 L 13.4054 14.2 L 13.4581 14.1653 L 13.5101 14.13 L 13.5607 14.0927 L 13.6107 14.0547 L 13.6594 14.0147 L 13.7074 13.974 L 13.7547 13.9327 L 13.8007 13.8893 L 13.8461 13.846 L 13.8901 13.8007 L 13.9327 13.7547 L 13.9741 13.7073 L 14.0147 13.6593 L 14.0547 13.6107 L 14.0927 13.5607 L 14.1301 13.51 L 14.1654 13.458 L 14.2001 13.4053 L 14.2334 13.352 L 14.2661 13.298 L 14.2967 13.2427 L 14.3261 13.1867 L 14.3541 13.1307 L 14.3807 13.0727 L 14.4067 13.0147 L 14.4301 12.956 L 14.4527 12.8967 L 14.4741 12.8367 L 14.4941 12.776 L 14.5121 12.7147 L 14.5287 12.6527 L 14.5441 12.5907 L 14.5581 12.5267 L 14.5701 12.4627 L 14.5807 12.3987 L 14.5901 12.334 L 14.5974 12.268 L 14.6034 12.202 L 14.6074 12.1353 L 14.6101 12.068 L 14.6114 11.9913 L 14.6114 4.0087 L 14.6101 3.932 L 14.6074 3.8647 L 14.6034 3.798 L 14.5974 3.732 L 14.5901 3.666 L 14.5807 3.6013 L 14.5701 3.5373 L 14.5581 3.4733 L 14.5441 3.4093 L 14.5287 3.3473 L 14.5121 3.2853 L 14.4941 3.224 L 14.4741 3.1633 L 14.4527 3.1033 L 14.4301 3.044 L 14.4067 2.9853 L 14.3807 2.9273 L 14.3541 2.8693 L 14.3261 2.8133 L 14.2967 2.7573 L 14.2661 2.702 L 14.2334 2.648 L 14.2001 2.5947 L 14.1654 2.542 L 14.1301 2.49 L 14.0927 2.4393 L 14.0547 2.3893 L 14.0147 2.3407 L 13.9741 2.2927 L 13.9327 2.2453 L 13.8901 2.1993 L 13.8461 2.154 L 13.8007 2.1107 L 13.7547 2.0673 L 13.7074 2.026 L 13.6594 1.9853 L 13.6107 1.9453 L 13.5607 1.9073 L 13.5101 1.87 L 13.4581 1.8347 L 13.4054 1.8 L 13.3521 1.7667 L 13.2981 1.734 L 13.2427 1.7033 L 13.1867 1.674 L 13.1301 1.646 L 13.0727 1.6193 L 13.0147 1.5933 L 12.9561 1.5693 L 12.8967 1.5473 L 12.8367 1.526 L 12.7761 1.506 L 12.7147 1.488 L 12.6527 1.4713 L 12.5901 1.456 L 12.5267 1.442 L 12.4634 1.43 L 12.3987 1.4193 L 12.3341 1.41 L 12.2681 1.4027 L 12.2021 1.3967 L 12.1354 1.3927 L 12.0681 1.39 L 11.9914 1.3887 L 4.0087 1.3887 L 3.9321 1.39 L 3.8647 1.3927 L 3.7981 1.3967 L 3.7321 1.4027 L 3.6661 1.41 L 3.6014 1.4193 L 3.5367 1.43 L 3.4727 1.442 L 3.4101 1.456 L 3.3474 1.4713 L 3.2854 1.488 L 3.2241 1.506 L 3.1634 1.526 L 3.1034 1.5473 L 3.0441 1.5693 L 2.9854 1.5933 L 2.9274 1.6193 L 2.8701 1.646 L 2.8134 1.674 L 2.7574 1.7033 L 2.7021 1.734 L 2.6481 1.766 L 2.5947 1.8 L 2.5421 1.8347 L 2.4901 1.87 L 2.4394 1.9073 L 2.3894 1.9453 L 2.3407 1.9853 L 2.2927 2.026 L 2.2454 2.0673 L 2.1994 2.1107 L 2.1541 2.154 L 2.1107 2.1993 L 2.0674 2.2453 L 2.0261 2.2927 L 1.9854 2.3407 L 1.9461 2.3893 L 1.9074 2.4393 L 1.8701 2.49 L 1.8341 2.542 L 1.8001 2.5947 L 1.7667 2.648 L 1.7341 2.702 L 1.7034 2.7573 L 1.6741 2.8133 L 1.6461 2.87 L 1.6194 2.9273 L 1.5941 2.9847 L 1.5694 3.044 L 1.5474 3.1033 L 1.5261 3.1633 L 1.5061 3.224 L 1.4881 3.2853 L 1.4714 3.3473 L 1.4561 3.41 L 1.4421 3.4727 L 1.4301 3.5367 L 1.4194 3.6013 L 1.4101 3.666 L 1.4027 3.7313 L 1.3967 3.798 L 1.3927 3.8647 L 1.3901 3.932 L 1.3887 4.0087 L 1.3887 11.9913 L 1.3901 12.068 L 1.3927 12.1353 L 1.3967 12.202 L 1.4027 12.2687 L 1.4101 12.334 L 1.4194 12.3987 L 1.4301 12.4633 L 1.4421 12.5273 L 1.4561 12.59 L 1.4714 12.6527 L 1.4881 12.7147 L 1.5061 12.776 L 1.5261 12.8367 L 1.5474 12.8967 L 1.5694 12.956 L 1.5941 13.0153 L 1.6194 13.0727 L 1.6461 13.13 L 1.6741 13.1867 L 1.7034 13.2427 L 1.7341 13.298 L 1.7667 13.352 L 1.8001 13.4053 L 1.8341 13.458 L 1.8701 13.51 L 1.9074 13.5607 L 1.9461 13.6107 L 1.9854 13.6593 L 2.0261 13.7073 L 2.0674 13.7547 L 2.1107 13.8007 L 2.1541 13.846 L 2.1994 13.8893 L 2.2454 13.9327 L 2.2927 13.974 L 2.3407 14.0147 L 2.3894 14.0547 L 2.4394 14.0927 L 2.4901 14.13 L 2.5421 14.1653 L 2.5947 14.2 L 2.6481 14.234 L 2.7021 14.266 L 2.7574 14.2967 L 2.8134 14.326 L 2.8701 14.354 L 2.9274 14.3807 L 2.9854 14.4067 L 3.0441 14.4307 L 3.1034 14.4527 L 3.1634 14.474 L 3.2241 14.494 L 3.2854 14.512 L 3.3474 14.5287 L 3.4101 14.544 L 3.4727 14.558 L 3.5367 14.57 L 3.6014 14.5807 L 3.6661 14.59 L 3.7321 14.5973 L 3.7981 14.6033 L 3.8647 14.6073 L 3.9321 14.61 L 4.0087 14.6113 Z " style="fill:rgb(255,0,0);" stroke-width="0.6666667500000001"/>
                </g>
                <g>
                    <path d="M 10.4441 4.267 C 10.5871 4.593 10.6671 4.954 10.6671 5.333 C 10.6671 6.805 9.4721 8 8.0001 8 C 6.5281 8 5.3331 6.805 5.3331 5.333 C 5.3331 4.954 5.4131 4.593 5.5561 4.267 C 5.9671 4.894 6.9071 5.333 8.0001 5.333 C 9.0931 5.333 10.0331 4.894 10.4441 4.267 Z " style="fill:white;" stroke-width="1.0000001250000001"/>
                </g>
                <g>
                    <path d="M 9.3621 5.084 C 9.3771 5.165 9.3841 5.248 9.3841 5.333 C 9.3841 6.097 8.7641 6.718 8.0001 6.718 C 7.2361 6.718 6.6161 6.097 6.6161 5.333 C 6.6161 5.248 6.6231 5.165 6.6381 5.084 C 7.0371 5.242 7.5031 5.333 8.0001 5.333 C 8.4971 5.333 8.9631 5.242 9.3621 5.084 Z " style="fill:black;" stroke-width="1.0000001250000001"/>
                </g>
                <g>
                    <path d="M 10.2051 11.556 C 10.2051 11.556 9.9751 10.978 9.4761 10.616 C 9.0351 10.296 8.3451 10.186 8.0001 10.186 C 7.6551 10.186 6.9781 10.282 6.5381 10.602 C 6.0391 10.964 5.7951 11.556 5.7951 11.556 C 6.0421 10.761 6.9361 10.171 8.0001 10.171 C 9.0641 10.171 9.9581 10.761 10.2051 11.556 Z " style="fill:none;stroke-width:0.56px;stroke:black;" stroke-width="1.0000001250000001"/>
                </g>
            </g>
        </g>
    </g>
    <defs>
        <linearGradient id="_Linear1" x1="0" y1="0" x2="1" y2="0" gradientUnits="userSpaceOnUse" gradientTransform="matrix(1.46958e-15,24,-24,1.46958e-15,60,48)"><stop offset="0%" style="stop-color:rgb(255,15,15);stop-opacity:1"/><stop offset="100%" style="stop-color:rgb(165,0,0);stop-opacity:1"/></linearGradient>
    </defs>
</svg>