<svg version="1.1" width="11" height="46.6870002746582" viewBox="0.25 -0.18700000643730164 11 46.6870002746582" xmlns="http://www.w3.org/2000/svg" xmlns:xlink="http://www.w3.org/1999/xlink">
  <!-- Exported by Scratch - http://scratch.mit.edu/ -->
  <g id="ID0.3496527778916061">
    <g id="layer1">
      <path id="path3265" fill="#666666" stroke="none" d="M 7.375 0.313 C 6.414 0.313 5.613 0.617 4.969 1.25 C 4.324 1.883 4 2.664 4 3.625 C 4 4.586 4.305 5.406 4.938 6.063 C 5.57 6.719 6.391 7.063 7.375 7.063 C 7.82 7.063 8.227 6.957 8.625 6.781 C 9.023 6.605 9.402 6.367 9.719 6.063 C 10.035 5.758 10.281 5.41 10.469 5 C 10.656 4.59 10.75 4.117 10.75 3.625 C 10.75 2.688 10.406 1.895 9.75 1.25 C 9.094 0.605 8.312 0.313 7.375 0.313 Z M 5.438 29.031 L 0.75 46 L 4.188 46 L 10.031 29.031 L 5.438 29.031 Z " stroke-width="1"/>
    </g>
  </g>
</svg>