<svg version="1.1" width="77.78700256347656" height="17.207000732421875" viewBox="0.265999972820282 -0.13499999046325684 77.78700256347656 17.207000732421875" xmlns="http://www.w3.org/2000/svg" xmlns:xlink="http://www.w3.org/1999/xlink">
  <!-- Exported by Scratch - http://scratch.mit.edu/ -->
  <g id="ID0.1509839091449976">
    <path id="ID0.3602897715754807" fill="#6FD57E" d="M 0.766 12.89 L 0.766 0.365 L 3.26 0.365 L 6.225 9.233 C 6.498 10.059 6.697 10.677 6.823 11.087 C 6.965 10.632 7.187 9.962 7.489 9.08 L 10.488 0.365 L 12.718 0.365 L 12.718 12.89 L 11.12 12.89 L 11.12 2.407 L 7.481 12.89 L 5.985 12.89 L 2.363 2.228 L 2.363 12.89 L 0.766 12.89 Z " stroke-width="1"/>
    <path id="ID0.3138382723554969" fill="#6FD57E" d="M 15.127 16.384 L 14.956 14.94 C 15.292 15.031 15.585 15.077 15.836 15.077 C 16.178 15.077 16.451 15.02 16.656 14.906 C 16.861 14.792 17.029 14.633 17.16 14.428 C 17.257 14.274 17.414 13.892 17.63 13.283 C 17.658 13.197 17.704 13.072 17.767 12.907 L 14.324 3.817 L 15.981 3.817 L 17.869 9.071 C 18.114 9.737 18.333 10.438 18.527 11.173 C 18.704 10.466 18.914 9.777 19.159 9.105 L 21.099 3.817 L 22.636 3.817 L 19.185 13.044 C 18.815 14.04 18.527 14.727 18.322 15.103 C 18.049 15.61 17.735 15.981 17.382 16.218 C 17.029 16.454 16.608 16.572 16.118 16.572 C 15.822 16.572 15.491 16.509 15.127 16.384 Z " stroke-width="1"/>
    <path id="ID0.2568597672507167" fill="#6FD57E" d="M 28.933 12.89 L 28.933 0.365 L 30.59 0.365 L 30.59 11.412 L 36.758 11.412 L 36.758 12.89 L 28.933 12.89 Z " stroke-width="1"/>
    <path id="ID0.23647901928052306" fill="#6FD57E" d="M 44.746 9.968 L 46.335 10.165 C 46.085 11.093 45.621 11.813 44.943 12.326 C 44.265 12.839 43.399 13.095 42.346 13.095 C 41.019 13.095 39.966 12.686 39.189 11.869 C 38.412 11.052 38.023 9.905 38.023 8.43 C 38.023 6.904 38.416 5.719 39.202 4.876 C 39.988 4.033 41.007 3.612 42.26 3.612 C 43.473 3.612 44.464 4.025 45.233 4.851 C 46.002 5.677 46.387 6.838 46.387 8.336 C 46.387 8.427 46.384 8.564 46.378 8.746 L 39.612 8.746 C 39.669 9.743 39.951 10.506 40.458 11.036 C 40.965 11.566 41.597 11.831 42.354 11.831 C 42.918 11.831 43.399 11.682 43.798 11.386 C 44.197 11.09 44.513 10.617 44.746 9.968 Z M 39.697 7.482 L 44.763 7.482 C 44.695 6.719 44.501 6.146 44.183 5.765 C 43.693 5.172 43.058 4.876 42.277 4.876 C 41.571 4.876 40.977 5.113 40.496 5.585 C 40.015 6.058 39.749 6.69 39.697 7.482 Z " stroke-width="1"/>
    <path id="ID0.33340216614305973" fill="#6FD57E" d="M 50.786 12.89 L 47.335 3.817 L 48.958 3.817 L 50.906 9.25 C 51.117 9.837 51.31 10.447 51.487 11.079 C 51.624 10.6 51.815 10.025 52.059 9.353 L 54.076 3.817 L 55.656 3.817 L 52.222 12.89 L 50.786 12.89 Z " stroke-width="1"/>
    <path id="ID0.3338231239467859" fill="#6FD57E" d="M 63.225 9.968 L 64.815 10.165 C 64.564 11.093 64.1 11.813 63.422 12.326 C 62.744 12.839 61.878 13.095 60.825 13.095 C 59.498 13.095 58.446 12.686 57.668 11.869 C 56.891 11.052 56.502 9.905 56.502 8.43 C 56.502 6.904 56.895 5.719 57.681 4.876 C 58.467 4.033 59.486 3.612 60.739 3.612 C 61.953 3.612 62.944 4.025 63.712 4.851 C 64.481 5.677 64.866 6.838 64.866 8.336 C 64.866 8.427 64.863 8.564 64.857 8.746 L 58.091 8.746 C 58.148 9.743 58.43 10.506 58.937 11.036 C 59.444 11.566 60.076 11.831 60.833 11.831 C 61.397 11.831 61.878 11.682 62.277 11.386 C 62.676 11.09 62.992 10.617 63.225 9.968 Z M 58.176 7.482 L 63.243 7.482 C 63.174 6.719 62.981 6.146 62.662 5.765 C 62.172 5.172 61.537 4.876 60.756 4.876 C 60.05 4.876 59.456 5.113 58.975 5.585 C 58.494 6.058 58.228 6.69 58.176 7.482 Z " stroke-width="1"/>
    <path id="ID0.9539192207157612" fill="#6FD57E" d="M 66.711 0.365 L 68.249 0.365 L 68.249 12.889 L 66.711 12.889 L 66.711 0.365 Z " stroke-width="1"/>
    <path id="ID0.11324327439069748" fill="#6FD57E" d="M 70.017 10.182 L 71.538 9.942 C 71.624 10.552 71.861 11.019 72.251 11.344 C 72.642 11.668 73.187 11.831 73.888 11.831 C 74.594 11.831 75.118 11.687 75.459 11.399 C 75.801 11.111 75.972 10.774 75.972 10.387 C 75.972 10.039 75.821 9.766 75.519 9.567 C 75.309 9.43 74.785 9.256 73.947 9.045 C 72.82 8.761 72.038 8.514 71.602 8.306 C 71.166 8.099 70.836 7.811 70.611 7.444 C 70.386 7.076 70.274 6.67 70.274 6.226 C 70.274 5.822 70.366 5.447 70.551 5.103 C 70.736 4.758 70.988 4.472 71.307 4.244 C 71.547 4.068 71.873 3.918 72.286 3.796 C 72.699 3.673 73.141 3.612 73.614 3.612 C 74.326 3.612 74.951 3.714 75.489 3.919 C 76.028 4.125 76.425 4.402 76.681 4.752 C 76.937 5.103 77.114 5.571 77.211 6.158 L 75.707 6.363 C 75.639 5.896 75.441 5.531 75.113 5.269 C 74.786 5.007 74.323 4.876 73.725 4.876 C 73.019 4.876 72.515 4.993 72.213 5.227 C 71.911 5.46 71.76 5.733 71.76 6.047 C 71.76 6.246 71.823 6.425 71.948 6.585 C 72.073 6.75 72.27 6.887 72.538 6.995 C 72.691 7.052 73.144 7.183 73.896 7.388 C 74.984 7.679 75.743 7.916 76.173 8.101 C 76.603 8.287 76.94 8.556 77.185 8.909 C 77.43 9.262 77.553 9.7 77.553 10.224 C 77.553 10.737 77.403 11.22 77.104 11.672 C 76.805 12.125 76.374 12.476 75.81 12.723 C 75.246 12.971 74.608 13.095 73.896 13.095 C 72.717 13.095 71.819 12.85 71.201 12.36 C 70.583 11.87 70.188 11.144 70.017 10.182 Z " stroke-width="1"/>
  </g>
</svg>